%TF.GenerationSoftware,KiCad,Pcbnew,8.0.1*%
%TF.CreationDate,2024-06-02T10:18:44+08:00*%
%TF.ProjectId,CrazyPowerboard,4372617a-7950-46f7-9765-72626f617264,rev?*%
%TF.SameCoordinates,Original*%
%TF.FileFunction,Legend,Top*%
%TF.FilePolarity,Positive*%
%FSLAX46Y46*%
G04 Gerber Fmt 4.6, Leading zero omitted, Abs format (unit mm)*
G04 Created by KiCad (PCBNEW 8.0.1) date 2024-06-02 10:18:44*
%MOMM*%
%LPD*%
G01*
G04 APERTURE LIST*
%ADD10C,0.150000*%
%ADD11C,0.080000*%
%ADD12C,0.060000*%
%ADD13C,0.200000*%
%ADD14C,0.125000*%
%ADD15C,0.100000*%
%ADD16C,0.175000*%
%ADD17C,0.240000*%
%ADD18C,0.140000*%
%ADD19C,0.160000*%
%ADD20C,0.120000*%
%ADD21C,0.127000*%
G04 APERTURE END LIST*
D10*
X96575000Y-52400000D02*
X81575000Y-52400000D01*
D11*
X82525000Y-65050000D02*
X83925000Y-65050000D01*
X83925000Y-67050000D01*
X82525000Y-67050000D01*
X82525000Y-65050000D01*
D10*
X108253200Y-46547400D02*
X108653200Y-46547400D01*
X107925000Y-59000000D02*
X106125000Y-59000000D01*
D11*
X104925000Y-44400000D02*
X116325000Y-44400000D01*
X116325000Y-49400000D01*
X104925000Y-49400000D01*
X104925000Y-44400000D01*
D10*
X107725000Y-59200000D02*
X108125000Y-58800000D01*
X111850000Y-43900000D02*
X113500000Y-43900000D01*
X114100000Y-43900000D02*
X115750000Y-43900000D01*
X116350000Y-43900000D02*
X118000000Y-43900000D01*
X118600000Y-43900000D02*
X118600000Y-43900000D01*
X96575000Y-52400000D02*
X96575000Y-58900000D01*
X107625000Y-51360000D02*
X106975000Y-52110000D01*
X106975000Y-51810000D01*
X107225000Y-51510000D01*
X106525000Y-51510000D01*
X106525000Y-51210000D01*
X107225000Y-51210000D01*
X106975000Y-50860000D01*
X106975000Y-50610000D01*
X107625000Y-51360000D01*
G36*
X107625000Y-51360000D02*
G01*
X106975000Y-52110000D01*
X106975000Y-51810000D01*
X107225000Y-51510000D01*
X106525000Y-51510000D01*
X106525000Y-51210000D01*
X107225000Y-51210000D01*
X106975000Y-50860000D01*
X106975000Y-50610000D01*
X107625000Y-51360000D01*
G37*
X94075000Y-52400000D02*
X94075000Y-52900000D01*
D12*
X86375000Y-47150000D02*
X87325000Y-47150000D01*
X87325000Y-48650000D01*
X86375000Y-48650000D01*
X86375000Y-47150000D01*
D10*
X96575000Y-58900000D02*
X81625000Y-58900000D01*
D11*
X98575000Y-82900000D02*
X99975000Y-82900000D01*
X99975000Y-84900000D01*
X98575000Y-84900000D01*
X98575000Y-82900000D01*
D10*
X108975000Y-52160000D02*
X108375000Y-52160000D01*
X108375000Y-51660000D01*
X107825000Y-51660000D01*
X107825000Y-51010000D01*
X108375000Y-51010000D01*
X108375000Y-50460000D01*
X108975000Y-50460000D01*
X108975000Y-52160000D01*
G36*
X108975000Y-52160000D02*
G01*
X108375000Y-52160000D01*
X108375000Y-51660000D01*
X107825000Y-51660000D01*
X107825000Y-51010000D01*
X108375000Y-51010000D01*
X108375000Y-50460000D01*
X108975000Y-50460000D01*
X108975000Y-52160000D01*
G37*
D12*
X93250000Y-47250000D02*
X94200000Y-47250000D01*
X94200000Y-48750000D01*
X93250000Y-48750000D01*
X93250000Y-47250000D01*
X91925000Y-38000000D02*
X92875000Y-38000000D01*
X92875000Y-39500000D01*
X91925000Y-39500000D01*
X91925000Y-38000000D01*
D10*
X83325000Y-52400000D02*
X83325000Y-52900000D01*
X111825000Y-29360000D02*
X111827837Y-31009998D01*
X111828869Y-31609997D02*
X111831706Y-33259994D01*
X111832737Y-33859993D02*
X111835574Y-35509991D01*
X111836606Y-36109990D02*
X111839443Y-37759988D01*
X111840475Y-38359987D02*
X111843312Y-40009984D01*
X111844343Y-40609983D02*
X111847180Y-42259981D01*
X111848212Y-42859980D02*
X111850000Y-43900000D01*
D11*
X106425000Y-29250000D02*
X107825000Y-29250000D01*
X107825000Y-31250000D01*
X106425000Y-31250000D01*
X106425000Y-29250000D01*
D12*
X86375000Y-49900000D02*
X87325000Y-49900000D01*
X87325000Y-51400000D01*
X86375000Y-51400000D01*
X86375000Y-49900000D01*
D11*
X103175000Y-50400000D02*
X104575000Y-50400000D01*
X104575000Y-52400000D01*
X103175000Y-52400000D01*
X103175000Y-50400000D01*
D12*
X91925000Y-42750000D02*
X92875000Y-42750000D01*
X92875000Y-44250000D01*
X91925000Y-44250000D01*
X91925000Y-42750000D01*
D11*
X94675000Y-54900000D02*
X96075000Y-54900000D01*
X96075000Y-56900000D01*
X94675000Y-56900000D01*
X94675000Y-54900000D01*
D10*
X108125000Y-59200000D02*
X107725000Y-58800000D01*
X105975000Y-50160000D02*
X107625000Y-50160000D01*
X108225000Y-50160000D02*
X109875000Y-50160000D01*
X110475000Y-50160000D02*
X112125000Y-50160000D01*
X112725000Y-50160000D02*
X114375000Y-50160000D01*
X114975000Y-50160000D02*
X116625000Y-50160000D01*
X117225000Y-50160000D02*
X118425000Y-50160000D01*
X118425000Y-50160000D02*
X118425000Y-51810000D01*
X118425000Y-52410000D02*
X118425000Y-54060000D01*
X118425000Y-54660000D02*
X118425000Y-56310000D01*
X118425000Y-56910000D02*
X118425000Y-58560000D01*
X118425000Y-59160000D02*
X118425000Y-59660000D01*
X118425000Y-59660000D02*
X116775000Y-59660000D01*
X116175000Y-59660000D02*
X114525000Y-59660000D01*
X113925000Y-59660000D02*
X112275000Y-59660000D01*
X111675000Y-59660000D02*
X110025000Y-59660000D01*
X109425000Y-59660000D02*
X107775000Y-59660000D01*
X107175000Y-59660000D02*
X105975000Y-59660000D01*
X105975000Y-59660000D02*
X105975000Y-58010000D01*
X105975000Y-57410000D02*
X105975000Y-55760000D01*
X105975000Y-55160000D02*
X105975000Y-53510000D01*
X105975000Y-52910000D02*
X105975000Y-51260000D01*
X105975000Y-50660000D02*
X105975000Y-50160000D01*
D12*
X81675000Y-54800000D02*
X82625000Y-54800000D01*
X82625000Y-56300000D01*
X81675000Y-56300000D01*
X81675000Y-54800000D01*
D10*
X106125000Y-59000000D02*
X106125000Y-51400000D01*
D11*
X100325000Y-81150000D02*
X101975000Y-81150000D01*
X101975000Y-86650000D01*
X100325000Y-86650000D01*
X100325000Y-81150000D01*
D12*
X93225000Y-49700000D02*
X94175000Y-49700000D01*
X94175000Y-51200000D01*
X93225000Y-51200000D01*
X93225000Y-49700000D01*
D13*
X107592219Y-30980326D02*
X106592219Y-30980326D01*
X106592219Y-30980326D02*
X106592219Y-30599374D01*
X106592219Y-30599374D02*
X106639838Y-30504136D01*
X106639838Y-30504136D02*
X106687457Y-30456517D01*
X106687457Y-30456517D02*
X106782695Y-30408898D01*
X106782695Y-30408898D02*
X106925552Y-30408898D01*
X106925552Y-30408898D02*
X107020790Y-30456517D01*
X107020790Y-30456517D02*
X107068409Y-30504136D01*
X107068409Y-30504136D02*
X107116028Y-30599374D01*
X107116028Y-30599374D02*
X107116028Y-30980326D01*
X106592219Y-29551755D02*
X106592219Y-29742231D01*
X106592219Y-29742231D02*
X106639838Y-29837469D01*
X106639838Y-29837469D02*
X106687457Y-29885088D01*
X106687457Y-29885088D02*
X106830314Y-29980326D01*
X106830314Y-29980326D02*
X107020790Y-30027945D01*
X107020790Y-30027945D02*
X107401742Y-30027945D01*
X107401742Y-30027945D02*
X107496980Y-29980326D01*
X107496980Y-29980326D02*
X107544600Y-29932707D01*
X107544600Y-29932707D02*
X107592219Y-29837469D01*
X107592219Y-29837469D02*
X107592219Y-29646993D01*
X107592219Y-29646993D02*
X107544600Y-29551755D01*
X107544600Y-29551755D02*
X107496980Y-29504136D01*
X107496980Y-29504136D02*
X107401742Y-29456517D01*
X107401742Y-29456517D02*
X107163647Y-29456517D01*
X107163647Y-29456517D02*
X107068409Y-29504136D01*
X107068409Y-29504136D02*
X107020790Y-29551755D01*
X107020790Y-29551755D02*
X106973171Y-29646993D01*
X106973171Y-29646993D02*
X106973171Y-29837469D01*
X106973171Y-29837469D02*
X107020790Y-29932707D01*
X107020790Y-29932707D02*
X107068409Y-29980326D01*
X107068409Y-29980326D02*
X107163647Y-30027945D01*
D14*
X83423642Y-64110621D02*
X83395071Y-64167764D01*
X83395071Y-64167764D02*
X83395071Y-64253478D01*
X83395071Y-64253478D02*
X83423642Y-64339192D01*
X83423642Y-64339192D02*
X83480785Y-64396335D01*
X83480785Y-64396335D02*
X83537928Y-64424906D01*
X83537928Y-64424906D02*
X83652214Y-64453478D01*
X83652214Y-64453478D02*
X83737928Y-64453478D01*
X83737928Y-64453478D02*
X83852214Y-64424906D01*
X83852214Y-64424906D02*
X83909357Y-64396335D01*
X83909357Y-64396335D02*
X83966500Y-64339192D01*
X83966500Y-64339192D02*
X83995071Y-64253478D01*
X83995071Y-64253478D02*
X83995071Y-64196335D01*
X83995071Y-64196335D02*
X83966500Y-64110621D01*
X83966500Y-64110621D02*
X83937928Y-64082049D01*
X83937928Y-64082049D02*
X83737928Y-64082049D01*
X83737928Y-64082049D02*
X83737928Y-64196335D01*
X83995071Y-63824906D02*
X83395071Y-63824906D01*
X83395071Y-63824906D02*
X83995071Y-63482049D01*
X83995071Y-63482049D02*
X83395071Y-63482049D01*
X83995071Y-63196335D02*
X83395071Y-63196335D01*
X83395071Y-63196335D02*
X83395071Y-63053478D01*
X83395071Y-63053478D02*
X83423642Y-62967764D01*
X83423642Y-62967764D02*
X83480785Y-62910621D01*
X83480785Y-62910621D02*
X83537928Y-62882050D01*
X83537928Y-62882050D02*
X83652214Y-62853478D01*
X83652214Y-62853478D02*
X83737928Y-62853478D01*
X83737928Y-62853478D02*
X83852214Y-62882050D01*
X83852214Y-62882050D02*
X83909357Y-62910621D01*
X83909357Y-62910621D02*
X83966500Y-62967764D01*
X83966500Y-62967764D02*
X83995071Y-63053478D01*
X83995071Y-63053478D02*
X83995071Y-63196335D01*
X92399500Y-39017764D02*
X92732833Y-39017764D01*
X92032833Y-39251097D02*
X92399500Y-39017764D01*
X92399500Y-39017764D02*
X92032833Y-38784430D01*
X92099500Y-38584430D02*
X92066166Y-38551097D01*
X92066166Y-38551097D02*
X92032833Y-38484430D01*
X92032833Y-38484430D02*
X92032833Y-38317764D01*
X92032833Y-38317764D02*
X92066166Y-38251097D01*
X92066166Y-38251097D02*
X92099500Y-38217764D01*
X92099500Y-38217764D02*
X92166166Y-38184430D01*
X92166166Y-38184430D02*
X92232833Y-38184430D01*
X92232833Y-38184430D02*
X92332833Y-38217764D01*
X92332833Y-38217764D02*
X92732833Y-38617764D01*
X92732833Y-38617764D02*
X92732833Y-38184430D01*
D13*
X95842219Y-56630326D02*
X94842219Y-56630326D01*
X94842219Y-56630326D02*
X94842219Y-56249374D01*
X94842219Y-56249374D02*
X94889838Y-56154136D01*
X94889838Y-56154136D02*
X94937457Y-56106517D01*
X94937457Y-56106517D02*
X95032695Y-56058898D01*
X95032695Y-56058898D02*
X95175552Y-56058898D01*
X95175552Y-56058898D02*
X95270790Y-56106517D01*
X95270790Y-56106517D02*
X95318409Y-56154136D01*
X95318409Y-56154136D02*
X95366028Y-56249374D01*
X95366028Y-56249374D02*
X95366028Y-56630326D01*
X94937457Y-55677945D02*
X94889838Y-55630326D01*
X94889838Y-55630326D02*
X94842219Y-55535088D01*
X94842219Y-55535088D02*
X94842219Y-55296993D01*
X94842219Y-55296993D02*
X94889838Y-55201755D01*
X94889838Y-55201755D02*
X94937457Y-55154136D01*
X94937457Y-55154136D02*
X95032695Y-55106517D01*
X95032695Y-55106517D02*
X95127933Y-55106517D01*
X95127933Y-55106517D02*
X95270790Y-55154136D01*
X95270790Y-55154136D02*
X95842219Y-55725564D01*
X95842219Y-55725564D02*
X95842219Y-55106517D01*
D14*
X110301842Y-38508021D02*
X110273271Y-38565164D01*
X110273271Y-38565164D02*
X110273271Y-38650878D01*
X110273271Y-38650878D02*
X110301842Y-38736592D01*
X110301842Y-38736592D02*
X110358985Y-38793735D01*
X110358985Y-38793735D02*
X110416128Y-38822306D01*
X110416128Y-38822306D02*
X110530414Y-38850878D01*
X110530414Y-38850878D02*
X110616128Y-38850878D01*
X110616128Y-38850878D02*
X110730414Y-38822306D01*
X110730414Y-38822306D02*
X110787557Y-38793735D01*
X110787557Y-38793735D02*
X110844700Y-38736592D01*
X110844700Y-38736592D02*
X110873271Y-38650878D01*
X110873271Y-38650878D02*
X110873271Y-38593735D01*
X110873271Y-38593735D02*
X110844700Y-38508021D01*
X110844700Y-38508021D02*
X110816128Y-38479449D01*
X110816128Y-38479449D02*
X110616128Y-38479449D01*
X110616128Y-38479449D02*
X110616128Y-38593735D01*
X110873271Y-38222306D02*
X110273271Y-38222306D01*
X110273271Y-38222306D02*
X110873271Y-37879449D01*
X110873271Y-37879449D02*
X110273271Y-37879449D01*
X110873271Y-37593735D02*
X110273271Y-37593735D01*
X110273271Y-37593735D02*
X110273271Y-37450878D01*
X110273271Y-37450878D02*
X110301842Y-37365164D01*
X110301842Y-37365164D02*
X110358985Y-37308021D01*
X110358985Y-37308021D02*
X110416128Y-37279450D01*
X110416128Y-37279450D02*
X110530414Y-37250878D01*
X110530414Y-37250878D02*
X110616128Y-37250878D01*
X110616128Y-37250878D02*
X110730414Y-37279450D01*
X110730414Y-37279450D02*
X110787557Y-37308021D01*
X110787557Y-37308021D02*
X110844700Y-37365164D01*
X110844700Y-37365164D02*
X110873271Y-37450878D01*
X110873271Y-37450878D02*
X110873271Y-37593735D01*
D15*
X116807419Y-43203258D02*
X116783609Y-43250877D01*
X116783609Y-43250877D02*
X116783609Y-43322306D01*
X116783609Y-43322306D02*
X116807419Y-43393734D01*
X116807419Y-43393734D02*
X116855038Y-43441353D01*
X116855038Y-43441353D02*
X116902657Y-43465163D01*
X116902657Y-43465163D02*
X116997895Y-43488972D01*
X116997895Y-43488972D02*
X117069323Y-43488972D01*
X117069323Y-43488972D02*
X117164561Y-43465163D01*
X117164561Y-43465163D02*
X117212180Y-43441353D01*
X117212180Y-43441353D02*
X117259800Y-43393734D01*
X117259800Y-43393734D02*
X117283609Y-43322306D01*
X117283609Y-43322306D02*
X117283609Y-43274687D01*
X117283609Y-43274687D02*
X117259800Y-43203258D01*
X117259800Y-43203258D02*
X117235990Y-43179449D01*
X117235990Y-43179449D02*
X117069323Y-43179449D01*
X117069323Y-43179449D02*
X117069323Y-43274687D01*
X117283609Y-42965163D02*
X116783609Y-42965163D01*
X116783609Y-42965163D02*
X117283609Y-42679449D01*
X117283609Y-42679449D02*
X116783609Y-42679449D01*
X117283609Y-42441353D02*
X116783609Y-42441353D01*
X116783609Y-42441353D02*
X116783609Y-42322305D01*
X116783609Y-42322305D02*
X116807419Y-42250877D01*
X116807419Y-42250877D02*
X116855038Y-42203258D01*
X116855038Y-42203258D02*
X116902657Y-42179448D01*
X116902657Y-42179448D02*
X116997895Y-42155639D01*
X116997895Y-42155639D02*
X117069323Y-42155639D01*
X117069323Y-42155639D02*
X117164561Y-42179448D01*
X117164561Y-42179448D02*
X117212180Y-42203258D01*
X117212180Y-42203258D02*
X117259800Y-42250877D01*
X117259800Y-42250877D02*
X117283609Y-42322305D01*
X117283609Y-42322305D02*
X117283609Y-42441353D01*
D14*
X82076166Y-57621097D02*
X82076166Y-57087764D01*
D16*
X117355757Y-58830583D02*
X118255757Y-58830583D01*
X117398614Y-58830583D02*
X117355757Y-58744869D01*
X117355757Y-58744869D02*
X117355757Y-58573440D01*
X117355757Y-58573440D02*
X117398614Y-58487726D01*
X117398614Y-58487726D02*
X117441471Y-58444869D01*
X117441471Y-58444869D02*
X117527185Y-58402011D01*
X117527185Y-58402011D02*
X117784328Y-58402011D01*
X117784328Y-58402011D02*
X117870042Y-58444869D01*
X117870042Y-58444869D02*
X117912900Y-58487726D01*
X117912900Y-58487726D02*
X117955757Y-58573440D01*
X117955757Y-58573440D02*
X117955757Y-58744869D01*
X117955757Y-58744869D02*
X117912900Y-58830583D01*
X117955757Y-57887725D02*
X117912900Y-57973440D01*
X117912900Y-57973440D02*
X117870042Y-58016297D01*
X117870042Y-58016297D02*
X117784328Y-58059154D01*
X117784328Y-58059154D02*
X117527185Y-58059154D01*
X117527185Y-58059154D02*
X117441471Y-58016297D01*
X117441471Y-58016297D02*
X117398614Y-57973440D01*
X117398614Y-57973440D02*
X117355757Y-57887725D01*
X117355757Y-57887725D02*
X117355757Y-57759154D01*
X117355757Y-57759154D02*
X117398614Y-57673440D01*
X117398614Y-57673440D02*
X117441471Y-57630583D01*
X117441471Y-57630583D02*
X117527185Y-57587725D01*
X117527185Y-57587725D02*
X117784328Y-57587725D01*
X117784328Y-57587725D02*
X117870042Y-57630583D01*
X117870042Y-57630583D02*
X117912900Y-57673440D01*
X117912900Y-57673440D02*
X117955757Y-57759154D01*
X117955757Y-57759154D02*
X117955757Y-57887725D01*
X117355757Y-57287725D02*
X117955757Y-57116297D01*
X117955757Y-57116297D02*
X117527185Y-56944868D01*
X117527185Y-56944868D02*
X117955757Y-56773439D01*
X117955757Y-56773439D02*
X117355757Y-56602011D01*
X117912900Y-55916297D02*
X117955757Y-56002011D01*
X117955757Y-56002011D02*
X117955757Y-56173440D01*
X117955757Y-56173440D02*
X117912900Y-56259154D01*
X117912900Y-56259154D02*
X117827185Y-56302011D01*
X117827185Y-56302011D02*
X117484328Y-56302011D01*
X117484328Y-56302011D02*
X117398614Y-56259154D01*
X117398614Y-56259154D02*
X117355757Y-56173440D01*
X117355757Y-56173440D02*
X117355757Y-56002011D01*
X117355757Y-56002011D02*
X117398614Y-55916297D01*
X117398614Y-55916297D02*
X117484328Y-55873440D01*
X117484328Y-55873440D02*
X117570042Y-55873440D01*
X117570042Y-55873440D02*
X117655757Y-56302011D01*
X117955757Y-55487725D02*
X117355757Y-55487725D01*
X117527185Y-55487725D02*
X117441471Y-55444868D01*
X117441471Y-55444868D02*
X117398614Y-55402011D01*
X117398614Y-55402011D02*
X117355757Y-55316296D01*
X117355757Y-55316296D02*
X117355757Y-55230582D01*
X117912900Y-54287725D02*
X117955757Y-54202011D01*
X117955757Y-54202011D02*
X117955757Y-54030582D01*
X117955757Y-54030582D02*
X117912900Y-53944868D01*
X117912900Y-53944868D02*
X117827185Y-53902011D01*
X117827185Y-53902011D02*
X117784328Y-53902011D01*
X117784328Y-53902011D02*
X117698614Y-53944868D01*
X117698614Y-53944868D02*
X117655757Y-54030582D01*
X117655757Y-54030582D02*
X117655757Y-54159154D01*
X117655757Y-54159154D02*
X117612900Y-54244868D01*
X117612900Y-54244868D02*
X117527185Y-54287725D01*
X117527185Y-54287725D02*
X117484328Y-54287725D01*
X117484328Y-54287725D02*
X117398614Y-54244868D01*
X117398614Y-54244868D02*
X117355757Y-54159154D01*
X117355757Y-54159154D02*
X117355757Y-54030582D01*
X117355757Y-54030582D02*
X117398614Y-53944868D01*
X117355757Y-53602011D02*
X117955757Y-53430583D01*
X117955757Y-53430583D02*
X117527185Y-53259154D01*
X117527185Y-53259154D02*
X117955757Y-53087725D01*
X117955757Y-53087725D02*
X117355757Y-52916297D01*
X117955757Y-52573440D02*
X117355757Y-52573440D01*
X117055757Y-52573440D02*
X117098614Y-52616297D01*
X117098614Y-52616297D02*
X117141471Y-52573440D01*
X117141471Y-52573440D02*
X117098614Y-52530583D01*
X117098614Y-52530583D02*
X117055757Y-52573440D01*
X117055757Y-52573440D02*
X117141471Y-52573440D01*
X117355757Y-52273440D02*
X117355757Y-51930583D01*
X117055757Y-52144869D02*
X117827185Y-52144869D01*
X117827185Y-52144869D02*
X117912900Y-52102012D01*
X117912900Y-52102012D02*
X117955757Y-52016297D01*
X117955757Y-52016297D02*
X117955757Y-51930583D01*
X117912900Y-51244869D02*
X117955757Y-51330583D01*
X117955757Y-51330583D02*
X117955757Y-51502011D01*
X117955757Y-51502011D02*
X117912900Y-51587726D01*
X117912900Y-51587726D02*
X117870042Y-51630583D01*
X117870042Y-51630583D02*
X117784328Y-51673440D01*
X117784328Y-51673440D02*
X117527185Y-51673440D01*
X117527185Y-51673440D02*
X117441471Y-51630583D01*
X117441471Y-51630583D02*
X117398614Y-51587726D01*
X117398614Y-51587726D02*
X117355757Y-51502011D01*
X117355757Y-51502011D02*
X117355757Y-51330583D01*
X117355757Y-51330583D02*
X117398614Y-51244869D01*
X117955757Y-50859154D02*
X117055757Y-50859154D01*
X117955757Y-50473440D02*
X117484328Y-50473440D01*
X117484328Y-50473440D02*
X117398614Y-50516297D01*
X117398614Y-50516297D02*
X117355757Y-50602011D01*
X117355757Y-50602011D02*
X117355757Y-50730582D01*
X117355757Y-50730582D02*
X117398614Y-50816297D01*
X117398614Y-50816297D02*
X117441471Y-50859154D01*
D14*
X82126166Y-53741097D02*
X82126166Y-53207764D01*
X82392833Y-53474430D02*
X81859500Y-53474430D01*
D10*
X101071009Y-85979887D02*
X101118628Y-85837030D01*
X101118628Y-85837030D02*
X101166247Y-85789411D01*
X101166247Y-85789411D02*
X101261485Y-85741792D01*
X101261485Y-85741792D02*
X101404342Y-85741792D01*
X101404342Y-85741792D02*
X101499580Y-85789411D01*
X101499580Y-85789411D02*
X101547200Y-85837030D01*
X101547200Y-85837030D02*
X101594819Y-85932268D01*
X101594819Y-85932268D02*
X101594819Y-86313220D01*
X101594819Y-86313220D02*
X100594819Y-86313220D01*
X100594819Y-86313220D02*
X100594819Y-85979887D01*
X100594819Y-85979887D02*
X100642438Y-85884649D01*
X100642438Y-85884649D02*
X100690057Y-85837030D01*
X100690057Y-85837030D02*
X100785295Y-85789411D01*
X100785295Y-85789411D02*
X100880533Y-85789411D01*
X100880533Y-85789411D02*
X100975771Y-85837030D01*
X100975771Y-85837030D02*
X101023390Y-85884649D01*
X101023390Y-85884649D02*
X101071009Y-85979887D01*
X101071009Y-85979887D02*
X101071009Y-86313220D01*
X101594819Y-84884649D02*
X101071009Y-84884649D01*
X101071009Y-84884649D02*
X100975771Y-84932268D01*
X100975771Y-84932268D02*
X100928152Y-85027506D01*
X100928152Y-85027506D02*
X100928152Y-85217982D01*
X100928152Y-85217982D02*
X100975771Y-85313220D01*
X101547200Y-84884649D02*
X101594819Y-84979887D01*
X101594819Y-84979887D02*
X101594819Y-85217982D01*
X101594819Y-85217982D02*
X101547200Y-85313220D01*
X101547200Y-85313220D02*
X101451961Y-85360839D01*
X101451961Y-85360839D02*
X101356723Y-85360839D01*
X101356723Y-85360839D02*
X101261485Y-85313220D01*
X101261485Y-85313220D02*
X101213866Y-85217982D01*
X101213866Y-85217982D02*
X101213866Y-84979887D01*
X101213866Y-84979887D02*
X101166247Y-84884649D01*
X100928152Y-84551315D02*
X100928152Y-84170363D01*
X100594819Y-84408458D02*
X101451961Y-84408458D01*
X101451961Y-84408458D02*
X101547200Y-84360839D01*
X101547200Y-84360839D02*
X101594819Y-84265601D01*
X101594819Y-84265601D02*
X101594819Y-84170363D01*
X100928152Y-83979886D02*
X100928152Y-83598934D01*
X100594819Y-83837029D02*
X101451961Y-83837029D01*
X101451961Y-83837029D02*
X101547200Y-83789410D01*
X101547200Y-83789410D02*
X101594819Y-83694172D01*
X101594819Y-83694172D02*
X101594819Y-83598934D01*
X101547200Y-82884648D02*
X101594819Y-82979886D01*
X101594819Y-82979886D02*
X101594819Y-83170362D01*
X101594819Y-83170362D02*
X101547200Y-83265600D01*
X101547200Y-83265600D02*
X101451961Y-83313219D01*
X101451961Y-83313219D02*
X101071009Y-83313219D01*
X101071009Y-83313219D02*
X100975771Y-83265600D01*
X100975771Y-83265600D02*
X100928152Y-83170362D01*
X100928152Y-83170362D02*
X100928152Y-82979886D01*
X100928152Y-82979886D02*
X100975771Y-82884648D01*
X100975771Y-82884648D02*
X101071009Y-82837029D01*
X101071009Y-82837029D02*
X101166247Y-82837029D01*
X101166247Y-82837029D02*
X101261485Y-83313219D01*
X101594819Y-82408457D02*
X100928152Y-82408457D01*
X101118628Y-82408457D02*
X101023390Y-82360838D01*
X101023390Y-82360838D02*
X100975771Y-82313219D01*
X100975771Y-82313219D02*
X100928152Y-82217981D01*
X100928152Y-82217981D02*
X100928152Y-82122743D01*
X100928152Y-81884647D02*
X101594819Y-81646552D01*
X100928152Y-81408457D02*
X101594819Y-81646552D01*
X101594819Y-81646552D02*
X101832914Y-81741790D01*
X101832914Y-81741790D02*
X101880533Y-81789409D01*
X101880533Y-81789409D02*
X101928152Y-81884647D01*
D14*
X101966166Y-57651097D02*
X101966166Y-57117764D01*
X102232833Y-57384430D02*
X101699500Y-57384430D01*
X101532833Y-56884430D02*
X102232833Y-56651097D01*
X102232833Y-56651097D02*
X101532833Y-56417763D01*
X90966166Y-68151097D02*
X90966166Y-67617764D01*
X91232833Y-67884430D02*
X90699500Y-67884430D01*
X90532833Y-67384430D02*
X91232833Y-67151097D01*
X91232833Y-67151097D02*
X90532833Y-66917763D01*
D13*
X83692219Y-66780326D02*
X82692219Y-66780326D01*
X82692219Y-66780326D02*
X82692219Y-66399374D01*
X82692219Y-66399374D02*
X82739838Y-66304136D01*
X82739838Y-66304136D02*
X82787457Y-66256517D01*
X82787457Y-66256517D02*
X82882695Y-66208898D01*
X82882695Y-66208898D02*
X83025552Y-66208898D01*
X83025552Y-66208898D02*
X83120790Y-66256517D01*
X83120790Y-66256517D02*
X83168409Y-66304136D01*
X83168409Y-66304136D02*
X83216028Y-66399374D01*
X83216028Y-66399374D02*
X83216028Y-66780326D01*
X82692219Y-65875564D02*
X82692219Y-65256517D01*
X82692219Y-65256517D02*
X83073171Y-65589850D01*
X83073171Y-65589850D02*
X83073171Y-65446993D01*
X83073171Y-65446993D02*
X83120790Y-65351755D01*
X83120790Y-65351755D02*
X83168409Y-65304136D01*
X83168409Y-65304136D02*
X83263647Y-65256517D01*
X83263647Y-65256517D02*
X83501742Y-65256517D01*
X83501742Y-65256517D02*
X83596980Y-65304136D01*
X83596980Y-65304136D02*
X83644600Y-65351755D01*
X83644600Y-65351755D02*
X83692219Y-65446993D01*
X83692219Y-65446993D02*
X83692219Y-65732707D01*
X83692219Y-65732707D02*
X83644600Y-65827945D01*
X83644600Y-65827945D02*
X83596980Y-65875564D01*
D14*
X110301842Y-33360621D02*
X110273271Y-33417764D01*
X110273271Y-33417764D02*
X110273271Y-33503478D01*
X110273271Y-33503478D02*
X110301842Y-33589192D01*
X110301842Y-33589192D02*
X110358985Y-33646335D01*
X110358985Y-33646335D02*
X110416128Y-33674906D01*
X110416128Y-33674906D02*
X110530414Y-33703478D01*
X110530414Y-33703478D02*
X110616128Y-33703478D01*
X110616128Y-33703478D02*
X110730414Y-33674906D01*
X110730414Y-33674906D02*
X110787557Y-33646335D01*
X110787557Y-33646335D02*
X110844700Y-33589192D01*
X110844700Y-33589192D02*
X110873271Y-33503478D01*
X110873271Y-33503478D02*
X110873271Y-33446335D01*
X110873271Y-33446335D02*
X110844700Y-33360621D01*
X110844700Y-33360621D02*
X110816128Y-33332049D01*
X110816128Y-33332049D02*
X110616128Y-33332049D01*
X110616128Y-33332049D02*
X110616128Y-33446335D01*
X110873271Y-33074906D02*
X110273271Y-33074906D01*
X110273271Y-33074906D02*
X110873271Y-32732049D01*
X110873271Y-32732049D02*
X110273271Y-32732049D01*
X110873271Y-32446335D02*
X110273271Y-32446335D01*
X110273271Y-32446335D02*
X110273271Y-32303478D01*
X110273271Y-32303478D02*
X110301842Y-32217764D01*
X110301842Y-32217764D02*
X110358985Y-32160621D01*
X110358985Y-32160621D02*
X110416128Y-32132050D01*
X110416128Y-32132050D02*
X110530414Y-32103478D01*
X110530414Y-32103478D02*
X110616128Y-32103478D01*
X110616128Y-32103478D02*
X110730414Y-32132050D01*
X110730414Y-32132050D02*
X110787557Y-32160621D01*
X110787557Y-32160621D02*
X110844700Y-32217764D01*
X110844700Y-32217764D02*
X110873271Y-32303478D01*
X110873271Y-32303478D02*
X110873271Y-32446335D01*
D10*
X112757017Y-30499866D02*
X112757017Y-29499866D01*
X113257017Y-29999866D02*
X113790351Y-29999866D01*
X114090351Y-30233200D02*
X114190351Y-30266533D01*
X114190351Y-30266533D02*
X114357018Y-30266533D01*
X114357018Y-30266533D02*
X114423684Y-30233200D01*
X114423684Y-30233200D02*
X114457018Y-30199866D01*
X114457018Y-30199866D02*
X114490351Y-30133200D01*
X114490351Y-30133200D02*
X114490351Y-30066533D01*
X114490351Y-30066533D02*
X114457018Y-29999866D01*
X114457018Y-29999866D02*
X114423684Y-29966533D01*
X114423684Y-29966533D02*
X114357018Y-29933200D01*
X114357018Y-29933200D02*
X114223684Y-29899866D01*
X114223684Y-29899866D02*
X114157018Y-29866533D01*
X114157018Y-29866533D02*
X114123684Y-29833200D01*
X114123684Y-29833200D02*
X114090351Y-29766533D01*
X114090351Y-29766533D02*
X114090351Y-29699866D01*
X114090351Y-29699866D02*
X114123684Y-29633200D01*
X114123684Y-29633200D02*
X114157018Y-29599866D01*
X114157018Y-29599866D02*
X114223684Y-29566533D01*
X114223684Y-29566533D02*
X114390351Y-29566533D01*
X114390351Y-29566533D02*
X114490351Y-29599866D01*
X114790351Y-30266533D02*
X114790351Y-29799866D01*
X114790351Y-29566533D02*
X114757018Y-29599866D01*
X114757018Y-29599866D02*
X114790351Y-29633200D01*
X114790351Y-29633200D02*
X114823685Y-29599866D01*
X114823685Y-29599866D02*
X114790351Y-29566533D01*
X114790351Y-29566533D02*
X114790351Y-29633200D01*
X115423684Y-29799866D02*
X115423684Y-30366533D01*
X115423684Y-30366533D02*
X115390351Y-30433200D01*
X115390351Y-30433200D02*
X115357018Y-30466533D01*
X115357018Y-30466533D02*
X115290351Y-30499866D01*
X115290351Y-30499866D02*
X115190351Y-30499866D01*
X115190351Y-30499866D02*
X115123684Y-30466533D01*
X115423684Y-30233200D02*
X115357018Y-30266533D01*
X115357018Y-30266533D02*
X115223684Y-30266533D01*
X115223684Y-30266533D02*
X115157018Y-30233200D01*
X115157018Y-30233200D02*
X115123684Y-30199866D01*
X115123684Y-30199866D02*
X115090351Y-30133200D01*
X115090351Y-30133200D02*
X115090351Y-29933200D01*
X115090351Y-29933200D02*
X115123684Y-29866533D01*
X115123684Y-29866533D02*
X115157018Y-29833200D01*
X115157018Y-29833200D02*
X115223684Y-29799866D01*
X115223684Y-29799866D02*
X115357018Y-29799866D01*
X115357018Y-29799866D02*
X115423684Y-29833200D01*
X115757017Y-29799866D02*
X115757017Y-30266533D01*
X115757017Y-29866533D02*
X115790351Y-29833200D01*
X115790351Y-29833200D02*
X115857017Y-29799866D01*
X115857017Y-29799866D02*
X115957017Y-29799866D01*
X115957017Y-29799866D02*
X116023684Y-29833200D01*
X116023684Y-29833200D02*
X116057017Y-29899866D01*
X116057017Y-29899866D02*
X116057017Y-30266533D01*
X116690350Y-30266533D02*
X116690350Y-29899866D01*
X116690350Y-29899866D02*
X116657017Y-29833200D01*
X116657017Y-29833200D02*
X116590350Y-29799866D01*
X116590350Y-29799866D02*
X116457017Y-29799866D01*
X116457017Y-29799866D02*
X116390350Y-29833200D01*
X116690350Y-30233200D02*
X116623684Y-30266533D01*
X116623684Y-30266533D02*
X116457017Y-30266533D01*
X116457017Y-30266533D02*
X116390350Y-30233200D01*
X116390350Y-30233200D02*
X116357017Y-30166533D01*
X116357017Y-30166533D02*
X116357017Y-30099866D01*
X116357017Y-30099866D02*
X116390350Y-30033200D01*
X116390350Y-30033200D02*
X116457017Y-29999866D01*
X116457017Y-29999866D02*
X116623684Y-29999866D01*
X116623684Y-29999866D02*
X116690350Y-29966533D01*
X117123683Y-30266533D02*
X117057017Y-30233200D01*
X117057017Y-30233200D02*
X117023683Y-30166533D01*
X117023683Y-30166533D02*
X117023683Y-29566533D01*
X117390350Y-29999866D02*
X117923684Y-29999866D01*
X118423684Y-30499866D02*
X118423684Y-29499866D01*
D17*
X114940139Y-58323534D02*
X114940139Y-58133058D01*
X114940139Y-58133058D02*
X114987758Y-58037820D01*
X114987758Y-58037820D02*
X115082996Y-57942582D01*
X115082996Y-57942582D02*
X115273472Y-57894963D01*
X115273472Y-57894963D02*
X115606805Y-57894963D01*
X115606805Y-57894963D02*
X115797281Y-57942582D01*
X115797281Y-57942582D02*
X115892520Y-58037820D01*
X115892520Y-58037820D02*
X115940139Y-58133058D01*
X115940139Y-58133058D02*
X115940139Y-58323534D01*
X115940139Y-58323534D02*
X115892520Y-58418772D01*
X115892520Y-58418772D02*
X115797281Y-58514010D01*
X115797281Y-58514010D02*
X115606805Y-58561629D01*
X115606805Y-58561629D02*
X115273472Y-58561629D01*
X115273472Y-58561629D02*
X115082996Y-58514010D01*
X115082996Y-58514010D02*
X114987758Y-58418772D01*
X114987758Y-58418772D02*
X114940139Y-58323534D01*
X115940139Y-57466391D02*
X114940139Y-57466391D01*
X114940139Y-57466391D02*
X115940139Y-56894963D01*
X115940139Y-56894963D02*
X114940139Y-56894963D01*
D14*
X95282833Y-54251097D02*
X95982833Y-54017764D01*
X95982833Y-54017764D02*
X95282833Y-53784430D01*
X95716166Y-53551097D02*
X95716166Y-53017764D01*
X95982833Y-53284430D02*
X95449500Y-53284430D01*
D13*
X105778006Y-45273521D02*
X105920863Y-45321140D01*
X105920863Y-45321140D02*
X105968482Y-45368759D01*
X105968482Y-45368759D02*
X106016101Y-45463997D01*
X106016101Y-45463997D02*
X106016101Y-45606854D01*
X106016101Y-45606854D02*
X105968482Y-45702092D01*
X105968482Y-45702092D02*
X105920863Y-45749712D01*
X105920863Y-45749712D02*
X105825625Y-45797331D01*
X105825625Y-45797331D02*
X105444673Y-45797331D01*
X105444673Y-45797331D02*
X105444673Y-44797331D01*
X105444673Y-44797331D02*
X105778006Y-44797331D01*
X105778006Y-44797331D02*
X105873244Y-44844950D01*
X105873244Y-44844950D02*
X105920863Y-44892569D01*
X105920863Y-44892569D02*
X105968482Y-44987807D01*
X105968482Y-44987807D02*
X105968482Y-45083045D01*
X105968482Y-45083045D02*
X105920863Y-45178283D01*
X105920863Y-45178283D02*
X105873244Y-45225902D01*
X105873244Y-45225902D02*
X105778006Y-45273521D01*
X105778006Y-45273521D02*
X105444673Y-45273521D01*
X106873244Y-45797331D02*
X106873244Y-45273521D01*
X106873244Y-45273521D02*
X106825625Y-45178283D01*
X106825625Y-45178283D02*
X106730387Y-45130664D01*
X106730387Y-45130664D02*
X106539911Y-45130664D01*
X106539911Y-45130664D02*
X106444673Y-45178283D01*
X106873244Y-45749712D02*
X106778006Y-45797331D01*
X106778006Y-45797331D02*
X106539911Y-45797331D01*
X106539911Y-45797331D02*
X106444673Y-45749712D01*
X106444673Y-45749712D02*
X106397054Y-45654473D01*
X106397054Y-45654473D02*
X106397054Y-45559235D01*
X106397054Y-45559235D02*
X106444673Y-45463997D01*
X106444673Y-45463997D02*
X106539911Y-45416378D01*
X106539911Y-45416378D02*
X106778006Y-45416378D01*
X106778006Y-45416378D02*
X106873244Y-45368759D01*
X107206578Y-45130664D02*
X107587530Y-45130664D01*
X107349435Y-44797331D02*
X107349435Y-45654473D01*
X107349435Y-45654473D02*
X107397054Y-45749712D01*
X107397054Y-45749712D02*
X107492292Y-45797331D01*
X107492292Y-45797331D02*
X107587530Y-45797331D01*
X107778007Y-45130664D02*
X108158959Y-45130664D01*
X107920864Y-44797331D02*
X107920864Y-45654473D01*
X107920864Y-45654473D02*
X107968483Y-45749712D01*
X107968483Y-45749712D02*
X108063721Y-45797331D01*
X108063721Y-45797331D02*
X108158959Y-45797331D01*
X108873245Y-45749712D02*
X108778007Y-45797331D01*
X108778007Y-45797331D02*
X108587531Y-45797331D01*
X108587531Y-45797331D02*
X108492293Y-45749712D01*
X108492293Y-45749712D02*
X108444674Y-45654473D01*
X108444674Y-45654473D02*
X108444674Y-45273521D01*
X108444674Y-45273521D02*
X108492293Y-45178283D01*
X108492293Y-45178283D02*
X108587531Y-45130664D01*
X108587531Y-45130664D02*
X108778007Y-45130664D01*
X108778007Y-45130664D02*
X108873245Y-45178283D01*
X108873245Y-45178283D02*
X108920864Y-45273521D01*
X108920864Y-45273521D02*
X108920864Y-45368759D01*
X108920864Y-45368759D02*
X108444674Y-45463997D01*
X109349436Y-45797331D02*
X109349436Y-45130664D01*
X109349436Y-45321140D02*
X109397055Y-45225902D01*
X109397055Y-45225902D02*
X109444674Y-45178283D01*
X109444674Y-45178283D02*
X109539912Y-45130664D01*
X109539912Y-45130664D02*
X109635150Y-45130664D01*
X109873246Y-45130664D02*
X110111341Y-45797331D01*
X110349436Y-45130664D02*
X110111341Y-45797331D01*
X110111341Y-45797331D02*
X110016103Y-46035426D01*
X110016103Y-46035426D02*
X109968484Y-46083045D01*
X109968484Y-46083045D02*
X109873246Y-46130664D01*
X111016103Y-45463997D02*
X111063722Y-45511616D01*
X111063722Y-45511616D02*
X111016103Y-45559235D01*
X111016103Y-45559235D02*
X110968484Y-45511616D01*
X110968484Y-45511616D02*
X111016103Y-45463997D01*
X111016103Y-45463997D02*
X111016103Y-45559235D01*
X111016103Y-44940188D02*
X111063722Y-44987807D01*
X111063722Y-44987807D02*
X111016103Y-45035426D01*
X111016103Y-45035426D02*
X110968484Y-44987807D01*
X110968484Y-44987807D02*
X111016103Y-44940188D01*
X111016103Y-44940188D02*
X111016103Y-45035426D01*
X111730389Y-44892569D02*
X111778008Y-44844950D01*
X111778008Y-44844950D02*
X111873246Y-44797331D01*
X111873246Y-44797331D02*
X112111341Y-44797331D01*
X112111341Y-44797331D02*
X112206579Y-44844950D01*
X112206579Y-44844950D02*
X112254198Y-44892569D01*
X112254198Y-44892569D02*
X112301817Y-44987807D01*
X112301817Y-44987807D02*
X112301817Y-45083045D01*
X112301817Y-45083045D02*
X112254198Y-45225902D01*
X112254198Y-45225902D02*
X111682770Y-45797331D01*
X111682770Y-45797331D02*
X112301817Y-45797331D01*
X112682770Y-45749712D02*
X112825627Y-45797331D01*
X112825627Y-45797331D02*
X113063722Y-45797331D01*
X113063722Y-45797331D02*
X113158960Y-45749712D01*
X113158960Y-45749712D02*
X113206579Y-45702092D01*
X113206579Y-45702092D02*
X113254198Y-45606854D01*
X113254198Y-45606854D02*
X113254198Y-45511616D01*
X113254198Y-45511616D02*
X113206579Y-45416378D01*
X113206579Y-45416378D02*
X113158960Y-45368759D01*
X113158960Y-45368759D02*
X113063722Y-45321140D01*
X113063722Y-45321140D02*
X112873246Y-45273521D01*
X112873246Y-45273521D02*
X112778008Y-45225902D01*
X112778008Y-45225902D02*
X112730389Y-45178283D01*
X112730389Y-45178283D02*
X112682770Y-45083045D01*
X112682770Y-45083045D02*
X112682770Y-44987807D01*
X112682770Y-44987807D02*
X112730389Y-44892569D01*
X112730389Y-44892569D02*
X112778008Y-44844950D01*
X112778008Y-44844950D02*
X112873246Y-44797331D01*
X112873246Y-44797331D02*
X113111341Y-44797331D01*
X113111341Y-44797331D02*
X113254198Y-44844950D01*
X113539913Y-45416378D02*
X113587532Y-45368759D01*
X113587532Y-45368759D02*
X113682770Y-45321140D01*
X113682770Y-45321140D02*
X113873246Y-45416378D01*
X113873246Y-45416378D02*
X113968484Y-45368759D01*
X113968484Y-45368759D02*
X114016103Y-45321140D01*
X114825627Y-45130664D02*
X114825627Y-45797331D01*
X114587532Y-44749712D02*
X114349437Y-45463997D01*
X114349437Y-45463997D02*
X114968484Y-45463997D01*
X115301818Y-45749712D02*
X115444675Y-45797331D01*
X115444675Y-45797331D02*
X115682770Y-45797331D01*
X115682770Y-45797331D02*
X115778008Y-45749712D01*
X115778008Y-45749712D02*
X115825627Y-45702092D01*
X115825627Y-45702092D02*
X115873246Y-45606854D01*
X115873246Y-45606854D02*
X115873246Y-45511616D01*
X115873246Y-45511616D02*
X115825627Y-45416378D01*
X115825627Y-45416378D02*
X115778008Y-45368759D01*
X115778008Y-45368759D02*
X115682770Y-45321140D01*
X115682770Y-45321140D02*
X115492294Y-45273521D01*
X115492294Y-45273521D02*
X115397056Y-45225902D01*
X115397056Y-45225902D02*
X115349437Y-45178283D01*
X115349437Y-45178283D02*
X115301818Y-45083045D01*
X115301818Y-45083045D02*
X115301818Y-44987807D01*
X115301818Y-44987807D02*
X115349437Y-44892569D01*
X115349437Y-44892569D02*
X115397056Y-44844950D01*
X115397056Y-44844950D02*
X115492294Y-44797331D01*
X115492294Y-44797331D02*
X115730389Y-44797331D01*
X115730389Y-44797331D02*
X115873246Y-44844950D01*
X105444673Y-47407275D02*
X105444673Y-46407275D01*
X105444673Y-46407275D02*
X105825625Y-46407275D01*
X105825625Y-46407275D02*
X105920863Y-46454894D01*
X105920863Y-46454894D02*
X105968482Y-46502513D01*
X105968482Y-46502513D02*
X106016101Y-46597751D01*
X106016101Y-46597751D02*
X106016101Y-46740608D01*
X106016101Y-46740608D02*
X105968482Y-46835846D01*
X105968482Y-46835846D02*
X105920863Y-46883465D01*
X105920863Y-46883465D02*
X105825625Y-46931084D01*
X105825625Y-46931084D02*
X105444673Y-46931084D01*
X106968482Y-47407275D02*
X106397054Y-47407275D01*
X106682768Y-47407275D02*
X106682768Y-46407275D01*
X106682768Y-46407275D02*
X106587530Y-46550132D01*
X106587530Y-46550132D02*
X106492292Y-46645370D01*
X106492292Y-46645370D02*
X106397054Y-46692989D01*
X107254197Y-47026322D02*
X107301816Y-46978703D01*
X107301816Y-46978703D02*
X107397054Y-46931084D01*
X107397054Y-46931084D02*
X107587530Y-47026322D01*
X107587530Y-47026322D02*
X107682768Y-46978703D01*
X107682768Y-46978703D02*
X107730387Y-46931084D01*
X108111340Y-47407275D02*
X108111340Y-46407275D01*
X108111340Y-46407275D02*
X108492292Y-46407275D01*
X108492292Y-46407275D02*
X108587530Y-46454894D01*
X108587530Y-46454894D02*
X108635149Y-46502513D01*
X108635149Y-46502513D02*
X108682768Y-46597751D01*
X108682768Y-46597751D02*
X108682768Y-46740608D01*
X108682768Y-46740608D02*
X108635149Y-46835846D01*
X108635149Y-46835846D02*
X108587530Y-46883465D01*
X108587530Y-46883465D02*
X108492292Y-46931084D01*
X108492292Y-46931084D02*
X108111340Y-46931084D01*
X109587530Y-46407275D02*
X109111340Y-46407275D01*
X109111340Y-46407275D02*
X109063721Y-46883465D01*
X109063721Y-46883465D02*
X109111340Y-46835846D01*
X109111340Y-46835846D02*
X109206578Y-46788227D01*
X109206578Y-46788227D02*
X109444673Y-46788227D01*
X109444673Y-46788227D02*
X109539911Y-46835846D01*
X109539911Y-46835846D02*
X109587530Y-46883465D01*
X109587530Y-46883465D02*
X109635149Y-46978703D01*
X109635149Y-46978703D02*
X109635149Y-47216798D01*
X109635149Y-47216798D02*
X109587530Y-47312036D01*
X109587530Y-47312036D02*
X109539911Y-47359656D01*
X109539911Y-47359656D02*
X109444673Y-47407275D01*
X109444673Y-47407275D02*
X109206578Y-47407275D01*
X109206578Y-47407275D02*
X109111340Y-47359656D01*
X109111340Y-47359656D02*
X109063721Y-47312036D01*
X110063721Y-47312036D02*
X110111340Y-47359656D01*
X110111340Y-47359656D02*
X110063721Y-47407275D01*
X110063721Y-47407275D02*
X110016102Y-47359656D01*
X110016102Y-47359656D02*
X110063721Y-47312036D01*
X110063721Y-47312036D02*
X110063721Y-47407275D01*
X110063721Y-46788227D02*
X110111340Y-46835846D01*
X110111340Y-46835846D02*
X110063721Y-46883465D01*
X110063721Y-46883465D02*
X110016102Y-46835846D01*
X110016102Y-46835846D02*
X110063721Y-46788227D01*
X110063721Y-46788227D02*
X110063721Y-46883465D01*
X111254197Y-46502513D02*
X111301816Y-46454894D01*
X111301816Y-46454894D02*
X111397054Y-46407275D01*
X111397054Y-46407275D02*
X111635149Y-46407275D01*
X111635149Y-46407275D02*
X111730387Y-46454894D01*
X111730387Y-46454894D02*
X111778006Y-46502513D01*
X111778006Y-46502513D02*
X111825625Y-46597751D01*
X111825625Y-46597751D02*
X111825625Y-46692989D01*
X111825625Y-46692989D02*
X111778006Y-46835846D01*
X111778006Y-46835846D02*
X111206578Y-47407275D01*
X111206578Y-47407275D02*
X111825625Y-47407275D01*
X112206578Y-47359656D02*
X112349435Y-47407275D01*
X112349435Y-47407275D02*
X112587530Y-47407275D01*
X112587530Y-47407275D02*
X112682768Y-47359656D01*
X112682768Y-47359656D02*
X112730387Y-47312036D01*
X112730387Y-47312036D02*
X112778006Y-47216798D01*
X112778006Y-47216798D02*
X112778006Y-47121560D01*
X112778006Y-47121560D02*
X112730387Y-47026322D01*
X112730387Y-47026322D02*
X112682768Y-46978703D01*
X112682768Y-46978703D02*
X112587530Y-46931084D01*
X112587530Y-46931084D02*
X112397054Y-46883465D01*
X112397054Y-46883465D02*
X112301816Y-46835846D01*
X112301816Y-46835846D02*
X112254197Y-46788227D01*
X112254197Y-46788227D02*
X112206578Y-46692989D01*
X112206578Y-46692989D02*
X112206578Y-46597751D01*
X112206578Y-46597751D02*
X112254197Y-46502513D01*
X112254197Y-46502513D02*
X112301816Y-46454894D01*
X112301816Y-46454894D02*
X112397054Y-46407275D01*
X112397054Y-46407275D02*
X112635149Y-46407275D01*
X112635149Y-46407275D02*
X112778006Y-46454894D01*
X113063721Y-47026322D02*
X113111340Y-46978703D01*
X113111340Y-46978703D02*
X113206578Y-46931084D01*
X113206578Y-46931084D02*
X113397054Y-47026322D01*
X113397054Y-47026322D02*
X113492292Y-46978703D01*
X113492292Y-46978703D02*
X113539911Y-46931084D01*
X114349435Y-46740608D02*
X114349435Y-47407275D01*
X114111340Y-46359656D02*
X113873245Y-47073941D01*
X113873245Y-47073941D02*
X114492292Y-47073941D01*
X114825626Y-47359656D02*
X114968483Y-47407275D01*
X114968483Y-47407275D02*
X115206578Y-47407275D01*
X115206578Y-47407275D02*
X115301816Y-47359656D01*
X115301816Y-47359656D02*
X115349435Y-47312036D01*
X115349435Y-47312036D02*
X115397054Y-47216798D01*
X115397054Y-47216798D02*
X115397054Y-47121560D01*
X115397054Y-47121560D02*
X115349435Y-47026322D01*
X115349435Y-47026322D02*
X115301816Y-46978703D01*
X115301816Y-46978703D02*
X115206578Y-46931084D01*
X115206578Y-46931084D02*
X115016102Y-46883465D01*
X115016102Y-46883465D02*
X114920864Y-46835846D01*
X114920864Y-46835846D02*
X114873245Y-46788227D01*
X114873245Y-46788227D02*
X114825626Y-46692989D01*
X114825626Y-46692989D02*
X114825626Y-46597751D01*
X114825626Y-46597751D02*
X114873245Y-46502513D01*
X114873245Y-46502513D02*
X114920864Y-46454894D01*
X114920864Y-46454894D02*
X115016102Y-46407275D01*
X115016102Y-46407275D02*
X115254197Y-46407275D01*
X115254197Y-46407275D02*
X115397054Y-46454894D01*
X105444673Y-49017219D02*
X105444673Y-48017219D01*
X105444673Y-48017219D02*
X105825625Y-48017219D01*
X105825625Y-48017219D02*
X105920863Y-48064838D01*
X105920863Y-48064838D02*
X105968482Y-48112457D01*
X105968482Y-48112457D02*
X106016101Y-48207695D01*
X106016101Y-48207695D02*
X106016101Y-48350552D01*
X106016101Y-48350552D02*
X105968482Y-48445790D01*
X105968482Y-48445790D02*
X105920863Y-48493409D01*
X105920863Y-48493409D02*
X105825625Y-48541028D01*
X105825625Y-48541028D02*
X105444673Y-48541028D01*
X106873244Y-48017219D02*
X106682768Y-48017219D01*
X106682768Y-48017219D02*
X106587530Y-48064838D01*
X106587530Y-48064838D02*
X106539911Y-48112457D01*
X106539911Y-48112457D02*
X106444673Y-48255314D01*
X106444673Y-48255314D02*
X106397054Y-48445790D01*
X106397054Y-48445790D02*
X106397054Y-48826742D01*
X106397054Y-48826742D02*
X106444673Y-48921980D01*
X106444673Y-48921980D02*
X106492292Y-48969600D01*
X106492292Y-48969600D02*
X106587530Y-49017219D01*
X106587530Y-49017219D02*
X106778006Y-49017219D01*
X106778006Y-49017219D02*
X106873244Y-48969600D01*
X106873244Y-48969600D02*
X106920863Y-48921980D01*
X106920863Y-48921980D02*
X106968482Y-48826742D01*
X106968482Y-48826742D02*
X106968482Y-48588647D01*
X106968482Y-48588647D02*
X106920863Y-48493409D01*
X106920863Y-48493409D02*
X106873244Y-48445790D01*
X106873244Y-48445790D02*
X106778006Y-48398171D01*
X106778006Y-48398171D02*
X106587530Y-48398171D01*
X106587530Y-48398171D02*
X106492292Y-48445790D01*
X106492292Y-48445790D02*
X106444673Y-48493409D01*
X106444673Y-48493409D02*
X106397054Y-48588647D01*
X107682768Y-48683885D02*
X107730387Y-48731504D01*
X107730387Y-48731504D02*
X107682768Y-48779123D01*
X107682768Y-48779123D02*
X107635149Y-48731504D01*
X107635149Y-48731504D02*
X107682768Y-48683885D01*
X107682768Y-48683885D02*
X107682768Y-48779123D01*
X107682768Y-48160076D02*
X107730387Y-48207695D01*
X107730387Y-48207695D02*
X107682768Y-48255314D01*
X107682768Y-48255314D02*
X107635149Y-48207695D01*
X107635149Y-48207695D02*
X107682768Y-48160076D01*
X107682768Y-48160076D02*
X107682768Y-48255314D01*
X108444673Y-48636266D02*
X109206578Y-48636266D01*
X108825625Y-49017219D02*
X108825625Y-48255314D01*
X110158958Y-48017219D02*
X109682768Y-48017219D01*
X109682768Y-48017219D02*
X109635149Y-48493409D01*
X109635149Y-48493409D02*
X109682768Y-48445790D01*
X109682768Y-48445790D02*
X109778006Y-48398171D01*
X109778006Y-48398171D02*
X110016101Y-48398171D01*
X110016101Y-48398171D02*
X110111339Y-48445790D01*
X110111339Y-48445790D02*
X110158958Y-48493409D01*
X110158958Y-48493409D02*
X110206577Y-48588647D01*
X110206577Y-48588647D02*
X110206577Y-48826742D01*
X110206577Y-48826742D02*
X110158958Y-48921980D01*
X110158958Y-48921980D02*
X110111339Y-48969600D01*
X110111339Y-48969600D02*
X110016101Y-49017219D01*
X110016101Y-49017219D02*
X109778006Y-49017219D01*
X109778006Y-49017219D02*
X109682768Y-48969600D01*
X109682768Y-48969600D02*
X109635149Y-48921980D01*
X110492292Y-48017219D02*
X110825625Y-49017219D01*
X110825625Y-49017219D02*
X111158958Y-48017219D01*
D14*
X110301842Y-41110621D02*
X110273271Y-41167764D01*
X110273271Y-41167764D02*
X110273271Y-41253478D01*
X110273271Y-41253478D02*
X110301842Y-41339192D01*
X110301842Y-41339192D02*
X110358985Y-41396335D01*
X110358985Y-41396335D02*
X110416128Y-41424906D01*
X110416128Y-41424906D02*
X110530414Y-41453478D01*
X110530414Y-41453478D02*
X110616128Y-41453478D01*
X110616128Y-41453478D02*
X110730414Y-41424906D01*
X110730414Y-41424906D02*
X110787557Y-41396335D01*
X110787557Y-41396335D02*
X110844700Y-41339192D01*
X110844700Y-41339192D02*
X110873271Y-41253478D01*
X110873271Y-41253478D02*
X110873271Y-41196335D01*
X110873271Y-41196335D02*
X110844700Y-41110621D01*
X110844700Y-41110621D02*
X110816128Y-41082049D01*
X110816128Y-41082049D02*
X110616128Y-41082049D01*
X110616128Y-41082049D02*
X110616128Y-41196335D01*
X110873271Y-40824906D02*
X110273271Y-40824906D01*
X110273271Y-40824906D02*
X110873271Y-40482049D01*
X110873271Y-40482049D02*
X110273271Y-40482049D01*
X110873271Y-40196335D02*
X110273271Y-40196335D01*
X110273271Y-40196335D02*
X110273271Y-40053478D01*
X110273271Y-40053478D02*
X110301842Y-39967764D01*
X110301842Y-39967764D02*
X110358985Y-39910621D01*
X110358985Y-39910621D02*
X110416128Y-39882050D01*
X110416128Y-39882050D02*
X110530414Y-39853478D01*
X110530414Y-39853478D02*
X110616128Y-39853478D01*
X110616128Y-39853478D02*
X110730414Y-39882050D01*
X110730414Y-39882050D02*
X110787557Y-39910621D01*
X110787557Y-39910621D02*
X110844700Y-39967764D01*
X110844700Y-39967764D02*
X110873271Y-40053478D01*
X110873271Y-40053478D02*
X110873271Y-40196335D01*
D17*
X114940139Y-52823534D02*
X114940139Y-52633058D01*
X114940139Y-52633058D02*
X114987758Y-52537820D01*
X114987758Y-52537820D02*
X115082996Y-52442582D01*
X115082996Y-52442582D02*
X115273472Y-52394963D01*
X115273472Y-52394963D02*
X115606805Y-52394963D01*
X115606805Y-52394963D02*
X115797281Y-52442582D01*
X115797281Y-52442582D02*
X115892520Y-52537820D01*
X115892520Y-52537820D02*
X115940139Y-52633058D01*
X115940139Y-52633058D02*
X115940139Y-52823534D01*
X115940139Y-52823534D02*
X115892520Y-52918772D01*
X115892520Y-52918772D02*
X115797281Y-53014010D01*
X115797281Y-53014010D02*
X115606805Y-53061629D01*
X115606805Y-53061629D02*
X115273472Y-53061629D01*
X115273472Y-53061629D02*
X115082996Y-53014010D01*
X115082996Y-53014010D02*
X114987758Y-52918772D01*
X114987758Y-52918772D02*
X114940139Y-52823534D01*
X115416329Y-51633058D02*
X115416329Y-51966391D01*
X115940139Y-51966391D02*
X114940139Y-51966391D01*
X114940139Y-51966391D02*
X114940139Y-51490201D01*
X115416329Y-50775915D02*
X115416329Y-51109248D01*
X115940139Y-51109248D02*
X114940139Y-51109248D01*
X114940139Y-51109248D02*
X114940139Y-50633058D01*
D10*
X103942066Y-33960620D02*
X103942066Y-33198716D01*
X104323019Y-33579668D02*
X103561114Y-33579668D01*
X103323019Y-32246335D02*
X103323019Y-32722525D01*
X103323019Y-32722525D02*
X103799209Y-32770144D01*
X103799209Y-32770144D02*
X103751590Y-32722525D01*
X103751590Y-32722525D02*
X103703971Y-32627287D01*
X103703971Y-32627287D02*
X103703971Y-32389192D01*
X103703971Y-32389192D02*
X103751590Y-32293954D01*
X103751590Y-32293954D02*
X103799209Y-32246335D01*
X103799209Y-32246335D02*
X103894447Y-32198716D01*
X103894447Y-32198716D02*
X104132542Y-32198716D01*
X104132542Y-32198716D02*
X104227780Y-32246335D01*
X104227780Y-32246335D02*
X104275400Y-32293954D01*
X104275400Y-32293954D02*
X104323019Y-32389192D01*
X104323019Y-32389192D02*
X104323019Y-32627287D01*
X104323019Y-32627287D02*
X104275400Y-32722525D01*
X104275400Y-32722525D02*
X104227780Y-32770144D01*
X103323019Y-31913001D02*
X104323019Y-31579668D01*
X104323019Y-31579668D02*
X103323019Y-31246335D01*
D14*
X87116166Y-50751097D02*
X87149500Y-50784430D01*
X87149500Y-50784430D02*
X87182833Y-50884430D01*
X87182833Y-50884430D02*
X87182833Y-50951097D01*
X87182833Y-50951097D02*
X87149500Y-51051097D01*
X87149500Y-51051097D02*
X87082833Y-51117764D01*
X87082833Y-51117764D02*
X87016166Y-51151097D01*
X87016166Y-51151097D02*
X86882833Y-51184430D01*
X86882833Y-51184430D02*
X86782833Y-51184430D01*
X86782833Y-51184430D02*
X86649500Y-51151097D01*
X86649500Y-51151097D02*
X86582833Y-51117764D01*
X86582833Y-51117764D02*
X86516166Y-51051097D01*
X86516166Y-51051097D02*
X86482833Y-50951097D01*
X86482833Y-50951097D02*
X86482833Y-50884430D01*
X86482833Y-50884430D02*
X86516166Y-50784430D01*
X86516166Y-50784430D02*
X86549500Y-50751097D01*
X86549500Y-50484430D02*
X86516166Y-50451097D01*
X86516166Y-50451097D02*
X86482833Y-50384430D01*
X86482833Y-50384430D02*
X86482833Y-50217764D01*
X86482833Y-50217764D02*
X86516166Y-50151097D01*
X86516166Y-50151097D02*
X86549500Y-50117764D01*
X86549500Y-50117764D02*
X86616166Y-50084430D01*
X86616166Y-50084430D02*
X86682833Y-50084430D01*
X86682833Y-50084430D02*
X86782833Y-50117764D01*
X86782833Y-50117764D02*
X87182833Y-50517764D01*
X87182833Y-50517764D02*
X87182833Y-50084430D01*
X87116166Y-47901097D02*
X87149500Y-47934430D01*
X87149500Y-47934430D02*
X87182833Y-48034430D01*
X87182833Y-48034430D02*
X87182833Y-48101097D01*
X87182833Y-48101097D02*
X87149500Y-48201097D01*
X87149500Y-48201097D02*
X87082833Y-48267764D01*
X87082833Y-48267764D02*
X87016166Y-48301097D01*
X87016166Y-48301097D02*
X86882833Y-48334430D01*
X86882833Y-48334430D02*
X86782833Y-48334430D01*
X86782833Y-48334430D02*
X86649500Y-48301097D01*
X86649500Y-48301097D02*
X86582833Y-48267764D01*
X86582833Y-48267764D02*
X86516166Y-48201097D01*
X86516166Y-48201097D02*
X86482833Y-48101097D01*
X86482833Y-48101097D02*
X86482833Y-48034430D01*
X86482833Y-48034430D02*
X86516166Y-47934430D01*
X86516166Y-47934430D02*
X86549500Y-47901097D01*
X87182833Y-47234430D02*
X87182833Y-47634430D01*
X87182833Y-47434430D02*
X86482833Y-47434430D01*
X86482833Y-47434430D02*
X86582833Y-47501097D01*
X86582833Y-47501097D02*
X86649500Y-47567764D01*
X86649500Y-47567764D02*
X86682833Y-47634430D01*
X83423642Y-68610621D02*
X83395071Y-68667764D01*
X83395071Y-68667764D02*
X83395071Y-68753478D01*
X83395071Y-68753478D02*
X83423642Y-68839192D01*
X83423642Y-68839192D02*
X83480785Y-68896335D01*
X83480785Y-68896335D02*
X83537928Y-68924906D01*
X83537928Y-68924906D02*
X83652214Y-68953478D01*
X83652214Y-68953478D02*
X83737928Y-68953478D01*
X83737928Y-68953478D02*
X83852214Y-68924906D01*
X83852214Y-68924906D02*
X83909357Y-68896335D01*
X83909357Y-68896335D02*
X83966500Y-68839192D01*
X83966500Y-68839192D02*
X83995071Y-68753478D01*
X83995071Y-68753478D02*
X83995071Y-68696335D01*
X83995071Y-68696335D02*
X83966500Y-68610621D01*
X83966500Y-68610621D02*
X83937928Y-68582049D01*
X83937928Y-68582049D02*
X83737928Y-68582049D01*
X83737928Y-68582049D02*
X83737928Y-68696335D01*
X83995071Y-68324906D02*
X83395071Y-68324906D01*
X83395071Y-68324906D02*
X83995071Y-67982049D01*
X83995071Y-67982049D02*
X83395071Y-67982049D01*
X83995071Y-67696335D02*
X83395071Y-67696335D01*
X83395071Y-67696335D02*
X83395071Y-67553478D01*
X83395071Y-67553478D02*
X83423642Y-67467764D01*
X83423642Y-67467764D02*
X83480785Y-67410621D01*
X83480785Y-67410621D02*
X83537928Y-67382050D01*
X83537928Y-67382050D02*
X83652214Y-67353478D01*
X83652214Y-67353478D02*
X83737928Y-67353478D01*
X83737928Y-67353478D02*
X83852214Y-67382050D01*
X83852214Y-67382050D02*
X83909357Y-67410621D01*
X83909357Y-67410621D02*
X83966500Y-67467764D01*
X83966500Y-67467764D02*
X83995071Y-67553478D01*
X83995071Y-67553478D02*
X83995071Y-67696335D01*
X93724500Y-48267764D02*
X94057833Y-48267764D01*
X93357833Y-48501097D02*
X93724500Y-48267764D01*
X93724500Y-48267764D02*
X93357833Y-48034430D01*
X94057833Y-47434430D02*
X94057833Y-47834430D01*
X94057833Y-47634430D02*
X93357833Y-47634430D01*
X93357833Y-47634430D02*
X93457833Y-47701097D01*
X93457833Y-47701097D02*
X93524500Y-47767764D01*
X93524500Y-47767764D02*
X93557833Y-47834430D01*
D18*
X95282053Y-58491228D02*
X95982053Y-58257895D01*
X95982053Y-58257895D02*
X95282053Y-58024561D01*
X95715386Y-57791228D02*
X95715386Y-57257895D01*
D10*
X103942066Y-43460620D02*
X103942066Y-42698716D01*
X104323019Y-43079668D02*
X103561114Y-43079668D01*
X103323019Y-41746335D02*
X103323019Y-42222525D01*
X103323019Y-42222525D02*
X103799209Y-42270144D01*
X103799209Y-42270144D02*
X103751590Y-42222525D01*
X103751590Y-42222525D02*
X103703971Y-42127287D01*
X103703971Y-42127287D02*
X103703971Y-41889192D01*
X103703971Y-41889192D02*
X103751590Y-41793954D01*
X103751590Y-41793954D02*
X103799209Y-41746335D01*
X103799209Y-41746335D02*
X103894447Y-41698716D01*
X103894447Y-41698716D02*
X104132542Y-41698716D01*
X104132542Y-41698716D02*
X104227780Y-41746335D01*
X104227780Y-41746335D02*
X104275400Y-41793954D01*
X104275400Y-41793954D02*
X104323019Y-41889192D01*
X104323019Y-41889192D02*
X104323019Y-42127287D01*
X104323019Y-42127287D02*
X104275400Y-42222525D01*
X104275400Y-42222525D02*
X104227780Y-42270144D01*
X103323019Y-41413001D02*
X104323019Y-41079668D01*
X104323019Y-41079668D02*
X103323019Y-40746335D01*
D13*
X99742219Y-84630326D02*
X98742219Y-84630326D01*
X98742219Y-84630326D02*
X98742219Y-84249374D01*
X98742219Y-84249374D02*
X98789838Y-84154136D01*
X98789838Y-84154136D02*
X98837457Y-84106517D01*
X98837457Y-84106517D02*
X98932695Y-84058898D01*
X98932695Y-84058898D02*
X99075552Y-84058898D01*
X99075552Y-84058898D02*
X99170790Y-84106517D01*
X99170790Y-84106517D02*
X99218409Y-84154136D01*
X99218409Y-84154136D02*
X99266028Y-84249374D01*
X99266028Y-84249374D02*
X99266028Y-84630326D01*
X98742219Y-83154136D02*
X98742219Y-83630326D01*
X98742219Y-83630326D02*
X99218409Y-83677945D01*
X99218409Y-83677945D02*
X99170790Y-83630326D01*
X99170790Y-83630326D02*
X99123171Y-83535088D01*
X99123171Y-83535088D02*
X99123171Y-83296993D01*
X99123171Y-83296993D02*
X99170790Y-83201755D01*
X99170790Y-83201755D02*
X99218409Y-83154136D01*
X99218409Y-83154136D02*
X99313647Y-83106517D01*
X99313647Y-83106517D02*
X99551742Y-83106517D01*
X99551742Y-83106517D02*
X99646980Y-83154136D01*
X99646980Y-83154136D02*
X99694600Y-83201755D01*
X99694600Y-83201755D02*
X99742219Y-83296993D01*
X99742219Y-83296993D02*
X99742219Y-83535088D01*
X99742219Y-83535088D02*
X99694600Y-83630326D01*
X99694600Y-83630326D02*
X99646980Y-83677945D01*
D14*
X92399500Y-43767764D02*
X92732833Y-43767764D01*
X92032833Y-44001097D02*
X92399500Y-43767764D01*
X92399500Y-43767764D02*
X92032833Y-43534430D01*
X92732833Y-42934430D02*
X92732833Y-43334430D01*
X92732833Y-43134430D02*
X92032833Y-43134430D01*
X92032833Y-43134430D02*
X92132833Y-43201097D01*
X92132833Y-43201097D02*
X92199500Y-43267764D01*
X92199500Y-43267764D02*
X92232833Y-43334430D01*
X110301842Y-36008021D02*
X110273271Y-36065164D01*
X110273271Y-36065164D02*
X110273271Y-36150878D01*
X110273271Y-36150878D02*
X110301842Y-36236592D01*
X110301842Y-36236592D02*
X110358985Y-36293735D01*
X110358985Y-36293735D02*
X110416128Y-36322306D01*
X110416128Y-36322306D02*
X110530414Y-36350878D01*
X110530414Y-36350878D02*
X110616128Y-36350878D01*
X110616128Y-36350878D02*
X110730414Y-36322306D01*
X110730414Y-36322306D02*
X110787557Y-36293735D01*
X110787557Y-36293735D02*
X110844700Y-36236592D01*
X110844700Y-36236592D02*
X110873271Y-36150878D01*
X110873271Y-36150878D02*
X110873271Y-36093735D01*
X110873271Y-36093735D02*
X110844700Y-36008021D01*
X110844700Y-36008021D02*
X110816128Y-35979449D01*
X110816128Y-35979449D02*
X110616128Y-35979449D01*
X110616128Y-35979449D02*
X110616128Y-36093735D01*
X110873271Y-35722306D02*
X110273271Y-35722306D01*
X110273271Y-35722306D02*
X110873271Y-35379449D01*
X110873271Y-35379449D02*
X110273271Y-35379449D01*
X110873271Y-35093735D02*
X110273271Y-35093735D01*
X110273271Y-35093735D02*
X110273271Y-34950878D01*
X110273271Y-34950878D02*
X110301842Y-34865164D01*
X110301842Y-34865164D02*
X110358985Y-34808021D01*
X110358985Y-34808021D02*
X110416128Y-34779450D01*
X110416128Y-34779450D02*
X110530414Y-34750878D01*
X110530414Y-34750878D02*
X110616128Y-34750878D01*
X110616128Y-34750878D02*
X110730414Y-34779450D01*
X110730414Y-34779450D02*
X110787557Y-34808021D01*
X110787557Y-34808021D02*
X110844700Y-34865164D01*
X110844700Y-34865164D02*
X110873271Y-34950878D01*
X110873271Y-34950878D02*
X110873271Y-35093735D01*
D17*
X90161465Y-35040139D02*
X90351941Y-35040139D01*
X90351941Y-35040139D02*
X90447179Y-35087758D01*
X90447179Y-35087758D02*
X90542417Y-35182996D01*
X90542417Y-35182996D02*
X90590036Y-35373472D01*
X90590036Y-35373472D02*
X90590036Y-35706805D01*
X90590036Y-35706805D02*
X90542417Y-35897281D01*
X90542417Y-35897281D02*
X90447179Y-35992520D01*
X90447179Y-35992520D02*
X90351941Y-36040139D01*
X90351941Y-36040139D02*
X90161465Y-36040139D01*
X90161465Y-36040139D02*
X90066227Y-35992520D01*
X90066227Y-35992520D02*
X89970989Y-35897281D01*
X89970989Y-35897281D02*
X89923370Y-35706805D01*
X89923370Y-35706805D02*
X89923370Y-35373472D01*
X89923370Y-35373472D02*
X89970989Y-35182996D01*
X89970989Y-35182996D02*
X90066227Y-35087758D01*
X90066227Y-35087758D02*
X90161465Y-35040139D01*
X91351941Y-35516329D02*
X91018608Y-35516329D01*
X91018608Y-36040139D02*
X91018608Y-35040139D01*
X91018608Y-35040139D02*
X91494798Y-35040139D01*
X92209084Y-35516329D02*
X91875751Y-35516329D01*
X91875751Y-36040139D02*
X91875751Y-35040139D01*
X91875751Y-35040139D02*
X92351941Y-35040139D01*
D15*
X114032419Y-43203258D02*
X114008609Y-43250877D01*
X114008609Y-43250877D02*
X114008609Y-43322306D01*
X114008609Y-43322306D02*
X114032419Y-43393734D01*
X114032419Y-43393734D02*
X114080038Y-43441353D01*
X114080038Y-43441353D02*
X114127657Y-43465163D01*
X114127657Y-43465163D02*
X114222895Y-43488972D01*
X114222895Y-43488972D02*
X114294323Y-43488972D01*
X114294323Y-43488972D02*
X114389561Y-43465163D01*
X114389561Y-43465163D02*
X114437180Y-43441353D01*
X114437180Y-43441353D02*
X114484800Y-43393734D01*
X114484800Y-43393734D02*
X114508609Y-43322306D01*
X114508609Y-43322306D02*
X114508609Y-43274687D01*
X114508609Y-43274687D02*
X114484800Y-43203258D01*
X114484800Y-43203258D02*
X114460990Y-43179449D01*
X114460990Y-43179449D02*
X114294323Y-43179449D01*
X114294323Y-43179449D02*
X114294323Y-43274687D01*
X114508609Y-42965163D02*
X114008609Y-42965163D01*
X114008609Y-42965163D02*
X114508609Y-42679449D01*
X114508609Y-42679449D02*
X114008609Y-42679449D01*
X114508609Y-42441353D02*
X114008609Y-42441353D01*
X114008609Y-42441353D02*
X114008609Y-42322305D01*
X114008609Y-42322305D02*
X114032419Y-42250877D01*
X114032419Y-42250877D02*
X114080038Y-42203258D01*
X114080038Y-42203258D02*
X114127657Y-42179448D01*
X114127657Y-42179448D02*
X114222895Y-42155639D01*
X114222895Y-42155639D02*
X114294323Y-42155639D01*
X114294323Y-42155639D02*
X114389561Y-42179448D01*
X114389561Y-42179448D02*
X114437180Y-42203258D01*
X114437180Y-42203258D02*
X114484800Y-42250877D01*
X114484800Y-42250877D02*
X114508609Y-42322305D01*
X114508609Y-42322305D02*
X114508609Y-42441353D01*
D14*
X82482833Y-55951097D02*
X81782833Y-55951097D01*
X81782833Y-55951097D02*
X81782833Y-55684430D01*
X81782833Y-55684430D02*
X81816166Y-55617764D01*
X81816166Y-55617764D02*
X81849500Y-55584430D01*
X81849500Y-55584430D02*
X81916166Y-55551097D01*
X81916166Y-55551097D02*
X82016166Y-55551097D01*
X82016166Y-55551097D02*
X82082833Y-55584430D01*
X82082833Y-55584430D02*
X82116166Y-55617764D01*
X82116166Y-55617764D02*
X82149500Y-55684430D01*
X82149500Y-55684430D02*
X82149500Y-55951097D01*
X82482833Y-54884430D02*
X82482833Y-55284430D01*
X82482833Y-55084430D02*
X81782833Y-55084430D01*
X81782833Y-55084430D02*
X81882833Y-55151097D01*
X81882833Y-55151097D02*
X81949500Y-55217764D01*
X81949500Y-55217764D02*
X81982833Y-55284430D01*
D13*
X104342219Y-52130326D02*
X103342219Y-52130326D01*
X103342219Y-52130326D02*
X103342219Y-51749374D01*
X103342219Y-51749374D02*
X103389838Y-51654136D01*
X103389838Y-51654136D02*
X103437457Y-51606517D01*
X103437457Y-51606517D02*
X103532695Y-51558898D01*
X103532695Y-51558898D02*
X103675552Y-51558898D01*
X103675552Y-51558898D02*
X103770790Y-51606517D01*
X103770790Y-51606517D02*
X103818409Y-51654136D01*
X103818409Y-51654136D02*
X103866028Y-51749374D01*
X103866028Y-51749374D02*
X103866028Y-52130326D01*
X103675552Y-50701755D02*
X104342219Y-50701755D01*
X103294600Y-50939850D02*
X104008885Y-51177945D01*
X104008885Y-51177945D02*
X104008885Y-50558898D01*
D14*
X90966166Y-65251097D02*
X90966166Y-64717764D01*
X91232833Y-64984430D02*
X90699500Y-64984430D01*
X90532833Y-64484430D02*
X91232833Y-64251097D01*
X91232833Y-64251097D02*
X90532833Y-64017763D01*
X93699500Y-50717764D02*
X94032833Y-50717764D01*
X93332833Y-50951097D02*
X93699500Y-50717764D01*
X93699500Y-50717764D02*
X93332833Y-50484430D01*
X93399500Y-50284430D02*
X93366166Y-50251097D01*
X93366166Y-50251097D02*
X93332833Y-50184430D01*
X93332833Y-50184430D02*
X93332833Y-50017764D01*
X93332833Y-50017764D02*
X93366166Y-49951097D01*
X93366166Y-49951097D02*
X93399500Y-49917764D01*
X93399500Y-49917764D02*
X93466166Y-49884430D01*
X93466166Y-49884430D02*
X93532833Y-49884430D01*
X93532833Y-49884430D02*
X93632833Y-49917764D01*
X93632833Y-49917764D02*
X94032833Y-50317764D01*
X94032833Y-50317764D02*
X94032833Y-49884430D01*
D19*
X97680820Y-58854260D02*
X96880820Y-58854260D01*
X96880820Y-58854260D02*
X96880820Y-58549498D01*
X96880820Y-58549498D02*
X96918915Y-58473308D01*
X96918915Y-58473308D02*
X96957010Y-58435213D01*
X96957010Y-58435213D02*
X97033201Y-58397117D01*
X97033201Y-58397117D02*
X97147486Y-58397117D01*
X97147486Y-58397117D02*
X97223677Y-58435213D01*
X97223677Y-58435213D02*
X97261772Y-58473308D01*
X97261772Y-58473308D02*
X97299867Y-58549498D01*
X97299867Y-58549498D02*
X97299867Y-58854260D01*
X97680820Y-57635213D02*
X97680820Y-58092356D01*
X97680820Y-57863784D02*
X96880820Y-57863784D01*
X96880820Y-57863784D02*
X96995105Y-57939975D01*
X96995105Y-57939975D02*
X97071296Y-58016165D01*
X97071296Y-58016165D02*
X97109391Y-58092356D01*
X97147486Y-56073308D02*
X97376058Y-56682831D01*
X97376058Y-56682831D02*
X97604629Y-56073308D01*
X97376058Y-55692355D02*
X97376058Y-55082832D01*
X97604629Y-53635212D02*
X97642725Y-53673308D01*
X97642725Y-53673308D02*
X97680820Y-53787593D01*
X97680820Y-53787593D02*
X97680820Y-53863784D01*
X97680820Y-53863784D02*
X97642725Y-53978070D01*
X97642725Y-53978070D02*
X97566534Y-54054260D01*
X97566534Y-54054260D02*
X97490344Y-54092355D01*
X97490344Y-54092355D02*
X97337963Y-54130451D01*
X97337963Y-54130451D02*
X97223677Y-54130451D01*
X97223677Y-54130451D02*
X97071296Y-54092355D01*
X97071296Y-54092355D02*
X96995105Y-54054260D01*
X96995105Y-54054260D02*
X96918915Y-53978070D01*
X96918915Y-53978070D02*
X96880820Y-53863784D01*
X96880820Y-53863784D02*
X96880820Y-53787593D01*
X96880820Y-53787593D02*
X96918915Y-53673308D01*
X96918915Y-53673308D02*
X96957010Y-53635212D01*
X97680820Y-52873308D02*
X97680820Y-53330451D01*
X97680820Y-53101879D02*
X96880820Y-53101879D01*
X96880820Y-53101879D02*
X96995105Y-53178070D01*
X96995105Y-53178070D02*
X97071296Y-53254260D01*
X97071296Y-53254260D02*
X97109391Y-53330451D01*
X97147486Y-51311403D02*
X97376058Y-51920926D01*
X97376058Y-51920926D02*
X97604629Y-51311403D01*
X97376058Y-50930450D02*
X97376058Y-50320927D01*
X97299867Y-49178069D02*
X97680820Y-49178069D01*
X96880820Y-49444736D02*
X97299867Y-49178069D01*
X97299867Y-49178069D02*
X96880820Y-48911403D01*
X97680820Y-48225689D02*
X97680820Y-48682832D01*
X97680820Y-48454260D02*
X96880820Y-48454260D01*
X96880820Y-48454260D02*
X96995105Y-48530451D01*
X96995105Y-48530451D02*
X97071296Y-48606641D01*
X97071296Y-48606641D02*
X97109391Y-48682832D01*
X98968775Y-58854260D02*
X98168775Y-58854260D01*
X98168775Y-58854260D02*
X98168775Y-58549498D01*
X98168775Y-58549498D02*
X98206870Y-58473308D01*
X98206870Y-58473308D02*
X98244965Y-58435213D01*
X98244965Y-58435213D02*
X98321156Y-58397117D01*
X98321156Y-58397117D02*
X98435441Y-58397117D01*
X98435441Y-58397117D02*
X98511632Y-58435213D01*
X98511632Y-58435213D02*
X98549727Y-58473308D01*
X98549727Y-58473308D02*
X98587822Y-58549498D01*
X98587822Y-58549498D02*
X98587822Y-58854260D01*
X98244965Y-58092356D02*
X98206870Y-58054260D01*
X98206870Y-58054260D02*
X98168775Y-57978070D01*
X98168775Y-57978070D02*
X98168775Y-57787594D01*
X98168775Y-57787594D02*
X98206870Y-57711403D01*
X98206870Y-57711403D02*
X98244965Y-57673308D01*
X98244965Y-57673308D02*
X98321156Y-57635213D01*
X98321156Y-57635213D02*
X98397346Y-57635213D01*
X98397346Y-57635213D02*
X98511632Y-57673308D01*
X98511632Y-57673308D02*
X98968775Y-58130451D01*
X98968775Y-58130451D02*
X98968775Y-57635213D01*
X98435441Y-56073308D02*
X98664013Y-56682831D01*
X98664013Y-56682831D02*
X98892584Y-56073308D01*
X98664013Y-55692355D02*
X98664013Y-55082832D01*
X98892584Y-53635212D02*
X98930680Y-53673308D01*
X98930680Y-53673308D02*
X98968775Y-53787593D01*
X98968775Y-53787593D02*
X98968775Y-53863784D01*
X98968775Y-53863784D02*
X98930680Y-53978070D01*
X98930680Y-53978070D02*
X98854489Y-54054260D01*
X98854489Y-54054260D02*
X98778299Y-54092355D01*
X98778299Y-54092355D02*
X98625918Y-54130451D01*
X98625918Y-54130451D02*
X98511632Y-54130451D01*
X98511632Y-54130451D02*
X98359251Y-54092355D01*
X98359251Y-54092355D02*
X98283060Y-54054260D01*
X98283060Y-54054260D02*
X98206870Y-53978070D01*
X98206870Y-53978070D02*
X98168775Y-53863784D01*
X98168775Y-53863784D02*
X98168775Y-53787593D01*
X98168775Y-53787593D02*
X98206870Y-53673308D01*
X98206870Y-53673308D02*
X98244965Y-53635212D01*
X98244965Y-53330451D02*
X98206870Y-53292355D01*
X98206870Y-53292355D02*
X98168775Y-53216165D01*
X98168775Y-53216165D02*
X98168775Y-53025689D01*
X98168775Y-53025689D02*
X98206870Y-52949498D01*
X98206870Y-52949498D02*
X98244965Y-52911403D01*
X98244965Y-52911403D02*
X98321156Y-52873308D01*
X98321156Y-52873308D02*
X98397346Y-52873308D01*
X98397346Y-52873308D02*
X98511632Y-52911403D01*
X98511632Y-52911403D02*
X98968775Y-53368546D01*
X98968775Y-53368546D02*
X98968775Y-52873308D01*
X98435441Y-51311403D02*
X98664013Y-51920926D01*
X98664013Y-51920926D02*
X98892584Y-51311403D01*
X98664013Y-50930450D02*
X98664013Y-50320927D01*
X98587822Y-49178069D02*
X98968775Y-49178069D01*
X98168775Y-49444736D02*
X98587822Y-49178069D01*
X98587822Y-49178069D02*
X98168775Y-48911403D01*
X98244965Y-48682832D02*
X98206870Y-48644736D01*
X98206870Y-48644736D02*
X98168775Y-48568546D01*
X98168775Y-48568546D02*
X98168775Y-48378070D01*
X98168775Y-48378070D02*
X98206870Y-48301879D01*
X98206870Y-48301879D02*
X98244965Y-48263784D01*
X98244965Y-48263784D02*
X98321156Y-48225689D01*
X98321156Y-48225689D02*
X98397346Y-48225689D01*
X98397346Y-48225689D02*
X98511632Y-48263784D01*
X98511632Y-48263784D02*
X98968775Y-48720927D01*
X98968775Y-48720927D02*
X98968775Y-48225689D01*
D17*
X82111465Y-35240139D02*
X82301941Y-35240139D01*
X82301941Y-35240139D02*
X82397179Y-35287758D01*
X82397179Y-35287758D02*
X82492417Y-35382996D01*
X82492417Y-35382996D02*
X82540036Y-35573472D01*
X82540036Y-35573472D02*
X82540036Y-35906805D01*
X82540036Y-35906805D02*
X82492417Y-36097281D01*
X82492417Y-36097281D02*
X82397179Y-36192520D01*
X82397179Y-36192520D02*
X82301941Y-36240139D01*
X82301941Y-36240139D02*
X82111465Y-36240139D01*
X82111465Y-36240139D02*
X82016227Y-36192520D01*
X82016227Y-36192520D02*
X81920989Y-36097281D01*
X81920989Y-36097281D02*
X81873370Y-35906805D01*
X81873370Y-35906805D02*
X81873370Y-35573472D01*
X81873370Y-35573472D02*
X81920989Y-35382996D01*
X81920989Y-35382996D02*
X82016227Y-35287758D01*
X82016227Y-35287758D02*
X82111465Y-35240139D01*
X82968608Y-36240139D02*
X82968608Y-35240139D01*
X82968608Y-35240139D02*
X83540036Y-36240139D01*
X83540036Y-36240139D02*
X83540036Y-35240139D01*
D14*
X101673642Y-54860621D02*
X101645071Y-54917764D01*
X101645071Y-54917764D02*
X101645071Y-55003478D01*
X101645071Y-55003478D02*
X101673642Y-55089192D01*
X101673642Y-55089192D02*
X101730785Y-55146335D01*
X101730785Y-55146335D02*
X101787928Y-55174906D01*
X101787928Y-55174906D02*
X101902214Y-55203478D01*
X101902214Y-55203478D02*
X101987928Y-55203478D01*
X101987928Y-55203478D02*
X102102214Y-55174906D01*
X102102214Y-55174906D02*
X102159357Y-55146335D01*
X102159357Y-55146335D02*
X102216500Y-55089192D01*
X102216500Y-55089192D02*
X102245071Y-55003478D01*
X102245071Y-55003478D02*
X102245071Y-54946335D01*
X102245071Y-54946335D02*
X102216500Y-54860621D01*
X102216500Y-54860621D02*
X102187928Y-54832049D01*
X102187928Y-54832049D02*
X101987928Y-54832049D01*
X101987928Y-54832049D02*
X101987928Y-54946335D01*
X102245071Y-54574906D02*
X101645071Y-54574906D01*
X101645071Y-54574906D02*
X102245071Y-54232049D01*
X102245071Y-54232049D02*
X101645071Y-54232049D01*
X102245071Y-53946335D02*
X101645071Y-53946335D01*
X101645071Y-53946335D02*
X101645071Y-53803478D01*
X101645071Y-53803478D02*
X101673642Y-53717764D01*
X101673642Y-53717764D02*
X101730785Y-53660621D01*
X101730785Y-53660621D02*
X101787928Y-53632050D01*
X101787928Y-53632050D02*
X101902214Y-53603478D01*
X101902214Y-53603478D02*
X101987928Y-53603478D01*
X101987928Y-53603478D02*
X102102214Y-53632050D01*
X102102214Y-53632050D02*
X102159357Y-53660621D01*
X102159357Y-53660621D02*
X102216500Y-53717764D01*
X102216500Y-53717764D02*
X102245071Y-53803478D01*
X102245071Y-53803478D02*
X102245071Y-53946335D01*
D10*
X86362500Y-52169771D02*
X86162500Y-51884057D01*
X86019643Y-52169771D02*
X86019643Y-51569771D01*
X86019643Y-51569771D02*
X86248214Y-51569771D01*
X86248214Y-51569771D02*
X86305357Y-51598342D01*
X86305357Y-51598342D02*
X86333928Y-51626914D01*
X86333928Y-51626914D02*
X86362500Y-51684057D01*
X86362500Y-51684057D02*
X86362500Y-51769771D01*
X86362500Y-51769771D02*
X86333928Y-51826914D01*
X86333928Y-51826914D02*
X86305357Y-51855485D01*
X86305357Y-51855485D02*
X86248214Y-51884057D01*
X86248214Y-51884057D02*
X86019643Y-51884057D01*
X86876786Y-51769771D02*
X86876786Y-52169771D01*
X86733928Y-51541200D02*
X86591071Y-51969771D01*
X86591071Y-51969771D02*
X86962500Y-51969771D01*
X117524999Y-69669771D02*
X117524999Y-70098342D01*
X117524999Y-70098342D02*
X117496428Y-70184057D01*
X117496428Y-70184057D02*
X117439285Y-70241200D01*
X117439285Y-70241200D02*
X117353571Y-70269771D01*
X117353571Y-70269771D02*
X117296428Y-70269771D01*
X118124999Y-70269771D02*
X117782142Y-70269771D01*
X117953571Y-70269771D02*
X117953571Y-69669771D01*
X117953571Y-69669771D02*
X117896428Y-69755485D01*
X117896428Y-69755485D02*
X117839285Y-69812628D01*
X117839285Y-69812628D02*
X117782142Y-69841200D01*
X115903571Y-69114700D02*
X117046429Y-69114700D01*
X103603571Y-69114700D02*
X104746429Y-69114700D01*
X104175000Y-69686128D02*
X104175000Y-68543271D01*
X98499200Y-32431771D02*
X98213486Y-32431771D01*
X98213486Y-32431771D02*
X98213486Y-31831771D01*
X99013485Y-32431771D02*
X98670628Y-32431771D01*
X98842057Y-32431771D02*
X98842057Y-31831771D01*
X98842057Y-31831771D02*
X98784914Y-31917485D01*
X98784914Y-31917485D02*
X98727771Y-31974628D01*
X98727771Y-31974628D02*
X98670628Y-32003200D01*
X82267857Y-61246914D02*
X82210714Y-61218342D01*
X82210714Y-61218342D02*
X82153571Y-61161200D01*
X82153571Y-61161200D02*
X82067857Y-61075485D01*
X82067857Y-61075485D02*
X82010714Y-61046914D01*
X82010714Y-61046914D02*
X81953571Y-61046914D01*
X81982142Y-61189771D02*
X81925000Y-61161200D01*
X81925000Y-61161200D02*
X81867857Y-61104057D01*
X81867857Y-61104057D02*
X81839285Y-60989771D01*
X81839285Y-60989771D02*
X81839285Y-60789771D01*
X81839285Y-60789771D02*
X81867857Y-60675485D01*
X81867857Y-60675485D02*
X81925000Y-60618342D01*
X81925000Y-60618342D02*
X81982142Y-60589771D01*
X81982142Y-60589771D02*
X82096428Y-60589771D01*
X82096428Y-60589771D02*
X82153571Y-60618342D01*
X82153571Y-60618342D02*
X82210714Y-60675485D01*
X82210714Y-60675485D02*
X82239285Y-60789771D01*
X82239285Y-60789771D02*
X82239285Y-60989771D01*
X82239285Y-60989771D02*
X82210714Y-61104057D01*
X82210714Y-61104057D02*
X82153571Y-61161200D01*
X82153571Y-61161200D02*
X82096428Y-61189771D01*
X82096428Y-61189771D02*
X81982142Y-61189771D01*
X82810713Y-61189771D02*
X82467856Y-61189771D01*
X82639285Y-61189771D02*
X82639285Y-60589771D01*
X82639285Y-60589771D02*
X82582142Y-60675485D01*
X82582142Y-60675485D02*
X82524999Y-60732628D01*
X82524999Y-60732628D02*
X82467856Y-60761200D01*
X96603200Y-46760028D02*
X96574628Y-46788600D01*
X96574628Y-46788600D02*
X96488914Y-46817171D01*
X96488914Y-46817171D02*
X96431771Y-46817171D01*
X96431771Y-46817171D02*
X96346057Y-46788600D01*
X96346057Y-46788600D02*
X96288914Y-46731457D01*
X96288914Y-46731457D02*
X96260343Y-46674314D01*
X96260343Y-46674314D02*
X96231771Y-46560028D01*
X96231771Y-46560028D02*
X96231771Y-46474314D01*
X96231771Y-46474314D02*
X96260343Y-46360028D01*
X96260343Y-46360028D02*
X96288914Y-46302885D01*
X96288914Y-46302885D02*
X96346057Y-46245742D01*
X96346057Y-46245742D02*
X96431771Y-46217171D01*
X96431771Y-46217171D02*
X96488914Y-46217171D01*
X96488914Y-46217171D02*
X96574628Y-46245742D01*
X96574628Y-46245742D02*
X96603200Y-46274314D01*
X96803200Y-46217171D02*
X97203200Y-46217171D01*
X97203200Y-46217171D02*
X96946057Y-46817171D01*
X109624999Y-42319771D02*
X109624999Y-42748342D01*
X109624999Y-42748342D02*
X109596428Y-42834057D01*
X109596428Y-42834057D02*
X109539285Y-42891200D01*
X109539285Y-42891200D02*
X109453571Y-42919771D01*
X109453571Y-42919771D02*
X109396428Y-42919771D01*
X109853571Y-42319771D02*
X110224999Y-42319771D01*
X110224999Y-42319771D02*
X110024999Y-42548342D01*
X110024999Y-42548342D02*
X110110714Y-42548342D01*
X110110714Y-42548342D02*
X110167857Y-42576914D01*
X110167857Y-42576914D02*
X110196428Y-42605485D01*
X110196428Y-42605485D02*
X110224999Y-42662628D01*
X110224999Y-42662628D02*
X110224999Y-42805485D01*
X110224999Y-42805485D02*
X110196428Y-42862628D01*
X110196428Y-42862628D02*
X110167857Y-42891200D01*
X110167857Y-42891200D02*
X110110714Y-42919771D01*
X110110714Y-42919771D02*
X109939285Y-42919771D01*
X109939285Y-42919771D02*
X109882142Y-42891200D01*
X109882142Y-42891200D02*
X109853571Y-42862628D01*
X92124999Y-45569771D02*
X92124999Y-45998342D01*
X92124999Y-45998342D02*
X92096428Y-46084057D01*
X92096428Y-46084057D02*
X92039285Y-46141200D01*
X92039285Y-46141200D02*
X91953571Y-46169771D01*
X91953571Y-46169771D02*
X91896428Y-46169771D01*
X92439285Y-46169771D02*
X92553571Y-46169771D01*
X92553571Y-46169771D02*
X92610714Y-46141200D01*
X92610714Y-46141200D02*
X92639285Y-46112628D01*
X92639285Y-46112628D02*
X92696428Y-46026914D01*
X92696428Y-46026914D02*
X92724999Y-45912628D01*
X92724999Y-45912628D02*
X92724999Y-45684057D01*
X92724999Y-45684057D02*
X92696428Y-45626914D01*
X92696428Y-45626914D02*
X92667857Y-45598342D01*
X92667857Y-45598342D02*
X92610714Y-45569771D01*
X92610714Y-45569771D02*
X92496428Y-45569771D01*
X92496428Y-45569771D02*
X92439285Y-45598342D01*
X92439285Y-45598342D02*
X92410714Y-45626914D01*
X92410714Y-45626914D02*
X92382142Y-45684057D01*
X92382142Y-45684057D02*
X92382142Y-45826914D01*
X92382142Y-45826914D02*
X92410714Y-45884057D01*
X92410714Y-45884057D02*
X92439285Y-45912628D01*
X92439285Y-45912628D02*
X92496428Y-45941200D01*
X92496428Y-45941200D02*
X92610714Y-45941200D01*
X92610714Y-45941200D02*
X92667857Y-45912628D01*
X92667857Y-45912628D02*
X92696428Y-45884057D01*
X92696428Y-45884057D02*
X92724999Y-45826914D01*
X100603200Y-47510028D02*
X100574628Y-47538600D01*
X100574628Y-47538600D02*
X100488914Y-47567171D01*
X100488914Y-47567171D02*
X100431771Y-47567171D01*
X100431771Y-47567171D02*
X100346057Y-47538600D01*
X100346057Y-47538600D02*
X100288914Y-47481457D01*
X100288914Y-47481457D02*
X100260343Y-47424314D01*
X100260343Y-47424314D02*
X100231771Y-47310028D01*
X100231771Y-47310028D02*
X100231771Y-47224314D01*
X100231771Y-47224314D02*
X100260343Y-47110028D01*
X100260343Y-47110028D02*
X100288914Y-47052885D01*
X100288914Y-47052885D02*
X100346057Y-46995742D01*
X100346057Y-46995742D02*
X100431771Y-46967171D01*
X100431771Y-46967171D02*
X100488914Y-46967171D01*
X100488914Y-46967171D02*
X100574628Y-46995742D01*
X100574628Y-46995742D02*
X100603200Y-47024314D01*
X101174628Y-47567171D02*
X100831771Y-47567171D01*
X101003200Y-47567171D02*
X101003200Y-46967171D01*
X101003200Y-46967171D02*
X100946057Y-47052885D01*
X100946057Y-47052885D02*
X100888914Y-47110028D01*
X100888914Y-47110028D02*
X100831771Y-47138600D01*
X99132143Y-77919771D02*
X99132143Y-77319771D01*
X99132143Y-77319771D02*
X99275000Y-77319771D01*
X99275000Y-77319771D02*
X99360714Y-77348342D01*
X99360714Y-77348342D02*
X99417857Y-77405485D01*
X99417857Y-77405485D02*
X99446428Y-77462628D01*
X99446428Y-77462628D02*
X99475000Y-77576914D01*
X99475000Y-77576914D02*
X99475000Y-77662628D01*
X99475000Y-77662628D02*
X99446428Y-77776914D01*
X99446428Y-77776914D02*
X99417857Y-77834057D01*
X99417857Y-77834057D02*
X99360714Y-77891200D01*
X99360714Y-77891200D02*
X99275000Y-77919771D01*
X99275000Y-77919771D02*
X99132143Y-77919771D01*
X100046428Y-77919771D02*
X99703571Y-77919771D01*
X99875000Y-77919771D02*
X99875000Y-77319771D01*
X99875000Y-77319771D02*
X99817857Y-77405485D01*
X99817857Y-77405485D02*
X99760714Y-77462628D01*
X99760714Y-77462628D02*
X99703571Y-77491200D01*
X81892856Y-40891200D02*
X81974999Y-40919771D01*
X81974999Y-40919771D02*
X82117856Y-40919771D01*
X82117856Y-40919771D02*
X82178571Y-40891200D01*
X82178571Y-40891200D02*
X82210713Y-40862628D01*
X82210713Y-40862628D02*
X82246428Y-40805485D01*
X82246428Y-40805485D02*
X82253571Y-40748342D01*
X82253571Y-40748342D02*
X82232142Y-40691200D01*
X82232142Y-40691200D02*
X82207142Y-40662628D01*
X82207142Y-40662628D02*
X82153571Y-40634057D01*
X82153571Y-40634057D02*
X82042856Y-40605485D01*
X82042856Y-40605485D02*
X81989285Y-40576914D01*
X81989285Y-40576914D02*
X81964285Y-40548342D01*
X81964285Y-40548342D02*
X81942856Y-40491200D01*
X81942856Y-40491200D02*
X81949999Y-40434057D01*
X81949999Y-40434057D02*
X81985713Y-40376914D01*
X81985713Y-40376914D02*
X82017856Y-40348342D01*
X82017856Y-40348342D02*
X82078571Y-40319771D01*
X82078571Y-40319771D02*
X82221428Y-40319771D01*
X82221428Y-40319771D02*
X82303571Y-40348342D01*
X82528571Y-40376914D02*
X82560714Y-40348342D01*
X82560714Y-40348342D02*
X82621428Y-40319771D01*
X82621428Y-40319771D02*
X82764285Y-40319771D01*
X82764285Y-40319771D02*
X82817857Y-40348342D01*
X82817857Y-40348342D02*
X82842857Y-40376914D01*
X82842857Y-40376914D02*
X82864285Y-40434057D01*
X82864285Y-40434057D02*
X82857142Y-40491200D01*
X82857142Y-40491200D02*
X82817857Y-40576914D01*
X82817857Y-40576914D02*
X82432142Y-40919771D01*
X82432142Y-40919771D02*
X82803571Y-40919771D01*
X95725000Y-36169771D02*
X95525000Y-35884057D01*
X95382143Y-36169771D02*
X95382143Y-35569771D01*
X95382143Y-35569771D02*
X95610714Y-35569771D01*
X95610714Y-35569771D02*
X95667857Y-35598342D01*
X95667857Y-35598342D02*
X95696428Y-35626914D01*
X95696428Y-35626914D02*
X95725000Y-35684057D01*
X95725000Y-35684057D02*
X95725000Y-35769771D01*
X95725000Y-35769771D02*
X95696428Y-35826914D01*
X95696428Y-35826914D02*
X95667857Y-35855485D01*
X95667857Y-35855485D02*
X95610714Y-35884057D01*
X95610714Y-35884057D02*
X95382143Y-35884057D01*
X95925000Y-35569771D02*
X96296428Y-35569771D01*
X96296428Y-35569771D02*
X96096428Y-35798342D01*
X96096428Y-35798342D02*
X96182143Y-35798342D01*
X96182143Y-35798342D02*
X96239286Y-35826914D01*
X96239286Y-35826914D02*
X96267857Y-35855485D01*
X96267857Y-35855485D02*
X96296428Y-35912628D01*
X96296428Y-35912628D02*
X96296428Y-36055485D01*
X96296428Y-36055485D02*
X96267857Y-36112628D01*
X96267857Y-36112628D02*
X96239286Y-36141200D01*
X96239286Y-36141200D02*
X96182143Y-36169771D01*
X96182143Y-36169771D02*
X96010714Y-36169771D01*
X96010714Y-36169771D02*
X95953571Y-36141200D01*
X95953571Y-36141200D02*
X95925000Y-36112628D01*
X101603200Y-42510028D02*
X101574628Y-42538600D01*
X101574628Y-42538600D02*
X101488914Y-42567171D01*
X101488914Y-42567171D02*
X101431771Y-42567171D01*
X101431771Y-42567171D02*
X101346057Y-42538600D01*
X101346057Y-42538600D02*
X101288914Y-42481457D01*
X101288914Y-42481457D02*
X101260343Y-42424314D01*
X101260343Y-42424314D02*
X101231771Y-42310028D01*
X101231771Y-42310028D02*
X101231771Y-42224314D01*
X101231771Y-42224314D02*
X101260343Y-42110028D01*
X101260343Y-42110028D02*
X101288914Y-42052885D01*
X101288914Y-42052885D02*
X101346057Y-41995742D01*
X101346057Y-41995742D02*
X101431771Y-41967171D01*
X101431771Y-41967171D02*
X101488914Y-41967171D01*
X101488914Y-41967171D02*
X101574628Y-41995742D01*
X101574628Y-41995742D02*
X101603200Y-42024314D01*
X101803200Y-41967171D02*
X102174628Y-41967171D01*
X102174628Y-41967171D02*
X101974628Y-42195742D01*
X101974628Y-42195742D02*
X102060343Y-42195742D01*
X102060343Y-42195742D02*
X102117486Y-42224314D01*
X102117486Y-42224314D02*
X102146057Y-42252885D01*
X102146057Y-42252885D02*
X102174628Y-42310028D01*
X102174628Y-42310028D02*
X102174628Y-42452885D01*
X102174628Y-42452885D02*
X102146057Y-42510028D01*
X102146057Y-42510028D02*
X102117486Y-42538600D01*
X102117486Y-42538600D02*
X102060343Y-42567171D01*
X102060343Y-42567171D02*
X101888914Y-42567171D01*
X101888914Y-42567171D02*
X101831771Y-42538600D01*
X101831771Y-42538600D02*
X101803200Y-42510028D01*
X93975000Y-41919771D02*
X93775000Y-41634057D01*
X93632143Y-41919771D02*
X93632143Y-41319771D01*
X93632143Y-41319771D02*
X93860714Y-41319771D01*
X93860714Y-41319771D02*
X93917857Y-41348342D01*
X93917857Y-41348342D02*
X93946428Y-41376914D01*
X93946428Y-41376914D02*
X93975000Y-41434057D01*
X93975000Y-41434057D02*
X93975000Y-41519771D01*
X93975000Y-41519771D02*
X93946428Y-41576914D01*
X93946428Y-41576914D02*
X93917857Y-41605485D01*
X93917857Y-41605485D02*
X93860714Y-41634057D01*
X93860714Y-41634057D02*
X93632143Y-41634057D01*
X94203571Y-41376914D02*
X94232143Y-41348342D01*
X94232143Y-41348342D02*
X94289286Y-41319771D01*
X94289286Y-41319771D02*
X94432143Y-41319771D01*
X94432143Y-41319771D02*
X94489286Y-41348342D01*
X94489286Y-41348342D02*
X94517857Y-41376914D01*
X94517857Y-41376914D02*
X94546428Y-41434057D01*
X94546428Y-41434057D02*
X94546428Y-41491200D01*
X94546428Y-41491200D02*
X94517857Y-41576914D01*
X94517857Y-41576914D02*
X94175000Y-41919771D01*
X94175000Y-41919771D02*
X94546428Y-41919771D01*
X98146057Y-38967171D02*
X98146057Y-39452885D01*
X98146057Y-39452885D02*
X98174628Y-39510028D01*
X98174628Y-39510028D02*
X98203200Y-39538600D01*
X98203200Y-39538600D02*
X98260342Y-39567171D01*
X98260342Y-39567171D02*
X98374628Y-39567171D01*
X98374628Y-39567171D02*
X98431771Y-39538600D01*
X98431771Y-39538600D02*
X98460342Y-39510028D01*
X98460342Y-39510028D02*
X98488914Y-39452885D01*
X98488914Y-39452885D02*
X98488914Y-38967171D01*
X98746056Y-39024314D02*
X98774628Y-38995742D01*
X98774628Y-38995742D02*
X98831771Y-38967171D01*
X98831771Y-38967171D02*
X98974628Y-38967171D01*
X98974628Y-38967171D02*
X99031771Y-38995742D01*
X99031771Y-38995742D02*
X99060342Y-39024314D01*
X99060342Y-39024314D02*
X99088913Y-39081457D01*
X99088913Y-39081457D02*
X99088913Y-39138600D01*
X99088913Y-39138600D02*
X99060342Y-39224314D01*
X99060342Y-39224314D02*
X98717485Y-39567171D01*
X98717485Y-39567171D02*
X99088913Y-39567171D01*
X108667857Y-67559771D02*
X108667857Y-68045485D01*
X108667857Y-68045485D02*
X108696428Y-68102628D01*
X108696428Y-68102628D02*
X108725000Y-68131200D01*
X108725000Y-68131200D02*
X108782142Y-68159771D01*
X108782142Y-68159771D02*
X108896428Y-68159771D01*
X108896428Y-68159771D02*
X108953571Y-68131200D01*
X108953571Y-68131200D02*
X108982142Y-68102628D01*
X108982142Y-68102628D02*
X109010714Y-68045485D01*
X109010714Y-68045485D02*
X109010714Y-67559771D01*
X109610713Y-68159771D02*
X109267856Y-68159771D01*
X109439285Y-68159771D02*
X109439285Y-67559771D01*
X109439285Y-67559771D02*
X109382142Y-67645485D01*
X109382142Y-67645485D02*
X109324999Y-67702628D01*
X109324999Y-67702628D02*
X109267856Y-67731200D01*
D20*
X82029285Y-59271331D02*
X82029285Y-59699902D01*
X82029285Y-59699902D02*
X82000714Y-59785617D01*
X82000714Y-59785617D02*
X81943571Y-59842760D01*
X81943571Y-59842760D02*
X81857857Y-59871331D01*
X81857857Y-59871331D02*
X81800714Y-59871331D01*
X82629285Y-59871331D02*
X82286428Y-59871331D01*
X82457857Y-59871331D02*
X82457857Y-59271331D01*
X82457857Y-59271331D02*
X82400714Y-59357045D01*
X82400714Y-59357045D02*
X82343571Y-59414188D01*
X82343571Y-59414188D02*
X82286428Y-59442760D01*
X82829286Y-59271331D02*
X83200714Y-59271331D01*
X83200714Y-59271331D02*
X83000714Y-59499902D01*
X83000714Y-59499902D02*
X83086429Y-59499902D01*
X83086429Y-59499902D02*
X83143572Y-59528474D01*
X83143572Y-59528474D02*
X83172143Y-59557045D01*
X83172143Y-59557045D02*
X83200714Y-59614188D01*
X83200714Y-59614188D02*
X83200714Y-59757045D01*
X83200714Y-59757045D02*
X83172143Y-59814188D01*
X83172143Y-59814188D02*
X83143572Y-59842760D01*
X83143572Y-59842760D02*
X83086429Y-59871331D01*
X83086429Y-59871331D02*
X82915000Y-59871331D01*
X82915000Y-59871331D02*
X82857857Y-59842760D01*
X82857857Y-59842760D02*
X82829286Y-59814188D01*
D10*
X102624999Y-58569771D02*
X102624999Y-58998342D01*
X102624999Y-58998342D02*
X102596428Y-59084057D01*
X102596428Y-59084057D02*
X102539285Y-59141200D01*
X102539285Y-59141200D02*
X102453571Y-59169771D01*
X102453571Y-59169771D02*
X102396428Y-59169771D01*
X103196428Y-58569771D02*
X102910714Y-58569771D01*
X102910714Y-58569771D02*
X102882142Y-58855485D01*
X102882142Y-58855485D02*
X102910714Y-58826914D01*
X102910714Y-58826914D02*
X102967857Y-58798342D01*
X102967857Y-58798342D02*
X103110714Y-58798342D01*
X103110714Y-58798342D02*
X103167857Y-58826914D01*
X103167857Y-58826914D02*
X103196428Y-58855485D01*
X103196428Y-58855485D02*
X103224999Y-58912628D01*
X103224999Y-58912628D02*
X103224999Y-59055485D01*
X103224999Y-59055485D02*
X103196428Y-59112628D01*
X103196428Y-59112628D02*
X103167857Y-59141200D01*
X103167857Y-59141200D02*
X103110714Y-59169771D01*
X103110714Y-59169771D02*
X102967857Y-59169771D01*
X102967857Y-59169771D02*
X102910714Y-59141200D01*
X102910714Y-59141200D02*
X102882142Y-59112628D01*
X90624999Y-68819771D02*
X90624999Y-69248342D01*
X90624999Y-69248342D02*
X90596428Y-69334057D01*
X90596428Y-69334057D02*
X90539285Y-69391200D01*
X90539285Y-69391200D02*
X90453571Y-69419771D01*
X90453571Y-69419771D02*
X90396428Y-69419771D01*
X90853571Y-68819771D02*
X91253571Y-68819771D01*
X91253571Y-68819771D02*
X90996428Y-69419771D01*
X82724999Y-70669771D02*
X82724999Y-71098342D01*
X82724999Y-71098342D02*
X82696428Y-71184057D01*
X82696428Y-71184057D02*
X82639285Y-71241200D01*
X82639285Y-71241200D02*
X82553571Y-71269771D01*
X82553571Y-71269771D02*
X82496428Y-71269771D01*
X83267857Y-70869771D02*
X83267857Y-71269771D01*
X83124999Y-70641200D02*
X82982142Y-71069771D01*
X82982142Y-71069771D02*
X83353571Y-71069771D01*
X83794048Y-69973866D02*
X84555953Y-69973866D01*
X95903571Y-70014700D02*
X97046429Y-70014700D01*
X96475000Y-70586128D02*
X96475000Y-69443271D01*
X96475000Y-38169771D02*
X96275000Y-37884057D01*
X96132143Y-38169771D02*
X96132143Y-37569771D01*
X96132143Y-37569771D02*
X96360714Y-37569771D01*
X96360714Y-37569771D02*
X96417857Y-37598342D01*
X96417857Y-37598342D02*
X96446428Y-37626914D01*
X96446428Y-37626914D02*
X96475000Y-37684057D01*
X96475000Y-37684057D02*
X96475000Y-37769771D01*
X96475000Y-37769771D02*
X96446428Y-37826914D01*
X96446428Y-37826914D02*
X96417857Y-37855485D01*
X96417857Y-37855485D02*
X96360714Y-37884057D01*
X96360714Y-37884057D02*
X96132143Y-37884057D01*
X97046428Y-38169771D02*
X96703571Y-38169771D01*
X96875000Y-38169771D02*
X96875000Y-37569771D01*
X96875000Y-37569771D02*
X96817857Y-37655485D01*
X96817857Y-37655485D02*
X96760714Y-37712628D01*
X96760714Y-37712628D02*
X96703571Y-37741200D01*
X94103200Y-43362628D02*
X94074628Y-43391200D01*
X94074628Y-43391200D02*
X93988914Y-43419771D01*
X93988914Y-43419771D02*
X93931771Y-43419771D01*
X93931771Y-43419771D02*
X93846057Y-43391200D01*
X93846057Y-43391200D02*
X93788914Y-43334057D01*
X93788914Y-43334057D02*
X93760343Y-43276914D01*
X93760343Y-43276914D02*
X93731771Y-43162628D01*
X93731771Y-43162628D02*
X93731771Y-43076914D01*
X93731771Y-43076914D02*
X93760343Y-42962628D01*
X93760343Y-42962628D02*
X93788914Y-42905485D01*
X93788914Y-42905485D02*
X93846057Y-42848342D01*
X93846057Y-42848342D02*
X93931771Y-42819771D01*
X93931771Y-42819771D02*
X93988914Y-42819771D01*
X93988914Y-42819771D02*
X94074628Y-42848342D01*
X94074628Y-42848342D02*
X94103200Y-42876914D01*
X94646057Y-42819771D02*
X94360343Y-42819771D01*
X94360343Y-42819771D02*
X94331771Y-43105485D01*
X94331771Y-43105485D02*
X94360343Y-43076914D01*
X94360343Y-43076914D02*
X94417486Y-43048342D01*
X94417486Y-43048342D02*
X94560343Y-43048342D01*
X94560343Y-43048342D02*
X94617486Y-43076914D01*
X94617486Y-43076914D02*
X94646057Y-43105485D01*
X94646057Y-43105485D02*
X94674628Y-43162628D01*
X94674628Y-43162628D02*
X94674628Y-43305485D01*
X94674628Y-43305485D02*
X94646057Y-43362628D01*
X94646057Y-43362628D02*
X94617486Y-43391200D01*
X94617486Y-43391200D02*
X94560343Y-43419771D01*
X94560343Y-43419771D02*
X94417486Y-43419771D01*
X94417486Y-43419771D02*
X94360343Y-43391200D01*
X94360343Y-43391200D02*
X94331771Y-43362628D01*
X82112500Y-50612628D02*
X82083928Y-50641200D01*
X82083928Y-50641200D02*
X81998214Y-50669771D01*
X81998214Y-50669771D02*
X81941071Y-50669771D01*
X81941071Y-50669771D02*
X81855357Y-50641200D01*
X81855357Y-50641200D02*
X81798214Y-50584057D01*
X81798214Y-50584057D02*
X81769643Y-50526914D01*
X81769643Y-50526914D02*
X81741071Y-50412628D01*
X81741071Y-50412628D02*
X81741071Y-50326914D01*
X81741071Y-50326914D02*
X81769643Y-50212628D01*
X81769643Y-50212628D02*
X81798214Y-50155485D01*
X81798214Y-50155485D02*
X81855357Y-50098342D01*
X81855357Y-50098342D02*
X81941071Y-50069771D01*
X81941071Y-50069771D02*
X81998214Y-50069771D01*
X81998214Y-50069771D02*
X82083928Y-50098342D01*
X82083928Y-50098342D02*
X82112500Y-50126914D01*
X82341071Y-50126914D02*
X82369643Y-50098342D01*
X82369643Y-50098342D02*
X82426786Y-50069771D01*
X82426786Y-50069771D02*
X82569643Y-50069771D01*
X82569643Y-50069771D02*
X82626786Y-50098342D01*
X82626786Y-50098342D02*
X82655357Y-50126914D01*
X82655357Y-50126914D02*
X82683928Y-50184057D01*
X82683928Y-50184057D02*
X82683928Y-50241200D01*
X82683928Y-50241200D02*
X82655357Y-50326914D01*
X82655357Y-50326914D02*
X82312500Y-50669771D01*
X82312500Y-50669771D02*
X82683928Y-50669771D01*
X86112500Y-46419771D02*
X85912500Y-46134057D01*
X85769643Y-46419771D02*
X85769643Y-45819771D01*
X85769643Y-45819771D02*
X85998214Y-45819771D01*
X85998214Y-45819771D02*
X86055357Y-45848342D01*
X86055357Y-45848342D02*
X86083928Y-45876914D01*
X86083928Y-45876914D02*
X86112500Y-45934057D01*
X86112500Y-45934057D02*
X86112500Y-46019771D01*
X86112500Y-46019771D02*
X86083928Y-46076914D01*
X86083928Y-46076914D02*
X86055357Y-46105485D01*
X86055357Y-46105485D02*
X85998214Y-46134057D01*
X85998214Y-46134057D02*
X85769643Y-46134057D01*
X86655357Y-45819771D02*
X86369643Y-45819771D01*
X86369643Y-45819771D02*
X86341071Y-46105485D01*
X86341071Y-46105485D02*
X86369643Y-46076914D01*
X86369643Y-46076914D02*
X86426786Y-46048342D01*
X86426786Y-46048342D02*
X86569643Y-46048342D01*
X86569643Y-46048342D02*
X86626786Y-46076914D01*
X86626786Y-46076914D02*
X86655357Y-46105485D01*
X86655357Y-46105485D02*
X86683928Y-46162628D01*
X86683928Y-46162628D02*
X86683928Y-46305485D01*
X86683928Y-46305485D02*
X86655357Y-46362628D01*
X86655357Y-46362628D02*
X86626786Y-46391200D01*
X86626786Y-46391200D02*
X86569643Y-46419771D01*
X86569643Y-46419771D02*
X86426786Y-46419771D01*
X86426786Y-46419771D02*
X86369643Y-46391200D01*
X86369643Y-46391200D02*
X86341071Y-46362628D01*
X112374999Y-42279771D02*
X112374999Y-42708342D01*
X112374999Y-42708342D02*
X112346428Y-42794057D01*
X112346428Y-42794057D02*
X112289285Y-42851200D01*
X112289285Y-42851200D02*
X112203571Y-42879771D01*
X112203571Y-42879771D02*
X112146428Y-42879771D01*
X112632142Y-42336914D02*
X112660714Y-42308342D01*
X112660714Y-42308342D02*
X112717857Y-42279771D01*
X112717857Y-42279771D02*
X112860714Y-42279771D01*
X112860714Y-42279771D02*
X112917857Y-42308342D01*
X112917857Y-42308342D02*
X112946428Y-42336914D01*
X112946428Y-42336914D02*
X112974999Y-42394057D01*
X112974999Y-42394057D02*
X112974999Y-42451200D01*
X112974999Y-42451200D02*
X112946428Y-42536914D01*
X112946428Y-42536914D02*
X112603571Y-42879771D01*
X112603571Y-42879771D02*
X112974999Y-42879771D01*
X112817856Y-60541200D02*
X112903571Y-60569771D01*
X112903571Y-60569771D02*
X113046428Y-60569771D01*
X113046428Y-60569771D02*
X113103571Y-60541200D01*
X113103571Y-60541200D02*
X113132142Y-60512628D01*
X113132142Y-60512628D02*
X113160713Y-60455485D01*
X113160713Y-60455485D02*
X113160713Y-60398342D01*
X113160713Y-60398342D02*
X113132142Y-60341200D01*
X113132142Y-60341200D02*
X113103571Y-60312628D01*
X113103571Y-60312628D02*
X113046428Y-60284057D01*
X113046428Y-60284057D02*
X112932142Y-60255485D01*
X112932142Y-60255485D02*
X112874999Y-60226914D01*
X112874999Y-60226914D02*
X112846428Y-60198342D01*
X112846428Y-60198342D02*
X112817856Y-60141200D01*
X112817856Y-60141200D02*
X112817856Y-60084057D01*
X112817856Y-60084057D02*
X112846428Y-60026914D01*
X112846428Y-60026914D02*
X112874999Y-59998342D01*
X112874999Y-59998342D02*
X112932142Y-59969771D01*
X112932142Y-59969771D02*
X113074999Y-59969771D01*
X113074999Y-59969771D02*
X113160713Y-59998342D01*
X113732142Y-60569771D02*
X113389285Y-60569771D01*
X113560714Y-60569771D02*
X113560714Y-59969771D01*
X113560714Y-59969771D02*
X113503571Y-60055485D01*
X113503571Y-60055485D02*
X113446428Y-60112628D01*
X113446428Y-60112628D02*
X113389285Y-60141200D01*
X82117856Y-46141200D02*
X82203571Y-46169771D01*
X82203571Y-46169771D02*
X82346428Y-46169771D01*
X82346428Y-46169771D02*
X82403571Y-46141200D01*
X82403571Y-46141200D02*
X82432142Y-46112628D01*
X82432142Y-46112628D02*
X82460713Y-46055485D01*
X82460713Y-46055485D02*
X82460713Y-45998342D01*
X82460713Y-45998342D02*
X82432142Y-45941200D01*
X82432142Y-45941200D02*
X82403571Y-45912628D01*
X82403571Y-45912628D02*
X82346428Y-45884057D01*
X82346428Y-45884057D02*
X82232142Y-45855485D01*
X82232142Y-45855485D02*
X82174999Y-45826914D01*
X82174999Y-45826914D02*
X82146428Y-45798342D01*
X82146428Y-45798342D02*
X82117856Y-45741200D01*
X82117856Y-45741200D02*
X82117856Y-45684057D01*
X82117856Y-45684057D02*
X82146428Y-45626914D01*
X82146428Y-45626914D02*
X82174999Y-45598342D01*
X82174999Y-45598342D02*
X82232142Y-45569771D01*
X82232142Y-45569771D02*
X82374999Y-45569771D01*
X82374999Y-45569771D02*
X82460713Y-45598342D01*
X82660714Y-45569771D02*
X83032142Y-45569771D01*
X83032142Y-45569771D02*
X82832142Y-45798342D01*
X82832142Y-45798342D02*
X82917857Y-45798342D01*
X82917857Y-45798342D02*
X82975000Y-45826914D01*
X82975000Y-45826914D02*
X83003571Y-45855485D01*
X83003571Y-45855485D02*
X83032142Y-45912628D01*
X83032142Y-45912628D02*
X83032142Y-46055485D01*
X83032142Y-46055485D02*
X83003571Y-46112628D01*
X83003571Y-46112628D02*
X82975000Y-46141200D01*
X82975000Y-46141200D02*
X82917857Y-46169771D01*
X82917857Y-46169771D02*
X82746428Y-46169771D01*
X82746428Y-46169771D02*
X82689285Y-46141200D01*
X82689285Y-46141200D02*
X82660714Y-46112628D01*
X108874999Y-58569771D02*
X108874999Y-58998342D01*
X108874999Y-58998342D02*
X108846428Y-59084057D01*
X108846428Y-59084057D02*
X108789285Y-59141200D01*
X108789285Y-59141200D02*
X108703571Y-59169771D01*
X108703571Y-59169771D02*
X108646428Y-59169771D01*
X109417857Y-58569771D02*
X109303571Y-58569771D01*
X109303571Y-58569771D02*
X109246428Y-58598342D01*
X109246428Y-58598342D02*
X109217857Y-58626914D01*
X109217857Y-58626914D02*
X109160714Y-58712628D01*
X109160714Y-58712628D02*
X109132142Y-58826914D01*
X109132142Y-58826914D02*
X109132142Y-59055485D01*
X109132142Y-59055485D02*
X109160714Y-59112628D01*
X109160714Y-59112628D02*
X109189285Y-59141200D01*
X109189285Y-59141200D02*
X109246428Y-59169771D01*
X109246428Y-59169771D02*
X109360714Y-59169771D01*
X109360714Y-59169771D02*
X109417857Y-59141200D01*
X109417857Y-59141200D02*
X109446428Y-59112628D01*
X109446428Y-59112628D02*
X109474999Y-59055485D01*
X109474999Y-59055485D02*
X109474999Y-58912628D01*
X109474999Y-58912628D02*
X109446428Y-58855485D01*
X109446428Y-58855485D02*
X109417857Y-58826914D01*
X109417857Y-58826914D02*
X109360714Y-58798342D01*
X109360714Y-58798342D02*
X109246428Y-58798342D01*
X109246428Y-58798342D02*
X109189285Y-58826914D01*
X109189285Y-58826914D02*
X109160714Y-58855485D01*
X109160714Y-58855485D02*
X109132142Y-58912628D01*
X82112500Y-47587628D02*
X82083928Y-47616200D01*
X82083928Y-47616200D02*
X81998214Y-47644771D01*
X81998214Y-47644771D02*
X81941071Y-47644771D01*
X81941071Y-47644771D02*
X81855357Y-47616200D01*
X81855357Y-47616200D02*
X81798214Y-47559057D01*
X81798214Y-47559057D02*
X81769643Y-47501914D01*
X81769643Y-47501914D02*
X81741071Y-47387628D01*
X81741071Y-47387628D02*
X81741071Y-47301914D01*
X81741071Y-47301914D02*
X81769643Y-47187628D01*
X81769643Y-47187628D02*
X81798214Y-47130485D01*
X81798214Y-47130485D02*
X81855357Y-47073342D01*
X81855357Y-47073342D02*
X81941071Y-47044771D01*
X81941071Y-47044771D02*
X81998214Y-47044771D01*
X81998214Y-47044771D02*
X82083928Y-47073342D01*
X82083928Y-47073342D02*
X82112500Y-47101914D01*
X82626786Y-47244771D02*
X82626786Y-47644771D01*
X82483928Y-47016200D02*
X82341071Y-47444771D01*
X82341071Y-47444771D02*
X82712500Y-47444771D01*
X90839285Y-59069771D02*
X90839285Y-59498342D01*
X90839285Y-59498342D02*
X90810714Y-59584057D01*
X90810714Y-59584057D02*
X90753571Y-59641200D01*
X90753571Y-59641200D02*
X90667857Y-59669771D01*
X90667857Y-59669771D02*
X90610714Y-59669771D01*
X91439285Y-59669771D02*
X91096428Y-59669771D01*
X91267857Y-59669771D02*
X91267857Y-59069771D01*
X91267857Y-59069771D02*
X91210714Y-59155485D01*
X91210714Y-59155485D02*
X91153571Y-59212628D01*
X91153571Y-59212628D02*
X91096428Y-59241200D01*
X91667857Y-59126914D02*
X91696429Y-59098342D01*
X91696429Y-59098342D02*
X91753572Y-59069771D01*
X91753572Y-59069771D02*
X91896429Y-59069771D01*
X91896429Y-59069771D02*
X91953572Y-59098342D01*
X91953572Y-59098342D02*
X91982143Y-59126914D01*
X91982143Y-59126914D02*
X92010714Y-59184057D01*
X92010714Y-59184057D02*
X92010714Y-59241200D01*
X92010714Y-59241200D02*
X91982143Y-59326914D01*
X91982143Y-59326914D02*
X91639286Y-59669771D01*
X91639286Y-59669771D02*
X92010714Y-59669771D01*
X99439285Y-73919771D02*
X99239285Y-73634057D01*
X99096428Y-73919771D02*
X99096428Y-73319771D01*
X99096428Y-73319771D02*
X99324999Y-73319771D01*
X99324999Y-73319771D02*
X99382142Y-73348342D01*
X99382142Y-73348342D02*
X99410713Y-73376914D01*
X99410713Y-73376914D02*
X99439285Y-73434057D01*
X99439285Y-73434057D02*
X99439285Y-73519771D01*
X99439285Y-73519771D02*
X99410713Y-73576914D01*
X99410713Y-73576914D02*
X99382142Y-73605485D01*
X99382142Y-73605485D02*
X99324999Y-73634057D01*
X99324999Y-73634057D02*
X99096428Y-73634057D01*
X100010713Y-73919771D02*
X99667856Y-73919771D01*
X99839285Y-73919771D02*
X99839285Y-73319771D01*
X99839285Y-73319771D02*
X99782142Y-73405485D01*
X99782142Y-73405485D02*
X99724999Y-73462628D01*
X99724999Y-73462628D02*
X99667856Y-73491200D01*
X100382142Y-73319771D02*
X100439285Y-73319771D01*
X100439285Y-73319771D02*
X100496428Y-73348342D01*
X100496428Y-73348342D02*
X100525000Y-73376914D01*
X100525000Y-73376914D02*
X100553571Y-73434057D01*
X100553571Y-73434057D02*
X100582142Y-73548342D01*
X100582142Y-73548342D02*
X100582142Y-73691200D01*
X100582142Y-73691200D02*
X100553571Y-73805485D01*
X100553571Y-73805485D02*
X100525000Y-73862628D01*
X100525000Y-73862628D02*
X100496428Y-73891200D01*
X100496428Y-73891200D02*
X100439285Y-73919771D01*
X100439285Y-73919771D02*
X100382142Y-73919771D01*
X100382142Y-73919771D02*
X100325000Y-73891200D01*
X100325000Y-73891200D02*
X100296428Y-73862628D01*
X100296428Y-73862628D02*
X100267857Y-73805485D01*
X100267857Y-73805485D02*
X100239285Y-73691200D01*
X100239285Y-73691200D02*
X100239285Y-73548342D01*
X100239285Y-73548342D02*
X100267857Y-73434057D01*
X100267857Y-73434057D02*
X100296428Y-73376914D01*
X100296428Y-73376914D02*
X100325000Y-73348342D01*
X100325000Y-73348342D02*
X100382142Y-73319771D01*
X91017857Y-61226914D02*
X90960714Y-61198342D01*
X90960714Y-61198342D02*
X90903571Y-61141200D01*
X90903571Y-61141200D02*
X90817857Y-61055485D01*
X90817857Y-61055485D02*
X90760714Y-61026914D01*
X90760714Y-61026914D02*
X90703571Y-61026914D01*
X90732142Y-61169771D02*
X90675000Y-61141200D01*
X90675000Y-61141200D02*
X90617857Y-61084057D01*
X90617857Y-61084057D02*
X90589285Y-60969771D01*
X90589285Y-60969771D02*
X90589285Y-60769771D01*
X90589285Y-60769771D02*
X90617857Y-60655485D01*
X90617857Y-60655485D02*
X90675000Y-60598342D01*
X90675000Y-60598342D02*
X90732142Y-60569771D01*
X90732142Y-60569771D02*
X90846428Y-60569771D01*
X90846428Y-60569771D02*
X90903571Y-60598342D01*
X90903571Y-60598342D02*
X90960714Y-60655485D01*
X90960714Y-60655485D02*
X90989285Y-60769771D01*
X90989285Y-60769771D02*
X90989285Y-60969771D01*
X90989285Y-60969771D02*
X90960714Y-61084057D01*
X90960714Y-61084057D02*
X90903571Y-61141200D01*
X90903571Y-61141200D02*
X90846428Y-61169771D01*
X90846428Y-61169771D02*
X90732142Y-61169771D01*
X91217856Y-60626914D02*
X91246428Y-60598342D01*
X91246428Y-60598342D02*
X91303571Y-60569771D01*
X91303571Y-60569771D02*
X91446428Y-60569771D01*
X91446428Y-60569771D02*
X91503571Y-60598342D01*
X91503571Y-60598342D02*
X91532142Y-60626914D01*
X91532142Y-60626914D02*
X91560713Y-60684057D01*
X91560713Y-60684057D02*
X91560713Y-60741200D01*
X91560713Y-60741200D02*
X91532142Y-60826914D01*
X91532142Y-60826914D02*
X91189285Y-61169771D01*
X91189285Y-61169771D02*
X91560713Y-61169771D01*
D20*
%TO.C,R4*%
X84802500Y-50662742D02*
X84802500Y-51137258D01*
X85847500Y-50662742D02*
X85847500Y-51137258D01*
%TO.C,J1*%
X102215000Y-87960000D02*
X102215000Y-73650000D01*
X111365000Y-69540000D02*
X107625000Y-69540000D01*
X117935000Y-87960000D02*
X102215000Y-87960000D01*
X117935000Y-87960000D02*
X117935000Y-73650000D01*
X102215000Y-73650000D02*
G75*
G02*
X105123352Y-69719587I4110000J0D01*
G01*
X115941806Y-70127043D02*
G75*
G02*
X117934999Y-73650000I-2116805J-3522956D01*
G01*
D21*
%TO.C,L1*%
X97467200Y-33068400D02*
X103167200Y-33068400D01*
X97467200Y-38368400D02*
X103167200Y-38368400D01*
D20*
%TO.C,Q1*%
X82915000Y-60775000D02*
X82915000Y-60125000D01*
X82915000Y-60775000D02*
X82915000Y-61425000D01*
X86035000Y-60775000D02*
X86035000Y-60125000D01*
X86035000Y-60775000D02*
X86035000Y-61425000D01*
X82965000Y-61937500D02*
X82635000Y-62177500D01*
X82635000Y-61697500D01*
X82965000Y-61937500D01*
G36*
X82965000Y-61937500D02*
G01*
X82635000Y-62177500D01*
X82635000Y-61697500D01*
X82965000Y-61937500D01*
G37*
%TO.C,C7*%
X95871620Y-44860400D02*
X96152780Y-44860400D01*
X95871620Y-45880400D02*
X96152780Y-45880400D01*
%TO.C,J3*%
X104773200Y-31587400D02*
X106103200Y-31587400D01*
X104773200Y-32917400D02*
X104773200Y-31587400D01*
X104773200Y-34187400D02*
X104773200Y-41867400D01*
X104773200Y-34187400D02*
X107373200Y-34187400D01*
X104773200Y-41867400D02*
X109973200Y-41867400D01*
X107373200Y-31587400D02*
X109973200Y-31587400D01*
X107373200Y-34187400D02*
X107373200Y-31587400D01*
X109973200Y-31587400D02*
X109973200Y-41867400D01*
%TO.C,J9*%
X87480000Y-51770000D02*
X87480000Y-46570000D01*
X90080000Y-49170000D02*
X90080000Y-51770000D01*
X90080000Y-51770000D02*
X87480000Y-51770000D01*
X92680000Y-46570000D02*
X87480000Y-46570000D01*
X92680000Y-49170000D02*
X90080000Y-49170000D01*
X92680000Y-49170000D02*
X92680000Y-46570000D01*
X92680000Y-50440000D02*
X92680000Y-51770000D01*
X92680000Y-51770000D02*
X91350000Y-51770000D01*
%TO.C,C1*%
X101397052Y-44086600D02*
X99974548Y-44086600D01*
X101397052Y-46806600D02*
X99974548Y-46806600D01*
%TO.C,D1*%
X99777500Y-78350000D02*
X99777500Y-80635000D01*
X99777500Y-80635000D02*
X101247500Y-80635000D01*
X101247500Y-80635000D02*
X101247500Y-78350000D01*
D21*
%TO.C,S2*%
X82575000Y-37050000D02*
X83755000Y-37050000D01*
X82575000Y-40650000D02*
X82575000Y-37050000D01*
X83755000Y-40650000D02*
X82575000Y-40650000D01*
X85395000Y-37050000D02*
X86255000Y-37050000D01*
X86255000Y-40650000D02*
X85395000Y-40650000D01*
X87895000Y-37050000D02*
X88755000Y-37050000D01*
X88755000Y-40650000D02*
X87895000Y-40650000D01*
X90395000Y-37050000D02*
X91575000Y-37050000D01*
X91575000Y-37050000D02*
X91575000Y-40650000D01*
X91575000Y-40650000D02*
X90395000Y-40650000D01*
D13*
X83675000Y-41350000D02*
G75*
G02*
X83475000Y-41350000I-100000J0D01*
G01*
X83475000Y-41350000D02*
G75*
G02*
X83675000Y-41350000I100000J0D01*
G01*
D20*
%TO.C,R3*%
X94428742Y-36516700D02*
X94903258Y-36516700D01*
X94428742Y-37561700D02*
X94903258Y-37561700D01*
%TO.C,C3*%
X101220800Y-40079948D02*
X101220800Y-40602452D01*
X102690800Y-40079948D02*
X102690800Y-40602452D01*
%TO.C,R2*%
X94903258Y-39920300D02*
X94428742Y-39920300D01*
X94903258Y-40965300D02*
X94428742Y-40965300D01*
%TO.C,U2*%
X96927500Y-40040000D02*
X97402500Y-40040000D01*
X96927500Y-40515000D02*
X96927500Y-40040000D01*
X96927500Y-42785000D02*
X96927500Y-43260000D01*
X96927500Y-43260000D02*
X97402500Y-43260000D01*
X99672500Y-40040000D02*
X99907500Y-40040000D01*
X100147500Y-40515000D02*
X100147500Y-40340000D01*
X100147500Y-42785000D02*
X100147500Y-43260000D01*
X100147500Y-43260000D02*
X99672500Y-43260000D01*
X100477500Y-40280000D02*
X100147500Y-40040000D01*
X100477500Y-39800000D01*
X100477500Y-40280000D01*
G36*
X100477500Y-40280000D02*
G01*
X100147500Y-40040000D01*
X100477500Y-39800000D01*
X100477500Y-40280000D01*
G37*
%TO.C,U1*%
X101805000Y-60300000D02*
X101805000Y-60770000D01*
X101805000Y-60770000D02*
X98975000Y-60770000D01*
X101805000Y-66730000D02*
X100705000Y-66730000D01*
X101805000Y-67200000D02*
X101805000Y-66730000D01*
X108225000Y-60300000D02*
X101805000Y-60300000D01*
X108225000Y-67200000D02*
X101805000Y-67200000D01*
%TO.C,J13*%
X82745000Y-52985000D02*
X84075000Y-52985000D01*
X82745000Y-54315000D02*
X82745000Y-52985000D01*
X82745000Y-55585000D02*
X82745000Y-58185000D01*
X82745000Y-55585000D02*
X85345000Y-55585000D01*
X82745000Y-58185000D02*
X87945000Y-58185000D01*
X85345000Y-52985000D02*
X87945000Y-52985000D01*
X85345000Y-55585000D02*
X85345000Y-52985000D01*
X87945000Y-52985000D02*
X87945000Y-58185000D01*
%TO.C,J5*%
X102745000Y-53055000D02*
X104075000Y-53055000D01*
X102745000Y-54385000D02*
X102745000Y-53055000D01*
X102745000Y-55655000D02*
X102745000Y-58255000D01*
X102745000Y-55655000D02*
X105405000Y-55655000D01*
X102745000Y-58255000D02*
X105405000Y-58255000D01*
X105405000Y-55655000D02*
X105405000Y-58255000D01*
%TO.C,J7*%
X84730000Y-68605000D02*
X84730000Y-63405000D01*
X87330000Y-66005000D02*
X87330000Y-68605000D01*
X87330000Y-68605000D02*
X84730000Y-68605000D01*
X89930000Y-63405000D02*
X84730000Y-63405000D01*
X89930000Y-66005000D02*
X87330000Y-66005000D01*
X89930000Y-66005000D02*
X89930000Y-63405000D01*
X89930000Y-67275000D02*
X89930000Y-68605000D01*
X89930000Y-68605000D02*
X88600000Y-68605000D01*
%TO.C,J4*%
X82715000Y-80160000D02*
X82715000Y-74550000D01*
X83565000Y-80160000D02*
X82715000Y-80160000D01*
X83565000Y-87860000D02*
X83565000Y-80160000D01*
X93025000Y-70440000D02*
X89285000Y-70440000D01*
X97585000Y-87860000D02*
X83565000Y-87860000D01*
X97585000Y-87860000D02*
X97585000Y-80160000D01*
X98435000Y-80160000D02*
X97585000Y-80160000D01*
X98435000Y-80160000D02*
X98435000Y-74550000D01*
X82715000Y-74550000D02*
G75*
G02*
X84708194Y-71027042I4110000J0D01*
G01*
X95564900Y-70591282D02*
G75*
G02*
X98434999Y-74550000I-1239898J-3918716D01*
G01*
%TO.C,R1*%
X94454142Y-38218500D02*
X94928658Y-38218500D01*
X94454142Y-39263500D02*
X94928658Y-39263500D01*
%TO.C,C5*%
X94943400Y-42867620D02*
X94943400Y-43148780D01*
X95963400Y-42867620D02*
X95963400Y-43148780D01*
%TO.C,C2*%
X83315000Y-50759420D02*
X83315000Y-51040580D01*
X84335000Y-50759420D02*
X84335000Y-51040580D01*
%TO.C,R5*%
X84802500Y-47412742D02*
X84802500Y-47887258D01*
X85847500Y-47412742D02*
X85847500Y-47887258D01*
%TO.C,J2*%
X112995000Y-31490000D02*
X114325000Y-31490000D01*
X112995000Y-32820000D02*
X112995000Y-31490000D01*
X112995000Y-34090000D02*
X112995000Y-41770000D01*
X112995000Y-34090000D02*
X115595000Y-34090000D01*
X112995000Y-41770000D02*
X118195000Y-41770000D01*
X115595000Y-31490000D02*
X118195000Y-31490000D01*
X115595000Y-34090000D02*
X115595000Y-31490000D01*
X118195000Y-31490000D02*
X118195000Y-41770000D01*
D21*
%TO.C,S1*%
X110275000Y-50410000D02*
X113875000Y-50410000D01*
X110275000Y-51590000D02*
X110275000Y-50410000D01*
X110275000Y-54090000D02*
X110275000Y-53230000D01*
X110275000Y-56590000D02*
X110275000Y-55730000D01*
X110275000Y-59410000D02*
X110275000Y-58230000D01*
X113875000Y-50410000D02*
X113875000Y-51590000D01*
X113875000Y-53230000D02*
X113875000Y-54090000D01*
X113875000Y-55730000D02*
X113875000Y-56590000D01*
X113875000Y-58230000D02*
X113875000Y-59410000D01*
X113875000Y-59410000D02*
X110275000Y-59410000D01*
D13*
X109675000Y-51410000D02*
G75*
G02*
X109475000Y-51410000I-100000J0D01*
G01*
X109475000Y-51410000D02*
G75*
G02*
X109675000Y-51410000I100000J0D01*
G01*
D21*
%TO.C,S3*%
X82575000Y-41650000D02*
X83755000Y-41650000D01*
X82575000Y-45250000D02*
X82575000Y-41650000D01*
X83755000Y-45250000D02*
X82575000Y-45250000D01*
X85395000Y-41650000D02*
X86255000Y-41650000D01*
X86255000Y-45250000D02*
X85395000Y-45250000D01*
X87895000Y-41650000D02*
X88755000Y-41650000D01*
X88755000Y-45250000D02*
X87895000Y-45250000D01*
X90395000Y-41650000D02*
X91575000Y-41650000D01*
X91575000Y-41650000D02*
X91575000Y-45250000D01*
X91575000Y-45250000D02*
X90395000Y-45250000D01*
D13*
X83675000Y-45950000D02*
G75*
G02*
X83475000Y-45950000I-100000J0D01*
G01*
X83475000Y-45950000D02*
G75*
G02*
X83675000Y-45950000I100000J0D01*
G01*
D20*
%TO.C,J6*%
X106495000Y-53030000D02*
X107825000Y-53030000D01*
X106495000Y-54360000D02*
X106495000Y-53030000D01*
X106495000Y-55630000D02*
X106495000Y-58230000D01*
X106495000Y-55630000D02*
X109155000Y-55630000D01*
X106495000Y-58230000D02*
X109155000Y-58230000D01*
X109155000Y-55630000D02*
X109155000Y-58230000D01*
%TO.C,C4*%
X83315000Y-47509420D02*
X83315000Y-47790580D01*
X84335000Y-47509420D02*
X84335000Y-47790580D01*
%TO.C,J12*%
X88955000Y-52985000D02*
X90285000Y-52985000D01*
X88955000Y-54315000D02*
X88955000Y-52985000D01*
X88955000Y-55585000D02*
X88955000Y-58185000D01*
X88955000Y-55585000D02*
X91555000Y-55585000D01*
X88955000Y-58185000D02*
X94155000Y-58185000D01*
X91555000Y-52985000D02*
X94155000Y-52985000D01*
X91555000Y-55585000D02*
X91555000Y-52985000D01*
X94155000Y-52985000D02*
X94155000Y-58185000D01*
%TO.C,R10*%
X99990000Y-75412742D02*
X99990000Y-75887258D01*
X101035000Y-75412742D02*
X101035000Y-75887258D01*
%TO.C,Q2*%
X87215000Y-60712500D02*
X87215000Y-60062500D01*
X87215000Y-60712500D02*
X87215000Y-61362500D01*
X90335000Y-60712500D02*
X90335000Y-60062500D01*
X90335000Y-60712500D02*
X90335000Y-61362500D01*
X87265000Y-61875000D02*
X86935000Y-62115000D01*
X86935000Y-61635000D01*
X87265000Y-61875000D01*
G36*
X87265000Y-61875000D02*
G01*
X86935000Y-62115000D01*
X86935000Y-61635000D01*
X87265000Y-61875000D01*
G37*
%TD*%
M02*
