M48
; DRILL file {KiCad 8.0.1} date 2024-06-02T10:18:48+0800
; FORMAT={-:-/ absolute / inch / decimal}
; #@! TF.CreationDate,2024-06-02T10:18:48+08:00
; #@! TF.GenerationSoftware,Kicad,Pcbnew,8.0.1
; #@! TF.FileFunction,Plated,1,2,PTH
FMAT,2
INCH
; #@! TA.AperFunction,Plated,PTH,ViaDrill
T1C0.0118
; #@! TA.AperFunction,Plated,PTH,ViaDrill
T2C0.0197
; #@! TA.AperFunction,Plated,PTH,ComponentDrill
T3C0.0197
; #@! TA.AperFunction,Plated,PTH,ComponentDrill
T4C0.0236
; #@! TA.AperFunction,Plated,PTH,ComponentDrill
T5C0.0394
; #@! TA.AperFunction,Plated,PTH,ComponentDrill
T6C0.1063
; #@! TA.AperFunction,Plated,PTH,ComponentDrill
T7C0.1260
%
G90
G05
T1
X3.2825Y-1.9547
X3.3199Y-1.9547
X3.3681Y-1.5856
X3.3681Y-1.7549
X3.4104Y-2.3425
X3.4104Y-2.3819
X3.4104Y-2.4252
X3.4124Y-1.935
X3.4183Y-2.0039
X3.4281Y-1.6634
X3.4459Y-2.0433
X3.4478Y-1.935
X3.4616Y-1.5866
X3.4616Y-1.7569
X3.4843Y-1.814
X3.4931Y-2.2047
X3.5325Y-2.0433
X3.5443Y-2.3878
X3.5758Y-1.7657
X3.5837Y-1.5118
X3.5837Y-1.5531
X3.6821Y-1.9409
X3.6841Y-2.0413
X3.6945Y-1.4057
X3.7304Y-1.8326
X3.758Y-1.8326
X3.8604Y-1.6219
X3.8604Y-1.6574
X3.88Y-1.6377
X3.8997Y-1.6219
X3.8997Y-1.6574
X3.972Y-1.6932
X4.0187Y-1.7562
X4.0187Y-1.7874
X4.0187Y-1.8189
X4.0187Y-1.8504
X4.0187Y-1.8819
X4.1037Y-1.5381
X4.4226Y-1.4008
X4.4232Y-1.2445
X4.4232Y-1.2839
X4.4232Y-1.3232
X4.4232Y-1.3626
X4.4232Y-1.4413
X4.4232Y-1.4807
T2
X3.2589Y-2.5039
X3.2687Y-1.4882
X3.2707Y-1.6594
X3.2707Y-1.7776
X3.2707Y-1.8465
X3.4183Y-3.0177
X3.4183Y-3.0965
X3.4222Y-3.2677
X3.497Y-3.0177
X3.497Y-3.0965
X3.501Y-3.2677
X3.5758Y-3.0177
X3.5758Y-3.0965
X3.5797Y-3.2677
X3.6112Y-2.5492
X3.6112Y-2.6575
X3.6545Y-3.0177
X3.6545Y-3.0965
X3.6585Y-3.2677
X3.7333Y-2.0925
X3.8514Y-2.3972
X3.8514Y-2.4661
X3.8514Y-2.535
X3.8514Y-2.6039
X3.8514Y-2.663
X3.878Y-2.3425
X3.9203Y-2.663
X3.9242Y-2.1024
X3.9498Y-2.1811
X3.9596Y-2.8406
X3.9793Y-2.2697
X3.9793Y-2.348
X3.9793Y-2.663
X4.1171Y-2.3957
X4.1171Y-2.4563
X4.1171Y-2.5547
X4.1171Y-2.6236
X4.2352Y-2.9882
X4.2352Y-3.0669
X4.2451Y-3.2894
X4.2539Y-2.3957
X4.2539Y-2.624
X4.2549Y-2.4563
X4.2549Y-2.5547
X4.314Y-2.9882
X4.314Y-3.0669
X4.3238Y-3.2894
X4.3927Y-2.9882
X4.3927Y-3.0669
X4.4026Y-3.2894
X4.4715Y-2.9882
X4.4715Y-3.0669
X4.4813Y-3.2894
T3
X3.315Y-1.2974
X3.3426Y-1.2305
X3.3426Y-1.3642
X3.4094Y-1.2029
X3.4094Y-1.3918
X3.4763Y-1.2305
X3.4763Y-1.3642
X3.5039Y-1.2974
X4.4184Y-2.5333
X4.4461Y-2.4665
X4.4461Y-2.6002
X4.5129Y-2.4389
X4.5129Y-2.6278
X4.5797Y-2.4665
X4.5797Y-2.6002
X4.6074Y-2.5333
T5
X3.31Y-2.1384
X3.31Y-2.2384
X3.3882Y-2.5486
X3.3882Y-2.6486
X3.41Y-2.1384
X3.41Y-2.2384
X3.4882Y-2.5486
X3.4882Y-2.6486
X3.4965Y-1.8858
X3.4965Y-1.9858
X3.5545Y-2.1384
X3.5545Y-2.2384
X3.5965Y-1.8858
X3.5965Y-1.9858
X3.6545Y-2.1384
X3.6545Y-2.2384
X4.0974Y-2.1411
X4.0974Y-2.2411
X4.1773Y-1.296
X4.1773Y-1.396
X4.1773Y-1.496
X4.1773Y-1.596
X4.2451Y-2.1402
X4.2451Y-2.2402
X4.2773Y-1.296
X4.2773Y-1.396
X4.2773Y-1.496
X4.2773Y-1.596
X4.501Y-1.2921
X4.501Y-1.3921
X4.501Y-1.4921
X4.501Y-1.5921
X4.601Y-1.2921
X4.601Y-1.3921
X4.601Y-1.4921
X4.601Y-1.5921
T6
X3.4242Y-2.8504
X3.7077Y-2.8504
X4.1919Y-2.815
X4.4754Y-2.815
T7
X3.4094Y-1.2974
X4.5129Y-2.5333
T4
G00X3.3002Y-3.1083
M15
G01X3.3002Y-3.065
M16
G05
G00X3.8317Y-3.1083
M15
G01X3.8317Y-3.065
M16
G05
G00X4.0679Y-3.0728
M15
G01X4.0679Y-3.0295
M16
G05
G00X4.5994Y-3.0728
M15
G01X4.5994Y-3.0295
M16
G05
M30
