M48
; DRILL file {KiCad 8.0.1} date 2024-06-06T08:45:59+0800
; FORMAT={-:-/ absolute / inch / decimal}
; #@! TF.CreationDate,2024-06-06T08:45:59+08:00
; #@! TF.GenerationSoftware,Kicad,Pcbnew,8.0.1
; #@! TF.FileFunction,Plated,1,2,PTH
FMAT,2
INCH
; #@! TA.AperFunction,Plated,PTH,ViaDrill
T1C0.0118
; #@! TA.AperFunction,Plated,PTH,ViaDrill
T2C0.0197
; #@! TA.AperFunction,Plated,PTH,ComponentDrill
T3C0.0197
; #@! TA.AperFunction,Plated,PTH,ComponentDrill
T4C0.0394
; #@! TA.AperFunction,Plated,PTH,ComponentDrill
T5C0.1260
%
G90
G05
T1
X2.3622Y-3.2874
X2.9395Y-3.1826
X3.3071Y-3.2677
X3.3957Y-3.2677
X3.8386Y-3.3858
X3.9764Y-3.189
X4.0118Y-3.3031
T2
X2.3031Y-3.0709
X2.4539Y-2.9894
X2.4606Y-3.0709
X2.5591Y-2.9528
X2.5591Y-3.0709
X2.5787Y-3.5433
X2.5787Y-3.7008
X2.6378Y-3.7008
X2.8346Y-3.3661
X2.874Y-3.0709
X3.0512Y-3.0709
X3.1407Y-3.2756
X3.1496Y-3.7205
X3.189Y-3.3858
X3.2677Y-3.0709
X3.4252Y-3.0709
X3.5039Y-3.5827
X3.5128Y-3.2343
X3.5236Y-3.4843
X3.5433Y-3.3858
X3.6811Y-3.0709
X3.7795Y-3.5039
X3.937Y-2.9331
X3.937Y-3.0709
X4.0748Y-3.0709
T3
X2.2993Y-3.5749
X2.327Y-3.5081
X2.327Y-3.6417
X2.3938Y-3.4804
X2.3938Y-3.6694
X2.4606Y-3.5081
X2.4606Y-3.6417
X2.4883Y-3.5749
X3.9016Y-3.5749
X3.9292Y-3.5081
X3.9292Y-3.6417
X3.9961Y-3.4804
X3.9961Y-3.6694
X4.0629Y-3.5081
X4.0629Y-3.6417
X4.0906Y-3.5749
T4
X2.4969Y-3.1953
X2.4969Y-3.2953
X2.5969Y-3.1953
X2.5969Y-3.2953
X2.6969Y-3.1953
X2.6969Y-3.2953
X2.8988Y-3.5417
X2.8988Y-3.6417
X2.9988Y-3.5417
X2.9988Y-3.6417
X3.0988Y-3.5417
X3.0988Y-3.6417
X3.1988Y-3.5417
X3.1988Y-3.6417
X3.2988Y-3.5417
X3.2988Y-3.6417
X3.3988Y-3.5417
X3.3988Y-3.6417
X3.5795Y-3.1949
X3.5795Y-3.2949
X3.6795Y-3.1949
X3.6795Y-3.2949
X3.7795Y-3.1949
X3.7795Y-3.2949
X3.8795Y-3.1949
X3.8795Y-3.2949
T5
X2.3938Y-3.5749
X3.9961Y-3.5749
M30
