%TF.GenerationSoftware,KiCad,Pcbnew,8.0.1*%
%TF.CreationDate,2024-06-06T08:45:56+08:00*%
%TF.ProjectId,CrazyDonkeyTarmoBoard,4372617a-7944-46f6-9e6b-65795461726d,rev?*%
%TF.SameCoordinates,Original*%
%TF.FileFunction,Legend,Top*%
%TF.FilePolarity,Positive*%
%FSLAX46Y46*%
G04 Gerber Fmt 4.6, Leading zero omitted, Abs format (unit mm)*
G04 Created by KiCad (PCBNEW 8.0.1) date 2024-06-06 08:45:56*
%MOMM*%
%LPD*%
G01*
G04 APERTURE LIST*
%ADD10C,0.100000*%
%ADD11C,0.200000*%
%ADD12C,0.180000*%
%ADD13C,0.240000*%
%ADD14C,0.160000*%
%ADD15C,0.140000*%
%ADD16C,0.127000*%
%ADD17C,0.120000*%
G04 APERTURE END LIST*
D10*
X91250000Y-76000000D02*
X91250000Y-77000000D01*
D11*
X84750000Y-72750000D02*
X85750000Y-72750000D01*
D10*
X90250000Y-77000000D02*
X90250000Y-76000000D01*
X57500000Y-71250000D02*
X58600000Y-71250000D01*
X59000000Y-71250000D02*
X60100000Y-71250000D01*
X60500000Y-71250000D02*
X61600000Y-71250000D01*
X62000000Y-71250000D02*
X63100000Y-71250000D01*
X63500000Y-71250000D02*
X64600000Y-71250000D01*
X65000000Y-71250000D02*
X66100000Y-71250000D01*
X66500000Y-71250000D02*
X67600000Y-71250000D01*
X68000000Y-71250000D02*
X69100000Y-71250000D01*
X69500000Y-71250000D02*
X70600000Y-71250000D01*
X71000000Y-71250000D02*
X72100000Y-71250000D01*
X72500000Y-71250000D02*
X73600000Y-71250000D01*
X74000000Y-71250000D02*
X75100000Y-71250000D01*
X75500000Y-71250000D02*
X76600000Y-71250000D01*
X77000000Y-71250000D02*
X78100000Y-71250000D01*
X78500000Y-71250000D02*
X79600000Y-71250000D01*
X80000000Y-71250000D02*
X81100000Y-71250000D01*
X81500000Y-71250000D02*
X82600000Y-71250000D01*
X83000000Y-71250000D02*
X84100000Y-71250000D01*
X84500000Y-71250000D02*
X85600000Y-71250000D01*
X86000000Y-71250000D02*
X87100000Y-71250000D01*
X87500000Y-71250000D02*
X88600000Y-71250000D01*
X89000000Y-71250000D02*
X90100000Y-71250000D01*
X90500000Y-71250000D02*
X91600000Y-71250000D01*
X92000000Y-71250000D02*
X93100000Y-71250000D01*
X93500000Y-71250000D02*
X94600000Y-71250000D01*
X95000000Y-71250000D02*
X96100000Y-71250000D01*
X96500000Y-71250000D02*
X97600000Y-71250000D01*
X98000000Y-71250000D02*
X99100000Y-71250000D01*
X99500000Y-71250000D02*
X100600000Y-71250000D01*
X101000000Y-71250000D02*
X102100000Y-71250000D01*
X102500000Y-71250000D02*
X103600000Y-71250000D01*
X104000000Y-71250000D02*
X105000000Y-71250000D01*
X105000000Y-71250000D02*
X105000000Y-72350000D01*
X105000000Y-72750000D02*
X105000000Y-73850000D01*
X105000000Y-74000000D02*
X103900000Y-74000000D01*
X103500000Y-74000000D02*
X102400000Y-74000000D01*
X102000000Y-74000000D02*
X100900000Y-74000000D01*
X100500000Y-74000000D02*
X99400000Y-74000000D01*
X99000000Y-74000000D02*
X97900000Y-74000000D01*
X97500000Y-74000000D02*
X96400000Y-74000000D01*
X96000000Y-74000000D02*
X94900000Y-74000000D01*
X94500000Y-74000000D02*
X93400000Y-74000000D01*
X93000000Y-74000000D02*
X91900000Y-74000000D01*
X91500000Y-74000000D02*
X90400000Y-74000000D01*
X90000000Y-74000000D02*
X88900000Y-74000000D01*
X88500000Y-74000000D02*
X87400000Y-74000000D01*
X87000000Y-74000000D02*
X85900000Y-74000000D01*
X85500000Y-74000000D02*
X84400000Y-74000000D01*
X84000000Y-74000000D02*
X82900000Y-74000000D01*
X82500000Y-74000000D02*
X81400000Y-74000000D01*
X81000000Y-74000000D02*
X79900000Y-74000000D01*
X79500000Y-74000000D02*
X78400000Y-74000000D01*
X78000000Y-74000000D02*
X76900000Y-74000000D01*
X76500000Y-74000000D02*
X75400000Y-74000000D01*
X75000000Y-74000000D02*
X73900000Y-74000000D01*
X73500000Y-74000000D02*
X72400000Y-74000000D01*
X72000000Y-74000000D02*
X70900000Y-74000000D01*
X70500000Y-74000000D02*
X69400000Y-74000000D01*
X69000000Y-74000000D02*
X67900000Y-74000000D01*
X67500000Y-74000000D02*
X66400000Y-74000000D01*
X66000000Y-74000000D02*
X64900000Y-74000000D01*
X64500000Y-74000000D02*
X63400000Y-74000000D01*
X63000000Y-74000000D02*
X61900000Y-74000000D01*
X61500000Y-74000000D02*
X60400000Y-74000000D01*
X60000000Y-74000000D02*
X58900000Y-74000000D01*
X58500000Y-74000000D02*
X57500000Y-74000000D01*
X57500000Y-74000000D02*
X57500000Y-72900000D01*
X57500000Y-72500000D02*
X57500000Y-71400000D01*
D11*
X77250000Y-91000000D02*
X77250000Y-88800000D01*
X77250000Y-88000000D02*
X77250000Y-87500000D01*
X77250000Y-87500000D02*
X75050000Y-87500000D01*
X74250000Y-87500000D02*
X72050000Y-87500000D01*
X71750000Y-87500000D02*
X70766130Y-85532260D01*
X70408359Y-84816718D02*
X70000000Y-84000000D01*
X70000000Y-84000000D02*
X70000000Y-81800000D01*
X70000000Y-81000000D02*
X70000000Y-79750000D01*
X70000000Y-79750000D02*
X67800000Y-79750000D01*
X67000000Y-79750000D02*
X65000000Y-79750000D01*
X65000000Y-79750000D02*
X65000000Y-81950000D01*
X65000000Y-82750000D02*
X65000000Y-84500000D01*
X65000000Y-84500000D02*
X65921928Y-86497511D01*
X66257175Y-87223878D02*
X67179103Y-89221389D01*
X67514349Y-89947756D02*
X67999999Y-91000000D01*
X68000000Y-91000000D02*
X70200000Y-91000000D01*
X71000000Y-91000000D02*
X73200000Y-91000000D01*
X74000000Y-91000000D02*
X76200000Y-91000000D01*
X77000000Y-91000000D02*
X77250000Y-91000000D01*
D10*
X90625000Y-89500000D02*
X89375000Y-88000000D01*
X90250000Y-76000000D02*
X89500000Y-76000000D01*
D11*
X97200000Y-72650000D02*
X98200000Y-72650000D01*
D10*
X91125000Y-88000000D02*
X91875000Y-88000000D01*
X90750000Y-74500000D02*
X92000000Y-76000000D01*
X92500000Y-71250000D02*
X92500000Y-74000000D01*
D11*
X91250000Y-94250000D02*
X92250000Y-94250000D01*
D10*
X89500000Y-76000000D02*
X90750000Y-74500000D01*
X68500000Y-74000000D02*
X68500000Y-71250000D01*
D11*
X74200000Y-72750000D02*
X75200000Y-72750000D01*
D10*
X80500000Y-71250000D02*
X80500000Y-74000000D01*
X92000000Y-76000000D02*
X91250000Y-76000000D01*
D11*
X91250000Y-92500000D02*
X92250000Y-92500000D01*
D10*
X91250000Y-77000000D02*
X90250000Y-77000000D01*
X90125000Y-87000000D02*
X91125000Y-87000000D01*
X89375000Y-88000000D02*
X90125000Y-88000000D01*
D11*
X91250000Y-90750000D02*
X92250000Y-90750000D01*
D10*
X58750000Y-75125000D02*
X61000000Y-75125000D01*
X61000000Y-76875000D01*
X58750000Y-76875000D01*
X58750000Y-75125000D01*
X91125000Y-87000000D02*
X91125000Y-88000000D01*
X90125000Y-88000000D02*
X90125000Y-87000000D01*
X91875000Y-88000000D02*
X90625000Y-89500000D01*
D11*
X61950000Y-72750000D02*
X62950000Y-72750000D01*
D10*
X101125000Y-75000000D02*
X103375000Y-75000000D01*
X103375000Y-76750000D01*
X101125000Y-76750000D01*
X101125000Y-75000000D01*
D12*
X81704135Y-76280497D02*
X82046992Y-76280497D01*
X81832706Y-75980497D02*
X81832706Y-76751925D01*
X81832706Y-76751925D02*
X81875563Y-76837640D01*
X81875563Y-76837640D02*
X81961278Y-76880497D01*
X81961278Y-76880497D02*
X82046992Y-76880497D01*
X82346992Y-76880497D02*
X82346992Y-75980497D01*
X82732707Y-76880497D02*
X82732707Y-76409068D01*
X82732707Y-76409068D02*
X82689849Y-76323354D01*
X82689849Y-76323354D02*
X82604135Y-76280497D01*
X82604135Y-76280497D02*
X82475564Y-76280497D01*
X82475564Y-76280497D02*
X82389849Y-76323354D01*
X82389849Y-76323354D02*
X82346992Y-76366211D01*
X83161278Y-76880497D02*
X83161278Y-76280497D01*
X83161278Y-76451925D02*
X83204135Y-76366211D01*
X83204135Y-76366211D02*
X83246993Y-76323354D01*
X83246993Y-76323354D02*
X83332707Y-76280497D01*
X83332707Y-76280497D02*
X83418421Y-76280497D01*
X83846993Y-76880497D02*
X83761278Y-76837640D01*
X83761278Y-76837640D02*
X83718421Y-76794782D01*
X83718421Y-76794782D02*
X83675564Y-76709068D01*
X83675564Y-76709068D02*
X83675564Y-76451925D01*
X83675564Y-76451925D02*
X83718421Y-76366211D01*
X83718421Y-76366211D02*
X83761278Y-76323354D01*
X83761278Y-76323354D02*
X83846993Y-76280497D01*
X83846993Y-76280497D02*
X83975564Y-76280497D01*
X83975564Y-76280497D02*
X84061278Y-76323354D01*
X84061278Y-76323354D02*
X84104136Y-76366211D01*
X84104136Y-76366211D02*
X84146993Y-76451925D01*
X84146993Y-76451925D02*
X84146993Y-76709068D01*
X84146993Y-76709068D02*
X84104136Y-76794782D01*
X84104136Y-76794782D02*
X84061278Y-76837640D01*
X84061278Y-76837640D02*
X83975564Y-76880497D01*
X83975564Y-76880497D02*
X83846993Y-76880497D01*
X84404136Y-76280497D02*
X84746993Y-76280497D01*
X84532707Y-75980497D02*
X84532707Y-76751925D01*
X84532707Y-76751925D02*
X84575564Y-76837640D01*
X84575564Y-76837640D02*
X84661279Y-76880497D01*
X84661279Y-76880497D02*
X84746993Y-76880497D01*
X84918422Y-76280497D02*
X85261279Y-76280497D01*
X85046993Y-75980497D02*
X85046993Y-76751925D01*
X85046993Y-76751925D02*
X85089850Y-76837640D01*
X85089850Y-76837640D02*
X85175565Y-76880497D01*
X85175565Y-76880497D02*
X85261279Y-76880497D01*
X85689851Y-76880497D02*
X85604136Y-76837640D01*
X85604136Y-76837640D02*
X85561279Y-76751925D01*
X85561279Y-76751925D02*
X85561279Y-75980497D01*
X86375565Y-76837640D02*
X86289851Y-76880497D01*
X86289851Y-76880497D02*
X86118423Y-76880497D01*
X86118423Y-76880497D02*
X86032708Y-76837640D01*
X86032708Y-76837640D02*
X85989851Y-76751925D01*
X85989851Y-76751925D02*
X85989851Y-76409068D01*
X85989851Y-76409068D02*
X86032708Y-76323354D01*
X86032708Y-76323354D02*
X86118423Y-76280497D01*
X86118423Y-76280497D02*
X86289851Y-76280497D01*
X86289851Y-76280497D02*
X86375565Y-76323354D01*
X86375565Y-76323354D02*
X86418423Y-76409068D01*
X86418423Y-76409068D02*
X86418423Y-76494782D01*
X86418423Y-76494782D02*
X85989851Y-76580497D01*
X99054135Y-86370497D02*
X99225563Y-86370497D01*
X99225563Y-86370497D02*
X99311278Y-86413354D01*
X99311278Y-86413354D02*
X99396992Y-86499068D01*
X99396992Y-86499068D02*
X99439849Y-86670497D01*
X99439849Y-86670497D02*
X99439849Y-86970497D01*
X99439849Y-86970497D02*
X99396992Y-87141925D01*
X99396992Y-87141925D02*
X99311278Y-87227640D01*
X99311278Y-87227640D02*
X99225563Y-87270497D01*
X99225563Y-87270497D02*
X99054135Y-87270497D01*
X99054135Y-87270497D02*
X98968421Y-87227640D01*
X98968421Y-87227640D02*
X98882706Y-87141925D01*
X98882706Y-87141925D02*
X98839849Y-86970497D01*
X98839849Y-86970497D02*
X98839849Y-86670497D01*
X98839849Y-86670497D02*
X98882706Y-86499068D01*
X98882706Y-86499068D02*
X98968421Y-86413354D01*
X98968421Y-86413354D02*
X99054135Y-86370497D01*
X99825563Y-87270497D02*
X99825563Y-86370497D01*
X99825563Y-86370497D02*
X100339849Y-87270497D01*
X100339849Y-87270497D02*
X100339849Y-86370497D01*
D13*
X88900751Y-92783520D02*
X88786465Y-92840662D01*
X88786465Y-92840662D02*
X88557894Y-92840662D01*
X88557894Y-92840662D02*
X88443608Y-92783520D01*
X88443608Y-92783520D02*
X88386465Y-92669234D01*
X88386465Y-92669234D02*
X88386465Y-92212091D01*
X88386465Y-92212091D02*
X88443608Y-92097805D01*
X88443608Y-92097805D02*
X88557894Y-92040662D01*
X88557894Y-92040662D02*
X88786465Y-92040662D01*
X88786465Y-92040662D02*
X88900751Y-92097805D01*
X88900751Y-92097805D02*
X88957894Y-92212091D01*
X88957894Y-92212091D02*
X88957894Y-92326377D01*
X88957894Y-92326377D02*
X88386465Y-92440662D01*
X89357893Y-92840662D02*
X89986465Y-92040662D01*
X89357893Y-92040662D02*
X89986465Y-92840662D01*
X90386465Y-91754948D02*
X90443608Y-91697805D01*
X90443608Y-91697805D02*
X90557894Y-91640662D01*
X90557894Y-91640662D02*
X90843608Y-91640662D01*
X90843608Y-91640662D02*
X90957894Y-91697805D01*
X90957894Y-91697805D02*
X91015036Y-91754948D01*
X91015036Y-91754948D02*
X91072179Y-91869234D01*
X91072179Y-91869234D02*
X91072179Y-91983520D01*
X91072179Y-91983520D02*
X91015036Y-92154948D01*
X91015036Y-92154948D02*
X90329322Y-92840662D01*
X90329322Y-92840662D02*
X91072179Y-92840662D01*
X69336465Y-73033520D02*
X69450751Y-73090662D01*
X69450751Y-73090662D02*
X69679322Y-73090662D01*
X69679322Y-73090662D02*
X69793608Y-73033520D01*
X69793608Y-73033520D02*
X69850751Y-72919234D01*
X69850751Y-72919234D02*
X69850751Y-72862091D01*
X69850751Y-72862091D02*
X69793608Y-72747805D01*
X69793608Y-72747805D02*
X69679322Y-72690662D01*
X69679322Y-72690662D02*
X69507894Y-72690662D01*
X69507894Y-72690662D02*
X69393608Y-72633520D01*
X69393608Y-72633520D02*
X69336465Y-72519234D01*
X69336465Y-72519234D02*
X69336465Y-72462091D01*
X69336465Y-72462091D02*
X69393608Y-72347805D01*
X69393608Y-72347805D02*
X69507894Y-72290662D01*
X69507894Y-72290662D02*
X69679322Y-72290662D01*
X69679322Y-72290662D02*
X69793608Y-72347805D01*
X70079323Y-73204948D02*
X70993608Y-73204948D01*
X71450751Y-73090662D02*
X71336466Y-73033520D01*
X71336466Y-73033520D02*
X71279323Y-72976377D01*
X71279323Y-72976377D02*
X71222180Y-72862091D01*
X71222180Y-72862091D02*
X71222180Y-72519234D01*
X71222180Y-72519234D02*
X71279323Y-72404948D01*
X71279323Y-72404948D02*
X71336466Y-72347805D01*
X71336466Y-72347805D02*
X71450751Y-72290662D01*
X71450751Y-72290662D02*
X71622180Y-72290662D01*
X71622180Y-72290662D02*
X71736466Y-72347805D01*
X71736466Y-72347805D02*
X71793609Y-72404948D01*
X71793609Y-72404948D02*
X71850751Y-72519234D01*
X71850751Y-72519234D02*
X71850751Y-72862091D01*
X71850751Y-72862091D02*
X71793609Y-72976377D01*
X71793609Y-72976377D02*
X71736466Y-73033520D01*
X71736466Y-73033520D02*
X71622180Y-73090662D01*
X71622180Y-73090662D02*
X71450751Y-73090662D01*
X72879323Y-72290662D02*
X72879323Y-73090662D01*
X72365037Y-72290662D02*
X72365037Y-72919234D01*
X72365037Y-72919234D02*
X72422180Y-73033520D01*
X72422180Y-73033520D02*
X72536465Y-73090662D01*
X72536465Y-73090662D02*
X72707894Y-73090662D01*
X72707894Y-73090662D02*
X72822180Y-73033520D01*
X72822180Y-73033520D02*
X72879323Y-72976377D01*
X73279322Y-72290662D02*
X73736465Y-72290662D01*
X73450751Y-71890662D02*
X73450751Y-72919234D01*
X73450751Y-72919234D02*
X73507894Y-73033520D01*
X73507894Y-73033520D02*
X73622179Y-73090662D01*
X73622179Y-73090662D02*
X73736465Y-73090662D01*
X88950751Y-91083520D02*
X88836465Y-91140662D01*
X88836465Y-91140662D02*
X88607894Y-91140662D01*
X88607894Y-91140662D02*
X88493608Y-91083520D01*
X88493608Y-91083520D02*
X88436465Y-90969234D01*
X88436465Y-90969234D02*
X88436465Y-90512091D01*
X88436465Y-90512091D02*
X88493608Y-90397805D01*
X88493608Y-90397805D02*
X88607894Y-90340662D01*
X88607894Y-90340662D02*
X88836465Y-90340662D01*
X88836465Y-90340662D02*
X88950751Y-90397805D01*
X88950751Y-90397805D02*
X89007894Y-90512091D01*
X89007894Y-90512091D02*
X89007894Y-90626377D01*
X89007894Y-90626377D02*
X88436465Y-90740662D01*
X89407893Y-91140662D02*
X90036465Y-90340662D01*
X89407893Y-90340662D02*
X90036465Y-91140662D01*
X91122179Y-91140662D02*
X90436465Y-91140662D01*
X90779322Y-91140662D02*
X90779322Y-89940662D01*
X90779322Y-89940662D02*
X90665036Y-90112091D01*
X90665036Y-90112091D02*
X90550751Y-90226377D01*
X90550751Y-90226377D02*
X90436465Y-90283520D01*
D12*
X101707706Y-76380497D02*
X101707706Y-75480497D01*
X101707706Y-75480497D02*
X102050563Y-75480497D01*
X102050563Y-75480497D02*
X102136278Y-75523354D01*
X102136278Y-75523354D02*
X102179135Y-75566211D01*
X102179135Y-75566211D02*
X102221992Y-75651925D01*
X102221992Y-75651925D02*
X102221992Y-75780497D01*
X102221992Y-75780497D02*
X102179135Y-75866211D01*
X102179135Y-75866211D02*
X102136278Y-75909068D01*
X102136278Y-75909068D02*
X102050563Y-75951925D01*
X102050563Y-75951925D02*
X101707706Y-75951925D01*
X102564849Y-75566211D02*
X102607706Y-75523354D01*
X102607706Y-75523354D02*
X102693421Y-75480497D01*
X102693421Y-75480497D02*
X102907706Y-75480497D01*
X102907706Y-75480497D02*
X102993421Y-75523354D01*
X102993421Y-75523354D02*
X103036278Y-75566211D01*
X103036278Y-75566211D02*
X103079135Y-75651925D01*
X103079135Y-75651925D02*
X103079135Y-75737640D01*
X103079135Y-75737640D02*
X103036278Y-75866211D01*
X103036278Y-75866211D02*
X102521992Y-76380497D01*
X102521992Y-76380497D02*
X103079135Y-76380497D01*
X89539849Y-79587640D02*
X89625563Y-79630497D01*
X89625563Y-79630497D02*
X89796992Y-79630497D01*
X89796992Y-79630497D02*
X89882706Y-79587640D01*
X89882706Y-79587640D02*
X89925563Y-79501925D01*
X89925563Y-79501925D02*
X89925563Y-79459068D01*
X89925563Y-79459068D02*
X89882706Y-79373354D01*
X89882706Y-79373354D02*
X89796992Y-79330497D01*
X89796992Y-79330497D02*
X89668421Y-79330497D01*
X89668421Y-79330497D02*
X89582706Y-79287640D01*
X89582706Y-79287640D02*
X89539849Y-79201925D01*
X89539849Y-79201925D02*
X89539849Y-79159068D01*
X89539849Y-79159068D02*
X89582706Y-79073354D01*
X89582706Y-79073354D02*
X89668421Y-79030497D01*
X89668421Y-79030497D02*
X89796992Y-79030497D01*
X89796992Y-79030497D02*
X89882706Y-79073354D01*
X90096992Y-79716211D02*
X90782706Y-79716211D01*
X90996991Y-79630497D02*
X90996991Y-79030497D01*
X90996991Y-78730497D02*
X90954134Y-78773354D01*
X90954134Y-78773354D02*
X90996991Y-78816211D01*
X90996991Y-78816211D02*
X91039848Y-78773354D01*
X91039848Y-78773354D02*
X90996991Y-78730497D01*
X90996991Y-78730497D02*
X90996991Y-78816211D01*
X91425562Y-79030497D02*
X91425562Y-79630497D01*
X91425562Y-79116211D02*
X91468419Y-79073354D01*
X91468419Y-79073354D02*
X91554134Y-79030497D01*
X91554134Y-79030497D02*
X91682705Y-79030497D01*
X91682705Y-79030497D02*
X91768419Y-79073354D01*
X91768419Y-79073354D02*
X91811277Y-79159068D01*
X91811277Y-79159068D02*
X91811277Y-79630497D01*
D13*
X76157894Y-72290662D02*
X76157894Y-73262091D01*
X76157894Y-73262091D02*
X76100751Y-73376377D01*
X76100751Y-73376377D02*
X76043608Y-73433520D01*
X76043608Y-73433520D02*
X75929322Y-73490662D01*
X75929322Y-73490662D02*
X75757894Y-73490662D01*
X75757894Y-73490662D02*
X75643608Y-73433520D01*
X76157894Y-73033520D02*
X76043608Y-73090662D01*
X76043608Y-73090662D02*
X75815036Y-73090662D01*
X75815036Y-73090662D02*
X75700751Y-73033520D01*
X75700751Y-73033520D02*
X75643608Y-72976377D01*
X75643608Y-72976377D02*
X75586465Y-72862091D01*
X75586465Y-72862091D02*
X75586465Y-72519234D01*
X75586465Y-72519234D02*
X75643608Y-72404948D01*
X75643608Y-72404948D02*
X75700751Y-72347805D01*
X75700751Y-72347805D02*
X75815036Y-72290662D01*
X75815036Y-72290662D02*
X76043608Y-72290662D01*
X76043608Y-72290662D02*
X76157894Y-72347805D01*
X76729322Y-72290662D02*
X76729322Y-73490662D01*
X76729322Y-72347805D02*
X76843608Y-72290662D01*
X76843608Y-72290662D02*
X77072179Y-72290662D01*
X77072179Y-72290662D02*
X77186465Y-72347805D01*
X77186465Y-72347805D02*
X77243608Y-72404948D01*
X77243608Y-72404948D02*
X77300750Y-72519234D01*
X77300750Y-72519234D02*
X77300750Y-72862091D01*
X77300750Y-72862091D02*
X77243608Y-72976377D01*
X77243608Y-72976377D02*
X77186465Y-73033520D01*
X77186465Y-73033520D02*
X77072179Y-73090662D01*
X77072179Y-73090662D02*
X76843608Y-73090662D01*
X76843608Y-73090662D02*
X76729322Y-73033520D01*
X77815036Y-73090662D02*
X77815036Y-72290662D01*
X77815036Y-71890662D02*
X77757893Y-71947805D01*
X77757893Y-71947805D02*
X77815036Y-72004948D01*
X77815036Y-72004948D02*
X77872179Y-71947805D01*
X77872179Y-71947805D02*
X77815036Y-71890662D01*
X77815036Y-71890662D02*
X77815036Y-72004948D01*
X78557893Y-73090662D02*
X78443608Y-73033520D01*
X78443608Y-73033520D02*
X78386465Y-72976377D01*
X78386465Y-72976377D02*
X78329322Y-72862091D01*
X78329322Y-72862091D02*
X78329322Y-72519234D01*
X78329322Y-72519234D02*
X78386465Y-72404948D01*
X78386465Y-72404948D02*
X78443608Y-72347805D01*
X78443608Y-72347805D02*
X78557893Y-72290662D01*
X78557893Y-72290662D02*
X78729322Y-72290662D01*
X78729322Y-72290662D02*
X78843608Y-72347805D01*
X78843608Y-72347805D02*
X78900751Y-72404948D01*
X78900751Y-72404948D02*
X78957893Y-72519234D01*
X78957893Y-72519234D02*
X78957893Y-72862091D01*
X78957893Y-72862091D02*
X78900751Y-72976377D01*
X78900751Y-72976377D02*
X78843608Y-73033520D01*
X78843608Y-73033520D02*
X78729322Y-73090662D01*
X78729322Y-73090662D02*
X78557893Y-73090662D01*
X79415036Y-72004948D02*
X79472179Y-71947805D01*
X79472179Y-71947805D02*
X79586465Y-71890662D01*
X79586465Y-71890662D02*
X79872179Y-71890662D01*
X79872179Y-71890662D02*
X79986465Y-71947805D01*
X79986465Y-71947805D02*
X80043607Y-72004948D01*
X80043607Y-72004948D02*
X80100750Y-72119234D01*
X80100750Y-72119234D02*
X80100750Y-72233520D01*
X80100750Y-72233520D02*
X80043607Y-72404948D01*
X80043607Y-72404948D02*
X79357893Y-73090662D01*
X79357893Y-73090662D02*
X80100750Y-73090662D01*
D12*
X62464135Y-76470497D02*
X62635563Y-76470497D01*
X62635563Y-76470497D02*
X62721278Y-76513354D01*
X62721278Y-76513354D02*
X62806992Y-76599068D01*
X62806992Y-76599068D02*
X62849849Y-76770497D01*
X62849849Y-76770497D02*
X62849849Y-77070497D01*
X62849849Y-77070497D02*
X62806992Y-77241925D01*
X62806992Y-77241925D02*
X62721278Y-77327640D01*
X62721278Y-77327640D02*
X62635563Y-77370497D01*
X62635563Y-77370497D02*
X62464135Y-77370497D01*
X62464135Y-77370497D02*
X62378421Y-77327640D01*
X62378421Y-77327640D02*
X62292706Y-77241925D01*
X62292706Y-77241925D02*
X62249849Y-77070497D01*
X62249849Y-77070497D02*
X62249849Y-76770497D01*
X62249849Y-76770497D02*
X62292706Y-76599068D01*
X62292706Y-76599068D02*
X62378421Y-76513354D01*
X62378421Y-76513354D02*
X62464135Y-76470497D01*
X63535563Y-76899068D02*
X63235563Y-76899068D01*
X63235563Y-77370497D02*
X63235563Y-76470497D01*
X63235563Y-76470497D02*
X63664135Y-76470497D01*
X64306992Y-76899068D02*
X64006992Y-76899068D01*
X64006992Y-77370497D02*
X64006992Y-76470497D01*
X64006992Y-76470497D02*
X64435564Y-76470497D01*
X92207706Y-87880497D02*
X92207706Y-87280497D01*
X92207706Y-87451925D02*
X92250563Y-87366211D01*
X92250563Y-87366211D02*
X92293421Y-87323354D01*
X92293421Y-87323354D02*
X92379135Y-87280497D01*
X92379135Y-87280497D02*
X92464849Y-87280497D01*
X92893421Y-87880497D02*
X92807706Y-87837640D01*
X92807706Y-87837640D02*
X92764849Y-87794782D01*
X92764849Y-87794782D02*
X92721992Y-87709068D01*
X92721992Y-87709068D02*
X92721992Y-87451925D01*
X92721992Y-87451925D02*
X92764849Y-87366211D01*
X92764849Y-87366211D02*
X92807706Y-87323354D01*
X92807706Y-87323354D02*
X92893421Y-87280497D01*
X92893421Y-87280497D02*
X93021992Y-87280497D01*
X93021992Y-87280497D02*
X93107706Y-87323354D01*
X93107706Y-87323354D02*
X93150564Y-87366211D01*
X93150564Y-87366211D02*
X93193421Y-87451925D01*
X93193421Y-87451925D02*
X93193421Y-87709068D01*
X93193421Y-87709068D02*
X93150564Y-87794782D01*
X93150564Y-87794782D02*
X93107706Y-87837640D01*
X93107706Y-87837640D02*
X93021992Y-87880497D01*
X93021992Y-87880497D02*
X92893421Y-87880497D01*
X93579135Y-87880497D02*
X93579135Y-86980497D01*
X93579135Y-87323354D02*
X93664850Y-87280497D01*
X93664850Y-87280497D02*
X93836278Y-87280497D01*
X93836278Y-87280497D02*
X93921992Y-87323354D01*
X93921992Y-87323354D02*
X93964850Y-87366211D01*
X93964850Y-87366211D02*
X94007707Y-87451925D01*
X94007707Y-87451925D02*
X94007707Y-87709068D01*
X94007707Y-87709068D02*
X93964850Y-87794782D01*
X93964850Y-87794782D02*
X93921992Y-87837640D01*
X93921992Y-87837640D02*
X93836278Y-87880497D01*
X93836278Y-87880497D02*
X93664850Y-87880497D01*
X93664850Y-87880497D02*
X93579135Y-87837640D01*
X94521993Y-87880497D02*
X94436278Y-87837640D01*
X94436278Y-87837640D02*
X94393421Y-87794782D01*
X94393421Y-87794782D02*
X94350564Y-87709068D01*
X94350564Y-87709068D02*
X94350564Y-87451925D01*
X94350564Y-87451925D02*
X94393421Y-87366211D01*
X94393421Y-87366211D02*
X94436278Y-87323354D01*
X94436278Y-87323354D02*
X94521993Y-87280497D01*
X94521993Y-87280497D02*
X94650564Y-87280497D01*
X94650564Y-87280497D02*
X94736278Y-87323354D01*
X94736278Y-87323354D02*
X94779136Y-87366211D01*
X94779136Y-87366211D02*
X94821993Y-87451925D01*
X94821993Y-87451925D02*
X94821993Y-87709068D01*
X94821993Y-87709068D02*
X94779136Y-87794782D01*
X94779136Y-87794782D02*
X94736278Y-87837640D01*
X94736278Y-87837640D02*
X94650564Y-87880497D01*
X94650564Y-87880497D02*
X94521993Y-87880497D01*
X95079136Y-87280497D02*
X95421993Y-87280497D01*
X95207707Y-86980497D02*
X95207707Y-87751925D01*
X95207707Y-87751925D02*
X95250564Y-87837640D01*
X95250564Y-87837640D02*
X95336279Y-87880497D01*
X95336279Y-87880497D02*
X95421993Y-87880497D01*
X95721993Y-87880497D02*
X95721993Y-87280497D01*
X95721993Y-86980497D02*
X95679136Y-87023354D01*
X95679136Y-87023354D02*
X95721993Y-87066211D01*
X95721993Y-87066211D02*
X95764850Y-87023354D01*
X95764850Y-87023354D02*
X95721993Y-86980497D01*
X95721993Y-86980497D02*
X95721993Y-87066211D01*
X96536279Y-87837640D02*
X96450564Y-87880497D01*
X96450564Y-87880497D02*
X96279136Y-87880497D01*
X96279136Y-87880497D02*
X96193421Y-87837640D01*
X96193421Y-87837640D02*
X96150564Y-87794782D01*
X96150564Y-87794782D02*
X96107707Y-87709068D01*
X96107707Y-87709068D02*
X96107707Y-87451925D01*
X96107707Y-87451925D02*
X96150564Y-87366211D01*
X96150564Y-87366211D02*
X96193421Y-87323354D01*
X96193421Y-87323354D02*
X96279136Y-87280497D01*
X96279136Y-87280497D02*
X96450564Y-87280497D01*
X96450564Y-87280497D02*
X96536279Y-87323354D01*
D13*
X99157894Y-72190662D02*
X99157894Y-73162091D01*
X99157894Y-73162091D02*
X99100751Y-73276377D01*
X99100751Y-73276377D02*
X99043608Y-73333520D01*
X99043608Y-73333520D02*
X98929322Y-73390662D01*
X98929322Y-73390662D02*
X98757894Y-73390662D01*
X98757894Y-73390662D02*
X98643608Y-73333520D01*
X99157894Y-72933520D02*
X99043608Y-72990662D01*
X99043608Y-72990662D02*
X98815036Y-72990662D01*
X98815036Y-72990662D02*
X98700751Y-72933520D01*
X98700751Y-72933520D02*
X98643608Y-72876377D01*
X98643608Y-72876377D02*
X98586465Y-72762091D01*
X98586465Y-72762091D02*
X98586465Y-72419234D01*
X98586465Y-72419234D02*
X98643608Y-72304948D01*
X98643608Y-72304948D02*
X98700751Y-72247805D01*
X98700751Y-72247805D02*
X98815036Y-72190662D01*
X98815036Y-72190662D02*
X99043608Y-72190662D01*
X99043608Y-72190662D02*
X99157894Y-72247805D01*
X99729322Y-72190662D02*
X99729322Y-73390662D01*
X99729322Y-72247805D02*
X99843608Y-72190662D01*
X99843608Y-72190662D02*
X100072179Y-72190662D01*
X100072179Y-72190662D02*
X100186465Y-72247805D01*
X100186465Y-72247805D02*
X100243608Y-72304948D01*
X100243608Y-72304948D02*
X100300750Y-72419234D01*
X100300750Y-72419234D02*
X100300750Y-72762091D01*
X100300750Y-72762091D02*
X100243608Y-72876377D01*
X100243608Y-72876377D02*
X100186465Y-72933520D01*
X100186465Y-72933520D02*
X100072179Y-72990662D01*
X100072179Y-72990662D02*
X99843608Y-72990662D01*
X99843608Y-72990662D02*
X99729322Y-72933520D01*
X100815036Y-72990662D02*
X100815036Y-72190662D01*
X100815036Y-71790662D02*
X100757893Y-71847805D01*
X100757893Y-71847805D02*
X100815036Y-71904948D01*
X100815036Y-71904948D02*
X100872179Y-71847805D01*
X100872179Y-71847805D02*
X100815036Y-71790662D01*
X100815036Y-71790662D02*
X100815036Y-71904948D01*
X101557893Y-72990662D02*
X101443608Y-72933520D01*
X101443608Y-72933520D02*
X101386465Y-72876377D01*
X101386465Y-72876377D02*
X101329322Y-72762091D01*
X101329322Y-72762091D02*
X101329322Y-72419234D01*
X101329322Y-72419234D02*
X101386465Y-72304948D01*
X101386465Y-72304948D02*
X101443608Y-72247805D01*
X101443608Y-72247805D02*
X101557893Y-72190662D01*
X101557893Y-72190662D02*
X101729322Y-72190662D01*
X101729322Y-72190662D02*
X101843608Y-72247805D01*
X101843608Y-72247805D02*
X101900751Y-72304948D01*
X101900751Y-72304948D02*
X101957893Y-72419234D01*
X101957893Y-72419234D02*
X101957893Y-72762091D01*
X101957893Y-72762091D02*
X101900751Y-72876377D01*
X101900751Y-72876377D02*
X101843608Y-72933520D01*
X101843608Y-72933520D02*
X101729322Y-72990662D01*
X101729322Y-72990662D02*
X101557893Y-72990662D01*
X103100750Y-72990662D02*
X102415036Y-72990662D01*
X102757893Y-72990662D02*
X102757893Y-71790662D01*
X102757893Y-71790662D02*
X102643607Y-71962091D01*
X102643607Y-71962091D02*
X102529322Y-72076377D01*
X102529322Y-72076377D02*
X102415036Y-72133520D01*
X104129322Y-72190662D02*
X104129322Y-72990662D01*
X103843607Y-71733520D02*
X103557893Y-72590662D01*
X103557893Y-72590662D02*
X104300750Y-72590662D01*
D12*
X67832706Y-88880497D02*
X67832706Y-87980497D01*
X67832706Y-87980497D02*
X68175563Y-87980497D01*
X68175563Y-87980497D02*
X68261278Y-88023354D01*
X68261278Y-88023354D02*
X68304135Y-88066211D01*
X68304135Y-88066211D02*
X68346992Y-88151925D01*
X68346992Y-88151925D02*
X68346992Y-88280497D01*
X68346992Y-88280497D02*
X68304135Y-88366211D01*
X68304135Y-88366211D02*
X68261278Y-88409068D01*
X68261278Y-88409068D02*
X68175563Y-88451925D01*
X68175563Y-88451925D02*
X67832706Y-88451925D01*
X68904135Y-87980497D02*
X69075563Y-87980497D01*
X69075563Y-87980497D02*
X69161278Y-88023354D01*
X69161278Y-88023354D02*
X69246992Y-88109068D01*
X69246992Y-88109068D02*
X69289849Y-88280497D01*
X69289849Y-88280497D02*
X69289849Y-88580497D01*
X69289849Y-88580497D02*
X69246992Y-88751925D01*
X69246992Y-88751925D02*
X69161278Y-88837640D01*
X69161278Y-88837640D02*
X69075563Y-88880497D01*
X69075563Y-88880497D02*
X68904135Y-88880497D01*
X68904135Y-88880497D02*
X68818421Y-88837640D01*
X68818421Y-88837640D02*
X68732706Y-88751925D01*
X68732706Y-88751925D02*
X68689849Y-88580497D01*
X68689849Y-88580497D02*
X68689849Y-88280497D01*
X68689849Y-88280497D02*
X68732706Y-88109068D01*
X68732706Y-88109068D02*
X68818421Y-88023354D01*
X68818421Y-88023354D02*
X68904135Y-87980497D01*
X69589849Y-87980497D02*
X69804135Y-88880497D01*
X69804135Y-88880497D02*
X69975563Y-88237640D01*
X69975563Y-88237640D02*
X70146992Y-88880497D01*
X70146992Y-88880497D02*
X70361278Y-87980497D01*
X70704134Y-88409068D02*
X71004134Y-88409068D01*
X71132706Y-88880497D02*
X70704134Y-88880497D01*
X70704134Y-88880497D02*
X70704134Y-87980497D01*
X70704134Y-87980497D02*
X71132706Y-87980497D01*
X72032706Y-88880497D02*
X71732706Y-88451925D01*
X71518420Y-88880497D02*
X71518420Y-87980497D01*
X71518420Y-87980497D02*
X71861277Y-87980497D01*
X71861277Y-87980497D02*
X71946992Y-88023354D01*
X71946992Y-88023354D02*
X71989849Y-88066211D01*
X71989849Y-88066211D02*
X72032706Y-88151925D01*
X72032706Y-88151925D02*
X72032706Y-88280497D01*
X72032706Y-88280497D02*
X71989849Y-88366211D01*
X71989849Y-88366211D02*
X71946992Y-88409068D01*
X71946992Y-88409068D02*
X71861277Y-88451925D01*
X71861277Y-88451925D02*
X71518420Y-88451925D01*
D13*
X63907894Y-72290662D02*
X63907894Y-73262091D01*
X63907894Y-73262091D02*
X63850751Y-73376377D01*
X63850751Y-73376377D02*
X63793608Y-73433520D01*
X63793608Y-73433520D02*
X63679322Y-73490662D01*
X63679322Y-73490662D02*
X63507894Y-73490662D01*
X63507894Y-73490662D02*
X63393608Y-73433520D01*
X63907894Y-73033520D02*
X63793608Y-73090662D01*
X63793608Y-73090662D02*
X63565036Y-73090662D01*
X63565036Y-73090662D02*
X63450751Y-73033520D01*
X63450751Y-73033520D02*
X63393608Y-72976377D01*
X63393608Y-72976377D02*
X63336465Y-72862091D01*
X63336465Y-72862091D02*
X63336465Y-72519234D01*
X63336465Y-72519234D02*
X63393608Y-72404948D01*
X63393608Y-72404948D02*
X63450751Y-72347805D01*
X63450751Y-72347805D02*
X63565036Y-72290662D01*
X63565036Y-72290662D02*
X63793608Y-72290662D01*
X63793608Y-72290662D02*
X63907894Y-72347805D01*
X64479322Y-72290662D02*
X64479322Y-73490662D01*
X64479322Y-72347805D02*
X64593608Y-72290662D01*
X64593608Y-72290662D02*
X64822179Y-72290662D01*
X64822179Y-72290662D02*
X64936465Y-72347805D01*
X64936465Y-72347805D02*
X64993608Y-72404948D01*
X64993608Y-72404948D02*
X65050750Y-72519234D01*
X65050750Y-72519234D02*
X65050750Y-72862091D01*
X65050750Y-72862091D02*
X64993608Y-72976377D01*
X64993608Y-72976377D02*
X64936465Y-73033520D01*
X64936465Y-73033520D02*
X64822179Y-73090662D01*
X64822179Y-73090662D02*
X64593608Y-73090662D01*
X64593608Y-73090662D02*
X64479322Y-73033520D01*
X65565036Y-73090662D02*
X65565036Y-72290662D01*
X65565036Y-71890662D02*
X65507893Y-71947805D01*
X65507893Y-71947805D02*
X65565036Y-72004948D01*
X65565036Y-72004948D02*
X65622179Y-71947805D01*
X65622179Y-71947805D02*
X65565036Y-71890662D01*
X65565036Y-71890662D02*
X65565036Y-72004948D01*
X66307893Y-73090662D02*
X66193608Y-73033520D01*
X66193608Y-73033520D02*
X66136465Y-72976377D01*
X66136465Y-72976377D02*
X66079322Y-72862091D01*
X66079322Y-72862091D02*
X66079322Y-72519234D01*
X66079322Y-72519234D02*
X66136465Y-72404948D01*
X66136465Y-72404948D02*
X66193608Y-72347805D01*
X66193608Y-72347805D02*
X66307893Y-72290662D01*
X66307893Y-72290662D02*
X66479322Y-72290662D01*
X66479322Y-72290662D02*
X66593608Y-72347805D01*
X66593608Y-72347805D02*
X66650751Y-72404948D01*
X66650751Y-72404948D02*
X66707893Y-72519234D01*
X66707893Y-72519234D02*
X66707893Y-72862091D01*
X66707893Y-72862091D02*
X66650751Y-72976377D01*
X66650751Y-72976377D02*
X66593608Y-73033520D01*
X66593608Y-73033520D02*
X66479322Y-73090662D01*
X66479322Y-73090662D02*
X66307893Y-73090662D01*
X67107893Y-71890662D02*
X67850750Y-71890662D01*
X67850750Y-71890662D02*
X67450750Y-72347805D01*
X67450750Y-72347805D02*
X67622179Y-72347805D01*
X67622179Y-72347805D02*
X67736465Y-72404948D01*
X67736465Y-72404948D02*
X67793607Y-72462091D01*
X67793607Y-72462091D02*
X67850750Y-72576377D01*
X67850750Y-72576377D02*
X67850750Y-72862091D01*
X67850750Y-72862091D02*
X67793607Y-72976377D01*
X67793607Y-72976377D02*
X67736465Y-73033520D01*
X67736465Y-73033520D02*
X67622179Y-73090662D01*
X67622179Y-73090662D02*
X67279322Y-73090662D01*
X67279322Y-73090662D02*
X67165036Y-73033520D01*
X67165036Y-73033520D02*
X67107893Y-72976377D01*
D12*
X92332706Y-75880497D02*
X92332706Y-75280497D01*
X92332706Y-75366211D02*
X92375563Y-75323354D01*
X92375563Y-75323354D02*
X92461278Y-75280497D01*
X92461278Y-75280497D02*
X92589849Y-75280497D01*
X92589849Y-75280497D02*
X92675563Y-75323354D01*
X92675563Y-75323354D02*
X92718421Y-75409068D01*
X92718421Y-75409068D02*
X92718421Y-75880497D01*
X92718421Y-75409068D02*
X92761278Y-75323354D01*
X92761278Y-75323354D02*
X92846992Y-75280497D01*
X92846992Y-75280497D02*
X92975563Y-75280497D01*
X92975563Y-75280497D02*
X93061278Y-75323354D01*
X93061278Y-75323354D02*
X93104135Y-75409068D01*
X93104135Y-75409068D02*
X93104135Y-75880497D01*
X93918421Y-75880497D02*
X93918421Y-75409068D01*
X93918421Y-75409068D02*
X93875563Y-75323354D01*
X93875563Y-75323354D02*
X93789849Y-75280497D01*
X93789849Y-75280497D02*
X93618421Y-75280497D01*
X93618421Y-75280497D02*
X93532706Y-75323354D01*
X93918421Y-75837640D02*
X93832706Y-75880497D01*
X93832706Y-75880497D02*
X93618421Y-75880497D01*
X93618421Y-75880497D02*
X93532706Y-75837640D01*
X93532706Y-75837640D02*
X93489849Y-75751925D01*
X93489849Y-75751925D02*
X93489849Y-75666211D01*
X93489849Y-75666211D02*
X93532706Y-75580497D01*
X93532706Y-75580497D02*
X93618421Y-75537640D01*
X93618421Y-75537640D02*
X93832706Y-75537640D01*
X93832706Y-75537640D02*
X93918421Y-75494782D01*
X94346992Y-75280497D02*
X94346992Y-75880497D01*
X94346992Y-75366211D02*
X94389849Y-75323354D01*
X94389849Y-75323354D02*
X94475564Y-75280497D01*
X94475564Y-75280497D02*
X94604135Y-75280497D01*
X94604135Y-75280497D02*
X94689849Y-75323354D01*
X94689849Y-75323354D02*
X94732707Y-75409068D01*
X94732707Y-75409068D02*
X94732707Y-75880497D01*
X95546993Y-75280497D02*
X95546993Y-75880497D01*
X95161278Y-75280497D02*
X95161278Y-75751925D01*
X95161278Y-75751925D02*
X95204135Y-75837640D01*
X95204135Y-75837640D02*
X95289850Y-75880497D01*
X95289850Y-75880497D02*
X95418421Y-75880497D01*
X95418421Y-75880497D02*
X95504135Y-75837640D01*
X95504135Y-75837640D02*
X95546993Y-75794782D01*
X96361279Y-75880497D02*
X96361279Y-75409068D01*
X96361279Y-75409068D02*
X96318421Y-75323354D01*
X96318421Y-75323354D02*
X96232707Y-75280497D01*
X96232707Y-75280497D02*
X96061279Y-75280497D01*
X96061279Y-75280497D02*
X95975564Y-75323354D01*
X96361279Y-75837640D02*
X96275564Y-75880497D01*
X96275564Y-75880497D02*
X96061279Y-75880497D01*
X96061279Y-75880497D02*
X95975564Y-75837640D01*
X95975564Y-75837640D02*
X95932707Y-75751925D01*
X95932707Y-75751925D02*
X95932707Y-75666211D01*
X95932707Y-75666211D02*
X95975564Y-75580497D01*
X95975564Y-75580497D02*
X96061279Y-75537640D01*
X96061279Y-75537640D02*
X96275564Y-75537640D01*
X96275564Y-75537640D02*
X96361279Y-75494782D01*
X96918422Y-75880497D02*
X96832707Y-75837640D01*
X96832707Y-75837640D02*
X96789850Y-75751925D01*
X96789850Y-75751925D02*
X96789850Y-74980497D01*
D13*
X58336465Y-73033520D02*
X58450751Y-73090662D01*
X58450751Y-73090662D02*
X58679322Y-73090662D01*
X58679322Y-73090662D02*
X58793608Y-73033520D01*
X58793608Y-73033520D02*
X58850751Y-72919234D01*
X58850751Y-72919234D02*
X58850751Y-72862091D01*
X58850751Y-72862091D02*
X58793608Y-72747805D01*
X58793608Y-72747805D02*
X58679322Y-72690662D01*
X58679322Y-72690662D02*
X58507894Y-72690662D01*
X58507894Y-72690662D02*
X58393608Y-72633520D01*
X58393608Y-72633520D02*
X58336465Y-72519234D01*
X58336465Y-72519234D02*
X58336465Y-72462091D01*
X58336465Y-72462091D02*
X58393608Y-72347805D01*
X58393608Y-72347805D02*
X58507894Y-72290662D01*
X58507894Y-72290662D02*
X58679322Y-72290662D01*
X58679322Y-72290662D02*
X58793608Y-72347805D01*
X59079323Y-73204948D02*
X59993608Y-73204948D01*
X60279323Y-73090662D02*
X60279323Y-72290662D01*
X60279323Y-71890662D02*
X60222180Y-71947805D01*
X60222180Y-71947805D02*
X60279323Y-72004948D01*
X60279323Y-72004948D02*
X60336466Y-71947805D01*
X60336466Y-71947805D02*
X60279323Y-71890662D01*
X60279323Y-71890662D02*
X60279323Y-72004948D01*
X60850752Y-72290662D02*
X60850752Y-73090662D01*
X60850752Y-72404948D02*
X60907895Y-72347805D01*
X60907895Y-72347805D02*
X61022180Y-72290662D01*
X61022180Y-72290662D02*
X61193609Y-72290662D01*
X61193609Y-72290662D02*
X61307895Y-72347805D01*
X61307895Y-72347805D02*
X61365038Y-72462091D01*
X61365038Y-72462091D02*
X61365038Y-73090662D01*
D12*
X59332706Y-76505497D02*
X59332706Y-75605497D01*
X59332706Y-75605497D02*
X59675563Y-75605497D01*
X59675563Y-75605497D02*
X59761278Y-75648354D01*
X59761278Y-75648354D02*
X59804135Y-75691211D01*
X59804135Y-75691211D02*
X59846992Y-75776925D01*
X59846992Y-75776925D02*
X59846992Y-75905497D01*
X59846992Y-75905497D02*
X59804135Y-75991211D01*
X59804135Y-75991211D02*
X59761278Y-76034068D01*
X59761278Y-76034068D02*
X59675563Y-76076925D01*
X59675563Y-76076925D02*
X59332706Y-76076925D01*
X60704135Y-76505497D02*
X60189849Y-76505497D01*
X60446992Y-76505497D02*
X60446992Y-75605497D01*
X60446992Y-75605497D02*
X60361278Y-75734068D01*
X60361278Y-75734068D02*
X60275563Y-75819782D01*
X60275563Y-75819782D02*
X60189849Y-75862640D01*
D14*
X95464786Y-78881870D02*
X95388596Y-78843775D01*
X95388596Y-78843775D02*
X95274310Y-78843775D01*
X95274310Y-78843775D02*
X95160024Y-78881870D01*
X95160024Y-78881870D02*
X95083834Y-78958060D01*
X95083834Y-78958060D02*
X95045739Y-79034251D01*
X95045739Y-79034251D02*
X95007643Y-79186632D01*
X95007643Y-79186632D02*
X95007643Y-79300918D01*
X95007643Y-79300918D02*
X95045739Y-79453299D01*
X95045739Y-79453299D02*
X95083834Y-79529489D01*
X95083834Y-79529489D02*
X95160024Y-79605680D01*
X95160024Y-79605680D02*
X95274310Y-79643775D01*
X95274310Y-79643775D02*
X95350501Y-79643775D01*
X95350501Y-79643775D02*
X95464786Y-79605680D01*
X95464786Y-79605680D02*
X95502882Y-79567584D01*
X95502882Y-79567584D02*
X95502882Y-79300918D01*
X95502882Y-79300918D02*
X95350501Y-79300918D01*
X95845739Y-79643775D02*
X95845739Y-78843775D01*
X95845739Y-78843775D02*
X96302882Y-79643775D01*
X96302882Y-79643775D02*
X96302882Y-78843775D01*
X96683834Y-79643775D02*
X96683834Y-78843775D01*
X96683834Y-78843775D02*
X96874310Y-78843775D01*
X96874310Y-78843775D02*
X96988596Y-78881870D01*
X96988596Y-78881870D02*
X97064786Y-78958060D01*
X97064786Y-78958060D02*
X97102881Y-79034251D01*
X97102881Y-79034251D02*
X97140977Y-79186632D01*
X97140977Y-79186632D02*
X97140977Y-79300918D01*
X97140977Y-79300918D02*
X97102881Y-79453299D01*
X97102881Y-79453299D02*
X97064786Y-79529489D01*
X97064786Y-79529489D02*
X96988596Y-79605680D01*
X96988596Y-79605680D02*
X96874310Y-79643775D01*
X96874310Y-79643775D02*
X96683834Y-79643775D01*
D13*
X93207894Y-90290662D02*
X93207894Y-91262091D01*
X93207894Y-91262091D02*
X93150751Y-91376377D01*
X93150751Y-91376377D02*
X93093608Y-91433520D01*
X93093608Y-91433520D02*
X92979322Y-91490662D01*
X92979322Y-91490662D02*
X92807894Y-91490662D01*
X92807894Y-91490662D02*
X92693608Y-91433520D01*
X93207894Y-91033520D02*
X93093608Y-91090662D01*
X93093608Y-91090662D02*
X92865036Y-91090662D01*
X92865036Y-91090662D02*
X92750751Y-91033520D01*
X92750751Y-91033520D02*
X92693608Y-90976377D01*
X92693608Y-90976377D02*
X92636465Y-90862091D01*
X92636465Y-90862091D02*
X92636465Y-90519234D01*
X92636465Y-90519234D02*
X92693608Y-90404948D01*
X92693608Y-90404948D02*
X92750751Y-90347805D01*
X92750751Y-90347805D02*
X92865036Y-90290662D01*
X92865036Y-90290662D02*
X93093608Y-90290662D01*
X93093608Y-90290662D02*
X93207894Y-90347805D01*
X93779322Y-90290662D02*
X93779322Y-91490662D01*
X93779322Y-90347805D02*
X93893608Y-90290662D01*
X93893608Y-90290662D02*
X94122179Y-90290662D01*
X94122179Y-90290662D02*
X94236465Y-90347805D01*
X94236465Y-90347805D02*
X94293608Y-90404948D01*
X94293608Y-90404948D02*
X94350750Y-90519234D01*
X94350750Y-90519234D02*
X94350750Y-90862091D01*
X94350750Y-90862091D02*
X94293608Y-90976377D01*
X94293608Y-90976377D02*
X94236465Y-91033520D01*
X94236465Y-91033520D02*
X94122179Y-91090662D01*
X94122179Y-91090662D02*
X93893608Y-91090662D01*
X93893608Y-91090662D02*
X93779322Y-91033520D01*
X94865036Y-91090662D02*
X94865036Y-90290662D01*
X94865036Y-89890662D02*
X94807893Y-89947805D01*
X94807893Y-89947805D02*
X94865036Y-90004948D01*
X94865036Y-90004948D02*
X94922179Y-89947805D01*
X94922179Y-89947805D02*
X94865036Y-89890662D01*
X94865036Y-89890662D02*
X94865036Y-90004948D01*
X95607893Y-91090662D02*
X95493608Y-91033520D01*
X95493608Y-91033520D02*
X95436465Y-90976377D01*
X95436465Y-90976377D02*
X95379322Y-90862091D01*
X95379322Y-90862091D02*
X95379322Y-90519234D01*
X95379322Y-90519234D02*
X95436465Y-90404948D01*
X95436465Y-90404948D02*
X95493608Y-90347805D01*
X95493608Y-90347805D02*
X95607893Y-90290662D01*
X95607893Y-90290662D02*
X95779322Y-90290662D01*
X95779322Y-90290662D02*
X95893608Y-90347805D01*
X95893608Y-90347805D02*
X95950751Y-90404948D01*
X95950751Y-90404948D02*
X96007893Y-90519234D01*
X96007893Y-90519234D02*
X96007893Y-90862091D01*
X96007893Y-90862091D02*
X95950751Y-90976377D01*
X95950751Y-90976377D02*
X95893608Y-91033520D01*
X95893608Y-91033520D02*
X95779322Y-91090662D01*
X95779322Y-91090662D02*
X95607893Y-91090662D01*
X97036465Y-90290662D02*
X97036465Y-91090662D01*
X96750750Y-89833520D02*
X96465036Y-90690662D01*
X96465036Y-90690662D02*
X97207893Y-90690662D01*
D12*
X92711278Y-79630497D02*
X92625563Y-79587640D01*
X92625563Y-79587640D02*
X92582706Y-79544782D01*
X92582706Y-79544782D02*
X92539849Y-79459068D01*
X92539849Y-79459068D02*
X92539849Y-79201925D01*
X92539849Y-79201925D02*
X92582706Y-79116211D01*
X92582706Y-79116211D02*
X92625563Y-79073354D01*
X92625563Y-79073354D02*
X92711278Y-79030497D01*
X92711278Y-79030497D02*
X92839849Y-79030497D01*
X92839849Y-79030497D02*
X92925563Y-79073354D01*
X92925563Y-79073354D02*
X92968421Y-79116211D01*
X92968421Y-79116211D02*
X93011278Y-79201925D01*
X93011278Y-79201925D02*
X93011278Y-79459068D01*
X93011278Y-79459068D02*
X92968421Y-79544782D01*
X92968421Y-79544782D02*
X92925563Y-79587640D01*
X92925563Y-79587640D02*
X92839849Y-79630497D01*
X92839849Y-79630497D02*
X92711278Y-79630497D01*
X93782707Y-79030497D02*
X93782707Y-79630497D01*
X93396992Y-79030497D02*
X93396992Y-79501925D01*
X93396992Y-79501925D02*
X93439849Y-79587640D01*
X93439849Y-79587640D02*
X93525564Y-79630497D01*
X93525564Y-79630497D02*
X93654135Y-79630497D01*
X93654135Y-79630497D02*
X93739849Y-79587640D01*
X93739849Y-79587640D02*
X93782707Y-79544782D01*
X94082707Y-79030497D02*
X94425564Y-79030497D01*
X94211278Y-78730497D02*
X94211278Y-79501925D01*
X94211278Y-79501925D02*
X94254135Y-79587640D01*
X94254135Y-79587640D02*
X94339850Y-79630497D01*
X94339850Y-79630497D02*
X94425564Y-79630497D01*
D13*
X93207894Y-93790662D02*
X93207894Y-94762091D01*
X93207894Y-94762091D02*
X93150751Y-94876377D01*
X93150751Y-94876377D02*
X93093608Y-94933520D01*
X93093608Y-94933520D02*
X92979322Y-94990662D01*
X92979322Y-94990662D02*
X92807894Y-94990662D01*
X92807894Y-94990662D02*
X92693608Y-94933520D01*
X93207894Y-94533520D02*
X93093608Y-94590662D01*
X93093608Y-94590662D02*
X92865036Y-94590662D01*
X92865036Y-94590662D02*
X92750751Y-94533520D01*
X92750751Y-94533520D02*
X92693608Y-94476377D01*
X92693608Y-94476377D02*
X92636465Y-94362091D01*
X92636465Y-94362091D02*
X92636465Y-94019234D01*
X92636465Y-94019234D02*
X92693608Y-93904948D01*
X92693608Y-93904948D02*
X92750751Y-93847805D01*
X92750751Y-93847805D02*
X92865036Y-93790662D01*
X92865036Y-93790662D02*
X93093608Y-93790662D01*
X93093608Y-93790662D02*
X93207894Y-93847805D01*
X93779322Y-93790662D02*
X93779322Y-94990662D01*
X93779322Y-93847805D02*
X93893608Y-93790662D01*
X93893608Y-93790662D02*
X94122179Y-93790662D01*
X94122179Y-93790662D02*
X94236465Y-93847805D01*
X94236465Y-93847805D02*
X94293608Y-93904948D01*
X94293608Y-93904948D02*
X94350750Y-94019234D01*
X94350750Y-94019234D02*
X94350750Y-94362091D01*
X94350750Y-94362091D02*
X94293608Y-94476377D01*
X94293608Y-94476377D02*
X94236465Y-94533520D01*
X94236465Y-94533520D02*
X94122179Y-94590662D01*
X94122179Y-94590662D02*
X93893608Y-94590662D01*
X93893608Y-94590662D02*
X93779322Y-94533520D01*
X94865036Y-94590662D02*
X94865036Y-93790662D01*
X94865036Y-93390662D02*
X94807893Y-93447805D01*
X94807893Y-93447805D02*
X94865036Y-93504948D01*
X94865036Y-93504948D02*
X94922179Y-93447805D01*
X94922179Y-93447805D02*
X94865036Y-93390662D01*
X94865036Y-93390662D02*
X94865036Y-93504948D01*
X95607893Y-94590662D02*
X95493608Y-94533520D01*
X95493608Y-94533520D02*
X95436465Y-94476377D01*
X95436465Y-94476377D02*
X95379322Y-94362091D01*
X95379322Y-94362091D02*
X95379322Y-94019234D01*
X95379322Y-94019234D02*
X95436465Y-93904948D01*
X95436465Y-93904948D02*
X95493608Y-93847805D01*
X95493608Y-93847805D02*
X95607893Y-93790662D01*
X95607893Y-93790662D02*
X95779322Y-93790662D01*
X95779322Y-93790662D02*
X95893608Y-93847805D01*
X95893608Y-93847805D02*
X95950751Y-93904948D01*
X95950751Y-93904948D02*
X96007893Y-94019234D01*
X96007893Y-94019234D02*
X96007893Y-94362091D01*
X96007893Y-94362091D02*
X95950751Y-94476377D01*
X95950751Y-94476377D02*
X95893608Y-94533520D01*
X95893608Y-94533520D02*
X95779322Y-94590662D01*
X95779322Y-94590662D02*
X95607893Y-94590662D01*
X97150750Y-94590662D02*
X96465036Y-94590662D01*
X96807893Y-94590662D02*
X96807893Y-93390662D01*
X96807893Y-93390662D02*
X96693607Y-93562091D01*
X96693607Y-93562091D02*
X96579322Y-93676377D01*
X96579322Y-93676377D02*
X96465036Y-93733520D01*
X97836464Y-93904948D02*
X97722179Y-93847805D01*
X97722179Y-93847805D02*
X97665036Y-93790662D01*
X97665036Y-93790662D02*
X97607893Y-93676377D01*
X97607893Y-93676377D02*
X97607893Y-93619234D01*
X97607893Y-93619234D02*
X97665036Y-93504948D01*
X97665036Y-93504948D02*
X97722179Y-93447805D01*
X97722179Y-93447805D02*
X97836464Y-93390662D01*
X97836464Y-93390662D02*
X98065036Y-93390662D01*
X98065036Y-93390662D02*
X98179322Y-93447805D01*
X98179322Y-93447805D02*
X98236464Y-93504948D01*
X98236464Y-93504948D02*
X98293607Y-93619234D01*
X98293607Y-93619234D02*
X98293607Y-93676377D01*
X98293607Y-93676377D02*
X98236464Y-93790662D01*
X98236464Y-93790662D02*
X98179322Y-93847805D01*
X98179322Y-93847805D02*
X98065036Y-93904948D01*
X98065036Y-93904948D02*
X97836464Y-93904948D01*
X97836464Y-93904948D02*
X97722179Y-93962091D01*
X97722179Y-93962091D02*
X97665036Y-94019234D01*
X97665036Y-94019234D02*
X97607893Y-94133520D01*
X97607893Y-94133520D02*
X97607893Y-94362091D01*
X97607893Y-94362091D02*
X97665036Y-94476377D01*
X97665036Y-94476377D02*
X97722179Y-94533520D01*
X97722179Y-94533520D02*
X97836464Y-94590662D01*
X97836464Y-94590662D02*
X98065036Y-94590662D01*
X98065036Y-94590662D02*
X98179322Y-94533520D01*
X98179322Y-94533520D02*
X98236464Y-94476377D01*
X98236464Y-94476377D02*
X98293607Y-94362091D01*
X98293607Y-94362091D02*
X98293607Y-94133520D01*
X98293607Y-94133520D02*
X98236464Y-94019234D01*
X98236464Y-94019234D02*
X98179322Y-93962091D01*
X98179322Y-93962091D02*
X98065036Y-93904948D01*
D12*
X73496992Y-93980497D02*
X74096992Y-94880497D01*
X74096992Y-93980497D02*
X73496992Y-94880497D01*
D13*
X86707894Y-72290662D02*
X86707894Y-73262091D01*
X86707894Y-73262091D02*
X86650751Y-73376377D01*
X86650751Y-73376377D02*
X86593608Y-73433520D01*
X86593608Y-73433520D02*
X86479322Y-73490662D01*
X86479322Y-73490662D02*
X86307894Y-73490662D01*
X86307894Y-73490662D02*
X86193608Y-73433520D01*
X86707894Y-73033520D02*
X86593608Y-73090662D01*
X86593608Y-73090662D02*
X86365036Y-73090662D01*
X86365036Y-73090662D02*
X86250751Y-73033520D01*
X86250751Y-73033520D02*
X86193608Y-72976377D01*
X86193608Y-72976377D02*
X86136465Y-72862091D01*
X86136465Y-72862091D02*
X86136465Y-72519234D01*
X86136465Y-72519234D02*
X86193608Y-72404948D01*
X86193608Y-72404948D02*
X86250751Y-72347805D01*
X86250751Y-72347805D02*
X86365036Y-72290662D01*
X86365036Y-72290662D02*
X86593608Y-72290662D01*
X86593608Y-72290662D02*
X86707894Y-72347805D01*
X87279322Y-72290662D02*
X87279322Y-73490662D01*
X87279322Y-72347805D02*
X87393608Y-72290662D01*
X87393608Y-72290662D02*
X87622179Y-72290662D01*
X87622179Y-72290662D02*
X87736465Y-72347805D01*
X87736465Y-72347805D02*
X87793608Y-72404948D01*
X87793608Y-72404948D02*
X87850750Y-72519234D01*
X87850750Y-72519234D02*
X87850750Y-72862091D01*
X87850750Y-72862091D02*
X87793608Y-72976377D01*
X87793608Y-72976377D02*
X87736465Y-73033520D01*
X87736465Y-73033520D02*
X87622179Y-73090662D01*
X87622179Y-73090662D02*
X87393608Y-73090662D01*
X87393608Y-73090662D02*
X87279322Y-73033520D01*
X88365036Y-73090662D02*
X88365036Y-72290662D01*
X88365036Y-71890662D02*
X88307893Y-71947805D01*
X88307893Y-71947805D02*
X88365036Y-72004948D01*
X88365036Y-72004948D02*
X88422179Y-71947805D01*
X88422179Y-71947805D02*
X88365036Y-71890662D01*
X88365036Y-71890662D02*
X88365036Y-72004948D01*
X89107893Y-73090662D02*
X88993608Y-73033520D01*
X88993608Y-73033520D02*
X88936465Y-72976377D01*
X88936465Y-72976377D02*
X88879322Y-72862091D01*
X88879322Y-72862091D02*
X88879322Y-72519234D01*
X88879322Y-72519234D02*
X88936465Y-72404948D01*
X88936465Y-72404948D02*
X88993608Y-72347805D01*
X88993608Y-72347805D02*
X89107893Y-72290662D01*
X89107893Y-72290662D02*
X89279322Y-72290662D01*
X89279322Y-72290662D02*
X89393608Y-72347805D01*
X89393608Y-72347805D02*
X89450751Y-72404948D01*
X89450751Y-72404948D02*
X89507893Y-72519234D01*
X89507893Y-72519234D02*
X89507893Y-72862091D01*
X89507893Y-72862091D02*
X89450751Y-72976377D01*
X89450751Y-72976377D02*
X89393608Y-73033520D01*
X89393608Y-73033520D02*
X89279322Y-73090662D01*
X89279322Y-73090662D02*
X89107893Y-73090662D01*
X90650750Y-73090662D02*
X89965036Y-73090662D01*
X90307893Y-73090662D02*
X90307893Y-71890662D01*
X90307893Y-71890662D02*
X90193607Y-72062091D01*
X90193607Y-72062091D02*
X90079322Y-72176377D01*
X90079322Y-72176377D02*
X89965036Y-72233520D01*
X91736464Y-71890662D02*
X91165036Y-71890662D01*
X91165036Y-71890662D02*
X91107893Y-72462091D01*
X91107893Y-72462091D02*
X91165036Y-72404948D01*
X91165036Y-72404948D02*
X91279322Y-72347805D01*
X91279322Y-72347805D02*
X91565036Y-72347805D01*
X91565036Y-72347805D02*
X91679322Y-72404948D01*
X91679322Y-72404948D02*
X91736464Y-72462091D01*
X91736464Y-72462091D02*
X91793607Y-72576377D01*
X91793607Y-72576377D02*
X91793607Y-72862091D01*
X91793607Y-72862091D02*
X91736464Y-72976377D01*
X91736464Y-72976377D02*
X91679322Y-73033520D01*
X91679322Y-73033520D02*
X91565036Y-73090662D01*
X91565036Y-73090662D02*
X91279322Y-73090662D01*
X91279322Y-73090662D02*
X91165036Y-73033520D01*
X91165036Y-73033520D02*
X91107893Y-72976377D01*
D12*
X98464135Y-76410497D02*
X98635563Y-76410497D01*
X98635563Y-76410497D02*
X98721278Y-76453354D01*
X98721278Y-76453354D02*
X98806992Y-76539068D01*
X98806992Y-76539068D02*
X98849849Y-76710497D01*
X98849849Y-76710497D02*
X98849849Y-77010497D01*
X98849849Y-77010497D02*
X98806992Y-77181925D01*
X98806992Y-77181925D02*
X98721278Y-77267640D01*
X98721278Y-77267640D02*
X98635563Y-77310497D01*
X98635563Y-77310497D02*
X98464135Y-77310497D01*
X98464135Y-77310497D02*
X98378421Y-77267640D01*
X98378421Y-77267640D02*
X98292706Y-77181925D01*
X98292706Y-77181925D02*
X98249849Y-77010497D01*
X98249849Y-77010497D02*
X98249849Y-76710497D01*
X98249849Y-76710497D02*
X98292706Y-76539068D01*
X98292706Y-76539068D02*
X98378421Y-76453354D01*
X98378421Y-76453354D02*
X98464135Y-76410497D01*
X99535563Y-76839068D02*
X99235563Y-76839068D01*
X99235563Y-77310497D02*
X99235563Y-76410497D01*
X99235563Y-76410497D02*
X99664135Y-76410497D01*
X100306992Y-76839068D02*
X100006992Y-76839068D01*
X100006992Y-77310497D02*
X100006992Y-76410497D01*
X100006992Y-76410497D02*
X100435564Y-76410497D01*
X88332706Y-76880497D02*
X88332706Y-76280497D01*
X88332706Y-75980497D02*
X88289849Y-76023354D01*
X88289849Y-76023354D02*
X88332706Y-76066211D01*
X88332706Y-76066211D02*
X88375563Y-76023354D01*
X88375563Y-76023354D02*
X88332706Y-75980497D01*
X88332706Y-75980497D02*
X88332706Y-76066211D01*
X88761277Y-76280497D02*
X88761277Y-76880497D01*
X88761277Y-76366211D02*
X88804134Y-76323354D01*
X88804134Y-76323354D02*
X88889849Y-76280497D01*
X88889849Y-76280497D02*
X89018420Y-76280497D01*
X89018420Y-76280497D02*
X89104134Y-76323354D01*
X89104134Y-76323354D02*
X89146992Y-76409068D01*
X89146992Y-76409068D02*
X89146992Y-76880497D01*
D13*
X81522179Y-72290662D02*
X81979322Y-72290662D01*
X81693608Y-71890662D02*
X81693608Y-72919234D01*
X81693608Y-72919234D02*
X81750751Y-73033520D01*
X81750751Y-73033520D02*
X81865036Y-73090662D01*
X81865036Y-73090662D02*
X81979322Y-73090662D01*
X82093608Y-73204948D02*
X83007893Y-73204948D01*
X83293608Y-73090662D02*
X83293608Y-72290662D01*
X83293608Y-71890662D02*
X83236465Y-71947805D01*
X83236465Y-71947805D02*
X83293608Y-72004948D01*
X83293608Y-72004948D02*
X83350751Y-71947805D01*
X83350751Y-71947805D02*
X83293608Y-71890662D01*
X83293608Y-71890662D02*
X83293608Y-72004948D01*
X83865037Y-72290662D02*
X83865037Y-73090662D01*
X83865037Y-72404948D02*
X83922180Y-72347805D01*
X83922180Y-72347805D02*
X84036465Y-72290662D01*
X84036465Y-72290662D02*
X84207894Y-72290662D01*
X84207894Y-72290662D02*
X84322180Y-72347805D01*
X84322180Y-72347805D02*
X84379323Y-72462091D01*
X84379323Y-72462091D02*
X84379323Y-73090662D01*
D12*
X89454135Y-85190497D02*
X89796992Y-85190497D01*
X89582706Y-84890497D02*
X89582706Y-85661925D01*
X89582706Y-85661925D02*
X89625563Y-85747640D01*
X89625563Y-85747640D02*
X89711278Y-85790497D01*
X89711278Y-85790497D02*
X89796992Y-85790497D01*
X89882707Y-85876211D02*
X90568421Y-85876211D01*
X90782706Y-85790497D02*
X90782706Y-85190497D01*
X90782706Y-84890497D02*
X90739849Y-84933354D01*
X90739849Y-84933354D02*
X90782706Y-84976211D01*
X90782706Y-84976211D02*
X90825563Y-84933354D01*
X90825563Y-84933354D02*
X90782706Y-84890497D01*
X90782706Y-84890497D02*
X90782706Y-84976211D01*
X91211277Y-85190497D02*
X91211277Y-85790497D01*
X91211277Y-85276211D02*
X91254134Y-85233354D01*
X91254134Y-85233354D02*
X91339849Y-85190497D01*
X91339849Y-85190497D02*
X91468420Y-85190497D01*
X91468420Y-85190497D02*
X91554134Y-85233354D01*
X91554134Y-85233354D02*
X91596992Y-85319068D01*
X91596992Y-85319068D02*
X91596992Y-85790497D01*
X98175563Y-79587640D02*
X98089849Y-79630497D01*
X98089849Y-79630497D02*
X97918421Y-79630497D01*
X97918421Y-79630497D02*
X97832706Y-79587640D01*
X97832706Y-79587640D02*
X97789849Y-79501925D01*
X97789849Y-79501925D02*
X97789849Y-79159068D01*
X97789849Y-79159068D02*
X97832706Y-79073354D01*
X97832706Y-79073354D02*
X97918421Y-79030497D01*
X97918421Y-79030497D02*
X98089849Y-79030497D01*
X98089849Y-79030497D02*
X98175563Y-79073354D01*
X98175563Y-79073354D02*
X98218421Y-79159068D01*
X98218421Y-79159068D02*
X98218421Y-79244782D01*
X98218421Y-79244782D02*
X97789849Y-79330497D01*
X98518421Y-79630497D02*
X98989850Y-79030497D01*
X98518421Y-79030497D02*
X98989850Y-79630497D01*
X99804135Y-79630497D02*
X99289849Y-79630497D01*
X99546992Y-79630497D02*
X99546992Y-78730497D01*
X99546992Y-78730497D02*
X99461278Y-78859068D01*
X99461278Y-78859068D02*
X99375563Y-78944782D01*
X99375563Y-78944782D02*
X99289849Y-78987640D01*
D15*
X62348771Y-79637053D02*
X62348771Y-78937053D01*
X62348771Y-78937053D02*
X62615438Y-78937053D01*
X62615438Y-78937053D02*
X62682105Y-78970386D01*
X62682105Y-78970386D02*
X62715438Y-79003720D01*
X62715438Y-79003720D02*
X62748771Y-79070386D01*
X62748771Y-79070386D02*
X62748771Y-79170386D01*
X62748771Y-79170386D02*
X62715438Y-79237053D01*
X62715438Y-79237053D02*
X62682105Y-79270386D01*
X62682105Y-79270386D02*
X62615438Y-79303720D01*
X62615438Y-79303720D02*
X62348771Y-79303720D01*
X63015438Y-79003720D02*
X63048771Y-78970386D01*
X63048771Y-78970386D02*
X63115438Y-78937053D01*
X63115438Y-78937053D02*
X63282105Y-78937053D01*
X63282105Y-78937053D02*
X63348771Y-78970386D01*
X63348771Y-78970386D02*
X63382105Y-79003720D01*
X63382105Y-79003720D02*
X63415438Y-79070386D01*
X63415438Y-79070386D02*
X63415438Y-79137053D01*
X63415438Y-79137053D02*
X63382105Y-79237053D01*
X63382105Y-79237053D02*
X62982105Y-79637053D01*
X62982105Y-79637053D02*
X63415438Y-79637053D01*
X63548772Y-79703720D02*
X64082105Y-79703720D01*
X64148771Y-78937053D02*
X64382105Y-79637053D01*
X64382105Y-79637053D02*
X64615438Y-78937053D01*
D12*
X69832706Y-76880497D02*
X69832706Y-76280497D01*
X69832706Y-75980497D02*
X69789849Y-76023354D01*
X69789849Y-76023354D02*
X69832706Y-76066211D01*
X69832706Y-76066211D02*
X69875563Y-76023354D01*
X69875563Y-76023354D02*
X69832706Y-75980497D01*
X69832706Y-75980497D02*
X69832706Y-76066211D01*
X70261277Y-76280497D02*
X70261277Y-76880497D01*
X70261277Y-76366211D02*
X70304134Y-76323354D01*
X70304134Y-76323354D02*
X70389849Y-76280497D01*
X70389849Y-76280497D02*
X70518420Y-76280497D01*
X70518420Y-76280497D02*
X70604134Y-76323354D01*
X70604134Y-76323354D02*
X70646992Y-76409068D01*
X70646992Y-76409068D02*
X70646992Y-76880497D01*
X95425563Y-85837640D02*
X95339849Y-85880497D01*
X95339849Y-85880497D02*
X95168421Y-85880497D01*
X95168421Y-85880497D02*
X95082706Y-85837640D01*
X95082706Y-85837640D02*
X95039849Y-85751925D01*
X95039849Y-85751925D02*
X95039849Y-85409068D01*
X95039849Y-85409068D02*
X95082706Y-85323354D01*
X95082706Y-85323354D02*
X95168421Y-85280497D01*
X95168421Y-85280497D02*
X95339849Y-85280497D01*
X95339849Y-85280497D02*
X95425563Y-85323354D01*
X95425563Y-85323354D02*
X95468421Y-85409068D01*
X95468421Y-85409068D02*
X95468421Y-85494782D01*
X95468421Y-85494782D02*
X95039849Y-85580497D01*
X95768421Y-85880497D02*
X96239850Y-85280497D01*
X95768421Y-85280497D02*
X96239850Y-85880497D01*
X96496992Y-84980497D02*
X97054135Y-84980497D01*
X97054135Y-84980497D02*
X96754135Y-85323354D01*
X96754135Y-85323354D02*
X96882706Y-85323354D01*
X96882706Y-85323354D02*
X96968421Y-85366211D01*
X96968421Y-85366211D02*
X97011278Y-85409068D01*
X97011278Y-85409068D02*
X97054135Y-85494782D01*
X97054135Y-85494782D02*
X97054135Y-85709068D01*
X97054135Y-85709068D02*
X97011278Y-85794782D01*
X97011278Y-85794782D02*
X96968421Y-85837640D01*
X96968421Y-85837640D02*
X96882706Y-85880497D01*
X96882706Y-85880497D02*
X96625563Y-85880497D01*
X96625563Y-85880497D02*
X96539849Y-85837640D01*
X96539849Y-85837640D02*
X96496992Y-85794782D01*
X62514135Y-86500497D02*
X62685563Y-86500497D01*
X62685563Y-86500497D02*
X62771278Y-86543354D01*
X62771278Y-86543354D02*
X62856992Y-86629068D01*
X62856992Y-86629068D02*
X62899849Y-86800497D01*
X62899849Y-86800497D02*
X62899849Y-87100497D01*
X62899849Y-87100497D02*
X62856992Y-87271925D01*
X62856992Y-87271925D02*
X62771278Y-87357640D01*
X62771278Y-87357640D02*
X62685563Y-87400497D01*
X62685563Y-87400497D02*
X62514135Y-87400497D01*
X62514135Y-87400497D02*
X62428421Y-87357640D01*
X62428421Y-87357640D02*
X62342706Y-87271925D01*
X62342706Y-87271925D02*
X62299849Y-87100497D01*
X62299849Y-87100497D02*
X62299849Y-86800497D01*
X62299849Y-86800497D02*
X62342706Y-86629068D01*
X62342706Y-86629068D02*
X62428421Y-86543354D01*
X62428421Y-86543354D02*
X62514135Y-86500497D01*
X63285563Y-87400497D02*
X63285563Y-86500497D01*
X63285563Y-86500497D02*
X63799849Y-87400497D01*
X63799849Y-87400497D02*
X63799849Y-86500497D01*
D15*
X62298771Y-85827053D02*
X62298771Y-85127053D01*
X62298771Y-85127053D02*
X62565438Y-85127053D01*
X62565438Y-85127053D02*
X62632105Y-85160386D01*
X62632105Y-85160386D02*
X62665438Y-85193720D01*
X62665438Y-85193720D02*
X62698771Y-85260386D01*
X62698771Y-85260386D02*
X62698771Y-85360386D01*
X62698771Y-85360386D02*
X62665438Y-85427053D01*
X62665438Y-85427053D02*
X62632105Y-85460386D01*
X62632105Y-85460386D02*
X62565438Y-85493720D01*
X62565438Y-85493720D02*
X62298771Y-85493720D01*
X63365438Y-85827053D02*
X62965438Y-85827053D01*
X63165438Y-85827053D02*
X63165438Y-85127053D01*
X63165438Y-85127053D02*
X63098771Y-85227053D01*
X63098771Y-85227053D02*
X63032105Y-85293720D01*
X63032105Y-85293720D02*
X62965438Y-85327053D01*
X63498772Y-85893720D02*
X64032105Y-85893720D01*
X64098771Y-85127053D02*
X64332105Y-85827053D01*
X64332105Y-85827053D02*
X64565438Y-85127053D01*
D13*
X88900751Y-94783520D02*
X88786465Y-94840662D01*
X88786465Y-94840662D02*
X88557894Y-94840662D01*
X88557894Y-94840662D02*
X88443608Y-94783520D01*
X88443608Y-94783520D02*
X88386465Y-94669234D01*
X88386465Y-94669234D02*
X88386465Y-94212091D01*
X88386465Y-94212091D02*
X88443608Y-94097805D01*
X88443608Y-94097805D02*
X88557894Y-94040662D01*
X88557894Y-94040662D02*
X88786465Y-94040662D01*
X88786465Y-94040662D02*
X88900751Y-94097805D01*
X88900751Y-94097805D02*
X88957894Y-94212091D01*
X88957894Y-94212091D02*
X88957894Y-94326377D01*
X88957894Y-94326377D02*
X88386465Y-94440662D01*
X89357893Y-94840662D02*
X89986465Y-94040662D01*
X89357893Y-94040662D02*
X89986465Y-94840662D01*
X90329322Y-93640662D02*
X91072179Y-93640662D01*
X91072179Y-93640662D02*
X90672179Y-94097805D01*
X90672179Y-94097805D02*
X90843608Y-94097805D01*
X90843608Y-94097805D02*
X90957894Y-94154948D01*
X90957894Y-94154948D02*
X91015036Y-94212091D01*
X91015036Y-94212091D02*
X91072179Y-94326377D01*
X91072179Y-94326377D02*
X91072179Y-94612091D01*
X91072179Y-94612091D02*
X91015036Y-94726377D01*
X91015036Y-94726377D02*
X90957894Y-94783520D01*
X90957894Y-94783520D02*
X90843608Y-94840662D01*
X90843608Y-94840662D02*
X90500751Y-94840662D01*
X90500751Y-94840662D02*
X90386465Y-94783520D01*
X90386465Y-94783520D02*
X90329322Y-94726377D01*
D12*
X98175563Y-85837640D02*
X98089849Y-85880497D01*
X98089849Y-85880497D02*
X97918421Y-85880497D01*
X97918421Y-85880497D02*
X97832706Y-85837640D01*
X97832706Y-85837640D02*
X97789849Y-85751925D01*
X97789849Y-85751925D02*
X97789849Y-85409068D01*
X97789849Y-85409068D02*
X97832706Y-85323354D01*
X97832706Y-85323354D02*
X97918421Y-85280497D01*
X97918421Y-85280497D02*
X98089849Y-85280497D01*
X98089849Y-85280497D02*
X98175563Y-85323354D01*
X98175563Y-85323354D02*
X98218421Y-85409068D01*
X98218421Y-85409068D02*
X98218421Y-85494782D01*
X98218421Y-85494782D02*
X97789849Y-85580497D01*
X98518421Y-85880497D02*
X98989850Y-85280497D01*
X98518421Y-85280497D02*
X98989850Y-85880497D01*
X99289849Y-85066211D02*
X99332706Y-85023354D01*
X99332706Y-85023354D02*
X99418421Y-84980497D01*
X99418421Y-84980497D02*
X99632706Y-84980497D01*
X99632706Y-84980497D02*
X99718421Y-85023354D01*
X99718421Y-85023354D02*
X99761278Y-85066211D01*
X99761278Y-85066211D02*
X99804135Y-85151925D01*
X99804135Y-85151925D02*
X99804135Y-85237640D01*
X99804135Y-85237640D02*
X99761278Y-85366211D01*
X99761278Y-85366211D02*
X99246992Y-85880497D01*
X99246992Y-85880497D02*
X99804135Y-85880497D01*
X92461278Y-85880497D02*
X92375563Y-85837640D01*
X92375563Y-85837640D02*
X92332706Y-85794782D01*
X92332706Y-85794782D02*
X92289849Y-85709068D01*
X92289849Y-85709068D02*
X92289849Y-85451925D01*
X92289849Y-85451925D02*
X92332706Y-85366211D01*
X92332706Y-85366211D02*
X92375563Y-85323354D01*
X92375563Y-85323354D02*
X92461278Y-85280497D01*
X92461278Y-85280497D02*
X92589849Y-85280497D01*
X92589849Y-85280497D02*
X92675563Y-85323354D01*
X92675563Y-85323354D02*
X92718421Y-85366211D01*
X92718421Y-85366211D02*
X92761278Y-85451925D01*
X92761278Y-85451925D02*
X92761278Y-85709068D01*
X92761278Y-85709068D02*
X92718421Y-85794782D01*
X92718421Y-85794782D02*
X92675563Y-85837640D01*
X92675563Y-85837640D02*
X92589849Y-85880497D01*
X92589849Y-85880497D02*
X92461278Y-85880497D01*
X93532707Y-85280497D02*
X93532707Y-85880497D01*
X93146992Y-85280497D02*
X93146992Y-85751925D01*
X93146992Y-85751925D02*
X93189849Y-85837640D01*
X93189849Y-85837640D02*
X93275564Y-85880497D01*
X93275564Y-85880497D02*
X93404135Y-85880497D01*
X93404135Y-85880497D02*
X93489849Y-85837640D01*
X93489849Y-85837640D02*
X93532707Y-85794782D01*
X93832707Y-85280497D02*
X94175564Y-85280497D01*
X93961278Y-84980497D02*
X93961278Y-85751925D01*
X93961278Y-85751925D02*
X94004135Y-85837640D01*
X94004135Y-85837640D02*
X94089850Y-85880497D01*
X94089850Y-85880497D02*
X94175564Y-85880497D01*
D13*
X93022179Y-72290662D02*
X93479322Y-72290662D01*
X93193608Y-71890662D02*
X93193608Y-72919234D01*
X93193608Y-72919234D02*
X93250751Y-73033520D01*
X93250751Y-73033520D02*
X93365036Y-73090662D01*
X93365036Y-73090662D02*
X93479322Y-73090662D01*
X93593608Y-73204948D02*
X94507893Y-73204948D01*
X94965036Y-73090662D02*
X94850751Y-73033520D01*
X94850751Y-73033520D02*
X94793608Y-72976377D01*
X94793608Y-72976377D02*
X94736465Y-72862091D01*
X94736465Y-72862091D02*
X94736465Y-72519234D01*
X94736465Y-72519234D02*
X94793608Y-72404948D01*
X94793608Y-72404948D02*
X94850751Y-72347805D01*
X94850751Y-72347805D02*
X94965036Y-72290662D01*
X94965036Y-72290662D02*
X95136465Y-72290662D01*
X95136465Y-72290662D02*
X95250751Y-72347805D01*
X95250751Y-72347805D02*
X95307894Y-72404948D01*
X95307894Y-72404948D02*
X95365036Y-72519234D01*
X95365036Y-72519234D02*
X95365036Y-72862091D01*
X95365036Y-72862091D02*
X95307894Y-72976377D01*
X95307894Y-72976377D02*
X95250751Y-73033520D01*
X95250751Y-73033520D02*
X95136465Y-73090662D01*
X95136465Y-73090662D02*
X94965036Y-73090662D01*
X96393608Y-72290662D02*
X96393608Y-73090662D01*
X95879322Y-72290662D02*
X95879322Y-72919234D01*
X95879322Y-72919234D02*
X95936465Y-73033520D01*
X95936465Y-73033520D02*
X96050750Y-73090662D01*
X96050750Y-73090662D02*
X96222179Y-73090662D01*
X96222179Y-73090662D02*
X96336465Y-73033520D01*
X96336465Y-73033520D02*
X96393608Y-72976377D01*
X96793607Y-72290662D02*
X97250750Y-72290662D01*
X96965036Y-71890662D02*
X96965036Y-72919234D01*
X96965036Y-72919234D02*
X97022179Y-73033520D01*
X97022179Y-73033520D02*
X97136464Y-73090662D01*
X97136464Y-73090662D02*
X97250750Y-73090662D01*
D12*
X66804135Y-78523354D02*
X66718421Y-78480497D01*
X66718421Y-78480497D02*
X66589849Y-78480497D01*
X66589849Y-78480497D02*
X66461278Y-78523354D01*
X66461278Y-78523354D02*
X66375563Y-78609068D01*
X66375563Y-78609068D02*
X66332706Y-78694782D01*
X66332706Y-78694782D02*
X66289849Y-78866211D01*
X66289849Y-78866211D02*
X66289849Y-78994782D01*
X66289849Y-78994782D02*
X66332706Y-79166211D01*
X66332706Y-79166211D02*
X66375563Y-79251925D01*
X66375563Y-79251925D02*
X66461278Y-79337640D01*
X66461278Y-79337640D02*
X66589849Y-79380497D01*
X66589849Y-79380497D02*
X66675563Y-79380497D01*
X66675563Y-79380497D02*
X66804135Y-79337640D01*
X66804135Y-79337640D02*
X66846992Y-79294782D01*
X66846992Y-79294782D02*
X66846992Y-78994782D01*
X66846992Y-78994782D02*
X66675563Y-78994782D01*
X67232706Y-79380497D02*
X67232706Y-78480497D01*
X67232706Y-78480497D02*
X67746992Y-79380497D01*
X67746992Y-79380497D02*
X67746992Y-78480497D01*
X68175563Y-79380497D02*
X68175563Y-78480497D01*
X68175563Y-78480497D02*
X68389849Y-78480497D01*
X68389849Y-78480497D02*
X68518420Y-78523354D01*
X68518420Y-78523354D02*
X68604135Y-78609068D01*
X68604135Y-78609068D02*
X68646992Y-78694782D01*
X68646992Y-78694782D02*
X68689849Y-78866211D01*
X68689849Y-78866211D02*
X68689849Y-78994782D01*
X68689849Y-78994782D02*
X68646992Y-79166211D01*
X68646992Y-79166211D02*
X68604135Y-79251925D01*
X68604135Y-79251925D02*
X68518420Y-79337640D01*
X68518420Y-79337640D02*
X68389849Y-79380497D01*
X68389849Y-79380497D02*
X68175563Y-79380497D01*
X66332706Y-85537640D02*
X67018421Y-85537640D01*
X66675563Y-85880497D02*
X66675563Y-85194782D01*
X67875564Y-84980497D02*
X67446992Y-84980497D01*
X67446992Y-84980497D02*
X67404135Y-85409068D01*
X67404135Y-85409068D02*
X67446992Y-85366211D01*
X67446992Y-85366211D02*
X67532707Y-85323354D01*
X67532707Y-85323354D02*
X67746992Y-85323354D01*
X67746992Y-85323354D02*
X67832707Y-85366211D01*
X67832707Y-85366211D02*
X67875564Y-85409068D01*
X67875564Y-85409068D02*
X67918421Y-85494782D01*
X67918421Y-85494782D02*
X67918421Y-85709068D01*
X67918421Y-85709068D02*
X67875564Y-85794782D01*
X67875564Y-85794782D02*
X67832707Y-85837640D01*
X67832707Y-85837640D02*
X67746992Y-85880497D01*
X67746992Y-85880497D02*
X67532707Y-85880497D01*
X67532707Y-85880497D02*
X67446992Y-85837640D01*
X67446992Y-85837640D02*
X67404135Y-85794782D01*
X68175564Y-84980497D02*
X68475564Y-85880497D01*
X68475564Y-85880497D02*
X68775564Y-84980497D01*
X72289849Y-76837640D02*
X72375563Y-76880497D01*
X72375563Y-76880497D02*
X72546992Y-76880497D01*
X72546992Y-76880497D02*
X72632706Y-76837640D01*
X72632706Y-76837640D02*
X72675563Y-76751925D01*
X72675563Y-76751925D02*
X72675563Y-76709068D01*
X72675563Y-76709068D02*
X72632706Y-76623354D01*
X72632706Y-76623354D02*
X72546992Y-76580497D01*
X72546992Y-76580497D02*
X72418421Y-76580497D01*
X72418421Y-76580497D02*
X72332706Y-76537640D01*
X72332706Y-76537640D02*
X72289849Y-76451925D01*
X72289849Y-76451925D02*
X72289849Y-76409068D01*
X72289849Y-76409068D02*
X72332706Y-76323354D01*
X72332706Y-76323354D02*
X72418421Y-76280497D01*
X72418421Y-76280497D02*
X72546992Y-76280497D01*
X72546992Y-76280497D02*
X72632706Y-76323354D01*
X72932706Y-76280497D02*
X73275563Y-76280497D01*
X73061277Y-75980497D02*
X73061277Y-76751925D01*
X73061277Y-76751925D02*
X73104134Y-76837640D01*
X73104134Y-76837640D02*
X73189849Y-76880497D01*
X73189849Y-76880497D02*
X73275563Y-76880497D01*
X73918420Y-76837640D02*
X73832706Y-76880497D01*
X73832706Y-76880497D02*
X73661278Y-76880497D01*
X73661278Y-76880497D02*
X73575563Y-76837640D01*
X73575563Y-76837640D02*
X73532706Y-76751925D01*
X73532706Y-76751925D02*
X73532706Y-76409068D01*
X73532706Y-76409068D02*
X73575563Y-76323354D01*
X73575563Y-76323354D02*
X73661278Y-76280497D01*
X73661278Y-76280497D02*
X73832706Y-76280497D01*
X73832706Y-76280497D02*
X73918420Y-76323354D01*
X73918420Y-76323354D02*
X73961278Y-76409068D01*
X73961278Y-76409068D02*
X73961278Y-76494782D01*
X73961278Y-76494782D02*
X73532706Y-76580497D01*
X74689849Y-76837640D02*
X74604135Y-76880497D01*
X74604135Y-76880497D02*
X74432707Y-76880497D01*
X74432707Y-76880497D02*
X74346992Y-76837640D01*
X74346992Y-76837640D02*
X74304135Y-76751925D01*
X74304135Y-76751925D02*
X74304135Y-76409068D01*
X74304135Y-76409068D02*
X74346992Y-76323354D01*
X74346992Y-76323354D02*
X74432707Y-76280497D01*
X74432707Y-76280497D02*
X74604135Y-76280497D01*
X74604135Y-76280497D02*
X74689849Y-76323354D01*
X74689849Y-76323354D02*
X74732707Y-76409068D01*
X74732707Y-76409068D02*
X74732707Y-76494782D01*
X74732707Y-76494782D02*
X74304135Y-76580497D01*
X75118421Y-76880497D02*
X75118421Y-76280497D01*
X75118421Y-76451925D02*
X75161278Y-76366211D01*
X75161278Y-76366211D02*
X75204136Y-76323354D01*
X75204136Y-76323354D02*
X75289850Y-76280497D01*
X75289850Y-76280497D02*
X75375564Y-76280497D01*
X75675564Y-76880497D02*
X75675564Y-76280497D01*
X75675564Y-75980497D02*
X75632707Y-76023354D01*
X75632707Y-76023354D02*
X75675564Y-76066211D01*
X75675564Y-76066211D02*
X75718421Y-76023354D01*
X75718421Y-76023354D02*
X75675564Y-75980497D01*
X75675564Y-75980497D02*
X75675564Y-76066211D01*
X76104135Y-76280497D02*
X76104135Y-76880497D01*
X76104135Y-76366211D02*
X76146992Y-76323354D01*
X76146992Y-76323354D02*
X76232707Y-76280497D01*
X76232707Y-76280497D02*
X76361278Y-76280497D01*
X76361278Y-76280497D02*
X76446992Y-76323354D01*
X76446992Y-76323354D02*
X76489850Y-76409068D01*
X76489850Y-76409068D02*
X76489850Y-76880497D01*
X77304136Y-76280497D02*
X77304136Y-77009068D01*
X77304136Y-77009068D02*
X77261278Y-77094782D01*
X77261278Y-77094782D02*
X77218421Y-77137640D01*
X77218421Y-77137640D02*
X77132707Y-77180497D01*
X77132707Y-77180497D02*
X77004136Y-77180497D01*
X77004136Y-77180497D02*
X76918421Y-77137640D01*
X77304136Y-76837640D02*
X77218421Y-76880497D01*
X77218421Y-76880497D02*
X77046993Y-76880497D01*
X77046993Y-76880497D02*
X76961278Y-76837640D01*
X76961278Y-76837640D02*
X76918421Y-76794782D01*
X76918421Y-76794782D02*
X76875564Y-76709068D01*
X76875564Y-76709068D02*
X76875564Y-76451925D01*
X76875564Y-76451925D02*
X76918421Y-76366211D01*
X76918421Y-76366211D02*
X76961278Y-76323354D01*
X76961278Y-76323354D02*
X77046993Y-76280497D01*
X77046993Y-76280497D02*
X77218421Y-76280497D01*
X77218421Y-76280497D02*
X77304136Y-76323354D01*
X78961278Y-76880497D02*
X78875563Y-76837640D01*
X78875563Y-76837640D02*
X78832706Y-76794782D01*
X78832706Y-76794782D02*
X78789849Y-76709068D01*
X78789849Y-76709068D02*
X78789849Y-76451925D01*
X78789849Y-76451925D02*
X78832706Y-76366211D01*
X78832706Y-76366211D02*
X78875563Y-76323354D01*
X78875563Y-76323354D02*
X78961278Y-76280497D01*
X78961278Y-76280497D02*
X79089849Y-76280497D01*
X79089849Y-76280497D02*
X79175563Y-76323354D01*
X79175563Y-76323354D02*
X79218421Y-76366211D01*
X79218421Y-76366211D02*
X79261278Y-76451925D01*
X79261278Y-76451925D02*
X79261278Y-76709068D01*
X79261278Y-76709068D02*
X79218421Y-76794782D01*
X79218421Y-76794782D02*
X79175563Y-76837640D01*
X79175563Y-76837640D02*
X79089849Y-76880497D01*
X79089849Y-76880497D02*
X78961278Y-76880497D01*
X80032707Y-76280497D02*
X80032707Y-76880497D01*
X79646992Y-76280497D02*
X79646992Y-76751925D01*
X79646992Y-76751925D02*
X79689849Y-76837640D01*
X79689849Y-76837640D02*
X79775564Y-76880497D01*
X79775564Y-76880497D02*
X79904135Y-76880497D01*
X79904135Y-76880497D02*
X79989849Y-76837640D01*
X79989849Y-76837640D02*
X80032707Y-76794782D01*
X80332707Y-76280497D02*
X80675564Y-76280497D01*
X80461278Y-75980497D02*
X80461278Y-76751925D01*
X80461278Y-76751925D02*
X80504135Y-76837640D01*
X80504135Y-76837640D02*
X80589850Y-76880497D01*
X80589850Y-76880497D02*
X80675564Y-76880497D01*
D13*
X93207894Y-92040662D02*
X93207894Y-93012091D01*
X93207894Y-93012091D02*
X93150751Y-93126377D01*
X93150751Y-93126377D02*
X93093608Y-93183520D01*
X93093608Y-93183520D02*
X92979322Y-93240662D01*
X92979322Y-93240662D02*
X92807894Y-93240662D01*
X92807894Y-93240662D02*
X92693608Y-93183520D01*
X93207894Y-92783520D02*
X93093608Y-92840662D01*
X93093608Y-92840662D02*
X92865036Y-92840662D01*
X92865036Y-92840662D02*
X92750751Y-92783520D01*
X92750751Y-92783520D02*
X92693608Y-92726377D01*
X92693608Y-92726377D02*
X92636465Y-92612091D01*
X92636465Y-92612091D02*
X92636465Y-92269234D01*
X92636465Y-92269234D02*
X92693608Y-92154948D01*
X92693608Y-92154948D02*
X92750751Y-92097805D01*
X92750751Y-92097805D02*
X92865036Y-92040662D01*
X92865036Y-92040662D02*
X93093608Y-92040662D01*
X93093608Y-92040662D02*
X93207894Y-92097805D01*
X93779322Y-92040662D02*
X93779322Y-93240662D01*
X93779322Y-92097805D02*
X93893608Y-92040662D01*
X93893608Y-92040662D02*
X94122179Y-92040662D01*
X94122179Y-92040662D02*
X94236465Y-92097805D01*
X94236465Y-92097805D02*
X94293608Y-92154948D01*
X94293608Y-92154948D02*
X94350750Y-92269234D01*
X94350750Y-92269234D02*
X94350750Y-92612091D01*
X94350750Y-92612091D02*
X94293608Y-92726377D01*
X94293608Y-92726377D02*
X94236465Y-92783520D01*
X94236465Y-92783520D02*
X94122179Y-92840662D01*
X94122179Y-92840662D02*
X93893608Y-92840662D01*
X93893608Y-92840662D02*
X93779322Y-92783520D01*
X94865036Y-92840662D02*
X94865036Y-92040662D01*
X94865036Y-91640662D02*
X94807893Y-91697805D01*
X94807893Y-91697805D02*
X94865036Y-91754948D01*
X94865036Y-91754948D02*
X94922179Y-91697805D01*
X94922179Y-91697805D02*
X94865036Y-91640662D01*
X94865036Y-91640662D02*
X94865036Y-91754948D01*
X95607893Y-92840662D02*
X95493608Y-92783520D01*
X95493608Y-92783520D02*
X95436465Y-92726377D01*
X95436465Y-92726377D02*
X95379322Y-92612091D01*
X95379322Y-92612091D02*
X95379322Y-92269234D01*
X95379322Y-92269234D02*
X95436465Y-92154948D01*
X95436465Y-92154948D02*
X95493608Y-92097805D01*
X95493608Y-92097805D02*
X95607893Y-92040662D01*
X95607893Y-92040662D02*
X95779322Y-92040662D01*
X95779322Y-92040662D02*
X95893608Y-92097805D01*
X95893608Y-92097805D02*
X95950751Y-92154948D01*
X95950751Y-92154948D02*
X96007893Y-92269234D01*
X96007893Y-92269234D02*
X96007893Y-92612091D01*
X96007893Y-92612091D02*
X95950751Y-92726377D01*
X95950751Y-92726377D02*
X95893608Y-92783520D01*
X95893608Y-92783520D02*
X95779322Y-92840662D01*
X95779322Y-92840662D02*
X95607893Y-92840662D01*
X97150750Y-92840662D02*
X96465036Y-92840662D01*
X96807893Y-92840662D02*
X96807893Y-91640662D01*
X96807893Y-91640662D02*
X96693607Y-91812091D01*
X96693607Y-91812091D02*
X96579322Y-91926377D01*
X96579322Y-91926377D02*
X96465036Y-91983520D01*
X97550750Y-91640662D02*
X98350750Y-91640662D01*
X98350750Y-91640662D02*
X97836464Y-92840662D01*
D16*
%TO.C,S6*%
X100700000Y-77500000D02*
X104300000Y-77500000D01*
X100700000Y-78680000D02*
X100700000Y-77500000D01*
X100700000Y-81180000D02*
X100700000Y-80320000D01*
X100700000Y-83680000D02*
X100700000Y-82820000D01*
X100700000Y-86500000D02*
X100700000Y-85320000D01*
X104300000Y-77500000D02*
X104300000Y-78680000D01*
X104300000Y-80320000D02*
X104300000Y-81180000D01*
X104300000Y-82820000D02*
X104300000Y-83680000D01*
X104300000Y-85320000D02*
X104300000Y-86500000D01*
X104300000Y-86500000D02*
X100700000Y-86500000D01*
D11*
X100100000Y-78500000D02*
G75*
G02*
X99900000Y-78500000I-100000J0D01*
G01*
X99900000Y-78500000D02*
G75*
G02*
X100100000Y-78500000I100000J0D01*
G01*
D16*
%TO.C,S3*%
X85100000Y-77500000D02*
X88700000Y-77500000D01*
X85100000Y-78680000D02*
X85100000Y-77500000D01*
X85100000Y-81180000D02*
X85100000Y-80320000D01*
X85100000Y-83680000D02*
X85100000Y-82820000D01*
X85100000Y-86500000D02*
X85100000Y-85320000D01*
X88700000Y-77500000D02*
X88700000Y-78680000D01*
X88700000Y-80320000D02*
X88700000Y-81180000D01*
X88700000Y-82820000D02*
X88700000Y-83680000D01*
X88700000Y-85320000D02*
X88700000Y-86500000D01*
X88700000Y-86500000D02*
X85100000Y-86500000D01*
D11*
X84500000Y-78500000D02*
G75*
G02*
X84300000Y-78500000I-100000J0D01*
G01*
X84300000Y-78500000D02*
G75*
G02*
X84500000Y-78500000I100000J0D01*
G01*
D16*
%TO.C,S2*%
X75600000Y-77500000D02*
X79200000Y-77500000D01*
X75600000Y-78680000D02*
X75600000Y-77500000D01*
X75600000Y-81180000D02*
X75600000Y-80320000D01*
X75600000Y-83680000D02*
X75600000Y-82820000D01*
X75600000Y-86500000D02*
X75600000Y-85320000D01*
X79200000Y-77500000D02*
X79200000Y-78680000D01*
X79200000Y-80320000D02*
X79200000Y-81180000D01*
X79200000Y-82820000D02*
X79200000Y-83680000D01*
X79200000Y-85320000D02*
X79200000Y-86500000D01*
X79200000Y-86500000D02*
X75600000Y-86500000D01*
D11*
X75000000Y-78500000D02*
G75*
G02*
X74800000Y-78500000I-100000J0D01*
G01*
X74800000Y-78500000D02*
G75*
G02*
X75000000Y-78500000I100000J0D01*
G01*
D16*
%TO.C,S5*%
X58000000Y-77500000D02*
X61600000Y-77500000D01*
X58000000Y-78680000D02*
X58000000Y-77500000D01*
X58000000Y-81180000D02*
X58000000Y-80320000D01*
X58000000Y-83680000D02*
X58000000Y-82820000D01*
X58000000Y-86500000D02*
X58000000Y-85320000D01*
X61600000Y-77500000D02*
X61600000Y-78680000D01*
X61600000Y-80320000D02*
X61600000Y-81180000D01*
X61600000Y-82820000D02*
X61600000Y-83680000D01*
X61600000Y-85320000D02*
X61600000Y-86500000D01*
X61600000Y-86500000D02*
X58000000Y-86500000D01*
D11*
X57400000Y-78500000D02*
G75*
G02*
X57200000Y-78500000I-100000J0D01*
G01*
X57200000Y-78500000D02*
G75*
G02*
X57400000Y-78500000I100000J0D01*
G01*
D17*
%TO.C,J3*%
X72300000Y-88630000D02*
X87660000Y-88630000D01*
X72300000Y-91230000D02*
X72300000Y-88630000D01*
X72300000Y-93830000D02*
X72300000Y-92500000D01*
X73630000Y-93830000D02*
X72300000Y-93830000D01*
X74900000Y-91230000D02*
X72300000Y-91230000D01*
X74900000Y-93830000D02*
X74900000Y-91230000D01*
X74900000Y-93830000D02*
X87660000Y-93830000D01*
X87660000Y-93830000D02*
X87660000Y-88630000D01*
D16*
%TO.C,S1*%
X70800000Y-77500000D02*
X74400000Y-77500000D01*
X70800000Y-78680000D02*
X70800000Y-77500000D01*
X70800000Y-81180000D02*
X70800000Y-80320000D01*
X70800000Y-83680000D02*
X70800000Y-82820000D01*
X70800000Y-86500000D02*
X70800000Y-85320000D01*
X74400000Y-77500000D02*
X74400000Y-78680000D01*
X74400000Y-80320000D02*
X74400000Y-81180000D01*
X74400000Y-82820000D02*
X74400000Y-83680000D01*
X74400000Y-85320000D02*
X74400000Y-86500000D01*
X74400000Y-86500000D02*
X70800000Y-86500000D01*
D11*
X70200000Y-78500000D02*
G75*
G02*
X70000000Y-78500000I-100000J0D01*
G01*
X70000000Y-78500000D02*
G75*
G02*
X70200000Y-78500000I100000J0D01*
G01*
D16*
%TO.C,S4*%
X80350000Y-77500000D02*
X83950000Y-77500000D01*
X80350000Y-78680000D02*
X80350000Y-77500000D01*
X80350000Y-81180000D02*
X80350000Y-80320000D01*
X80350000Y-83680000D02*
X80350000Y-82820000D01*
X80350000Y-86500000D02*
X80350000Y-85320000D01*
X83950000Y-77500000D02*
X83950000Y-78680000D01*
X83950000Y-80320000D02*
X83950000Y-81180000D01*
X83950000Y-82820000D02*
X83950000Y-83680000D01*
X83950000Y-85320000D02*
X83950000Y-86500000D01*
X83950000Y-86500000D02*
X80350000Y-86500000D01*
D11*
X79750000Y-78500000D02*
G75*
G02*
X79550000Y-78500000I-100000J0D01*
G01*
X79550000Y-78500000D02*
G75*
G02*
X79750000Y-78500000I100000J0D01*
G01*
%TD*%
M02*
