%TF.GenerationSoftware,KiCad,Pcbnew,8.0.1*%
%TF.CreationDate,2024-06-06T08:45:56+08:00*%
%TF.ProjectId,CrazyDonkeyTarmoBoard,4372617a-7944-46f6-9e6b-65795461726d,rev?*%
%TF.SameCoordinates,Original*%
%TF.FileFunction,Copper,L1,Top*%
%TF.FilePolarity,Positive*%
%FSLAX46Y46*%
G04 Gerber Fmt 4.6, Leading zero omitted, Abs format (unit mm)*
G04 Created by KiCad (PCBNEW 8.0.1) date 2024-06-06 08:45:56*
%MOMM*%
%LPD*%
G01*
G04 APERTURE LIST*
%TA.AperFunction,SMDPad,CuDef*%
%ADD10R,1.600000X1.000000*%
%TD*%
%TA.AperFunction,ComponentPad*%
%ADD11C,0.800000*%
%TD*%
%TA.AperFunction,ComponentPad*%
%ADD12C,6.400000*%
%TD*%
%TA.AperFunction,ComponentPad*%
%ADD13R,1.700000X1.700000*%
%TD*%
%TA.AperFunction,ComponentPad*%
%ADD14O,1.700000X1.700000*%
%TD*%
%TA.AperFunction,ViaPad*%
%ADD15C,0.800000*%
%TD*%
%TA.AperFunction,ViaPad*%
%ADD16C,0.600000*%
%TD*%
%TA.AperFunction,Conductor*%
%ADD17C,0.250000*%
%TD*%
%TA.AperFunction,Conductor*%
%ADD18C,0.200000*%
%TD*%
%TA.AperFunction,Conductor*%
%ADD19C,0.300000*%
%TD*%
G04 APERTURE END LIST*
D10*
%TO.P,S6,1*%
%TO.N,GND*%
X101300000Y-79500000D03*
%TO.P,S6,2*%
%TO.N,/P2_V*%
X101300000Y-82000000D03*
%TO.P,S6,3*%
%TO.N,+5V*%
X101300000Y-84500000D03*
%TO.P,S6,5*%
%TO.N,GND*%
X103700000Y-79500000D03*
%TO.P,S6,6*%
X103700000Y-82000000D03*
%TO.P,S6,7*%
X103700000Y-84500000D03*
%TD*%
D11*
%TO.P,H1,1,1*%
%TO.N,GND*%
X99100000Y-90802944D03*
X99802944Y-89105888D03*
X99802944Y-92500000D03*
X101500000Y-88402944D03*
D12*
X101500000Y-90802944D03*
D11*
X101500000Y-93202944D03*
X103197056Y-89105888D03*
X103197056Y-92500000D03*
X103900000Y-90802944D03*
%TD*%
%TO.P,H2,1,1*%
%TO.N,GND*%
X58402944Y-90802944D03*
X59105888Y-89105888D03*
X59105888Y-92500000D03*
X60802944Y-88402944D03*
D12*
X60802944Y-90802944D03*
D11*
X60802944Y-93202944D03*
X62500000Y-89105888D03*
X62500000Y-92500000D03*
X63202944Y-90802944D03*
%TD*%
D10*
%TO.P,S3,1*%
%TO.N,/throttle_in_car*%
X85700000Y-79500000D03*
%TO.P,S3,2*%
%TO.N,/throttle_in*%
X85700000Y-82000000D03*
%TO.P,S3,3*%
%TO.N,/GPIO15{slash}RXD0*%
X85700000Y-84500000D03*
%TO.P,S3,5*%
%TO.N,GND*%
X88100000Y-79500000D03*
%TO.P,S3,6*%
X88100000Y-82000000D03*
%TO.P,S3,7*%
X88100000Y-84500000D03*
%TD*%
%TO.P,S2,1*%
%TO.N,/sterring_in_car*%
X76200000Y-79500000D03*
%TO.P,S2,2*%
%TO.N,/sterring_out*%
X76200000Y-82000000D03*
%TO.P,S2,3*%
%TO.N,/GPIO2{slash}SDA1*%
X76200000Y-84500000D03*
%TO.P,S2,5*%
%TO.N,GND*%
X78600000Y-79500000D03*
%TO.P,S2,6*%
X78600000Y-82000000D03*
%TO.P,S2,7*%
X78600000Y-84500000D03*
%TD*%
%TO.P,S5,1*%
%TO.N,GND*%
X58600000Y-79500000D03*
%TO.P,S5,2*%
X58600000Y-82000000D03*
%TO.P,S5,3*%
X58600000Y-84500000D03*
%TO.P,S5,5*%
X61000000Y-79500000D03*
%TO.P,S5,6*%
%TO.N,/P1_V*%
X61000000Y-82000000D03*
%TO.P,S5,7*%
%TO.N,+5V*%
X61000000Y-84500000D03*
%TD*%
D13*
%TO.P,J3,1,Pin_1*%
%TO.N,unconnected-(J3-Pin_1-Pad1)*%
X73630000Y-92500000D03*
D14*
%TO.P,J3,2,Pin_2*%
%TO.N,+5V*%
X73630000Y-89960000D03*
%TO.P,J3,3,Pin_3*%
%TO.N,/GPIO2{slash}SDA1*%
X76170000Y-92500000D03*
%TO.P,J3,4,Pin_4*%
%TO.N,+5V*%
X76170000Y-89960000D03*
%TO.P,J3,5,Pin_5*%
%TO.N,/GPIO3{slash}SCL1*%
X78710000Y-92500000D03*
%TO.P,J3,6,Pin_6*%
%TO.N,GND*%
X78710000Y-89960000D03*
%TO.P,J3,7,Pin_7*%
%TO.N,/GPIO4{slash}GPCLK0*%
X81250000Y-92500000D03*
%TO.P,J3,8,Pin_8*%
%TO.N,/GPIO14{slash}TXD0*%
X81250000Y-89960000D03*
%TO.P,J3,9,Pin_9*%
%TO.N,GND*%
X83790000Y-92500000D03*
%TO.P,J3,10,Pin_10*%
%TO.N,/GPIO15{slash}RXD0*%
X83790000Y-89960000D03*
%TO.P,J3,11,Pin_11*%
%TO.N,/GPIO17*%
X86330000Y-92500000D03*
%TO.P,J3,12,Pin_12*%
%TO.N,/GPIO18*%
X86330000Y-89960000D03*
%TD*%
D10*
%TO.P,S1,1*%
%TO.N,GND*%
X71400000Y-79500000D03*
%TO.P,S1,2*%
X71400000Y-82000000D03*
%TO.P,S1,3*%
X71400000Y-84500000D03*
%TO.P,S1,5*%
%TO.N,/sterring_in_car*%
X73800000Y-79500000D03*
%TO.P,S1,6*%
%TO.N,/steering_in*%
X73800000Y-82000000D03*
%TO.P,S1,7*%
%TO.N,/GPIO3{slash}SCL1*%
X73800000Y-84500000D03*
%TD*%
%TO.P,S4,1*%
%TO.N,GND*%
X80950000Y-79500000D03*
%TO.P,S4,2*%
X80950000Y-82000000D03*
%TO.P,S4,3*%
X80950000Y-84500000D03*
%TO.P,S4,5*%
%TO.N,/throttle_in_car*%
X83350000Y-79500000D03*
%TO.P,S4,6*%
%TO.N,/throttle_out*%
X83350000Y-82000000D03*
%TO.P,S4,7*%
%TO.N,/GPIO14{slash}TXD0*%
X83350000Y-84500000D03*
%TD*%
D13*
%TO.P,J4,1,Pin_1*%
%TO.N,/GPIO17*%
X98540000Y-83690000D03*
D14*
%TO.P,J4,2,Pin_2*%
%TO.N,/GPIO4{slash}GPCLK0*%
X98540000Y-81150000D03*
%TO.P,J4,3,Pin_3*%
%TO.N,/GPIO18*%
X96000000Y-83690000D03*
%TO.P,J4,4,Pin_4*%
%TO.N,GND*%
X96000000Y-81150000D03*
%TO.P,J4,5,Pin_5*%
%TO.N,/throttle_out*%
X93460000Y-83690000D03*
%TO.P,J4,6,Pin_6*%
%TO.N,/sterring_out*%
X93460000Y-81150000D03*
%TO.P,J4,7,Pin_7*%
%TO.N,/throttle_in*%
X90920000Y-83690000D03*
%TO.P,J4,8,Pin_8*%
%TO.N,/steering_in*%
X90920000Y-81150000D03*
%TD*%
D13*
%TO.P,J2,1,Pin_1*%
%TO.N,+5V*%
X68500000Y-83700000D03*
D14*
%TO.P,J2,2,Pin_2*%
%TO.N,GND*%
X68500000Y-81160000D03*
%TO.P,J2,3,Pin_3*%
%TO.N,+5V*%
X65960000Y-83700000D03*
%TO.P,J2,4,Pin_4*%
%TO.N,GND*%
X65960000Y-81160000D03*
%TO.P,J2,5,Pin_5*%
%TO.N,/P1_V*%
X63420000Y-83700000D03*
%TO.P,J2,6,Pin_6*%
%TO.N,/P2_V*%
X63420000Y-81160000D03*
%TD*%
D15*
%TO.N,GND*%
X87000000Y-78000000D03*
X65500000Y-94000000D03*
X62330000Y-75930000D03*
X100000000Y-74500000D03*
X72000000Y-85500000D03*
X62500000Y-78000000D03*
X73000000Y-78000000D03*
X93500000Y-78000000D03*
X65000000Y-78000000D03*
X89000000Y-91000000D03*
X96000000Y-89000000D03*
X65500000Y-90000000D03*
X90000000Y-86000000D03*
X89225000Y-82150000D03*
X65000000Y-75000000D03*
X81000000Y-86000000D03*
X79775000Y-83200000D03*
X77500000Y-78000000D03*
X89500000Y-88500000D03*
X100000000Y-78000000D03*
X103500000Y-78000000D03*
X58500000Y-78000000D03*
X83000000Y-78000000D03*
X67000000Y-94000000D03*
X80000000Y-94500000D03*
D16*
%TO.N,+5V*%
X60000000Y-83500000D03*
X101900000Y-83900000D03*
%TO.N,/GPIO4{slash}GPCLK0*%
X97500000Y-86000000D03*
%TO.N,/steering_in*%
X74662500Y-80837500D03*
%TO.N,/throttle_in*%
X86250000Y-83000000D03*
%TO.N,/throttle_out*%
X84000000Y-83000000D03*
%TO.N,/P2_V*%
X101000000Y-81000000D03*
%TD*%
D17*
%TO.N,/GPIO3{slash}SCL1*%
X70750000Y-93250000D02*
X70750000Y-88750000D01*
X70750000Y-88750000D02*
X73800000Y-85700000D01*
X76710000Y-94500000D02*
X72000000Y-94500000D01*
X72000000Y-94500000D02*
X70750000Y-93250000D01*
X73800000Y-85700000D02*
X73800000Y-84500000D01*
X78710000Y-92500000D02*
X76710000Y-94500000D01*
%TO.N,+5V*%
X100500000Y-84500000D02*
X101300000Y-84500000D01*
X61000000Y-84500000D02*
X60000000Y-83500000D01*
X101900000Y-83900000D02*
X101300000Y-84500000D01*
X65000000Y-85500000D02*
X62000000Y-85500000D01*
X65960000Y-84540000D02*
X65000000Y-85500000D01*
X65960000Y-83700000D02*
X65960000Y-84540000D01*
X62000000Y-85500000D02*
X61000000Y-84500000D01*
%TO.N,/GPIO14{slash}TXD0*%
X83000000Y-88000000D02*
X83000000Y-84850000D01*
X81250000Y-89960000D02*
X81540000Y-89960000D01*
X81330000Y-89670000D02*
X83000000Y-88000000D01*
X81540000Y-89960000D02*
X81250000Y-89670000D01*
X81250000Y-89670000D02*
X81330000Y-89670000D01*
X83000000Y-84850000D02*
X83350000Y-84500000D01*
%TO.N,/GPIO4{slash}GPCLK0*%
X82750000Y-94000000D02*
X81250000Y-92500000D01*
X89500000Y-94000000D02*
X82750000Y-94000000D01*
X97500000Y-86000000D02*
X89500000Y-94000000D01*
%TO.N,/GPIO2{slash}SDA1*%
X76000000Y-84500000D02*
X76200000Y-84500000D01*
X71500000Y-89200000D02*
X76200000Y-84500000D01*
X76170000Y-92500000D02*
X76170000Y-93080000D01*
X72250000Y-94000000D02*
X71500000Y-93250000D01*
X71500000Y-93250000D02*
X71500000Y-89200000D01*
X76170000Y-93080000D02*
X75250000Y-94000000D01*
X75250000Y-94000000D02*
X72250000Y-94000000D01*
%TO.N,/GPIO15{slash}RXD0*%
X85700000Y-84500000D02*
X85700000Y-84550000D01*
X85700000Y-84550000D02*
X83800000Y-86450000D01*
X83800000Y-86450000D02*
X83800000Y-87336396D01*
X83790000Y-87346396D02*
X83790000Y-89960000D01*
X83800000Y-87336396D02*
X83790000Y-87346396D01*
D18*
%TO.N,/steering_in*%
X73800000Y-81700000D02*
X73800000Y-82000000D01*
X74662500Y-80837500D02*
X73800000Y-81700000D01*
D19*
%TO.N,/sterring_in_car*%
X73800000Y-79500000D02*
X76200000Y-79500000D01*
%TO.N,/throttle_in_car*%
X85700000Y-79500000D02*
X83350000Y-79500000D01*
D17*
%TO.N,/throttle_in*%
X86250000Y-82550000D02*
X85700000Y-82000000D01*
X86250000Y-83000000D02*
X86250000Y-82550000D01*
%TO.N,/throttle_out*%
X84000000Y-83000000D02*
X84000000Y-82650000D01*
X84000000Y-82650000D02*
X83350000Y-82000000D01*
%TO.N,/sterring_out*%
X89000000Y-80750000D02*
X77450000Y-80750000D01*
X93090000Y-80590000D02*
X92000000Y-79500000D01*
X92000000Y-79500000D02*
X90250000Y-79500000D01*
X77450000Y-80750000D02*
X76200000Y-82000000D01*
X90250000Y-79500000D02*
X89000000Y-80750000D01*
X93090000Y-81150000D02*
X93090000Y-80590000D01*
%TO.N,/GPIO18*%
X86330000Y-89960000D02*
X89730000Y-89960000D01*
X89730000Y-89960000D02*
X96000000Y-83690000D01*
%TO.N,/GPIO17*%
X89730000Y-92500000D02*
X98540000Y-83690000D01*
X86330000Y-92500000D02*
X89730000Y-92500000D01*
%TO.N,/P1_V*%
X63420000Y-83700000D02*
X61720000Y-82000000D01*
X61720000Y-82000000D02*
X61000000Y-82000000D01*
%TO.N,/P2_V*%
X101300000Y-81300000D02*
X101000000Y-81000000D01*
X101300000Y-82000000D02*
X101300000Y-81300000D01*
%TD*%
%TA.AperFunction,Conductor*%
%TO.N,/GPIO14{slash}TXD0*%
G36*
X82243510Y-88591119D02*
G01*
X82409905Y-88757514D01*
X82413332Y-88765787D01*
X82412985Y-88768614D01*
X82038576Y-90272115D01*
X82033252Y-90279315D01*
X82024396Y-90280641D01*
X82022757Y-90280102D01*
X81253785Y-89962562D01*
X81247447Y-89956238D01*
X80929051Y-89185192D01*
X80929060Y-89176239D01*
X80935074Y-89170054D01*
X82230449Y-88588717D01*
X82239398Y-88588457D01*
X82243510Y-88591119D01*
G37*
%TD.AperFunction*%
%TD*%
%TA.AperFunction,Conductor*%
%TO.N,/GPIO2{slash}SDA1*%
G36*
X76171148Y-92502719D02*
G01*
X76173696Y-92506533D01*
X76491617Y-93276425D01*
X76491608Y-93285380D01*
X76487297Y-93290624D01*
X75440125Y-93989307D01*
X75431341Y-93991048D01*
X75425358Y-93987847D01*
X75259033Y-93821522D01*
X75255606Y-93813249D01*
X75255618Y-93812718D01*
X75319454Y-92511115D01*
X75323282Y-92503022D01*
X75331128Y-92499990D01*
X76162873Y-92499299D01*
X76171148Y-92502719D01*
G37*
%TD.AperFunction*%
%TD*%
%TA.AperFunction,Conductor*%
%TO.N,/sterring_out*%
G36*
X92467523Y-79786637D02*
G01*
X92852410Y-79955477D01*
X93774797Y-80360103D01*
X93780997Y-80366564D01*
X93780911Y-80375283D01*
X93462562Y-81146214D01*
X93456237Y-81152553D01*
X93456214Y-81152562D01*
X92687133Y-81470147D01*
X92678178Y-81470138D01*
X92671853Y-81463799D01*
X92671339Y-81462259D01*
X92387890Y-80364702D01*
X92285098Y-79966674D01*
X92286347Y-79957808D01*
X92288149Y-79955481D01*
X92454552Y-79789078D01*
X92462824Y-79785652D01*
X92467523Y-79786637D01*
G37*
%TD.AperFunction*%
%TD*%
%TA.AperFunction,Conductor*%
%TO.N,/GPIO15{slash}RXD0*%
G36*
X85700470Y-84502795D02*
G01*
X85704275Y-84507590D01*
X85911576Y-84989642D01*
X85911697Y-84998596D01*
X85905844Y-85004834D01*
X84992289Y-85438403D01*
X84983346Y-85438854D01*
X84979000Y-85436106D01*
X84812194Y-85269300D01*
X84808767Y-85261027D01*
X84808883Y-85259383D01*
X84898771Y-84628973D01*
X84903332Y-84621269D01*
X84908601Y-84619059D01*
X85691778Y-84500643D01*
X85700470Y-84502795D01*
G37*
%TD.AperFunction*%
%TD*%
%TA.AperFunction,Conductor*%
%TO.N,/sterring_in_car*%
G36*
X75406564Y-79004098D02*
G01*
X76185100Y-79490075D01*
X76190304Y-79497363D01*
X76188830Y-79506195D01*
X76185100Y-79509925D01*
X75406564Y-79995901D01*
X75397732Y-79997375D01*
X75393659Y-79995561D01*
X74904990Y-79653493D01*
X74900178Y-79645941D01*
X74900000Y-79643908D01*
X74900000Y-79356092D01*
X74903427Y-79347819D01*
X74904990Y-79346507D01*
X75393660Y-79004437D01*
X75402402Y-79002501D01*
X75406564Y-79004098D01*
G37*
%TD.AperFunction*%
%TD*%
%TA.AperFunction,Conductor*%
%TO.N,/steering_in*%
G36*
X74289115Y-81082009D02*
G01*
X74423309Y-81216203D01*
X74424974Y-81218301D01*
X74593843Y-81490090D01*
X74595298Y-81498926D01*
X74590108Y-81506185D01*
X73809853Y-81994103D01*
X73801022Y-81995584D01*
X73793730Y-81990386D01*
X73793362Y-81989755D01*
X73533624Y-81510127D01*
X73532697Y-81501220D01*
X73538178Y-81494356D01*
X74275109Y-81080082D01*
X74284000Y-81079016D01*
X74289115Y-81082009D01*
G37*
%TD.AperFunction*%
%TD*%
%TA.AperFunction,Conductor*%
%TO.N,+5V*%
G36*
X65964122Y-83702717D02*
G01*
X65964139Y-83702734D01*
X66552011Y-84291990D01*
X66555428Y-84300267D01*
X66551991Y-84308536D01*
X66551226Y-84309234D01*
X65447216Y-85230916D01*
X65438669Y-85233588D01*
X65431445Y-85230208D01*
X65265128Y-85063891D01*
X65261774Y-85056919D01*
X65111452Y-83712987D01*
X65113937Y-83704387D01*
X65121778Y-83700062D01*
X65123066Y-83699989D01*
X65955846Y-83699297D01*
X65964122Y-83702717D01*
G37*
%TD.AperFunction*%
%TD*%
%TA.AperFunction,Conductor*%
%TO.N,+5V*%
G36*
X101813989Y-83814531D02*
G01*
X101816357Y-83816358D01*
X102088525Y-84088526D01*
X102091952Y-84096799D01*
X102088525Y-84105072D01*
X102085488Y-84107262D01*
X101310549Y-84495074D01*
X101301617Y-84495712D01*
X101294850Y-84489847D01*
X101294496Y-84489070D01*
X101132795Y-84096799D01*
X101097996Y-84012379D01*
X101098011Y-84003426D01*
X101104354Y-83997105D01*
X101105835Y-83996607D01*
X101805119Y-83813313D01*
X101813989Y-83814531D01*
G37*
%TD.AperFunction*%
%TD*%
%TA.AperFunction,Conductor*%
%TO.N,/sterring_in_car*%
G36*
X74606340Y-79004438D02*
G01*
X75095010Y-79346507D01*
X75099822Y-79354059D01*
X75100000Y-79356092D01*
X75100000Y-79643908D01*
X75096573Y-79652181D01*
X75095009Y-79653493D01*
X74606339Y-79995561D01*
X74597597Y-79997498D01*
X74593435Y-79995901D01*
X74039300Y-79650000D01*
X73814898Y-79509924D01*
X73809695Y-79502637D01*
X73811169Y-79493805D01*
X73814897Y-79490076D01*
X74593435Y-79004097D01*
X74602267Y-79002624D01*
X74606340Y-79004438D01*
G37*
%TD.AperFunction*%
%TD*%
%TA.AperFunction,Conductor*%
%TO.N,/GPIO3{slash}SCL1*%
G36*
X77936106Y-92179428D02*
G01*
X78706215Y-92497438D01*
X78712552Y-92503761D01*
X78712562Y-92503785D01*
X79030567Y-93273883D01*
X79030558Y-93282838D01*
X79024219Y-93289163D01*
X79023629Y-93289388D01*
X77603251Y-93788031D01*
X77594309Y-93787539D01*
X77591102Y-93785265D01*
X77424734Y-93618897D01*
X77421307Y-93610624D01*
X77421968Y-93606748D01*
X77533461Y-93289163D01*
X77920612Y-92186368D01*
X77926584Y-92179699D01*
X77935526Y-92179207D01*
X77936106Y-92179428D01*
G37*
%TD.AperFunction*%
%TD*%
%TA.AperFunction,Conductor*%
%TO.N,/GPIO17*%
G36*
X86665836Y-91719791D02*
G01*
X86666413Y-91720049D01*
X88023366Y-92371814D01*
X88029339Y-92378484D01*
X88030000Y-92382360D01*
X88030000Y-92617639D01*
X88026573Y-92625912D01*
X88023366Y-92628186D01*
X86666413Y-93279950D01*
X86657471Y-93280442D01*
X86650800Y-93274469D01*
X86650542Y-93273892D01*
X86330865Y-92504489D01*
X86330856Y-92495534D01*
X86330865Y-92495511D01*
X86650542Y-91726107D01*
X86656881Y-91719782D01*
X86665836Y-91719791D01*
G37*
%TD.AperFunction*%
%TD*%
%TA.AperFunction,Conductor*%
%TO.N,/GPIO17*%
G36*
X97700849Y-83342399D02*
G01*
X98536216Y-83687438D01*
X98542553Y-83693763D01*
X98542562Y-83693784D01*
X98887573Y-84529083D01*
X98887564Y-84538038D01*
X98881226Y-84544364D01*
X98881124Y-84544405D01*
X97184520Y-85226545D01*
X97175565Y-85226452D01*
X97171882Y-85223963D01*
X97006036Y-85058117D01*
X97002609Y-85049844D01*
X97003453Y-85045483D01*
X97685595Y-83348873D01*
X97691859Y-83342478D01*
X97700814Y-83342385D01*
X97700849Y-83342399D01*
G37*
%TD.AperFunction*%
%TD*%
%TA.AperFunction,Conductor*%
%TO.N,/GPIO4{slash}GPCLK0*%
G36*
X82032838Y-92179441D02*
G01*
X82039163Y-92185780D01*
X82039388Y-92186370D01*
X82538031Y-93606748D01*
X82537539Y-93615690D01*
X82535265Y-93618897D01*
X82368897Y-93785265D01*
X82360624Y-93788692D01*
X82356748Y-93788031D01*
X80936370Y-93289388D01*
X80929699Y-93283415D01*
X80929207Y-93274473D01*
X80929423Y-93273905D01*
X81247438Y-92503783D01*
X81253759Y-92497448D01*
X82023884Y-92179432D01*
X82032838Y-92179441D01*
G37*
%TD.AperFunction*%
%TD*%
%TA.AperFunction,Conductor*%
%TO.N,/P1_V*%
G36*
X61801199Y-81769541D02*
G01*
X61804866Y-81772696D01*
X62235729Y-82337029D01*
X62238026Y-82345684D01*
X62234703Y-82352402D01*
X62068684Y-82518421D01*
X62060411Y-82521848D01*
X62060189Y-82521846D01*
X60923924Y-82500260D01*
X60915717Y-82496677D01*
X60912448Y-82488340D01*
X60912625Y-82486525D01*
X60998020Y-82006445D01*
X61002843Y-81998902D01*
X61006264Y-81997264D01*
X61792300Y-81768562D01*
X61801199Y-81769541D01*
G37*
%TD.AperFunction*%
%TD*%
%TA.AperFunction,Conductor*%
%TO.N,/throttle_in_car*%
G36*
X84906564Y-79004098D02*
G01*
X85685100Y-79490075D01*
X85690304Y-79497363D01*
X85688830Y-79506195D01*
X85685100Y-79509925D01*
X84906564Y-79995901D01*
X84897732Y-79997375D01*
X84893659Y-79995561D01*
X84404990Y-79653493D01*
X84400178Y-79645941D01*
X84400000Y-79643908D01*
X84400000Y-79356092D01*
X84403427Y-79347819D01*
X84404990Y-79346507D01*
X84893660Y-79004437D01*
X84902402Y-79002501D01*
X84906564Y-79004098D01*
G37*
%TD.AperFunction*%
%TD*%
%TA.AperFunction,Conductor*%
%TO.N,/throttle_in*%
G36*
X86237910Y-82366504D02*
G01*
X86239860Y-82369086D01*
X86520795Y-82873755D01*
X86521825Y-82882651D01*
X86516263Y-82889669D01*
X86515083Y-82890242D01*
X86255206Y-82998827D01*
X86246251Y-82998854D01*
X86246204Y-82998835D01*
X85982001Y-82889004D01*
X85975677Y-82882664D01*
X85975101Y-82875530D01*
X86054785Y-82535568D01*
X86057901Y-82529967D01*
X86221365Y-82366503D01*
X86229637Y-82363077D01*
X86237910Y-82366504D01*
G37*
%TD.AperFunction*%
%TD*%
%TA.AperFunction,Conductor*%
%TO.N,/GPIO15{slash}RXD0*%
G36*
X83915912Y-88263427D02*
G01*
X83918186Y-88266634D01*
X84569950Y-89623586D01*
X84570442Y-89632528D01*
X84564469Y-89639199D01*
X84563892Y-89639457D01*
X83794489Y-89959134D01*
X83785534Y-89959143D01*
X83785511Y-89959134D01*
X83016107Y-89639457D01*
X83009782Y-89633118D01*
X83009791Y-89624163D01*
X83010049Y-89623586D01*
X83661814Y-88266634D01*
X83668485Y-88260661D01*
X83672361Y-88260000D01*
X83907639Y-88260000D01*
X83915912Y-88263427D01*
G37*
%TD.AperFunction*%
%TD*%
%TA.AperFunction,Conductor*%
%TO.N,/throttle_in_car*%
G36*
X84156340Y-79004438D02*
G01*
X84645010Y-79346507D01*
X84649822Y-79354059D01*
X84650000Y-79356092D01*
X84650000Y-79643908D01*
X84646573Y-79652181D01*
X84645009Y-79653493D01*
X84156339Y-79995561D01*
X84147597Y-79997498D01*
X84143435Y-79995901D01*
X83589300Y-79650000D01*
X83364898Y-79509924D01*
X83359695Y-79502637D01*
X83361169Y-79493805D01*
X83364897Y-79490076D01*
X84143435Y-79004097D01*
X84152267Y-79002624D01*
X84156340Y-79004438D01*
G37*
%TD.AperFunction*%
%TD*%
%TA.AperFunction,Conductor*%
%TO.N,+5V*%
G36*
X61791648Y-84591917D02*
G01*
X61799467Y-84596281D01*
X61801737Y-84601121D01*
X61940630Y-85258960D01*
X61938986Y-85267763D01*
X61937455Y-85269650D01*
X61770897Y-85436208D01*
X61762624Y-85439635D01*
X61757784Y-85438586D01*
X60803171Y-85004671D01*
X60797058Y-84998129D01*
X60797195Y-84989563D01*
X60995917Y-84507481D01*
X61002237Y-84501140D01*
X61008089Y-84500321D01*
X61791648Y-84591917D01*
G37*
%TD.AperFunction*%
%TD*%
%TA.AperFunction,Conductor*%
%TO.N,/GPIO2{slash}SDA1*%
G36*
X76200523Y-84502764D02*
G01*
X76204083Y-84507483D01*
X76402803Y-84989562D01*
X76402788Y-84998517D01*
X76396827Y-85004672D01*
X75442216Y-85438586D01*
X75433267Y-85438890D01*
X75429102Y-85436208D01*
X75262544Y-85269650D01*
X75259117Y-85261377D01*
X75259369Y-85258960D01*
X75398263Y-84601118D01*
X75403324Y-84593734D01*
X75408349Y-84591917D01*
X76191909Y-84500321D01*
X76200523Y-84502764D01*
G37*
%TD.AperFunction*%
%TD*%
%TA.AperFunction,Conductor*%
%TO.N,/sterring_out*%
G36*
X76970897Y-81063791D02*
G01*
X77137455Y-81230349D01*
X77140882Y-81238622D01*
X77140630Y-81241039D01*
X77001737Y-81898878D01*
X76996675Y-81906265D01*
X76991647Y-81908082D01*
X76208091Y-81999678D01*
X76199476Y-81997235D01*
X76195917Y-81992517D01*
X75997196Y-81510436D01*
X75997211Y-81501482D01*
X76003169Y-81495329D01*
X76957786Y-81061412D01*
X76966732Y-81061109D01*
X76970897Y-81063791D01*
G37*
%TD.AperFunction*%
%TD*%
%TA.AperFunction,Conductor*%
%TO.N,/GPIO3{slash}SCL1*%
G36*
X73808264Y-84507280D02*
G01*
X74115641Y-84815272D01*
X74292838Y-84992824D01*
X74296257Y-85001101D01*
X74293917Y-85008109D01*
X73928510Y-85495320D01*
X73920805Y-85499882D01*
X73919150Y-85500000D01*
X73680850Y-85500000D01*
X73672577Y-85496573D01*
X73671490Y-85495320D01*
X73306082Y-85008109D01*
X73303860Y-84999434D01*
X73307160Y-84992825D01*
X73791719Y-84507296D01*
X73799988Y-84503862D01*
X73808264Y-84507280D01*
G37*
%TD.AperFunction*%
%TD*%
%TA.AperFunction,Conductor*%
%TO.N,/P1_V*%
G36*
X62313251Y-82411968D02*
G01*
X62795027Y-82581102D01*
X63733629Y-82910611D01*
X63740300Y-82916584D01*
X63740792Y-82925526D01*
X63740567Y-82926116D01*
X63422562Y-83696214D01*
X63416237Y-83702553D01*
X63416214Y-83702562D01*
X62646116Y-84020567D01*
X62637161Y-84020558D01*
X62630836Y-84014219D01*
X62630611Y-84013629D01*
X62520755Y-83700707D01*
X62244818Y-82914702D01*
X62131968Y-82593251D01*
X62132460Y-82584309D01*
X62134731Y-82581105D01*
X62301103Y-82414733D01*
X62309375Y-82411307D01*
X62313251Y-82411968D01*
G37*
%TD.AperFunction*%
%TD*%
%TA.AperFunction,Conductor*%
%TO.N,/throttle_out*%
G36*
X83359929Y-82005261D02*
G01*
X83360728Y-82005718D01*
X84144134Y-82496326D01*
X84149327Y-82503621D01*
X84149605Y-82506909D01*
X84125630Y-82926835D01*
X84121737Y-82934899D01*
X84113949Y-82937868D01*
X83878038Y-82937868D01*
X83872346Y-82936390D01*
X83098664Y-82505538D01*
X83093103Y-82498519D01*
X83093981Y-82489908D01*
X83344146Y-82010223D01*
X83351009Y-82004474D01*
X83359929Y-82005261D01*
G37*
%TD.AperFunction*%
%TD*%
%TA.AperFunction,Conductor*%
%TO.N,/GPIO14{slash}TXD0*%
G36*
X83356757Y-84508550D02*
G01*
X83356772Y-84508570D01*
X83698370Y-84991325D01*
X83700351Y-85000058D01*
X83696462Y-85006941D01*
X83128294Y-85497158D01*
X83120651Y-85500000D01*
X82882498Y-85500000D01*
X82874225Y-85496573D01*
X82871868Y-85493187D01*
X82858719Y-85464585D01*
X82649189Y-85008805D01*
X82648847Y-84999859D01*
X82653040Y-84994385D01*
X83340444Y-84505791D01*
X83349171Y-84503792D01*
X83356757Y-84508550D01*
G37*
%TD.AperFunction*%
%TD*%
%TA.AperFunction,Conductor*%
%TO.N,/throttle_in*%
G36*
X85709917Y-82005218D02*
G01*
X85710232Y-82005408D01*
X86492721Y-82495441D01*
X86497914Y-82502736D01*
X86497832Y-82508310D01*
X86377281Y-82970543D01*
X86371878Y-82977683D01*
X86365960Y-82979290D01*
X86128550Y-82979290D01*
X86122049Y-82977318D01*
X85420205Y-82508310D01*
X85416919Y-82506114D01*
X85411946Y-82498669D01*
X85413314Y-82490494D01*
X85693917Y-82009427D01*
X85701044Y-82004009D01*
X85709917Y-82005218D01*
G37*
%TD.AperFunction*%
%TD*%
%TA.AperFunction,Conductor*%
%TO.N,+5V*%
G36*
X60242211Y-83561412D02*
G01*
X61196828Y-83995328D01*
X61202941Y-84001870D01*
X61202803Y-84010437D01*
X61004083Y-84492516D01*
X60997762Y-84498859D01*
X60991908Y-84499678D01*
X60208352Y-84408082D01*
X60200532Y-84403718D01*
X60198263Y-84398880D01*
X60059369Y-83741039D01*
X60061013Y-83732236D01*
X60062539Y-83730354D01*
X60229103Y-83563790D01*
X60237375Y-83560364D01*
X60242211Y-83561412D01*
G37*
%TD.AperFunction*%
%TD*%
%TA.AperFunction,Conductor*%
%TO.N,/GPIO18*%
G36*
X95226106Y-83369428D02*
G01*
X95996215Y-83687438D01*
X96002552Y-83693761D01*
X96002562Y-83693785D01*
X96320567Y-84463883D01*
X96320558Y-84472838D01*
X96314219Y-84479163D01*
X96313629Y-84479388D01*
X94893251Y-84978031D01*
X94884309Y-84977539D01*
X94881102Y-84975265D01*
X94714734Y-84808897D01*
X94711307Y-84800624D01*
X94711968Y-84796748D01*
X94823461Y-84479163D01*
X95210612Y-83376368D01*
X95216584Y-83369699D01*
X95225526Y-83369207D01*
X95226106Y-83369428D01*
G37*
%TD.AperFunction*%
%TD*%
%TA.AperFunction,Conductor*%
%TO.N,/P2_V*%
G36*
X101184526Y-81007423D02*
G01*
X101689703Y-81492633D01*
X101693296Y-81500835D01*
X101690769Y-81508336D01*
X101307983Y-81991522D01*
X101300159Y-81995879D01*
X101291547Y-81993428D01*
X101291533Y-81993417D01*
X100680901Y-81508224D01*
X100676556Y-81500395D01*
X100679020Y-81491785D01*
X100679960Y-81490738D01*
X100999480Y-81176257D01*
X101168149Y-81007587D01*
X101176421Y-81004161D01*
X101184526Y-81007423D01*
G37*
%TD.AperFunction*%
%TD*%
%TA.AperFunction,Conductor*%
%TO.N,/GPIO18*%
G36*
X86665836Y-89179791D02*
G01*
X86666413Y-89180049D01*
X88023366Y-89831814D01*
X88029339Y-89838484D01*
X88030000Y-89842360D01*
X88030000Y-90077639D01*
X88026573Y-90085912D01*
X88023366Y-90088186D01*
X86666413Y-90739950D01*
X86657471Y-90740442D01*
X86650800Y-90734469D01*
X86650542Y-90733892D01*
X86330865Y-89964489D01*
X86330856Y-89955534D01*
X86330865Y-89955511D01*
X86650542Y-89186107D01*
X86656881Y-89179782D01*
X86665836Y-89179791D01*
G37*
%TD.AperFunction*%
%TD*%
%TA.AperFunction,Conductor*%
%TO.N,GND*%
G36*
X104505512Y-71501121D02*
G01*
X104600073Y-71511775D01*
X104621669Y-71516705D01*
X104706202Y-71546283D01*
X104726168Y-71555899D01*
X104764079Y-71579720D01*
X104801987Y-71603540D01*
X104819319Y-71617361D01*
X104882638Y-71680680D01*
X104896459Y-71698012D01*
X104944098Y-71773828D01*
X104953718Y-71793803D01*
X104983293Y-71878326D01*
X104988225Y-71899938D01*
X104998877Y-71994470D01*
X104999500Y-72005555D01*
X104999500Y-94744444D01*
X104998877Y-94755529D01*
X104988225Y-94850061D01*
X104983293Y-94871673D01*
X104953718Y-94956196D01*
X104944098Y-94976171D01*
X104896459Y-95051987D01*
X104882638Y-95069319D01*
X104819319Y-95132638D01*
X104801987Y-95146459D01*
X104726171Y-95194098D01*
X104706196Y-95203718D01*
X104621673Y-95233293D01*
X104600061Y-95238225D01*
X104505529Y-95248877D01*
X104494444Y-95249500D01*
X57755556Y-95249500D01*
X57744471Y-95248877D01*
X57649938Y-95238225D01*
X57628326Y-95233293D01*
X57543803Y-95203718D01*
X57523828Y-95194098D01*
X57448012Y-95146459D01*
X57430680Y-95132638D01*
X57367361Y-95069319D01*
X57353540Y-95051987D01*
X57305901Y-94976171D01*
X57296283Y-94956202D01*
X57266705Y-94871669D01*
X57261775Y-94850073D01*
X57251121Y-94755512D01*
X57250500Y-94744444D01*
X57250500Y-93306018D01*
X70324500Y-93306018D01*
X70327349Y-93316650D01*
X70353498Y-93414241D01*
X70406530Y-93506093D01*
X70409515Y-93511263D01*
X71738737Y-94840485D01*
X71755323Y-94850061D01*
X71835759Y-94896501D01*
X71835757Y-94896501D01*
X71835761Y-94896502D01*
X71835763Y-94896503D01*
X71943982Y-94925500D01*
X71943984Y-94925500D01*
X76766016Y-94925500D01*
X76766018Y-94925500D01*
X76874237Y-94896503D01*
X76874239Y-94896501D01*
X76874241Y-94896501D01*
X76917244Y-94871673D01*
X76971263Y-94840485D01*
X77736306Y-94075440D01*
X77773513Y-94052036D01*
X79124824Y-93577641D01*
X79132486Y-93574836D01*
X79133076Y-93574611D01*
X79133077Y-93574610D01*
X79133089Y-93574606D01*
X79140795Y-93571442D01*
X79147308Y-93568769D01*
X79152624Y-93565135D01*
X79172710Y-93554561D01*
X79225019Y-93534298D01*
X79406302Y-93422052D01*
X79563872Y-93278407D01*
X79692366Y-93108255D01*
X79787405Y-92917389D01*
X79845756Y-92712310D01*
X79865429Y-92500000D01*
X80094571Y-92500000D01*
X80114244Y-92712310D01*
X80172595Y-92917389D01*
X80267634Y-93108255D01*
X80396128Y-93278407D01*
X80426416Y-93306018D01*
X80553692Y-93422047D01*
X80553699Y-93422053D01*
X80577008Y-93436485D01*
X80734981Y-93534298D01*
X80792547Y-93556599D01*
X80804070Y-93561063D01*
X80817703Y-93567581D01*
X80835175Y-93577641D01*
X82186485Y-94052036D01*
X82223696Y-94075443D01*
X82409513Y-94261260D01*
X82409515Y-94261263D01*
X82488737Y-94340485D01*
X82488739Y-94340486D01*
X82585759Y-94396501D01*
X82585757Y-94396501D01*
X82585761Y-94396502D01*
X82585763Y-94396503D01*
X82693981Y-94425500D01*
X82693982Y-94425500D01*
X82693983Y-94425500D01*
X89556016Y-94425500D01*
X89556018Y-94425500D01*
X89664237Y-94396503D01*
X89664239Y-94396501D01*
X89664241Y-94396501D01*
X89693064Y-94379859D01*
X89761263Y-94340485D01*
X97471708Y-86630038D01*
X97526223Y-86602263D01*
X97528723Y-86601900D01*
X97656762Y-86585044D01*
X97802841Y-86524536D01*
X97928282Y-86428282D01*
X98024536Y-86302841D01*
X98085044Y-86156762D01*
X98105682Y-86000000D01*
X98085044Y-85843238D01*
X98048917Y-85756019D01*
X98024537Y-85697161D01*
X98024537Y-85697160D01*
X97928286Y-85571723D01*
X97928285Y-85571722D01*
X97928282Y-85571718D01*
X97928277Y-85571714D01*
X97928276Y-85571713D01*
X97797693Y-85471514D01*
X97799384Y-85469310D01*
X97766247Y-85432461D01*
X97759889Y-85371607D01*
X97790515Y-85318638D01*
X97819777Y-85300399D01*
X98938760Y-84850500D01*
X98945861Y-84847645D01*
X98982792Y-84840499D01*
X99434861Y-84840499D01*
X99434864Y-84840499D01*
X99459991Y-84837585D01*
X99562765Y-84792206D01*
X99642206Y-84712765D01*
X99687585Y-84609991D01*
X99690500Y-84584865D01*
X99690500Y-84556018D01*
X100074500Y-84556018D01*
X100094172Y-84629435D01*
X100103498Y-84664241D01*
X100149870Y-84744558D01*
X100159515Y-84761263D01*
X100170505Y-84772253D01*
X100198281Y-84826768D01*
X100199500Y-84842255D01*
X100199500Y-85044861D01*
X100199501Y-85044864D01*
X100202414Y-85069990D01*
X100225491Y-85122254D01*
X100247794Y-85172765D01*
X100327235Y-85252206D01*
X100430009Y-85297585D01*
X100455135Y-85300500D01*
X102144864Y-85300499D01*
X102169991Y-85297585D01*
X102272765Y-85252206D01*
X102352206Y-85172765D01*
X102397585Y-85069991D01*
X102400500Y-85044865D01*
X102400499Y-84267771D01*
X102419406Y-84209581D01*
X102420960Y-84207501D01*
X102424536Y-84202841D01*
X102485044Y-84056762D01*
X102505682Y-83900000D01*
X102505158Y-83896023D01*
X102492891Y-83802841D01*
X102485044Y-83743238D01*
X102485042Y-83743233D01*
X102424537Y-83597161D01*
X102424537Y-83597160D01*
X102328286Y-83471723D01*
X102328285Y-83471722D01*
X102328282Y-83471718D01*
X102328277Y-83471714D01*
X102328276Y-83471713D01*
X102202838Y-83375462D01*
X102056766Y-83314957D01*
X102056758Y-83314955D01*
X101900001Y-83294318D01*
X101899999Y-83294318D01*
X101743241Y-83314955D01*
X101743233Y-83314957D01*
X101597161Y-83375462D01*
X101597160Y-83375462D01*
X101471723Y-83471713D01*
X101471717Y-83471719D01*
X101383664Y-83586472D01*
X101333239Y-83621127D01*
X101330224Y-83621969D01*
X101046779Y-83696265D01*
X101021677Y-83699500D01*
X100455139Y-83699500D01*
X100455136Y-83699501D01*
X100430009Y-83702414D01*
X100327235Y-83747794D01*
X100247794Y-83827235D01*
X100202414Y-83930011D01*
X100199500Y-83955130D01*
X100199500Y-84157744D01*
X100180593Y-84215935D01*
X100170506Y-84227745D01*
X100159514Y-84238736D01*
X100103498Y-84335758D01*
X100103497Y-84335763D01*
X100074500Y-84443982D01*
X100074500Y-84556018D01*
X99690500Y-84556018D01*
X99690499Y-82795136D01*
X99687585Y-82770009D01*
X99642206Y-82667235D01*
X99562765Y-82587794D01*
X99465528Y-82544860D01*
X100199500Y-82544860D01*
X100199501Y-82544863D01*
X100202414Y-82569990D01*
X100225536Y-82622356D01*
X100247794Y-82672765D01*
X100327235Y-82752206D01*
X100430009Y-82797585D01*
X100455135Y-82800500D01*
X102144864Y-82800499D01*
X102169991Y-82797585D01*
X102272765Y-82752206D01*
X102352206Y-82672765D01*
X102397585Y-82569991D01*
X102400500Y-82544865D01*
X102400499Y-81455136D01*
X102397585Y-81430009D01*
X102352206Y-81327235D01*
X102272765Y-81247794D01*
X102169991Y-81202415D01*
X102169990Y-81202414D01*
X102169988Y-81202414D01*
X102144869Y-81199500D01*
X102144865Y-81199500D01*
X101865371Y-81199500D01*
X101807180Y-81180593D01*
X101796793Y-81171900D01*
X101628966Y-81010705D01*
X101600096Y-80956762D01*
X101599396Y-80952259D01*
X101585044Y-80843238D01*
X101539221Y-80732611D01*
X101524537Y-80697161D01*
X101524537Y-80697160D01*
X101428286Y-80571723D01*
X101428285Y-80571722D01*
X101428282Y-80571718D01*
X101428277Y-80571714D01*
X101428276Y-80571713D01*
X101302838Y-80475462D01*
X101156766Y-80414957D01*
X101156758Y-80414955D01*
X101000001Y-80394318D01*
X100999999Y-80394318D01*
X100843241Y-80414955D01*
X100843233Y-80414957D01*
X100697161Y-80475462D01*
X100697160Y-80475462D01*
X100571723Y-80571713D01*
X100571713Y-80571723D01*
X100475462Y-80697160D01*
X100475462Y-80697161D01*
X100414957Y-80843233D01*
X100414955Y-80843241D01*
X100394318Y-80999999D01*
X100394318Y-81000000D01*
X100411782Y-81132658D01*
X100400632Y-81192819D01*
X100356249Y-81234936D01*
X100353619Y-81236144D01*
X100327236Y-81247793D01*
X100247794Y-81327235D01*
X100202414Y-81430011D01*
X100199500Y-81455130D01*
X100199500Y-82544860D01*
X99465528Y-82544860D01*
X99459991Y-82542415D01*
X99459990Y-82542414D01*
X99459988Y-82542414D01*
X99434868Y-82539500D01*
X97645139Y-82539500D01*
X97645136Y-82539501D01*
X97620009Y-82542414D01*
X97517235Y-82587794D01*
X97437794Y-82667235D01*
X97392414Y-82770011D01*
X97389500Y-82795130D01*
X97389500Y-83247206D01*
X97382354Y-83284137D01*
X97313609Y-83455118D01*
X97274359Y-83502055D01*
X97215016Y-83516957D01*
X97158247Y-83494133D01*
X97126534Y-83445280D01*
X97121699Y-83428286D01*
X97077405Y-83272611D01*
X96982366Y-83081745D01*
X96853872Y-82911593D01*
X96799623Y-82862139D01*
X96696307Y-82767952D01*
X96696300Y-82767946D01*
X96515024Y-82655705D01*
X96515019Y-82655702D01*
X96471741Y-82638936D01*
X96316198Y-82578679D01*
X96316197Y-82578678D01*
X96316195Y-82578678D01*
X96106610Y-82539500D01*
X95893390Y-82539500D01*
X95683804Y-82578678D01*
X95484980Y-82655702D01*
X95484975Y-82655705D01*
X95303699Y-82767946D01*
X95303692Y-82767952D01*
X95146135Y-82911586D01*
X95146131Y-82911589D01*
X95146128Y-82911593D01*
X95146125Y-82911597D01*
X95017635Y-83081743D01*
X95017630Y-83081752D01*
X94922593Y-83272613D01*
X94920572Y-83279715D01*
X94918767Y-83285399D01*
X94799274Y-83625775D01*
X94762159Y-83674418D01*
X94703541Y-83691955D01*
X94645809Y-83671688D01*
X94611017Y-83621357D01*
X94607285Y-83602121D01*
X94595756Y-83477690D01*
X94537405Y-83272611D01*
X94442366Y-83081745D01*
X94313872Y-82911593D01*
X94259623Y-82862139D01*
X94156307Y-82767952D01*
X94156300Y-82767946D01*
X93975024Y-82655705D01*
X93975019Y-82655702D01*
X93931741Y-82638936D01*
X93776198Y-82578679D01*
X93776197Y-82578678D01*
X93776195Y-82578678D01*
X93566610Y-82539500D01*
X93353390Y-82539500D01*
X93143804Y-82578678D01*
X92944980Y-82655702D01*
X92944975Y-82655705D01*
X92763699Y-82767946D01*
X92763692Y-82767952D01*
X92606135Y-82911586D01*
X92606131Y-82911589D01*
X92606128Y-82911593D01*
X92606125Y-82911597D01*
X92477635Y-83081743D01*
X92477630Y-83081752D01*
X92382596Y-83272608D01*
X92382595Y-83272611D01*
X92376419Y-83294318D01*
X92324244Y-83477688D01*
X92304571Y-83690000D01*
X92324244Y-83902311D01*
X92339275Y-83955139D01*
X92382595Y-84107389D01*
X92477634Y-84298255D01*
X92606128Y-84468407D01*
X92658068Y-84515757D01*
X92763692Y-84612047D01*
X92763699Y-84612053D01*
X92817639Y-84645451D01*
X92944981Y-84724298D01*
X93143802Y-84801321D01*
X93353390Y-84840500D01*
X93566610Y-84840500D01*
X93776198Y-84801321D01*
X93975019Y-84724298D01*
X94156302Y-84612052D01*
X94302522Y-84478753D01*
X94358260Y-84453524D01*
X94418186Y-84465876D01*
X94459407Y-84511092D01*
X94466178Y-84571901D01*
X94462627Y-84584709D01*
X94447961Y-84626485D01*
X94424554Y-84663696D01*
X89582748Y-89505504D01*
X89528231Y-89533281D01*
X89512744Y-89534500D01*
X88132515Y-89534500D01*
X88089652Y-89524740D01*
X86858578Y-88933436D01*
X86849327Y-88928369D01*
X86845022Y-88925704D01*
X86845019Y-88925702D01*
X86845017Y-88925701D01*
X86845015Y-88925700D01*
X86835477Y-88922005D01*
X86828379Y-88918931D01*
X86798666Y-88904659D01*
X86791096Y-88901149D01*
X86790544Y-88900902D01*
X86776482Y-88895031D01*
X86766604Y-88893174D01*
X86764793Y-88892834D01*
X86747322Y-88887854D01*
X86646201Y-88848680D01*
X86646199Y-88848679D01*
X86646198Y-88848679D01*
X86646194Y-88848678D01*
X86646189Y-88848677D01*
X86436610Y-88809500D01*
X86223390Y-88809500D01*
X86013804Y-88848678D01*
X85814980Y-88925702D01*
X85814975Y-88925705D01*
X85633699Y-89037946D01*
X85633692Y-89037952D01*
X85476135Y-89181586D01*
X85476131Y-89181589D01*
X85476128Y-89181593D01*
X85476125Y-89181597D01*
X85347635Y-89351743D01*
X85347630Y-89351752D01*
X85252596Y-89542608D01*
X85194244Y-89747688D01*
X85194244Y-89747690D01*
X85174571Y-89960000D01*
X85194244Y-90172310D01*
X85252595Y-90377389D01*
X85347634Y-90568255D01*
X85476128Y-90738407D01*
X85476135Y-90738413D01*
X85633692Y-90882047D01*
X85633699Y-90882053D01*
X85737389Y-90946255D01*
X85814981Y-90994298D01*
X86013802Y-91071321D01*
X86223390Y-91110500D01*
X86436610Y-91110500D01*
X86646198Y-91071321D01*
X86767673Y-91024261D01*
X86777698Y-91020981D01*
X86798683Y-91015332D01*
X86828404Y-91001055D01*
X86835470Y-90997996D01*
X86845019Y-90994298D01*
X86849326Y-90991630D01*
X86858571Y-90986565D01*
X88089654Y-90395260D01*
X88132517Y-90385500D01*
X89786016Y-90385500D01*
X89786018Y-90385500D01*
X89894237Y-90356503D01*
X89894239Y-90356501D01*
X89894241Y-90356501D01*
X89923064Y-90339859D01*
X89991263Y-90300485D01*
X95026306Y-85265440D01*
X95063513Y-85242036D01*
X96414824Y-84767641D01*
X96422486Y-84764836D01*
X96423076Y-84764611D01*
X96423077Y-84764610D01*
X96423089Y-84764606D01*
X96431232Y-84761263D01*
X96437308Y-84758769D01*
X96442624Y-84755135D01*
X96462710Y-84744561D01*
X96515019Y-84724298D01*
X96642361Y-84645450D01*
X96701788Y-84630892D01*
X96758423Y-84654045D01*
X96790634Y-84706066D01*
X96786331Y-84766553D01*
X96743200Y-84873827D01*
X96721350Y-84906900D01*
X89582748Y-92045504D01*
X89528231Y-92073281D01*
X89512744Y-92074500D01*
X88132515Y-92074500D01*
X88089652Y-92064740D01*
X86858578Y-91473436D01*
X86849327Y-91468369D01*
X86845022Y-91465704D01*
X86845019Y-91465702D01*
X86845017Y-91465701D01*
X86845015Y-91465700D01*
X86835477Y-91462005D01*
X86828379Y-91458931D01*
X86798666Y-91444659D01*
X86791096Y-91441149D01*
X86790544Y-91440902D01*
X86776482Y-91435031D01*
X86766604Y-91433174D01*
X86764793Y-91432834D01*
X86747322Y-91427854D01*
X86646201Y-91388680D01*
X86646199Y-91388679D01*
X86646198Y-91388679D01*
X86646194Y-91388678D01*
X86646189Y-91388677D01*
X86436610Y-91349500D01*
X86223390Y-91349500D01*
X86013804Y-91388678D01*
X85814980Y-91465702D01*
X85814975Y-91465705D01*
X85633699Y-91577946D01*
X85633692Y-91577952D01*
X85476135Y-91721586D01*
X85476131Y-91721589D01*
X85476128Y-91721593D01*
X85476125Y-91721597D01*
X85347635Y-91891743D01*
X85347630Y-91891752D01*
X85253610Y-92080572D01*
X85252595Y-92082611D01*
X85248953Y-92095410D01*
X85194244Y-92287688D01*
X85194244Y-92287689D01*
X85194244Y-92287690D01*
X85174571Y-92500000D01*
X85194244Y-92712310D01*
X85252595Y-92917389D01*
X85347634Y-93108255D01*
X85476128Y-93278407D01*
X85506416Y-93306018D01*
X85612073Y-93402339D01*
X85642339Y-93455514D01*
X85635568Y-93516324D01*
X85594347Y-93561540D01*
X85545377Y-93574500D01*
X82967255Y-93574500D01*
X82909064Y-93555593D01*
X82897251Y-93545504D01*
X82825443Y-93473696D01*
X82802036Y-93436485D01*
X82331231Y-92095401D01*
X82329426Y-92089715D01*
X82327405Y-92082611D01*
X82326390Y-92080572D01*
X82323431Y-92074049D01*
X82318769Y-92062691D01*
X82317888Y-92061402D01*
X82311008Y-92049682D01*
X82232366Y-91891745D01*
X82103872Y-91721593D01*
X81976119Y-91605130D01*
X81946307Y-91577952D01*
X81946300Y-91577946D01*
X81765024Y-91465705D01*
X81765019Y-91465702D01*
X81747541Y-91458931D01*
X81566198Y-91388679D01*
X81566197Y-91388678D01*
X81566195Y-91388678D01*
X81356610Y-91349500D01*
X81143390Y-91349500D01*
X80933804Y-91388678D01*
X80734980Y-91465702D01*
X80734975Y-91465705D01*
X80553699Y-91577946D01*
X80553692Y-91577952D01*
X80396135Y-91721586D01*
X80396131Y-91721589D01*
X80396128Y-91721593D01*
X80396125Y-91721597D01*
X80267635Y-91891743D01*
X80267630Y-91891752D01*
X80173610Y-92080572D01*
X80172595Y-92082611D01*
X80168953Y-92095410D01*
X80114244Y-92287688D01*
X80114244Y-92287689D01*
X80114244Y-92287690D01*
X80094571Y-92500000D01*
X79865429Y-92500000D01*
X79845756Y-92287690D01*
X79787405Y-92082611D01*
X79692366Y-91891745D01*
X79563872Y-91721593D01*
X79436119Y-91605130D01*
X79406307Y-91577952D01*
X79406300Y-91577946D01*
X79225024Y-91465705D01*
X79225019Y-91465702D01*
X79207541Y-91458931D01*
X79026198Y-91388679D01*
X79026197Y-91388678D01*
X79026195Y-91388678D01*
X78816610Y-91349500D01*
X78603390Y-91349500D01*
X78393804Y-91388678D01*
X78194980Y-91465702D01*
X78194975Y-91465705D01*
X78013699Y-91577946D01*
X78013692Y-91577952D01*
X77856135Y-91721586D01*
X77856131Y-91721589D01*
X77856128Y-91721593D01*
X77856125Y-91721597D01*
X77727635Y-91891743D01*
X77727630Y-91891752D01*
X77632593Y-92082613D01*
X77630572Y-92089715D01*
X77628767Y-92095399D01*
X77509274Y-92435775D01*
X77472159Y-92484418D01*
X77413541Y-92501955D01*
X77355809Y-92481688D01*
X77321017Y-92431357D01*
X77317285Y-92412121D01*
X77305756Y-92287690D01*
X77247405Y-92082611D01*
X77152366Y-91891745D01*
X77023872Y-91721593D01*
X76896119Y-91605130D01*
X76866307Y-91577952D01*
X76866300Y-91577946D01*
X76685024Y-91465705D01*
X76685019Y-91465702D01*
X76667541Y-91458931D01*
X76486198Y-91388679D01*
X76486197Y-91388678D01*
X76486195Y-91388678D01*
X76276610Y-91349500D01*
X76063390Y-91349500D01*
X75853804Y-91388678D01*
X75654980Y-91465702D01*
X75654975Y-91465705D01*
X75473699Y-91577946D01*
X75473692Y-91577952D01*
X75316135Y-91721586D01*
X75316131Y-91721589D01*
X75316128Y-91721593D01*
X75316125Y-91721597D01*
X75187635Y-91891743D01*
X75187630Y-91891752D01*
X75093610Y-92080572D01*
X75092595Y-92082611D01*
X75088953Y-92095410D01*
X75034244Y-92287688D01*
X75015960Y-92485003D01*
X75014874Y-92491604D01*
X75014966Y-92491618D01*
X75014320Y-92496152D01*
X74978380Y-93228957D01*
X74956645Y-93286151D01*
X74905443Y-93319647D01*
X74844331Y-93316650D01*
X74796652Y-93278304D01*
X74780499Y-93224110D01*
X74780499Y-91605136D01*
X74777585Y-91580009D01*
X74732206Y-91477235D01*
X74652765Y-91397794D01*
X74549991Y-91352415D01*
X74549990Y-91352414D01*
X74549988Y-91352414D01*
X74524868Y-91349500D01*
X72735139Y-91349500D01*
X72735136Y-91349501D01*
X72710009Y-91352414D01*
X72607235Y-91397794D01*
X72527794Y-91477235D01*
X72482414Y-91580011D01*
X72479500Y-91605130D01*
X72479500Y-93388744D01*
X72460593Y-93446935D01*
X72411093Y-93482899D01*
X72349907Y-93482899D01*
X72310496Y-93458748D01*
X71954496Y-93102748D01*
X71926719Y-93048231D01*
X71925500Y-93032744D01*
X71925500Y-89960000D01*
X72474571Y-89960000D01*
X72494244Y-90172310D01*
X72552595Y-90377389D01*
X72647634Y-90568255D01*
X72776128Y-90738407D01*
X72776135Y-90738413D01*
X72933692Y-90882047D01*
X72933699Y-90882053D01*
X73037389Y-90946255D01*
X73114981Y-90994298D01*
X73313802Y-91071321D01*
X73523390Y-91110500D01*
X73736610Y-91110500D01*
X73946198Y-91071321D01*
X74145019Y-90994298D01*
X74326302Y-90882052D01*
X74483872Y-90738407D01*
X74612366Y-90568255D01*
X74707405Y-90377389D01*
X74765756Y-90172310D01*
X74785429Y-89960000D01*
X75014571Y-89960000D01*
X75034244Y-90172310D01*
X75092595Y-90377389D01*
X75187634Y-90568255D01*
X75316128Y-90738407D01*
X75316135Y-90738413D01*
X75473692Y-90882047D01*
X75473699Y-90882053D01*
X75577389Y-90946255D01*
X75654981Y-90994298D01*
X75853802Y-91071321D01*
X76063390Y-91110500D01*
X76276610Y-91110500D01*
X76486198Y-91071321D01*
X76685019Y-90994298D01*
X76866302Y-90882052D01*
X77023872Y-90738407D01*
X77152366Y-90568255D01*
X77247405Y-90377389D01*
X77305756Y-90172310D01*
X77325429Y-89960000D01*
X77305756Y-89747690D01*
X77247405Y-89542611D01*
X77152366Y-89351745D01*
X77023872Y-89181593D01*
X76969623Y-89132139D01*
X76866307Y-89037952D01*
X76866300Y-89037946D01*
X76685024Y-88925705D01*
X76685019Y-88925702D01*
X76639802Y-88908185D01*
X76486198Y-88848679D01*
X76486197Y-88848678D01*
X76486195Y-88848678D01*
X76276610Y-88809500D01*
X76063390Y-88809500D01*
X75853804Y-88848678D01*
X75654980Y-88925702D01*
X75654975Y-88925705D01*
X75473699Y-89037946D01*
X75473692Y-89037952D01*
X75316135Y-89181586D01*
X75316131Y-89181589D01*
X75316128Y-89181593D01*
X75316125Y-89181597D01*
X75187635Y-89351743D01*
X75187630Y-89351752D01*
X75092596Y-89542608D01*
X75034244Y-89747688D01*
X75034244Y-89747690D01*
X75014571Y-89960000D01*
X74785429Y-89960000D01*
X74765756Y-89747690D01*
X74707405Y-89542611D01*
X74612366Y-89351745D01*
X74483872Y-89181593D01*
X74429623Y-89132139D01*
X74326307Y-89037952D01*
X74326300Y-89037946D01*
X74145024Y-88925705D01*
X74145019Y-88925702D01*
X74099802Y-88908185D01*
X73946198Y-88848679D01*
X73946197Y-88848678D01*
X73946195Y-88848678D01*
X73736610Y-88809500D01*
X73523390Y-88809500D01*
X73313804Y-88848678D01*
X73114980Y-88925702D01*
X73114975Y-88925705D01*
X72933699Y-89037946D01*
X72933692Y-89037952D01*
X72776135Y-89181586D01*
X72776131Y-89181589D01*
X72776128Y-89181593D01*
X72776125Y-89181597D01*
X72647635Y-89351743D01*
X72647630Y-89351752D01*
X72552596Y-89542608D01*
X72494244Y-89747688D01*
X72494244Y-89747690D01*
X72474571Y-89960000D01*
X71925500Y-89960000D01*
X71925500Y-89417255D01*
X71944407Y-89359064D01*
X71954490Y-89347257D01*
X75586031Y-85715715D01*
X75615064Y-85695597D01*
X76464758Y-85309372D01*
X76505724Y-85300499D01*
X77044861Y-85300499D01*
X77044864Y-85300499D01*
X77069991Y-85297585D01*
X77172765Y-85252206D01*
X77252206Y-85172765D01*
X77297585Y-85069991D01*
X77300500Y-85044865D01*
X77300499Y-83955136D01*
X77297585Y-83930009D01*
X77252206Y-83827235D01*
X77172765Y-83747794D01*
X77069991Y-83702415D01*
X77069990Y-83702414D01*
X77069988Y-83702414D01*
X77044868Y-83699500D01*
X75355139Y-83699500D01*
X75355136Y-83699501D01*
X75330009Y-83702414D01*
X75227235Y-83747794D01*
X75147794Y-83827235D01*
X75102414Y-83930011D01*
X75099500Y-83955130D01*
X75099500Y-84526971D01*
X75097362Y-84547435D01*
X75096361Y-84552173D01*
X75065833Y-84605199D01*
X75009968Y-84630154D01*
X74950105Y-84617506D01*
X74909108Y-84572087D01*
X74900499Y-84531711D01*
X74900499Y-83955136D01*
X74897585Y-83930009D01*
X74852206Y-83827235D01*
X74772765Y-83747794D01*
X74669991Y-83702415D01*
X74669990Y-83702414D01*
X74669988Y-83702414D01*
X74644868Y-83699500D01*
X72955139Y-83699500D01*
X72955136Y-83699501D01*
X72930009Y-83702414D01*
X72827235Y-83747794D01*
X72747794Y-83827235D01*
X72702414Y-83930011D01*
X72699500Y-83955130D01*
X72699500Y-85044860D01*
X72699501Y-85044863D01*
X72702414Y-85069990D01*
X72725491Y-85122254D01*
X72747794Y-85172765D01*
X72827235Y-85252206D01*
X72930009Y-85297585D01*
X72955135Y-85300500D01*
X73093998Y-85300499D01*
X73152189Y-85319406D01*
X73173199Y-85340099D01*
X73286661Y-85491382D01*
X73306450Y-85549279D01*
X73288428Y-85607750D01*
X73277465Y-85620786D01*
X71898116Y-87000135D01*
X70488737Y-88409514D01*
X70488737Y-88409515D01*
X70488736Y-88409514D01*
X70409514Y-88488737D01*
X70353498Y-88585758D01*
X70353497Y-88585763D01*
X70324500Y-88693982D01*
X70324500Y-93193982D01*
X70324500Y-93306018D01*
X57250500Y-93306018D01*
X57250500Y-83500000D01*
X59394318Y-83500000D01*
X59414955Y-83656758D01*
X59414957Y-83656766D01*
X59475462Y-83802838D01*
X59475462Y-83802839D01*
X59559693Y-83912611D01*
X59571718Y-83928282D01*
X59571722Y-83928285D01*
X59571723Y-83928286D01*
X59697157Y-84024535D01*
X59697158Y-84024535D01*
X59697159Y-84024536D01*
X59769314Y-84054423D01*
X59815840Y-84094159D01*
X59828293Y-84125435D01*
X59897364Y-84452574D01*
X59899500Y-84473026D01*
X59899500Y-85044860D01*
X59899501Y-85044863D01*
X59902414Y-85069990D01*
X59925491Y-85122254D01*
X59947794Y-85172765D01*
X60027235Y-85252206D01*
X60130009Y-85297585D01*
X60155135Y-85300500D01*
X60694274Y-85300499D01*
X60735240Y-85309373D01*
X61584932Y-85695596D01*
X61613969Y-85715718D01*
X61738737Y-85840485D01*
X61835759Y-85896501D01*
X61835757Y-85896501D01*
X61835761Y-85896502D01*
X61835763Y-85896503D01*
X61943982Y-85925500D01*
X61943984Y-85925500D01*
X65056016Y-85925500D01*
X65056018Y-85925500D01*
X65164237Y-85896503D01*
X65164239Y-85896501D01*
X65164241Y-85896501D01*
X65261258Y-85840488D01*
X65261258Y-85840487D01*
X65261263Y-85840485D01*
X65618119Y-85483627D01*
X65639722Y-85467270D01*
X65643002Y-85465433D01*
X66639001Y-84633922D01*
X66650327Y-84625750D01*
X66656302Y-84622052D01*
X66686129Y-84594860D01*
X67349500Y-84594860D01*
X67349501Y-84594863D01*
X67352414Y-84619990D01*
X67371951Y-84664237D01*
X67397794Y-84722765D01*
X67477235Y-84802206D01*
X67580009Y-84847585D01*
X67605135Y-84850500D01*
X69394864Y-84850499D01*
X69419991Y-84847585D01*
X69522765Y-84802206D01*
X69602206Y-84722765D01*
X69647585Y-84619991D01*
X69650500Y-84594865D01*
X69650499Y-82805136D01*
X69647585Y-82780009D01*
X69602206Y-82677235D01*
X69522765Y-82597794D01*
X69419991Y-82552415D01*
X69419990Y-82552414D01*
X69419988Y-82552414D01*
X69394868Y-82549500D01*
X67605139Y-82549500D01*
X67605136Y-82549501D01*
X67580009Y-82552414D01*
X67477235Y-82597794D01*
X67397794Y-82677235D01*
X67352414Y-82780011D01*
X67349500Y-82805130D01*
X67349500Y-84594860D01*
X66686129Y-84594860D01*
X66688259Y-84592918D01*
X66691402Y-84590176D01*
X66747012Y-84543751D01*
X66757138Y-84534912D01*
X66757903Y-84534214D01*
X66772686Y-84519780D01*
X66772687Y-84519777D01*
X66776126Y-84515595D01*
X66776323Y-84515757D01*
X66788166Y-84501840D01*
X66813872Y-84478407D01*
X66942366Y-84308255D01*
X67037405Y-84117389D01*
X67095756Y-83912310D01*
X67115429Y-83700000D01*
X67095756Y-83487690D01*
X67037405Y-83282611D01*
X66942366Y-83091745D01*
X66813872Y-82921593D01*
X66706986Y-82824153D01*
X66656307Y-82777952D01*
X66656300Y-82777946D01*
X66475024Y-82665705D01*
X66475019Y-82665702D01*
X66466067Y-82662234D01*
X66276198Y-82588679D01*
X66276197Y-82588678D01*
X66276195Y-82588678D01*
X66066610Y-82549500D01*
X65853390Y-82549500D01*
X65643804Y-82588678D01*
X65444980Y-82665702D01*
X65444975Y-82665705D01*
X65263699Y-82777946D01*
X65263692Y-82777952D01*
X65106135Y-82921586D01*
X65106131Y-82921589D01*
X65106128Y-82921593D01*
X65106125Y-82921597D01*
X64977635Y-83091743D01*
X64977630Y-83091752D01*
X64882596Y-83282608D01*
X64824244Y-83487688D01*
X64811872Y-83621204D01*
X64805317Y-83691955D01*
X64804571Y-83700001D01*
X64807562Y-83732283D01*
X64807658Y-83742370D01*
X64807758Y-83742369D01*
X64807844Y-83746943D01*
X64814011Y-83802087D01*
X64814202Y-83803952D01*
X64816360Y-83827235D01*
X64824244Y-83912310D01*
X64824245Y-83912313D01*
X64825449Y-83916545D01*
X64828613Y-83932628D01*
X64937702Y-84907922D01*
X64925381Y-84967854D01*
X64909321Y-84988929D01*
X64852750Y-85045502D01*
X64798234Y-85073281D01*
X64782745Y-85074500D01*
X62294200Y-85074500D01*
X62236009Y-85055593D01*
X62200045Y-85006093D01*
X62197336Y-84995952D01*
X62102635Y-84547423D01*
X62100499Y-84526971D01*
X62100499Y-84006766D01*
X62119406Y-83948575D01*
X62168906Y-83912611D01*
X62230092Y-83912611D01*
X62279592Y-83948575D01*
X62292909Y-83973971D01*
X62321974Y-84056762D01*
X62338767Y-84104597D01*
X62340574Y-84110288D01*
X62342595Y-84117389D01*
X62343611Y-84119430D01*
X62346569Y-84125954D01*
X62351226Y-84137300D01*
X62351231Y-84137309D01*
X62352109Y-84138594D01*
X62358998Y-84150331D01*
X62437627Y-84308243D01*
X62437632Y-84308251D01*
X62437634Y-84308255D01*
X62566128Y-84478407D01*
X62606921Y-84515595D01*
X62723692Y-84622047D01*
X62723699Y-84622053D01*
X62765213Y-84647757D01*
X62904981Y-84734298D01*
X63103802Y-84811321D01*
X63313390Y-84850500D01*
X63526610Y-84850500D01*
X63736198Y-84811321D01*
X63935019Y-84734298D01*
X64116302Y-84622052D01*
X64273872Y-84478407D01*
X64402366Y-84308255D01*
X64497405Y-84117389D01*
X64555756Y-83912310D01*
X64575429Y-83700000D01*
X64555756Y-83487690D01*
X64497405Y-83282611D01*
X64402366Y-83091745D01*
X64273872Y-82921593D01*
X64166986Y-82824153D01*
X64116307Y-82777952D01*
X64116300Y-82777946D01*
X63935024Y-82665705D01*
X63935019Y-82665702D01*
X63926067Y-82662234D01*
X63865922Y-82638933D01*
X63852300Y-82632420D01*
X63834824Y-82622358D01*
X63834825Y-82622358D01*
X63834821Y-82622356D01*
X63614073Y-82544860D01*
X72699500Y-82544860D01*
X72699501Y-82544863D01*
X72702414Y-82569990D01*
X72725536Y-82622356D01*
X72747794Y-82672765D01*
X72827235Y-82752206D01*
X72930009Y-82797585D01*
X72955135Y-82800500D01*
X74644864Y-82800499D01*
X74669991Y-82797585D01*
X74772765Y-82752206D01*
X74852206Y-82672765D01*
X74897585Y-82569991D01*
X74900500Y-82544865D01*
X74900499Y-81455136D01*
X74900499Y-81455135D01*
X74900499Y-81455043D01*
X74919406Y-81396852D01*
X74961659Y-81363560D01*
X74962663Y-81363144D01*
X75023663Y-81358377D01*
X75075815Y-81390374D01*
X75099199Y-81446914D01*
X75099500Y-81454629D01*
X75099500Y-82544860D01*
X75099501Y-82544863D01*
X75102414Y-82569990D01*
X75125536Y-82622356D01*
X75147794Y-82672765D01*
X75227235Y-82752206D01*
X75330009Y-82797585D01*
X75355135Y-82800500D01*
X77044864Y-82800499D01*
X77069991Y-82797585D01*
X77172765Y-82752206D01*
X77252206Y-82672765D01*
X77297585Y-82569991D01*
X77300500Y-82544865D01*
X77300499Y-81973023D01*
X77302633Y-81952580D01*
X77417927Y-81406508D01*
X77444786Y-81356960D01*
X77597252Y-81204496D01*
X77651769Y-81176719D01*
X77667255Y-81175500D01*
X82213918Y-81175500D01*
X82272109Y-81194407D01*
X82308073Y-81243907D01*
X82308073Y-81305093D01*
X82301340Y-81318772D01*
X82301500Y-81318843D01*
X82297794Y-81327234D01*
X82297794Y-81327235D01*
X82275491Y-81377747D01*
X82252414Y-81430011D01*
X82249500Y-81455130D01*
X82249500Y-82544860D01*
X82249501Y-82544863D01*
X82252414Y-82569990D01*
X82275536Y-82622356D01*
X82297794Y-82672765D01*
X82377235Y-82752206D01*
X82480009Y-82797585D01*
X82505135Y-82800500D01*
X82974703Y-82800499D01*
X83022869Y-82813006D01*
X83353649Y-82997212D01*
X83395290Y-83042042D01*
X83403636Y-83070782D01*
X83414956Y-83156762D01*
X83475462Y-83302838D01*
X83475462Y-83302839D01*
X83531189Y-83375464D01*
X83571718Y-83428282D01*
X83571722Y-83428285D01*
X83571723Y-83428286D01*
X83693799Y-83521958D01*
X83728455Y-83572382D01*
X83726854Y-83633547D01*
X83689606Y-83682088D01*
X83633532Y-83699500D01*
X82505139Y-83699500D01*
X82505136Y-83699501D01*
X82480009Y-83702414D01*
X82377235Y-83747794D01*
X82297794Y-83827235D01*
X82252414Y-83930011D01*
X82249500Y-83955130D01*
X82249500Y-85044860D01*
X82249501Y-85044863D01*
X82252414Y-85069990D01*
X82275491Y-85122254D01*
X82297794Y-85172765D01*
X82377235Y-85252206D01*
X82402672Y-85263437D01*
X82448268Y-85304237D01*
X82452635Y-85312650D01*
X82565450Y-85558049D01*
X82574500Y-85599401D01*
X82574500Y-87782743D01*
X82555593Y-87840934D01*
X82545503Y-87852747D01*
X82087186Y-88311063D01*
X82057717Y-88331380D01*
X80809973Y-88891341D01*
X80807781Y-88892335D01*
X80807763Y-88892345D01*
X80801506Y-88896761D01*
X80780194Y-88908185D01*
X80734982Y-88925701D01*
X80734974Y-88925705D01*
X80553699Y-89037946D01*
X80553692Y-89037952D01*
X80396135Y-89181586D01*
X80396131Y-89181589D01*
X80396128Y-89181593D01*
X80396125Y-89181597D01*
X80267635Y-89351743D01*
X80267630Y-89351752D01*
X80172596Y-89542608D01*
X80114244Y-89747688D01*
X80114244Y-89747690D01*
X80094571Y-89960000D01*
X80114244Y-90172310D01*
X80172595Y-90377389D01*
X80267634Y-90568255D01*
X80396128Y-90738407D01*
X80396135Y-90738413D01*
X80553692Y-90882047D01*
X80553699Y-90882053D01*
X80657389Y-90946255D01*
X80734981Y-90994298D01*
X80933802Y-91071321D01*
X81143390Y-91110500D01*
X81356610Y-91110500D01*
X81566198Y-91071321D01*
X81765019Y-90994298D01*
X81946302Y-90882052D01*
X82103872Y-90738407D01*
X82232366Y-90568255D01*
X82327405Y-90377389D01*
X82385756Y-90172310D01*
X82389504Y-90131851D01*
X82392016Y-90117067D01*
X82440263Y-89923323D01*
X82472670Y-89871428D01*
X82529394Y-89848491D01*
X82588766Y-89863276D01*
X82628109Y-89910135D01*
X82634906Y-89956376D01*
X82634571Y-89959993D01*
X82634571Y-89959996D01*
X82634571Y-89960000D01*
X82654244Y-90172310D01*
X82712595Y-90377389D01*
X82807634Y-90568255D01*
X82936128Y-90738407D01*
X82936135Y-90738413D01*
X83093692Y-90882047D01*
X83093699Y-90882053D01*
X83197389Y-90946255D01*
X83274981Y-90994298D01*
X83473802Y-91071321D01*
X83683390Y-91110500D01*
X83896610Y-91110500D01*
X84106198Y-91071321D01*
X84305019Y-90994298D01*
X84486302Y-90882052D01*
X84643872Y-90738407D01*
X84772366Y-90568255D01*
X84867405Y-90377389D01*
X84925756Y-90172310D01*
X84945429Y-89960000D01*
X84925756Y-89747690D01*
X84867405Y-89542611D01*
X84853817Y-89515322D01*
X84846843Y-89496934D01*
X84845331Y-89491316D01*
X84278438Y-88311063D01*
X84225260Y-88200347D01*
X84215500Y-88157484D01*
X84215500Y-87442769D01*
X84218873Y-87417146D01*
X84225500Y-87392414D01*
X84225500Y-86667255D01*
X84244407Y-86609064D01*
X84254490Y-86597257D01*
X85137969Y-85713777D01*
X85165515Y-85694350D01*
X85975239Y-85310058D01*
X86017682Y-85300499D01*
X86544861Y-85300499D01*
X86544864Y-85300499D01*
X86569991Y-85297585D01*
X86672765Y-85252206D01*
X86752206Y-85172765D01*
X86797585Y-85069991D01*
X86800500Y-85044865D01*
X86800499Y-83955136D01*
X86797585Y-83930009D01*
X86752206Y-83827235D01*
X86672765Y-83747794D01*
X86569991Y-83702415D01*
X86569989Y-83702414D01*
X86564113Y-83699820D01*
X86553139Y-83690000D01*
X89764571Y-83690000D01*
X89784244Y-83902311D01*
X89799275Y-83955139D01*
X89842595Y-84107389D01*
X89937634Y-84298255D01*
X90066128Y-84468407D01*
X90118068Y-84515757D01*
X90223692Y-84612047D01*
X90223699Y-84612053D01*
X90277639Y-84645451D01*
X90404981Y-84724298D01*
X90603802Y-84801321D01*
X90813390Y-84840500D01*
X91026610Y-84840500D01*
X91236198Y-84801321D01*
X91435019Y-84724298D01*
X91616302Y-84612052D01*
X91773872Y-84468407D01*
X91902366Y-84298255D01*
X91997405Y-84107389D01*
X92055756Y-83902310D01*
X92075429Y-83690000D01*
X92055756Y-83477690D01*
X91997405Y-83272611D01*
X91902366Y-83081745D01*
X91773872Y-82911593D01*
X91719623Y-82862139D01*
X91616307Y-82767952D01*
X91616300Y-82767946D01*
X91435024Y-82655705D01*
X91435019Y-82655702D01*
X91391741Y-82638936D01*
X91236198Y-82578679D01*
X91236197Y-82578678D01*
X91236195Y-82578678D01*
X91026610Y-82539500D01*
X90813390Y-82539500D01*
X90603804Y-82578678D01*
X90404980Y-82655702D01*
X90404975Y-82655705D01*
X90223699Y-82767946D01*
X90223692Y-82767952D01*
X90066135Y-82911586D01*
X90066131Y-82911589D01*
X90066128Y-82911593D01*
X90066125Y-82911597D01*
X89937635Y-83081743D01*
X89937630Y-83081752D01*
X89842596Y-83272608D01*
X89842595Y-83272611D01*
X89836419Y-83294318D01*
X89784244Y-83477688D01*
X89764571Y-83690000D01*
X86553139Y-83690000D01*
X86518517Y-83659019D01*
X86505612Y-83599210D01*
X86530326Y-83543238D01*
X86547998Y-83528884D01*
X86547693Y-83528486D01*
X86552841Y-83524536D01*
X86678282Y-83428282D01*
X86774536Y-83302841D01*
X86835044Y-83156762D01*
X86855682Y-83000000D01*
X86835044Y-82843238D01*
X86795734Y-82748337D01*
X86793338Y-82741930D01*
X86787723Y-82725163D01*
X86786115Y-82722274D01*
X86774334Y-82662234D01*
X86776822Y-82649139D01*
X86793441Y-82585419D01*
X86793469Y-82585278D01*
X86793520Y-82585113D01*
X86794196Y-82582525D01*
X86794326Y-82582559D01*
X86795992Y-82577275D01*
X86795630Y-82577177D01*
X86797585Y-82569990D01*
X86799962Y-82549500D01*
X86800500Y-82544865D01*
X86800499Y-82540116D01*
X86801398Y-82526802D01*
X86803299Y-82512804D01*
X86803381Y-82507230D01*
X86801178Y-82488518D01*
X86800499Y-82476942D01*
X86800499Y-81455139D01*
X86800499Y-81455136D01*
X86797585Y-81430009D01*
X86752206Y-81327235D01*
X86752205Y-81327234D01*
X86748500Y-81318843D01*
X86750701Y-81317870D01*
X86737120Y-81271752D01*
X86757635Y-81214109D01*
X86808114Y-81179533D01*
X86836082Y-81175500D01*
X89056016Y-81175500D01*
X89056018Y-81175500D01*
X89164237Y-81146503D01*
X89164239Y-81146501D01*
X89164241Y-81146501D01*
X89243348Y-81100828D01*
X89261263Y-81090485D01*
X89661917Y-80689830D01*
X89716432Y-80662054D01*
X89776864Y-80671625D01*
X89820129Y-80714890D01*
X89829700Y-80775322D01*
X89827140Y-80786928D01*
X89784244Y-80937688D01*
X89764571Y-81150000D01*
X89784244Y-81362311D01*
X89796820Y-81406511D01*
X89842595Y-81567389D01*
X89937634Y-81758255D01*
X90066128Y-81928407D01*
X90103355Y-81962344D01*
X90223692Y-82072047D01*
X90223699Y-82072053D01*
X90239850Y-82082053D01*
X90404981Y-82184298D01*
X90603802Y-82261321D01*
X90813390Y-82300500D01*
X91026610Y-82300500D01*
X91236198Y-82261321D01*
X91435019Y-82184298D01*
X91616302Y-82072052D01*
X91773872Y-81928407D01*
X91902366Y-81758255D01*
X91997405Y-81567389D01*
X92055756Y-81362310D01*
X92075429Y-81150000D01*
X92075428Y-81149993D01*
X92075765Y-81146360D01*
X92099961Y-81090162D01*
X92152568Y-81058918D01*
X92213492Y-81064564D01*
X92259463Y-81104941D01*
X92270198Y-81130739D01*
X92319032Y-81319829D01*
X92321753Y-81335438D01*
X92324219Y-81362036D01*
X92324244Y-81362310D01*
X92382596Y-81567393D01*
X92389995Y-81582251D01*
X92390962Y-81584444D01*
X92392846Y-81588030D01*
X92393823Y-81589940D01*
X92477632Y-81758251D01*
X92477641Y-81758266D01*
X92606119Y-81928396D01*
X92606122Y-81928399D01*
X92606128Y-81928407D01*
X92643355Y-81962344D01*
X92763692Y-82072047D01*
X92763699Y-82072053D01*
X92779850Y-82082053D01*
X92944981Y-82184298D01*
X93143802Y-82261321D01*
X93353390Y-82300500D01*
X93566610Y-82300500D01*
X93776198Y-82261321D01*
X93975019Y-82184298D01*
X94156302Y-82072052D01*
X94313872Y-81928407D01*
X94442366Y-81758255D01*
X94537405Y-81567389D01*
X94595756Y-81362310D01*
X94615429Y-81150000D01*
X97384571Y-81150000D01*
X97404244Y-81362311D01*
X97416820Y-81406511D01*
X97462595Y-81567389D01*
X97557634Y-81758255D01*
X97686128Y-81928407D01*
X97723355Y-81962344D01*
X97843692Y-82072047D01*
X97843699Y-82072053D01*
X97859850Y-82082053D01*
X98024981Y-82184298D01*
X98223802Y-82261321D01*
X98433390Y-82300500D01*
X98646610Y-82300500D01*
X98856198Y-82261321D01*
X99055019Y-82184298D01*
X99236302Y-82072052D01*
X99393872Y-81928407D01*
X99522366Y-81758255D01*
X99617405Y-81567389D01*
X99675756Y-81362310D01*
X99695429Y-81150000D01*
X99675756Y-80937690D01*
X99617405Y-80732611D01*
X99522366Y-80541745D01*
X99393872Y-80371593D01*
X99336626Y-80319406D01*
X99236307Y-80227952D01*
X99236300Y-80227946D01*
X99055024Y-80115705D01*
X99055019Y-80115702D01*
X98963733Y-80080338D01*
X98856198Y-80038679D01*
X98856197Y-80038678D01*
X98856195Y-80038678D01*
X98646610Y-79999500D01*
X98433390Y-79999500D01*
X98223804Y-80038678D01*
X98024980Y-80115702D01*
X98024975Y-80115705D01*
X97843699Y-80227946D01*
X97843692Y-80227952D01*
X97686135Y-80371586D01*
X97686131Y-80371589D01*
X97686128Y-80371593D01*
X97686125Y-80371597D01*
X97557635Y-80541743D01*
X97557630Y-80541752D01*
X97462596Y-80732608D01*
X97404244Y-80937688D01*
X97384571Y-81150000D01*
X94615429Y-81150000D01*
X94595756Y-80937690D01*
X94537405Y-80732611D01*
X94442366Y-80541745D01*
X94313872Y-80371593D01*
X94256626Y-80319406D01*
X94156307Y-80227952D01*
X94156300Y-80227946D01*
X93975024Y-80115705D01*
X93975022Y-80115704D01*
X93975019Y-80115702D01*
X93975017Y-80115701D01*
X93975013Y-80115699D01*
X93926283Y-80096821D01*
X93906295Y-80086316D01*
X93897523Y-80080338D01*
X93897521Y-80080337D01*
X93897516Y-80080334D01*
X92640039Y-79528713D01*
X92609806Y-79508057D01*
X92261262Y-79159514D01*
X92164240Y-79103498D01*
X92164242Y-79103498D01*
X92122251Y-79092247D01*
X92056018Y-79074500D01*
X90306018Y-79074500D01*
X90193982Y-79074500D01*
X90127748Y-79092247D01*
X90085758Y-79103498D01*
X89988739Y-79159513D01*
X88852748Y-80295504D01*
X88798231Y-80323281D01*
X88782744Y-80324500D01*
X86836082Y-80324500D01*
X86777891Y-80305593D01*
X86741927Y-80256093D01*
X86741927Y-80194907D01*
X86748659Y-80181227D01*
X86748500Y-80181157D01*
X86752204Y-80172766D01*
X86752206Y-80172765D01*
X86797585Y-80069991D01*
X86800500Y-80044865D01*
X86800499Y-78955136D01*
X86797585Y-78930009D01*
X86752206Y-78827235D01*
X86672765Y-78747794D01*
X86569991Y-78702415D01*
X86569990Y-78702414D01*
X86569988Y-78702414D01*
X86544868Y-78699500D01*
X84855139Y-78699500D01*
X84855136Y-78699501D01*
X84830009Y-78702414D01*
X84727231Y-78747795D01*
X84721637Y-78751627D01*
X84719365Y-78753533D01*
X84581771Y-78849848D01*
X84523257Y-78867729D01*
X84468226Y-78849848D01*
X84330636Y-78753534D01*
X84328369Y-78751633D01*
X84322762Y-78747792D01*
X84315911Y-78744767D01*
X84307154Y-78740370D01*
X84280636Y-78725367D01*
X84280626Y-78725362D01*
X84276560Y-78723551D01*
X84276554Y-78723549D01*
X84249296Y-78714768D01*
X84239669Y-78711103D01*
X84219991Y-78702415D01*
X84219988Y-78702414D01*
X84194868Y-78699500D01*
X82505139Y-78699500D01*
X82505136Y-78699501D01*
X82480009Y-78702414D01*
X82377235Y-78747794D01*
X82297794Y-78827235D01*
X82252414Y-78930011D01*
X82249500Y-78955130D01*
X82249500Y-80044860D01*
X82249501Y-80044863D01*
X82252414Y-80069990D01*
X82269091Y-80107758D01*
X82280637Y-80133909D01*
X82301500Y-80181157D01*
X82299298Y-80182129D01*
X82312880Y-80228248D01*
X82292365Y-80285891D01*
X82241886Y-80320467D01*
X82213918Y-80324500D01*
X77506018Y-80324500D01*
X77393982Y-80324500D01*
X77373138Y-80330084D01*
X77349920Y-80336306D01*
X77288819Y-80333103D01*
X77241269Y-80294597D01*
X77225434Y-80235497D01*
X77247361Y-80178375D01*
X77251548Y-80173725D01*
X77252201Y-80172769D01*
X77252206Y-80172765D01*
X77297585Y-80069991D01*
X77300500Y-80044865D01*
X77300499Y-78955136D01*
X77297585Y-78930009D01*
X77252206Y-78827235D01*
X77172765Y-78747794D01*
X77069991Y-78702415D01*
X77069990Y-78702414D01*
X77069988Y-78702414D01*
X77044868Y-78699500D01*
X75355139Y-78699500D01*
X75355136Y-78699501D01*
X75330009Y-78702414D01*
X75227231Y-78747795D01*
X75221641Y-78751624D01*
X75219366Y-78753533D01*
X75056772Y-78867348D01*
X74998257Y-78885229D01*
X74943226Y-78867348D01*
X74780636Y-78753534D01*
X74778369Y-78751633D01*
X74772762Y-78747792D01*
X74765911Y-78744767D01*
X74757154Y-78740370D01*
X74730636Y-78725367D01*
X74730626Y-78725362D01*
X74726560Y-78723551D01*
X74726554Y-78723549D01*
X74699296Y-78714768D01*
X74689669Y-78711103D01*
X74669991Y-78702415D01*
X74669988Y-78702414D01*
X74644868Y-78699500D01*
X72955139Y-78699500D01*
X72955136Y-78699501D01*
X72930009Y-78702414D01*
X72827235Y-78747794D01*
X72747794Y-78827235D01*
X72702414Y-78930011D01*
X72699500Y-78955130D01*
X72699500Y-80044860D01*
X72699501Y-80044863D01*
X72702414Y-80069990D01*
X72719091Y-80107758D01*
X72747794Y-80172765D01*
X72827235Y-80252206D01*
X72930009Y-80297585D01*
X72955135Y-80300500D01*
X74116889Y-80300499D01*
X74175080Y-80319406D01*
X74211044Y-80368906D01*
X74211044Y-80430092D01*
X74195431Y-80459766D01*
X74137962Y-80534660D01*
X74137962Y-80534661D01*
X74077457Y-80680733D01*
X74077455Y-80680741D01*
X74061174Y-80804412D01*
X74034833Y-80859637D01*
X74011535Y-80877788D01*
X73461852Y-81186798D01*
X73413338Y-81199500D01*
X72955139Y-81199500D01*
X72955136Y-81199501D01*
X72930009Y-81202414D01*
X72827235Y-81247794D01*
X72747794Y-81327235D01*
X72702414Y-81430011D01*
X72699500Y-81455130D01*
X72699500Y-82544860D01*
X63614073Y-82544860D01*
X63494581Y-82502911D01*
X63445938Y-82465796D01*
X63428401Y-82407177D01*
X63448669Y-82349446D01*
X63498999Y-82314654D01*
X63522080Y-82311274D01*
X63522048Y-82310923D01*
X63526608Y-82310500D01*
X63526610Y-82310500D01*
X63736198Y-82271321D01*
X63935019Y-82194298D01*
X64116302Y-82082052D01*
X64273872Y-81938407D01*
X64402366Y-81768255D01*
X64497405Y-81577389D01*
X64555756Y-81372310D01*
X64575429Y-81160000D01*
X64555756Y-80947690D01*
X64497405Y-80742611D01*
X64402366Y-80551745D01*
X64273872Y-80381593D01*
X64198589Y-80312963D01*
X64116307Y-80237952D01*
X64116300Y-80237946D01*
X63935024Y-80125705D01*
X63935019Y-80125702D01*
X63736198Y-80048679D01*
X63736197Y-80048678D01*
X63736195Y-80048678D01*
X63526610Y-80009500D01*
X63313390Y-80009500D01*
X63103804Y-80048678D01*
X62904980Y-80125702D01*
X62904975Y-80125705D01*
X62723699Y-80237946D01*
X62723692Y-80237952D01*
X62566135Y-80381586D01*
X62566131Y-80381589D01*
X62566128Y-80381593D01*
X62566125Y-80381597D01*
X62437635Y-80551743D01*
X62437630Y-80551752D01*
X62342596Y-80742608D01*
X62284244Y-80947688D01*
X62264571Y-81160000D01*
X62284590Y-81376047D01*
X62282897Y-81383552D01*
X62292136Y-81400048D01*
X62301256Y-81432099D01*
X62342595Y-81577389D01*
X62437634Y-81768255D01*
X62566128Y-81938407D01*
X62632237Y-81998674D01*
X62662503Y-82051849D01*
X62655732Y-82112659D01*
X62614512Y-82157875D01*
X62554586Y-82170227D01*
X62532748Y-82165246D01*
X62500825Y-82154039D01*
X62454930Y-82120705D01*
X62120811Y-81683084D01*
X62100527Y-81625359D01*
X62100499Y-81623007D01*
X62100499Y-81455142D01*
X62100499Y-81455139D01*
X62100499Y-81455136D01*
X62098574Y-81438544D01*
X62099872Y-81432099D01*
X62095450Y-81425173D01*
X62052206Y-81327235D01*
X61972765Y-81247794D01*
X61869991Y-81202415D01*
X61869990Y-81202414D01*
X61869988Y-81202414D01*
X61844868Y-81199500D01*
X60155139Y-81199500D01*
X60155136Y-81199501D01*
X60130009Y-81202414D01*
X60027235Y-81247794D01*
X59947794Y-81327235D01*
X59902414Y-81430011D01*
X59899500Y-81455130D01*
X59899500Y-82544860D01*
X59899501Y-82544863D01*
X59902414Y-82569990D01*
X59925536Y-82622356D01*
X59947794Y-82672765D01*
X60007694Y-82732665D01*
X60035470Y-82787180D01*
X60025899Y-82847612D01*
X59982634Y-82890877D01*
X59950611Y-82900820D01*
X59843241Y-82914955D01*
X59843233Y-82914957D01*
X59697161Y-82975462D01*
X59697160Y-82975462D01*
X59571723Y-83071713D01*
X59571713Y-83071723D01*
X59475462Y-83197160D01*
X59475462Y-83197161D01*
X59414957Y-83343233D01*
X59414955Y-83343241D01*
X59394318Y-83499999D01*
X59394318Y-83500000D01*
X57250500Y-83500000D01*
X57250500Y-72005555D01*
X57251121Y-71994488D01*
X57261776Y-71899924D01*
X57266704Y-71878332D01*
X57296285Y-71793794D01*
X57305897Y-71773834D01*
X57353541Y-71698010D01*
X57367357Y-71680684D01*
X57430684Y-71617357D01*
X57448012Y-71603540D01*
X57523834Y-71555897D01*
X57543794Y-71546285D01*
X57628332Y-71516704D01*
X57649924Y-71511776D01*
X57744487Y-71501121D01*
X57755556Y-71500500D01*
X57815892Y-71500500D01*
X104434108Y-71500500D01*
X104494444Y-71500500D01*
X104505512Y-71501121D01*
G37*
%TD.AperFunction*%
%TD*%
%TA.AperFunction,NonConductor*%
G36*
X60902839Y-82802546D02*
G01*
X60918121Y-82805705D01*
X61820499Y-82822846D01*
X61878318Y-82842855D01*
X61912027Y-82889034D01*
X61976159Y-83071713D01*
X62199727Y-83708545D01*
X62201162Y-83769713D01*
X62166370Y-83820044D01*
X62108638Y-83840311D01*
X62050020Y-83822774D01*
X62036318Y-83811347D01*
X61972765Y-83747794D01*
X61869991Y-83702415D01*
X61869990Y-83702414D01*
X61869988Y-83702414D01*
X61844869Y-83699500D01*
X61844865Y-83699500D01*
X61305724Y-83699500D01*
X61264759Y-83690626D01*
X60639327Y-83406339D01*
X60594178Y-83365048D01*
X60587673Y-83349171D01*
X60587527Y-83349232D01*
X60524537Y-83197161D01*
X60524537Y-83197160D01*
X60428286Y-83071723D01*
X60428285Y-83071722D01*
X60428282Y-83071718D01*
X60428277Y-83071714D01*
X60428276Y-83071713D01*
X60306200Y-82978041D01*
X60271544Y-82927617D01*
X60273145Y-82866452D01*
X60310393Y-82817911D01*
X60366464Y-82800499D01*
X60882808Y-82800499D01*
X60902839Y-82802546D01*
G37*
%TD.AperFunction*%
%TA.AperFunction,NonConductor*%
G36*
X91840935Y-79944407D02*
G01*
X91852748Y-79954496D01*
X91986912Y-80088660D01*
X92012763Y-80133909D01*
X92114799Y-80529009D01*
X92111043Y-80590079D01*
X92072108Y-80637278D01*
X92012866Y-80652577D01*
X91955946Y-80630133D01*
X91930324Y-80597894D01*
X91902366Y-80541745D01*
X91773872Y-80371593D01*
X91716626Y-80319406D01*
X91616307Y-80227952D01*
X91616300Y-80227946D01*
X91435024Y-80115705D01*
X91435023Y-80115704D01*
X91435019Y-80115702D01*
X91435014Y-80115700D01*
X91430923Y-80113663D01*
X91431816Y-80111868D01*
X91390454Y-80078154D01*
X91374807Y-80019003D01*
X91396916Y-79961952D01*
X91448337Y-79928792D01*
X91473654Y-79925500D01*
X91782744Y-79925500D01*
X91840935Y-79944407D01*
G37*
%TD.AperFunction*%
%TA.AperFunction,NonConductor*%
G36*
X75056771Y-80132649D02*
G01*
X75218466Y-80245836D01*
X75218471Y-80245839D01*
X75219360Y-80246461D01*
X75221636Y-80248370D01*
X75227233Y-80252204D01*
X75227235Y-80252206D01*
X75234103Y-80255238D01*
X75242834Y-80259622D01*
X75269368Y-80274634D01*
X75273441Y-80276448D01*
X75300700Y-80285228D01*
X75310304Y-80288884D01*
X75330009Y-80297585D01*
X75355135Y-80300500D01*
X77044864Y-80300499D01*
X77048407Y-80300088D01*
X77108389Y-80312163D01*
X77149818Y-80357188D01*
X77156869Y-80417966D01*
X77129819Y-80468432D01*
X76813972Y-80784278D01*
X76784935Y-80804400D01*
X75935238Y-81190626D01*
X75894272Y-81199500D01*
X75355139Y-81199500D01*
X75355136Y-81199501D01*
X75322610Y-81203273D01*
X75322298Y-81200587D01*
X75273417Y-81198203D01*
X75225728Y-81159871D01*
X75209679Y-81100828D01*
X75217095Y-81067770D01*
X75247544Y-80994262D01*
X75268182Y-80837500D01*
X75247544Y-80680738D01*
X75209992Y-80590079D01*
X75187037Y-80534661D01*
X75187037Y-80534660D01*
X75090786Y-80409223D01*
X75090785Y-80409222D01*
X75090782Y-80409218D01*
X75090777Y-80409214D01*
X75090776Y-80409213D01*
X74995761Y-80336306D01*
X74965341Y-80312964D01*
X74965339Y-80312963D01*
X74956361Y-80309244D01*
X74909835Y-80269507D01*
X74895552Y-80210012D01*
X74918967Y-80153484D01*
X74937474Y-80136676D01*
X74943231Y-80132646D01*
X75001745Y-80114769D01*
X75056771Y-80132649D01*
G37*
%TD.AperFunction*%
%TA.AperFunction,NonConductor*%
G36*
X84724675Y-82751075D02*
G01*
X84727233Y-82752204D01*
X84727235Y-82752206D01*
X84830009Y-82797585D01*
X84855135Y-82800500D01*
X85277572Y-82800499D01*
X85332578Y-82817186D01*
X85610706Y-83003046D01*
X85648583Y-83051098D01*
X85653853Y-83072435D01*
X85664956Y-83156763D01*
X85725462Y-83302838D01*
X85725462Y-83302839D01*
X85781189Y-83375464D01*
X85821718Y-83428282D01*
X85943800Y-83521959D01*
X85978456Y-83572382D01*
X85976855Y-83633546D01*
X85939608Y-83682088D01*
X85883533Y-83699500D01*
X84855139Y-83699500D01*
X84855136Y-83699501D01*
X84830009Y-83702414D01*
X84729162Y-83746943D01*
X84727235Y-83747794D01*
X84647794Y-83827235D01*
X84615666Y-83900000D01*
X84615565Y-83900228D01*
X84574764Y-83945824D01*
X84514955Y-83958729D01*
X84458983Y-83934015D01*
X84434435Y-83900228D01*
X84402206Y-83827235D01*
X84322765Y-83747794D01*
X84263922Y-83721812D01*
X84218329Y-83681013D01*
X84205423Y-83621204D01*
X84230137Y-83565232D01*
X84266027Y-83539785D01*
X84293305Y-83528486D01*
X84302841Y-83524536D01*
X84428282Y-83428282D01*
X84524536Y-83302841D01*
X84585044Y-83156762D01*
X84605682Y-83000000D01*
X84586534Y-82854559D01*
X84597684Y-82794402D01*
X84642066Y-82752284D01*
X84702728Y-82744298D01*
X84724675Y-82751075D01*
G37*
%TD.AperFunction*%
%TA.AperFunction,NonConductor*%
G36*
X84166935Y-85319406D02*
G01*
X84202899Y-85368906D01*
X84202899Y-85430092D01*
X84178748Y-85469503D01*
X83594504Y-86053747D01*
X83539987Y-86081524D01*
X83479555Y-86071953D01*
X83436290Y-86028688D01*
X83425500Y-85983743D01*
X83425500Y-85689560D01*
X83444407Y-85631369D01*
X83459824Y-85614606D01*
X83741464Y-85371607D01*
X83796012Y-85324543D01*
X83852422Y-85300844D01*
X83860685Y-85300499D01*
X84108744Y-85300499D01*
X84166935Y-85319406D01*
G37*
%TD.AperFunction*%
%TA.AperFunction,NonConductor*%
G36*
X83015822Y-88682667D02*
G01*
X83059087Y-88725932D01*
X83068658Y-88786364D01*
X83060117Y-88813740D01*
X82766052Y-89425973D01*
X82723814Y-89470241D01*
X82663623Y-89481228D01*
X82608470Y-89454737D01*
X82579421Y-89400887D01*
X82580745Y-89359190D01*
X82686252Y-88935511D01*
X82712311Y-88889435D01*
X82900875Y-88700871D01*
X82955390Y-88673096D01*
X83015822Y-88682667D01*
G37*
%TD.AperFunction*%
%TA.AperFunction,NonConductor*%
G36*
X89791935Y-92944407D02*
G01*
X89827899Y-92993907D01*
X89827899Y-93055093D01*
X89803748Y-93094504D01*
X89352748Y-93545504D01*
X89298231Y-93573281D01*
X89282744Y-93574500D01*
X87193547Y-93574500D01*
X87135356Y-93555593D01*
X87099392Y-93506093D01*
X87099392Y-93444907D01*
X87135356Y-93395407D01*
X87150684Y-93386260D01*
X87159760Y-93381901D01*
X88089654Y-92935260D01*
X88132517Y-92925500D01*
X89733744Y-92925500D01*
X89791935Y-92944407D01*
G37*
%TD.AperFunction*%
%TA.AperFunction,NonConductor*%
G36*
X74616935Y-85319406D02*
G01*
X74652899Y-85368906D01*
X74652899Y-85430092D01*
X74628747Y-85469503D01*
X74417770Y-85680479D01*
X74363254Y-85708256D01*
X74302822Y-85698685D01*
X74259557Y-85655420D01*
X74249986Y-85594988D01*
X74268565Y-85551077D01*
X74426799Y-85340098D01*
X74476839Y-85304891D01*
X74505999Y-85300499D01*
X74558744Y-85300499D01*
X74616935Y-85319406D01*
G37*
%TD.AperFunction*%
%TA.AperFunction,NonConductor*%
G36*
X77128186Y-93275876D02*
G01*
X77169407Y-93321092D01*
X77176178Y-93381901D01*
X77172627Y-93394709D01*
X77157961Y-93436485D01*
X77134554Y-93473695D01*
X76562748Y-94045503D01*
X76508231Y-94073281D01*
X76492744Y-94074500D01*
X76189629Y-94074500D01*
X76131438Y-94055593D01*
X76095474Y-94006093D01*
X76095474Y-93944907D01*
X76131438Y-93895407D01*
X76134683Y-93893148D01*
X76646176Y-93551874D01*
X76665353Y-93541915D01*
X76685019Y-93534298D01*
X76866302Y-93422052D01*
X77012522Y-93288753D01*
X77068260Y-93263524D01*
X77128186Y-93275876D01*
G37*
%TD.AperFunction*%
M02*
