%TF.GenerationSoftware,KiCad,Pcbnew,8.0.1*%
%TF.CreationDate,2024-06-06T08:45:56+08:00*%
%TF.ProjectId,CrazyDonkeyTarmoBoard,4372617a-7944-46f6-9e6b-65795461726d,rev?*%
%TF.SameCoordinates,Original*%
%TF.FileFunction,Soldermask,Top*%
%TF.FilePolarity,Negative*%
%FSLAX46Y46*%
G04 Gerber Fmt 4.6, Leading zero omitted, Abs format (unit mm)*
G04 Created by KiCad (PCBNEW 8.0.1) date 2024-06-06 08:45:56*
%MOMM*%
%LPD*%
G01*
G04 APERTURE LIST*
G04 Aperture macros list*
%AMRoundRect*
0 Rectangle with rounded corners*
0 $1 Rounding radius*
0 $2 $3 $4 $5 $6 $7 $8 $9 X,Y pos of 4 corners*
0 Add a 4 corners polygon primitive as box body*
4,1,4,$2,$3,$4,$5,$6,$7,$8,$9,$2,$3,0*
0 Add four circle primitives for the rounded corners*
1,1,$1+$1,$2,$3*
1,1,$1+$1,$4,$5*
1,1,$1+$1,$6,$7*
1,1,$1+$1,$8,$9*
0 Add four rect primitives between the rounded corners*
20,1,$1+$1,$2,$3,$4,$5,0*
20,1,$1+$1,$4,$5,$6,$7,0*
20,1,$1+$1,$6,$7,$8,$9,0*
20,1,$1+$1,$8,$9,$2,$3,0*%
G04 Aperture macros list end*
%ADD10RoundRect,0.102000X-0.800000X-0.500000X0.800000X-0.500000X0.800000X0.500000X-0.800000X0.500000X0*%
%ADD11C,0.800000*%
%ADD12C,6.400000*%
%ADD13R,1.700000X1.700000*%
%ADD14O,1.700000X1.700000*%
G04 APERTURE END LIST*
D10*
%TO.C,S6*%
X101300000Y-79500000D03*
X101300000Y-82000000D03*
X101300000Y-84500000D03*
X103700000Y-79500000D03*
X103700000Y-82000000D03*
X103700000Y-84500000D03*
%TD*%
D11*
%TO.C,H1*%
X99100000Y-90802944D03*
X99802944Y-89105888D03*
X99802944Y-92500000D03*
X101500000Y-88402944D03*
D12*
X101500000Y-90802944D03*
D11*
X101500000Y-93202944D03*
X103197056Y-89105888D03*
X103197056Y-92500000D03*
X103900000Y-90802944D03*
%TD*%
%TO.C,H2*%
X58402944Y-90802944D03*
X59105888Y-89105888D03*
X59105888Y-92500000D03*
X60802944Y-88402944D03*
D12*
X60802944Y-90802944D03*
D11*
X60802944Y-93202944D03*
X62500000Y-89105888D03*
X62500000Y-92500000D03*
X63202944Y-90802944D03*
%TD*%
D10*
%TO.C,S3*%
X85700000Y-79500000D03*
X85700000Y-82000000D03*
X85700000Y-84500000D03*
X88100000Y-79500000D03*
X88100000Y-82000000D03*
X88100000Y-84500000D03*
%TD*%
%TO.C,S2*%
X76200000Y-79500000D03*
X76200000Y-82000000D03*
X76200000Y-84500000D03*
X78600000Y-79500000D03*
X78600000Y-82000000D03*
X78600000Y-84500000D03*
%TD*%
%TO.C,S5*%
X58600000Y-79500000D03*
X58600000Y-82000000D03*
X58600000Y-84500000D03*
X61000000Y-79500000D03*
X61000000Y-82000000D03*
X61000000Y-84500000D03*
%TD*%
D13*
%TO.C,J3*%
X73630000Y-92500000D03*
D14*
X73630000Y-89960000D03*
X76170000Y-92500000D03*
X76170000Y-89960000D03*
X78710000Y-92500000D03*
X78710000Y-89960000D03*
X81250000Y-92500000D03*
X81250000Y-89960000D03*
X83790000Y-92500000D03*
X83790000Y-89960000D03*
X86330000Y-92500000D03*
X86330000Y-89960000D03*
%TD*%
D10*
%TO.C,S1*%
X71400000Y-79500000D03*
X71400000Y-82000000D03*
X71400000Y-84500000D03*
X73800000Y-79500000D03*
X73800000Y-82000000D03*
X73800000Y-84500000D03*
%TD*%
%TO.C,S4*%
X80950000Y-79500000D03*
X80950000Y-82000000D03*
X80950000Y-84500000D03*
X83350000Y-79500000D03*
X83350000Y-82000000D03*
X83350000Y-84500000D03*
%TD*%
D13*
%TO.C,J4*%
X98540000Y-83690000D03*
D14*
X98540000Y-81150000D03*
X96000000Y-83690000D03*
X96000000Y-81150000D03*
X93460000Y-83690000D03*
X93460000Y-81150000D03*
X90920000Y-83690000D03*
X90920000Y-81150000D03*
%TD*%
D13*
%TO.C,J2*%
X68500000Y-83700000D03*
D14*
X68500000Y-81160000D03*
X65960000Y-83700000D03*
X65960000Y-81160000D03*
X63420000Y-83700000D03*
X63420000Y-81160000D03*
%TD*%
M02*
