%TF.GenerationSoftware,KiCad,Pcbnew,8.0.1*%
%TF.CreationDate,2024-06-02T10:18:44+08:00*%
%TF.ProjectId,CrazyPowerboard,4372617a-7950-46f7-9765-72626f617264,rev?*%
%TF.SameCoordinates,Original*%
%TF.FileFunction,Copper,L1,Top*%
%TF.FilePolarity,Positive*%
%FSLAX46Y46*%
G04 Gerber Fmt 4.6, Leading zero omitted, Abs format (unit mm)*
G04 Created by KiCad (PCBNEW 8.0.1) date 2024-06-02 10:18:44*
%MOMM*%
%LPD*%
G01*
G04 APERTURE LIST*
G04 Aperture macros list*
%AMRoundRect*
0 Rectangle with rounded corners*
0 $1 Rounding radius*
0 $2 $3 $4 $5 $6 $7 $8 $9 X,Y pos of 4 corners*
0 Add a 4 corners polygon primitive as box body*
4,1,4,$2,$3,$4,$5,$6,$7,$8,$9,$2,$3,0*
0 Add four circle primitives for the rounded corners*
1,1,$1+$1,$2,$3*
1,1,$1+$1,$4,$5*
1,1,$1+$1,$6,$7*
1,1,$1+$1,$8,$9*
0 Add four rect primitives between the rounded corners*
20,1,$1+$1,$2,$3,$4,$5,0*
20,1,$1+$1,$4,$5,$6,$7,0*
20,1,$1+$1,$6,$7,$8,$9,0*
20,1,$1+$1,$8,$9,$2,$3,0*%
G04 Aperture macros list end*
%TA.AperFunction,SMDPad,CuDef*%
%ADD10RoundRect,0.200000X-0.275000X0.200000X-0.275000X-0.200000X0.275000X-0.200000X0.275000X0.200000X0*%
%TD*%
%TA.AperFunction,ComponentPad*%
%ADD11R,0.900000X2.000000*%
%TD*%
%TA.AperFunction,ComponentPad*%
%ADD12RoundRect,1.025000X1.025000X1.025000X-1.025000X1.025000X-1.025000X-1.025000X1.025000X-1.025000X0*%
%TD*%
%TA.AperFunction,ComponentPad*%
%ADD13C,4.100000*%
%TD*%
%TA.AperFunction,SMDPad,CuDef*%
%ADD14R,2.000000X2.500000*%
%TD*%
%TA.AperFunction,SMDPad,CuDef*%
%ADD15RoundRect,0.150000X0.150000X-0.587500X0.150000X0.587500X-0.150000X0.587500X-0.150000X-0.587500X0*%
%TD*%
%TA.AperFunction,SMDPad,CuDef*%
%ADD16RoundRect,0.225000X-0.225000X-0.250000X0.225000X-0.250000X0.225000X0.250000X-0.225000X0.250000X0*%
%TD*%
%TA.AperFunction,ComponentPad*%
%ADD17R,1.700000X1.700000*%
%TD*%
%TA.AperFunction,ComponentPad*%
%ADD18O,1.700000X1.700000*%
%TD*%
%TA.AperFunction,SMDPad,CuDef*%
%ADD19RoundRect,0.250000X0.325000X1.100000X-0.325000X1.100000X-0.325000X-1.100000X0.325000X-1.100000X0*%
%TD*%
%TA.AperFunction,ComponentPad*%
%ADD20C,0.800000*%
%TD*%
%TA.AperFunction,ComponentPad*%
%ADD21C,6.400000*%
%TD*%
%TA.AperFunction,SMDPad,CuDef*%
%ADD22RoundRect,0.218750X0.256250X-0.218750X0.256250X0.218750X-0.256250X0.218750X-0.256250X-0.218750X0*%
%TD*%
%TA.AperFunction,SMDPad,CuDef*%
%ADD23R,1.000000X1.600000*%
%TD*%
%TA.AperFunction,SMDPad,CuDef*%
%ADD24RoundRect,0.200000X-0.200000X-0.275000X0.200000X-0.275000X0.200000X0.275000X-0.200000X0.275000X0*%
%TD*%
%TA.AperFunction,SMDPad,CuDef*%
%ADD25RoundRect,0.250000X-0.475000X0.250000X-0.475000X-0.250000X0.475000X-0.250000X0.475000X0.250000X0*%
%TD*%
%TA.AperFunction,SMDPad,CuDef*%
%ADD26RoundRect,0.200000X0.200000X0.275000X-0.200000X0.275000X-0.200000X-0.275000X0.200000X-0.275000X0*%
%TD*%
%TA.AperFunction,SMDPad,CuDef*%
%ADD27RoundRect,0.062500X-0.062500X0.350000X-0.062500X-0.350000X0.062500X-0.350000X0.062500X0.350000X0*%
%TD*%
%TA.AperFunction,SMDPad,CuDef*%
%ADD28RoundRect,0.062500X-0.350000X0.062500X-0.350000X-0.062500X0.350000X-0.062500X0.350000X0.062500X0*%
%TD*%
%TA.AperFunction,HeatsinkPad*%
%ADD29R,1.680000X1.680000*%
%TD*%
%TA.AperFunction,SMDPad,CuDef*%
%ADD30RoundRect,0.200000X-0.900000X-0.200000X0.900000X-0.200000X0.900000X0.200000X-0.900000X0.200000X0*%
%TD*%
%TA.AperFunction,SMDPad,CuDef*%
%ADD31RoundRect,0.250000X-1.275000X-1.125000X1.275000X-1.125000X1.275000X1.125000X-1.275000X1.125000X0*%
%TD*%
%TA.AperFunction,SMDPad,CuDef*%
%ADD32RoundRect,0.249997X-2.950003X-2.650003X2.950003X-2.650003X2.950003X2.650003X-2.950003X2.650003X0*%
%TD*%
%TA.AperFunction,SMDPad,CuDef*%
%ADD33RoundRect,0.225000X-0.250000X0.225000X-0.250000X-0.225000X0.250000X-0.225000X0.250000X0.225000X0*%
%TD*%
%TA.AperFunction,SMDPad,CuDef*%
%ADD34R,1.600000X1.000000*%
%TD*%
%TA.AperFunction,ViaPad*%
%ADD35C,0.550000*%
%TD*%
%TA.AperFunction,ViaPad*%
%ADD36C,0.800000*%
%TD*%
%TA.AperFunction,Conductor*%
%ADD37C,0.150000*%
%TD*%
%TA.AperFunction,Conductor*%
%ADD38C,0.250000*%
%TD*%
%TA.AperFunction,Conductor*%
%ADD39C,2.000000*%
%TD*%
%TA.AperFunction,Conductor*%
%ADD40C,1.200000*%
%TD*%
%TA.AperFunction,Conductor*%
%ADD41C,0.500000*%
%TD*%
%TA.AperFunction,Conductor*%
%ADD42C,1.000000*%
%TD*%
%TA.AperFunction,Conductor*%
%ADD43C,0.300000*%
%TD*%
%TA.AperFunction,Conductor*%
%ADD44C,1.500000*%
%TD*%
%TA.AperFunction,Conductor*%
%ADD45C,0.200000*%
%TD*%
G04 APERTURE END LIST*
D10*
%TO.P,R4,1*%
%TO.N,Net-(J9-Pin_2)*%
X85325000Y-50075000D03*
%TO.P,R4,2*%
%TO.N,Net-(C2-Pad2)*%
X85325000Y-51725000D03*
%TD*%
D11*
%TO.P,J1,*%
%TO.N,*%
X116825000Y-77500000D03*
X103325000Y-77500000D03*
D12*
%TO.P,J1,1,Pin_1*%
%TO.N,GND*%
X113675000Y-71500000D03*
D13*
%TO.P,J1,2,Pin_2*%
%TO.N,+12V*%
X106475000Y-71500000D03*
%TD*%
D14*
%TO.P,L1,1,1*%
%TO.N,Net-(L1-Pad1)*%
X97817200Y-35718400D03*
%TO.P,L1,2,2*%
%TO.N,+5V*%
X102817200Y-35718400D03*
%TD*%
D15*
%TO.P,Q1,1*%
%TO.N,Net-(C4-Pad2)*%
X83525000Y-61712500D03*
%TO.P,Q1,2*%
%TO.N,GND*%
X85425000Y-61712500D03*
%TO.P,Q1,3*%
%TO.N,Net-(J13-Pin_3)*%
X84475000Y-59837500D03*
%TD*%
D16*
%TO.P,C7,1*%
%TO.N,GND*%
X95237200Y-45370400D03*
%TO.P,C7,2*%
%TO.N,/POW_12V*%
X96787200Y-45370400D03*
%TD*%
D17*
%TO.P,J3,1,Pin_1*%
%TO.N,+5V*%
X106103200Y-32917400D03*
D18*
%TO.P,J3,2,Pin_2*%
%TO.N,GND*%
X108643200Y-32917400D03*
%TO.P,J3,3,Pin_3*%
%TO.N,+5V*%
X106103200Y-35457400D03*
%TO.P,J3,4,Pin_4*%
%TO.N,GND*%
X108643200Y-35457400D03*
%TO.P,J3,5,Pin_5*%
%TO.N,+5V*%
X106103200Y-37997400D03*
%TO.P,J3,6,Pin_6*%
%TO.N,GND*%
X108643200Y-37997400D03*
%TO.P,J3,7,Pin_7*%
%TO.N,+5V*%
X106103200Y-40537400D03*
%TO.P,J3,8,Pin_8*%
%TO.N,GND*%
X108643200Y-40537400D03*
%TD*%
D17*
%TO.P,J9,1,Pin_1*%
%TO.N,Net-(J9-Pin_1)*%
X91350000Y-50440000D03*
D18*
%TO.P,J9,2,Pin_2*%
%TO.N,Net-(J9-Pin_2)*%
X88810000Y-50440000D03*
%TO.P,J9,3,Pin_3*%
%TO.N,Net-(J9-Pin_3)*%
X91350000Y-47900000D03*
%TO.P,J9,4,Pin_4*%
%TO.N,Net-(J9-Pin_4)*%
X88810000Y-47900000D03*
%TD*%
D19*
%TO.P,C1,1*%
%TO.N,GND*%
X102160800Y-45446600D03*
%TO.P,C1,2*%
%TO.N,/POW_12V*%
X99210800Y-45446600D03*
%TD*%
D20*
%TO.P,H1,1,1*%
%TO.N,GND*%
X84200000Y-32952944D03*
X84902944Y-31255888D03*
X84902944Y-34650000D03*
X86600000Y-30552944D03*
D21*
X86600000Y-32952944D03*
D20*
X86600000Y-35352944D03*
X88297056Y-31255888D03*
X88297056Y-34650000D03*
X89000000Y-32952944D03*
%TD*%
D22*
%TO.P,D1,1,K*%
%TO.N,GND*%
X100512500Y-79937500D03*
%TO.P,D1,2,A*%
%TO.N,Net-(D1-A)*%
X100512500Y-78362500D03*
%TD*%
D20*
%TO.P,H2,1,1*%
%TO.N,GND*%
X112227944Y-64347056D03*
X112930888Y-62650000D03*
X112930888Y-66044112D03*
X114627944Y-61947056D03*
D21*
X114627944Y-64347056D03*
D20*
X114627944Y-66747056D03*
X116325000Y-62650000D03*
X116325000Y-66044112D03*
X117027944Y-64347056D03*
%TD*%
D23*
%TO.P,S2,1*%
%TO.N,/POW_12V*%
X84575000Y-40050000D03*
%TO.P,S2,2*%
%TO.N,Net-(J9-Pin_1)*%
X87075000Y-40050000D03*
%TO.P,S2,3*%
%TO.N,GND*%
X89575000Y-40050000D03*
%TO.P,S2,5*%
X84575000Y-37650000D03*
%TO.P,S2,6*%
X87075000Y-37650000D03*
%TO.P,S2,7*%
X89575000Y-37650000D03*
%TD*%
D24*
%TO.P,R3,1*%
%TO.N,+5V*%
X93841000Y-37039200D03*
%TO.P,R3,2*%
%TO.N,Net-(U2-PG)*%
X95491000Y-37039200D03*
%TD*%
D25*
%TO.P,C3,1*%
%TO.N,+5V*%
X101955800Y-39391200D03*
%TO.P,C3,2*%
%TO.N,GND*%
X101955800Y-41291200D03*
%TD*%
D26*
%TO.P,R2,1*%
%TO.N,Net-(U2-FB)*%
X95491000Y-40442800D03*
%TO.P,R2,2*%
%TO.N,GND*%
X93841000Y-40442800D03*
%TD*%
D27*
%TO.P,U2,1,SW*%
%TO.N,Net-(L1-Pad1)*%
X99287500Y-40187500D03*
%TO.P,U2,2,SW*%
X98787500Y-40187500D03*
%TO.P,U2,3,SW*%
X98287500Y-40187500D03*
%TO.P,U2,4,PG*%
%TO.N,Net-(U2-PG)*%
X97787500Y-40187500D03*
D28*
%TO.P,U2,5,FB*%
%TO.N,Net-(U2-FB)*%
X97075000Y-40900000D03*
%TO.P,U2,6,AGND*%
%TO.N,GND*%
X97075000Y-41400000D03*
%TO.P,U2,7,FSW*%
X97075000Y-41900000D03*
%TO.P,U2,8,DEF*%
X97075000Y-42400000D03*
D27*
%TO.P,U2,9,SS/TR*%
%TO.N,Net-(U2-SS{slash}TR)*%
X97787500Y-43112500D03*
%TO.P,U2,10,AVIN*%
%TO.N,/POW_12V*%
X98287500Y-43112500D03*
%TO.P,U2,11,PVIN*%
X98787500Y-43112500D03*
%TO.P,U2,12,PVIN*%
X99287500Y-43112500D03*
D28*
%TO.P,U2,13,EN*%
X100000000Y-42400000D03*
%TO.P,U2,14,VOS*%
%TO.N,+5V*%
X100000000Y-41900000D03*
%TO.P,U2,15,PGND*%
%TO.N,GND*%
X100000000Y-41400000D03*
%TO.P,U2,16,PGND*%
X100000000Y-40900000D03*
D29*
%TO.P,U2,17,PGND*%
X98537500Y-41650000D03*
%TD*%
D30*
%TO.P,U1,1,OUT*%
%TO.N,/POW_12V*%
X100075000Y-61470000D03*
%TO.P,U1,2,IN*%
%TO.N,Net-(J6-Pin_2)*%
X100075000Y-62610000D03*
D31*
%TO.P,U1,3,Vbb*%
%TO.N,+12V*%
X104700000Y-62225000D03*
X104700000Y-65275000D03*
D32*
X106375000Y-63750000D03*
D31*
X108050000Y-62225000D03*
X108050000Y-65275000D03*
D30*
%TO.P,U1,4,IS*%
%TO.N,unconnected-(U1-IS-Pad4)*%
X100075000Y-64890000D03*
%TO.P,U1,5,OUT*%
%TO.N,/POW_12V*%
X100075000Y-66030000D03*
%TD*%
D17*
%TO.P,J13,1,Pin_1*%
%TO.N,/POW_12V*%
X84075000Y-54315000D03*
D18*
%TO.P,J13,2,Pin_2*%
X86615000Y-54315000D03*
%TO.P,J13,3,Pin_3*%
%TO.N,Net-(J13-Pin_3)*%
X84075000Y-56855000D03*
%TO.P,J13,4,Pin_4*%
X86615000Y-56855000D03*
%TD*%
D17*
%TO.P,J5,1,Pin_1*%
%TO.N,GND*%
X104075000Y-54385000D03*
D18*
%TO.P,J5,2,Pin_2*%
%TO.N,/POW_12V*%
X104075000Y-56925000D03*
%TD*%
D17*
%TO.P,J7,1,Pin_1*%
%TO.N,/POW_12V*%
X88600000Y-67275000D03*
D18*
%TO.P,J7,2,Pin_2*%
%TO.N,GND*%
X86060000Y-67275000D03*
%TO.P,J7,3,Pin_3*%
%TO.N,/POW_12V*%
X88600000Y-64735000D03*
%TO.P,J7,4,Pin_4*%
%TO.N,GND*%
X86060000Y-64735000D03*
%TD*%
D11*
%TO.P,J4,*%
%TO.N,*%
X97325000Y-78400000D03*
X83825000Y-78400000D03*
D12*
%TO.P,J4,1,Pin_1*%
%TO.N,GND*%
X86975000Y-72400000D03*
D13*
%TO.P,J4,2,Pin_2*%
%TO.N,/POW_12V*%
X94175000Y-72400000D03*
%TD*%
D24*
%TO.P,R1,1*%
%TO.N,+5V*%
X93866400Y-38741000D03*
%TO.P,R1,2*%
%TO.N,Net-(U2-FB)*%
X95516400Y-38741000D03*
%TD*%
D33*
%TO.P,C5,1*%
%TO.N,GND*%
X95453400Y-42233200D03*
%TO.P,C5,2*%
%TO.N,Net-(U2-SS{slash}TR)*%
X95453400Y-43783200D03*
%TD*%
%TO.P,C2,1*%
%TO.N,GND*%
X83825000Y-50125000D03*
%TO.P,C2,2*%
%TO.N,Net-(C2-Pad2)*%
X83825000Y-51675000D03*
%TD*%
D10*
%TO.P,R5,1*%
%TO.N,Net-(J9-Pin_4)*%
X85325000Y-46825000D03*
%TO.P,R5,2*%
%TO.N,Net-(C4-Pad2)*%
X85325000Y-48475000D03*
%TD*%
D17*
%TO.P,J2,1,Pin_1*%
%TO.N,Net-(J2-Pin_1)*%
X114325000Y-32820000D03*
D18*
%TO.P,J2,2,Pin_2*%
%TO.N,Net-(J2-Pin_2)*%
X116865000Y-32820000D03*
%TO.P,J2,3,Pin_3*%
%TO.N,Net-(J2-Pin_1)*%
X114325000Y-35360000D03*
%TO.P,J2,4,Pin_4*%
%TO.N,Net-(J2-Pin_2)*%
X116865000Y-35360000D03*
%TO.P,J2,5,Pin_5*%
%TO.N,/ESC_Vbb*%
X114325000Y-37900000D03*
%TO.P,J2,6,Pin_6*%
X116865000Y-37900000D03*
%TO.P,J2,7,Pin_7*%
%TO.N,GND*%
X114325000Y-40440000D03*
%TO.P,J2,8,Pin_8*%
X116865000Y-40440000D03*
%TD*%
D34*
%TO.P,S1,1*%
%TO.N,GND*%
X110875000Y-52410000D03*
%TO.P,S1,2*%
X110875000Y-54910000D03*
%TO.P,S1,3*%
%TO.N,Net-(J6-Pin_2)*%
X110875000Y-57410000D03*
%TO.P,S1,5*%
%TO.N,GND*%
X113275000Y-52410000D03*
%TO.P,S1,6*%
X113275000Y-54910000D03*
%TO.P,S1,7*%
X113275000Y-57410000D03*
%TD*%
D23*
%TO.P,S3,1*%
%TO.N,/POW_12V*%
X84575000Y-44650000D03*
%TO.P,S3,2*%
%TO.N,Net-(J9-Pin_3)*%
X87075000Y-44650000D03*
%TO.P,S3,3*%
%TO.N,GND*%
X89575000Y-44650000D03*
%TO.P,S3,5*%
X84575000Y-42250000D03*
%TO.P,S3,6*%
X87075000Y-42250000D03*
%TO.P,S3,7*%
X89575000Y-42250000D03*
%TD*%
D17*
%TO.P,J6,1,Pin_1*%
%TO.N,GND*%
X107825000Y-54360000D03*
D18*
%TO.P,J6,2,Pin_2*%
%TO.N,Net-(J6-Pin_2)*%
X107825000Y-56900000D03*
%TD*%
D33*
%TO.P,C4,1*%
%TO.N,GND*%
X83825000Y-46875000D03*
%TO.P,C4,2*%
%TO.N,Net-(C4-Pad2)*%
X83825000Y-48425000D03*
%TD*%
D17*
%TO.P,J12,1,Pin_1*%
%TO.N,/POW_12V*%
X90285000Y-54315000D03*
D18*
%TO.P,J12,2,Pin_2*%
X92825000Y-54315000D03*
%TO.P,J12,3,Pin_3*%
%TO.N,Net-(J12-Pin_3)*%
X90285000Y-56855000D03*
%TO.P,J12,4,Pin_4*%
X92825000Y-56855000D03*
%TD*%
D10*
%TO.P,R10,1*%
%TO.N,/POW_12V*%
X100512500Y-74825000D03*
%TO.P,R10,2*%
%TO.N,Net-(D1-A)*%
X100512500Y-76475000D03*
%TD*%
D15*
%TO.P,Q2,1*%
%TO.N,Net-(C2-Pad2)*%
X87825000Y-61650000D03*
%TO.P,Q2,2*%
%TO.N,GND*%
X89725000Y-61650000D03*
%TO.P,Q2,3*%
%TO.N,Net-(J12-Pin_3)*%
X88775000Y-59775000D03*
%TD*%
D35*
%TO.N,GND*%
X112350000Y-37610000D03*
X102075000Y-44606750D03*
X102075000Y-47000000D03*
X87525000Y-51900000D03*
D36*
X107575000Y-77900000D03*
X88825000Y-76650000D03*
D35*
X98553200Y-41597400D03*
X93575000Y-51850000D03*
D36*
X109575000Y-77900000D03*
D35*
X88500000Y-46075000D03*
X99053200Y-41197400D03*
X94753200Y-46547400D03*
X86675000Y-49150000D03*
D36*
X111825000Y-83550000D03*
X90825000Y-78650000D03*
D35*
X86825000Y-50900000D03*
D36*
X90825000Y-76650000D03*
D35*
X112335000Y-35580000D03*
D36*
X111575000Y-75900000D03*
X83075000Y-46900000D03*
D35*
X98053200Y-42097400D03*
D36*
X83075000Y-42150000D03*
D35*
X112350000Y-31610000D03*
X89725000Y-51900000D03*
D36*
X113575000Y-77900000D03*
D35*
X84325000Y-49650000D03*
D36*
X86925000Y-83000000D03*
X107825000Y-83550000D03*
X86825000Y-76650000D03*
D35*
X102075000Y-45400000D03*
D36*
X113575000Y-75900000D03*
X92825000Y-76650000D03*
D35*
X102075000Y-47800000D03*
D36*
X113825000Y-83550000D03*
X88925000Y-83000000D03*
X111575000Y-77900000D03*
D35*
X83375000Y-49650000D03*
X91025000Y-38400000D03*
D36*
X82775000Y-63600000D03*
D35*
X112350000Y-36610000D03*
X86625000Y-60500000D03*
X112350000Y-34610000D03*
X91025000Y-39450000D03*
X90025000Y-60650000D03*
X90825000Y-44850000D03*
D36*
X90925000Y-83000000D03*
X86825000Y-78650000D03*
X107575000Y-75900000D03*
D35*
X87075000Y-42250000D03*
X112350000Y-33610000D03*
X87575000Y-49150000D03*
X112350000Y-32610000D03*
D36*
X109825000Y-83550000D03*
D35*
X102075000Y-46200000D03*
X88725000Y-56000000D03*
X86625000Y-59500000D03*
X86625000Y-61600000D03*
D36*
X83025000Y-37800000D03*
D35*
X98053200Y-41197400D03*
X99053200Y-42097400D03*
X95453200Y-46547400D03*
X93525000Y-49300000D03*
D36*
X109575000Y-75900000D03*
X83075000Y-45150000D03*
X92825000Y-78650000D03*
X92925000Y-83000000D03*
X88825000Y-78650000D03*
%TO.N,/POW_12V*%
X97825000Y-62640000D03*
X101075000Y-57650000D03*
D35*
X85550002Y-44575000D03*
D36*
X97825000Y-67640000D03*
X100325000Y-55400000D03*
X99575000Y-67640000D03*
D35*
X85550002Y-40275000D03*
D36*
X94825000Y-53150000D03*
X91725000Y-64750000D03*
X101075000Y-67640000D03*
X97825000Y-64390000D03*
X98500000Y-59500000D03*
X97825000Y-60890000D03*
X99675000Y-53400000D03*
X101075000Y-59640000D03*
X97825000Y-66140000D03*
X100575000Y-72150000D03*
X91725000Y-67500000D03*
%TO.N,+12V*%
X104575000Y-66640000D03*
X108075000Y-64890000D03*
X104575000Y-60850000D03*
X108075000Y-62390000D03*
X104575000Y-62390000D03*
X104575000Y-64890000D03*
X108050000Y-66650000D03*
X108050000Y-60850000D03*
D35*
%TO.N,+5V*%
X93841000Y-35705200D03*
X104233200Y-39067400D03*
X100889000Y-43008200D03*
%TO.N,Net-(J9-Pin_3)*%
X87925000Y-44625000D03*
%TO.N,Net-(J9-Pin_1)*%
X87925000Y-40300000D03*
%TD*%
D37*
%TO.N,GND*%
X83825000Y-50100000D02*
X83375000Y-49650000D01*
D38*
X89575000Y-40050000D02*
X89725000Y-40050000D01*
D39*
X114325000Y-40440000D02*
X116865000Y-40440000D01*
D37*
X83850000Y-50125000D02*
X84325000Y-49650000D01*
D38*
X101887500Y-42854700D02*
X101887500Y-45112100D01*
X84187500Y-46900000D02*
X84187500Y-46787500D01*
D37*
X83825000Y-50125000D02*
X83850000Y-50125000D01*
X83825000Y-50125000D02*
X83825000Y-50100000D01*
D38*
%TO.N,Net-(D1-A)*%
X100512500Y-76475000D02*
X100512500Y-78362500D01*
D40*
%TO.N,/POW_12V*%
X103350000Y-57650000D02*
X104075000Y-56925000D01*
D41*
X103800000Y-56925000D02*
X104075000Y-56925000D01*
D42*
X88625000Y-67250000D02*
X88600000Y-67275000D01*
D38*
X85550002Y-44575000D02*
X84650000Y-44575000D01*
X84800000Y-40275000D02*
X84575000Y-40050000D01*
X85550002Y-40275000D02*
X84800000Y-40275000D01*
D43*
X96787200Y-46131400D02*
X96787200Y-45370400D01*
D40*
X88825000Y-67500000D02*
X88600000Y-67275000D01*
D43*
X97453200Y-46797400D02*
X96787200Y-46131400D01*
X96787200Y-45163400D02*
X96787200Y-45370400D01*
D44*
X88615000Y-64750000D02*
X88600000Y-64735000D01*
D43*
X98287500Y-43663100D02*
X96787200Y-45163400D01*
D38*
X98787500Y-43112500D02*
X98787500Y-45023300D01*
X84650000Y-44575000D02*
X84575000Y-44650000D01*
X99287500Y-45369900D02*
X99210800Y-45446600D01*
D40*
X101075000Y-57650000D02*
X103350000Y-57650000D01*
D38*
X98787500Y-45023300D02*
X99210800Y-45446600D01*
X100575000Y-72150000D02*
X100512500Y-72212500D01*
D44*
X88600000Y-64735000D02*
X88600000Y-67275000D01*
X91725000Y-64750000D02*
X88615000Y-64750000D01*
D43*
X98287500Y-43112500D02*
X98287500Y-43663100D01*
D38*
X100512500Y-72212500D02*
X100512500Y-74825000D01*
X96787200Y-45075040D02*
X96787200Y-45370400D01*
D37*
X84575000Y-40050000D02*
X84275000Y-40350000D01*
D38*
%TO.N,Net-(J6-Pin_2)*%
X101855000Y-62610000D02*
X102075000Y-62390000D01*
X107825000Y-56900000D02*
X108325000Y-57400000D01*
X105575000Y-59150000D02*
X107825000Y-56900000D01*
X102075000Y-62390000D02*
X102075000Y-59650000D01*
X100075000Y-62610000D02*
X101855000Y-62610000D01*
X102575000Y-59150000D02*
X105575000Y-59150000D01*
X108325000Y-57400000D02*
X109075000Y-57400000D01*
X109085000Y-57410000D02*
X110875000Y-57410000D01*
X109075000Y-57400000D02*
X109085000Y-57410000D01*
X102075000Y-59650000D02*
X102575000Y-59150000D01*
D43*
%TO.N,+5V*%
X93866400Y-38741000D02*
X93866400Y-37064600D01*
X100889000Y-42291404D02*
X100889000Y-43008200D01*
X93866400Y-37064600D02*
X93841000Y-37039200D01*
X100497596Y-41900000D02*
X100889000Y-42291404D01*
X100000000Y-41900000D02*
X100497596Y-41900000D01*
X93841000Y-35705200D02*
X93841000Y-37039200D01*
%TO.N,Net-(U2-SS{slash}TR)*%
X97787500Y-43112500D02*
X97116800Y-43783200D01*
X97116800Y-43783200D02*
X95453400Y-43783200D01*
D38*
X95467600Y-43797400D02*
X95453400Y-43783200D01*
D43*
%TO.N,Net-(U2-FB)*%
X95491000Y-40442800D02*
X95491000Y-38766400D01*
X97075000Y-40900000D02*
X95948200Y-40900000D01*
X95948200Y-40900000D02*
X95491000Y-40442800D01*
X95516400Y-40417400D02*
X95491000Y-40442800D01*
X95491000Y-38766400D02*
X95516400Y-38741000D01*
%TO.N,Net-(U2-PG)*%
X96553200Y-37697400D02*
X95895000Y-37039200D01*
X97343300Y-40187500D02*
X96553200Y-39397400D01*
X96553200Y-39397400D02*
X96553200Y-37697400D01*
X95895000Y-37039200D02*
X95491000Y-37039200D01*
X97787500Y-40187500D02*
X97343300Y-40187500D01*
D39*
%TO.N,/ESC_Vbb*%
X116865000Y-37900000D02*
X114325000Y-37900000D01*
%TO.N,Net-(J2-Pin_1)*%
X114325000Y-35360000D02*
X114325000Y-32820000D01*
%TO.N,Net-(J2-Pin_2)*%
X116865000Y-35360000D02*
X116865000Y-32820000D01*
D45*
%TO.N,Net-(C2-Pad2)*%
X85943750Y-51725000D02*
X87975000Y-53756250D01*
D37*
X87625000Y-61450000D02*
X87825000Y-61650000D01*
D45*
X87975000Y-57850000D02*
X87625000Y-58200000D01*
X87975000Y-53756250D02*
X87975000Y-57850000D01*
D37*
X85937500Y-51725000D02*
X85987500Y-51725000D01*
X84237500Y-51725000D02*
X84187500Y-51675000D01*
X85937500Y-51725000D02*
X85943750Y-51725000D01*
D45*
X87625000Y-58200000D02*
X87625000Y-61450000D01*
X85937500Y-51725000D02*
X84237500Y-51725000D01*
%TO.N,Net-(C4-Pad2)*%
X82750000Y-60937500D02*
X83525000Y-61712500D01*
X82750000Y-48975000D02*
X82750000Y-60937500D01*
X83825000Y-48425000D02*
X83300000Y-48425000D01*
X83825000Y-48425000D02*
X85275000Y-48425000D01*
X85275000Y-48425000D02*
X85325000Y-48475000D01*
X83300000Y-48425000D02*
X82750000Y-48975000D01*
D40*
%TO.N,Net-(J12-Pin_3)*%
X90170000Y-56855000D02*
X90285000Y-56855000D01*
X90285000Y-57302437D02*
X90285000Y-56855000D01*
X88775000Y-58812437D02*
X90285000Y-57302437D01*
X88775000Y-59775000D02*
X88775000Y-58812437D01*
%TO.N,Net-(J13-Pin_3)*%
X84475000Y-57255000D02*
X84075000Y-56855000D01*
X84475000Y-59837500D02*
X84475000Y-57255000D01*
D37*
%TO.N,Net-(J9-Pin_2)*%
X89035000Y-50440000D02*
X88745000Y-50150000D01*
D45*
X88445000Y-50075000D02*
X88810000Y-50440000D01*
X85325000Y-50075000D02*
X88445000Y-50075000D01*
%TO.N,Net-(J9-Pin_4)*%
X87735000Y-46825000D02*
X88810000Y-47900000D01*
D37*
X89035000Y-47900000D02*
X88810000Y-47900000D01*
X85500000Y-46650000D02*
X85325000Y-46825000D01*
D45*
X85325000Y-46825000D02*
X87735000Y-46825000D01*
D38*
%TO.N,Net-(J9-Pin_3)*%
X87925000Y-44625000D02*
X87100000Y-44625000D01*
X91350000Y-47900000D02*
X91575000Y-47900000D01*
X87100000Y-44625000D02*
X87075000Y-44650000D01*
%TO.N,Net-(J9-Pin_1)*%
X86725000Y-40400000D02*
X87075000Y-40050000D01*
X87325000Y-40300000D02*
X87075000Y-40050000D01*
X87925000Y-40300000D02*
X87325000Y-40300000D01*
%TD*%
%TA.AperFunction,Conductor*%
%TO.N,+5V*%
G36*
X106858624Y-31751093D02*
G01*
X106964222Y-31764473D01*
X106995629Y-31772740D01*
X107086509Y-31809960D01*
X107114689Y-31826098D01*
X107192786Y-31885640D01*
X107215810Y-31908541D01*
X107275769Y-31986324D01*
X107292058Y-32014423D01*
X107329759Y-32105100D01*
X107338193Y-32136465D01*
X107352132Y-32241978D01*
X107353200Y-32258218D01*
X107353200Y-40989274D01*
X107352139Y-41005460D01*
X107338293Y-41110624D01*
X107329915Y-41141891D01*
X107292459Y-41232318D01*
X107276274Y-41260351D01*
X107216691Y-41338001D01*
X107193801Y-41360891D01*
X107116151Y-41420474D01*
X107088118Y-41436659D01*
X106997691Y-41474115D01*
X106966424Y-41482493D01*
X106872598Y-41494846D01*
X106861258Y-41496339D01*
X106845074Y-41497400D01*
X105314449Y-41497400D01*
X105298533Y-41496374D01*
X105288855Y-41495121D01*
X105195086Y-41482985D01*
X105164307Y-41474883D01*
X105148718Y-41468546D01*
X105075132Y-41438632D01*
X105047433Y-41422962D01*
X104963985Y-41360373D01*
X104951869Y-41350004D01*
X103748806Y-40178220D01*
X103748802Y-40178216D01*
X103748801Y-40178215D01*
X103603200Y-40036400D01*
X103399952Y-40036400D01*
X101460326Y-40036400D01*
X101444141Y-40035339D01*
X101431117Y-40033624D01*
X101338975Y-40021493D01*
X101307708Y-40013115D01*
X101217281Y-39975659D01*
X101189248Y-39959474D01*
X101111598Y-39899891D01*
X101088708Y-39877001D01*
X101029125Y-39799351D01*
X101012940Y-39771318D01*
X100975484Y-39680891D01*
X100967106Y-39649623D01*
X100953261Y-39544459D01*
X100952200Y-39528274D01*
X100952200Y-32286848D01*
X100953254Y-32270718D01*
X100957025Y-32241978D01*
X100967007Y-32165896D01*
X100975326Y-32134736D01*
X101012541Y-32044550D01*
X101028613Y-32016597D01*
X101087838Y-31939060D01*
X101110584Y-31916195D01*
X101187796Y-31856566D01*
X101215663Y-31840344D01*
X101305654Y-31802648D01*
X101336765Y-31794164D01*
X101441532Y-31779852D01*
X101457631Y-31778715D01*
X105723322Y-31756056D01*
X106015357Y-31754505D01*
X106842387Y-31750113D01*
X106858624Y-31751093D01*
G37*
%TD.AperFunction*%
%TD*%
%TA.AperFunction,Conductor*%
%TO.N,Net-(L1-Pad1)*%
G36*
X100234839Y-33579085D02*
G01*
X100280594Y-33631889D01*
X100291800Y-33683400D01*
X100291800Y-38920492D01*
X100272115Y-38987531D01*
X100258177Y-39005392D01*
X99504400Y-39807799D01*
X99504400Y-40344200D01*
X99484715Y-40411239D01*
X99431911Y-40456994D01*
X99380400Y-40468200D01*
X98236999Y-40468200D01*
X98169960Y-40448515D01*
X98124205Y-40395711D01*
X98112999Y-40344200D01*
X98112999Y-40343272D01*
X98117223Y-40311184D01*
X98138000Y-40233644D01*
X98138000Y-40141356D01*
X98117224Y-40063818D01*
X98112999Y-40031725D01*
X98112999Y-39811600D01*
X98112998Y-39811597D01*
X98109782Y-39795423D01*
X98107400Y-39771236D01*
X98107400Y-39528400D01*
X98107399Y-39528399D01*
X97228126Y-38624701D01*
X97195484Y-38562925D01*
X97193000Y-38538229D01*
X97193000Y-33683400D01*
X97212685Y-33616361D01*
X97265489Y-33570606D01*
X97317000Y-33559400D01*
X100167800Y-33559400D01*
X100234839Y-33579085D01*
G37*
%TD.AperFunction*%
%TD*%
%TA.AperFunction,Conductor*%
%TO.N,/POW_12V*%
G36*
X100119425Y-42419685D02*
G01*
X100165180Y-42472489D01*
X100176377Y-42522605D01*
X100214326Y-45899998D01*
X100224992Y-46849288D01*
X100225000Y-46850681D01*
X100225000Y-50400001D01*
X101571717Y-56136016D01*
X101575000Y-56164358D01*
X101575000Y-61650000D01*
X90825000Y-61650000D01*
X90825000Y-60217697D01*
X90844685Y-60150658D01*
X90881943Y-60113393D01*
X94325000Y-57900000D01*
X94325000Y-49300817D01*
X94344685Y-49233778D01*
X94360659Y-49213800D01*
X97625000Y-45900000D01*
X97625000Y-44899599D01*
X97644685Y-44832560D01*
X97659204Y-44814085D01*
X98625000Y-43800000D01*
X98625000Y-42924000D01*
X98644685Y-42856961D01*
X98697489Y-42811206D01*
X98749000Y-42800000D01*
X99696406Y-42800000D01*
X99696406Y-42524000D01*
X99716091Y-42456961D01*
X99768895Y-42411206D01*
X99820406Y-42400000D01*
X100052386Y-42400000D01*
X100119425Y-42419685D01*
G37*
%TD.AperFunction*%
%TD*%
%TA.AperFunction,Conductor*%
%TO.N,GND*%
G36*
X117745505Y-29403310D02*
G01*
X117922727Y-29420307D01*
X117946615Y-29424999D01*
X118111214Y-29474528D01*
X118133725Y-29483797D01*
X118285477Y-29564537D01*
X118305743Y-29578028D01*
X118438789Y-29686863D01*
X118456030Y-29704055D01*
X118565244Y-29836789D01*
X118578794Y-29857018D01*
X118634803Y-29961565D01*
X118649500Y-30020122D01*
X118649500Y-30746000D01*
X118629815Y-30813039D01*
X118577011Y-30858794D01*
X118525500Y-30870000D01*
X112350000Y-30870000D01*
X112350000Y-38610000D01*
X113100000Y-39360000D01*
X118525500Y-39360000D01*
X118592539Y-39379685D01*
X118638294Y-39432489D01*
X118649500Y-39484000D01*
X118649500Y-87396974D01*
X118634863Y-87455417D01*
X118587134Y-87544731D01*
X118573630Y-87564946D01*
X118464768Y-87697615D01*
X118447579Y-87714806D01*
X118314918Y-87823691D01*
X118294707Y-87837197D01*
X118143351Y-87918108D01*
X118120890Y-87927413D01*
X117956658Y-87977236D01*
X117932815Y-87981979D01*
X117755925Y-87999403D01*
X117743770Y-88000000D01*
X83006093Y-88000000D01*
X82993939Y-87999403D01*
X82817065Y-87981982D01*
X82793224Y-87977240D01*
X82629001Y-87927424D01*
X82606543Y-87918121D01*
X82455201Y-87837227D01*
X82434989Y-87823722D01*
X82302333Y-87714854D01*
X82285145Y-87697666D01*
X82176277Y-87565010D01*
X82162772Y-87544798D01*
X82114997Y-87455417D01*
X82081877Y-87393453D01*
X82072575Y-87370998D01*
X82022757Y-87206769D01*
X82018018Y-87182941D01*
X82000597Y-87006061D01*
X82000000Y-86993907D01*
X82000000Y-79444856D01*
X83074500Y-79444856D01*
X83074502Y-79444882D01*
X83077413Y-79469987D01*
X83077415Y-79469991D01*
X83122793Y-79572764D01*
X83122794Y-79572765D01*
X83202235Y-79652206D01*
X83305009Y-79697585D01*
X83330135Y-79700500D01*
X84319864Y-79700499D01*
X84319879Y-79700497D01*
X84319882Y-79700497D01*
X84344987Y-79697586D01*
X84344988Y-79697585D01*
X84344991Y-79697585D01*
X84447765Y-79652206D01*
X84527206Y-79572765D01*
X84572585Y-79469991D01*
X84575500Y-79444865D01*
X84575500Y-79444856D01*
X96574500Y-79444856D01*
X96574502Y-79444882D01*
X96577413Y-79469987D01*
X96577415Y-79469991D01*
X96622793Y-79572764D01*
X96622794Y-79572765D01*
X96702235Y-79652206D01*
X96805009Y-79697585D01*
X96830135Y-79700500D01*
X97819864Y-79700499D01*
X97819879Y-79700497D01*
X97819882Y-79700497D01*
X97844987Y-79697586D01*
X97844988Y-79697585D01*
X97844991Y-79697585D01*
X97947765Y-79652206D01*
X98027206Y-79572765D01*
X98072585Y-79469991D01*
X98075500Y-79444865D01*
X98075500Y-78621902D01*
X99737000Y-78621902D01*
X99747020Y-78705343D01*
X99747020Y-78705344D01*
X99747021Y-78705346D01*
X99784544Y-78800499D01*
X99799386Y-78838134D01*
X99885632Y-78951867D01*
X99999365Y-79038113D01*
X99999368Y-79038115D01*
X100132154Y-79090479D01*
X100215598Y-79100500D01*
X100809402Y-79100500D01*
X100892846Y-79090479D01*
X101025632Y-79038115D01*
X101139367Y-78951867D01*
X101225615Y-78838132D01*
X101277979Y-78705346D01*
X101288000Y-78621902D01*
X101288000Y-78544856D01*
X102574500Y-78544856D01*
X102574502Y-78544882D01*
X102577413Y-78569987D01*
X102577415Y-78569991D01*
X102622793Y-78672764D01*
X102622794Y-78672765D01*
X102702235Y-78752206D01*
X102805009Y-78797585D01*
X102830135Y-78800500D01*
X103819864Y-78800499D01*
X103819879Y-78800497D01*
X103819882Y-78800497D01*
X103844987Y-78797586D01*
X103844988Y-78797585D01*
X103844991Y-78797585D01*
X103947765Y-78752206D01*
X104027206Y-78672765D01*
X104072585Y-78569991D01*
X104075500Y-78544865D01*
X104075500Y-78544856D01*
X116074500Y-78544856D01*
X116074502Y-78544882D01*
X116077413Y-78569987D01*
X116077415Y-78569991D01*
X116122793Y-78672764D01*
X116122794Y-78672765D01*
X116202235Y-78752206D01*
X116305009Y-78797585D01*
X116330135Y-78800500D01*
X117319864Y-78800499D01*
X117319879Y-78800497D01*
X117319882Y-78800497D01*
X117344987Y-78797586D01*
X117344988Y-78797585D01*
X117344991Y-78797585D01*
X117447765Y-78752206D01*
X117527206Y-78672765D01*
X117572585Y-78569991D01*
X117575500Y-78544865D01*
X117575499Y-76455136D01*
X117575497Y-76455117D01*
X117572586Y-76430012D01*
X117572585Y-76430010D01*
X117572585Y-76430009D01*
X117527206Y-76327235D01*
X117447765Y-76247794D01*
X117400977Y-76227135D01*
X117344992Y-76202415D01*
X117319865Y-76199500D01*
X116330143Y-76199500D01*
X116330117Y-76199502D01*
X116305012Y-76202413D01*
X116305008Y-76202415D01*
X116202235Y-76247793D01*
X116122794Y-76327234D01*
X116077415Y-76430006D01*
X116077415Y-76430008D01*
X116074500Y-76455131D01*
X116074500Y-78544856D01*
X104075500Y-78544856D01*
X104075499Y-76455136D01*
X104075497Y-76455117D01*
X104072586Y-76430012D01*
X104072585Y-76430010D01*
X104072585Y-76430009D01*
X104027206Y-76327235D01*
X103947765Y-76247794D01*
X103900977Y-76227135D01*
X103844992Y-76202415D01*
X103819865Y-76199500D01*
X102830143Y-76199500D01*
X102830117Y-76199502D01*
X102805012Y-76202413D01*
X102805008Y-76202415D01*
X102702235Y-76247793D01*
X102622794Y-76327234D01*
X102577415Y-76430006D01*
X102577415Y-76430008D01*
X102574500Y-76455131D01*
X102574500Y-78544856D01*
X101288000Y-78544856D01*
X101288000Y-78103098D01*
X101277979Y-78019654D01*
X101225615Y-77886868D01*
X101225614Y-77886867D01*
X101225614Y-77886866D01*
X101210127Y-77866444D01*
X101201539Y-77853512D01*
X100966742Y-77446778D01*
X100950274Y-77378877D01*
X100968480Y-77319874D01*
X101141855Y-77037675D01*
X101148234Y-77028288D01*
X101231293Y-76917335D01*
X101231292Y-76917335D01*
X101231296Y-76917331D01*
X101281591Y-76782483D01*
X101288000Y-76722873D01*
X101287999Y-76227128D01*
X101281591Y-76167517D01*
X101231296Y-76032669D01*
X101231295Y-76032668D01*
X101231293Y-76032664D01*
X101145047Y-75917455D01*
X101145044Y-75917452D01*
X101029835Y-75831206D01*
X101029828Y-75831202D01*
X100894986Y-75780910D01*
X100894985Y-75780909D01*
X100894983Y-75780909D01*
X100835373Y-75774500D01*
X100835363Y-75774500D01*
X100189629Y-75774500D01*
X100189623Y-75774501D01*
X100130016Y-75780908D01*
X99995171Y-75831202D01*
X99995164Y-75831206D01*
X99879955Y-75917452D01*
X99879952Y-75917455D01*
X99793706Y-76032664D01*
X99793702Y-76032671D01*
X99743410Y-76167513D01*
X99743409Y-76167517D01*
X99737000Y-76227127D01*
X99737000Y-76227134D01*
X99737000Y-76227135D01*
X99737000Y-76722870D01*
X99737001Y-76722876D01*
X99743408Y-76782483D01*
X99793702Y-76917328D01*
X99793703Y-76917330D01*
X99876748Y-77028263D01*
X99883134Y-77037663D01*
X100056518Y-77319874D01*
X100074840Y-77387299D01*
X100058256Y-77446779D01*
X99823454Y-77853520D01*
X99814869Y-77866449D01*
X99799385Y-77886867D01*
X99747020Y-78019655D01*
X99747020Y-78019656D01*
X99737000Y-78103097D01*
X99737000Y-78621902D01*
X98075500Y-78621902D01*
X98075499Y-77355136D01*
X98075497Y-77355117D01*
X98072586Y-77330012D01*
X98072585Y-77330010D01*
X98072585Y-77330009D01*
X98027206Y-77227235D01*
X97947765Y-77147794D01*
X97947763Y-77147793D01*
X97844992Y-77102415D01*
X97819865Y-77099500D01*
X96830143Y-77099500D01*
X96830117Y-77099502D01*
X96805012Y-77102413D01*
X96805008Y-77102415D01*
X96702235Y-77147793D01*
X96622794Y-77227234D01*
X96577415Y-77330006D01*
X96577415Y-77330008D01*
X96574500Y-77355131D01*
X96574500Y-79444856D01*
X84575500Y-79444856D01*
X84575499Y-77355136D01*
X84575497Y-77355117D01*
X84572586Y-77330012D01*
X84572585Y-77330010D01*
X84572585Y-77330009D01*
X84527206Y-77227235D01*
X84447765Y-77147794D01*
X84447763Y-77147793D01*
X84344992Y-77102415D01*
X84319865Y-77099500D01*
X83330143Y-77099500D01*
X83330117Y-77099502D01*
X83305012Y-77102413D01*
X83305008Y-77102415D01*
X83202235Y-77147793D01*
X83122794Y-77227234D01*
X83077415Y-77330006D01*
X83077415Y-77330008D01*
X83074500Y-77355131D01*
X83074500Y-79444856D01*
X82000000Y-79444856D01*
X82000000Y-60990226D01*
X82349500Y-60990226D01*
X82376793Y-61092089D01*
X82403156Y-61137750D01*
X82429520Y-61183413D01*
X82429522Y-61183415D01*
X82669778Y-61423671D01*
X82693006Y-61455897D01*
X82911409Y-61892702D01*
X82924500Y-61948157D01*
X82924500Y-62354269D01*
X82927353Y-62384699D01*
X82927353Y-62384701D01*
X82972206Y-62512880D01*
X82972207Y-62512882D01*
X83052850Y-62622150D01*
X83162118Y-62702793D01*
X83204845Y-62717744D01*
X83290299Y-62747646D01*
X83320730Y-62750500D01*
X83320734Y-62750500D01*
X83729270Y-62750500D01*
X83759699Y-62747646D01*
X83759701Y-62747646D01*
X83823790Y-62725219D01*
X83887882Y-62702793D01*
X83997150Y-62622150D01*
X84077793Y-62512882D01*
X84100219Y-62448790D01*
X84122646Y-62384701D01*
X84122646Y-62384699D01*
X84125500Y-62354269D01*
X84125500Y-61070730D01*
X84122646Y-61040301D01*
X84121845Y-61038011D01*
X84121753Y-61036210D01*
X84121036Y-61032927D01*
X84121579Y-61032808D01*
X84118284Y-60968232D01*
X84153013Y-60907605D01*
X84215007Y-60875378D01*
X84250464Y-60873599D01*
X84270734Y-60875500D01*
X84679270Y-60875500D01*
X84709699Y-60872646D01*
X84709701Y-60872646D01*
X84788407Y-60845105D01*
X84837882Y-60827793D01*
X84947150Y-60747150D01*
X85027793Y-60637882D01*
X85061331Y-60542033D01*
X85090689Y-60495308D01*
X85174464Y-60411535D01*
X85273013Y-60264047D01*
X85340894Y-60100166D01*
X85347972Y-60064586D01*
X85366725Y-59970307D01*
X85375500Y-59926191D01*
X85375500Y-58454407D01*
X85376806Y-58436459D01*
X85379780Y-58416128D01*
X85378583Y-58385891D01*
X85375597Y-58310433D01*
X85375500Y-58305529D01*
X85375500Y-57474075D01*
X85395185Y-57407036D01*
X85447989Y-57361281D01*
X85517147Y-57351337D01*
X85580703Y-57380362D01*
X85610498Y-57418801D01*
X85619036Y-57435946D01*
X85632635Y-57463257D01*
X85760874Y-57633071D01*
X85761128Y-57633407D01*
X85918698Y-57777052D01*
X86099981Y-57889298D01*
X86298802Y-57966321D01*
X86508390Y-58005500D01*
X86508392Y-58005500D01*
X86721608Y-58005500D01*
X86721610Y-58005500D01*
X86931198Y-57966321D01*
X87084776Y-57906824D01*
X87154399Y-57900962D01*
X87216139Y-57933672D01*
X87250394Y-57994568D01*
X87249345Y-58054542D01*
X87227240Y-58137046D01*
X87227239Y-58137052D01*
X87224500Y-58147272D01*
X87224500Y-60595906D01*
X87222389Y-60618689D01*
X87219500Y-60634143D01*
X87219500Y-61667020D01*
X87219853Y-61681717D01*
X87219906Y-61682815D01*
X87221718Y-61704437D01*
X87222178Y-61706779D01*
X87224500Y-61730666D01*
X87224500Y-62291769D01*
X87227353Y-62322199D01*
X87227353Y-62322201D01*
X87272206Y-62450380D01*
X87272207Y-62450382D01*
X87352850Y-62559650D01*
X87462118Y-62640293D01*
X87504845Y-62655244D01*
X87590299Y-62685146D01*
X87620730Y-62688000D01*
X87620734Y-62688000D01*
X88029270Y-62688000D01*
X88059699Y-62685146D01*
X88059701Y-62685146D01*
X88123790Y-62662719D01*
X88187882Y-62640293D01*
X88297150Y-62559650D01*
X88377793Y-62450382D01*
X88400776Y-62384699D01*
X88422646Y-62322201D01*
X88422646Y-62322199D01*
X88425500Y-62291769D01*
X88425500Y-61008230D01*
X88422646Y-60977801D01*
X88421845Y-60975511D01*
X88421753Y-60973710D01*
X88421036Y-60970427D01*
X88421579Y-60970308D01*
X88418284Y-60905732D01*
X88453013Y-60845105D01*
X88515007Y-60812878D01*
X88550464Y-60811099D01*
X88570734Y-60813000D01*
X88979270Y-60813000D01*
X89009699Y-60810146D01*
X89009701Y-60810146D01*
X89073790Y-60787719D01*
X89137882Y-60765293D01*
X89247150Y-60684650D01*
X89327793Y-60575382D01*
X89361331Y-60479533D01*
X89390689Y-60432808D01*
X89474464Y-60349035D01*
X89573013Y-60201547D01*
X89640894Y-60037666D01*
X89654295Y-59970298D01*
X89675499Y-59863695D01*
X89675500Y-59863693D01*
X89675500Y-59236798D01*
X89695185Y-59169759D01*
X89711819Y-59149117D01*
X89829865Y-59031071D01*
X89972766Y-58888169D01*
X89988633Y-58874764D01*
X90003333Y-58864324D01*
X90196998Y-58663959D01*
X90198359Y-58662575D01*
X90984463Y-57876473D01*
X90984464Y-57876472D01*
X91083013Y-57728984D01*
X91102146Y-57682789D01*
X91133174Y-57638600D01*
X91138872Y-57633407D01*
X91267366Y-57463255D01*
X91290302Y-57417193D01*
X91362403Y-57272394D01*
X91362403Y-57272393D01*
X91362405Y-57272389D01*
X91420756Y-57067310D01*
X91431529Y-56951047D01*
X91457315Y-56886111D01*
X91501869Y-56854194D01*
X91465497Y-56833331D01*
X91433307Y-56771318D01*
X91431529Y-56758951D01*
X91430653Y-56749500D01*
X91420756Y-56642690D01*
X91362405Y-56437611D01*
X91362403Y-56437606D01*
X91362403Y-56437605D01*
X91267367Y-56246746D01*
X91138872Y-56076593D01*
X91127421Y-56066154D01*
X90981302Y-55932948D01*
X90800019Y-55820702D01*
X90800017Y-55820701D01*
X90680757Y-55774500D01*
X90601198Y-55743679D01*
X90428456Y-55711387D01*
X90366176Y-55679719D01*
X90330903Y-55619407D01*
X90333837Y-55549599D01*
X90374046Y-55492459D01*
X90438764Y-55466128D01*
X90451233Y-55465499D01*
X91179864Y-55465499D01*
X91179879Y-55465497D01*
X91179882Y-55465497D01*
X91204987Y-55462586D01*
X91204988Y-55462585D01*
X91204991Y-55462585D01*
X91307765Y-55417206D01*
X91387206Y-55337765D01*
X91432585Y-55234991D01*
X91435500Y-55209865D01*
X91435499Y-54471046D01*
X91455183Y-54404009D01*
X91507987Y-54358254D01*
X91577146Y-54348310D01*
X91640702Y-54377335D01*
X91678476Y-54436113D01*
X91682970Y-54459606D01*
X91689244Y-54527310D01*
X91747596Y-54732392D01*
X91747596Y-54732394D01*
X91842632Y-54923253D01*
X91909885Y-55012309D01*
X91971128Y-55093407D01*
X92128698Y-55237052D01*
X92309981Y-55349298D01*
X92508802Y-55426321D01*
X92705613Y-55463111D01*
X92767893Y-55494779D01*
X92803166Y-55555092D01*
X92800232Y-55624900D01*
X92760023Y-55682040D01*
X92705613Y-55706888D01*
X92508802Y-55743679D01*
X92508799Y-55743679D01*
X92508799Y-55743680D01*
X92309982Y-55820701D01*
X92309980Y-55820702D01*
X92128699Y-55932947D01*
X91971127Y-56076593D01*
X91842632Y-56246746D01*
X91747596Y-56437605D01*
X91747596Y-56437607D01*
X91689244Y-56642689D01*
X91678471Y-56758951D01*
X91652685Y-56823888D01*
X91608130Y-56855804D01*
X91644503Y-56876668D01*
X91676693Y-56938681D01*
X91678470Y-56951047D01*
X91689244Y-57067310D01*
X91728990Y-57207002D01*
X91747596Y-57272392D01*
X91747596Y-57272394D01*
X91842632Y-57463253D01*
X91970874Y-57633071D01*
X91971128Y-57633407D01*
X92128698Y-57777052D01*
X92309981Y-57889298D01*
X92508802Y-57966321D01*
X92718390Y-58005500D01*
X92718392Y-58005500D01*
X92931608Y-58005500D01*
X92931610Y-58005500D01*
X93141198Y-57966321D01*
X93296521Y-57906148D01*
X93366143Y-57900286D01*
X93427883Y-57932996D01*
X93462138Y-57993892D01*
X93458033Y-58063641D01*
X93416870Y-58120098D01*
X93408368Y-58126081D01*
X90716749Y-59856407D01*
X90716748Y-59856408D01*
X90665902Y-59897392D01*
X90628643Y-59934658D01*
X90602445Y-59964511D01*
X90551560Y-60064587D01*
X90531877Y-60131618D01*
X90531876Y-60131625D01*
X90521822Y-60201553D01*
X90519500Y-60217699D01*
X90519500Y-63575500D01*
X90499815Y-63642539D01*
X90447011Y-63688294D01*
X90395500Y-63699500D01*
X90331603Y-63699500D01*
X90305370Y-63696693D01*
X90294316Y-63694300D01*
X89898623Y-63683070D01*
X89890343Y-63682557D01*
X89614039Y-63656148D01*
X89609580Y-63655641D01*
X89426777Y-63631465D01*
X89360031Y-63622638D01*
X89359991Y-63622633D01*
X89359968Y-63622630D01*
X89355031Y-63622018D01*
X89354614Y-63621970D01*
X89348668Y-63621343D01*
X89050879Y-63592882D01*
X89040367Y-63592059D01*
X89039650Y-63592015D01*
X89029685Y-63591570D01*
X88620707Y-63579963D01*
X88615909Y-63579865D01*
X88615588Y-63579860D01*
X88605146Y-63579908D01*
X88605003Y-63579909D01*
X88605000Y-63579909D01*
X88604996Y-63579910D01*
X88595699Y-63581860D01*
X88570250Y-63584500D01*
X88493390Y-63584500D01*
X88283802Y-63623679D01*
X88283799Y-63623679D01*
X88283799Y-63623680D01*
X88084982Y-63700701D01*
X88084980Y-63700702D01*
X87903699Y-63812947D01*
X87746127Y-63956593D01*
X87617632Y-64126746D01*
X87522596Y-64317605D01*
X87522596Y-64317607D01*
X87464244Y-64522689D01*
X87444571Y-64734998D01*
X87444571Y-64735005D01*
X87444602Y-64735341D01*
X87444788Y-64750454D01*
X87454982Y-65164178D01*
X87455319Y-65172863D01*
X87455354Y-65173526D01*
X87455888Y-65181369D01*
X87455973Y-65182607D01*
X87462569Y-65262127D01*
X87480736Y-65481150D01*
X87481138Y-65485589D01*
X87481178Y-65486005D01*
X87481712Y-65491019D01*
X87510522Y-65742116D01*
X87510906Y-65746000D01*
X87514579Y-65790284D01*
X87514154Y-65815022D01*
X87447251Y-66383701D01*
X87445686Y-66401459D01*
X87445608Y-66402777D01*
X87445158Y-66427614D01*
X87446845Y-66435632D01*
X87449500Y-66461156D01*
X87449500Y-68169856D01*
X87449502Y-68169882D01*
X87452413Y-68194987D01*
X87452415Y-68194991D01*
X87497793Y-68297764D01*
X87497794Y-68297765D01*
X87577235Y-68377206D01*
X87680009Y-68422585D01*
X87705135Y-68425500D01*
X89494864Y-68425499D01*
X89494879Y-68425497D01*
X89494882Y-68425497D01*
X89519987Y-68422586D01*
X89519988Y-68422585D01*
X89519991Y-68422585D01*
X89622765Y-68377206D01*
X89702206Y-68297765D01*
X89747585Y-68194991D01*
X89750500Y-68169865D01*
X89750499Y-66421019D01*
X89750783Y-66412632D01*
X89752746Y-66383678D01*
X89702599Y-65957431D01*
X89714316Y-65888553D01*
X89761412Y-65836942D01*
X89817012Y-65819254D01*
X89886779Y-65814327D01*
X89892850Y-65814049D01*
X90291972Y-65805673D01*
X90295823Y-65805568D01*
X90295828Y-65805567D01*
X90305385Y-65803446D01*
X90332252Y-65800500D01*
X90395500Y-65800500D01*
X90462539Y-65820185D01*
X90508294Y-65872989D01*
X90519500Y-65924500D01*
X90519500Y-74598638D01*
X90521250Y-74631281D01*
X90521254Y-74631334D01*
X90524081Y-74657625D01*
X90524920Y-74664660D01*
X90524920Y-74664662D01*
X90559700Y-74771401D01*
X90559704Y-74771411D01*
X90593189Y-74832733D01*
X90645289Y-74902329D01*
X90645307Y-74902350D01*
X90875441Y-75132483D01*
X91072660Y-75329702D01*
X91085904Y-75341598D01*
X91096993Y-75351559D01*
X91117674Y-75368224D01*
X91123172Y-75372551D01*
X91123175Y-75372553D01*
X91223251Y-75423439D01*
X91290290Y-75443124D01*
X91376362Y-75455500D01*
X91376365Y-75455500D01*
X98276528Y-75455500D01*
X98303078Y-75454343D01*
X98303084Y-75454342D01*
X98303094Y-75454342D01*
X98324588Y-75452465D01*
X98325070Y-75452422D01*
X98325524Y-75452382D01*
X98325524Y-75452381D01*
X98325534Y-75452381D01*
X98433586Y-75421892D01*
X98496199Y-75390885D01*
X98567839Y-75341598D01*
X99531867Y-74451725D01*
X99594477Y-74420720D01*
X99663913Y-74428486D01*
X99718129Y-74472559D01*
X99739910Y-74538947D01*
X99739261Y-74556094D01*
X99737000Y-74577125D01*
X99737000Y-75072870D01*
X99737001Y-75072876D01*
X99743408Y-75132483D01*
X99793702Y-75267328D01*
X99793706Y-75267335D01*
X99879952Y-75382544D01*
X99879955Y-75382547D01*
X99995164Y-75468793D01*
X99995171Y-75468797D01*
X100040118Y-75485561D01*
X100130017Y-75519091D01*
X100189627Y-75525500D01*
X100835372Y-75525499D01*
X100894983Y-75519091D01*
X101029831Y-75468796D01*
X101145046Y-75382546D01*
X101231296Y-75267331D01*
X101281591Y-75132483D01*
X101288000Y-75072873D01*
X101287999Y-74577128D01*
X101281591Y-74517517D01*
X101231296Y-74382669D01*
X101148246Y-74271729D01*
X101141863Y-74262333D01*
X100956347Y-73960373D01*
X100938000Y-73895462D01*
X100938000Y-73208048D01*
X100957685Y-73141009D01*
X100977890Y-73116935D01*
X101742322Y-72411306D01*
X101769110Y-72383224D01*
X101789318Y-72359147D01*
X101797553Y-72348895D01*
X101848439Y-72248819D01*
X101868124Y-72181780D01*
X101880500Y-72095708D01*
X101880500Y-65496225D01*
X101878749Y-65463566D01*
X101875915Y-65437208D01*
X101875080Y-65430203D01*
X101840297Y-65323456D01*
X101806812Y-65262133D01*
X101772065Y-65211409D01*
X101685092Y-65140413D01*
X101685091Y-65140412D01*
X101685087Y-65140409D01*
X101623783Y-65106934D01*
X101623762Y-65106924D01*
X101558944Y-65079596D01*
X101559548Y-65078163D01*
X101508202Y-65047249D01*
X101477330Y-64984570D01*
X101475499Y-64963340D01*
X101475499Y-64813431D01*
X101495184Y-64746392D01*
X101547988Y-64700637D01*
X101569587Y-64693093D01*
X101605658Y-64684128D01*
X101702571Y-64627449D01*
X101755375Y-64581694D01*
X101755382Y-64581686D01*
X101755387Y-64581682D01*
X101797548Y-64536966D01*
X101797553Y-64536961D01*
X101848439Y-64436885D01*
X101868124Y-64369846D01*
X101880500Y-64283774D01*
X101880500Y-63276014D01*
X101876651Y-63227669D01*
X101870440Y-63188915D01*
X101866179Y-63167499D01*
X101872402Y-63097908D01*
X101915262Y-63042728D01*
X101955699Y-63023527D01*
X102019237Y-63006503D01*
X102083502Y-62969399D01*
X102151399Y-62952927D01*
X102217426Y-62975779D01*
X102260617Y-63030700D01*
X102269500Y-63076787D01*
X102269500Y-73348638D01*
X102271250Y-73381281D01*
X102271254Y-73381334D01*
X102274081Y-73407625D01*
X102274920Y-73414660D01*
X102274920Y-73414662D01*
X102309700Y-73521401D01*
X102309704Y-73521411D01*
X102343189Y-73582733D01*
X102395289Y-73652329D01*
X102395307Y-73652350D01*
X103005291Y-74262333D01*
X103322660Y-74579702D01*
X103343741Y-74598638D01*
X103346993Y-74601559D01*
X103367674Y-74618224D01*
X103373172Y-74622551D01*
X103373175Y-74622553D01*
X103473251Y-74673439D01*
X103540290Y-74693124D01*
X103626362Y-74705500D01*
X103626365Y-74705500D01*
X109023639Y-74705500D01*
X109025559Y-74705397D01*
X109056297Y-74703749D01*
X109082655Y-74700915D01*
X109089660Y-74700080D01*
X109196407Y-74665297D01*
X109257730Y-74631812D01*
X109258440Y-74631281D01*
X109327329Y-74579710D01*
X109327340Y-74579702D01*
X110254702Y-73652340D01*
X110276558Y-73628008D01*
X110293192Y-73607366D01*
X110297553Y-73601825D01*
X110348439Y-73501749D01*
X110368124Y-73434710D01*
X110380500Y-73348638D01*
X110380500Y-60701362D01*
X110378749Y-60668703D01*
X110375915Y-60642345D01*
X110375080Y-60635340D01*
X110340297Y-60528593D01*
X110340295Y-60528588D01*
X110306810Y-60467266D01*
X110254710Y-60397670D01*
X110254705Y-60397665D01*
X110254702Y-60397660D01*
X110254698Y-60397656D01*
X110254692Y-60397649D01*
X109827353Y-59970311D01*
X109827349Y-59970307D01*
X109827340Y-59970298D01*
X109803008Y-59948442D01*
X109785901Y-59934657D01*
X109782325Y-59931775D01*
X109776827Y-59927448D01*
X109776825Y-59927447D01*
X109676747Y-59876560D01*
X109609716Y-59856877D01*
X109609710Y-59856876D01*
X109523638Y-59844500D01*
X103126362Y-59844500D01*
X103126361Y-59844500D01*
X103093718Y-59846250D01*
X103093709Y-59846250D01*
X103093703Y-59846251D01*
X103093698Y-59846251D01*
X103093665Y-59846254D01*
X103067374Y-59849081D01*
X103060339Y-59849920D01*
X103060337Y-59849920D01*
X102953598Y-59884700D01*
X102953588Y-59884704D01*
X102892266Y-59918189D01*
X102822670Y-59970289D01*
X102822649Y-59970307D01*
X102712181Y-60080776D01*
X102650858Y-60114261D01*
X102581166Y-60109277D01*
X102525233Y-60067405D01*
X102500816Y-60001941D01*
X102500500Y-59993095D01*
X102500500Y-59877610D01*
X102520185Y-59810571D01*
X102536819Y-59789929D01*
X102714929Y-59611819D01*
X102776252Y-59578334D01*
X102802610Y-59575500D01*
X105631016Y-59575500D01*
X105631018Y-59575500D01*
X105739237Y-59546503D01*
X105836263Y-59490485D01*
X106884404Y-58442342D01*
X106906171Y-58426210D01*
X106905704Y-58425502D01*
X106910485Y-58422348D01*
X106910486Y-58422347D01*
X106910490Y-58422345D01*
X107139277Y-58239061D01*
X107172307Y-58220096D01*
X107307802Y-58168010D01*
X107337398Y-58160652D01*
X107531376Y-58137182D01*
X107532062Y-58137097D01*
X107532489Y-58137046D01*
X107632343Y-58124608D01*
X107818612Y-58101410D01*
X107844681Y-58097010D01*
X107845881Y-58096753D01*
X107846657Y-58096588D01*
X107872295Y-58089937D01*
X107958156Y-58063641D01*
X108103219Y-58019214D01*
X108116724Y-58015895D01*
X108141198Y-58011321D01*
X108183077Y-57995096D01*
X108191529Y-57992169D01*
X108227443Y-57981171D01*
X108241120Y-57976627D01*
X108242160Y-57976254D01*
X108262113Y-57968296D01*
X108262396Y-57968102D01*
X108263279Y-57967674D01*
X108268136Y-57965087D01*
X108268235Y-57965274D01*
X108295423Y-57952106D01*
X108304702Y-57949210D01*
X108306868Y-57948061D01*
X108320140Y-57941998D01*
X108340019Y-57934298D01*
X108379173Y-57910054D01*
X108386353Y-57905934D01*
X108505174Y-57842962D01*
X108507931Y-57841412D01*
X108568701Y-57825500D01*
X108975336Y-57825500D01*
X109007428Y-57829724D01*
X109028981Y-57835500D01*
X109028982Y-57835500D01*
X109425167Y-57835500D01*
X109492206Y-57855185D01*
X109499563Y-57860297D01*
X109576008Y-57917631D01*
X109885284Y-58149588D01*
X109887964Y-58151388D01*
X109887647Y-58151859D01*
X109892699Y-58155798D01*
X109892758Y-58155713D01*
X109902234Y-58162205D01*
X109902235Y-58162206D01*
X109910938Y-58166048D01*
X109924533Y-58173086D01*
X109939727Y-58182183D01*
X109944110Y-58184222D01*
X109970427Y-58192937D01*
X109981512Y-58197210D01*
X110005009Y-58207585D01*
X110030135Y-58210500D01*
X111719864Y-58210499D01*
X111719879Y-58210497D01*
X111719882Y-58210497D01*
X111744987Y-58207586D01*
X111744988Y-58207585D01*
X111744991Y-58207585D01*
X111847765Y-58162206D01*
X111927206Y-58082765D01*
X111972585Y-57979991D01*
X111975500Y-57954865D01*
X111975499Y-56865136D01*
X111974057Y-56852699D01*
X111972586Y-56840012D01*
X111972585Y-56840010D01*
X111972585Y-56840009D01*
X111927206Y-56737235D01*
X111847765Y-56657794D01*
X111813558Y-56642690D01*
X111744992Y-56612415D01*
X111719868Y-56609500D01*
X111719865Y-56609500D01*
X110121740Y-56609500D01*
X110114365Y-56609189D01*
X110113707Y-56609233D01*
X110105575Y-56609500D01*
X110030143Y-56609500D01*
X110030119Y-56609502D01*
X110005009Y-56612414D01*
X110005008Y-56612414D01*
X109991113Y-56618549D01*
X109986376Y-56620487D01*
X109985790Y-56620777D01*
X109981004Y-56623013D01*
X109902235Y-56657793D01*
X109892968Y-56664141D01*
X109889689Y-56666729D01*
X109889871Y-56666971D01*
X109885287Y-56670408D01*
X109885287Y-56670409D01*
X109545834Y-56925000D01*
X109499567Y-56959700D01*
X109434125Y-56984176D01*
X109425167Y-56984500D01*
X109340028Y-56984500D01*
X109272989Y-56964815D01*
X109246862Y-56942329D01*
X109217817Y-56909260D01*
X109206494Y-56894200D01*
X109112576Y-56747222D01*
X109107553Y-56738617D01*
X109093787Y-56712690D01*
X109023635Y-56580565D01*
X109017588Y-56569715D01*
X109017113Y-56568902D01*
X109010766Y-56558518D01*
X108890648Y-56370540D01*
X108877431Y-56351491D01*
X108876363Y-56350070D01*
X108861681Y-56332011D01*
X108694207Y-56141339D01*
X108688434Y-56134254D01*
X108678871Y-56121592D01*
X108673882Y-56117044D01*
X108664471Y-56107457D01*
X108664470Y-56107459D01*
X108664424Y-56107409D01*
X108664245Y-56107226D01*
X108663833Y-56106757D01*
X108663817Y-56106739D01*
X108663800Y-56106720D01*
X108657167Y-56099409D01*
X108657159Y-56099400D01*
X108656669Y-56098877D01*
X108655576Y-56097772D01*
X108645004Y-56087089D01*
X108639299Y-56083362D01*
X108623588Y-56071194D01*
X108521302Y-55977948D01*
X108340019Y-55865702D01*
X108340017Y-55865701D01*
X108223857Y-55820701D01*
X108141198Y-55788679D01*
X107931610Y-55749500D01*
X107718390Y-55749500D01*
X107508802Y-55788679D01*
X107508799Y-55788679D01*
X107508799Y-55788680D01*
X107309982Y-55865701D01*
X107309980Y-55865702D01*
X107128699Y-55977947D01*
X106971127Y-56121593D01*
X106842635Y-56291742D01*
X106747593Y-56482615D01*
X106737327Y-56518693D01*
X106736626Y-56521064D01*
X106635060Y-56852699D01*
X106628436Y-56878209D01*
X106628013Y-56880187D01*
X106623586Y-56906382D01*
X106587967Y-57192377D01*
X106587968Y-57192378D01*
X106587949Y-57192533D01*
X106587819Y-57193594D01*
X106587812Y-57193654D01*
X106587811Y-57193653D01*
X106564345Y-57387596D01*
X106556986Y-57417193D01*
X106504902Y-57552685D01*
X106485935Y-57585718D01*
X106443193Y-57639074D01*
X106302647Y-57814517D01*
X106299730Y-57818865D01*
X106299289Y-57818569D01*
X106282757Y-57840493D01*
X105435071Y-58688181D01*
X105373748Y-58721666D01*
X105347390Y-58724500D01*
X103732435Y-58724500D01*
X103665396Y-58704815D01*
X103619641Y-58652011D01*
X103609697Y-58582853D01*
X103638722Y-58519297D01*
X103684974Y-58485943D01*
X103686878Y-58485153D01*
X103694597Y-58481956D01*
X103694605Y-58481955D01*
X103694605Y-58481954D01*
X103730463Y-58467101D01*
X103776547Y-58448013D01*
X103869520Y-58385890D01*
X103924036Y-58349464D01*
X104063517Y-58209982D01*
X104094760Y-58187253D01*
X104117736Y-58175511D01*
X104122570Y-58173172D01*
X104517052Y-57992824D01*
X104518307Y-57992247D01*
X104521642Y-57989874D01*
X104548709Y-57975300D01*
X104590019Y-57959298D01*
X104771302Y-57847052D01*
X104928872Y-57703407D01*
X105057366Y-57533255D01*
X105092222Y-57463255D01*
X105152403Y-57342394D01*
X105152403Y-57342393D01*
X105152405Y-57342389D01*
X105210756Y-57137310D01*
X105230429Y-56925000D01*
X105210756Y-56712690D01*
X105152405Y-56507611D01*
X105152403Y-56507606D01*
X105152403Y-56507605D01*
X105057367Y-56316746D01*
X104928872Y-56146593D01*
X104901447Y-56121592D01*
X104771302Y-56002948D01*
X104590019Y-55890702D01*
X104590017Y-55890701D01*
X104490608Y-55852190D01*
X104391198Y-55813679D01*
X104181610Y-55774500D01*
X103968390Y-55774500D01*
X103758802Y-55813679D01*
X103758799Y-55813679D01*
X103758799Y-55813680D01*
X103559982Y-55890701D01*
X103559980Y-55890702D01*
X103378699Y-56002947D01*
X103221126Y-56146594D01*
X103164415Y-56221690D01*
X103162258Y-56224464D01*
X103058259Y-56354352D01*
X103043931Y-56373772D01*
X103042906Y-56375282D01*
X103030125Y-56395830D01*
X102924020Y-56582486D01*
X102920257Y-56588678D01*
X102868170Y-56668993D01*
X102835794Y-56702719D01*
X102835167Y-56703163D01*
X102782291Y-56724535D01*
X102634095Y-56747248D01*
X102634044Y-56746918D01*
X102611824Y-56749500D01*
X102004500Y-56749500D01*
X101937461Y-56729815D01*
X101891706Y-56677011D01*
X101880500Y-56625500D01*
X101880500Y-56164373D01*
X101880499Y-56164341D01*
X101879975Y-56155262D01*
X101879838Y-56152894D01*
X101878471Y-56129205D01*
X101875188Y-56100863D01*
X101869130Y-56066189D01*
X101854727Y-56004845D01*
X100533783Y-50378601D01*
X100530500Y-50350259D01*
X100530500Y-46850504D01*
X100530496Y-46849110D01*
X100530488Y-46847705D01*
X100530487Y-46847534D01*
X100530473Y-46845856D01*
X100494616Y-43654722D01*
X100513546Y-43587470D01*
X100565832Y-43541125D01*
X100634875Y-43530405D01*
X100666059Y-43538771D01*
X100738764Y-43568887D01*
X100813882Y-43578776D01*
X100888999Y-43588666D01*
X100889000Y-43588666D01*
X100889001Y-43588666D01*
X100939078Y-43582073D01*
X101039236Y-43568887D01*
X101179233Y-43510898D01*
X101299451Y-43418651D01*
X101391698Y-43298433D01*
X101449687Y-43158436D01*
X101469466Y-43008200D01*
X101449687Y-42857964D01*
X101430175Y-42810860D01*
X101423565Y-42789737D01*
X101420048Y-42773543D01*
X101400885Y-42728056D01*
X101382339Y-42684035D01*
X101381158Y-42681129D01*
X101361985Y-42632194D01*
X101357622Y-42618891D01*
X101353916Y-42604982D01*
X101350507Y-42586855D01*
X101347184Y-42557137D01*
X101346447Y-42546042D01*
X101344675Y-42463119D01*
X101344571Y-42459335D01*
X101342448Y-42449780D01*
X101339500Y-42422899D01*
X101339500Y-42232097D01*
X101339500Y-42232095D01*
X101308799Y-42117518D01*
X101308799Y-42117517D01*
X101308799Y-42117516D01*
X101249492Y-42014793D01*
X101249488Y-42014788D01*
X100774212Y-41539513D01*
X100774210Y-41539511D01*
X100722846Y-41509856D01*
X100671484Y-41480201D01*
X100659376Y-41476957D01*
X100647269Y-41473713D01*
X100647266Y-41473712D01*
X100609074Y-41463478D01*
X100556905Y-41449500D01*
X99940691Y-41449500D01*
X99940689Y-41449500D01*
X99863154Y-41470275D01*
X99831063Y-41474500D01*
X99615549Y-41474500D01*
X99544993Y-41484779D01*
X99436150Y-41537989D01*
X99350488Y-41623651D01*
X99297280Y-41732488D01*
X99297280Y-41732491D01*
X99287000Y-41803051D01*
X99287000Y-41803055D01*
X99287000Y-41803056D01*
X99287000Y-41996950D01*
X99297279Y-42067507D01*
X99297279Y-42067508D01*
X99310984Y-42095543D01*
X99322741Y-42164416D01*
X99310984Y-42204457D01*
X99297281Y-42232488D01*
X99297280Y-42232491D01*
X99288065Y-42295739D01*
X99258922Y-42359239D01*
X99200073Y-42396903D01*
X99183237Y-42400566D01*
X99119991Y-42409779D01*
X99091957Y-42423484D01*
X99023084Y-42435241D01*
X98983043Y-42423484D01*
X98955011Y-42409781D01*
X98955009Y-42409780D01*
X98955002Y-42409779D01*
X98884449Y-42399500D01*
X98884443Y-42399500D01*
X98690549Y-42399500D01*
X98619992Y-42409779D01*
X98619991Y-42409779D01*
X98591957Y-42423484D01*
X98523084Y-42435241D01*
X98483043Y-42423484D01*
X98455011Y-42409781D01*
X98455009Y-42409780D01*
X98455002Y-42409779D01*
X98384449Y-42399500D01*
X98384443Y-42399500D01*
X98190549Y-42399500D01*
X98119992Y-42409779D01*
X98119991Y-42409779D01*
X98091957Y-42423484D01*
X98023084Y-42435241D01*
X97983043Y-42423484D01*
X97955011Y-42409781D01*
X97955009Y-42409780D01*
X97955002Y-42409779D01*
X97884449Y-42399500D01*
X97884443Y-42399500D01*
X97690549Y-42399500D01*
X97619993Y-42409779D01*
X97511150Y-42462989D01*
X97425488Y-42548651D01*
X97372280Y-42657488D01*
X97372280Y-42657491D01*
X97362000Y-42728051D01*
X97362000Y-42728056D01*
X97362000Y-42849534D01*
X97342315Y-42916573D01*
X97325681Y-42937215D01*
X96966516Y-43296381D01*
X96905193Y-43329866D01*
X96878835Y-43332700D01*
X96486614Y-43332700D01*
X96432924Y-43320474D01*
X96382766Y-43296381D01*
X96095587Y-43158436D01*
X95930285Y-43079034D01*
X95887292Y-43065499D01*
X95879040Y-43062577D01*
X95828990Y-43042841D01*
X95828982Y-43042840D01*
X95744544Y-43032700D01*
X95162256Y-43032700D01*
X95124241Y-43037265D01*
X95077811Y-43042840D01*
X94943423Y-43095836D01*
X94828321Y-43183121D01*
X94741036Y-43298223D01*
X94688040Y-43432611D01*
X94682465Y-43479041D01*
X94677900Y-43517056D01*
X94677900Y-44049344D01*
X94679698Y-44064313D01*
X94688040Y-44133788D01*
X94741036Y-44268176D01*
X94828321Y-44383278D01*
X94943423Y-44470563D01*
X94943424Y-44470563D01*
X94943425Y-44470564D01*
X95077810Y-44523559D01*
X95162256Y-44533700D01*
X95162262Y-44533700D01*
X95744545Y-44533700D01*
X95753598Y-44532612D01*
X95828990Y-44523559D01*
X95893794Y-44498002D01*
X95907037Y-44493623D01*
X95930282Y-44487366D01*
X96432922Y-44245925D01*
X96486612Y-44233700D01*
X96634084Y-44233700D01*
X96701123Y-44253385D01*
X96746878Y-44306189D01*
X96756822Y-44375347D01*
X96727797Y-44438903D01*
X96698773Y-44463489D01*
X96497851Y-44586352D01*
X96447956Y-44603677D01*
X96436615Y-44605039D01*
X96436603Y-44605042D01*
X96302227Y-44658034D01*
X96302226Y-44658034D01*
X96187121Y-44745321D01*
X96099836Y-44860423D01*
X96046840Y-44994811D01*
X96041960Y-45035451D01*
X96036700Y-45079256D01*
X96036700Y-45661544D01*
X96041583Y-45702205D01*
X96046840Y-45745988D01*
X96099836Y-45880375D01*
X96142530Y-45936677D01*
X96153507Y-45955289D01*
X96153763Y-45955147D01*
X96156556Y-45960150D01*
X96338660Y-46225419D01*
X96356205Y-46263502D01*
X96367401Y-46305288D01*
X96397056Y-46356650D01*
X96426711Y-46408014D01*
X96426713Y-46408016D01*
X96475210Y-46456513D01*
X96508695Y-46517836D01*
X96503711Y-46587528D01*
X96475867Y-46631213D01*
X94143037Y-48999390D01*
X94143023Y-48999404D01*
X94122065Y-49023004D01*
X94122038Y-49023036D01*
X94106106Y-49042962D01*
X94102451Y-49047624D01*
X94102449Y-49047627D01*
X94102447Y-49047630D01*
X94088388Y-49075279D01*
X94051559Y-49147709D01*
X94031877Y-49214738D01*
X94031876Y-49214745D01*
X94020709Y-49292413D01*
X94019500Y-49300819D01*
X94019500Y-53617690D01*
X93999815Y-53684729D01*
X93947011Y-53730484D01*
X93877853Y-53740428D01*
X93814297Y-53711403D01*
X93796546Y-53692417D01*
X93678872Y-53536593D01*
X93551133Y-53420143D01*
X93521302Y-53392948D01*
X93340019Y-53280702D01*
X93340017Y-53280701D01*
X93240608Y-53242190D01*
X93141198Y-53203679D01*
X92931610Y-53164500D01*
X92718390Y-53164500D01*
X92508802Y-53203679D01*
X92508799Y-53203679D01*
X92508799Y-53203680D01*
X92309982Y-53280701D01*
X92309980Y-53280702D01*
X92128699Y-53392947D01*
X91971127Y-53536593D01*
X91842632Y-53706746D01*
X91747596Y-53897605D01*
X91747596Y-53897607D01*
X91689244Y-54102689D01*
X91682970Y-54170394D01*
X91657183Y-54235331D01*
X91600383Y-54276018D01*
X91530602Y-54279538D01*
X91469995Y-54244772D01*
X91437806Y-54182759D01*
X91435499Y-54158952D01*
X91435499Y-53420143D01*
X91435499Y-53420136D01*
X91435497Y-53420117D01*
X91432586Y-53395012D01*
X91432585Y-53395010D01*
X91432585Y-53395009D01*
X91387206Y-53292235D01*
X91307765Y-53212794D01*
X91287124Y-53203680D01*
X91204992Y-53167415D01*
X91179865Y-53164500D01*
X89390143Y-53164500D01*
X89390117Y-53164502D01*
X89365012Y-53167413D01*
X89365008Y-53167415D01*
X89262235Y-53212793D01*
X89182794Y-53292234D01*
X89137415Y-53395006D01*
X89137415Y-53395008D01*
X89134500Y-53420131D01*
X89134500Y-55209856D01*
X89134502Y-55209882D01*
X89137413Y-55234987D01*
X89137415Y-55234991D01*
X89182793Y-55337764D01*
X89182794Y-55337765D01*
X89262235Y-55417206D01*
X89365009Y-55462585D01*
X89390135Y-55465500D01*
X90118758Y-55465499D01*
X90185795Y-55485183D01*
X90231550Y-55537987D01*
X90241494Y-55607146D01*
X90212469Y-55670702D01*
X90153691Y-55708476D01*
X90141542Y-55711388D01*
X90085116Y-55721935D01*
X89968802Y-55743679D01*
X89968800Y-55743679D01*
X89968798Y-55743680D01*
X89769982Y-55820701D01*
X89769980Y-55820702D01*
X89588699Y-55932947D01*
X89431127Y-56076593D01*
X89302635Y-56246742D01*
X89285862Y-56280428D01*
X89228400Y-56395830D01*
X89207593Y-56437616D01*
X89205036Y-56446601D01*
X89203038Y-56452965D01*
X89095885Y-56764675D01*
X89091281Y-56779245D01*
X89090957Y-56780367D01*
X89087069Y-56795222D01*
X89029486Y-57040350D01*
X89028286Y-57045044D01*
X88983498Y-57207002D01*
X88973727Y-57231679D01*
X88903493Y-57365196D01*
X88887882Y-57388184D01*
X88702014Y-57604944D01*
X88702010Y-57604949D01*
X88700067Y-57608254D01*
X88680865Y-57633071D01*
X88587179Y-57726756D01*
X88525859Y-57760240D01*
X88456167Y-57755256D01*
X88400233Y-57713385D01*
X88375816Y-57647921D01*
X88375500Y-57639074D01*
X88375500Y-53703523D01*
X88368561Y-53677625D01*
X88348207Y-53601662D01*
X88295480Y-53510337D01*
X86310986Y-51525843D01*
X86291279Y-51500161D01*
X86287976Y-51494439D01*
X86218061Y-51424524D01*
X86212333Y-51421217D01*
X86196447Y-51409026D01*
X86196109Y-51409467D01*
X86189666Y-51404523D01*
X86189663Y-51404520D01*
X86100287Y-51352918D01*
X86052073Y-51302351D01*
X86046106Y-51288862D01*
X86043797Y-51282671D01*
X86043793Y-51282664D01*
X85957547Y-51167455D01*
X85957544Y-51167452D01*
X85842335Y-51081206D01*
X85842328Y-51081202D01*
X85707486Y-51030910D01*
X85707485Y-51030909D01*
X85707483Y-51030909D01*
X85647873Y-51024500D01*
X85647863Y-51024500D01*
X85002129Y-51024500D01*
X85002123Y-51024501D01*
X84942516Y-51030908D01*
X84807671Y-51081202D01*
X84807668Y-51081204D01*
X84721911Y-51145402D01*
X84656446Y-51169819D01*
X84588173Y-51154967D01*
X84580012Y-51150096D01*
X84367893Y-51012191D01*
X84360558Y-51007036D01*
X84334975Y-50987636D01*
X84334972Y-50987634D01*
X84334971Y-50987634D01*
X84200591Y-50934641D01*
X84188526Y-50933192D01*
X84116144Y-50924500D01*
X83533856Y-50924500D01*
X83495841Y-50929065D01*
X83449411Y-50934640D01*
X83319990Y-50985678D01*
X83250403Y-50991959D01*
X83188467Y-50959622D01*
X83153846Y-50898933D01*
X83150500Y-50870323D01*
X83150500Y-49253340D01*
X83170185Y-49186301D01*
X83222989Y-49140546D01*
X83292147Y-49130602D01*
X83298559Y-49131697D01*
X83419106Y-49155564D01*
X83440506Y-49161847D01*
X83449410Y-49165359D01*
X83493455Y-49170648D01*
X83502726Y-49172121D01*
X83505702Y-49172709D01*
X83507309Y-49173028D01*
X83521455Y-49174122D01*
X83526655Y-49174635D01*
X83533856Y-49175500D01*
X83534467Y-49175500D01*
X83544029Y-49175869D01*
X83548268Y-49176196D01*
X83579176Y-49178588D01*
X83584656Y-49178363D01*
X83590768Y-49177307D01*
X83611865Y-49175500D01*
X84116145Y-49175500D01*
X84169513Y-49169091D01*
X84200590Y-49165359D01*
X84304638Y-49124326D01*
X84309948Y-49122372D01*
X84320220Y-49118859D01*
X84320228Y-49118854D01*
X84325454Y-49116508D01*
X84325517Y-49116648D01*
X84332217Y-49113450D01*
X84334975Y-49112364D01*
X84337880Y-49110161D01*
X84351797Y-49101009D01*
X84397317Y-49075279D01*
X84516186Y-49008088D01*
X84584233Y-48992236D01*
X84643982Y-49011554D01*
X84750723Y-49079779D01*
X84779865Y-49098405D01*
X84787393Y-49103618D01*
X84807669Y-49118796D01*
X84914973Y-49158817D01*
X84970906Y-49200687D01*
X84995324Y-49266152D01*
X84980473Y-49334425D01*
X84931068Y-49383831D01*
X84914974Y-49391181D01*
X84807669Y-49431203D01*
X84807664Y-49431206D01*
X84692455Y-49517452D01*
X84692452Y-49517455D01*
X84606206Y-49632664D01*
X84606202Y-49632671D01*
X84555910Y-49767513D01*
X84555909Y-49767517D01*
X84549500Y-49827127D01*
X84549500Y-49827134D01*
X84549500Y-49827135D01*
X84549500Y-50322870D01*
X84549501Y-50322876D01*
X84555908Y-50382483D01*
X84606202Y-50517328D01*
X84606206Y-50517335D01*
X84692452Y-50632544D01*
X84692455Y-50632547D01*
X84807664Y-50718793D01*
X84807671Y-50718797D01*
X84829027Y-50726762D01*
X84942517Y-50769091D01*
X85002127Y-50775500D01*
X85647872Y-50775499D01*
X85707483Y-50769091D01*
X85707489Y-50769089D01*
X85816197Y-50728543D01*
X85821308Y-50726762D01*
X85821883Y-50726575D01*
X85830566Y-50723762D01*
X85830572Y-50723759D01*
X85835842Y-50721495D01*
X85835931Y-50721703D01*
X85842194Y-50718847D01*
X85842331Y-50718796D01*
X85842336Y-50718791D01*
X85842521Y-50718691D01*
X85857204Y-50709269D01*
X86259202Y-50490575D01*
X86318459Y-50475500D01*
X87139400Y-50475500D01*
X87162390Y-50478205D01*
X87162412Y-50478053D01*
X87168085Y-50478863D01*
X87168087Y-50478864D01*
X87378975Y-50508987D01*
X87429033Y-50527783D01*
X87473119Y-50556447D01*
X87506384Y-50588267D01*
X87585061Y-50698266D01*
X87590028Y-50705773D01*
X87726382Y-50929095D01*
X87726384Y-50929098D01*
X87737964Y-50946673D01*
X87738647Y-50947635D01*
X87738882Y-50947966D01*
X87751658Y-50964719D01*
X87805846Y-51030910D01*
X87916325Y-51165860D01*
X87919330Y-51169680D01*
X87956132Y-51218412D01*
X87964330Y-51225886D01*
X87973169Y-51234972D01*
X87973240Y-51234909D01*
X87974283Y-51236061D01*
X87974284Y-51236062D01*
X87975057Y-51236916D01*
X87990386Y-51252672D01*
X87993742Y-51254863D01*
X88009494Y-51267058D01*
X88101687Y-51351103D01*
X88113698Y-51362052D01*
X88294981Y-51474298D01*
X88493802Y-51551321D01*
X88703390Y-51590500D01*
X88703392Y-51590500D01*
X88916608Y-51590500D01*
X88916610Y-51590500D01*
X89126198Y-51551321D01*
X89325019Y-51474298D01*
X89506302Y-51362052D01*
X89663872Y-51218407D01*
X89792366Y-51048255D01*
X89804194Y-51024501D01*
X89887403Y-50857394D01*
X89887403Y-50857393D01*
X89887405Y-50857389D01*
X89945756Y-50652310D01*
X89952029Y-50584605D01*
X89977814Y-50519669D01*
X90034614Y-50478981D01*
X90104395Y-50475461D01*
X90165002Y-50510225D01*
X90197193Y-50572238D01*
X90199500Y-50596047D01*
X90199500Y-51334856D01*
X90199502Y-51334882D01*
X90202413Y-51359987D01*
X90202415Y-51359991D01*
X90247793Y-51462764D01*
X90247794Y-51462765D01*
X90327235Y-51542206D01*
X90430009Y-51587585D01*
X90455135Y-51590500D01*
X92244864Y-51590499D01*
X92244879Y-51590497D01*
X92244882Y-51590497D01*
X92269987Y-51587586D01*
X92269988Y-51587585D01*
X92269991Y-51587585D01*
X92372765Y-51542206D01*
X92452206Y-51462765D01*
X92497585Y-51359991D01*
X92500500Y-51334865D01*
X92500499Y-49545136D01*
X92500497Y-49545117D01*
X92497586Y-49520012D01*
X92497585Y-49520010D01*
X92497585Y-49520009D01*
X92452206Y-49417235D01*
X92372765Y-49337794D01*
X92352124Y-49328680D01*
X92269992Y-49292415D01*
X92244868Y-49289500D01*
X91516243Y-49289500D01*
X91449204Y-49269815D01*
X91403449Y-49217011D01*
X91393505Y-49147853D01*
X91422530Y-49084297D01*
X91481308Y-49046523D01*
X91493441Y-49043614D01*
X91666198Y-49011321D01*
X91865019Y-48934298D01*
X92046302Y-48822052D01*
X92203872Y-48678407D01*
X92332366Y-48508255D01*
X92365283Y-48442148D01*
X92427403Y-48317394D01*
X92427403Y-48317393D01*
X92427405Y-48317389D01*
X92485756Y-48112310D01*
X92505429Y-47900000D01*
X92485756Y-47687690D01*
X92427405Y-47482611D01*
X92427403Y-47482606D01*
X92427403Y-47482605D01*
X92332367Y-47291746D01*
X92203872Y-47121593D01*
X92150428Y-47072872D01*
X92046302Y-46977948D01*
X91865019Y-46865702D01*
X91865017Y-46865701D01*
X91765608Y-46827190D01*
X91666198Y-46788679D01*
X91456610Y-46749500D01*
X91243390Y-46749500D01*
X91033802Y-46788679D01*
X91033799Y-46788679D01*
X91033799Y-46788680D01*
X90834982Y-46865701D01*
X90834980Y-46865702D01*
X90653699Y-46977947D01*
X90496127Y-47121593D01*
X90367632Y-47291746D01*
X90272596Y-47482605D01*
X90272596Y-47482607D01*
X90214244Y-47687689D01*
X90203471Y-47803951D01*
X90177685Y-47868888D01*
X90133130Y-47900804D01*
X90169503Y-47921668D01*
X90201693Y-47983681D01*
X90203471Y-47996048D01*
X90214244Y-48112310D01*
X90272596Y-48317392D01*
X90272596Y-48317394D01*
X90367632Y-48508253D01*
X90367634Y-48508255D01*
X90496128Y-48678407D01*
X90653698Y-48822052D01*
X90834981Y-48934298D01*
X91033802Y-49011321D01*
X91206544Y-49043612D01*
X91268823Y-49075279D01*
X91304096Y-49135591D01*
X91301162Y-49205400D01*
X91260953Y-49262540D01*
X91196235Y-49288871D01*
X91183757Y-49289500D01*
X90455143Y-49289500D01*
X90455117Y-49289502D01*
X90430012Y-49292413D01*
X90430008Y-49292415D01*
X90327235Y-49337793D01*
X90247794Y-49417234D01*
X90202415Y-49520006D01*
X90202415Y-49520008D01*
X90199500Y-49545131D01*
X90199500Y-50283951D01*
X90179815Y-50350990D01*
X90127011Y-50396745D01*
X90057853Y-50406689D01*
X89994297Y-50377664D01*
X89956523Y-50318886D01*
X89952029Y-50295391D01*
X89945756Y-50227689D01*
X89931273Y-50176789D01*
X89887405Y-50022611D01*
X89887403Y-50022606D01*
X89887403Y-50022605D01*
X89792367Y-49831746D01*
X89663872Y-49661593D01*
X89636595Y-49636727D01*
X89506302Y-49517948D01*
X89325019Y-49405702D01*
X89325017Y-49405701D01*
X89225608Y-49367190D01*
X89126198Y-49328679D01*
X88929385Y-49291888D01*
X88867106Y-49260221D01*
X88831833Y-49199908D01*
X88834767Y-49130100D01*
X88874976Y-49072960D01*
X88929384Y-49048111D01*
X89126198Y-49011321D01*
X89325019Y-48934298D01*
X89506302Y-48822052D01*
X89663872Y-48678407D01*
X89792366Y-48508255D01*
X89825283Y-48442148D01*
X89887403Y-48317394D01*
X89887403Y-48317393D01*
X89887405Y-48317389D01*
X89945756Y-48112310D01*
X89956529Y-47996047D01*
X89982315Y-47931111D01*
X90026869Y-47899194D01*
X89990497Y-47878331D01*
X89958307Y-47816318D01*
X89956529Y-47803951D01*
X89953800Y-47774500D01*
X89945756Y-47687690D01*
X89887405Y-47482611D01*
X89887403Y-47482606D01*
X89887403Y-47482605D01*
X89792367Y-47291746D01*
X89663872Y-47121593D01*
X89610428Y-47072872D01*
X89506302Y-46977948D01*
X89455912Y-46946748D01*
X89325020Y-46865702D01*
X89325012Y-46865698D01*
X89276455Y-46846887D01*
X89252425Y-46834407D01*
X89244641Y-46829213D01*
X89244638Y-46829211D01*
X89244636Y-46829210D01*
X88880434Y-46673669D01*
X88876515Y-46672028D01*
X88876496Y-46672020D01*
X88876443Y-46671998D01*
X88645477Y-46577135D01*
X88605341Y-46560650D01*
X88590217Y-46554901D01*
X88590126Y-46554869D01*
X88589091Y-46554506D01*
X88589063Y-46554497D01*
X88573495Y-46549510D01*
X88573468Y-46549502D01*
X88332705Y-46479425D01*
X88332689Y-46479421D01*
X88309662Y-46473679D01*
X88309656Y-46473677D01*
X88309649Y-46473676D01*
X88307902Y-46473311D01*
X88284523Y-46469376D01*
X87999429Y-46432705D01*
X87984177Y-46431132D01*
X87982989Y-46431040D01*
X87967327Y-46430225D01*
X87967323Y-46430224D01*
X87967306Y-46430224D01*
X87819791Y-46426346D01*
X87803747Y-46425924D01*
X87790825Y-46424908D01*
X87787728Y-46424500D01*
X87787727Y-46424500D01*
X87787725Y-46424500D01*
X87751158Y-46424500D01*
X87747900Y-46424457D01*
X87575308Y-46419920D01*
X87575293Y-46419919D01*
X87575266Y-46419919D01*
X87570776Y-46419834D01*
X87570517Y-46419831D01*
X87570498Y-46419831D01*
X87570489Y-46419831D01*
X87559914Y-46419893D01*
X87555309Y-46420864D01*
X87550737Y-46421829D01*
X87525141Y-46424500D01*
X86318456Y-46424500D01*
X86259198Y-46409424D01*
X85857218Y-46190736D01*
X85842506Y-46181299D01*
X85842329Y-46181202D01*
X85841534Y-46180906D01*
X85833123Y-46177412D01*
X85830573Y-46176241D01*
X85830568Y-46176239D01*
X85830566Y-46176238D01*
X85791982Y-46161594D01*
X85753392Y-46146947D01*
X85749387Y-46145731D01*
X85749387Y-46145730D01*
X85738202Y-46142366D01*
X85707484Y-46130909D01*
X85707482Y-46130908D01*
X85647882Y-46124501D01*
X85647873Y-46124500D01*
X85647863Y-46124500D01*
X85002129Y-46124500D01*
X85002123Y-46124501D01*
X84942516Y-46130908D01*
X84807671Y-46181202D01*
X84807664Y-46181206D01*
X84692455Y-46267452D01*
X84692452Y-46267455D01*
X84606206Y-46382664D01*
X84606202Y-46382671D01*
X84570116Y-46479425D01*
X84555909Y-46517517D01*
X84549500Y-46577127D01*
X84549500Y-46577134D01*
X84549500Y-46577135D01*
X84549500Y-47072870D01*
X84549501Y-47072876D01*
X84555908Y-47132483D01*
X84606202Y-47267328D01*
X84606206Y-47267335D01*
X84692452Y-47382544D01*
X84692455Y-47382547D01*
X84807664Y-47468793D01*
X84807671Y-47468797D01*
X84829027Y-47476762D01*
X84942517Y-47519091D01*
X85002127Y-47525500D01*
X85647872Y-47525499D01*
X85707483Y-47519091D01*
X85707489Y-47519089D01*
X85816197Y-47478543D01*
X85821308Y-47476762D01*
X85821883Y-47476575D01*
X85830566Y-47473762D01*
X85830572Y-47473759D01*
X85835842Y-47471495D01*
X85835931Y-47471703D01*
X85842194Y-47468847D01*
X85842331Y-47468796D01*
X85842336Y-47468791D01*
X85842521Y-47468691D01*
X85857204Y-47459269D01*
X86259202Y-47240575D01*
X86318459Y-47225500D01*
X87481657Y-47225500D01*
X87512397Y-47229371D01*
X87544891Y-47237686D01*
X87604958Y-47273375D01*
X87636194Y-47335874D01*
X87638150Y-47357254D01*
X87638750Y-47489935D01*
X87638745Y-47491759D01*
X87635193Y-47840382D01*
X87636807Y-47875015D01*
X87636807Y-47875024D01*
X87637077Y-47877626D01*
X87637081Y-47877655D01*
X87642642Y-47912028D01*
X87642643Y-47912034D01*
X87663435Y-48006161D01*
X87665825Y-48021464D01*
X87674244Y-48112310D01*
X87732596Y-48317392D01*
X87732596Y-48317394D01*
X87827632Y-48508253D01*
X87827634Y-48508255D01*
X87956128Y-48678407D01*
X88113698Y-48822052D01*
X88294981Y-48934298D01*
X88493802Y-49011321D01*
X88690613Y-49048111D01*
X88752893Y-49079779D01*
X88788166Y-49140092D01*
X88785232Y-49209900D01*
X88745023Y-49267040D01*
X88690613Y-49291888D01*
X88542994Y-49319483D01*
X88493796Y-49328680D01*
X88389503Y-49369083D01*
X88371770Y-49374467D01*
X88353545Y-49378542D01*
X88061962Y-49503455D01*
X88060671Y-49504000D01*
X87863180Y-49585975D01*
X87850917Y-49590326D01*
X87708191Y-49632678D01*
X87689204Y-49636727D01*
X87512136Y-49660189D01*
X87499246Y-49661216D01*
X87204397Y-49669298D01*
X87201339Y-49669395D01*
X87192166Y-49671464D01*
X87164895Y-49674500D01*
X86318456Y-49674500D01*
X86259198Y-49659424D01*
X85857218Y-49440736D01*
X85842506Y-49431299D01*
X85842329Y-49431202D01*
X85841534Y-49430906D01*
X85833123Y-49427412D01*
X85830573Y-49426241D01*
X85830568Y-49426239D01*
X85830566Y-49426238D01*
X85791982Y-49411594D01*
X85753392Y-49396947D01*
X85749387Y-49395731D01*
X85749387Y-49395730D01*
X85738207Y-49392368D01*
X85735031Y-49391183D01*
X85679096Y-49349316D01*
X85654675Y-49283853D01*
X85669523Y-49215580D01*
X85718926Y-49166171D01*
X85735026Y-49158818D01*
X85783086Y-49140893D01*
X85842331Y-49118796D01*
X85957546Y-49032546D01*
X86043796Y-48917331D01*
X86094091Y-48782483D01*
X86100500Y-48722873D01*
X86100499Y-48227128D01*
X86094091Y-48167517D01*
X86043796Y-48032669D01*
X86043795Y-48032668D01*
X86043793Y-48032664D01*
X85957547Y-47917455D01*
X85957544Y-47917452D01*
X85842335Y-47831206D01*
X85842328Y-47831202D01*
X85707486Y-47780910D01*
X85707485Y-47780909D01*
X85707483Y-47780909D01*
X85647873Y-47774500D01*
X85647863Y-47774500D01*
X85002129Y-47774500D01*
X85002123Y-47774501D01*
X84942517Y-47780908D01*
X84877644Y-47805104D01*
X84863408Y-47809459D01*
X84840741Y-47814930D01*
X84840727Y-47814935D01*
X84690353Y-47882377D01*
X84621129Y-47891850D01*
X84578593Y-47877184D01*
X84451073Y-47805104D01*
X84351780Y-47748978D01*
X84337877Y-47739836D01*
X84334976Y-47737636D01*
X84332204Y-47736543D01*
X84324805Y-47733013D01*
X84324708Y-47733223D01*
X84320226Y-47731142D01*
X84320221Y-47731140D01*
X84320219Y-47731139D01*
X84292777Y-47720968D01*
X84290459Y-47720081D01*
X84200590Y-47684641D01*
X84200582Y-47684640D01*
X84116145Y-47674500D01*
X84116144Y-47674500D01*
X83533856Y-47674500D01*
X83495841Y-47679065D01*
X83449411Y-47684640D01*
X83315023Y-47737636D01*
X83199921Y-47824921D01*
X83109183Y-47944577D01*
X83103147Y-47953512D01*
X82714698Y-48437797D01*
X82711777Y-48442148D01*
X82711349Y-48441860D01*
X82694781Y-48463825D01*
X82429519Y-48729088D01*
X82429518Y-48729090D01*
X82376793Y-48820410D01*
X82372739Y-48835544D01*
X82349500Y-48922273D01*
X82349500Y-60990226D01*
X82000000Y-60990226D01*
X82000000Y-45494856D01*
X83774500Y-45494856D01*
X83774502Y-45494882D01*
X83777413Y-45519987D01*
X83777415Y-45519991D01*
X83822793Y-45622764D01*
X83822794Y-45622765D01*
X83902235Y-45702206D01*
X84005009Y-45747585D01*
X84030135Y-45750500D01*
X85119864Y-45750499D01*
X85119879Y-45750497D01*
X85119882Y-45750497D01*
X85144987Y-45747586D01*
X85144988Y-45747585D01*
X85144991Y-45747585D01*
X85247765Y-45702206D01*
X85327206Y-45622765D01*
X85372585Y-45519991D01*
X85375500Y-45494865D01*
X85375499Y-45313034D01*
X85395183Y-45245995D01*
X85418138Y-45219458D01*
X85457247Y-45185456D01*
X85520752Y-45156327D01*
X85541873Y-45156185D01*
X85541873Y-45155466D01*
X85550003Y-45155466D01*
X85600605Y-45148804D01*
X85700238Y-45135687D01*
X85840235Y-45077698D01*
X85960453Y-44985451D01*
X86052126Y-44865979D01*
X86108552Y-44824779D01*
X86178298Y-44820624D01*
X86239218Y-44854836D01*
X86271971Y-44916553D01*
X86274500Y-44941468D01*
X86274500Y-45494856D01*
X86274502Y-45494882D01*
X86277413Y-45519987D01*
X86277415Y-45519991D01*
X86322793Y-45622764D01*
X86322794Y-45622765D01*
X86402235Y-45702206D01*
X86505009Y-45747585D01*
X86530135Y-45750500D01*
X87619864Y-45750499D01*
X87619879Y-45750497D01*
X87619882Y-45750497D01*
X87644987Y-45747586D01*
X87644988Y-45747585D01*
X87644991Y-45747585D01*
X87747765Y-45702206D01*
X87827206Y-45622765D01*
X87872585Y-45519991D01*
X87875500Y-45494865D01*
X87875499Y-45320728D01*
X87895183Y-45253689D01*
X87947987Y-45207934D01*
X87983313Y-45197789D01*
X87988925Y-45197050D01*
X88075236Y-45185687D01*
X88215233Y-45127698D01*
X88335451Y-45035451D01*
X88427698Y-44915233D01*
X88485687Y-44775236D01*
X88505466Y-44625000D01*
X88502838Y-44605042D01*
X88488409Y-44495439D01*
X88485687Y-44474764D01*
X88427698Y-44334767D01*
X88335451Y-44214549D01*
X88215233Y-44122302D01*
X88215229Y-44122300D01*
X88151801Y-44096027D01*
X88075236Y-44064313D01*
X88063962Y-44062828D01*
X87983312Y-44052210D01*
X87919416Y-44023943D01*
X87880946Y-43965618D01*
X87875499Y-43929271D01*
X87875499Y-43805143D01*
X87875499Y-43805136D01*
X87875497Y-43805117D01*
X87872586Y-43780012D01*
X87872585Y-43780010D01*
X87872585Y-43780009D01*
X87827206Y-43677235D01*
X87747765Y-43597794D01*
X87727092Y-43588666D01*
X87644992Y-43552415D01*
X87619865Y-43549500D01*
X86530143Y-43549500D01*
X86530117Y-43549502D01*
X86505012Y-43552413D01*
X86505008Y-43552415D01*
X86402235Y-43597793D01*
X86322794Y-43677234D01*
X86277415Y-43780006D01*
X86277415Y-43780008D01*
X86274500Y-43805131D01*
X86274500Y-44208530D01*
X86254815Y-44275569D01*
X86202011Y-44321324D01*
X86132853Y-44331268D01*
X86069297Y-44302243D01*
X86052125Y-44284017D01*
X86007904Y-44226389D01*
X85960453Y-44164549D01*
X85840235Y-44072302D01*
X85840231Y-44072300D01*
X85776803Y-44046027D01*
X85700238Y-44014313D01*
X85644144Y-44006928D01*
X85550004Y-43994534D01*
X85550002Y-43994534D01*
X85515682Y-43999052D01*
X85446647Y-43988284D01*
X85394392Y-43941903D01*
X85375499Y-43876112D01*
X85375499Y-43805143D01*
X85375499Y-43805136D01*
X85375497Y-43805117D01*
X85372586Y-43780012D01*
X85372585Y-43780010D01*
X85372585Y-43780009D01*
X85327206Y-43677235D01*
X85247765Y-43597794D01*
X85227092Y-43588666D01*
X85144992Y-43552415D01*
X85119865Y-43549500D01*
X84030143Y-43549500D01*
X84030117Y-43549502D01*
X84005012Y-43552413D01*
X84005008Y-43552415D01*
X83902235Y-43597793D01*
X83822794Y-43677234D01*
X83777415Y-43780006D01*
X83777415Y-43780008D01*
X83774500Y-43805131D01*
X83774500Y-45494856D01*
X82000000Y-45494856D01*
X82000000Y-40894856D01*
X83774500Y-40894856D01*
X83774502Y-40894882D01*
X83777413Y-40919987D01*
X83777415Y-40919991D01*
X83822793Y-41022764D01*
X83822794Y-41022765D01*
X83902235Y-41102206D01*
X84005009Y-41147585D01*
X84030135Y-41150500D01*
X85119864Y-41150499D01*
X85119879Y-41150497D01*
X85119882Y-41150497D01*
X85144987Y-41147586D01*
X85144988Y-41147585D01*
X85144991Y-41147585D01*
X85247765Y-41102206D01*
X85327206Y-41022765D01*
X85371736Y-40921914D01*
X85416821Y-40868538D01*
X85483608Y-40848010D01*
X85501351Y-40849060D01*
X85550002Y-40855466D01*
X85700238Y-40835687D01*
X85840235Y-40777698D01*
X85960453Y-40685451D01*
X86052126Y-40565979D01*
X86108552Y-40524779D01*
X86178298Y-40520624D01*
X86239218Y-40554836D01*
X86271971Y-40616553D01*
X86274500Y-40641468D01*
X86274500Y-40894856D01*
X86274502Y-40894882D01*
X86277413Y-40919987D01*
X86277415Y-40919991D01*
X86322793Y-41022764D01*
X86322794Y-41022765D01*
X86402235Y-41102206D01*
X86505009Y-41147585D01*
X86530135Y-41150500D01*
X87619864Y-41150499D01*
X87619879Y-41150497D01*
X87619882Y-41150497D01*
X87644987Y-41147586D01*
X87644988Y-41147585D01*
X87644991Y-41147585D01*
X87747765Y-41102206D01*
X87827206Y-41022765D01*
X87859729Y-40949106D01*
X87904813Y-40895733D01*
X87956976Y-40876256D01*
X88075236Y-40860687D01*
X88215233Y-40802698D01*
X88263489Y-40765670D01*
X94790500Y-40765670D01*
X94790501Y-40765676D01*
X94796908Y-40825283D01*
X94847202Y-40960128D01*
X94847206Y-40960135D01*
X94933452Y-41075344D01*
X94933455Y-41075347D01*
X95048664Y-41161593D01*
X95048671Y-41161597D01*
X95088221Y-41176348D01*
X95183517Y-41211891D01*
X95243127Y-41218300D01*
X95430700Y-41218299D01*
X95452795Y-41220283D01*
X95485938Y-41226284D01*
X95648881Y-41255789D01*
X95688777Y-41270414D01*
X95730896Y-41294731D01*
X95730898Y-41294733D01*
X95763862Y-41313764D01*
X95774314Y-41319799D01*
X95888891Y-41350500D01*
X96168049Y-41350500D01*
X96184640Y-41351615D01*
X96185874Y-41351782D01*
X96187959Y-41351969D01*
X96222312Y-41353108D01*
X96224210Y-41352941D01*
X96247612Y-41350500D01*
X97134307Y-41350500D01*
X97134309Y-41350500D01*
X97211844Y-41329723D01*
X97243938Y-41325499D01*
X97459450Y-41325499D01*
X97487672Y-41321387D01*
X97530009Y-41315220D01*
X97638847Y-41262012D01*
X97724512Y-41176347D01*
X97777720Y-41067509D01*
X97786935Y-41004258D01*
X97816076Y-40940761D01*
X97874924Y-40903096D01*
X97891760Y-40899433D01*
X97955009Y-40890220D01*
X97983039Y-40876516D01*
X98051909Y-40864756D01*
X98091959Y-40876515D01*
X98119991Y-40890220D01*
X98190551Y-40900500D01*
X98384448Y-40900499D01*
X98384450Y-40900499D01*
X98412672Y-40896387D01*
X98455009Y-40890220D01*
X98483039Y-40876516D01*
X98551909Y-40864756D01*
X98591959Y-40876515D01*
X98619991Y-40890220D01*
X98690551Y-40900500D01*
X98884448Y-40900499D01*
X98884450Y-40900499D01*
X98912672Y-40896387D01*
X98955009Y-40890220D01*
X98983039Y-40876516D01*
X99051909Y-40864756D01*
X99091959Y-40876515D01*
X99119991Y-40890220D01*
X99190551Y-40900500D01*
X99384448Y-40900499D01*
X99384450Y-40900499D01*
X99412672Y-40896387D01*
X99455009Y-40890220D01*
X99563847Y-40837012D01*
X99649512Y-40751347D01*
X99702720Y-40642509D01*
X99702721Y-40642496D01*
X99703143Y-40641137D01*
X99704669Y-40638519D01*
X99706949Y-40633857D01*
X99707291Y-40634024D01*
X99723678Y-40605927D01*
X99721849Y-40604640D01*
X99726954Y-40597385D01*
X99730593Y-40590229D01*
X99777839Y-40497311D01*
X99797524Y-40430272D01*
X99809900Y-40344200D01*
X99809900Y-39977892D01*
X99829585Y-39910853D01*
X99843519Y-39892997D01*
X100432325Y-39266204D01*
X100492570Y-39230822D01*
X100562384Y-39233627D01*
X100619598Y-39273731D01*
X100646047Y-39338401D01*
X100646700Y-39351106D01*
X100646700Y-39528274D01*
X100646874Y-39533581D01*
X100647354Y-39548261D01*
X100648416Y-39564463D01*
X100650373Y-39584325D01*
X100655551Y-39623653D01*
X100663325Y-39682702D01*
X100664221Y-39689503D01*
X100672013Y-39728683D01*
X100680395Y-39759965D01*
X100693241Y-39797807D01*
X100693242Y-39797809D01*
X100730695Y-39888230D01*
X100748356Y-39924042D01*
X100748367Y-39924063D01*
X100764554Y-39952101D01*
X100786760Y-39985335D01*
X100818207Y-40026316D01*
X100846339Y-40062978D01*
X100872687Y-40093022D01*
X100895577Y-40115912D01*
X100925621Y-40142260D01*
X100961925Y-40170117D01*
X101003263Y-40201838D01*
X101036497Y-40224044D01*
X101064530Y-40240229D01*
X101064550Y-40240238D01*
X101064556Y-40240242D01*
X101100368Y-40257903D01*
X101141644Y-40275000D01*
X101190798Y-40295360D01*
X101228638Y-40308205D01*
X101259905Y-40316583D01*
X101299097Y-40324379D01*
X101381611Y-40335242D01*
X101404246Y-40338223D01*
X101404253Y-40338223D01*
X101404263Y-40338225D01*
X101424157Y-40340185D01*
X101440342Y-40341246D01*
X101460326Y-40341900D01*
X103428601Y-40341900D01*
X103495640Y-40361585D01*
X103515120Y-40377072D01*
X104738711Y-41568851D01*
X104753236Y-41582115D01*
X104765352Y-41592483D01*
X104780653Y-41604750D01*
X104805854Y-41623651D01*
X104864127Y-41667358D01*
X104897007Y-41688861D01*
X104897013Y-41688864D01*
X104897017Y-41688867D01*
X104910856Y-41696696D01*
X104924706Y-41704531D01*
X104954423Y-41718903D01*
X104960088Y-41721643D01*
X105049243Y-41757886D01*
X105049249Y-41757888D01*
X105049259Y-41757892D01*
X105086539Y-41770319D01*
X105117318Y-41778421D01*
X105155873Y-41785958D01*
X105259320Y-41799347D01*
X105274607Y-41800827D01*
X105278868Y-41801240D01*
X105278873Y-41801240D01*
X105278880Y-41801241D01*
X105284187Y-41801583D01*
X105294789Y-41802267D01*
X105306260Y-41802636D01*
X105314449Y-41802900D01*
X105314454Y-41802900D01*
X106845061Y-41802900D01*
X106845074Y-41802900D01*
X106865059Y-41802246D01*
X106881243Y-41801185D01*
X106881253Y-41801183D01*
X106881268Y-41801183D01*
X106895515Y-41799778D01*
X106901136Y-41799225D01*
X107006302Y-41785379D01*
X107045494Y-41777583D01*
X107076761Y-41769205D01*
X107114601Y-41756360D01*
X107205028Y-41718904D01*
X107240869Y-41701229D01*
X107268902Y-41685044D01*
X107302128Y-41662843D01*
X107379778Y-41603260D01*
X107409822Y-41576912D01*
X107432712Y-41554022D01*
X107459060Y-41523978D01*
X107518643Y-41446328D01*
X107540844Y-41413102D01*
X107557029Y-41385069D01*
X107574704Y-41349228D01*
X107612160Y-41258801D01*
X107625005Y-41220961D01*
X107633383Y-41189694D01*
X107641179Y-41150502D01*
X107655025Y-41045338D01*
X107656985Y-41025443D01*
X107658046Y-41009257D01*
X107658700Y-40989274D01*
X107658700Y-32258218D01*
X107658042Y-32238171D01*
X107656974Y-32221931D01*
X107655001Y-32201967D01*
X107641062Y-32096454D01*
X107633213Y-32057135D01*
X107624779Y-32025770D01*
X107611848Y-31987815D01*
X107574147Y-31897138D01*
X107556359Y-31861207D01*
X107540070Y-31833108D01*
X107533265Y-31822967D01*
X107517732Y-31799819D01*
X107517717Y-31799798D01*
X107457775Y-31722038D01*
X107457772Y-31722035D01*
X107457767Y-31722028D01*
X107431252Y-31691942D01*
X107431243Y-31691933D01*
X107408232Y-31669044D01*
X107378004Y-31642690D01*
X107377999Y-31642686D01*
X107299919Y-31583157D01*
X107299906Y-31583147D01*
X107277479Y-31568270D01*
X107266509Y-31560992D01*
X107266503Y-31560988D01*
X107266498Y-31560985D01*
X107238310Y-31544843D01*
X107202287Y-31527248D01*
X107202286Y-31527247D01*
X107111416Y-31490032D01*
X107073404Y-31477305D01*
X107041997Y-31469038D01*
X107041989Y-31469036D01*
X107041987Y-31469036D01*
X107032146Y-31467126D01*
X107002627Y-31461396D01*
X107002592Y-31461391D01*
X106897052Y-31448018D01*
X106877023Y-31446147D01*
X106860783Y-31445167D01*
X106840758Y-31444616D01*
X101456026Y-31473218D01*
X101436108Y-31473974D01*
X101434320Y-31474100D01*
X101420010Y-31475111D01*
X101404657Y-31476699D01*
X101400170Y-31477164D01*
X101295413Y-31491475D01*
X101295399Y-31491477D01*
X101256427Y-31499418D01*
X101256398Y-31499425D01*
X101256392Y-31499426D01*
X101256390Y-31499427D01*
X101225279Y-31507911D01*
X101225275Y-31507912D01*
X101225269Y-31507914D01*
X101187626Y-31520869D01*
X101187606Y-31520876D01*
X101097635Y-31558564D01*
X101097607Y-31558577D01*
X101061988Y-31576309D01*
X101061964Y-31576322D01*
X101034108Y-31592537D01*
X101001059Y-31614781D01*
X101001055Y-31614784D01*
X100923854Y-31674405D01*
X100893998Y-31700740D01*
X100871255Y-31723601D01*
X100845058Y-31753618D01*
X100785844Y-31831140D01*
X100785835Y-31831153D01*
X100763772Y-31864315D01*
X100747691Y-31892284D01*
X100730143Y-31928011D01*
X100730138Y-31928021D01*
X100692926Y-32018199D01*
X100680164Y-32055934D01*
X100671844Y-32087100D01*
X100671842Y-32087108D01*
X100664102Y-32126155D01*
X100650352Y-32230959D01*
X100648403Y-32250806D01*
X100647349Y-32266930D01*
X100646700Y-32286846D01*
X100646700Y-33262322D01*
X100627015Y-33329361D01*
X100574211Y-33375116D01*
X100505053Y-33385060D01*
X100441497Y-33356035D01*
X100437635Y-33352543D01*
X100420992Y-33336851D01*
X100420989Y-33336849D01*
X100420987Y-33336847D01*
X100320911Y-33285961D01*
X100320910Y-33285960D01*
X100320909Y-33285960D01*
X100253878Y-33266277D01*
X100253872Y-33266276D01*
X100167800Y-33253900D01*
X97317000Y-33253900D01*
X97316991Y-33253900D01*
X97316990Y-33253901D01*
X97252064Y-33260881D01*
X97252052Y-33260883D01*
X97200546Y-33272088D01*
X97162345Y-33283044D01*
X97162341Y-33283046D01*
X97065431Y-33339723D01*
X97065428Y-33339725D01*
X97012623Y-33385481D01*
X97012612Y-33385491D01*
X96970451Y-33430207D01*
X96970445Y-33430216D01*
X96919560Y-33530290D01*
X96899877Y-33597321D01*
X96887500Y-33683402D01*
X96887500Y-34044204D01*
X96867815Y-34111243D01*
X96815011Y-34156998D01*
X96775803Y-34166726D01*
X96775892Y-34167488D01*
X96747211Y-34170814D01*
X96747208Y-34170815D01*
X96644435Y-34216193D01*
X96564994Y-34295634D01*
X96519615Y-34398406D01*
X96519615Y-34398408D01*
X96516700Y-34423531D01*
X96516700Y-36690168D01*
X96497015Y-36757207D01*
X96444211Y-36802962D01*
X96375053Y-36812906D01*
X96311497Y-36783881D01*
X96299665Y-36772147D01*
X96286500Y-36757207D01*
X96190793Y-36648592D01*
X96167646Y-36609945D01*
X96134798Y-36521873D01*
X96134793Y-36521864D01*
X96048547Y-36406655D01*
X96048544Y-36406652D01*
X95933335Y-36320406D01*
X95933328Y-36320402D01*
X95798486Y-36270110D01*
X95798485Y-36270109D01*
X95798483Y-36270109D01*
X95738873Y-36263700D01*
X95738863Y-36263700D01*
X95243129Y-36263700D01*
X95243123Y-36263701D01*
X95183516Y-36270108D01*
X95048671Y-36320402D01*
X95048664Y-36320406D01*
X94933455Y-36406652D01*
X94933452Y-36406655D01*
X94847206Y-36521864D01*
X94847202Y-36521871D01*
X94799939Y-36648592D01*
X94796909Y-36656717D01*
X94790500Y-36716327D01*
X94790500Y-36716334D01*
X94790500Y-36716335D01*
X94790500Y-37362070D01*
X94790501Y-37362076D01*
X94796908Y-37421683D01*
X94847202Y-37556528D01*
X94847206Y-37556535D01*
X94933452Y-37671744D01*
X94933455Y-37671747D01*
X95048664Y-37757993D01*
X95048673Y-37757998D01*
X95104056Y-37778654D01*
X95159990Y-37820524D01*
X95184408Y-37885988D01*
X95169557Y-37954261D01*
X95120153Y-38003667D01*
X95104059Y-38011017D01*
X95074074Y-38022201D01*
X95074064Y-38022206D01*
X94958855Y-38108452D01*
X94958852Y-38108455D01*
X94872606Y-38223664D01*
X94872602Y-38223671D01*
X94833761Y-38327812D01*
X94822309Y-38358517D01*
X94815900Y-38418127D01*
X94815900Y-38418134D01*
X94815900Y-38418135D01*
X94815900Y-39063870D01*
X94815901Y-39063876D01*
X94822308Y-39123483D01*
X94841906Y-39176027D01*
X94847356Y-39195243D01*
X94850974Y-39213494D01*
X94850976Y-39213501D01*
X94979522Y-39534878D01*
X94986142Y-39604434D01*
X94977531Y-39631674D01*
X94830937Y-39958522D01*
X94830929Y-39958543D01*
X94810443Y-40023552D01*
X94808360Y-40029612D01*
X94796909Y-40060316D01*
X94796908Y-40060317D01*
X94790501Y-40119917D01*
X94790500Y-40119936D01*
X94790500Y-40765670D01*
X88263489Y-40765670D01*
X88335451Y-40710451D01*
X88427698Y-40590233D01*
X88485687Y-40450236D01*
X88505466Y-40300000D01*
X88485687Y-40149764D01*
X88427698Y-40009767D01*
X88335451Y-39889549D01*
X88215233Y-39797302D01*
X88215229Y-39797300D01*
X88075235Y-39739312D01*
X88041227Y-39734835D01*
X88038162Y-39734431D01*
X87974266Y-39706165D01*
X87952834Y-39682702D01*
X87897984Y-39604508D01*
X87875601Y-39538320D01*
X87875499Y-39533299D01*
X87875499Y-39205143D01*
X87875499Y-39205136D01*
X87873256Y-39185793D01*
X87872586Y-39180012D01*
X87872585Y-39180010D01*
X87872585Y-39180009D01*
X87827206Y-39077235D01*
X87747765Y-38997794D01*
X87747763Y-38997793D01*
X87644992Y-38952415D01*
X87619865Y-38949500D01*
X86530143Y-38949500D01*
X86530117Y-38949502D01*
X86505012Y-38952413D01*
X86505008Y-38952415D01*
X86402235Y-38997793D01*
X86322794Y-39077234D01*
X86277415Y-39180006D01*
X86277415Y-39180008D01*
X86274500Y-39205131D01*
X86274500Y-39908530D01*
X86254815Y-39975569D01*
X86202011Y-40021324D01*
X86132853Y-40031268D01*
X86069297Y-40002243D01*
X86052125Y-39984017D01*
X85978624Y-39888230D01*
X85960453Y-39864549D01*
X85840235Y-39772302D01*
X85840231Y-39772300D01*
X85760593Y-39739313D01*
X85700238Y-39714313D01*
X85666176Y-39709828D01*
X85579119Y-39698367D01*
X85515223Y-39670100D01*
X85505609Y-39661047D01*
X85409803Y-39560679D01*
X85377753Y-39498594D01*
X85375499Y-39475060D01*
X85375499Y-39205143D01*
X85375499Y-39205136D01*
X85373256Y-39185793D01*
X85372586Y-39180012D01*
X85372585Y-39180010D01*
X85372585Y-39180009D01*
X85327206Y-39077235D01*
X85247765Y-38997794D01*
X85247763Y-38997793D01*
X85144992Y-38952415D01*
X85119865Y-38949500D01*
X84030143Y-38949500D01*
X84030117Y-38949502D01*
X84005012Y-38952413D01*
X84005008Y-38952415D01*
X83902235Y-38997793D01*
X83822794Y-39077234D01*
X83777415Y-39180006D01*
X83777415Y-39180008D01*
X83774500Y-39205131D01*
X83774500Y-40894856D01*
X82000000Y-40894856D01*
X82000000Y-37362070D01*
X93140500Y-37362070D01*
X93140501Y-37362076D01*
X93146908Y-37421683D01*
X93177032Y-37502448D01*
X93180141Y-37511932D01*
X93186572Y-37534597D01*
X93186573Y-37534600D01*
X93193515Y-37548566D01*
X93196061Y-37554436D01*
X93197202Y-37556526D01*
X93197204Y-37556531D01*
X93197206Y-37556534D01*
X93199054Y-37559918D01*
X93201259Y-37564149D01*
X93341131Y-37845565D01*
X93353342Y-37914359D01*
X93343232Y-37951499D01*
X93206334Y-38256730D01*
X93206329Y-38256743D01*
X93185843Y-38321752D01*
X93183760Y-38327812D01*
X93172309Y-38358516D01*
X93172308Y-38358517D01*
X93165901Y-38418117D01*
X93165901Y-38418123D01*
X93165900Y-38418136D01*
X93165900Y-39063870D01*
X93165901Y-39063876D01*
X93172308Y-39123483D01*
X93222602Y-39258328D01*
X93222606Y-39258335D01*
X93308852Y-39373544D01*
X93308855Y-39373547D01*
X93424064Y-39459793D01*
X93424071Y-39459797D01*
X93464994Y-39475060D01*
X93558917Y-39510091D01*
X93618527Y-39516500D01*
X94114272Y-39516499D01*
X94173883Y-39510091D01*
X94308731Y-39459796D01*
X94423946Y-39373546D01*
X94510196Y-39258331D01*
X94560491Y-39123483D01*
X94566900Y-39063873D01*
X94566899Y-38418128D01*
X94560491Y-38358517D01*
X94536290Y-38293632D01*
X94531935Y-38279401D01*
X94526466Y-38256734D01*
X94379866Y-37929873D01*
X94370393Y-37860651D01*
X94377873Y-37833088D01*
X94506423Y-37511701D01*
X94520158Y-37462924D01*
X94523326Y-37453225D01*
X94535091Y-37421683D01*
X94541500Y-37362073D01*
X94541499Y-36716328D01*
X94535091Y-36656717D01*
X94510890Y-36591832D01*
X94506535Y-36577601D01*
X94501066Y-36554934D01*
X94323451Y-36158920D01*
X94313978Y-36089698D01*
X94321138Y-36062945D01*
X94333161Y-36032257D01*
X94334320Y-36029406D01*
X94372059Y-35939831D01*
X94375023Y-35932533D01*
X94377125Y-35921491D01*
X94384379Y-35897218D01*
X94401687Y-35855436D01*
X94421466Y-35705200D01*
X94401687Y-35554964D01*
X94343698Y-35414967D01*
X94251451Y-35294749D01*
X94131233Y-35202502D01*
X94131229Y-35202500D01*
X93991236Y-35144513D01*
X93991234Y-35144512D01*
X93841001Y-35124734D01*
X93840999Y-35124734D01*
X93690765Y-35144512D01*
X93690763Y-35144513D01*
X93550770Y-35202500D01*
X93430549Y-35294749D01*
X93338300Y-35414970D01*
X93280313Y-35554963D01*
X93280312Y-35554965D01*
X93260534Y-35705199D01*
X93260534Y-35705200D01*
X93280312Y-35855434D01*
X93280314Y-35855439D01*
X93299816Y-35902521D01*
X93306427Y-35923643D01*
X93308358Y-35932530D01*
X93309951Y-35939860D01*
X93347676Y-36029406D01*
X93348858Y-36032314D01*
X93360859Y-36062945D01*
X93366986Y-36132545D01*
X93358545Y-36158924D01*
X93180937Y-36554922D01*
X93180929Y-36554943D01*
X93160443Y-36619952D01*
X93158360Y-36626012D01*
X93146909Y-36656716D01*
X93146908Y-36656717D01*
X93143312Y-36690168D01*
X93140501Y-36716323D01*
X93140500Y-36716336D01*
X93140500Y-37362070D01*
X82000000Y-37362070D01*
X82000000Y-30503363D01*
X82000595Y-30491230D01*
X82017955Y-30314658D01*
X82022681Y-30290856D01*
X82072326Y-30126897D01*
X82081597Y-30104472D01*
X82126591Y-30020122D01*
X82162228Y-29953313D01*
X82175681Y-29933134D01*
X82284215Y-29800563D01*
X82301340Y-29783392D01*
X82433606Y-29674505D01*
X82453749Y-29660995D01*
X82604693Y-29579950D01*
X82627085Y-29570622D01*
X82790917Y-29520528D01*
X82814704Y-29515739D01*
X82991228Y-29497898D01*
X83003350Y-29497269D01*
X117733353Y-29402745D01*
X117745505Y-29403310D01*
G37*
%TD.AperFunction*%
%TD*%
%TA.AperFunction,Conductor*%
%TO.N,+12V*%
G36*
X109590677Y-60169685D02*
G01*
X109611319Y-60186319D01*
X110038681Y-60613681D01*
X110072166Y-60675004D01*
X110075000Y-60701362D01*
X110075000Y-73348638D01*
X110055315Y-73415677D01*
X110038681Y-73436319D01*
X109111319Y-74363681D01*
X109049996Y-74397166D01*
X109023638Y-74400000D01*
X103626362Y-74400000D01*
X103559323Y-74380315D01*
X103538681Y-74363681D01*
X102611319Y-73436319D01*
X102577834Y-73374996D01*
X102575000Y-73348638D01*
X102575000Y-60701362D01*
X102594685Y-60634323D01*
X102611319Y-60613681D01*
X103038681Y-60186319D01*
X103100004Y-60152834D01*
X103126362Y-60150000D01*
X109523638Y-60150000D01*
X109590677Y-60169685D01*
G37*
%TD.AperFunction*%
%TD*%
%TA.AperFunction,Conductor*%
%TO.N,/POW_12V*%
G36*
X101572202Y-56140209D02*
G01*
X101575000Y-56164358D01*
X101575000Y-61943983D01*
X101555315Y-62011022D01*
X101502511Y-62056777D01*
X101433353Y-62066721D01*
X101395880Y-62055058D01*
X101224435Y-61969976D01*
X101220184Y-61967762D01*
X101217333Y-61966205D01*
X101217331Y-61966204D01*
X101217328Y-61966203D01*
X101215189Y-61965035D01*
X101209576Y-61962602D01*
X101202656Y-61959168D01*
X101191950Y-61953855D01*
X101185049Y-61950539D01*
X101185038Y-61950534D01*
X101185005Y-61950518D01*
X101184476Y-61950272D01*
X101171057Y-61944419D01*
X101171055Y-61944418D01*
X101153450Y-61940803D01*
X101135062Y-61935520D01*
X101082484Y-61915909D01*
X101082480Y-61915908D01*
X101022883Y-61909501D01*
X101022881Y-61909500D01*
X101022873Y-61909500D01*
X101022864Y-61909500D01*
X99127129Y-61909500D01*
X99127123Y-61909501D01*
X99067516Y-61915908D01*
X98932671Y-61966202D01*
X98932664Y-61966206D01*
X98817455Y-62052452D01*
X98817452Y-62052455D01*
X98731206Y-62167664D01*
X98731202Y-62167671D01*
X98680910Y-62302513D01*
X98680909Y-62302517D01*
X98674500Y-62362127D01*
X98674500Y-62362134D01*
X98674500Y-62362135D01*
X98674500Y-62857870D01*
X98674501Y-62857876D01*
X98680908Y-62917483D01*
X98731202Y-63052328D01*
X98731206Y-63052335D01*
X98817452Y-63167544D01*
X98817455Y-63167547D01*
X98932664Y-63253793D01*
X98932671Y-63253797D01*
X99067517Y-63304091D01*
X99067516Y-63304091D01*
X99074444Y-63304835D01*
X99127127Y-63310500D01*
X101022872Y-63310499D01*
X101082483Y-63304091D01*
X101155310Y-63276927D01*
X101164853Y-63273803D01*
X101191995Y-63266121D01*
X101209544Y-63257411D01*
X101215171Y-63254975D01*
X101217327Y-63253797D01*
X101217331Y-63253796D01*
X101217334Y-63253793D01*
X101220201Y-63252228D01*
X101224486Y-63249996D01*
X101395881Y-63164939D01*
X101464679Y-63152771D01*
X101529138Y-63179731D01*
X101568789Y-63237260D01*
X101575000Y-63276014D01*
X101575000Y-64283774D01*
X101555315Y-64350813D01*
X101502511Y-64396568D01*
X101433353Y-64406512D01*
X101369797Y-64377487D01*
X101351734Y-64358086D01*
X101332546Y-64332454D01*
X101332544Y-64332453D01*
X101332544Y-64332452D01*
X101217335Y-64246206D01*
X101217328Y-64246202D01*
X101082482Y-64195908D01*
X101082483Y-64195908D01*
X101022883Y-64189501D01*
X101022881Y-64189500D01*
X101022873Y-64189500D01*
X101022864Y-64189500D01*
X99127129Y-64189500D01*
X99127123Y-64189501D01*
X99067516Y-64195908D01*
X98932671Y-64246202D01*
X98932664Y-64246206D01*
X98817455Y-64332452D01*
X98817452Y-64332455D01*
X98731206Y-64447664D01*
X98731202Y-64447671D01*
X98680910Y-64582513D01*
X98680909Y-64582517D01*
X98674500Y-64642127D01*
X98674500Y-64642134D01*
X98674500Y-64642135D01*
X98674500Y-65137870D01*
X98674501Y-65137876D01*
X98680908Y-65197483D01*
X98731202Y-65332328D01*
X98731206Y-65332335D01*
X98817452Y-65447544D01*
X98817455Y-65447547D01*
X98932664Y-65533793D01*
X98932671Y-65533797D01*
X99067517Y-65584091D01*
X99067516Y-65584091D01*
X99074444Y-65584835D01*
X99127127Y-65590500D01*
X101022872Y-65590499D01*
X101082483Y-65584091D01*
X101217331Y-65533796D01*
X101332546Y-65447546D01*
X101351733Y-65421914D01*
X101407666Y-65380043D01*
X101477358Y-65375059D01*
X101538681Y-65408544D01*
X101572166Y-65469867D01*
X101575000Y-65496225D01*
X101575000Y-72095708D01*
X101555315Y-72162747D01*
X101535107Y-72186824D01*
X98360624Y-75117116D01*
X98298011Y-75148123D01*
X98276517Y-75150000D01*
X91376362Y-75150000D01*
X91309323Y-75130315D01*
X91288681Y-75113681D01*
X90861319Y-74686319D01*
X90827834Y-74624996D01*
X90825000Y-74598638D01*
X90825000Y-60217697D01*
X90844685Y-60150658D01*
X90881943Y-60113393D01*
X94325000Y-57900000D01*
X94325000Y-52650000D01*
X100575000Y-52650000D01*
X101572202Y-56140209D01*
G37*
%TD.AperFunction*%
%TD*%
%TA.AperFunction,Conductor*%
%TO.N,GND*%
G36*
X101998494Y-44530851D02*
G01*
X102012500Y-44530851D01*
X102006659Y-44539058D01*
X102075000Y-44607750D01*
X101820933Y-44711988D01*
X101800871Y-44668523D01*
X101784632Y-44637653D01*
X101772580Y-44610400D01*
X101765080Y-44577791D01*
X101762500Y-44530851D01*
X101929852Y-44530851D01*
X101899900Y-44506664D01*
X101870185Y-44457223D01*
X101880546Y-44412296D01*
X101998494Y-44530851D01*
G37*
%TD.AperFunction*%
%TD*%
%TA.AperFunction,Conductor*%
%TO.N,Net-(D1-A)*%
G36*
X100639018Y-77490927D02*
G01*
X100640878Y-77493351D01*
X100944862Y-78019935D01*
X100946030Y-78028813D01*
X100941838Y-78035077D01*
X100519609Y-78358061D01*
X100510955Y-78360366D01*
X100505391Y-78358061D01*
X100083161Y-78035077D01*
X100078672Y-78027329D01*
X100080136Y-78019937D01*
X100384122Y-77493350D01*
X100391226Y-77487899D01*
X100394255Y-77487500D01*
X100630745Y-77487500D01*
X100639018Y-77490927D01*
G37*
%TD.AperFunction*%
%TD*%
%TA.AperFunction,Conductor*%
%TO.N,Net-(D1-A)*%
G36*
X100520247Y-76480844D02*
G01*
X100905128Y-76820880D01*
X100909059Y-76828926D01*
X100907350Y-76835773D01*
X100640925Y-77269425D01*
X100633674Y-77274680D01*
X100630956Y-77275000D01*
X100394044Y-77275000D01*
X100385771Y-77271573D01*
X100384075Y-77269425D01*
X100117649Y-76835773D01*
X100116238Y-76826930D01*
X100119869Y-76820881D01*
X100504753Y-76480843D01*
X100513222Y-76477934D01*
X100520247Y-76480844D01*
G37*
%TD.AperFunction*%
%TD*%
%TA.AperFunction,Conductor*%
%TO.N,/POW_12V*%
G36*
X103482245Y-56332329D02*
G01*
X103483191Y-56333176D01*
X103911144Y-56760418D01*
X104074344Y-56923347D01*
X104076892Y-56927161D01*
X104395978Y-57699877D01*
X104395969Y-57708832D01*
X104390029Y-57714984D01*
X104091063Y-57851665D01*
X103987028Y-57899228D01*
X103987021Y-57899231D01*
X103987020Y-57899232D01*
X103693046Y-58049482D01*
X103692275Y-58049841D01*
X103433450Y-58159199D01*
X103431377Y-58159856D01*
X103122507Y-58226868D01*
X103120626Y-58227119D01*
X102687604Y-58249368D01*
X102679166Y-58246370D01*
X102675319Y-58238283D01*
X102675304Y-58237683D01*
X102675304Y-57060043D01*
X102678731Y-57051770D01*
X102685230Y-57048478D01*
X102928963Y-57011125D01*
X103079666Y-56904335D01*
X103183404Y-56744378D01*
X103295719Y-56546795D01*
X103296742Y-56545287D01*
X103465800Y-56334148D01*
X103473645Y-56329833D01*
X103482245Y-56332329D01*
G37*
%TD.AperFunction*%
%TD*%
%TA.AperFunction,Conductor*%
%TO.N,/POW_12V*%
G36*
X85083379Y-44116024D02*
G01*
X85545112Y-44446500D01*
X85549845Y-44454102D01*
X85550002Y-44456014D01*
X85550002Y-44694667D01*
X85546575Y-44702940D01*
X85545979Y-44703497D01*
X85082914Y-45106092D01*
X85074422Y-45108934D01*
X85067296Y-45105855D01*
X84582610Y-44657956D01*
X84578860Y-44649824D01*
X84581957Y-44641423D01*
X85067992Y-44117579D01*
X85076131Y-44113846D01*
X85083379Y-44116024D01*
G37*
%TD.AperFunction*%
%TD*%
%TA.AperFunction,Conductor*%
%TO.N,/POW_12V*%
G36*
X85449276Y-44331731D02*
G01*
X85449388Y-44331991D01*
X85549114Y-44570486D01*
X85549144Y-44579441D01*
X85549114Y-44579514D01*
X85449388Y-44818008D01*
X85443035Y-44824318D01*
X85434080Y-44824288D01*
X85433820Y-44824176D01*
X85338686Y-44781660D01*
X85338428Y-44781540D01*
X85262492Y-44745361D01*
X85262488Y-44745359D01*
X85262477Y-44745354D01*
X85245082Y-44738797D01*
X85194980Y-44719911D01*
X85194973Y-44719909D01*
X85123585Y-44706586D01*
X85114637Y-44704916D01*
X85114632Y-44704915D01*
X85114627Y-44704915D01*
X85011201Y-44700480D01*
X85003082Y-44696702D01*
X85000002Y-44688791D01*
X85000002Y-44461208D01*
X85003429Y-44452935D01*
X85011199Y-44449519D01*
X85114637Y-44445083D01*
X85194978Y-44430088D01*
X85262477Y-44404644D01*
X85338536Y-44368406D01*
X85338619Y-44368367D01*
X85433821Y-44325822D01*
X85442772Y-44325576D01*
X85449276Y-44331731D01*
G37*
%TD.AperFunction*%
%TD*%
%TA.AperFunction,Conductor*%
%TO.N,/POW_12V*%
G36*
X85082372Y-39660105D02*
G01*
X85546765Y-40146609D01*
X85550002Y-40154687D01*
X85550002Y-40393298D01*
X85546575Y-40401571D01*
X85544221Y-40403390D01*
X85083747Y-40673479D01*
X85074878Y-40674709D01*
X85068678Y-40670679D01*
X84653699Y-40150000D01*
X84581305Y-40059166D01*
X84578830Y-40050562D01*
X84583162Y-40042728D01*
X85066636Y-39659019D01*
X85075246Y-39656561D01*
X85082372Y-39660105D01*
G37*
%TD.AperFunction*%
%TD*%
%TA.AperFunction,Conductor*%
%TO.N,/POW_12V*%
G36*
X85449276Y-40031731D02*
G01*
X85449388Y-40031991D01*
X85549114Y-40270486D01*
X85549144Y-40279441D01*
X85549114Y-40279514D01*
X85449388Y-40518008D01*
X85443035Y-40524318D01*
X85434080Y-40524288D01*
X85433820Y-40524176D01*
X85338686Y-40481660D01*
X85338428Y-40481540D01*
X85262492Y-40445361D01*
X85262488Y-40445359D01*
X85262477Y-40445354D01*
X85245082Y-40438797D01*
X85194980Y-40419911D01*
X85194973Y-40419909D01*
X85123585Y-40406586D01*
X85114637Y-40404916D01*
X85114632Y-40404915D01*
X85114627Y-40404915D01*
X85011201Y-40400480D01*
X85003082Y-40396702D01*
X85000002Y-40388791D01*
X85000002Y-40161208D01*
X85003429Y-40152935D01*
X85011199Y-40149519D01*
X85114637Y-40145083D01*
X85194978Y-40130088D01*
X85262477Y-40104644D01*
X85338536Y-40068406D01*
X85338619Y-40068367D01*
X85433821Y-40025822D01*
X85442772Y-40025576D01*
X85449276Y-40031731D01*
G37*
%TD.AperFunction*%
%TD*%
%TA.AperFunction,Conductor*%
%TO.N,/POW_12V*%
G36*
X96794922Y-45376241D02*
G01*
X97212586Y-45700688D01*
X97217017Y-45708470D01*
X97215936Y-45715033D01*
X97010090Y-46139526D01*
X97007835Y-46142694D01*
X96807051Y-46343478D01*
X96798778Y-46346905D01*
X96790505Y-46343478D01*
X96789137Y-46341833D01*
X96408420Y-45787248D01*
X96406564Y-45778489D01*
X96409522Y-45772635D01*
X96779200Y-45377487D01*
X96787355Y-45373787D01*
X96794922Y-45376241D01*
G37*
%TD.AperFunction*%
%TD*%
%TA.AperFunction,Conductor*%
%TO.N,/POW_12V*%
G36*
X97266714Y-44484786D02*
G01*
X97467470Y-44685542D01*
X97470897Y-44693815D01*
X97470452Y-44697012D01*
X97240522Y-45506344D01*
X97234964Y-45513366D01*
X97226070Y-45514402D01*
X97225641Y-45514271D01*
X96791478Y-45372732D01*
X96784674Y-45366909D01*
X96784388Y-45366303D01*
X96582156Y-44904751D01*
X96581974Y-44895799D01*
X96586767Y-44890074D01*
X97252337Y-44483076D01*
X97261183Y-44481685D01*
X97266714Y-44484786D01*
G37*
%TD.AperFunction*%
%TD*%
%TA.AperFunction,Conductor*%
%TO.N,/POW_12V*%
G36*
X89347869Y-65578427D02*
G01*
X89351216Y-65585333D01*
X89449338Y-66419373D01*
X89446901Y-66427990D01*
X89445996Y-66429008D01*
X88608278Y-67267712D01*
X88600007Y-67271144D01*
X88591732Y-67267722D01*
X88591722Y-67267712D01*
X87754003Y-66429008D01*
X87750581Y-66420733D01*
X87750660Y-66419390D01*
X87848784Y-65585332D01*
X87853154Y-65577517D01*
X87860404Y-65575000D01*
X89339596Y-65575000D01*
X89347869Y-65578427D01*
G37*
%TD.AperFunction*%
%TD*%
%TA.AperFunction,Conductor*%
%TO.N,/POW_12V*%
G36*
X89438024Y-64734985D02*
G01*
X89446291Y-64738422D01*
X89449708Y-64746699D01*
X89449704Y-64746973D01*
X89439608Y-65156674D01*
X89439572Y-65157353D01*
X89414815Y-65455818D01*
X89414779Y-65456185D01*
X89385199Y-65713996D01*
X89360401Y-66012959D01*
X89360399Y-66013001D01*
X89350281Y-66423588D01*
X89346652Y-66431774D01*
X89338585Y-66435000D01*
X87861415Y-66435000D01*
X87853142Y-66431573D01*
X87849719Y-66423588D01*
X87846989Y-66312820D01*
X87839600Y-66012976D01*
X87814800Y-65713988D01*
X87785220Y-65456185D01*
X87785184Y-65455818D01*
X87760427Y-65157353D01*
X87760391Y-65156674D01*
X87750295Y-64746973D01*
X87753517Y-64738618D01*
X87761703Y-64734989D01*
X87761909Y-64734985D01*
X88600000Y-64734000D01*
X89438024Y-64734985D01*
G37*
%TD.AperFunction*%
%TD*%
%TA.AperFunction,Conductor*%
%TO.N,/POW_12V*%
G36*
X88612013Y-63885340D02*
G01*
X89021045Y-63896949D01*
X89021783Y-63896994D01*
X89319655Y-63925464D01*
X89319976Y-63925501D01*
X89519055Y-63951830D01*
X89577198Y-63959520D01*
X89726397Y-63973780D01*
X89875595Y-63988040D01*
X90285648Y-63999677D01*
X90293821Y-64003337D01*
X90297016Y-64011372D01*
X90297016Y-65488543D01*
X90293589Y-65496816D01*
X90285562Y-65500240D01*
X89875852Y-65508839D01*
X89577338Y-65529919D01*
X89577329Y-65529919D01*
X89577327Y-65529920D01*
X89558450Y-65531763D01*
X89319831Y-65555065D01*
X89319518Y-65555091D01*
X89021445Y-65576140D01*
X89020867Y-65576166D01*
X88611931Y-65584749D01*
X88603587Y-65581497D01*
X88599988Y-65573298D01*
X88599986Y-65573147D01*
X88599000Y-64735000D01*
X88599985Y-63897019D01*
X88603422Y-63888753D01*
X88611699Y-63885336D01*
X88612013Y-63885340D01*
G37*
%TD.AperFunction*%
%TD*%
%TA.AperFunction,Conductor*%
%TO.N,/POW_12V*%
G36*
X100639229Y-74028427D02*
G01*
X100640925Y-74030575D01*
X100907350Y-74464225D01*
X100908761Y-74473068D01*
X100905128Y-74479118D01*
X100520247Y-74819155D01*
X100511778Y-74822065D01*
X100504753Y-74819155D01*
X100119871Y-74479118D01*
X100115940Y-74471072D01*
X100117649Y-74464225D01*
X100384075Y-74030575D01*
X100391326Y-74025320D01*
X100394044Y-74025000D01*
X100630956Y-74025000D01*
X100639229Y-74028427D01*
G37*
%TD.AperFunction*%
%TD*%
%TA.AperFunction,Conductor*%
%TO.N,/POW_12V*%
G36*
X100944552Y-72303073D02*
G01*
X100860826Y-72460262D01*
X100778204Y-72565577D01*
X100706738Y-72655747D01*
X100656485Y-72767501D01*
X100637500Y-72937568D01*
X100387500Y-72937568D01*
X100380691Y-72774114D01*
X100359792Y-72659463D01*
X100324093Y-72563088D01*
X100272881Y-72454466D01*
X100205448Y-72303073D01*
X100575000Y-72149000D01*
X100944552Y-72303073D01*
G37*
%TD.AperFunction*%
%TD*%
%TA.AperFunction,Conductor*%
%TO.N,Net-(J6-Pin_2)*%
G36*
X107051577Y-56579622D02*
G01*
X107821215Y-56897438D01*
X107827552Y-56903761D01*
X107827562Y-56903785D01*
X108145372Y-57673410D01*
X108145363Y-57682365D01*
X108139024Y-57688690D01*
X108137984Y-57689063D01*
X107782835Y-57797829D01*
X107780855Y-57798252D01*
X107494720Y-57833889D01*
X107494679Y-57833894D01*
X107247870Y-57863756D01*
X107247861Y-57863758D01*
X107000379Y-57958893D01*
X106719485Y-58183918D01*
X106710886Y-58186416D01*
X106703897Y-58183060D01*
X106541939Y-58021102D01*
X106538512Y-58012829D01*
X106541080Y-58005516D01*
X106766104Y-57724619D01*
X106861241Y-57477135D01*
X106891107Y-57230289D01*
X106926745Y-56944139D01*
X106927168Y-56942163D01*
X106940298Y-56899293D01*
X107035936Y-56587014D01*
X107041635Y-56580108D01*
X107050549Y-56579254D01*
X107051577Y-56579622D01*
G37*
%TD.AperFunction*%
%TD*%
%TA.AperFunction,Conductor*%
%TO.N,Net-(J6-Pin_2)*%
G36*
X101055657Y-62227285D02*
G01*
X101056186Y-62227531D01*
X101568502Y-62481775D01*
X101574388Y-62488521D01*
X101575000Y-62492254D01*
X101575000Y-62727745D01*
X101571573Y-62736018D01*
X101568501Y-62738225D01*
X101056190Y-62992466D01*
X101047256Y-62993074D01*
X101046704Y-62992873D01*
X100373135Y-62727745D01*
X100101657Y-62620886D01*
X100095215Y-62614668D01*
X100095056Y-62605715D01*
X100101275Y-62599272D01*
X100101643Y-62599119D01*
X101046704Y-62227126D01*
X101055657Y-62227285D01*
G37*
%TD.AperFunction*%
%TD*%
%TA.AperFunction,Conductor*%
%TO.N,Net-(J6-Pin_2)*%
G36*
X108433760Y-56307784D02*
G01*
X108434268Y-56308326D01*
X108632149Y-56533617D01*
X108633217Y-56535038D01*
X108753335Y-56723016D01*
X108753810Y-56723829D01*
X108845837Y-56897154D01*
X108966691Y-57086283D01*
X109166151Y-57313372D01*
X109169036Y-57321849D01*
X109165633Y-57329366D01*
X109003470Y-57491529D01*
X108995197Y-57494956D01*
X108988601Y-57492920D01*
X108939790Y-57459606D01*
X108829358Y-57384235D01*
X108829356Y-57384234D01*
X108829357Y-57384234D01*
X108681633Y-57384037D01*
X108681631Y-57384038D01*
X108532902Y-57459606D01*
X108532900Y-57459607D01*
X108363109Y-57572436D01*
X108362113Y-57573029D01*
X108161641Y-57679277D01*
X108152726Y-57680123D01*
X108145824Y-57674418D01*
X108145355Y-57673421D01*
X108103718Y-57573029D01*
X107827293Y-56906526D01*
X107827289Y-56897571D01*
X107829834Y-56893764D01*
X108417216Y-56307763D01*
X108425491Y-56304347D01*
X108433760Y-56307784D01*
G37*
%TD.AperFunction*%
%TD*%
%TA.AperFunction,Conductor*%
%TO.N,Net-(J6-Pin_2)*%
G36*
X110081799Y-56914244D02*
G01*
X110082706Y-56914810D01*
X110860100Y-57400075D01*
X110865304Y-57407363D01*
X110863830Y-57416195D01*
X110860100Y-57419925D01*
X110081801Y-57905754D01*
X110072969Y-57907228D01*
X110068586Y-57905189D01*
X109579680Y-57538510D01*
X109575118Y-57530805D01*
X109575000Y-57529150D01*
X109575000Y-57290850D01*
X109578427Y-57282577D01*
X109579680Y-57281490D01*
X110068587Y-56914809D01*
X110077261Y-56912588D01*
X110081799Y-56914244D01*
G37*
%TD.AperFunction*%
%TD*%
%TA.AperFunction,Conductor*%
%TO.N,+5V*%
G36*
X93848902Y-37045440D02*
G01*
X94094971Y-37270891D01*
X94219813Y-37385274D01*
X94223598Y-37393390D01*
X94222772Y-37398246D01*
X94019342Y-37906845D01*
X94013088Y-37913254D01*
X94008479Y-37914200D01*
X93723650Y-37914200D01*
X93715377Y-37910773D01*
X93713173Y-37907707D01*
X93460143Y-37398622D01*
X93459529Y-37389689D01*
X93462714Y-37384790D01*
X93833097Y-37045440D01*
X93841511Y-37042379D01*
X93848902Y-37045440D01*
G37*
%TD.AperFunction*%
%TD*%
%TA.AperFunction,Conductor*%
%TO.N,+5V*%
G36*
X94017098Y-37869427D02*
G01*
X94019500Y-37872912D01*
X94247718Y-38381754D01*
X94247977Y-38390705D01*
X94244947Y-38395169D01*
X93874304Y-38734758D01*
X93865889Y-38737820D01*
X93858496Y-38734758D01*
X93487852Y-38395169D01*
X93484067Y-38387053D01*
X93485080Y-38381756D01*
X93713300Y-37872912D01*
X93719812Y-37866766D01*
X93723975Y-37866000D01*
X94008825Y-37866000D01*
X94017098Y-37869427D01*
G37*
%TD.AperFunction*%
%TD*%
%TA.AperFunction,Conductor*%
%TO.N,+5V*%
G36*
X101035821Y-42461627D02*
G01*
X101039245Y-42469650D01*
X101041431Y-42571888D01*
X101050460Y-42652652D01*
X101068678Y-42721027D01*
X101098690Y-42797627D01*
X101138512Y-42892151D01*
X101138566Y-42901105D01*
X101132272Y-42907475D01*
X101132244Y-42907487D01*
X100893514Y-43007312D01*
X100884559Y-43007342D01*
X100884486Y-43007312D01*
X100645755Y-42907487D01*
X100639445Y-42901134D01*
X100639474Y-42892180D01*
X100679317Y-42797606D01*
X100709320Y-42721027D01*
X100727539Y-42652650D01*
X100736567Y-42571899D01*
X100738755Y-42469650D01*
X100742358Y-42461452D01*
X100750452Y-42458200D01*
X101027548Y-42458200D01*
X101035821Y-42461627D01*
G37*
%TD.AperFunction*%
%TD*%
%TA.AperFunction,Conductor*%
%TO.N,+5V*%
G36*
X93991698Y-36167627D02*
G01*
X93994100Y-36171112D01*
X94222318Y-36679954D01*
X94222577Y-36688905D01*
X94219547Y-36693369D01*
X93848904Y-37032958D01*
X93840489Y-37036020D01*
X93833096Y-37032958D01*
X93462452Y-36693369D01*
X93458667Y-36685253D01*
X93459680Y-36679956D01*
X93687900Y-36171112D01*
X93694412Y-36164966D01*
X93698575Y-36164200D01*
X93983425Y-36164200D01*
X93991698Y-36167627D01*
G37*
%TD.AperFunction*%
%TD*%
%TA.AperFunction,Conductor*%
%TO.N,+5V*%
G36*
X94084244Y-35805912D02*
G01*
X94090554Y-35812265D01*
X94090524Y-35821220D01*
X94090512Y-35821248D01*
X94050690Y-35915770D01*
X94020678Y-35992370D01*
X94002460Y-36060746D01*
X93993431Y-36141510D01*
X93991245Y-36243750D01*
X93987642Y-36251948D01*
X93979548Y-36255200D01*
X93702452Y-36255200D01*
X93694179Y-36251773D01*
X93690755Y-36243750D01*
X93688567Y-36141510D01*
X93688567Y-36141500D01*
X93679539Y-36060749D01*
X93661320Y-35992371D01*
X93631317Y-35915792D01*
X93591486Y-35821247D01*
X93591433Y-35812294D01*
X93597726Y-35805924D01*
X93836487Y-35706086D01*
X93845441Y-35706057D01*
X94084244Y-35805912D01*
G37*
%TD.AperFunction*%
%TD*%
%TA.AperFunction,Conductor*%
%TO.N,Net-(U2-SS{slash}TR)*%
G36*
X95798006Y-43354411D02*
G01*
X96371766Y-43630013D01*
X96377740Y-43636684D01*
X96378400Y-43640559D01*
X96378400Y-43925840D01*
X96374973Y-43934113D01*
X96371766Y-43936386D01*
X95798006Y-44211988D01*
X95789065Y-44212482D01*
X95783709Y-44208631D01*
X95563482Y-43925840D01*
X95457997Y-43790388D01*
X95455618Y-43781756D01*
X95457997Y-43776012D01*
X95783709Y-43357767D01*
X95791496Y-43353346D01*
X95798006Y-43354411D01*
G37*
%TD.AperFunction*%
%TD*%
%TA.AperFunction,Conductor*%
%TO.N,Net-(U2-FB)*%
G36*
X95641698Y-39571227D02*
G01*
X95644100Y-39574712D01*
X95872318Y-40083554D01*
X95872577Y-40092505D01*
X95869547Y-40096969D01*
X95498904Y-40436558D01*
X95490489Y-40439620D01*
X95483096Y-40436558D01*
X95112452Y-40096969D01*
X95108667Y-40088853D01*
X95109680Y-40083556D01*
X95337900Y-39574712D01*
X95344412Y-39568566D01*
X95348575Y-39567800D01*
X95633425Y-39567800D01*
X95641698Y-39571227D01*
G37*
%TD.AperFunction*%
%TD*%
%TA.AperFunction,Conductor*%
%TO.N,Net-(U2-FB)*%
G36*
X95524302Y-38747240D02*
G01*
X95894683Y-39086588D01*
X95898468Y-39094704D01*
X95897256Y-39100422D01*
X95644227Y-39609507D01*
X95637476Y-39615391D01*
X95633750Y-39616000D01*
X95348921Y-39616000D01*
X95340648Y-39612573D01*
X95338058Y-39608645D01*
X95134627Y-39100044D01*
X95134736Y-39091092D01*
X95137584Y-39087075D01*
X95508497Y-38747240D01*
X95516911Y-38744179D01*
X95524302Y-38747240D01*
G37*
%TD.AperFunction*%
%TD*%
%TA.AperFunction,Conductor*%
%TO.N,Net-(U2-FB)*%
G36*
X95896904Y-40230153D02*
G01*
X96225126Y-40747128D01*
X96226949Y-40753399D01*
X96226949Y-41035990D01*
X96223522Y-41044263D01*
X96215249Y-41047690D01*
X96213164Y-41047503D01*
X95506364Y-40919515D01*
X95498834Y-40914669D01*
X95496750Y-40908172D01*
X95494414Y-40747128D01*
X95490101Y-40449809D01*
X95493408Y-40441489D01*
X95496129Y-40439407D01*
X95881363Y-40226186D01*
X95890259Y-40225179D01*
X95896904Y-40230153D01*
G37*
%TD.AperFunction*%
%TD*%
%TA.AperFunction,Conductor*%
%TO.N,Net-(U2-PG)*%
G36*
X95897770Y-36778145D02*
G01*
X96273818Y-37204907D01*
X96276717Y-37213379D01*
X96273313Y-37220914D01*
X96071262Y-37422965D01*
X96065768Y-37426057D01*
X95775898Y-37496931D01*
X95767048Y-37495567D01*
X95763097Y-37491602D01*
X95496046Y-37048049D01*
X95494715Y-37039195D01*
X95499563Y-37032291D01*
X95882489Y-36776154D01*
X95891269Y-36774404D01*
X95897770Y-36778145D01*
G37*
%TD.AperFunction*%
%TD*%
%TA.AperFunction,Conductor*%
%TO.N,Net-(C2-Pad2)*%
G36*
X87728052Y-60625872D02*
G01*
X87728486Y-60626330D01*
X87983490Y-60910515D01*
X87986465Y-60918960D01*
X87986207Y-60920850D01*
X87826834Y-61642691D01*
X87821704Y-61650031D01*
X87816531Y-61651815D01*
X87537822Y-61678662D01*
X87529258Y-61676044D01*
X87525054Y-61668138D01*
X87525000Y-61667016D01*
X87525000Y-60634145D01*
X87528427Y-60625872D01*
X87536700Y-60622445D01*
X87719779Y-60622445D01*
X87728052Y-60625872D01*
G37*
%TD.AperFunction*%
%TD*%
%TA.AperFunction,Conductor*%
%TO.N,Net-(C2-Pad2)*%
G36*
X84170780Y-51248430D02*
G01*
X84461859Y-51437670D01*
X84744677Y-51621539D01*
X84749746Y-51628921D01*
X84750000Y-51631348D01*
X84750000Y-51817640D01*
X84746573Y-51825913D01*
X84743366Y-51828186D01*
X84169606Y-52103788D01*
X84160665Y-52104282D01*
X84155309Y-52100431D01*
X83829607Y-51682200D01*
X83827227Y-51673567D01*
X83829618Y-51667808D01*
X83863058Y-51625000D01*
X84155184Y-51251035D01*
X84162976Y-51246626D01*
X84170780Y-51248430D01*
G37*
%TD.AperFunction*%
%TD*%
%TA.AperFunction,Conductor*%
%TO.N,Net-(C4-Pad2)*%
G36*
X83267734Y-61037998D02*
G01*
X83268503Y-61039625D01*
X83521636Y-61702547D01*
X83521386Y-61711499D01*
X83515153Y-61717543D01*
X83235051Y-61832633D01*
X83226096Y-61832608D01*
X83220139Y-61827043D01*
X82945927Y-61278618D01*
X82945293Y-61269689D01*
X82948118Y-61265118D01*
X83082471Y-61130765D01*
X83084935Y-61128883D01*
X83251773Y-61033637D01*
X83260656Y-61032513D01*
X83267734Y-61037998D01*
G37*
%TD.AperFunction*%
%TD*%
%TA.AperFunction,Conductor*%
%TO.N,Net-(C4-Pad2)*%
G36*
X83381039Y-48112802D02*
G01*
X83817067Y-48418241D01*
X83821877Y-48425794D01*
X83820579Y-48433510D01*
X83579140Y-48867555D01*
X83572123Y-48873120D01*
X83566643Y-48873345D01*
X83091355Y-48779243D01*
X83085354Y-48776039D01*
X82953861Y-48644546D01*
X82950434Y-48636273D01*
X82953006Y-48628954D01*
X83365201Y-48115062D01*
X83373049Y-48110755D01*
X83381039Y-48112802D01*
G37*
%TD.AperFunction*%
%TD*%
%TA.AperFunction,Conductor*%
%TO.N,Net-(C4-Pad2)*%
G36*
X84979169Y-48096452D02*
G01*
X85318642Y-48466969D01*
X85321704Y-48475384D01*
X85318516Y-48482912D01*
X84973161Y-48848101D01*
X84964986Y-48851757D01*
X84958359Y-48849920D01*
X84455399Y-48528450D01*
X84450274Y-48521107D01*
X84450000Y-48518592D01*
X84450000Y-48332574D01*
X84453427Y-48324301D01*
X84456908Y-48321901D01*
X84965755Y-48093680D01*
X84974705Y-48093422D01*
X84979169Y-48096452D01*
G37*
%TD.AperFunction*%
%TD*%
%TA.AperFunction,Conductor*%
%TO.N,Net-(C4-Pad2)*%
G36*
X84169889Y-47997092D02*
G01*
X84744058Y-48321641D01*
X84749573Y-48328694D01*
X84750000Y-48331825D01*
X84750000Y-48518174D01*
X84746573Y-48526447D01*
X84744057Y-48528359D01*
X84169890Y-48852906D01*
X84161002Y-48853994D01*
X84154903Y-48849911D01*
X83829597Y-48432188D01*
X83827218Y-48423556D01*
X83829597Y-48417812D01*
X84154904Y-48000087D01*
X84162689Y-47995667D01*
X84169889Y-47997092D01*
G37*
%TD.AperFunction*%
%TD*%
%TA.AperFunction,Conductor*%
%TO.N,Net-(J12-Pin_3)*%
G36*
X89511182Y-56534459D02*
G01*
X90283544Y-56853400D01*
X90287360Y-56855950D01*
X90877926Y-57447907D01*
X90881343Y-57456184D01*
X90878056Y-57464301D01*
X90603711Y-57748131D01*
X90411668Y-57963459D01*
X90249854Y-58153045D01*
X90249687Y-58153237D01*
X90057885Y-58368296D01*
X90057566Y-58368639D01*
X89783672Y-58652005D01*
X89775458Y-58655572D01*
X89767128Y-58652287D01*
X89766986Y-58652147D01*
X88934536Y-57819697D01*
X88931109Y-57811424D01*
X88933925Y-57803811D01*
X89151323Y-57550281D01*
X89265623Y-57332996D01*
X89324980Y-57118356D01*
X89384474Y-56865090D01*
X89384791Y-56863992D01*
X89495661Y-56541472D01*
X89501591Y-56534764D01*
X89510529Y-56534213D01*
X89511182Y-56534459D01*
G37*
%TD.AperFunction*%
%TD*%
%TA.AperFunction,Conductor*%
%TO.N,Net-(J13-Pin_3)*%
G36*
X84913768Y-56854986D02*
G01*
X84922036Y-56858423D01*
X84925444Y-56866223D01*
X84940600Y-57249185D01*
X84940601Y-57249200D01*
X84977796Y-57527683D01*
X85022147Y-57767381D01*
X85022239Y-57767961D01*
X85059327Y-58045637D01*
X85059421Y-58046723D01*
X85074519Y-58428209D01*
X85071422Y-58436612D01*
X85063291Y-58440363D01*
X85062828Y-58440372D01*
X83885534Y-58440372D01*
X83877261Y-58436945D01*
X83873898Y-58429895D01*
X83873721Y-58428209D01*
X83839650Y-58104173D01*
X83745539Y-57881554D01*
X83610573Y-57701024D01*
X83453229Y-57491855D01*
X83452217Y-57490255D01*
X83295642Y-57191610D01*
X83294835Y-57182691D01*
X83300571Y-57175815D01*
X83301499Y-57175379D01*
X84072843Y-56854896D01*
X84077338Y-56854002D01*
X84913768Y-56854986D01*
G37*
%TD.AperFunction*%
%TD*%
%TA.AperFunction,Conductor*%
%TO.N,Net-(J9-Pin_2)*%
G36*
X88489207Y-49665508D02*
G01*
X88489257Y-49665626D01*
X88807994Y-50432766D01*
X88808003Y-50441721D01*
X88805455Y-50445535D01*
X88218098Y-51031917D01*
X88209822Y-51035337D01*
X88201552Y-51031903D01*
X88200779Y-51031049D01*
X88169302Y-50992600D01*
X87988046Y-50771196D01*
X87987123Y-50769895D01*
X87842635Y-50533250D01*
X87707667Y-50344550D01*
X87516059Y-50219968D01*
X87211287Y-50176434D01*
X87203581Y-50171872D01*
X87201241Y-50164852D01*
X87201241Y-49986384D01*
X87204668Y-49978111D01*
X87212619Y-49974688D01*
X87530044Y-49965987D01*
X87762769Y-49935151D01*
X87959440Y-49876792D01*
X87959445Y-49876789D01*
X87959448Y-49876789D01*
X88180047Y-49785222D01*
X88180081Y-49785208D01*
X88473845Y-49659359D01*
X88482799Y-49659252D01*
X88489207Y-49665508D01*
G37*
%TD.AperFunction*%
%TD*%
%TA.AperFunction,Conductor*%
%TO.N,Net-(J9-Pin_2)*%
G36*
X85684573Y-49694596D02*
G01*
X86193891Y-49971677D01*
X86199521Y-49978640D01*
X86200000Y-49981954D01*
X86200000Y-50168045D01*
X86196573Y-50176318D01*
X86193891Y-50178323D01*
X85684573Y-50455403D01*
X85675668Y-50456346D01*
X85670355Y-50453029D01*
X85331240Y-50082902D01*
X85328179Y-50074489D01*
X85331240Y-50067097D01*
X85670357Y-49696969D01*
X85678471Y-49693185D01*
X85684573Y-49694596D01*
G37*
%TD.AperFunction*%
%TD*%
%TA.AperFunction,Conductor*%
%TO.N,Net-(J9-Pin_4)*%
G36*
X87567238Y-46725314D02*
G01*
X87959299Y-46735620D01*
X87960469Y-46735711D01*
X88245543Y-46772380D01*
X88247313Y-46772749D01*
X88488119Y-46842838D01*
X88489273Y-46843242D01*
X88760372Y-46954588D01*
X88760447Y-46954620D01*
X89124649Y-47110161D01*
X89130912Y-47116562D01*
X89130868Y-47125387D01*
X88812853Y-47895511D01*
X88806528Y-47901850D01*
X88806512Y-47901856D01*
X88037591Y-48219948D01*
X88028636Y-48219944D01*
X88022307Y-48213610D01*
X88021693Y-48211661D01*
X87953259Y-47901850D01*
X87940950Y-47846126D01*
X87940677Y-47843494D01*
X87944263Y-47491708D01*
X87942938Y-47198783D01*
X87844130Y-46998924D01*
X87564078Y-46927251D01*
X87556913Y-46921880D01*
X87555279Y-46915916D01*
X87555279Y-46737011D01*
X87558706Y-46728738D01*
X87566979Y-46725311D01*
X87567238Y-46725314D01*
G37*
%TD.AperFunction*%
%TD*%
%TA.AperFunction,Conductor*%
%TO.N,Net-(J9-Pin_4)*%
G36*
X85684573Y-46444596D02*
G01*
X86193891Y-46721677D01*
X86199521Y-46728640D01*
X86200000Y-46731954D01*
X86200000Y-46918045D01*
X86196573Y-46926318D01*
X86193891Y-46928323D01*
X85684573Y-47205403D01*
X85675668Y-47206346D01*
X85670355Y-47203029D01*
X85331240Y-46832902D01*
X85328179Y-46824489D01*
X85331240Y-46817097D01*
X85670357Y-46446969D01*
X85678471Y-46443185D01*
X85684573Y-46444596D01*
G37*
%TD.AperFunction*%
%TD*%
%TA.AperFunction,Conductor*%
%TO.N,Net-(J9-Pin_3)*%
G36*
X87583098Y-44143520D02*
G01*
X87583383Y-44143807D01*
X87921744Y-44496605D01*
X87925000Y-44504704D01*
X87925000Y-44745481D01*
X87921962Y-44753346D01*
X87583124Y-45126548D01*
X87575026Y-45130369D01*
X87566597Y-45127345D01*
X87566320Y-45127085D01*
X87082419Y-44658158D01*
X87078862Y-44649940D01*
X87082159Y-44641614D01*
X87566554Y-44143746D01*
X87574779Y-44140207D01*
X87583098Y-44143520D01*
G37*
%TD.AperFunction*%
%TD*%
%TA.AperFunction,Conductor*%
%TO.N,Net-(J9-Pin_1)*%
G36*
X87581717Y-39685635D02*
G01*
X87581919Y-39685914D01*
X87922878Y-40171975D01*
X87925000Y-40178693D01*
X87925000Y-40419540D01*
X87921573Y-40427813D01*
X87920815Y-40428507D01*
X87584467Y-40710374D01*
X87575925Y-40713062D01*
X87567985Y-40708922D01*
X87567590Y-40708425D01*
X87081032Y-40059380D01*
X87078812Y-40050705D01*
X87083374Y-40043003D01*
X87565345Y-39683256D01*
X87574022Y-39681054D01*
X87581717Y-39685635D01*
G37*
%TD.AperFunction*%
%TD*%
M02*
