%TF.GenerationSoftware,KiCad,Pcbnew,8.0.1*%
%TF.CreationDate,2024-06-02T10:18:45+08:00*%
%TF.ProjectId,CrazyPowerboard,4372617a-7950-46f7-9765-72626f617264,rev?*%
%TF.SameCoordinates,Original*%
%TF.FileFunction,Soldermask,Bot*%
%TF.FilePolarity,Negative*%
%FSLAX46Y46*%
G04 Gerber Fmt 4.6, Leading zero omitted, Abs format (unit mm)*
G04 Created by KiCad (PCBNEW 8.0.1) date 2024-06-02 10:18:45*
%MOMM*%
%LPD*%
G01*
G04 APERTURE LIST*
G04 APERTURE END LIST*
G36*
X84294134Y-77353806D02*
G01*
X84310355Y-77364645D01*
X84321194Y-77380866D01*
X84325000Y-77400000D01*
X84325000Y-79400000D01*
X84321194Y-79419134D01*
X84310355Y-79435355D01*
X84294134Y-79446194D01*
X84275000Y-79450000D01*
X83375000Y-79450000D01*
X83355866Y-79446194D01*
X83339645Y-79435355D01*
X83328806Y-79419134D01*
X83325000Y-79400000D01*
X83325000Y-77400000D01*
X83328806Y-77380866D01*
X83339645Y-77364645D01*
X83355866Y-77353806D01*
X83375000Y-77350000D01*
X84275000Y-77350000D01*
X84294134Y-77353806D01*
G37*
G36*
X97794134Y-77353806D02*
G01*
X97810355Y-77364645D01*
X97821194Y-77380866D01*
X97825000Y-77400000D01*
X97825000Y-79400000D01*
X97821194Y-79419134D01*
X97810355Y-79435355D01*
X97794134Y-79446194D01*
X97775000Y-79450000D01*
X96875000Y-79450000D01*
X96855866Y-79446194D01*
X96839645Y-79435355D01*
X96828806Y-79419134D01*
X96825000Y-79400000D01*
X96825000Y-77400000D01*
X96828806Y-77380866D01*
X96839645Y-77364645D01*
X96855866Y-77353806D01*
X96875000Y-77350000D01*
X97775000Y-77350000D01*
X97794134Y-77353806D01*
G37*
G36*
X103794134Y-76453806D02*
G01*
X103810355Y-76464645D01*
X103821194Y-76480866D01*
X103825000Y-76500000D01*
X103825000Y-78500000D01*
X103821194Y-78519134D01*
X103810355Y-78535355D01*
X103794134Y-78546194D01*
X103775000Y-78550000D01*
X102875000Y-78550000D01*
X102855866Y-78546194D01*
X102839645Y-78535355D01*
X102828806Y-78519134D01*
X102825000Y-78500000D01*
X102825000Y-76500000D01*
X102828806Y-76480866D01*
X102839645Y-76464645D01*
X102855866Y-76453806D01*
X102875000Y-76450000D01*
X103775000Y-76450000D01*
X103794134Y-76453806D01*
G37*
G36*
X117294134Y-76453806D02*
G01*
X117310355Y-76464645D01*
X117321194Y-76480866D01*
X117325000Y-76500000D01*
X117325000Y-78500000D01*
X117321194Y-78519134D01*
X117310355Y-78535355D01*
X117294134Y-78546194D01*
X117275000Y-78550000D01*
X116375000Y-78550000D01*
X116355866Y-78546194D01*
X116339645Y-78535355D01*
X116328806Y-78519134D01*
X116325000Y-78500000D01*
X116325000Y-76500000D01*
X116328806Y-76480866D01*
X116339645Y-76464645D01*
X116355866Y-76453806D01*
X116375000Y-76450000D01*
X117275000Y-76450000D01*
X117294134Y-76453806D01*
G37*
G36*
X88127623Y-70307603D02*
G01*
X88327323Y-70351045D01*
X88515193Y-70431495D01*
X88684442Y-70546046D01*
X88828954Y-70690558D01*
X88943505Y-70859807D01*
X89023955Y-71047677D01*
X89067397Y-71247377D01*
X89075000Y-71375000D01*
X89075000Y-73425000D01*
X89067397Y-73552623D01*
X89023955Y-73752323D01*
X88943505Y-73940193D01*
X88828954Y-74109442D01*
X88684442Y-74253954D01*
X88515193Y-74368505D01*
X88327323Y-74448955D01*
X88127623Y-74492397D01*
X88000000Y-74500000D01*
X85950000Y-74500000D01*
X85822377Y-74492397D01*
X85622677Y-74448955D01*
X85434807Y-74368505D01*
X85265558Y-74253954D01*
X85121046Y-74109442D01*
X85006495Y-73940193D01*
X84926045Y-73752323D01*
X84882603Y-73552623D01*
X84875000Y-73425000D01*
X84875000Y-71375000D01*
X84882603Y-71247377D01*
X84926045Y-71047677D01*
X85006495Y-70859807D01*
X85121046Y-70690558D01*
X85265558Y-70546046D01*
X85434807Y-70431495D01*
X85622677Y-70351045D01*
X85822377Y-70307603D01*
X85950000Y-70300000D01*
X88000000Y-70300000D01*
X88127623Y-70307603D01*
G37*
G36*
X94602258Y-70343923D02*
G01*
X94878247Y-70421252D01*
X95141137Y-70535441D01*
X95386029Y-70684363D01*
X95608362Y-70865244D01*
X95803994Y-71074715D01*
X95969281Y-71308874D01*
X96101144Y-71563358D01*
X96197126Y-71833427D01*
X96255440Y-72114050D01*
X96275000Y-72400000D01*
X96255440Y-72685950D01*
X96197126Y-72966573D01*
X96101144Y-73236642D01*
X95969281Y-73491126D01*
X95803994Y-73725285D01*
X95608362Y-73934756D01*
X95386029Y-74115637D01*
X95141137Y-74264559D01*
X94878247Y-74378748D01*
X94602258Y-74456077D01*
X94318309Y-74495104D01*
X94031691Y-74495104D01*
X93747742Y-74456077D01*
X93471753Y-74378748D01*
X93208863Y-74264559D01*
X92963971Y-74115637D01*
X92741638Y-73934756D01*
X92546006Y-73725285D01*
X92380719Y-73491126D01*
X92248856Y-73236642D01*
X92152874Y-72966573D01*
X92094560Y-72685950D01*
X92075000Y-72400000D01*
X92094560Y-72114050D01*
X92152874Y-71833427D01*
X92248856Y-71563358D01*
X92380719Y-71308874D01*
X92546006Y-71074715D01*
X92741638Y-70865244D01*
X92963971Y-70684363D01*
X93208863Y-70535441D01*
X93471753Y-70421252D01*
X93747742Y-70343923D01*
X94031691Y-70304896D01*
X94318309Y-70304896D01*
X94602258Y-70343923D01*
G37*
G36*
X114827623Y-69407603D02*
G01*
X115027323Y-69451045D01*
X115215193Y-69531495D01*
X115384442Y-69646046D01*
X115528954Y-69790558D01*
X115643505Y-69959807D01*
X115723955Y-70147677D01*
X115767397Y-70347377D01*
X115775000Y-70475000D01*
X115775000Y-72525000D01*
X115767397Y-72652623D01*
X115723955Y-72852323D01*
X115643505Y-73040193D01*
X115528954Y-73209442D01*
X115384442Y-73353954D01*
X115215193Y-73468505D01*
X115027323Y-73548955D01*
X114827623Y-73592397D01*
X114700000Y-73600000D01*
X112650000Y-73600000D01*
X112522377Y-73592397D01*
X112322677Y-73548955D01*
X112134807Y-73468505D01*
X111965558Y-73353954D01*
X111821046Y-73209442D01*
X111706495Y-73040193D01*
X111626045Y-72852323D01*
X111582603Y-72652623D01*
X111575000Y-72525000D01*
X111575000Y-70475000D01*
X111582603Y-70347377D01*
X111626045Y-70147677D01*
X111706495Y-69959807D01*
X111821046Y-69790558D01*
X111965558Y-69646046D01*
X112134807Y-69531495D01*
X112322677Y-69451045D01*
X112522377Y-69407603D01*
X112650000Y-69400000D01*
X114700000Y-69400000D01*
X114827623Y-69407603D01*
G37*
G36*
X106902258Y-69443923D02*
G01*
X107178247Y-69521252D01*
X107441137Y-69635441D01*
X107686029Y-69784363D01*
X107908362Y-69965244D01*
X108103994Y-70174715D01*
X108269281Y-70408874D01*
X108401144Y-70663358D01*
X108497126Y-70933427D01*
X108555440Y-71214050D01*
X108575000Y-71500000D01*
X108555440Y-71785950D01*
X108497126Y-72066573D01*
X108401144Y-72336642D01*
X108269281Y-72591126D01*
X108103994Y-72825285D01*
X107908362Y-73034756D01*
X107686029Y-73215637D01*
X107441137Y-73364559D01*
X107178247Y-73478748D01*
X106902258Y-73556077D01*
X106618309Y-73595104D01*
X106331691Y-73595104D01*
X106047742Y-73556077D01*
X105771753Y-73478748D01*
X105508863Y-73364559D01*
X105263971Y-73215637D01*
X105041638Y-73034756D01*
X104846006Y-72825285D01*
X104680719Y-72591126D01*
X104548856Y-72336642D01*
X104452874Y-72066573D01*
X104394560Y-71785950D01*
X104375000Y-71500000D01*
X104394560Y-71214050D01*
X104452874Y-70933427D01*
X104548856Y-70663358D01*
X104680719Y-70408874D01*
X104846006Y-70174715D01*
X105041638Y-69965244D01*
X105263971Y-69784363D01*
X105508863Y-69635441D01*
X105771753Y-69521252D01*
X106047742Y-69443923D01*
X106331691Y-69404896D01*
X106618309Y-69404896D01*
X106902258Y-69443923D01*
G37*
G36*
X89469134Y-66378806D02*
G01*
X89485355Y-66389645D01*
X89496194Y-66405866D01*
X89500000Y-66425000D01*
X89500000Y-68125000D01*
X89496194Y-68144134D01*
X89485355Y-68160355D01*
X89469134Y-68171194D01*
X89450000Y-68175000D01*
X87750000Y-68175000D01*
X87730866Y-68171194D01*
X87714645Y-68160355D01*
X87703806Y-68144134D01*
X87700000Y-68125000D01*
X87700000Y-66425000D01*
X87703806Y-66405866D01*
X87714645Y-66389645D01*
X87730866Y-66378806D01*
X87750000Y-66375000D01*
X89450000Y-66375000D01*
X89469134Y-66378806D01*
G37*
G36*
X86107607Y-66379930D02*
G01*
X86154076Y-66379930D01*
X86194202Y-66388459D01*
X86235533Y-66392530D01*
X86287460Y-66408282D01*
X86338115Y-66419049D01*
X86370527Y-66433479D01*
X86404321Y-66443731D01*
X86458023Y-66472435D01*
X86510000Y-66495577D01*
X86534165Y-66513134D01*
X86559878Y-66526878D01*
X86612333Y-66569927D01*
X86662218Y-66606170D01*
X86678412Y-66624155D01*
X86696225Y-66638774D01*
X86744089Y-66697097D01*
X86788115Y-66745993D01*
X86797365Y-66762015D01*
X86808121Y-66775121D01*
X86847908Y-66849557D01*
X86882191Y-66908937D01*
X86886134Y-66921074D01*
X86891268Y-66930678D01*
X86919568Y-67023971D01*
X86940333Y-67087879D01*
X86941064Y-67094834D01*
X86942469Y-67099466D01*
X86956151Y-67238385D01*
X86960000Y-67275000D01*
X86956151Y-67311617D01*
X86942469Y-67450533D01*
X86941064Y-67455164D01*
X86940333Y-67462121D01*
X86919563Y-67526042D01*
X86891268Y-67619321D01*
X86886135Y-67628923D01*
X86882191Y-67641063D01*
X86847901Y-67700454D01*
X86808121Y-67774878D01*
X86797367Y-67787981D01*
X86788115Y-67804007D01*
X86744080Y-67852912D01*
X86696225Y-67911225D01*
X86678415Y-67925840D01*
X86662218Y-67943830D01*
X86612323Y-67980080D01*
X86559878Y-68023121D01*
X86534171Y-68036861D01*
X86510000Y-68054423D01*
X86458012Y-68077569D01*
X86404321Y-68106268D01*
X86370534Y-68116517D01*
X86338115Y-68130951D01*
X86287449Y-68141720D01*
X86235533Y-68157469D01*
X86194210Y-68161538D01*
X86154076Y-68170070D01*
X86107597Y-68170070D01*
X86060000Y-68174758D01*
X86012403Y-68170070D01*
X85965924Y-68170070D01*
X85925789Y-68161539D01*
X85884466Y-68157469D01*
X85832546Y-68141719D01*
X85781885Y-68130951D01*
X85749467Y-68116517D01*
X85715678Y-68106268D01*
X85661981Y-68077566D01*
X85610000Y-68054423D01*
X85585831Y-68036863D01*
X85560121Y-68023121D01*
X85507667Y-67980074D01*
X85457782Y-67943830D01*
X85441587Y-67925843D01*
X85423774Y-67911225D01*
X85375908Y-67852899D01*
X85331885Y-67804007D01*
X85322634Y-67787985D01*
X85311878Y-67774878D01*
X85272085Y-67700431D01*
X85237809Y-67641063D01*
X85233866Y-67628928D01*
X85228731Y-67619321D01*
X85200421Y-67525996D01*
X85179667Y-67462121D01*
X85178936Y-67455169D01*
X85177530Y-67450533D01*
X85163832Y-67311466D01*
X85160000Y-67275000D01*
X85163832Y-67238536D01*
X85177530Y-67099466D01*
X85178936Y-67094829D01*
X85179667Y-67087879D01*
X85200416Y-67024017D01*
X85228731Y-66930678D01*
X85233866Y-66921069D01*
X85237809Y-66908937D01*
X85272078Y-66849581D01*
X85311878Y-66775121D01*
X85322636Y-66762011D01*
X85331885Y-66745993D01*
X85375898Y-66697110D01*
X85423774Y-66638774D01*
X85441590Y-66624152D01*
X85457782Y-66606170D01*
X85507657Y-66569933D01*
X85560121Y-66526878D01*
X85585836Y-66513132D01*
X85610000Y-66495577D01*
X85661970Y-66472438D01*
X85715678Y-66443731D01*
X85749474Y-66433478D01*
X85781885Y-66419049D01*
X85832535Y-66408282D01*
X85884466Y-66392530D01*
X85925798Y-66388459D01*
X85965924Y-66379930D01*
X86012393Y-66379930D01*
X86060000Y-66375241D01*
X86107607Y-66379930D01*
G37*
G36*
X115153735Y-61139870D02*
G01*
X115497411Y-61215519D01*
X115830893Y-61327882D01*
X116150271Y-61475642D01*
X116451802Y-61657067D01*
X116731949Y-61870029D01*
X116987429Y-62112033D01*
X117215246Y-62380240D01*
X117412730Y-62671506D01*
X117577564Y-62982416D01*
X117707817Y-63309326D01*
X117801961Y-63648402D01*
X117858892Y-63995669D01*
X117877944Y-64347056D01*
X117858892Y-64698443D01*
X117801961Y-65045710D01*
X117707817Y-65384786D01*
X117577564Y-65711696D01*
X117412730Y-66022606D01*
X117215246Y-66313872D01*
X116987429Y-66582079D01*
X116731949Y-66824083D01*
X116451802Y-67037045D01*
X116150271Y-67218470D01*
X115830893Y-67366230D01*
X115497411Y-67478593D01*
X115153735Y-67554242D01*
X114803895Y-67592290D01*
X114451993Y-67592290D01*
X114102153Y-67554242D01*
X113758477Y-67478593D01*
X113424995Y-67366230D01*
X113105617Y-67218470D01*
X112804086Y-67037045D01*
X112523939Y-66824083D01*
X112268459Y-66582079D01*
X112040642Y-66313872D01*
X111843158Y-66022606D01*
X111678324Y-65711696D01*
X111548071Y-65384786D01*
X111453927Y-65045710D01*
X111396996Y-64698443D01*
X111377944Y-64347056D01*
X111396996Y-63995669D01*
X111453927Y-63648402D01*
X111548071Y-63309326D01*
X111678324Y-62982416D01*
X111843158Y-62671506D01*
X112040642Y-62380240D01*
X112268459Y-62112033D01*
X112523939Y-61870029D01*
X112804086Y-61657067D01*
X113105617Y-61475642D01*
X113424995Y-61327882D01*
X113758477Y-61215519D01*
X114102153Y-61139870D01*
X114451993Y-61101822D01*
X114803895Y-61101822D01*
X115153735Y-61139870D01*
G37*
G36*
X86107607Y-63839930D02*
G01*
X86154076Y-63839930D01*
X86194202Y-63848459D01*
X86235533Y-63852530D01*
X86287460Y-63868282D01*
X86338115Y-63879049D01*
X86370527Y-63893479D01*
X86404321Y-63903731D01*
X86458023Y-63932435D01*
X86510000Y-63955577D01*
X86534165Y-63973134D01*
X86559878Y-63986878D01*
X86612333Y-64029927D01*
X86662218Y-64066170D01*
X86678412Y-64084155D01*
X86696225Y-64098774D01*
X86744089Y-64157097D01*
X86788115Y-64205993D01*
X86797365Y-64222015D01*
X86808121Y-64235121D01*
X86847908Y-64309557D01*
X86882191Y-64368937D01*
X86886134Y-64381074D01*
X86891268Y-64390678D01*
X86919568Y-64483971D01*
X86940333Y-64547879D01*
X86941064Y-64554834D01*
X86942469Y-64559466D01*
X86956151Y-64698385D01*
X86960000Y-64735000D01*
X86956151Y-64771617D01*
X86942469Y-64910533D01*
X86941064Y-64915164D01*
X86940333Y-64922121D01*
X86919563Y-64986042D01*
X86891268Y-65079321D01*
X86886135Y-65088923D01*
X86882191Y-65101063D01*
X86847901Y-65160454D01*
X86808121Y-65234878D01*
X86797367Y-65247981D01*
X86788115Y-65264007D01*
X86744080Y-65312912D01*
X86696225Y-65371225D01*
X86678415Y-65385840D01*
X86662218Y-65403830D01*
X86612323Y-65440080D01*
X86559878Y-65483121D01*
X86534171Y-65496861D01*
X86510000Y-65514423D01*
X86458012Y-65537569D01*
X86404321Y-65566268D01*
X86370534Y-65576517D01*
X86338115Y-65590951D01*
X86287449Y-65601720D01*
X86235533Y-65617469D01*
X86194210Y-65621538D01*
X86154076Y-65630070D01*
X86107597Y-65630070D01*
X86060000Y-65634758D01*
X86012403Y-65630070D01*
X85965924Y-65630070D01*
X85925789Y-65621539D01*
X85884466Y-65617469D01*
X85832546Y-65601719D01*
X85781885Y-65590951D01*
X85749467Y-65576517D01*
X85715678Y-65566268D01*
X85661981Y-65537566D01*
X85610000Y-65514423D01*
X85585831Y-65496863D01*
X85560121Y-65483121D01*
X85507667Y-65440074D01*
X85457782Y-65403830D01*
X85441587Y-65385843D01*
X85423774Y-65371225D01*
X85375908Y-65312899D01*
X85331885Y-65264007D01*
X85322634Y-65247985D01*
X85311878Y-65234878D01*
X85272085Y-65160431D01*
X85237809Y-65101063D01*
X85233866Y-65088928D01*
X85228731Y-65079321D01*
X85200421Y-64985996D01*
X85179667Y-64922121D01*
X85178936Y-64915169D01*
X85177530Y-64910533D01*
X85163832Y-64771466D01*
X85160000Y-64735000D01*
X85163842Y-64698441D01*
X85177530Y-64559466D01*
X85178936Y-64554829D01*
X85179667Y-64547879D01*
X85200416Y-64484017D01*
X85228731Y-64390678D01*
X85233866Y-64381069D01*
X85237809Y-64368937D01*
X85272078Y-64309581D01*
X85311878Y-64235121D01*
X85322636Y-64222011D01*
X85331885Y-64205993D01*
X85375898Y-64157110D01*
X85423774Y-64098774D01*
X85441590Y-64084152D01*
X85457782Y-64066170D01*
X85507657Y-64029933D01*
X85560121Y-63986878D01*
X85585836Y-63973132D01*
X85610000Y-63955577D01*
X85661970Y-63932438D01*
X85715678Y-63903731D01*
X85749474Y-63893478D01*
X85781885Y-63879049D01*
X85832535Y-63868282D01*
X85884466Y-63852530D01*
X85925798Y-63848459D01*
X85965924Y-63839930D01*
X86012393Y-63839930D01*
X86060000Y-63835241D01*
X86107607Y-63839930D01*
G37*
G36*
X88647607Y-63839930D02*
G01*
X88694076Y-63839930D01*
X88734202Y-63848459D01*
X88775533Y-63852530D01*
X88827460Y-63868282D01*
X88878115Y-63879049D01*
X88910527Y-63893479D01*
X88944321Y-63903731D01*
X88998023Y-63932435D01*
X89050000Y-63955577D01*
X89074165Y-63973134D01*
X89099878Y-63986878D01*
X89152333Y-64029927D01*
X89202218Y-64066170D01*
X89218412Y-64084155D01*
X89236225Y-64098774D01*
X89284089Y-64157097D01*
X89328115Y-64205993D01*
X89337365Y-64222015D01*
X89348121Y-64235121D01*
X89387908Y-64309557D01*
X89422191Y-64368937D01*
X89426134Y-64381074D01*
X89431268Y-64390678D01*
X89459568Y-64483971D01*
X89480333Y-64547879D01*
X89481064Y-64554834D01*
X89482469Y-64559466D01*
X89496151Y-64698385D01*
X89500000Y-64735000D01*
X89496151Y-64771617D01*
X89482469Y-64910533D01*
X89481064Y-64915164D01*
X89480333Y-64922121D01*
X89459563Y-64986042D01*
X89431268Y-65079321D01*
X89426135Y-65088923D01*
X89422191Y-65101063D01*
X89387901Y-65160454D01*
X89348121Y-65234878D01*
X89337367Y-65247981D01*
X89328115Y-65264007D01*
X89284080Y-65312912D01*
X89236225Y-65371225D01*
X89218415Y-65385840D01*
X89202218Y-65403830D01*
X89152323Y-65440080D01*
X89099878Y-65483121D01*
X89074171Y-65496861D01*
X89050000Y-65514423D01*
X88998012Y-65537569D01*
X88944321Y-65566268D01*
X88910534Y-65576517D01*
X88878115Y-65590951D01*
X88827449Y-65601720D01*
X88775533Y-65617469D01*
X88734210Y-65621538D01*
X88694076Y-65630070D01*
X88647597Y-65630070D01*
X88600000Y-65634758D01*
X88552403Y-65630070D01*
X88505924Y-65630070D01*
X88465789Y-65621539D01*
X88424466Y-65617469D01*
X88372546Y-65601719D01*
X88321885Y-65590951D01*
X88289467Y-65576517D01*
X88255678Y-65566268D01*
X88201981Y-65537566D01*
X88150000Y-65514423D01*
X88125831Y-65496863D01*
X88100121Y-65483121D01*
X88047667Y-65440074D01*
X87997782Y-65403830D01*
X87981587Y-65385843D01*
X87963774Y-65371225D01*
X87915908Y-65312899D01*
X87871885Y-65264007D01*
X87862634Y-65247985D01*
X87851878Y-65234878D01*
X87812085Y-65160431D01*
X87777809Y-65101063D01*
X87773866Y-65088928D01*
X87768731Y-65079321D01*
X87740421Y-64985996D01*
X87719667Y-64922121D01*
X87718936Y-64915169D01*
X87717530Y-64910533D01*
X87703832Y-64771466D01*
X87700000Y-64735000D01*
X87703842Y-64698441D01*
X87717530Y-64559466D01*
X87718936Y-64554829D01*
X87719667Y-64547879D01*
X87740416Y-64484017D01*
X87768731Y-64390678D01*
X87773866Y-64381069D01*
X87777809Y-64368937D01*
X87812078Y-64309581D01*
X87851878Y-64235121D01*
X87862636Y-64222011D01*
X87871885Y-64205993D01*
X87915898Y-64157110D01*
X87963774Y-64098774D01*
X87981590Y-64084152D01*
X87997782Y-64066170D01*
X88047657Y-64029933D01*
X88100121Y-63986878D01*
X88125836Y-63973132D01*
X88150000Y-63955577D01*
X88201970Y-63932438D01*
X88255678Y-63903731D01*
X88289474Y-63893478D01*
X88321885Y-63879049D01*
X88372535Y-63868282D01*
X88424466Y-63852530D01*
X88465798Y-63848459D01*
X88505924Y-63839930D01*
X88552393Y-63839930D01*
X88600000Y-63835241D01*
X88647607Y-63839930D01*
G37*
G36*
X104122607Y-56029930D02*
G01*
X104169076Y-56029930D01*
X104209202Y-56038459D01*
X104250533Y-56042530D01*
X104302460Y-56058282D01*
X104353115Y-56069049D01*
X104385527Y-56083479D01*
X104419321Y-56093731D01*
X104473023Y-56122435D01*
X104525000Y-56145577D01*
X104549165Y-56163134D01*
X104574878Y-56176878D01*
X104627333Y-56219927D01*
X104677218Y-56256170D01*
X104693412Y-56274155D01*
X104711225Y-56288774D01*
X104759089Y-56347097D01*
X104803115Y-56395993D01*
X104812365Y-56412015D01*
X104823121Y-56425121D01*
X104862908Y-56499557D01*
X104897191Y-56558937D01*
X104901134Y-56571074D01*
X104906268Y-56580678D01*
X104934568Y-56673971D01*
X104955333Y-56737879D01*
X104956064Y-56744834D01*
X104957469Y-56749466D01*
X104971151Y-56888385D01*
X104975000Y-56925000D01*
X104971151Y-56961617D01*
X104957469Y-57100533D01*
X104956064Y-57105164D01*
X104955333Y-57112121D01*
X104934563Y-57176042D01*
X104906268Y-57269321D01*
X104901135Y-57278923D01*
X104897191Y-57291063D01*
X104862901Y-57350454D01*
X104823121Y-57424878D01*
X104812367Y-57437981D01*
X104803115Y-57454007D01*
X104759080Y-57502912D01*
X104711225Y-57561225D01*
X104693415Y-57575840D01*
X104677218Y-57593830D01*
X104627323Y-57630080D01*
X104574878Y-57673121D01*
X104549171Y-57686861D01*
X104525000Y-57704423D01*
X104473012Y-57727569D01*
X104419321Y-57756268D01*
X104385534Y-57766517D01*
X104353115Y-57780951D01*
X104302449Y-57791720D01*
X104250533Y-57807469D01*
X104209210Y-57811538D01*
X104169076Y-57820070D01*
X104122597Y-57820070D01*
X104075000Y-57824758D01*
X104027403Y-57820070D01*
X103980924Y-57820070D01*
X103940789Y-57811539D01*
X103899466Y-57807469D01*
X103847546Y-57791719D01*
X103796885Y-57780951D01*
X103764467Y-57766517D01*
X103730678Y-57756268D01*
X103676981Y-57727566D01*
X103625000Y-57704423D01*
X103600831Y-57686863D01*
X103575121Y-57673121D01*
X103522667Y-57630074D01*
X103472782Y-57593830D01*
X103456587Y-57575843D01*
X103438774Y-57561225D01*
X103390908Y-57502899D01*
X103346885Y-57454007D01*
X103337634Y-57437985D01*
X103326878Y-57424878D01*
X103287085Y-57350431D01*
X103252809Y-57291063D01*
X103248866Y-57278928D01*
X103243731Y-57269321D01*
X103215421Y-57175996D01*
X103194667Y-57112121D01*
X103193936Y-57105169D01*
X103192530Y-57100533D01*
X103178832Y-56961466D01*
X103175000Y-56925000D01*
X103178832Y-56888536D01*
X103192530Y-56749466D01*
X103193936Y-56744829D01*
X103194667Y-56737879D01*
X103215416Y-56674017D01*
X103243731Y-56580678D01*
X103248866Y-56571069D01*
X103252809Y-56558937D01*
X103287078Y-56499581D01*
X103326878Y-56425121D01*
X103337636Y-56412011D01*
X103346885Y-56395993D01*
X103390898Y-56347110D01*
X103438774Y-56288774D01*
X103456590Y-56274152D01*
X103472782Y-56256170D01*
X103522657Y-56219933D01*
X103575121Y-56176878D01*
X103600836Y-56163132D01*
X103625000Y-56145577D01*
X103676970Y-56122438D01*
X103730678Y-56093731D01*
X103764474Y-56083478D01*
X103796885Y-56069049D01*
X103847535Y-56058282D01*
X103899466Y-56042530D01*
X103940798Y-56038459D01*
X103980924Y-56029930D01*
X104027393Y-56029930D01*
X104075000Y-56025241D01*
X104122607Y-56029930D01*
G37*
G36*
X107872607Y-56004930D02*
G01*
X107919076Y-56004930D01*
X107959202Y-56013459D01*
X108000533Y-56017530D01*
X108052460Y-56033282D01*
X108103115Y-56044049D01*
X108135527Y-56058479D01*
X108169321Y-56068731D01*
X108223023Y-56097435D01*
X108275000Y-56120577D01*
X108299165Y-56138134D01*
X108324878Y-56151878D01*
X108377333Y-56194927D01*
X108427218Y-56231170D01*
X108443412Y-56249155D01*
X108461225Y-56263774D01*
X108509089Y-56322097D01*
X108553115Y-56370993D01*
X108562365Y-56387015D01*
X108573121Y-56400121D01*
X108612908Y-56474557D01*
X108647191Y-56533937D01*
X108651134Y-56546074D01*
X108656268Y-56555678D01*
X108684568Y-56648971D01*
X108705333Y-56712879D01*
X108706064Y-56719834D01*
X108707469Y-56724466D01*
X108721151Y-56863385D01*
X108725000Y-56900000D01*
X108721151Y-56936617D01*
X108707469Y-57075533D01*
X108706064Y-57080164D01*
X108705333Y-57087121D01*
X108684563Y-57151042D01*
X108656268Y-57244321D01*
X108651135Y-57253923D01*
X108647191Y-57266063D01*
X108612901Y-57325454D01*
X108573121Y-57399878D01*
X108562367Y-57412981D01*
X108553115Y-57429007D01*
X108509080Y-57477912D01*
X108461225Y-57536225D01*
X108443415Y-57550840D01*
X108427218Y-57568830D01*
X108377323Y-57605080D01*
X108324878Y-57648121D01*
X108299171Y-57661861D01*
X108275000Y-57679423D01*
X108223012Y-57702569D01*
X108169321Y-57731268D01*
X108135534Y-57741517D01*
X108103115Y-57755951D01*
X108052449Y-57766720D01*
X108000533Y-57782469D01*
X107959210Y-57786538D01*
X107919076Y-57795070D01*
X107872597Y-57795070D01*
X107825000Y-57799758D01*
X107777403Y-57795070D01*
X107730924Y-57795070D01*
X107690789Y-57786539D01*
X107649466Y-57782469D01*
X107597546Y-57766719D01*
X107546885Y-57755951D01*
X107514467Y-57741517D01*
X107480678Y-57731268D01*
X107426981Y-57702566D01*
X107375000Y-57679423D01*
X107350831Y-57661863D01*
X107325121Y-57648121D01*
X107272667Y-57605074D01*
X107222782Y-57568830D01*
X107206587Y-57550843D01*
X107188774Y-57536225D01*
X107140908Y-57477899D01*
X107096885Y-57429007D01*
X107087634Y-57412985D01*
X107076878Y-57399878D01*
X107037085Y-57325431D01*
X107002809Y-57266063D01*
X106998866Y-57253928D01*
X106993731Y-57244321D01*
X106965421Y-57150996D01*
X106944667Y-57087121D01*
X106943936Y-57080169D01*
X106942530Y-57075533D01*
X106928832Y-56936466D01*
X106925000Y-56900000D01*
X106928832Y-56863536D01*
X106942530Y-56724466D01*
X106943936Y-56719829D01*
X106944667Y-56712879D01*
X106965416Y-56649017D01*
X106993731Y-56555678D01*
X106998866Y-56546069D01*
X107002809Y-56533937D01*
X107037078Y-56474581D01*
X107076878Y-56400121D01*
X107087636Y-56387011D01*
X107096885Y-56370993D01*
X107140898Y-56322110D01*
X107188774Y-56263774D01*
X107206590Y-56249152D01*
X107222782Y-56231170D01*
X107272657Y-56194933D01*
X107325121Y-56151878D01*
X107350836Y-56138132D01*
X107375000Y-56120577D01*
X107426970Y-56097438D01*
X107480678Y-56068731D01*
X107514474Y-56058478D01*
X107546885Y-56044049D01*
X107597535Y-56033282D01*
X107649466Y-56017530D01*
X107690798Y-56013459D01*
X107730924Y-56004930D01*
X107777393Y-56004930D01*
X107825000Y-56000241D01*
X107872607Y-56004930D01*
G37*
G36*
X84122607Y-55959930D02*
G01*
X84169076Y-55959930D01*
X84209202Y-55968459D01*
X84250533Y-55972530D01*
X84302460Y-55988282D01*
X84353115Y-55999049D01*
X84385527Y-56013479D01*
X84419321Y-56023731D01*
X84473023Y-56052435D01*
X84525000Y-56075577D01*
X84549165Y-56093134D01*
X84574878Y-56106878D01*
X84627333Y-56149927D01*
X84677218Y-56186170D01*
X84693412Y-56204155D01*
X84711225Y-56218774D01*
X84759089Y-56277097D01*
X84803115Y-56325993D01*
X84812365Y-56342015D01*
X84823121Y-56355121D01*
X84862908Y-56429557D01*
X84897191Y-56488937D01*
X84901134Y-56501074D01*
X84906268Y-56510678D01*
X84934568Y-56603971D01*
X84955333Y-56667879D01*
X84956064Y-56674834D01*
X84957469Y-56679466D01*
X84971151Y-56818385D01*
X84975000Y-56855000D01*
X84971151Y-56891617D01*
X84957469Y-57030533D01*
X84956064Y-57035164D01*
X84955333Y-57042121D01*
X84934563Y-57106042D01*
X84906268Y-57199321D01*
X84901135Y-57208923D01*
X84897191Y-57221063D01*
X84862901Y-57280454D01*
X84823121Y-57354878D01*
X84812367Y-57367981D01*
X84803115Y-57384007D01*
X84759080Y-57432912D01*
X84711225Y-57491225D01*
X84693415Y-57505840D01*
X84677218Y-57523830D01*
X84627323Y-57560080D01*
X84574878Y-57603121D01*
X84549171Y-57616861D01*
X84525000Y-57634423D01*
X84473012Y-57657569D01*
X84419321Y-57686268D01*
X84385534Y-57696517D01*
X84353115Y-57710951D01*
X84302449Y-57721720D01*
X84250533Y-57737469D01*
X84209210Y-57741538D01*
X84169076Y-57750070D01*
X84122597Y-57750070D01*
X84075000Y-57754758D01*
X84027403Y-57750070D01*
X83980924Y-57750070D01*
X83940789Y-57741539D01*
X83899466Y-57737469D01*
X83847546Y-57721719D01*
X83796885Y-57710951D01*
X83764467Y-57696517D01*
X83730678Y-57686268D01*
X83676981Y-57657566D01*
X83625000Y-57634423D01*
X83600831Y-57616863D01*
X83575121Y-57603121D01*
X83522667Y-57560074D01*
X83472782Y-57523830D01*
X83456587Y-57505843D01*
X83438774Y-57491225D01*
X83390908Y-57432899D01*
X83346885Y-57384007D01*
X83337634Y-57367985D01*
X83326878Y-57354878D01*
X83287085Y-57280431D01*
X83252809Y-57221063D01*
X83248866Y-57208928D01*
X83243731Y-57199321D01*
X83215421Y-57105996D01*
X83194667Y-57042121D01*
X83193936Y-57035169D01*
X83192530Y-57030533D01*
X83178832Y-56891466D01*
X83175000Y-56855000D01*
X83178832Y-56818536D01*
X83192530Y-56679466D01*
X83193936Y-56674829D01*
X83194667Y-56667879D01*
X83215416Y-56604017D01*
X83243731Y-56510678D01*
X83248866Y-56501069D01*
X83252809Y-56488937D01*
X83287078Y-56429581D01*
X83326878Y-56355121D01*
X83337636Y-56342011D01*
X83346885Y-56325993D01*
X83390898Y-56277110D01*
X83438774Y-56218774D01*
X83456590Y-56204152D01*
X83472782Y-56186170D01*
X83522657Y-56149933D01*
X83575121Y-56106878D01*
X83600836Y-56093132D01*
X83625000Y-56075577D01*
X83676970Y-56052438D01*
X83730678Y-56023731D01*
X83764474Y-56013478D01*
X83796885Y-55999049D01*
X83847535Y-55988282D01*
X83899466Y-55972530D01*
X83940798Y-55968459D01*
X83980924Y-55959930D01*
X84027393Y-55959930D01*
X84075000Y-55955241D01*
X84122607Y-55959930D01*
G37*
G36*
X86662607Y-55959930D02*
G01*
X86709076Y-55959930D01*
X86749202Y-55968459D01*
X86790533Y-55972530D01*
X86842460Y-55988282D01*
X86893115Y-55999049D01*
X86925527Y-56013479D01*
X86959321Y-56023731D01*
X87013023Y-56052435D01*
X87065000Y-56075577D01*
X87089165Y-56093134D01*
X87114878Y-56106878D01*
X87167333Y-56149927D01*
X87217218Y-56186170D01*
X87233412Y-56204155D01*
X87251225Y-56218774D01*
X87299089Y-56277097D01*
X87343115Y-56325993D01*
X87352365Y-56342015D01*
X87363121Y-56355121D01*
X87402908Y-56429557D01*
X87437191Y-56488937D01*
X87441134Y-56501074D01*
X87446268Y-56510678D01*
X87474568Y-56603971D01*
X87495333Y-56667879D01*
X87496064Y-56674834D01*
X87497469Y-56679466D01*
X87511151Y-56818385D01*
X87515000Y-56855000D01*
X87511151Y-56891617D01*
X87497469Y-57030533D01*
X87496064Y-57035164D01*
X87495333Y-57042121D01*
X87474563Y-57106042D01*
X87446268Y-57199321D01*
X87441135Y-57208923D01*
X87437191Y-57221063D01*
X87402901Y-57280454D01*
X87363121Y-57354878D01*
X87352367Y-57367981D01*
X87343115Y-57384007D01*
X87299080Y-57432912D01*
X87251225Y-57491225D01*
X87233415Y-57505840D01*
X87217218Y-57523830D01*
X87167323Y-57560080D01*
X87114878Y-57603121D01*
X87089171Y-57616861D01*
X87065000Y-57634423D01*
X87013012Y-57657569D01*
X86959321Y-57686268D01*
X86925534Y-57696517D01*
X86893115Y-57710951D01*
X86842449Y-57721720D01*
X86790533Y-57737469D01*
X86749210Y-57741538D01*
X86709076Y-57750070D01*
X86662597Y-57750070D01*
X86615000Y-57754758D01*
X86567403Y-57750070D01*
X86520924Y-57750070D01*
X86480789Y-57741539D01*
X86439466Y-57737469D01*
X86387546Y-57721719D01*
X86336885Y-57710951D01*
X86304467Y-57696517D01*
X86270678Y-57686268D01*
X86216981Y-57657566D01*
X86165000Y-57634423D01*
X86140831Y-57616863D01*
X86115121Y-57603121D01*
X86062667Y-57560074D01*
X86012782Y-57523830D01*
X85996587Y-57505843D01*
X85978774Y-57491225D01*
X85930908Y-57432899D01*
X85886885Y-57384007D01*
X85877634Y-57367985D01*
X85866878Y-57354878D01*
X85827085Y-57280431D01*
X85792809Y-57221063D01*
X85788866Y-57208928D01*
X85783731Y-57199321D01*
X85755421Y-57105996D01*
X85734667Y-57042121D01*
X85733936Y-57035169D01*
X85732530Y-57030533D01*
X85718832Y-56891466D01*
X85715000Y-56855000D01*
X85718832Y-56818536D01*
X85732530Y-56679466D01*
X85733936Y-56674829D01*
X85734667Y-56667879D01*
X85755416Y-56604017D01*
X85783731Y-56510678D01*
X85788866Y-56501069D01*
X85792809Y-56488937D01*
X85827078Y-56429581D01*
X85866878Y-56355121D01*
X85877636Y-56342011D01*
X85886885Y-56325993D01*
X85930898Y-56277110D01*
X85978774Y-56218774D01*
X85996590Y-56204152D01*
X86012782Y-56186170D01*
X86062657Y-56149933D01*
X86115121Y-56106878D01*
X86140836Y-56093132D01*
X86165000Y-56075577D01*
X86216970Y-56052438D01*
X86270678Y-56023731D01*
X86304474Y-56013478D01*
X86336885Y-55999049D01*
X86387535Y-55988282D01*
X86439466Y-55972530D01*
X86480798Y-55968459D01*
X86520924Y-55959930D01*
X86567393Y-55959930D01*
X86615000Y-55955241D01*
X86662607Y-55959930D01*
G37*
G36*
X90332607Y-55959930D02*
G01*
X90379076Y-55959930D01*
X90419202Y-55968459D01*
X90460533Y-55972530D01*
X90512460Y-55988282D01*
X90563115Y-55999049D01*
X90595527Y-56013479D01*
X90629321Y-56023731D01*
X90683023Y-56052435D01*
X90735000Y-56075577D01*
X90759165Y-56093134D01*
X90784878Y-56106878D01*
X90837333Y-56149927D01*
X90887218Y-56186170D01*
X90903412Y-56204155D01*
X90921225Y-56218774D01*
X90969089Y-56277097D01*
X91013115Y-56325993D01*
X91022365Y-56342015D01*
X91033121Y-56355121D01*
X91072908Y-56429557D01*
X91107191Y-56488937D01*
X91111134Y-56501074D01*
X91116268Y-56510678D01*
X91144568Y-56603971D01*
X91165333Y-56667879D01*
X91166064Y-56674834D01*
X91167469Y-56679466D01*
X91181151Y-56818385D01*
X91185000Y-56855000D01*
X91181151Y-56891617D01*
X91167469Y-57030533D01*
X91166064Y-57035164D01*
X91165333Y-57042121D01*
X91144563Y-57106042D01*
X91116268Y-57199321D01*
X91111135Y-57208923D01*
X91107191Y-57221063D01*
X91072901Y-57280454D01*
X91033121Y-57354878D01*
X91022367Y-57367981D01*
X91013115Y-57384007D01*
X90969080Y-57432912D01*
X90921225Y-57491225D01*
X90903415Y-57505840D01*
X90887218Y-57523830D01*
X90837323Y-57560080D01*
X90784878Y-57603121D01*
X90759171Y-57616861D01*
X90735000Y-57634423D01*
X90683012Y-57657569D01*
X90629321Y-57686268D01*
X90595534Y-57696517D01*
X90563115Y-57710951D01*
X90512449Y-57721720D01*
X90460533Y-57737469D01*
X90419210Y-57741538D01*
X90379076Y-57750070D01*
X90332597Y-57750070D01*
X90285000Y-57754758D01*
X90237403Y-57750070D01*
X90190924Y-57750070D01*
X90150789Y-57741539D01*
X90109466Y-57737469D01*
X90057546Y-57721719D01*
X90006885Y-57710951D01*
X89974467Y-57696517D01*
X89940678Y-57686268D01*
X89886981Y-57657566D01*
X89835000Y-57634423D01*
X89810831Y-57616863D01*
X89785121Y-57603121D01*
X89732667Y-57560074D01*
X89682782Y-57523830D01*
X89666587Y-57505843D01*
X89648774Y-57491225D01*
X89600908Y-57432899D01*
X89556885Y-57384007D01*
X89547634Y-57367985D01*
X89536878Y-57354878D01*
X89497085Y-57280431D01*
X89462809Y-57221063D01*
X89458866Y-57208928D01*
X89453731Y-57199321D01*
X89425421Y-57105996D01*
X89404667Y-57042121D01*
X89403936Y-57035169D01*
X89402530Y-57030533D01*
X89388832Y-56891466D01*
X89385000Y-56855000D01*
X89388832Y-56818536D01*
X89402530Y-56679466D01*
X89403936Y-56674829D01*
X89404667Y-56667879D01*
X89425416Y-56604017D01*
X89453731Y-56510678D01*
X89458866Y-56501069D01*
X89462809Y-56488937D01*
X89497078Y-56429581D01*
X89536878Y-56355121D01*
X89547636Y-56342011D01*
X89556885Y-56325993D01*
X89600898Y-56277110D01*
X89648774Y-56218774D01*
X89666590Y-56204152D01*
X89682782Y-56186170D01*
X89732657Y-56149933D01*
X89785121Y-56106878D01*
X89810836Y-56093132D01*
X89835000Y-56075577D01*
X89886970Y-56052438D01*
X89940678Y-56023731D01*
X89974474Y-56013478D01*
X90006885Y-55999049D01*
X90057535Y-55988282D01*
X90109466Y-55972530D01*
X90150798Y-55968459D01*
X90190924Y-55959930D01*
X90237393Y-55959930D01*
X90285000Y-55955241D01*
X90332607Y-55959930D01*
G37*
G36*
X92872607Y-55959930D02*
G01*
X92919076Y-55959930D01*
X92959202Y-55968459D01*
X93000533Y-55972530D01*
X93052460Y-55988282D01*
X93103115Y-55999049D01*
X93135527Y-56013479D01*
X93169321Y-56023731D01*
X93223023Y-56052435D01*
X93275000Y-56075577D01*
X93299165Y-56093134D01*
X93324878Y-56106878D01*
X93377333Y-56149927D01*
X93427218Y-56186170D01*
X93443412Y-56204155D01*
X93461225Y-56218774D01*
X93509089Y-56277097D01*
X93553115Y-56325993D01*
X93562365Y-56342015D01*
X93573121Y-56355121D01*
X93612908Y-56429557D01*
X93647191Y-56488937D01*
X93651134Y-56501074D01*
X93656268Y-56510678D01*
X93684568Y-56603971D01*
X93705333Y-56667879D01*
X93706064Y-56674834D01*
X93707469Y-56679466D01*
X93721151Y-56818385D01*
X93725000Y-56855000D01*
X93721151Y-56891617D01*
X93707469Y-57030533D01*
X93706064Y-57035164D01*
X93705333Y-57042121D01*
X93684563Y-57106042D01*
X93656268Y-57199321D01*
X93651135Y-57208923D01*
X93647191Y-57221063D01*
X93612901Y-57280454D01*
X93573121Y-57354878D01*
X93562367Y-57367981D01*
X93553115Y-57384007D01*
X93509080Y-57432912D01*
X93461225Y-57491225D01*
X93443415Y-57505840D01*
X93427218Y-57523830D01*
X93377323Y-57560080D01*
X93324878Y-57603121D01*
X93299171Y-57616861D01*
X93275000Y-57634423D01*
X93223012Y-57657569D01*
X93169321Y-57686268D01*
X93135534Y-57696517D01*
X93103115Y-57710951D01*
X93052449Y-57721720D01*
X93000533Y-57737469D01*
X92959210Y-57741538D01*
X92919076Y-57750070D01*
X92872597Y-57750070D01*
X92825000Y-57754758D01*
X92777403Y-57750070D01*
X92730924Y-57750070D01*
X92690789Y-57741539D01*
X92649466Y-57737469D01*
X92597546Y-57721719D01*
X92546885Y-57710951D01*
X92514467Y-57696517D01*
X92480678Y-57686268D01*
X92426981Y-57657566D01*
X92375000Y-57634423D01*
X92350831Y-57616863D01*
X92325121Y-57603121D01*
X92272667Y-57560074D01*
X92222782Y-57523830D01*
X92206587Y-57505843D01*
X92188774Y-57491225D01*
X92140908Y-57432899D01*
X92096885Y-57384007D01*
X92087634Y-57367985D01*
X92076878Y-57354878D01*
X92037085Y-57280431D01*
X92002809Y-57221063D01*
X91998866Y-57208928D01*
X91993731Y-57199321D01*
X91965421Y-57105996D01*
X91944667Y-57042121D01*
X91943936Y-57035169D01*
X91942530Y-57030533D01*
X91928832Y-56891466D01*
X91925000Y-56855000D01*
X91928832Y-56818536D01*
X91942530Y-56679466D01*
X91943936Y-56674829D01*
X91944667Y-56667879D01*
X91965416Y-56604017D01*
X91993731Y-56510678D01*
X91998866Y-56501069D01*
X92002809Y-56488937D01*
X92037078Y-56429581D01*
X92076878Y-56355121D01*
X92087636Y-56342011D01*
X92096885Y-56325993D01*
X92140898Y-56277110D01*
X92188774Y-56218774D01*
X92206590Y-56204152D01*
X92222782Y-56186170D01*
X92272657Y-56149933D01*
X92325121Y-56106878D01*
X92350836Y-56093132D01*
X92375000Y-56075577D01*
X92426970Y-56052438D01*
X92480678Y-56023731D01*
X92514474Y-56013478D01*
X92546885Y-55999049D01*
X92597535Y-55988282D01*
X92649466Y-55972530D01*
X92690798Y-55968459D01*
X92730924Y-55959930D01*
X92777393Y-55959930D01*
X92825000Y-55955241D01*
X92872607Y-55959930D01*
G37*
G36*
X104944134Y-53488806D02*
G01*
X104960355Y-53499645D01*
X104971194Y-53515866D01*
X104975000Y-53535000D01*
X104975000Y-55235000D01*
X104971194Y-55254134D01*
X104960355Y-55270355D01*
X104944134Y-55281194D01*
X104925000Y-55285000D01*
X103225000Y-55285000D01*
X103205866Y-55281194D01*
X103189645Y-55270355D01*
X103178806Y-55254134D01*
X103175000Y-55235000D01*
X103175000Y-53535000D01*
X103178806Y-53515866D01*
X103189645Y-53499645D01*
X103205866Y-53488806D01*
X103225000Y-53485000D01*
X104925000Y-53485000D01*
X104944134Y-53488806D01*
G37*
G36*
X108694134Y-53463806D02*
G01*
X108710355Y-53474645D01*
X108721194Y-53490866D01*
X108725000Y-53510000D01*
X108725000Y-55210000D01*
X108721194Y-55229134D01*
X108710355Y-55245355D01*
X108694134Y-55256194D01*
X108675000Y-55260000D01*
X106975000Y-55260000D01*
X106955866Y-55256194D01*
X106939645Y-55245355D01*
X106928806Y-55229134D01*
X106925000Y-55210000D01*
X106925000Y-53510000D01*
X106928806Y-53490866D01*
X106939645Y-53474645D01*
X106955866Y-53463806D01*
X106975000Y-53460000D01*
X108675000Y-53460000D01*
X108694134Y-53463806D01*
G37*
G36*
X84944134Y-53418806D02*
G01*
X84960355Y-53429645D01*
X84971194Y-53445866D01*
X84975000Y-53465000D01*
X84975000Y-55165000D01*
X84971194Y-55184134D01*
X84960355Y-55200355D01*
X84944134Y-55211194D01*
X84925000Y-55215000D01*
X83225000Y-55215000D01*
X83205866Y-55211194D01*
X83189645Y-55200355D01*
X83178806Y-55184134D01*
X83175000Y-55165000D01*
X83175000Y-53465000D01*
X83178806Y-53445866D01*
X83189645Y-53429645D01*
X83205866Y-53418806D01*
X83225000Y-53415000D01*
X84925000Y-53415000D01*
X84944134Y-53418806D01*
G37*
G36*
X91154134Y-53418806D02*
G01*
X91170355Y-53429645D01*
X91181194Y-53445866D01*
X91185000Y-53465000D01*
X91185000Y-55165000D01*
X91181194Y-55184134D01*
X91170355Y-55200355D01*
X91154134Y-55211194D01*
X91135000Y-55215000D01*
X89435000Y-55215000D01*
X89415866Y-55211194D01*
X89399645Y-55200355D01*
X89388806Y-55184134D01*
X89385000Y-55165000D01*
X89385000Y-53465000D01*
X89388806Y-53445866D01*
X89399645Y-53429645D01*
X89415866Y-53418806D01*
X89435000Y-53415000D01*
X91135000Y-53415000D01*
X91154134Y-53418806D01*
G37*
G36*
X86662607Y-53419930D02*
G01*
X86709076Y-53419930D01*
X86749202Y-53428459D01*
X86790533Y-53432530D01*
X86842460Y-53448282D01*
X86893115Y-53459049D01*
X86925527Y-53473479D01*
X86959321Y-53483731D01*
X87013023Y-53512435D01*
X87065000Y-53535577D01*
X87089165Y-53553134D01*
X87114878Y-53566878D01*
X87167333Y-53609927D01*
X87217218Y-53646170D01*
X87233412Y-53664155D01*
X87251225Y-53678774D01*
X87299089Y-53737097D01*
X87343115Y-53785993D01*
X87352365Y-53802015D01*
X87363121Y-53815121D01*
X87402908Y-53889557D01*
X87437191Y-53948937D01*
X87441134Y-53961074D01*
X87446268Y-53970678D01*
X87474568Y-54063971D01*
X87495333Y-54127879D01*
X87496064Y-54134834D01*
X87497469Y-54139466D01*
X87511151Y-54278385D01*
X87515000Y-54315000D01*
X87511151Y-54351617D01*
X87497469Y-54490533D01*
X87496064Y-54495164D01*
X87495333Y-54502121D01*
X87474563Y-54566042D01*
X87446268Y-54659321D01*
X87441135Y-54668923D01*
X87437191Y-54681063D01*
X87402901Y-54740454D01*
X87363121Y-54814878D01*
X87352367Y-54827981D01*
X87343115Y-54844007D01*
X87299080Y-54892912D01*
X87251225Y-54951225D01*
X87233415Y-54965840D01*
X87217218Y-54983830D01*
X87167323Y-55020080D01*
X87114878Y-55063121D01*
X87089171Y-55076861D01*
X87065000Y-55094423D01*
X87013012Y-55117569D01*
X86959321Y-55146268D01*
X86925534Y-55156517D01*
X86893115Y-55170951D01*
X86842449Y-55181720D01*
X86790533Y-55197469D01*
X86749210Y-55201538D01*
X86709076Y-55210070D01*
X86662597Y-55210070D01*
X86615000Y-55214758D01*
X86567403Y-55210070D01*
X86520924Y-55210070D01*
X86480789Y-55201539D01*
X86439466Y-55197469D01*
X86387546Y-55181719D01*
X86336885Y-55170951D01*
X86304467Y-55156517D01*
X86270678Y-55146268D01*
X86216981Y-55117566D01*
X86165000Y-55094423D01*
X86140831Y-55076863D01*
X86115121Y-55063121D01*
X86062667Y-55020074D01*
X86012782Y-54983830D01*
X85996587Y-54965843D01*
X85978774Y-54951225D01*
X85930908Y-54892899D01*
X85886885Y-54844007D01*
X85877634Y-54827985D01*
X85866878Y-54814878D01*
X85827085Y-54740431D01*
X85792809Y-54681063D01*
X85788866Y-54668928D01*
X85783731Y-54659321D01*
X85755421Y-54565996D01*
X85734667Y-54502121D01*
X85733936Y-54495169D01*
X85732530Y-54490533D01*
X85718832Y-54351466D01*
X85715000Y-54315000D01*
X85718832Y-54278536D01*
X85732530Y-54139466D01*
X85733936Y-54134829D01*
X85734667Y-54127879D01*
X85755416Y-54064017D01*
X85783731Y-53970678D01*
X85788866Y-53961069D01*
X85792809Y-53948937D01*
X85827078Y-53889581D01*
X85866878Y-53815121D01*
X85877636Y-53802011D01*
X85886885Y-53785993D01*
X85930898Y-53737110D01*
X85978774Y-53678774D01*
X85996590Y-53664152D01*
X86012782Y-53646170D01*
X86062657Y-53609933D01*
X86115121Y-53566878D01*
X86140836Y-53553132D01*
X86165000Y-53535577D01*
X86216970Y-53512438D01*
X86270678Y-53483731D01*
X86304474Y-53473478D01*
X86336885Y-53459049D01*
X86387535Y-53448282D01*
X86439466Y-53432530D01*
X86480798Y-53428459D01*
X86520924Y-53419930D01*
X86567393Y-53419930D01*
X86615000Y-53415241D01*
X86662607Y-53419930D01*
G37*
G36*
X92872607Y-53419930D02*
G01*
X92919076Y-53419930D01*
X92959202Y-53428459D01*
X93000533Y-53432530D01*
X93052460Y-53448282D01*
X93103115Y-53459049D01*
X93135527Y-53473479D01*
X93169321Y-53483731D01*
X93223023Y-53512435D01*
X93275000Y-53535577D01*
X93299165Y-53553134D01*
X93324878Y-53566878D01*
X93377333Y-53609927D01*
X93427218Y-53646170D01*
X93443412Y-53664155D01*
X93461225Y-53678774D01*
X93509089Y-53737097D01*
X93553115Y-53785993D01*
X93562365Y-53802015D01*
X93573121Y-53815121D01*
X93612908Y-53889557D01*
X93647191Y-53948937D01*
X93651134Y-53961074D01*
X93656268Y-53970678D01*
X93684568Y-54063971D01*
X93705333Y-54127879D01*
X93706064Y-54134834D01*
X93707469Y-54139466D01*
X93721151Y-54278385D01*
X93725000Y-54315000D01*
X93721151Y-54351617D01*
X93707469Y-54490533D01*
X93706064Y-54495164D01*
X93705333Y-54502121D01*
X93684563Y-54566042D01*
X93656268Y-54659321D01*
X93651135Y-54668923D01*
X93647191Y-54681063D01*
X93612901Y-54740454D01*
X93573121Y-54814878D01*
X93562367Y-54827981D01*
X93553115Y-54844007D01*
X93509080Y-54892912D01*
X93461225Y-54951225D01*
X93443415Y-54965840D01*
X93427218Y-54983830D01*
X93377323Y-55020080D01*
X93324878Y-55063121D01*
X93299171Y-55076861D01*
X93275000Y-55094423D01*
X93223012Y-55117569D01*
X93169321Y-55146268D01*
X93135534Y-55156517D01*
X93103115Y-55170951D01*
X93052449Y-55181720D01*
X93000533Y-55197469D01*
X92959210Y-55201538D01*
X92919076Y-55210070D01*
X92872597Y-55210070D01*
X92825000Y-55214758D01*
X92777403Y-55210070D01*
X92730924Y-55210070D01*
X92690789Y-55201539D01*
X92649466Y-55197469D01*
X92597546Y-55181719D01*
X92546885Y-55170951D01*
X92514467Y-55156517D01*
X92480678Y-55146268D01*
X92426981Y-55117566D01*
X92375000Y-55094423D01*
X92350831Y-55076863D01*
X92325121Y-55063121D01*
X92272667Y-55020074D01*
X92222782Y-54983830D01*
X92206587Y-54965843D01*
X92188774Y-54951225D01*
X92140908Y-54892899D01*
X92096885Y-54844007D01*
X92087634Y-54827985D01*
X92076878Y-54814878D01*
X92037085Y-54740431D01*
X92002809Y-54681063D01*
X91998866Y-54668928D01*
X91993731Y-54659321D01*
X91965421Y-54565996D01*
X91944667Y-54502121D01*
X91943936Y-54495169D01*
X91942530Y-54490533D01*
X91928832Y-54351466D01*
X91925000Y-54315000D01*
X91928832Y-54278536D01*
X91942530Y-54139466D01*
X91943936Y-54134829D01*
X91944667Y-54127879D01*
X91965416Y-54064017D01*
X91993731Y-53970678D01*
X91998866Y-53961069D01*
X92002809Y-53948937D01*
X92037078Y-53889581D01*
X92076878Y-53815121D01*
X92087636Y-53802011D01*
X92096885Y-53785993D01*
X92140898Y-53737110D01*
X92188774Y-53678774D01*
X92206590Y-53664152D01*
X92222782Y-53646170D01*
X92272657Y-53609933D01*
X92325121Y-53566878D01*
X92350836Y-53553132D01*
X92375000Y-53535577D01*
X92426970Y-53512438D01*
X92480678Y-53483731D01*
X92514474Y-53473478D01*
X92546885Y-53459049D01*
X92597535Y-53448282D01*
X92649466Y-53432530D01*
X92690798Y-53428459D01*
X92730924Y-53419930D01*
X92777393Y-53419930D01*
X92825000Y-53415241D01*
X92872607Y-53419930D01*
G37*
G36*
X92219134Y-49543806D02*
G01*
X92235355Y-49554645D01*
X92246194Y-49570866D01*
X92250000Y-49590000D01*
X92250000Y-51290000D01*
X92246194Y-51309134D01*
X92235355Y-51325355D01*
X92219134Y-51336194D01*
X92200000Y-51340000D01*
X90500000Y-51340000D01*
X90480866Y-51336194D01*
X90464645Y-51325355D01*
X90453806Y-51309134D01*
X90450000Y-51290000D01*
X90450000Y-49590000D01*
X90453806Y-49570866D01*
X90464645Y-49554645D01*
X90480866Y-49543806D01*
X90500000Y-49540000D01*
X92200000Y-49540000D01*
X92219134Y-49543806D01*
G37*
G36*
X88857607Y-49544930D02*
G01*
X88904076Y-49544930D01*
X88944202Y-49553459D01*
X88985533Y-49557530D01*
X89037460Y-49573282D01*
X89088115Y-49584049D01*
X89120527Y-49598479D01*
X89154321Y-49608731D01*
X89208023Y-49637435D01*
X89260000Y-49660577D01*
X89284165Y-49678134D01*
X89309878Y-49691878D01*
X89362333Y-49734927D01*
X89412218Y-49771170D01*
X89428412Y-49789155D01*
X89446225Y-49803774D01*
X89494089Y-49862097D01*
X89538115Y-49910993D01*
X89547365Y-49927015D01*
X89558121Y-49940121D01*
X89597908Y-50014557D01*
X89632191Y-50073937D01*
X89636134Y-50086074D01*
X89641268Y-50095678D01*
X89669568Y-50188971D01*
X89690333Y-50252879D01*
X89691064Y-50259834D01*
X89692469Y-50264466D01*
X89706151Y-50403385D01*
X89710000Y-50440000D01*
X89706151Y-50476617D01*
X89692469Y-50615533D01*
X89691064Y-50620164D01*
X89690333Y-50627121D01*
X89669563Y-50691042D01*
X89641268Y-50784321D01*
X89636135Y-50793923D01*
X89632191Y-50806063D01*
X89597901Y-50865454D01*
X89558121Y-50939878D01*
X89547367Y-50952981D01*
X89538115Y-50969007D01*
X89494080Y-51017912D01*
X89446225Y-51076225D01*
X89428415Y-51090840D01*
X89412218Y-51108830D01*
X89362323Y-51145080D01*
X89309878Y-51188121D01*
X89284171Y-51201861D01*
X89260000Y-51219423D01*
X89208012Y-51242569D01*
X89154321Y-51271268D01*
X89120534Y-51281517D01*
X89088115Y-51295951D01*
X89037449Y-51306720D01*
X88985533Y-51322469D01*
X88944210Y-51326538D01*
X88904076Y-51335070D01*
X88857597Y-51335070D01*
X88810000Y-51339758D01*
X88762403Y-51335070D01*
X88715924Y-51335070D01*
X88675789Y-51326539D01*
X88634466Y-51322469D01*
X88582546Y-51306719D01*
X88531885Y-51295951D01*
X88499467Y-51281517D01*
X88465678Y-51271268D01*
X88411981Y-51242566D01*
X88360000Y-51219423D01*
X88335831Y-51201863D01*
X88310121Y-51188121D01*
X88257667Y-51145074D01*
X88207782Y-51108830D01*
X88191587Y-51090843D01*
X88173774Y-51076225D01*
X88125908Y-51017899D01*
X88081885Y-50969007D01*
X88072634Y-50952985D01*
X88061878Y-50939878D01*
X88022085Y-50865431D01*
X87987809Y-50806063D01*
X87983866Y-50793928D01*
X87978731Y-50784321D01*
X87950421Y-50690996D01*
X87929667Y-50627121D01*
X87928936Y-50620169D01*
X87927530Y-50615533D01*
X87913832Y-50476466D01*
X87910000Y-50440000D01*
X87913832Y-50403536D01*
X87927530Y-50264466D01*
X87928936Y-50259829D01*
X87929667Y-50252879D01*
X87950416Y-50189017D01*
X87978731Y-50095678D01*
X87983866Y-50086069D01*
X87987809Y-50073937D01*
X88022078Y-50014581D01*
X88061878Y-49940121D01*
X88072636Y-49927011D01*
X88081885Y-49910993D01*
X88125898Y-49862110D01*
X88173774Y-49803774D01*
X88191590Y-49789152D01*
X88207782Y-49771170D01*
X88257657Y-49734933D01*
X88310121Y-49691878D01*
X88335836Y-49678132D01*
X88360000Y-49660577D01*
X88411970Y-49637438D01*
X88465678Y-49608731D01*
X88499474Y-49598478D01*
X88531885Y-49584049D01*
X88582535Y-49573282D01*
X88634466Y-49557530D01*
X88675798Y-49553459D01*
X88715924Y-49544930D01*
X88762393Y-49544930D01*
X88810000Y-49540241D01*
X88857607Y-49544930D01*
G37*
G36*
X88857607Y-47004930D02*
G01*
X88904076Y-47004930D01*
X88944202Y-47013459D01*
X88985533Y-47017530D01*
X89037460Y-47033282D01*
X89088115Y-47044049D01*
X89120527Y-47058479D01*
X89154321Y-47068731D01*
X89208023Y-47097435D01*
X89260000Y-47120577D01*
X89284165Y-47138134D01*
X89309878Y-47151878D01*
X89362333Y-47194927D01*
X89412218Y-47231170D01*
X89428412Y-47249155D01*
X89446225Y-47263774D01*
X89494089Y-47322097D01*
X89538115Y-47370993D01*
X89547365Y-47387015D01*
X89558121Y-47400121D01*
X89597908Y-47474557D01*
X89632191Y-47533937D01*
X89636134Y-47546074D01*
X89641268Y-47555678D01*
X89669568Y-47648971D01*
X89690333Y-47712879D01*
X89691064Y-47719834D01*
X89692469Y-47724466D01*
X89706151Y-47863385D01*
X89710000Y-47900000D01*
X89706151Y-47936617D01*
X89692469Y-48075533D01*
X89691064Y-48080164D01*
X89690333Y-48087121D01*
X89669563Y-48151042D01*
X89641268Y-48244321D01*
X89636135Y-48253923D01*
X89632191Y-48266063D01*
X89597901Y-48325454D01*
X89558121Y-48399878D01*
X89547367Y-48412981D01*
X89538115Y-48429007D01*
X89494080Y-48477912D01*
X89446225Y-48536225D01*
X89428415Y-48550840D01*
X89412218Y-48568830D01*
X89362323Y-48605080D01*
X89309878Y-48648121D01*
X89284171Y-48661861D01*
X89260000Y-48679423D01*
X89208012Y-48702569D01*
X89154321Y-48731268D01*
X89120534Y-48741517D01*
X89088115Y-48755951D01*
X89037449Y-48766720D01*
X88985533Y-48782469D01*
X88944210Y-48786538D01*
X88904076Y-48795070D01*
X88857597Y-48795070D01*
X88810000Y-48799758D01*
X88762403Y-48795070D01*
X88715924Y-48795070D01*
X88675789Y-48786539D01*
X88634466Y-48782469D01*
X88582546Y-48766719D01*
X88531885Y-48755951D01*
X88499467Y-48741517D01*
X88465678Y-48731268D01*
X88411981Y-48702566D01*
X88360000Y-48679423D01*
X88335831Y-48661863D01*
X88310121Y-48648121D01*
X88257667Y-48605074D01*
X88207782Y-48568830D01*
X88191587Y-48550843D01*
X88173774Y-48536225D01*
X88125908Y-48477899D01*
X88081885Y-48429007D01*
X88072634Y-48412985D01*
X88061878Y-48399878D01*
X88022085Y-48325431D01*
X87987809Y-48266063D01*
X87983866Y-48253928D01*
X87978731Y-48244321D01*
X87950421Y-48150996D01*
X87929667Y-48087121D01*
X87928936Y-48080169D01*
X87927530Y-48075533D01*
X87913832Y-47936466D01*
X87910000Y-47900000D01*
X87913832Y-47863536D01*
X87927530Y-47724466D01*
X87928936Y-47719829D01*
X87929667Y-47712879D01*
X87950416Y-47649017D01*
X87978731Y-47555678D01*
X87983866Y-47546069D01*
X87987809Y-47533937D01*
X88022078Y-47474581D01*
X88061878Y-47400121D01*
X88072636Y-47387011D01*
X88081885Y-47370993D01*
X88125898Y-47322110D01*
X88173774Y-47263774D01*
X88191590Y-47249152D01*
X88207782Y-47231170D01*
X88257657Y-47194933D01*
X88310121Y-47151878D01*
X88335836Y-47138132D01*
X88360000Y-47120577D01*
X88411970Y-47097438D01*
X88465678Y-47068731D01*
X88499474Y-47058478D01*
X88531885Y-47044049D01*
X88582535Y-47033282D01*
X88634466Y-47017530D01*
X88675798Y-47013459D01*
X88715924Y-47004930D01*
X88762393Y-47004930D01*
X88810000Y-47000241D01*
X88857607Y-47004930D01*
G37*
G36*
X91397607Y-47004930D02*
G01*
X91444076Y-47004930D01*
X91484202Y-47013459D01*
X91525533Y-47017530D01*
X91577460Y-47033282D01*
X91628115Y-47044049D01*
X91660527Y-47058479D01*
X91694321Y-47068731D01*
X91748023Y-47097435D01*
X91800000Y-47120577D01*
X91824165Y-47138134D01*
X91849878Y-47151878D01*
X91902333Y-47194927D01*
X91952218Y-47231170D01*
X91968412Y-47249155D01*
X91986225Y-47263774D01*
X92034089Y-47322097D01*
X92078115Y-47370993D01*
X92087365Y-47387015D01*
X92098121Y-47400121D01*
X92137908Y-47474557D01*
X92172191Y-47533937D01*
X92176134Y-47546074D01*
X92181268Y-47555678D01*
X92209568Y-47648971D01*
X92230333Y-47712879D01*
X92231064Y-47719834D01*
X92232469Y-47724466D01*
X92246151Y-47863385D01*
X92250000Y-47900000D01*
X92246151Y-47936617D01*
X92232469Y-48075533D01*
X92231064Y-48080164D01*
X92230333Y-48087121D01*
X92209563Y-48151042D01*
X92181268Y-48244321D01*
X92176135Y-48253923D01*
X92172191Y-48266063D01*
X92137901Y-48325454D01*
X92098121Y-48399878D01*
X92087367Y-48412981D01*
X92078115Y-48429007D01*
X92034080Y-48477912D01*
X91986225Y-48536225D01*
X91968415Y-48550840D01*
X91952218Y-48568830D01*
X91902323Y-48605080D01*
X91849878Y-48648121D01*
X91824171Y-48661861D01*
X91800000Y-48679423D01*
X91748012Y-48702569D01*
X91694321Y-48731268D01*
X91660534Y-48741517D01*
X91628115Y-48755951D01*
X91577449Y-48766720D01*
X91525533Y-48782469D01*
X91484210Y-48786538D01*
X91444076Y-48795070D01*
X91397597Y-48795070D01*
X91350000Y-48799758D01*
X91302403Y-48795070D01*
X91255924Y-48795070D01*
X91215789Y-48786539D01*
X91174466Y-48782469D01*
X91122546Y-48766719D01*
X91071885Y-48755951D01*
X91039467Y-48741517D01*
X91005678Y-48731268D01*
X90951981Y-48702566D01*
X90900000Y-48679423D01*
X90875831Y-48661863D01*
X90850121Y-48648121D01*
X90797667Y-48605074D01*
X90747782Y-48568830D01*
X90731587Y-48550843D01*
X90713774Y-48536225D01*
X90665908Y-48477899D01*
X90621885Y-48429007D01*
X90612634Y-48412985D01*
X90601878Y-48399878D01*
X90562085Y-48325431D01*
X90527809Y-48266063D01*
X90523866Y-48253928D01*
X90518731Y-48244321D01*
X90490421Y-48150996D01*
X90469667Y-48087121D01*
X90468936Y-48080169D01*
X90467530Y-48075533D01*
X90453832Y-47936466D01*
X90450000Y-47900000D01*
X90453832Y-47863536D01*
X90467530Y-47724466D01*
X90468936Y-47719829D01*
X90469667Y-47712879D01*
X90490416Y-47649017D01*
X90518731Y-47555678D01*
X90523866Y-47546069D01*
X90527809Y-47533937D01*
X90562078Y-47474581D01*
X90601878Y-47400121D01*
X90612636Y-47387011D01*
X90621885Y-47370993D01*
X90665898Y-47322110D01*
X90713774Y-47263774D01*
X90731590Y-47249152D01*
X90747782Y-47231170D01*
X90797657Y-47194933D01*
X90850121Y-47151878D01*
X90875836Y-47138132D01*
X90900000Y-47120577D01*
X90951970Y-47097438D01*
X91005678Y-47068731D01*
X91039474Y-47058478D01*
X91071885Y-47044049D01*
X91122535Y-47033282D01*
X91174466Y-47017530D01*
X91215798Y-47013459D01*
X91255924Y-47004930D01*
X91302393Y-47004930D01*
X91350000Y-47000241D01*
X91397607Y-47004930D01*
G37*
G36*
X106150807Y-39642330D02*
G01*
X106197276Y-39642330D01*
X106237402Y-39650859D01*
X106278733Y-39654930D01*
X106330660Y-39670682D01*
X106381315Y-39681449D01*
X106413727Y-39695879D01*
X106447521Y-39706131D01*
X106501223Y-39734835D01*
X106553200Y-39757977D01*
X106577365Y-39775534D01*
X106603078Y-39789278D01*
X106655533Y-39832327D01*
X106705418Y-39868570D01*
X106721612Y-39886555D01*
X106739425Y-39901174D01*
X106787289Y-39959497D01*
X106831315Y-40008393D01*
X106840565Y-40024415D01*
X106851321Y-40037521D01*
X106891108Y-40111957D01*
X106925391Y-40171337D01*
X106929334Y-40183474D01*
X106934468Y-40193078D01*
X106962768Y-40286371D01*
X106983533Y-40350279D01*
X106984264Y-40357234D01*
X106985669Y-40361866D01*
X106999351Y-40500785D01*
X107003200Y-40537400D01*
X106999351Y-40574017D01*
X106985669Y-40712933D01*
X106984264Y-40717564D01*
X106983533Y-40724521D01*
X106962763Y-40788442D01*
X106934468Y-40881721D01*
X106929335Y-40891323D01*
X106925391Y-40903463D01*
X106891101Y-40962854D01*
X106851321Y-41037278D01*
X106840567Y-41050381D01*
X106831315Y-41066407D01*
X106787280Y-41115312D01*
X106739425Y-41173625D01*
X106721615Y-41188240D01*
X106705418Y-41206230D01*
X106655523Y-41242480D01*
X106603078Y-41285521D01*
X106577371Y-41299261D01*
X106553200Y-41316823D01*
X106501212Y-41339969D01*
X106447521Y-41368668D01*
X106413734Y-41378917D01*
X106381315Y-41393351D01*
X106330649Y-41404120D01*
X106278733Y-41419869D01*
X106237410Y-41423938D01*
X106197276Y-41432470D01*
X106150797Y-41432470D01*
X106103200Y-41437158D01*
X106055603Y-41432470D01*
X106009124Y-41432470D01*
X105968989Y-41423939D01*
X105927666Y-41419869D01*
X105875746Y-41404119D01*
X105825085Y-41393351D01*
X105792667Y-41378917D01*
X105758878Y-41368668D01*
X105705181Y-41339966D01*
X105653200Y-41316823D01*
X105629031Y-41299263D01*
X105603321Y-41285521D01*
X105550867Y-41242474D01*
X105500982Y-41206230D01*
X105484787Y-41188243D01*
X105466974Y-41173625D01*
X105419108Y-41115299D01*
X105375085Y-41066407D01*
X105365834Y-41050385D01*
X105355078Y-41037278D01*
X105315285Y-40962831D01*
X105281009Y-40903463D01*
X105277066Y-40891328D01*
X105271931Y-40881721D01*
X105243621Y-40788396D01*
X105222867Y-40724521D01*
X105222136Y-40717569D01*
X105220730Y-40712933D01*
X105207032Y-40573866D01*
X105203200Y-40537400D01*
X105207032Y-40500936D01*
X105220730Y-40361866D01*
X105222136Y-40357229D01*
X105222867Y-40350279D01*
X105243616Y-40286417D01*
X105271931Y-40193078D01*
X105277066Y-40183469D01*
X105281009Y-40171337D01*
X105315278Y-40111981D01*
X105355078Y-40037521D01*
X105365836Y-40024411D01*
X105375085Y-40008393D01*
X105419098Y-39959510D01*
X105466974Y-39901174D01*
X105484790Y-39886552D01*
X105500982Y-39868570D01*
X105550857Y-39832333D01*
X105603321Y-39789278D01*
X105629036Y-39775532D01*
X105653200Y-39757977D01*
X105705170Y-39734838D01*
X105758878Y-39706131D01*
X105792674Y-39695878D01*
X105825085Y-39681449D01*
X105875735Y-39670682D01*
X105927666Y-39654930D01*
X105968998Y-39650859D01*
X106009124Y-39642330D01*
X106055593Y-39642330D01*
X106103200Y-39637641D01*
X106150807Y-39642330D01*
G37*
G36*
X108690807Y-39642330D02*
G01*
X108737276Y-39642330D01*
X108777402Y-39650859D01*
X108818733Y-39654930D01*
X108870660Y-39670682D01*
X108921315Y-39681449D01*
X108953727Y-39695879D01*
X108987521Y-39706131D01*
X109041223Y-39734835D01*
X109093200Y-39757977D01*
X109117365Y-39775534D01*
X109143078Y-39789278D01*
X109195533Y-39832327D01*
X109245418Y-39868570D01*
X109261612Y-39886555D01*
X109279425Y-39901174D01*
X109327289Y-39959497D01*
X109371315Y-40008393D01*
X109380565Y-40024415D01*
X109391321Y-40037521D01*
X109431108Y-40111957D01*
X109465391Y-40171337D01*
X109469334Y-40183474D01*
X109474468Y-40193078D01*
X109502768Y-40286371D01*
X109523533Y-40350279D01*
X109524264Y-40357234D01*
X109525669Y-40361866D01*
X109539351Y-40500785D01*
X109543200Y-40537400D01*
X109539351Y-40574017D01*
X109525669Y-40712933D01*
X109524264Y-40717564D01*
X109523533Y-40724521D01*
X109502763Y-40788442D01*
X109474468Y-40881721D01*
X109469335Y-40891323D01*
X109465391Y-40903463D01*
X109431101Y-40962854D01*
X109391321Y-41037278D01*
X109380567Y-41050381D01*
X109371315Y-41066407D01*
X109327280Y-41115312D01*
X109279425Y-41173625D01*
X109261615Y-41188240D01*
X109245418Y-41206230D01*
X109195523Y-41242480D01*
X109143078Y-41285521D01*
X109117371Y-41299261D01*
X109093200Y-41316823D01*
X109041212Y-41339969D01*
X108987521Y-41368668D01*
X108953734Y-41378917D01*
X108921315Y-41393351D01*
X108870649Y-41404120D01*
X108818733Y-41419869D01*
X108777410Y-41423938D01*
X108737276Y-41432470D01*
X108690797Y-41432470D01*
X108643200Y-41437158D01*
X108595603Y-41432470D01*
X108549124Y-41432470D01*
X108508989Y-41423939D01*
X108467666Y-41419869D01*
X108415746Y-41404119D01*
X108365085Y-41393351D01*
X108332667Y-41378917D01*
X108298878Y-41368668D01*
X108245181Y-41339966D01*
X108193200Y-41316823D01*
X108169031Y-41299263D01*
X108143321Y-41285521D01*
X108090867Y-41242474D01*
X108040982Y-41206230D01*
X108024787Y-41188243D01*
X108006974Y-41173625D01*
X107959108Y-41115299D01*
X107915085Y-41066407D01*
X107905834Y-41050385D01*
X107895078Y-41037278D01*
X107855285Y-40962831D01*
X107821009Y-40903463D01*
X107817066Y-40891328D01*
X107811931Y-40881721D01*
X107783621Y-40788396D01*
X107762867Y-40724521D01*
X107762136Y-40717569D01*
X107760730Y-40712933D01*
X107747032Y-40573866D01*
X107743200Y-40537400D01*
X107747032Y-40500936D01*
X107760730Y-40361866D01*
X107762136Y-40357229D01*
X107762867Y-40350279D01*
X107783616Y-40286417D01*
X107811931Y-40193078D01*
X107817066Y-40183469D01*
X107821009Y-40171337D01*
X107855278Y-40111981D01*
X107895078Y-40037521D01*
X107905836Y-40024411D01*
X107915085Y-40008393D01*
X107959098Y-39959510D01*
X108006974Y-39901174D01*
X108024790Y-39886552D01*
X108040982Y-39868570D01*
X108090857Y-39832333D01*
X108143321Y-39789278D01*
X108169036Y-39775532D01*
X108193200Y-39757977D01*
X108245170Y-39734838D01*
X108298878Y-39706131D01*
X108332674Y-39695878D01*
X108365085Y-39681449D01*
X108415735Y-39670682D01*
X108467666Y-39654930D01*
X108508998Y-39650859D01*
X108549124Y-39642330D01*
X108595593Y-39642330D01*
X108643200Y-39637641D01*
X108690807Y-39642330D01*
G37*
G36*
X114372607Y-39544930D02*
G01*
X114419076Y-39544930D01*
X114459202Y-39553459D01*
X114500533Y-39557530D01*
X114552460Y-39573282D01*
X114603115Y-39584049D01*
X114635527Y-39598479D01*
X114669321Y-39608731D01*
X114723023Y-39637435D01*
X114775000Y-39660577D01*
X114799165Y-39678134D01*
X114824878Y-39691878D01*
X114877333Y-39734927D01*
X114927218Y-39771170D01*
X114943412Y-39789155D01*
X114961225Y-39803774D01*
X115009089Y-39862097D01*
X115053115Y-39910993D01*
X115062365Y-39927015D01*
X115073121Y-39940121D01*
X115112908Y-40014557D01*
X115147191Y-40073937D01*
X115151134Y-40086074D01*
X115156268Y-40095678D01*
X115184568Y-40188971D01*
X115205333Y-40252879D01*
X115206064Y-40259834D01*
X115207469Y-40264466D01*
X115221151Y-40403385D01*
X115225000Y-40440000D01*
X115221151Y-40476617D01*
X115207469Y-40615533D01*
X115206064Y-40620164D01*
X115205333Y-40627121D01*
X115184563Y-40691042D01*
X115156268Y-40784321D01*
X115151135Y-40793923D01*
X115147191Y-40806063D01*
X115112901Y-40865454D01*
X115073121Y-40939878D01*
X115062367Y-40952981D01*
X115053115Y-40969007D01*
X115009080Y-41017912D01*
X114961225Y-41076225D01*
X114943415Y-41090840D01*
X114927218Y-41108830D01*
X114877323Y-41145080D01*
X114824878Y-41188121D01*
X114799171Y-41201861D01*
X114775000Y-41219423D01*
X114723012Y-41242569D01*
X114669321Y-41271268D01*
X114635534Y-41281517D01*
X114603115Y-41295951D01*
X114552449Y-41306720D01*
X114500533Y-41322469D01*
X114459210Y-41326538D01*
X114419076Y-41335070D01*
X114372597Y-41335070D01*
X114325000Y-41339758D01*
X114277403Y-41335070D01*
X114230924Y-41335070D01*
X114190789Y-41326539D01*
X114149466Y-41322469D01*
X114097546Y-41306719D01*
X114046885Y-41295951D01*
X114014467Y-41281517D01*
X113980678Y-41271268D01*
X113926981Y-41242566D01*
X113875000Y-41219423D01*
X113850831Y-41201863D01*
X113825121Y-41188121D01*
X113772667Y-41145074D01*
X113722782Y-41108830D01*
X113706587Y-41090843D01*
X113688774Y-41076225D01*
X113640908Y-41017899D01*
X113596885Y-40969007D01*
X113587634Y-40952985D01*
X113576878Y-40939878D01*
X113537085Y-40865431D01*
X113502809Y-40806063D01*
X113498866Y-40793928D01*
X113493731Y-40784321D01*
X113465421Y-40690996D01*
X113444667Y-40627121D01*
X113443936Y-40620169D01*
X113442530Y-40615533D01*
X113428832Y-40476466D01*
X113425000Y-40440000D01*
X113428832Y-40403536D01*
X113442530Y-40264466D01*
X113443936Y-40259829D01*
X113444667Y-40252879D01*
X113465416Y-40189017D01*
X113493731Y-40095678D01*
X113498866Y-40086069D01*
X113502809Y-40073937D01*
X113537078Y-40014581D01*
X113576878Y-39940121D01*
X113587636Y-39927011D01*
X113596885Y-39910993D01*
X113640898Y-39862110D01*
X113688774Y-39803774D01*
X113706590Y-39789152D01*
X113722782Y-39771170D01*
X113772657Y-39734933D01*
X113825121Y-39691878D01*
X113850836Y-39678132D01*
X113875000Y-39660577D01*
X113926970Y-39637438D01*
X113980678Y-39608731D01*
X114014474Y-39598478D01*
X114046885Y-39584049D01*
X114097535Y-39573282D01*
X114149466Y-39557530D01*
X114190798Y-39553459D01*
X114230924Y-39544930D01*
X114277393Y-39544930D01*
X114325000Y-39540241D01*
X114372607Y-39544930D01*
G37*
G36*
X116912607Y-39544930D02*
G01*
X116959076Y-39544930D01*
X116999202Y-39553459D01*
X117040533Y-39557530D01*
X117092460Y-39573282D01*
X117143115Y-39584049D01*
X117175527Y-39598479D01*
X117209321Y-39608731D01*
X117263023Y-39637435D01*
X117315000Y-39660577D01*
X117339165Y-39678134D01*
X117364878Y-39691878D01*
X117417333Y-39734927D01*
X117467218Y-39771170D01*
X117483412Y-39789155D01*
X117501225Y-39803774D01*
X117549089Y-39862097D01*
X117593115Y-39910993D01*
X117602365Y-39927015D01*
X117613121Y-39940121D01*
X117652908Y-40014557D01*
X117687191Y-40073937D01*
X117691134Y-40086074D01*
X117696268Y-40095678D01*
X117724568Y-40188971D01*
X117745333Y-40252879D01*
X117746064Y-40259834D01*
X117747469Y-40264466D01*
X117761151Y-40403385D01*
X117765000Y-40440000D01*
X117761151Y-40476617D01*
X117747469Y-40615533D01*
X117746064Y-40620164D01*
X117745333Y-40627121D01*
X117724563Y-40691042D01*
X117696268Y-40784321D01*
X117691135Y-40793923D01*
X117687191Y-40806063D01*
X117652901Y-40865454D01*
X117613121Y-40939878D01*
X117602367Y-40952981D01*
X117593115Y-40969007D01*
X117549080Y-41017912D01*
X117501225Y-41076225D01*
X117483415Y-41090840D01*
X117467218Y-41108830D01*
X117417323Y-41145080D01*
X117364878Y-41188121D01*
X117339171Y-41201861D01*
X117315000Y-41219423D01*
X117263012Y-41242569D01*
X117209321Y-41271268D01*
X117175534Y-41281517D01*
X117143115Y-41295951D01*
X117092449Y-41306720D01*
X117040533Y-41322469D01*
X116999210Y-41326538D01*
X116959076Y-41335070D01*
X116912597Y-41335070D01*
X116865000Y-41339758D01*
X116817403Y-41335070D01*
X116770924Y-41335070D01*
X116730789Y-41326539D01*
X116689466Y-41322469D01*
X116637546Y-41306719D01*
X116586885Y-41295951D01*
X116554467Y-41281517D01*
X116520678Y-41271268D01*
X116466981Y-41242566D01*
X116415000Y-41219423D01*
X116390831Y-41201863D01*
X116365121Y-41188121D01*
X116312667Y-41145074D01*
X116262782Y-41108830D01*
X116246587Y-41090843D01*
X116228774Y-41076225D01*
X116180908Y-41017899D01*
X116136885Y-40969007D01*
X116127634Y-40952985D01*
X116116878Y-40939878D01*
X116077085Y-40865431D01*
X116042809Y-40806063D01*
X116038866Y-40793928D01*
X116033731Y-40784321D01*
X116005421Y-40690996D01*
X115984667Y-40627121D01*
X115983936Y-40620169D01*
X115982530Y-40615533D01*
X115968832Y-40476466D01*
X115965000Y-40440000D01*
X115968832Y-40403536D01*
X115982530Y-40264466D01*
X115983936Y-40259829D01*
X115984667Y-40252879D01*
X116005416Y-40189017D01*
X116033731Y-40095678D01*
X116038866Y-40086069D01*
X116042809Y-40073937D01*
X116077078Y-40014581D01*
X116116878Y-39940121D01*
X116127636Y-39927011D01*
X116136885Y-39910993D01*
X116180898Y-39862110D01*
X116228774Y-39803774D01*
X116246590Y-39789152D01*
X116262782Y-39771170D01*
X116312657Y-39734933D01*
X116365121Y-39691878D01*
X116390836Y-39678132D01*
X116415000Y-39660577D01*
X116466970Y-39637438D01*
X116520678Y-39608731D01*
X116554474Y-39598478D01*
X116586885Y-39584049D01*
X116637535Y-39573282D01*
X116689466Y-39557530D01*
X116730798Y-39553459D01*
X116770924Y-39544930D01*
X116817393Y-39544930D01*
X116865000Y-39540241D01*
X116912607Y-39544930D01*
G37*
G36*
X106150807Y-37102330D02*
G01*
X106197276Y-37102330D01*
X106237402Y-37110859D01*
X106278733Y-37114930D01*
X106330660Y-37130682D01*
X106381315Y-37141449D01*
X106413727Y-37155879D01*
X106447521Y-37166131D01*
X106501223Y-37194835D01*
X106553200Y-37217977D01*
X106577365Y-37235534D01*
X106603078Y-37249278D01*
X106655533Y-37292327D01*
X106705418Y-37328570D01*
X106721612Y-37346555D01*
X106739425Y-37361174D01*
X106787289Y-37419497D01*
X106831315Y-37468393D01*
X106840565Y-37484415D01*
X106851321Y-37497521D01*
X106891108Y-37571957D01*
X106925391Y-37631337D01*
X106929334Y-37643474D01*
X106934468Y-37653078D01*
X106962768Y-37746371D01*
X106983533Y-37810279D01*
X106984264Y-37817234D01*
X106985669Y-37821866D01*
X106999351Y-37960785D01*
X107003200Y-37997400D01*
X106999351Y-38034017D01*
X106985669Y-38172933D01*
X106984264Y-38177564D01*
X106983533Y-38184521D01*
X106962763Y-38248442D01*
X106934468Y-38341721D01*
X106929335Y-38351323D01*
X106925391Y-38363463D01*
X106891101Y-38422854D01*
X106851321Y-38497278D01*
X106840567Y-38510381D01*
X106831315Y-38526407D01*
X106787280Y-38575312D01*
X106739425Y-38633625D01*
X106721615Y-38648240D01*
X106705418Y-38666230D01*
X106655523Y-38702480D01*
X106603078Y-38745521D01*
X106577371Y-38759261D01*
X106553200Y-38776823D01*
X106501212Y-38799969D01*
X106447521Y-38828668D01*
X106413734Y-38838917D01*
X106381315Y-38853351D01*
X106330649Y-38864120D01*
X106278733Y-38879869D01*
X106237410Y-38883938D01*
X106197276Y-38892470D01*
X106150797Y-38892470D01*
X106103200Y-38897158D01*
X106055603Y-38892470D01*
X106009124Y-38892470D01*
X105968989Y-38883939D01*
X105927666Y-38879869D01*
X105875746Y-38864119D01*
X105825085Y-38853351D01*
X105792667Y-38838917D01*
X105758878Y-38828668D01*
X105705181Y-38799966D01*
X105653200Y-38776823D01*
X105629031Y-38759263D01*
X105603321Y-38745521D01*
X105550867Y-38702474D01*
X105500982Y-38666230D01*
X105484787Y-38648243D01*
X105466974Y-38633625D01*
X105419108Y-38575299D01*
X105375085Y-38526407D01*
X105365834Y-38510385D01*
X105355078Y-38497278D01*
X105315285Y-38422831D01*
X105281009Y-38363463D01*
X105277066Y-38351328D01*
X105271931Y-38341721D01*
X105243621Y-38248396D01*
X105222867Y-38184521D01*
X105222136Y-38177569D01*
X105220730Y-38172933D01*
X105207032Y-38033866D01*
X105203200Y-37997400D01*
X105207032Y-37960936D01*
X105220730Y-37821866D01*
X105222136Y-37817229D01*
X105222867Y-37810279D01*
X105243616Y-37746417D01*
X105271931Y-37653078D01*
X105277066Y-37643469D01*
X105281009Y-37631337D01*
X105315278Y-37571981D01*
X105355078Y-37497521D01*
X105365836Y-37484411D01*
X105375085Y-37468393D01*
X105419098Y-37419510D01*
X105466974Y-37361174D01*
X105484790Y-37346552D01*
X105500982Y-37328570D01*
X105550857Y-37292333D01*
X105603321Y-37249278D01*
X105629036Y-37235532D01*
X105653200Y-37217977D01*
X105705170Y-37194838D01*
X105758878Y-37166131D01*
X105792674Y-37155878D01*
X105825085Y-37141449D01*
X105875735Y-37130682D01*
X105927666Y-37114930D01*
X105968998Y-37110859D01*
X106009124Y-37102330D01*
X106055593Y-37102330D01*
X106103200Y-37097641D01*
X106150807Y-37102330D01*
G37*
G36*
X108690807Y-37102330D02*
G01*
X108737276Y-37102330D01*
X108777402Y-37110859D01*
X108818733Y-37114930D01*
X108870660Y-37130682D01*
X108921315Y-37141449D01*
X108953727Y-37155879D01*
X108987521Y-37166131D01*
X109041223Y-37194835D01*
X109093200Y-37217977D01*
X109117365Y-37235534D01*
X109143078Y-37249278D01*
X109195533Y-37292327D01*
X109245418Y-37328570D01*
X109261612Y-37346555D01*
X109279425Y-37361174D01*
X109327289Y-37419497D01*
X109371315Y-37468393D01*
X109380565Y-37484415D01*
X109391321Y-37497521D01*
X109431108Y-37571957D01*
X109465391Y-37631337D01*
X109469334Y-37643474D01*
X109474468Y-37653078D01*
X109502768Y-37746371D01*
X109523533Y-37810279D01*
X109524264Y-37817234D01*
X109525669Y-37821866D01*
X109539351Y-37960785D01*
X109543200Y-37997400D01*
X109539351Y-38034017D01*
X109525669Y-38172933D01*
X109524264Y-38177564D01*
X109523533Y-38184521D01*
X109502763Y-38248442D01*
X109474468Y-38341721D01*
X109469335Y-38351323D01*
X109465391Y-38363463D01*
X109431101Y-38422854D01*
X109391321Y-38497278D01*
X109380567Y-38510381D01*
X109371315Y-38526407D01*
X109327280Y-38575312D01*
X109279425Y-38633625D01*
X109261615Y-38648240D01*
X109245418Y-38666230D01*
X109195523Y-38702480D01*
X109143078Y-38745521D01*
X109117371Y-38759261D01*
X109093200Y-38776823D01*
X109041212Y-38799969D01*
X108987521Y-38828668D01*
X108953734Y-38838917D01*
X108921315Y-38853351D01*
X108870649Y-38864120D01*
X108818733Y-38879869D01*
X108777410Y-38883938D01*
X108737276Y-38892470D01*
X108690797Y-38892470D01*
X108643200Y-38897158D01*
X108595603Y-38892470D01*
X108549124Y-38892470D01*
X108508989Y-38883939D01*
X108467666Y-38879869D01*
X108415746Y-38864119D01*
X108365085Y-38853351D01*
X108332667Y-38838917D01*
X108298878Y-38828668D01*
X108245181Y-38799966D01*
X108193200Y-38776823D01*
X108169031Y-38759263D01*
X108143321Y-38745521D01*
X108090867Y-38702474D01*
X108040982Y-38666230D01*
X108024787Y-38648243D01*
X108006974Y-38633625D01*
X107959108Y-38575299D01*
X107915085Y-38526407D01*
X107905834Y-38510385D01*
X107895078Y-38497278D01*
X107855285Y-38422831D01*
X107821009Y-38363463D01*
X107817066Y-38351328D01*
X107811931Y-38341721D01*
X107783621Y-38248396D01*
X107762867Y-38184521D01*
X107762136Y-38177569D01*
X107760730Y-38172933D01*
X107747032Y-38033866D01*
X107743200Y-37997400D01*
X107747032Y-37960936D01*
X107760730Y-37821866D01*
X107762136Y-37817229D01*
X107762867Y-37810279D01*
X107783616Y-37746417D01*
X107811931Y-37653078D01*
X107817066Y-37643469D01*
X107821009Y-37631337D01*
X107855278Y-37571981D01*
X107895078Y-37497521D01*
X107905836Y-37484411D01*
X107915085Y-37468393D01*
X107959098Y-37419510D01*
X108006974Y-37361174D01*
X108024790Y-37346552D01*
X108040982Y-37328570D01*
X108090857Y-37292333D01*
X108143321Y-37249278D01*
X108169036Y-37235532D01*
X108193200Y-37217977D01*
X108245170Y-37194838D01*
X108298878Y-37166131D01*
X108332674Y-37155878D01*
X108365085Y-37141449D01*
X108415735Y-37130682D01*
X108467666Y-37114930D01*
X108508998Y-37110859D01*
X108549124Y-37102330D01*
X108595593Y-37102330D01*
X108643200Y-37097641D01*
X108690807Y-37102330D01*
G37*
G36*
X114372607Y-37004930D02*
G01*
X114419076Y-37004930D01*
X114459202Y-37013459D01*
X114500533Y-37017530D01*
X114552460Y-37033282D01*
X114603115Y-37044049D01*
X114635527Y-37058479D01*
X114669321Y-37068731D01*
X114723023Y-37097435D01*
X114775000Y-37120577D01*
X114799165Y-37138134D01*
X114824878Y-37151878D01*
X114877333Y-37194927D01*
X114927218Y-37231170D01*
X114943412Y-37249155D01*
X114961225Y-37263774D01*
X115009089Y-37322097D01*
X115053115Y-37370993D01*
X115062365Y-37387015D01*
X115073121Y-37400121D01*
X115112908Y-37474557D01*
X115147191Y-37533937D01*
X115151134Y-37546074D01*
X115156268Y-37555678D01*
X115184568Y-37648971D01*
X115205333Y-37712879D01*
X115206064Y-37719834D01*
X115207469Y-37724466D01*
X115221151Y-37863385D01*
X115225000Y-37900000D01*
X115221151Y-37936617D01*
X115207469Y-38075533D01*
X115206064Y-38080164D01*
X115205333Y-38087121D01*
X115184563Y-38151042D01*
X115156268Y-38244321D01*
X115151135Y-38253923D01*
X115147191Y-38266063D01*
X115112901Y-38325454D01*
X115073121Y-38399878D01*
X115062367Y-38412981D01*
X115053115Y-38429007D01*
X115009080Y-38477912D01*
X114961225Y-38536225D01*
X114943415Y-38550840D01*
X114927218Y-38568830D01*
X114877323Y-38605080D01*
X114824878Y-38648121D01*
X114799171Y-38661861D01*
X114775000Y-38679423D01*
X114723012Y-38702569D01*
X114669321Y-38731268D01*
X114635534Y-38741517D01*
X114603115Y-38755951D01*
X114552449Y-38766720D01*
X114500533Y-38782469D01*
X114459210Y-38786538D01*
X114419076Y-38795070D01*
X114372597Y-38795070D01*
X114325000Y-38799758D01*
X114277403Y-38795070D01*
X114230924Y-38795070D01*
X114190789Y-38786539D01*
X114149466Y-38782469D01*
X114097546Y-38766719D01*
X114046885Y-38755951D01*
X114014467Y-38741517D01*
X113980678Y-38731268D01*
X113926981Y-38702566D01*
X113875000Y-38679423D01*
X113850831Y-38661863D01*
X113825121Y-38648121D01*
X113772667Y-38605074D01*
X113722782Y-38568830D01*
X113706587Y-38550843D01*
X113688774Y-38536225D01*
X113640908Y-38477899D01*
X113596885Y-38429007D01*
X113587634Y-38412985D01*
X113576878Y-38399878D01*
X113537085Y-38325431D01*
X113502809Y-38266063D01*
X113498866Y-38253928D01*
X113493731Y-38244321D01*
X113465421Y-38150996D01*
X113444667Y-38087121D01*
X113443936Y-38080169D01*
X113442530Y-38075533D01*
X113428832Y-37936466D01*
X113425000Y-37900000D01*
X113428832Y-37863536D01*
X113442530Y-37724466D01*
X113443936Y-37719829D01*
X113444667Y-37712879D01*
X113465416Y-37649017D01*
X113493731Y-37555678D01*
X113498866Y-37546069D01*
X113502809Y-37533937D01*
X113537078Y-37474581D01*
X113576878Y-37400121D01*
X113587636Y-37387011D01*
X113596885Y-37370993D01*
X113640898Y-37322110D01*
X113688774Y-37263774D01*
X113706590Y-37249152D01*
X113722782Y-37231170D01*
X113772657Y-37194933D01*
X113825121Y-37151878D01*
X113850836Y-37138132D01*
X113875000Y-37120577D01*
X113926970Y-37097438D01*
X113980678Y-37068731D01*
X114014474Y-37058478D01*
X114046885Y-37044049D01*
X114097535Y-37033282D01*
X114149466Y-37017530D01*
X114190798Y-37013459D01*
X114230924Y-37004930D01*
X114277393Y-37004930D01*
X114325000Y-37000241D01*
X114372607Y-37004930D01*
G37*
G36*
X116912607Y-37004930D02*
G01*
X116959076Y-37004930D01*
X116999202Y-37013459D01*
X117040533Y-37017530D01*
X117092460Y-37033282D01*
X117143115Y-37044049D01*
X117175527Y-37058479D01*
X117209321Y-37068731D01*
X117263023Y-37097435D01*
X117315000Y-37120577D01*
X117339165Y-37138134D01*
X117364878Y-37151878D01*
X117417333Y-37194927D01*
X117467218Y-37231170D01*
X117483412Y-37249155D01*
X117501225Y-37263774D01*
X117549089Y-37322097D01*
X117593115Y-37370993D01*
X117602365Y-37387015D01*
X117613121Y-37400121D01*
X117652908Y-37474557D01*
X117687191Y-37533937D01*
X117691134Y-37546074D01*
X117696268Y-37555678D01*
X117724568Y-37648971D01*
X117745333Y-37712879D01*
X117746064Y-37719834D01*
X117747469Y-37724466D01*
X117761151Y-37863385D01*
X117765000Y-37900000D01*
X117761151Y-37936617D01*
X117747469Y-38075533D01*
X117746064Y-38080164D01*
X117745333Y-38087121D01*
X117724563Y-38151042D01*
X117696268Y-38244321D01*
X117691135Y-38253923D01*
X117687191Y-38266063D01*
X117652901Y-38325454D01*
X117613121Y-38399878D01*
X117602367Y-38412981D01*
X117593115Y-38429007D01*
X117549080Y-38477912D01*
X117501225Y-38536225D01*
X117483415Y-38550840D01*
X117467218Y-38568830D01*
X117417323Y-38605080D01*
X117364878Y-38648121D01*
X117339171Y-38661861D01*
X117315000Y-38679423D01*
X117263012Y-38702569D01*
X117209321Y-38731268D01*
X117175534Y-38741517D01*
X117143115Y-38755951D01*
X117092449Y-38766720D01*
X117040533Y-38782469D01*
X116999210Y-38786538D01*
X116959076Y-38795070D01*
X116912597Y-38795070D01*
X116865000Y-38799758D01*
X116817403Y-38795070D01*
X116770924Y-38795070D01*
X116730789Y-38786539D01*
X116689466Y-38782469D01*
X116637546Y-38766719D01*
X116586885Y-38755951D01*
X116554467Y-38741517D01*
X116520678Y-38731268D01*
X116466981Y-38702566D01*
X116415000Y-38679423D01*
X116390831Y-38661863D01*
X116365121Y-38648121D01*
X116312667Y-38605074D01*
X116262782Y-38568830D01*
X116246587Y-38550843D01*
X116228774Y-38536225D01*
X116180908Y-38477899D01*
X116136885Y-38429007D01*
X116127634Y-38412985D01*
X116116878Y-38399878D01*
X116077085Y-38325431D01*
X116042809Y-38266063D01*
X116038866Y-38253928D01*
X116033731Y-38244321D01*
X116005421Y-38150996D01*
X115984667Y-38087121D01*
X115983936Y-38080169D01*
X115982530Y-38075533D01*
X115968832Y-37936466D01*
X115965000Y-37900000D01*
X115968832Y-37863536D01*
X115982530Y-37724466D01*
X115983936Y-37719829D01*
X115984667Y-37712879D01*
X116005416Y-37649017D01*
X116033731Y-37555678D01*
X116038866Y-37546069D01*
X116042809Y-37533937D01*
X116077078Y-37474581D01*
X116116878Y-37400121D01*
X116127636Y-37387011D01*
X116136885Y-37370993D01*
X116180898Y-37322110D01*
X116228774Y-37263774D01*
X116246590Y-37249152D01*
X116262782Y-37231170D01*
X116312657Y-37194933D01*
X116365121Y-37151878D01*
X116390836Y-37138132D01*
X116415000Y-37120577D01*
X116466970Y-37097438D01*
X116520678Y-37068731D01*
X116554474Y-37058478D01*
X116586885Y-37044049D01*
X116637535Y-37033282D01*
X116689466Y-37017530D01*
X116730798Y-37013459D01*
X116770924Y-37004930D01*
X116817393Y-37004930D01*
X116865000Y-37000241D01*
X116912607Y-37004930D01*
G37*
G36*
X106150807Y-34562330D02*
G01*
X106197276Y-34562330D01*
X106237402Y-34570859D01*
X106278733Y-34574930D01*
X106330660Y-34590682D01*
X106381315Y-34601449D01*
X106413727Y-34615879D01*
X106447521Y-34626131D01*
X106501223Y-34654835D01*
X106553200Y-34677977D01*
X106577365Y-34695534D01*
X106603078Y-34709278D01*
X106655533Y-34752327D01*
X106705418Y-34788570D01*
X106721612Y-34806555D01*
X106739425Y-34821174D01*
X106787289Y-34879497D01*
X106831315Y-34928393D01*
X106840565Y-34944415D01*
X106851321Y-34957521D01*
X106891108Y-35031957D01*
X106925391Y-35091337D01*
X106929334Y-35103474D01*
X106934468Y-35113078D01*
X106962768Y-35206371D01*
X106983533Y-35270279D01*
X106984264Y-35277234D01*
X106985669Y-35281866D01*
X106999351Y-35420785D01*
X107003200Y-35457400D01*
X106999351Y-35494017D01*
X106985669Y-35632933D01*
X106984264Y-35637564D01*
X106983533Y-35644521D01*
X106962763Y-35708442D01*
X106934468Y-35801721D01*
X106929335Y-35811323D01*
X106925391Y-35823463D01*
X106891101Y-35882854D01*
X106851321Y-35957278D01*
X106840567Y-35970381D01*
X106831315Y-35986407D01*
X106787280Y-36035312D01*
X106739425Y-36093625D01*
X106721615Y-36108240D01*
X106705418Y-36126230D01*
X106655523Y-36162480D01*
X106603078Y-36205521D01*
X106577371Y-36219261D01*
X106553200Y-36236823D01*
X106501212Y-36259969D01*
X106447521Y-36288668D01*
X106413734Y-36298917D01*
X106381315Y-36313351D01*
X106330649Y-36324120D01*
X106278733Y-36339869D01*
X106237410Y-36343938D01*
X106197276Y-36352470D01*
X106150797Y-36352470D01*
X106103200Y-36357158D01*
X106055603Y-36352470D01*
X106009124Y-36352470D01*
X105968989Y-36343939D01*
X105927666Y-36339869D01*
X105875746Y-36324119D01*
X105825085Y-36313351D01*
X105792667Y-36298917D01*
X105758878Y-36288668D01*
X105705181Y-36259966D01*
X105653200Y-36236823D01*
X105629031Y-36219263D01*
X105603321Y-36205521D01*
X105550867Y-36162474D01*
X105500982Y-36126230D01*
X105484787Y-36108243D01*
X105466974Y-36093625D01*
X105419108Y-36035299D01*
X105375085Y-35986407D01*
X105365834Y-35970385D01*
X105355078Y-35957278D01*
X105315285Y-35882831D01*
X105281009Y-35823463D01*
X105277066Y-35811328D01*
X105271931Y-35801721D01*
X105243621Y-35708396D01*
X105222867Y-35644521D01*
X105222136Y-35637569D01*
X105220730Y-35632933D01*
X105207032Y-35493866D01*
X105203200Y-35457400D01*
X105207032Y-35420936D01*
X105220730Y-35281866D01*
X105222136Y-35277229D01*
X105222867Y-35270279D01*
X105243616Y-35206417D01*
X105271931Y-35113078D01*
X105277066Y-35103469D01*
X105281009Y-35091337D01*
X105315278Y-35031981D01*
X105355078Y-34957521D01*
X105365836Y-34944411D01*
X105375085Y-34928393D01*
X105419098Y-34879510D01*
X105466974Y-34821174D01*
X105484790Y-34806552D01*
X105500982Y-34788570D01*
X105550857Y-34752333D01*
X105603321Y-34709278D01*
X105629036Y-34695532D01*
X105653200Y-34677977D01*
X105705170Y-34654838D01*
X105758878Y-34626131D01*
X105792674Y-34615878D01*
X105825085Y-34601449D01*
X105875735Y-34590682D01*
X105927666Y-34574930D01*
X105968998Y-34570859D01*
X106009124Y-34562330D01*
X106055593Y-34562330D01*
X106103200Y-34557641D01*
X106150807Y-34562330D01*
G37*
G36*
X108690807Y-34562330D02*
G01*
X108737276Y-34562330D01*
X108777402Y-34570859D01*
X108818733Y-34574930D01*
X108870660Y-34590682D01*
X108921315Y-34601449D01*
X108953727Y-34615879D01*
X108987521Y-34626131D01*
X109041223Y-34654835D01*
X109093200Y-34677977D01*
X109117365Y-34695534D01*
X109143078Y-34709278D01*
X109195533Y-34752327D01*
X109245418Y-34788570D01*
X109261612Y-34806555D01*
X109279425Y-34821174D01*
X109327289Y-34879497D01*
X109371315Y-34928393D01*
X109380565Y-34944415D01*
X109391321Y-34957521D01*
X109431108Y-35031957D01*
X109465391Y-35091337D01*
X109469334Y-35103474D01*
X109474468Y-35113078D01*
X109502768Y-35206371D01*
X109523533Y-35270279D01*
X109524264Y-35277234D01*
X109525669Y-35281866D01*
X109539351Y-35420785D01*
X109543200Y-35457400D01*
X109539351Y-35494017D01*
X109525669Y-35632933D01*
X109524264Y-35637564D01*
X109523533Y-35644521D01*
X109502763Y-35708442D01*
X109474468Y-35801721D01*
X109469335Y-35811323D01*
X109465391Y-35823463D01*
X109431101Y-35882854D01*
X109391321Y-35957278D01*
X109380567Y-35970381D01*
X109371315Y-35986407D01*
X109327280Y-36035312D01*
X109279425Y-36093625D01*
X109261615Y-36108240D01*
X109245418Y-36126230D01*
X109195523Y-36162480D01*
X109143078Y-36205521D01*
X109117371Y-36219261D01*
X109093200Y-36236823D01*
X109041212Y-36259969D01*
X108987521Y-36288668D01*
X108953734Y-36298917D01*
X108921315Y-36313351D01*
X108870649Y-36324120D01*
X108818733Y-36339869D01*
X108777410Y-36343938D01*
X108737276Y-36352470D01*
X108690797Y-36352470D01*
X108643200Y-36357158D01*
X108595603Y-36352470D01*
X108549124Y-36352470D01*
X108508989Y-36343939D01*
X108467666Y-36339869D01*
X108415746Y-36324119D01*
X108365085Y-36313351D01*
X108332667Y-36298917D01*
X108298878Y-36288668D01*
X108245181Y-36259966D01*
X108193200Y-36236823D01*
X108169031Y-36219263D01*
X108143321Y-36205521D01*
X108090867Y-36162474D01*
X108040982Y-36126230D01*
X108024787Y-36108243D01*
X108006974Y-36093625D01*
X107959108Y-36035299D01*
X107915085Y-35986407D01*
X107905834Y-35970385D01*
X107895078Y-35957278D01*
X107855285Y-35882831D01*
X107821009Y-35823463D01*
X107817066Y-35811328D01*
X107811931Y-35801721D01*
X107783621Y-35708396D01*
X107762867Y-35644521D01*
X107762136Y-35637569D01*
X107760730Y-35632933D01*
X107747032Y-35493866D01*
X107743200Y-35457400D01*
X107747032Y-35420936D01*
X107760730Y-35281866D01*
X107762136Y-35277229D01*
X107762867Y-35270279D01*
X107783616Y-35206417D01*
X107811931Y-35113078D01*
X107817066Y-35103469D01*
X107821009Y-35091337D01*
X107855278Y-35031981D01*
X107895078Y-34957521D01*
X107905836Y-34944411D01*
X107915085Y-34928393D01*
X107959098Y-34879510D01*
X108006974Y-34821174D01*
X108024790Y-34806552D01*
X108040982Y-34788570D01*
X108090857Y-34752333D01*
X108143321Y-34709278D01*
X108169036Y-34695532D01*
X108193200Y-34677977D01*
X108245170Y-34654838D01*
X108298878Y-34626131D01*
X108332674Y-34615878D01*
X108365085Y-34601449D01*
X108415735Y-34590682D01*
X108467666Y-34574930D01*
X108508998Y-34570859D01*
X108549124Y-34562330D01*
X108595593Y-34562330D01*
X108643200Y-34557641D01*
X108690807Y-34562330D01*
G37*
G36*
X114372607Y-34464930D02*
G01*
X114419076Y-34464930D01*
X114459202Y-34473459D01*
X114500533Y-34477530D01*
X114552460Y-34493282D01*
X114603115Y-34504049D01*
X114635527Y-34518479D01*
X114669321Y-34528731D01*
X114723023Y-34557435D01*
X114775000Y-34580577D01*
X114799165Y-34598134D01*
X114824878Y-34611878D01*
X114877333Y-34654927D01*
X114927218Y-34691170D01*
X114943412Y-34709155D01*
X114961225Y-34723774D01*
X115009089Y-34782097D01*
X115053115Y-34830993D01*
X115062365Y-34847015D01*
X115073121Y-34860121D01*
X115112908Y-34934557D01*
X115147191Y-34993937D01*
X115151134Y-35006074D01*
X115156268Y-35015678D01*
X115184568Y-35108971D01*
X115205333Y-35172879D01*
X115206064Y-35179834D01*
X115207469Y-35184466D01*
X115221151Y-35323385D01*
X115225000Y-35360000D01*
X115221151Y-35396617D01*
X115207469Y-35535533D01*
X115206064Y-35540164D01*
X115205333Y-35547121D01*
X115184563Y-35611042D01*
X115156268Y-35704321D01*
X115151135Y-35713923D01*
X115147191Y-35726063D01*
X115112901Y-35785454D01*
X115073121Y-35859878D01*
X115062367Y-35872981D01*
X115053115Y-35889007D01*
X115009080Y-35937912D01*
X114961225Y-35996225D01*
X114943415Y-36010840D01*
X114927218Y-36028830D01*
X114877323Y-36065080D01*
X114824878Y-36108121D01*
X114799171Y-36121861D01*
X114775000Y-36139423D01*
X114723012Y-36162569D01*
X114669321Y-36191268D01*
X114635534Y-36201517D01*
X114603115Y-36215951D01*
X114552449Y-36226720D01*
X114500533Y-36242469D01*
X114459210Y-36246538D01*
X114419076Y-36255070D01*
X114372597Y-36255070D01*
X114325000Y-36259758D01*
X114277403Y-36255070D01*
X114230924Y-36255070D01*
X114190789Y-36246539D01*
X114149466Y-36242469D01*
X114097546Y-36226719D01*
X114046885Y-36215951D01*
X114014467Y-36201517D01*
X113980678Y-36191268D01*
X113926981Y-36162566D01*
X113875000Y-36139423D01*
X113850831Y-36121863D01*
X113825121Y-36108121D01*
X113772667Y-36065074D01*
X113722782Y-36028830D01*
X113706587Y-36010843D01*
X113688774Y-35996225D01*
X113640908Y-35937899D01*
X113596885Y-35889007D01*
X113587634Y-35872985D01*
X113576878Y-35859878D01*
X113537085Y-35785431D01*
X113502809Y-35726063D01*
X113498866Y-35713928D01*
X113493731Y-35704321D01*
X113465421Y-35610996D01*
X113444667Y-35547121D01*
X113443936Y-35540169D01*
X113442530Y-35535533D01*
X113428832Y-35396466D01*
X113425000Y-35360000D01*
X113428832Y-35323536D01*
X113442530Y-35184466D01*
X113443936Y-35179829D01*
X113444667Y-35172879D01*
X113465416Y-35109017D01*
X113493731Y-35015678D01*
X113498866Y-35006069D01*
X113502809Y-34993937D01*
X113537078Y-34934581D01*
X113576878Y-34860121D01*
X113587636Y-34847011D01*
X113596885Y-34830993D01*
X113640898Y-34782110D01*
X113688774Y-34723774D01*
X113706590Y-34709152D01*
X113722782Y-34691170D01*
X113772657Y-34654933D01*
X113825121Y-34611878D01*
X113850836Y-34598132D01*
X113875000Y-34580577D01*
X113926970Y-34557438D01*
X113980678Y-34528731D01*
X114014474Y-34518478D01*
X114046885Y-34504049D01*
X114097535Y-34493282D01*
X114149466Y-34477530D01*
X114190798Y-34473459D01*
X114230924Y-34464930D01*
X114277393Y-34464930D01*
X114325000Y-34460241D01*
X114372607Y-34464930D01*
G37*
G36*
X116912607Y-34464930D02*
G01*
X116959076Y-34464930D01*
X116999202Y-34473459D01*
X117040533Y-34477530D01*
X117092460Y-34493282D01*
X117143115Y-34504049D01*
X117175527Y-34518479D01*
X117209321Y-34528731D01*
X117263023Y-34557435D01*
X117315000Y-34580577D01*
X117339165Y-34598134D01*
X117364878Y-34611878D01*
X117417333Y-34654927D01*
X117467218Y-34691170D01*
X117483412Y-34709155D01*
X117501225Y-34723774D01*
X117549089Y-34782097D01*
X117593115Y-34830993D01*
X117602365Y-34847015D01*
X117613121Y-34860121D01*
X117652908Y-34934557D01*
X117687191Y-34993937D01*
X117691134Y-35006074D01*
X117696268Y-35015678D01*
X117724568Y-35108971D01*
X117745333Y-35172879D01*
X117746064Y-35179834D01*
X117747469Y-35184466D01*
X117761151Y-35323385D01*
X117765000Y-35360000D01*
X117761151Y-35396617D01*
X117747469Y-35535533D01*
X117746064Y-35540164D01*
X117745333Y-35547121D01*
X117724563Y-35611042D01*
X117696268Y-35704321D01*
X117691135Y-35713923D01*
X117687191Y-35726063D01*
X117652901Y-35785454D01*
X117613121Y-35859878D01*
X117602367Y-35872981D01*
X117593115Y-35889007D01*
X117549080Y-35937912D01*
X117501225Y-35996225D01*
X117483415Y-36010840D01*
X117467218Y-36028830D01*
X117417323Y-36065080D01*
X117364878Y-36108121D01*
X117339171Y-36121861D01*
X117315000Y-36139423D01*
X117263012Y-36162569D01*
X117209321Y-36191268D01*
X117175534Y-36201517D01*
X117143115Y-36215951D01*
X117092449Y-36226720D01*
X117040533Y-36242469D01*
X116999210Y-36246538D01*
X116959076Y-36255070D01*
X116912597Y-36255070D01*
X116865000Y-36259758D01*
X116817403Y-36255070D01*
X116770924Y-36255070D01*
X116730789Y-36246539D01*
X116689466Y-36242469D01*
X116637546Y-36226719D01*
X116586885Y-36215951D01*
X116554467Y-36201517D01*
X116520678Y-36191268D01*
X116466981Y-36162566D01*
X116415000Y-36139423D01*
X116390831Y-36121863D01*
X116365121Y-36108121D01*
X116312667Y-36065074D01*
X116262782Y-36028830D01*
X116246587Y-36010843D01*
X116228774Y-35996225D01*
X116180908Y-35937899D01*
X116136885Y-35889007D01*
X116127634Y-35872985D01*
X116116878Y-35859878D01*
X116077085Y-35785431D01*
X116042809Y-35726063D01*
X116038866Y-35713928D01*
X116033731Y-35704321D01*
X116005421Y-35610996D01*
X115984667Y-35547121D01*
X115983936Y-35540169D01*
X115982530Y-35535533D01*
X115968832Y-35396466D01*
X115965000Y-35360000D01*
X115968832Y-35323536D01*
X115982530Y-35184466D01*
X115983936Y-35179829D01*
X115984667Y-35172879D01*
X116005416Y-35109017D01*
X116033731Y-35015678D01*
X116038866Y-35006069D01*
X116042809Y-34993937D01*
X116077078Y-34934581D01*
X116116878Y-34860121D01*
X116127636Y-34847011D01*
X116136885Y-34830993D01*
X116180898Y-34782110D01*
X116228774Y-34723774D01*
X116246590Y-34709152D01*
X116262782Y-34691170D01*
X116312657Y-34654933D01*
X116365121Y-34611878D01*
X116390836Y-34598132D01*
X116415000Y-34580577D01*
X116466970Y-34557438D01*
X116520678Y-34528731D01*
X116554474Y-34518478D01*
X116586885Y-34504049D01*
X116637535Y-34493282D01*
X116689466Y-34477530D01*
X116730798Y-34473459D01*
X116770924Y-34464930D01*
X116817393Y-34464930D01*
X116865000Y-34460241D01*
X116912607Y-34464930D01*
G37*
G36*
X87125791Y-29745758D02*
G01*
X87469467Y-29821407D01*
X87802949Y-29933770D01*
X88122327Y-30081530D01*
X88423858Y-30262955D01*
X88704005Y-30475917D01*
X88959485Y-30717921D01*
X89187302Y-30986128D01*
X89384786Y-31277394D01*
X89549620Y-31588304D01*
X89679873Y-31915214D01*
X89774017Y-32254290D01*
X89830948Y-32601557D01*
X89850000Y-32952944D01*
X89830948Y-33304331D01*
X89774017Y-33651598D01*
X89679873Y-33990674D01*
X89549620Y-34317584D01*
X89384786Y-34628494D01*
X89187302Y-34919760D01*
X88959485Y-35187967D01*
X88704005Y-35429971D01*
X88423858Y-35642933D01*
X88122327Y-35824358D01*
X87802949Y-35972118D01*
X87469467Y-36084481D01*
X87125791Y-36160130D01*
X86775951Y-36198178D01*
X86424049Y-36198178D01*
X86074209Y-36160130D01*
X85730533Y-36084481D01*
X85397051Y-35972118D01*
X85077673Y-35824358D01*
X84776142Y-35642933D01*
X84495995Y-35429971D01*
X84240515Y-35187967D01*
X84012698Y-34919760D01*
X83815214Y-34628494D01*
X83650380Y-34317584D01*
X83520127Y-33990674D01*
X83425983Y-33651598D01*
X83369052Y-33304331D01*
X83350000Y-32952944D01*
X83369052Y-32601557D01*
X83425983Y-32254290D01*
X83520127Y-31915214D01*
X83650380Y-31588304D01*
X83815214Y-31277394D01*
X84012698Y-30986128D01*
X84240515Y-30717921D01*
X84495995Y-30475917D01*
X84776142Y-30262955D01*
X85077673Y-30081530D01*
X85397051Y-29933770D01*
X85730533Y-29821407D01*
X86074209Y-29745758D01*
X86424049Y-29707710D01*
X86775951Y-29707710D01*
X87125791Y-29745758D01*
G37*
G36*
X106972334Y-32021206D02*
G01*
X106988555Y-32032045D01*
X106999394Y-32048266D01*
X107003200Y-32067400D01*
X107003200Y-33767400D01*
X106999394Y-33786534D01*
X106988555Y-33802755D01*
X106972334Y-33813594D01*
X106953200Y-33817400D01*
X105253200Y-33817400D01*
X105234066Y-33813594D01*
X105217845Y-33802755D01*
X105207006Y-33786534D01*
X105203200Y-33767400D01*
X105203200Y-32067400D01*
X105207006Y-32048266D01*
X105217845Y-32032045D01*
X105234066Y-32021206D01*
X105253200Y-32017400D01*
X106953200Y-32017400D01*
X106972334Y-32021206D01*
G37*
G36*
X108690807Y-32022330D02*
G01*
X108737276Y-32022330D01*
X108777402Y-32030859D01*
X108818733Y-32034930D01*
X108870660Y-32050682D01*
X108921315Y-32061449D01*
X108953727Y-32075879D01*
X108987521Y-32086131D01*
X109041223Y-32114835D01*
X109093200Y-32137977D01*
X109117365Y-32155534D01*
X109143078Y-32169278D01*
X109195533Y-32212327D01*
X109245418Y-32248570D01*
X109261612Y-32266555D01*
X109279425Y-32281174D01*
X109327289Y-32339497D01*
X109371315Y-32388393D01*
X109380565Y-32404415D01*
X109391321Y-32417521D01*
X109431108Y-32491957D01*
X109465391Y-32551337D01*
X109469334Y-32563474D01*
X109474468Y-32573078D01*
X109502768Y-32666371D01*
X109523533Y-32730279D01*
X109524264Y-32737234D01*
X109525669Y-32741866D01*
X109539351Y-32880785D01*
X109543200Y-32917400D01*
X109539351Y-32954017D01*
X109525669Y-33092933D01*
X109524264Y-33097564D01*
X109523533Y-33104521D01*
X109502763Y-33168442D01*
X109474468Y-33261721D01*
X109469335Y-33271323D01*
X109465391Y-33283463D01*
X109431101Y-33342854D01*
X109391321Y-33417278D01*
X109380567Y-33430381D01*
X109371315Y-33446407D01*
X109327280Y-33495312D01*
X109279425Y-33553625D01*
X109261615Y-33568240D01*
X109245418Y-33586230D01*
X109195523Y-33622480D01*
X109143078Y-33665521D01*
X109117371Y-33679261D01*
X109093200Y-33696823D01*
X109041212Y-33719969D01*
X108987521Y-33748668D01*
X108953734Y-33758917D01*
X108921315Y-33773351D01*
X108870649Y-33784120D01*
X108818733Y-33799869D01*
X108777410Y-33803938D01*
X108737276Y-33812470D01*
X108690797Y-33812470D01*
X108643200Y-33817158D01*
X108595603Y-33812470D01*
X108549124Y-33812470D01*
X108508989Y-33803939D01*
X108467666Y-33799869D01*
X108415746Y-33784119D01*
X108365085Y-33773351D01*
X108332667Y-33758917D01*
X108298878Y-33748668D01*
X108245181Y-33719966D01*
X108193200Y-33696823D01*
X108169031Y-33679263D01*
X108143321Y-33665521D01*
X108090867Y-33622474D01*
X108040982Y-33586230D01*
X108024787Y-33568243D01*
X108006974Y-33553625D01*
X107959108Y-33495299D01*
X107915085Y-33446407D01*
X107905834Y-33430385D01*
X107895078Y-33417278D01*
X107855285Y-33342831D01*
X107821009Y-33283463D01*
X107817066Y-33271328D01*
X107811931Y-33261721D01*
X107783621Y-33168396D01*
X107762867Y-33104521D01*
X107762136Y-33097569D01*
X107760730Y-33092933D01*
X107747032Y-32953866D01*
X107743200Y-32917400D01*
X107747032Y-32880936D01*
X107760730Y-32741866D01*
X107762136Y-32737229D01*
X107762867Y-32730279D01*
X107783616Y-32666417D01*
X107811931Y-32573078D01*
X107817066Y-32563469D01*
X107821009Y-32551337D01*
X107855278Y-32491981D01*
X107895078Y-32417521D01*
X107905836Y-32404411D01*
X107915085Y-32388393D01*
X107959098Y-32339510D01*
X108006974Y-32281174D01*
X108024790Y-32266552D01*
X108040982Y-32248570D01*
X108090857Y-32212333D01*
X108143321Y-32169278D01*
X108169036Y-32155532D01*
X108193200Y-32137977D01*
X108245170Y-32114838D01*
X108298878Y-32086131D01*
X108332674Y-32075878D01*
X108365085Y-32061449D01*
X108415735Y-32050682D01*
X108467666Y-32034930D01*
X108508998Y-32030859D01*
X108549124Y-32022330D01*
X108595593Y-32022330D01*
X108643200Y-32017641D01*
X108690807Y-32022330D01*
G37*
G36*
X115194134Y-31923806D02*
G01*
X115210355Y-31934645D01*
X115221194Y-31950866D01*
X115225000Y-31970000D01*
X115225000Y-33670000D01*
X115221194Y-33689134D01*
X115210355Y-33705355D01*
X115194134Y-33716194D01*
X115175000Y-33720000D01*
X113475000Y-33720000D01*
X113455866Y-33716194D01*
X113439645Y-33705355D01*
X113428806Y-33689134D01*
X113425000Y-33670000D01*
X113425000Y-31970000D01*
X113428806Y-31950866D01*
X113439645Y-31934645D01*
X113455866Y-31923806D01*
X113475000Y-31920000D01*
X115175000Y-31920000D01*
X115194134Y-31923806D01*
G37*
G36*
X116912607Y-31924930D02*
G01*
X116959076Y-31924930D01*
X116999202Y-31933459D01*
X117040533Y-31937530D01*
X117092460Y-31953282D01*
X117143115Y-31964049D01*
X117175527Y-31978479D01*
X117209321Y-31988731D01*
X117263023Y-32017435D01*
X117315000Y-32040577D01*
X117339165Y-32058134D01*
X117364878Y-32071878D01*
X117417333Y-32114927D01*
X117467218Y-32151170D01*
X117483412Y-32169155D01*
X117501225Y-32183774D01*
X117549089Y-32242097D01*
X117593115Y-32290993D01*
X117602365Y-32307015D01*
X117613121Y-32320121D01*
X117652908Y-32394557D01*
X117687191Y-32453937D01*
X117691134Y-32466074D01*
X117696268Y-32475678D01*
X117724568Y-32568971D01*
X117745333Y-32632879D01*
X117746064Y-32639834D01*
X117747469Y-32644466D01*
X117761151Y-32783385D01*
X117765000Y-32820000D01*
X117761151Y-32856617D01*
X117747469Y-32995533D01*
X117746064Y-33000164D01*
X117745333Y-33007121D01*
X117724563Y-33071042D01*
X117696268Y-33164321D01*
X117691135Y-33173923D01*
X117687191Y-33186063D01*
X117652901Y-33245454D01*
X117613121Y-33319878D01*
X117602367Y-33332981D01*
X117593115Y-33349007D01*
X117549080Y-33397912D01*
X117501225Y-33456225D01*
X117483415Y-33470840D01*
X117467218Y-33488830D01*
X117417323Y-33525080D01*
X117364878Y-33568121D01*
X117339171Y-33581861D01*
X117315000Y-33599423D01*
X117263012Y-33622569D01*
X117209321Y-33651268D01*
X117175534Y-33661517D01*
X117143115Y-33675951D01*
X117092449Y-33686720D01*
X117040533Y-33702469D01*
X116999210Y-33706538D01*
X116959076Y-33715070D01*
X116912597Y-33715070D01*
X116865000Y-33719758D01*
X116817403Y-33715070D01*
X116770924Y-33715070D01*
X116730789Y-33706539D01*
X116689466Y-33702469D01*
X116637546Y-33686719D01*
X116586885Y-33675951D01*
X116554467Y-33661517D01*
X116520678Y-33651268D01*
X116466981Y-33622566D01*
X116415000Y-33599423D01*
X116390831Y-33581863D01*
X116365121Y-33568121D01*
X116312667Y-33525074D01*
X116262782Y-33488830D01*
X116246587Y-33470843D01*
X116228774Y-33456225D01*
X116180908Y-33397899D01*
X116136885Y-33349007D01*
X116127634Y-33332985D01*
X116116878Y-33319878D01*
X116077085Y-33245431D01*
X116042809Y-33186063D01*
X116038866Y-33173928D01*
X116033731Y-33164321D01*
X116005421Y-33070996D01*
X115984667Y-33007121D01*
X115983936Y-33000169D01*
X115982530Y-32995533D01*
X115968832Y-32856466D01*
X115965000Y-32820000D01*
X115968832Y-32783536D01*
X115982530Y-32644466D01*
X115983936Y-32639829D01*
X115984667Y-32632879D01*
X116005416Y-32569017D01*
X116033731Y-32475678D01*
X116038866Y-32466069D01*
X116042809Y-32453937D01*
X116077078Y-32394581D01*
X116116878Y-32320121D01*
X116127636Y-32307011D01*
X116136885Y-32290993D01*
X116180898Y-32242110D01*
X116228774Y-32183774D01*
X116246590Y-32169152D01*
X116262782Y-32151170D01*
X116312657Y-32114933D01*
X116365121Y-32071878D01*
X116390836Y-32058132D01*
X116415000Y-32040577D01*
X116466970Y-32017438D01*
X116520678Y-31988731D01*
X116554474Y-31978478D01*
X116586885Y-31964049D01*
X116637535Y-31953282D01*
X116689466Y-31937530D01*
X116730798Y-31933459D01*
X116770924Y-31924930D01*
X116817393Y-31924930D01*
X116865000Y-31920241D01*
X116912607Y-31924930D01*
G37*
M02*
