%TF.GenerationSoftware,KiCad,Pcbnew,8.0.1*%
%TF.CreationDate,2024-06-02T10:18:44+08:00*%
%TF.ProjectId,CrazyPowerboard,4372617a-7950-46f7-9765-72626f617264,rev?*%
%TF.SameCoordinates,Original*%
%TF.FileFunction,Legend,Bot*%
%TF.FilePolarity,Positive*%
%FSLAX46Y46*%
G04 Gerber Fmt 4.6, Leading zero omitted, Abs format (unit mm)*
G04 Created by KiCad (PCBNEW 8.0.1) date 2024-06-02 10:18:44*
%MOMM*%
%LPD*%
G01*
G04 APERTURE LIST*
%ADD10C,0.240000*%
%ADD11C,0.400000*%
%ADD12C,0.150000*%
%ADD13C,0.200000*%
G04 APERTURE END LIST*
D10*
X105127820Y-82875377D02*
X104413534Y-82875377D01*
X105199248Y-83232520D02*
X104342106Y-83232520D01*
X103770677Y-83303948D02*
X103484963Y-83303948D01*
X104770677Y-83661091D02*
X104342106Y-83661091D01*
X104199248Y-84018234D02*
X103484963Y-84018234D01*
X104199248Y-83446805D02*
X104199248Y-84018234D01*
X104199248Y-83446805D02*
X103484963Y-83446805D01*
X103484963Y-83446805D02*
X103484963Y-84018234D01*
X105056391Y-83518234D02*
X105127820Y-84303948D01*
X104270677Y-82732520D02*
X103413534Y-82732520D01*
X103413534Y-82732520D02*
X103484963Y-83232520D01*
X103913534Y-82732520D02*
X103984963Y-83089662D01*
X103984963Y-83089662D02*
X104199248Y-83303948D01*
X105127820Y-83875377D02*
X104699248Y-84232520D01*
X104699248Y-84232520D02*
X104199248Y-84303948D01*
X104199248Y-84303948D02*
X103342106Y-84303948D01*
X104699248Y-82589662D02*
X104699248Y-84232520D01*
X101699248Y-83803948D02*
X101199248Y-84303948D01*
X102413534Y-83089662D02*
X102556391Y-83303948D01*
X102556391Y-83303948D02*
X102984962Y-83732520D01*
X101984962Y-82732520D02*
X101984962Y-83303948D01*
X101984962Y-83303948D02*
X101627820Y-83946805D01*
X102627820Y-82589662D02*
X102842105Y-83232520D01*
X101627820Y-83375377D02*
X101199248Y-83303948D01*
X101199248Y-83303948D02*
X101484962Y-83875377D01*
X101484962Y-83875377D02*
X101770677Y-84161091D01*
X101770677Y-84161091D02*
X102127820Y-84303948D01*
X102056391Y-83446805D02*
X102270677Y-84232520D01*
X102199248Y-82732520D02*
X101413534Y-82732520D01*
X101413534Y-82732520D02*
X101627820Y-83303948D01*
X102342105Y-83661091D02*
X102984962Y-83732520D01*
X102342105Y-83946805D02*
X102984962Y-84089662D01*
X102484962Y-83232520D02*
X102984962Y-83303948D01*
X101984962Y-83089662D02*
X102127820Y-84018234D01*
X100770676Y-83375377D02*
X99127819Y-83375377D01*
X100770676Y-83803948D02*
X99127819Y-83803948D01*
X99913534Y-84303948D02*
X98984962Y-84303948D01*
X100770676Y-82875377D02*
X100770676Y-83946805D01*
X99913534Y-82589662D02*
X99913534Y-84303948D01*
X100770676Y-82875377D02*
X99127819Y-82875377D01*
X99127819Y-82875377D02*
X99127819Y-83803948D01*
X98913534Y-83946805D02*
X98984962Y-84303948D01*
X97913533Y-82661091D02*
X96699248Y-82661091D01*
X97699248Y-83303948D02*
X96842105Y-83303948D01*
X97699248Y-83589662D02*
X96842105Y-83589662D01*
X97556390Y-84303948D02*
X97270676Y-84303948D01*
X97699248Y-83018234D02*
X97699248Y-83589662D01*
X97270676Y-82732520D02*
X97342105Y-83018234D01*
X97270676Y-83589662D02*
X97270676Y-84303948D01*
X97699248Y-83018234D02*
X96842105Y-83018234D01*
X96842105Y-83018234D02*
X96842105Y-83589662D01*
X96984962Y-83803948D02*
X96770676Y-84018234D01*
X97627819Y-83803948D02*
X97770676Y-84089662D01*
X98413533Y-82661091D02*
X98127819Y-82803948D01*
X98556390Y-83161091D02*
X98199248Y-83303948D01*
X98199248Y-83661091D02*
X98484962Y-84303948D01*
X97913533Y-82661091D02*
X97913533Y-83518234D01*
X97913533Y-83518234D02*
X98056390Y-84089662D01*
X95484962Y-82732520D02*
X94556390Y-82732520D01*
X96270676Y-83018234D02*
X95627819Y-83018234D01*
X95913533Y-82589662D02*
X95913533Y-84303948D01*
X95913533Y-83303948D02*
X95627819Y-83589662D01*
X95342104Y-83232520D02*
X95056390Y-83875377D01*
X95056390Y-83875377D02*
X94699247Y-84161091D01*
X94699247Y-84161091D02*
X94484962Y-84303948D01*
X95984962Y-83089662D02*
X96342104Y-83875377D01*
X95484962Y-83232520D02*
X94556390Y-83232520D01*
X94556390Y-83232520D02*
X94842104Y-83803948D01*
X94842104Y-83803948D02*
X95127819Y-84161091D01*
X95127819Y-84161091D02*
X95413533Y-84303948D01*
X95484962Y-82732520D02*
X95484962Y-83589662D01*
X95484962Y-83589662D02*
X95556390Y-84161091D01*
X98113534Y-85754948D02*
X98056391Y-85697805D01*
X98056391Y-85697805D02*
X97942106Y-85640662D01*
X97942106Y-85640662D02*
X97656391Y-85640662D01*
X97656391Y-85640662D02*
X97542106Y-85697805D01*
X97542106Y-85697805D02*
X97484963Y-85754948D01*
X97484963Y-85754948D02*
X97427820Y-85869234D01*
X97427820Y-85869234D02*
X97427820Y-85983520D01*
X97427820Y-85983520D02*
X97484963Y-86154948D01*
X97484963Y-86154948D02*
X98170677Y-86840662D01*
X98170677Y-86840662D02*
X97427820Y-86840662D01*
X96684963Y-85640662D02*
X96570677Y-85640662D01*
X96570677Y-85640662D02*
X96456391Y-85697805D01*
X96456391Y-85697805D02*
X96399249Y-85754948D01*
X96399249Y-85754948D02*
X96342106Y-85869234D01*
X96342106Y-85869234D02*
X96284963Y-86097805D01*
X96284963Y-86097805D02*
X96284963Y-86383520D01*
X96284963Y-86383520D02*
X96342106Y-86612091D01*
X96342106Y-86612091D02*
X96399249Y-86726377D01*
X96399249Y-86726377D02*
X96456391Y-86783520D01*
X96456391Y-86783520D02*
X96570677Y-86840662D01*
X96570677Y-86840662D02*
X96684963Y-86840662D01*
X96684963Y-86840662D02*
X96799249Y-86783520D01*
X96799249Y-86783520D02*
X96856391Y-86726377D01*
X96856391Y-86726377D02*
X96913534Y-86612091D01*
X96913534Y-86612091D02*
X96970677Y-86383520D01*
X96970677Y-86383520D02*
X96970677Y-86097805D01*
X96970677Y-86097805D02*
X96913534Y-85869234D01*
X96913534Y-85869234D02*
X96856391Y-85754948D01*
X96856391Y-85754948D02*
X96799249Y-85697805D01*
X96799249Y-85697805D02*
X96684963Y-85640662D01*
X95827820Y-85754948D02*
X95770677Y-85697805D01*
X95770677Y-85697805D02*
X95656392Y-85640662D01*
X95656392Y-85640662D02*
X95370677Y-85640662D01*
X95370677Y-85640662D02*
X95256392Y-85697805D01*
X95256392Y-85697805D02*
X95199249Y-85754948D01*
X95199249Y-85754948D02*
X95142106Y-85869234D01*
X95142106Y-85869234D02*
X95142106Y-85983520D01*
X95142106Y-85983520D02*
X95199249Y-86154948D01*
X95199249Y-86154948D02*
X95884963Y-86840662D01*
X95884963Y-86840662D02*
X95142106Y-86840662D01*
X94113535Y-86040662D02*
X94113535Y-86840662D01*
X94399249Y-85583520D02*
X94684963Y-86440662D01*
X94684963Y-86440662D02*
X93942106Y-86440662D01*
X92627820Y-85583520D02*
X93656392Y-87126377D01*
X91999249Y-85640662D02*
X91884963Y-85640662D01*
X91884963Y-85640662D02*
X91770677Y-85697805D01*
X91770677Y-85697805D02*
X91713535Y-85754948D01*
X91713535Y-85754948D02*
X91656392Y-85869234D01*
X91656392Y-85869234D02*
X91599249Y-86097805D01*
X91599249Y-86097805D02*
X91599249Y-86383520D01*
X91599249Y-86383520D02*
X91656392Y-86612091D01*
X91656392Y-86612091D02*
X91713535Y-86726377D01*
X91713535Y-86726377D02*
X91770677Y-86783520D01*
X91770677Y-86783520D02*
X91884963Y-86840662D01*
X91884963Y-86840662D02*
X91999249Y-86840662D01*
X91999249Y-86840662D02*
X92113535Y-86783520D01*
X92113535Y-86783520D02*
X92170677Y-86726377D01*
X92170677Y-86726377D02*
X92227820Y-86612091D01*
X92227820Y-86612091D02*
X92284963Y-86383520D01*
X92284963Y-86383520D02*
X92284963Y-86097805D01*
X92284963Y-86097805D02*
X92227820Y-85869234D01*
X92227820Y-85869234D02*
X92170677Y-85754948D01*
X92170677Y-85754948D02*
X92113535Y-85697805D01*
X92113535Y-85697805D02*
X91999249Y-85640662D01*
X90513535Y-85640662D02*
X91084963Y-85640662D01*
X91084963Y-85640662D02*
X91142106Y-86212091D01*
X91142106Y-86212091D02*
X91084963Y-86154948D01*
X91084963Y-86154948D02*
X90970678Y-86097805D01*
X90970678Y-86097805D02*
X90684963Y-86097805D01*
X90684963Y-86097805D02*
X90570678Y-86154948D01*
X90570678Y-86154948D02*
X90513535Y-86212091D01*
X90513535Y-86212091D02*
X90456392Y-86326377D01*
X90456392Y-86326377D02*
X90456392Y-86612091D01*
X90456392Y-86612091D02*
X90513535Y-86726377D01*
X90513535Y-86726377D02*
X90570678Y-86783520D01*
X90570678Y-86783520D02*
X90684963Y-86840662D01*
X90684963Y-86840662D02*
X90970678Y-86840662D01*
X90970678Y-86840662D02*
X91084963Y-86783520D01*
X91084963Y-86783520D02*
X91142106Y-86726377D01*
X88284963Y-85640662D02*
X87884963Y-86840662D01*
X87884963Y-86840662D02*
X87484963Y-85640662D01*
X87142106Y-85754948D02*
X87084963Y-85697805D01*
X87084963Y-85697805D02*
X86970678Y-85640662D01*
X86970678Y-85640662D02*
X86684963Y-85640662D01*
X86684963Y-85640662D02*
X86570678Y-85697805D01*
X86570678Y-85697805D02*
X86513535Y-85754948D01*
X86513535Y-85754948D02*
X86456392Y-85869234D01*
X86456392Y-85869234D02*
X86456392Y-85983520D01*
X86456392Y-85983520D02*
X86513535Y-86154948D01*
X86513535Y-86154948D02*
X87199249Y-86840662D01*
X87199249Y-86840662D02*
X86456392Y-86840662D01*
X85942106Y-86726377D02*
X85884963Y-86783520D01*
X85884963Y-86783520D02*
X85942106Y-86840662D01*
X85942106Y-86840662D02*
X85999249Y-86783520D01*
X85999249Y-86783520D02*
X85942106Y-86726377D01*
X85942106Y-86726377D02*
X85942106Y-86840662D01*
X84742106Y-86840662D02*
X85427820Y-86840662D01*
X85084963Y-86840662D02*
X85084963Y-85640662D01*
X85084963Y-85640662D02*
X85199249Y-85812091D01*
X85199249Y-85812091D02*
X85313534Y-85926377D01*
X85313534Y-85926377D02*
X85427820Y-85983520D01*
D11*
X111617795Y-81043961D02*
X111713033Y-81139200D01*
X111713033Y-81139200D02*
X111998747Y-81234438D01*
X111998747Y-81234438D02*
X112189223Y-81234438D01*
X112189223Y-81234438D02*
X112474938Y-81139200D01*
X112474938Y-81139200D02*
X112665414Y-80948723D01*
X112665414Y-80948723D02*
X112760652Y-80758247D01*
X112760652Y-80758247D02*
X112855890Y-80377295D01*
X112855890Y-80377295D02*
X112855890Y-80091580D01*
X112855890Y-80091580D02*
X112760652Y-79710628D01*
X112760652Y-79710628D02*
X112665414Y-79520152D01*
X112665414Y-79520152D02*
X112474938Y-79329676D01*
X112474938Y-79329676D02*
X112189223Y-79234438D01*
X112189223Y-79234438D02*
X111998747Y-79234438D01*
X111998747Y-79234438D02*
X111713033Y-79329676D01*
X111713033Y-79329676D02*
X111617795Y-79424914D01*
X110760652Y-81234438D02*
X110760652Y-79901104D01*
X110760652Y-80282057D02*
X110665414Y-80091580D01*
X110665414Y-80091580D02*
X110570176Y-79996342D01*
X110570176Y-79996342D02*
X110379700Y-79901104D01*
X110379700Y-79901104D02*
X110189223Y-79901104D01*
X108665414Y-81234438D02*
X108665414Y-80186819D01*
X108665414Y-80186819D02*
X108760652Y-79996342D01*
X108760652Y-79996342D02*
X108951128Y-79901104D01*
X108951128Y-79901104D02*
X109332081Y-79901104D01*
X109332081Y-79901104D02*
X109522557Y-79996342D01*
X108665414Y-81139200D02*
X108855890Y-81234438D01*
X108855890Y-81234438D02*
X109332081Y-81234438D01*
X109332081Y-81234438D02*
X109522557Y-81139200D01*
X109522557Y-81139200D02*
X109617795Y-80948723D01*
X109617795Y-80948723D02*
X109617795Y-80758247D01*
X109617795Y-80758247D02*
X109522557Y-80567771D01*
X109522557Y-80567771D02*
X109332081Y-80472533D01*
X109332081Y-80472533D02*
X108855890Y-80472533D01*
X108855890Y-80472533D02*
X108665414Y-80377295D01*
X107903509Y-79901104D02*
X106855890Y-79901104D01*
X106855890Y-79901104D02*
X107903509Y-81234438D01*
X107903509Y-81234438D02*
X106855890Y-81234438D01*
X106284461Y-79901104D02*
X105808271Y-81234438D01*
X105332080Y-79901104D02*
X105808271Y-81234438D01*
X105808271Y-81234438D02*
X105998747Y-81710628D01*
X105998747Y-81710628D02*
X106093985Y-81805866D01*
X106093985Y-81805866D02*
X106284461Y-81901104D01*
X104570175Y-81234438D02*
X104570175Y-79234438D01*
X104570175Y-79234438D02*
X103808270Y-79234438D01*
X103808270Y-79234438D02*
X103617794Y-79329676D01*
X103617794Y-79329676D02*
X103522556Y-79424914D01*
X103522556Y-79424914D02*
X103427318Y-79615390D01*
X103427318Y-79615390D02*
X103427318Y-79901104D01*
X103427318Y-79901104D02*
X103522556Y-80091580D01*
X103522556Y-80091580D02*
X103617794Y-80186819D01*
X103617794Y-80186819D02*
X103808270Y-80282057D01*
X103808270Y-80282057D02*
X104570175Y-80282057D01*
X102284461Y-81234438D02*
X102474937Y-81139200D01*
X102474937Y-81139200D02*
X102570175Y-81043961D01*
X102570175Y-81043961D02*
X102665413Y-80853485D01*
X102665413Y-80853485D02*
X102665413Y-80282057D01*
X102665413Y-80282057D02*
X102570175Y-80091580D01*
X102570175Y-80091580D02*
X102474937Y-79996342D01*
X102474937Y-79996342D02*
X102284461Y-79901104D01*
X102284461Y-79901104D02*
X101998746Y-79901104D01*
X101998746Y-79901104D02*
X101808270Y-79996342D01*
X101808270Y-79996342D02*
X101713032Y-80091580D01*
X101713032Y-80091580D02*
X101617794Y-80282057D01*
X101617794Y-80282057D02*
X101617794Y-80853485D01*
X101617794Y-80853485D02*
X101713032Y-81043961D01*
X101713032Y-81043961D02*
X101808270Y-81139200D01*
X101808270Y-81139200D02*
X101998746Y-81234438D01*
X101998746Y-81234438D02*
X102284461Y-81234438D01*
X100951127Y-79901104D02*
X100570175Y-81234438D01*
X100570175Y-81234438D02*
X100189222Y-80282057D01*
X100189222Y-80282057D02*
X99808270Y-81234438D01*
X99808270Y-81234438D02*
X99427318Y-79901104D01*
X97903508Y-81139200D02*
X98093984Y-81234438D01*
X98093984Y-81234438D02*
X98474937Y-81234438D01*
X98474937Y-81234438D02*
X98665413Y-81139200D01*
X98665413Y-81139200D02*
X98760651Y-80948723D01*
X98760651Y-80948723D02*
X98760651Y-80186819D01*
X98760651Y-80186819D02*
X98665413Y-79996342D01*
X98665413Y-79996342D02*
X98474937Y-79901104D01*
X98474937Y-79901104D02*
X98093984Y-79901104D01*
X98093984Y-79901104D02*
X97903508Y-79996342D01*
X97903508Y-79996342D02*
X97808270Y-80186819D01*
X97808270Y-80186819D02*
X97808270Y-80377295D01*
X97808270Y-80377295D02*
X98760651Y-80567771D01*
X96951127Y-81234438D02*
X96951127Y-79901104D01*
X96951127Y-80282057D02*
X96855889Y-80091580D01*
X96855889Y-80091580D02*
X96760651Y-79996342D01*
X96760651Y-79996342D02*
X96570175Y-79901104D01*
X96570175Y-79901104D02*
X96379698Y-79901104D01*
X95713032Y-81234438D02*
X95713032Y-79234438D01*
X95713032Y-79996342D02*
X95522556Y-79901104D01*
X95522556Y-79901104D02*
X95141603Y-79901104D01*
X95141603Y-79901104D02*
X94951127Y-79996342D01*
X94951127Y-79996342D02*
X94855889Y-80091580D01*
X94855889Y-80091580D02*
X94760651Y-80282057D01*
X94760651Y-80282057D02*
X94760651Y-80853485D01*
X94760651Y-80853485D02*
X94855889Y-81043961D01*
X94855889Y-81043961D02*
X94951127Y-81139200D01*
X94951127Y-81139200D02*
X95141603Y-81234438D01*
X95141603Y-81234438D02*
X95522556Y-81234438D01*
X95522556Y-81234438D02*
X95713032Y-81139200D01*
X93617794Y-81234438D02*
X93808270Y-81139200D01*
X93808270Y-81139200D02*
X93903508Y-81043961D01*
X93903508Y-81043961D02*
X93998746Y-80853485D01*
X93998746Y-80853485D02*
X93998746Y-80282057D01*
X93998746Y-80282057D02*
X93903508Y-80091580D01*
X93903508Y-80091580D02*
X93808270Y-79996342D01*
X93808270Y-79996342D02*
X93617794Y-79901104D01*
X93617794Y-79901104D02*
X93332079Y-79901104D01*
X93332079Y-79901104D02*
X93141603Y-79996342D01*
X93141603Y-79996342D02*
X93046365Y-80091580D01*
X93046365Y-80091580D02*
X92951127Y-80282057D01*
X92951127Y-80282057D02*
X92951127Y-80853485D01*
X92951127Y-80853485D02*
X93046365Y-81043961D01*
X93046365Y-81043961D02*
X93141603Y-81139200D01*
X93141603Y-81139200D02*
X93332079Y-81234438D01*
X93332079Y-81234438D02*
X93617794Y-81234438D01*
X91236841Y-81234438D02*
X91236841Y-80186819D01*
X91236841Y-80186819D02*
X91332079Y-79996342D01*
X91332079Y-79996342D02*
X91522555Y-79901104D01*
X91522555Y-79901104D02*
X91903508Y-79901104D01*
X91903508Y-79901104D02*
X92093984Y-79996342D01*
X91236841Y-81139200D02*
X91427317Y-81234438D01*
X91427317Y-81234438D02*
X91903508Y-81234438D01*
X91903508Y-81234438D02*
X92093984Y-81139200D01*
X92093984Y-81139200D02*
X92189222Y-80948723D01*
X92189222Y-80948723D02*
X92189222Y-80758247D01*
X92189222Y-80758247D02*
X92093984Y-80567771D01*
X92093984Y-80567771D02*
X91903508Y-80472533D01*
X91903508Y-80472533D02*
X91427317Y-80472533D01*
X91427317Y-80472533D02*
X91236841Y-80377295D01*
X90284460Y-81234438D02*
X90284460Y-79901104D01*
X90284460Y-80282057D02*
X90189222Y-80091580D01*
X90189222Y-80091580D02*
X90093984Y-79996342D01*
X90093984Y-79996342D02*
X89903508Y-79901104D01*
X89903508Y-79901104D02*
X89713031Y-79901104D01*
X88189222Y-81234438D02*
X88189222Y-79234438D01*
X88189222Y-81139200D02*
X88379698Y-81234438D01*
X88379698Y-81234438D02*
X88760651Y-81234438D01*
X88760651Y-81234438D02*
X88951127Y-81139200D01*
X88951127Y-81139200D02*
X89046365Y-81043961D01*
X89046365Y-81043961D02*
X89141603Y-80853485D01*
X89141603Y-80853485D02*
X89141603Y-80282057D01*
X89141603Y-80282057D02*
X89046365Y-80091580D01*
X89046365Y-80091580D02*
X88951127Y-79996342D01*
X88951127Y-79996342D02*
X88760651Y-79901104D01*
X88760651Y-79901104D02*
X88379698Y-79901104D01*
X88379698Y-79901104D02*
X88189222Y-79996342D01*
D12*
X93834875Y-29986779D02*
X92834875Y-29986779D01*
X92834875Y-29986779D02*
X92834875Y-30367731D01*
X92834875Y-30367731D02*
X92882494Y-30462969D01*
X92882494Y-30462969D02*
X92930113Y-30510588D01*
X92930113Y-30510588D02*
X93025351Y-30558207D01*
X93025351Y-30558207D02*
X93168208Y-30558207D01*
X93168208Y-30558207D02*
X93263446Y-30510588D01*
X93263446Y-30510588D02*
X93311065Y-30462969D01*
X93311065Y-30462969D02*
X93358684Y-30367731D01*
X93358684Y-30367731D02*
X93358684Y-29986779D01*
X93834875Y-31129636D02*
X93787256Y-31034398D01*
X93787256Y-31034398D02*
X93739636Y-30986779D01*
X93739636Y-30986779D02*
X93644398Y-30939160D01*
X93644398Y-30939160D02*
X93358684Y-30939160D01*
X93358684Y-30939160D02*
X93263446Y-30986779D01*
X93263446Y-30986779D02*
X93215827Y-31034398D01*
X93215827Y-31034398D02*
X93168208Y-31129636D01*
X93168208Y-31129636D02*
X93168208Y-31272493D01*
X93168208Y-31272493D02*
X93215827Y-31367731D01*
X93215827Y-31367731D02*
X93263446Y-31415350D01*
X93263446Y-31415350D02*
X93358684Y-31462969D01*
X93358684Y-31462969D02*
X93644398Y-31462969D01*
X93644398Y-31462969D02*
X93739636Y-31415350D01*
X93739636Y-31415350D02*
X93787256Y-31367731D01*
X93787256Y-31367731D02*
X93834875Y-31272493D01*
X93834875Y-31272493D02*
X93834875Y-31129636D01*
X93168208Y-31796303D02*
X93834875Y-31986779D01*
X93834875Y-31986779D02*
X93358684Y-32177255D01*
X93358684Y-32177255D02*
X93834875Y-32367731D01*
X93834875Y-32367731D02*
X93168208Y-32558207D01*
X93787256Y-33320112D02*
X93834875Y-33224874D01*
X93834875Y-33224874D02*
X93834875Y-33034398D01*
X93834875Y-33034398D02*
X93787256Y-32939160D01*
X93787256Y-32939160D02*
X93692017Y-32891541D01*
X93692017Y-32891541D02*
X93311065Y-32891541D01*
X93311065Y-32891541D02*
X93215827Y-32939160D01*
X93215827Y-32939160D02*
X93168208Y-33034398D01*
X93168208Y-33034398D02*
X93168208Y-33224874D01*
X93168208Y-33224874D02*
X93215827Y-33320112D01*
X93215827Y-33320112D02*
X93311065Y-33367731D01*
X93311065Y-33367731D02*
X93406303Y-33367731D01*
X93406303Y-33367731D02*
X93501541Y-32891541D01*
X93834875Y-33796303D02*
X93168208Y-33796303D01*
X93358684Y-33796303D02*
X93263446Y-33843922D01*
X93263446Y-33843922D02*
X93215827Y-33891541D01*
X93215827Y-33891541D02*
X93168208Y-33986779D01*
X93168208Y-33986779D02*
X93168208Y-34082017D01*
X93787256Y-35129637D02*
X93834875Y-35224875D01*
X93834875Y-35224875D02*
X93834875Y-35415351D01*
X93834875Y-35415351D02*
X93787256Y-35510589D01*
X93787256Y-35510589D02*
X93692017Y-35558208D01*
X93692017Y-35558208D02*
X93644398Y-35558208D01*
X93644398Y-35558208D02*
X93549160Y-35510589D01*
X93549160Y-35510589D02*
X93501541Y-35415351D01*
X93501541Y-35415351D02*
X93501541Y-35272494D01*
X93501541Y-35272494D02*
X93453922Y-35177256D01*
X93453922Y-35177256D02*
X93358684Y-35129637D01*
X93358684Y-35129637D02*
X93311065Y-35129637D01*
X93311065Y-35129637D02*
X93215827Y-35177256D01*
X93215827Y-35177256D02*
X93168208Y-35272494D01*
X93168208Y-35272494D02*
X93168208Y-35415351D01*
X93168208Y-35415351D02*
X93215827Y-35510589D01*
X93168208Y-35891542D02*
X93834875Y-36082018D01*
X93834875Y-36082018D02*
X93358684Y-36272494D01*
X93358684Y-36272494D02*
X93834875Y-36462970D01*
X93834875Y-36462970D02*
X93168208Y-36653446D01*
X93834875Y-37034399D02*
X93168208Y-37034399D01*
X92834875Y-37034399D02*
X92882494Y-36986780D01*
X92882494Y-36986780D02*
X92930113Y-37034399D01*
X92930113Y-37034399D02*
X92882494Y-37082018D01*
X92882494Y-37082018D02*
X92834875Y-37034399D01*
X92834875Y-37034399D02*
X92930113Y-37034399D01*
X93168208Y-37367732D02*
X93168208Y-37748684D01*
X92834875Y-37510589D02*
X93692017Y-37510589D01*
X93692017Y-37510589D02*
X93787256Y-37558208D01*
X93787256Y-37558208D02*
X93834875Y-37653446D01*
X93834875Y-37653446D02*
X93834875Y-37748684D01*
X93787256Y-38510589D02*
X93834875Y-38415351D01*
X93834875Y-38415351D02*
X93834875Y-38224875D01*
X93834875Y-38224875D02*
X93787256Y-38129637D01*
X93787256Y-38129637D02*
X93739636Y-38082018D01*
X93739636Y-38082018D02*
X93644398Y-38034399D01*
X93644398Y-38034399D02*
X93358684Y-38034399D01*
X93358684Y-38034399D02*
X93263446Y-38082018D01*
X93263446Y-38082018D02*
X93215827Y-38129637D01*
X93215827Y-38129637D02*
X93168208Y-38224875D01*
X93168208Y-38224875D02*
X93168208Y-38415351D01*
X93168208Y-38415351D02*
X93215827Y-38510589D01*
X93834875Y-38939161D02*
X92834875Y-38939161D01*
X93834875Y-39367732D02*
X93311065Y-39367732D01*
X93311065Y-39367732D02*
X93215827Y-39320113D01*
X93215827Y-39320113D02*
X93168208Y-39224875D01*
X93168208Y-39224875D02*
X93168208Y-39082018D01*
X93168208Y-39082018D02*
X93215827Y-38986780D01*
X93215827Y-38986780D02*
X93263446Y-38939161D01*
X93787256Y-40224875D02*
X93834875Y-40129637D01*
X93834875Y-40129637D02*
X93834875Y-39939161D01*
X93834875Y-39939161D02*
X93787256Y-39843923D01*
X93787256Y-39843923D02*
X93692017Y-39796304D01*
X93692017Y-39796304D02*
X93311065Y-39796304D01*
X93311065Y-39796304D02*
X93215827Y-39843923D01*
X93215827Y-39843923D02*
X93168208Y-39939161D01*
X93168208Y-39939161D02*
X93168208Y-40129637D01*
X93168208Y-40129637D02*
X93215827Y-40224875D01*
X93215827Y-40224875D02*
X93311065Y-40272494D01*
X93311065Y-40272494D02*
X93406303Y-40272494D01*
X93406303Y-40272494D02*
X93501541Y-39796304D01*
X93739636Y-40701066D02*
X93787256Y-40748685D01*
X93787256Y-40748685D02*
X93834875Y-40701066D01*
X93834875Y-40701066D02*
X93787256Y-40653447D01*
X93787256Y-40653447D02*
X93739636Y-40701066D01*
X93739636Y-40701066D02*
X93834875Y-40701066D01*
X93215827Y-40701066D02*
X93263446Y-40748685D01*
X93263446Y-40748685D02*
X93311065Y-40701066D01*
X93311065Y-40701066D02*
X93263446Y-40653447D01*
X93263446Y-40653447D02*
X93215827Y-40701066D01*
X93215827Y-40701066D02*
X93311065Y-40701066D01*
X93787256Y-41891542D02*
X93834875Y-42034399D01*
X93834875Y-42034399D02*
X93834875Y-42272494D01*
X93834875Y-42272494D02*
X93787256Y-42367732D01*
X93787256Y-42367732D02*
X93739636Y-42415351D01*
X93739636Y-42415351D02*
X93644398Y-42462970D01*
X93644398Y-42462970D02*
X93549160Y-42462970D01*
X93549160Y-42462970D02*
X93453922Y-42415351D01*
X93453922Y-42415351D02*
X93406303Y-42367732D01*
X93406303Y-42367732D02*
X93358684Y-42272494D01*
X93358684Y-42272494D02*
X93311065Y-42082018D01*
X93311065Y-42082018D02*
X93263446Y-41986780D01*
X93263446Y-41986780D02*
X93215827Y-41939161D01*
X93215827Y-41939161D02*
X93120589Y-41891542D01*
X93120589Y-41891542D02*
X93025351Y-41891542D01*
X93025351Y-41891542D02*
X92930113Y-41939161D01*
X92930113Y-41939161D02*
X92882494Y-41986780D01*
X92882494Y-41986780D02*
X92834875Y-42082018D01*
X92834875Y-42082018D02*
X92834875Y-42320113D01*
X92834875Y-42320113D02*
X92882494Y-42462970D01*
X93834875Y-43415351D02*
X93834875Y-42843923D01*
X93834875Y-43129637D02*
X92834875Y-43129637D01*
X92834875Y-43129637D02*
X92977732Y-43034399D01*
X92977732Y-43034399D02*
X93072970Y-42939161D01*
X93072970Y-42939161D02*
X93120589Y-42843923D01*
X93834875Y-45034399D02*
X93311065Y-45034399D01*
X93311065Y-45034399D02*
X93215827Y-44986780D01*
X93215827Y-44986780D02*
X93168208Y-44891542D01*
X93168208Y-44891542D02*
X93168208Y-44701066D01*
X93168208Y-44701066D02*
X93215827Y-44605828D01*
X93787256Y-45034399D02*
X93834875Y-44939161D01*
X93834875Y-44939161D02*
X93834875Y-44701066D01*
X93834875Y-44701066D02*
X93787256Y-44605828D01*
X93787256Y-44605828D02*
X93692017Y-44558209D01*
X93692017Y-44558209D02*
X93596779Y-44558209D01*
X93596779Y-44558209D02*
X93501541Y-44605828D01*
X93501541Y-44605828D02*
X93453922Y-44701066D01*
X93453922Y-44701066D02*
X93453922Y-44939161D01*
X93453922Y-44939161D02*
X93406303Y-45034399D01*
X93168208Y-45510590D02*
X93834875Y-45510590D01*
X93263446Y-45510590D02*
X93215827Y-45558209D01*
X93215827Y-45558209D02*
X93168208Y-45653447D01*
X93168208Y-45653447D02*
X93168208Y-45796304D01*
X93168208Y-45796304D02*
X93215827Y-45891542D01*
X93215827Y-45891542D02*
X93311065Y-45939161D01*
X93311065Y-45939161D02*
X93834875Y-45939161D01*
X93834875Y-46843923D02*
X92834875Y-46843923D01*
X93787256Y-46843923D02*
X93834875Y-46748685D01*
X93834875Y-46748685D02*
X93834875Y-46558209D01*
X93834875Y-46558209D02*
X93787256Y-46462971D01*
X93787256Y-46462971D02*
X93739636Y-46415352D01*
X93739636Y-46415352D02*
X93644398Y-46367733D01*
X93644398Y-46367733D02*
X93358684Y-46367733D01*
X93358684Y-46367733D02*
X93263446Y-46415352D01*
X93263446Y-46415352D02*
X93215827Y-46462971D01*
X93215827Y-46462971D02*
X93168208Y-46558209D01*
X93168208Y-46558209D02*
X93168208Y-46748685D01*
X93168208Y-46748685D02*
X93215827Y-46843923D01*
X92834875Y-48367733D02*
X93549160Y-48367733D01*
X93549160Y-48367733D02*
X93692017Y-48320114D01*
X93692017Y-48320114D02*
X93787256Y-48224876D01*
X93787256Y-48224876D02*
X93834875Y-48082019D01*
X93834875Y-48082019D02*
X93834875Y-47986781D01*
X92834875Y-49272495D02*
X92834875Y-49082019D01*
X92834875Y-49082019D02*
X92882494Y-48986781D01*
X92882494Y-48986781D02*
X92930113Y-48939162D01*
X92930113Y-48939162D02*
X93072970Y-48843924D01*
X93072970Y-48843924D02*
X93263446Y-48796305D01*
X93263446Y-48796305D02*
X93644398Y-48796305D01*
X93644398Y-48796305D02*
X93739636Y-48843924D01*
X93739636Y-48843924D02*
X93787256Y-48891543D01*
X93787256Y-48891543D02*
X93834875Y-48986781D01*
X93834875Y-48986781D02*
X93834875Y-49177257D01*
X93834875Y-49177257D02*
X93787256Y-49272495D01*
X93787256Y-49272495D02*
X93739636Y-49320114D01*
X93739636Y-49320114D02*
X93644398Y-49367733D01*
X93644398Y-49367733D02*
X93406303Y-49367733D01*
X93406303Y-49367733D02*
X93311065Y-49320114D01*
X93311065Y-49320114D02*
X93263446Y-49272495D01*
X93263446Y-49272495D02*
X93215827Y-49177257D01*
X93215827Y-49177257D02*
X93215827Y-48986781D01*
X93215827Y-48986781D02*
X93263446Y-48891543D01*
X93263446Y-48891543D02*
X93311065Y-48843924D01*
X93311065Y-48843924D02*
X93406303Y-48796305D01*
X95444819Y-30462969D02*
X95444819Y-29986779D01*
X95444819Y-29986779D02*
X94444819Y-29986779D01*
X95444819Y-30796303D02*
X94778152Y-30796303D01*
X94444819Y-30796303D02*
X94492438Y-30748684D01*
X94492438Y-30748684D02*
X94540057Y-30796303D01*
X94540057Y-30796303D02*
X94492438Y-30843922D01*
X94492438Y-30843922D02*
X94444819Y-30796303D01*
X94444819Y-30796303D02*
X94540057Y-30796303D01*
X94778152Y-31272493D02*
X95444819Y-31272493D01*
X94873390Y-31272493D02*
X94825771Y-31320112D01*
X94825771Y-31320112D02*
X94778152Y-31415350D01*
X94778152Y-31415350D02*
X94778152Y-31558207D01*
X94778152Y-31558207D02*
X94825771Y-31653445D01*
X94825771Y-31653445D02*
X94921009Y-31701064D01*
X94921009Y-31701064D02*
X95444819Y-31701064D01*
X95444819Y-32177255D02*
X94444819Y-32177255D01*
X95063866Y-32272493D02*
X95444819Y-32558207D01*
X94778152Y-32558207D02*
X95159104Y-32177255D01*
X95397200Y-33367731D02*
X95444819Y-33272493D01*
X95444819Y-33272493D02*
X95444819Y-33082017D01*
X95444819Y-33082017D02*
X95397200Y-32986779D01*
X95397200Y-32986779D02*
X95301961Y-32939160D01*
X95301961Y-32939160D02*
X94921009Y-32939160D01*
X94921009Y-32939160D02*
X94825771Y-32986779D01*
X94825771Y-32986779D02*
X94778152Y-33082017D01*
X94778152Y-33082017D02*
X94778152Y-33272493D01*
X94778152Y-33272493D02*
X94825771Y-33367731D01*
X94825771Y-33367731D02*
X94921009Y-33415350D01*
X94921009Y-33415350D02*
X95016247Y-33415350D01*
X95016247Y-33415350D02*
X95111485Y-32939160D01*
X95444819Y-34272493D02*
X94444819Y-34272493D01*
X95397200Y-34272493D02*
X95444819Y-34177255D01*
X95444819Y-34177255D02*
X95444819Y-33986779D01*
X95444819Y-33986779D02*
X95397200Y-33891541D01*
X95397200Y-33891541D02*
X95349580Y-33843922D01*
X95349580Y-33843922D02*
X95254342Y-33796303D01*
X95254342Y-33796303D02*
X94968628Y-33796303D01*
X94968628Y-33796303D02*
X94873390Y-33843922D01*
X94873390Y-33843922D02*
X94825771Y-33891541D01*
X94825771Y-33891541D02*
X94778152Y-33986779D01*
X94778152Y-33986779D02*
X94778152Y-34177255D01*
X94778152Y-34177255D02*
X94825771Y-34272493D01*
X94778152Y-35367732D02*
X94778152Y-35748684D01*
X95444819Y-35510589D02*
X94587676Y-35510589D01*
X94587676Y-35510589D02*
X94492438Y-35558208D01*
X94492438Y-35558208D02*
X94444819Y-35653446D01*
X94444819Y-35653446D02*
X94444819Y-35748684D01*
X95444819Y-36224875D02*
X95397200Y-36129637D01*
X95397200Y-36129637D02*
X95349580Y-36082018D01*
X95349580Y-36082018D02*
X95254342Y-36034399D01*
X95254342Y-36034399D02*
X94968628Y-36034399D01*
X94968628Y-36034399D02*
X94873390Y-36082018D01*
X94873390Y-36082018D02*
X94825771Y-36129637D01*
X94825771Y-36129637D02*
X94778152Y-36224875D01*
X94778152Y-36224875D02*
X94778152Y-36367732D01*
X94778152Y-36367732D02*
X94825771Y-36462970D01*
X94825771Y-36462970D02*
X94873390Y-36510589D01*
X94873390Y-36510589D02*
X94968628Y-36558208D01*
X94968628Y-36558208D02*
X95254342Y-36558208D01*
X95254342Y-36558208D02*
X95349580Y-36510589D01*
X95349580Y-36510589D02*
X95397200Y-36462970D01*
X95397200Y-36462970D02*
X95444819Y-36367732D01*
X95444819Y-36367732D02*
X95444819Y-36224875D01*
X95444819Y-36986780D02*
X94778152Y-36986780D01*
X94968628Y-36986780D02*
X94873390Y-37034399D01*
X94873390Y-37034399D02*
X94825771Y-37082018D01*
X94825771Y-37082018D02*
X94778152Y-37177256D01*
X94778152Y-37177256D02*
X94778152Y-37272494D01*
X94778152Y-38367733D02*
X95778152Y-38367733D01*
X94825771Y-38367733D02*
X94778152Y-38462971D01*
X94778152Y-38462971D02*
X94778152Y-38653447D01*
X94778152Y-38653447D02*
X94825771Y-38748685D01*
X94825771Y-38748685D02*
X94873390Y-38796304D01*
X94873390Y-38796304D02*
X94968628Y-38843923D01*
X94968628Y-38843923D02*
X95254342Y-38843923D01*
X95254342Y-38843923D02*
X95349580Y-38796304D01*
X95349580Y-38796304D02*
X95397200Y-38748685D01*
X95397200Y-38748685D02*
X95444819Y-38653447D01*
X95444819Y-38653447D02*
X95444819Y-38462971D01*
X95444819Y-38462971D02*
X95397200Y-38367733D01*
X95444819Y-39701066D02*
X94921009Y-39701066D01*
X94921009Y-39701066D02*
X94825771Y-39653447D01*
X94825771Y-39653447D02*
X94778152Y-39558209D01*
X94778152Y-39558209D02*
X94778152Y-39367733D01*
X94778152Y-39367733D02*
X94825771Y-39272495D01*
X95397200Y-39701066D02*
X95444819Y-39605828D01*
X95444819Y-39605828D02*
X95444819Y-39367733D01*
X95444819Y-39367733D02*
X95397200Y-39272495D01*
X95397200Y-39272495D02*
X95301961Y-39224876D01*
X95301961Y-39224876D02*
X95206723Y-39224876D01*
X95206723Y-39224876D02*
X95111485Y-39272495D01*
X95111485Y-39272495D02*
X95063866Y-39367733D01*
X95063866Y-39367733D02*
X95063866Y-39605828D01*
X95063866Y-39605828D02*
X95016247Y-39701066D01*
X95444819Y-40177257D02*
X94778152Y-40177257D01*
X94968628Y-40177257D02*
X94873390Y-40224876D01*
X94873390Y-40224876D02*
X94825771Y-40272495D01*
X94825771Y-40272495D02*
X94778152Y-40367733D01*
X94778152Y-40367733D02*
X94778152Y-40462971D01*
X95444819Y-41224876D02*
X94921009Y-41224876D01*
X94921009Y-41224876D02*
X94825771Y-41177257D01*
X94825771Y-41177257D02*
X94778152Y-41082019D01*
X94778152Y-41082019D02*
X94778152Y-40891543D01*
X94778152Y-40891543D02*
X94825771Y-40796305D01*
X95397200Y-41224876D02*
X95444819Y-41129638D01*
X95444819Y-41129638D02*
X95444819Y-40891543D01*
X95444819Y-40891543D02*
X95397200Y-40796305D01*
X95397200Y-40796305D02*
X95301961Y-40748686D01*
X95301961Y-40748686D02*
X95206723Y-40748686D01*
X95206723Y-40748686D02*
X95111485Y-40796305D01*
X95111485Y-40796305D02*
X95063866Y-40891543D01*
X95063866Y-40891543D02*
X95063866Y-41129638D01*
X95063866Y-41129638D02*
X95016247Y-41224876D01*
X95444819Y-41843924D02*
X95397200Y-41748686D01*
X95397200Y-41748686D02*
X95301961Y-41701067D01*
X95301961Y-41701067D02*
X94444819Y-41701067D01*
X95444819Y-42367734D02*
X95397200Y-42272496D01*
X95397200Y-42272496D02*
X95301961Y-42224877D01*
X95301961Y-42224877D02*
X94444819Y-42224877D01*
X95397200Y-43129639D02*
X95444819Y-43034401D01*
X95444819Y-43034401D02*
X95444819Y-42843925D01*
X95444819Y-42843925D02*
X95397200Y-42748687D01*
X95397200Y-42748687D02*
X95301961Y-42701068D01*
X95301961Y-42701068D02*
X94921009Y-42701068D01*
X94921009Y-42701068D02*
X94825771Y-42748687D01*
X94825771Y-42748687D02*
X94778152Y-42843925D01*
X94778152Y-42843925D02*
X94778152Y-43034401D01*
X94778152Y-43034401D02*
X94825771Y-43129639D01*
X94825771Y-43129639D02*
X94921009Y-43177258D01*
X94921009Y-43177258D02*
X95016247Y-43177258D01*
X95016247Y-43177258D02*
X95111485Y-42701068D01*
X95444819Y-43748687D02*
X95397200Y-43653449D01*
X95397200Y-43653449D02*
X95301961Y-43605830D01*
X95301961Y-43605830D02*
X94444819Y-43605830D01*
X95444819Y-45034402D02*
X95397200Y-44939164D01*
X95397200Y-44939164D02*
X95349580Y-44891545D01*
X95349580Y-44891545D02*
X95254342Y-44843926D01*
X95254342Y-44843926D02*
X94968628Y-44843926D01*
X94968628Y-44843926D02*
X94873390Y-44891545D01*
X94873390Y-44891545D02*
X94825771Y-44939164D01*
X94825771Y-44939164D02*
X94778152Y-45034402D01*
X94778152Y-45034402D02*
X94778152Y-45177259D01*
X94778152Y-45177259D02*
X94825771Y-45272497D01*
X94825771Y-45272497D02*
X94873390Y-45320116D01*
X94873390Y-45320116D02*
X94968628Y-45367735D01*
X94968628Y-45367735D02*
X95254342Y-45367735D01*
X95254342Y-45367735D02*
X95349580Y-45320116D01*
X95349580Y-45320116D02*
X95397200Y-45272497D01*
X95397200Y-45272497D02*
X95444819Y-45177259D01*
X95444819Y-45177259D02*
X95444819Y-45034402D01*
X94778152Y-45796307D02*
X95778152Y-45796307D01*
X94825771Y-45796307D02*
X94778152Y-45891545D01*
X94778152Y-45891545D02*
X94778152Y-46082021D01*
X94778152Y-46082021D02*
X94825771Y-46177259D01*
X94825771Y-46177259D02*
X94873390Y-46224878D01*
X94873390Y-46224878D02*
X94968628Y-46272497D01*
X94968628Y-46272497D02*
X95254342Y-46272497D01*
X95254342Y-46272497D02*
X95349580Y-46224878D01*
X95349580Y-46224878D02*
X95397200Y-46177259D01*
X95397200Y-46177259D02*
X95444819Y-46082021D01*
X95444819Y-46082021D02*
X95444819Y-45891545D01*
X95444819Y-45891545D02*
X95397200Y-45796307D01*
X95397200Y-47082021D02*
X95444819Y-46986783D01*
X95444819Y-46986783D02*
X95444819Y-46796307D01*
X95444819Y-46796307D02*
X95397200Y-46701069D01*
X95397200Y-46701069D02*
X95301961Y-46653450D01*
X95301961Y-46653450D02*
X94921009Y-46653450D01*
X94921009Y-46653450D02*
X94825771Y-46701069D01*
X94825771Y-46701069D02*
X94778152Y-46796307D01*
X94778152Y-46796307D02*
X94778152Y-46986783D01*
X94778152Y-46986783D02*
X94825771Y-47082021D01*
X94825771Y-47082021D02*
X94921009Y-47129640D01*
X94921009Y-47129640D02*
X95016247Y-47129640D01*
X95016247Y-47129640D02*
X95111485Y-46653450D01*
X95444819Y-47558212D02*
X94778152Y-47558212D01*
X94968628Y-47558212D02*
X94873390Y-47605831D01*
X94873390Y-47605831D02*
X94825771Y-47653450D01*
X94825771Y-47653450D02*
X94778152Y-47748688D01*
X94778152Y-47748688D02*
X94778152Y-47843926D01*
X95444819Y-48605831D02*
X94921009Y-48605831D01*
X94921009Y-48605831D02*
X94825771Y-48558212D01*
X94825771Y-48558212D02*
X94778152Y-48462974D01*
X94778152Y-48462974D02*
X94778152Y-48272498D01*
X94778152Y-48272498D02*
X94825771Y-48177260D01*
X95397200Y-48605831D02*
X95444819Y-48510593D01*
X95444819Y-48510593D02*
X95444819Y-48272498D01*
X95444819Y-48272498D02*
X95397200Y-48177260D01*
X95397200Y-48177260D02*
X95301961Y-48129641D01*
X95301961Y-48129641D02*
X95206723Y-48129641D01*
X95206723Y-48129641D02*
X95111485Y-48177260D01*
X95111485Y-48177260D02*
X95063866Y-48272498D01*
X95063866Y-48272498D02*
X95063866Y-48510593D01*
X95063866Y-48510593D02*
X95016247Y-48605831D01*
X94778152Y-48939165D02*
X94778152Y-49320117D01*
X94444819Y-49082022D02*
X95301961Y-49082022D01*
X95301961Y-49082022D02*
X95397200Y-49129641D01*
X95397200Y-49129641D02*
X95444819Y-49224879D01*
X95444819Y-49224879D02*
X95444819Y-49320117D01*
X95444819Y-49653451D02*
X94778152Y-49653451D01*
X94444819Y-49653451D02*
X94492438Y-49605832D01*
X94492438Y-49605832D02*
X94540057Y-49653451D01*
X94540057Y-49653451D02*
X94492438Y-49701070D01*
X94492438Y-49701070D02*
X94444819Y-49653451D01*
X94444819Y-49653451D02*
X94540057Y-49653451D01*
X95444819Y-50272498D02*
X95397200Y-50177260D01*
X95397200Y-50177260D02*
X95349580Y-50129641D01*
X95349580Y-50129641D02*
X95254342Y-50082022D01*
X95254342Y-50082022D02*
X94968628Y-50082022D01*
X94968628Y-50082022D02*
X94873390Y-50129641D01*
X94873390Y-50129641D02*
X94825771Y-50177260D01*
X94825771Y-50177260D02*
X94778152Y-50272498D01*
X94778152Y-50272498D02*
X94778152Y-50415355D01*
X94778152Y-50415355D02*
X94825771Y-50510593D01*
X94825771Y-50510593D02*
X94873390Y-50558212D01*
X94873390Y-50558212D02*
X94968628Y-50605831D01*
X94968628Y-50605831D02*
X95254342Y-50605831D01*
X95254342Y-50605831D02*
X95349580Y-50558212D01*
X95349580Y-50558212D02*
X95397200Y-50510593D01*
X95397200Y-50510593D02*
X95444819Y-50415355D01*
X95444819Y-50415355D02*
X95444819Y-50272498D01*
X94778152Y-51034403D02*
X95444819Y-51034403D01*
X94873390Y-51034403D02*
X94825771Y-51082022D01*
X94825771Y-51082022D02*
X94778152Y-51177260D01*
X94778152Y-51177260D02*
X94778152Y-51320117D01*
X94778152Y-51320117D02*
X94825771Y-51415355D01*
X94825771Y-51415355D02*
X94921009Y-51462974D01*
X94921009Y-51462974D02*
X95444819Y-51462974D01*
D10*
G36*
X116842365Y-86630695D02*
G01*
X116377669Y-86630695D01*
X116359703Y-86630605D01*
X116290559Y-86628457D01*
X116210245Y-86621745D01*
X116136726Y-86610559D01*
X116070003Y-86594898D01*
X115998905Y-86570198D01*
X115937592Y-86539055D01*
X115900972Y-86514953D01*
X115842082Y-86467453D01*
X115789802Y-86413179D01*
X115744132Y-86352131D01*
X115705073Y-86284309D01*
X115685919Y-86243298D01*
X115658545Y-86169985D01*
X115638992Y-86094709D01*
X115627260Y-86017469D01*
X115623349Y-85938266D01*
X115623446Y-85931427D01*
X115792609Y-85931427D01*
X115793304Y-85965376D01*
X115799946Y-86038087D01*
X115813620Y-86105712D01*
X115837062Y-86174889D01*
X115842734Y-86187928D01*
X115875866Y-86249357D01*
X115916946Y-86304508D01*
X115965973Y-86353381D01*
X115976688Y-86362301D01*
X116033709Y-86401370D01*
X116096474Y-86431223D01*
X116164982Y-86451860D01*
X116230570Y-86463080D01*
X116301880Y-86470268D01*
X116373343Y-86474475D01*
X116454350Y-86476879D01*
X116529148Y-86477505D01*
X116678918Y-86477505D01*
X116678918Y-85361413D01*
X116592407Y-85361413D01*
X116519392Y-85362014D01*
X116439026Y-85364322D01*
X116366569Y-85368362D01*
X116292034Y-85375262D01*
X116220034Y-85386033D01*
X116188074Y-85392963D01*
X116119991Y-85414219D01*
X116057210Y-85443320D01*
X115993670Y-85484854D01*
X115970178Y-85503997D01*
X115917571Y-85557792D01*
X115877705Y-85613460D01*
X115844926Y-85675998D01*
X115829854Y-85713159D01*
X115809163Y-85782615D01*
X115796748Y-85855371D01*
X115792609Y-85931427D01*
X115623446Y-85931427D01*
X115623833Y-85904219D01*
X115628725Y-85827743D01*
X115638886Y-85755424D01*
X115654316Y-85687261D01*
X115678401Y-85614449D01*
X115708962Y-85547023D01*
X115745593Y-85484939D01*
X115788292Y-85428198D01*
X115837062Y-85376801D01*
X115891109Y-85331130D01*
X115949987Y-85291914D01*
X116013695Y-85259152D01*
X116082233Y-85232844D01*
X116091267Y-85229983D01*
X116163764Y-85212498D01*
X116238797Y-85201054D01*
X116310416Y-85194015D01*
X116390299Y-85189247D01*
X116460156Y-85187067D01*
X116535303Y-85186340D01*
X116842365Y-85186340D01*
X116842365Y-86630695D01*
G37*
G36*
X114961284Y-85559279D02*
G01*
X115029684Y-85569915D01*
X115106893Y-85593476D01*
X115178788Y-85628819D01*
X115245370Y-85675943D01*
X115296796Y-85724212D01*
X115342504Y-85778017D01*
X115380465Y-85834928D01*
X115415792Y-85907321D01*
X115439962Y-85984185D01*
X115451583Y-86051655D01*
X115455457Y-86122230D01*
X115454071Y-86164832D01*
X115442987Y-86246377D01*
X115420820Y-86323041D01*
X115387569Y-86394824D01*
X115343234Y-86461727D01*
X115297822Y-86513751D01*
X115257089Y-86551418D01*
X115191019Y-86598501D01*
X115118988Y-86634285D01*
X115040993Y-86658768D01*
X114971443Y-86670539D01*
X114897752Y-86674463D01*
X114876061Y-86674141D01*
X114803169Y-86667944D01*
X114734989Y-86653861D01*
X114662840Y-86628109D01*
X114596845Y-86592055D01*
X114558233Y-86564034D01*
X114506926Y-86517539D01*
X114458825Y-86462569D01*
X114413931Y-86399122D01*
X114378004Y-86337994D01*
X114515806Y-86267212D01*
X114533252Y-86297978D01*
X114581054Y-86366207D01*
X114634833Y-86422031D01*
X114694589Y-86465450D01*
X114760322Y-86496463D01*
X114832033Y-86515071D01*
X114909720Y-86521274D01*
X114982981Y-86514905D01*
X115050942Y-86495799D01*
X115113602Y-86463956D01*
X115170963Y-86419376D01*
X115177683Y-86412942D01*
X115224475Y-86356811D01*
X115258872Y-86292387D01*
X115280874Y-86219671D01*
X115289958Y-86149243D01*
X114348255Y-86149243D01*
X114349616Y-86115251D01*
X114358196Y-86034279D01*
X114366312Y-85996054D01*
X114529483Y-85996054D01*
X115270125Y-85996054D01*
X115251509Y-85943928D01*
X115221629Y-85882403D01*
X115176150Y-85818315D01*
X115121639Y-85768468D01*
X115058094Y-85732863D01*
X114985517Y-85711500D01*
X114903907Y-85704379D01*
X114862155Y-85706257D01*
X114790914Y-85719105D01*
X114724703Y-85744125D01*
X114663524Y-85781316D01*
X114632752Y-85806844D01*
X114586536Y-85860285D01*
X114552113Y-85923355D01*
X114529483Y-85996054D01*
X114366312Y-85996054D01*
X114374173Y-85959034D01*
X114397546Y-85889515D01*
X114428316Y-85825724D01*
X114466482Y-85767659D01*
X114512044Y-85715321D01*
X114552575Y-85678135D01*
X114617899Y-85631653D01*
X114688656Y-85596326D01*
X114764847Y-85572155D01*
X114832491Y-85560535D01*
X114903907Y-85556661D01*
X114961284Y-85559279D01*
G37*
G36*
X113573419Y-85694121D02*
G01*
X113677711Y-85802516D01*
X113734601Y-85755093D01*
X113795639Y-85717938D01*
X113865981Y-85695815D01*
X113890397Y-85694121D01*
X113959159Y-85709081D01*
X113992979Y-85732418D01*
X114029465Y-85790488D01*
X114034354Y-85827136D01*
X114014474Y-85894848D01*
X113988192Y-85925614D01*
X113928892Y-85969477D01*
X113865445Y-86007278D01*
X113823719Y-86029906D01*
X113761470Y-86065748D01*
X113702391Y-86107983D01*
X113649670Y-86157372D01*
X113641465Y-86166682D01*
X113602291Y-86227558D01*
X113581198Y-86297859D01*
X113577180Y-86349962D01*
X113584754Y-86423959D01*
X113607474Y-86490924D01*
X113645341Y-86550856D01*
X113672923Y-86581113D01*
X113730103Y-86626238D01*
X113794315Y-86656595D01*
X113865559Y-86672184D01*
X113908178Y-86674463D01*
X113978984Y-86668729D01*
X114045221Y-86651526D01*
X114116725Y-86616962D01*
X114173065Y-86574911D01*
X114224837Y-86521392D01*
X114233021Y-86511357D01*
X114130781Y-86397150D01*
X114077353Y-86451454D01*
X114016633Y-86494000D01*
X113948406Y-86518243D01*
X113913991Y-86521274D01*
X113844577Y-86508964D01*
X113786106Y-86472034D01*
X113744484Y-86414989D01*
X113732763Y-86356801D01*
X113748126Y-86289481D01*
X113781318Y-86246696D01*
X113836726Y-86204986D01*
X113898810Y-86168265D01*
X113946817Y-86143088D01*
X114008108Y-86108812D01*
X114065677Y-86068381D01*
X114116198Y-86021052D01*
X114123942Y-86012125D01*
X114160407Y-85951874D01*
X114179048Y-85885408D01*
X114183782Y-85823032D01*
X114175434Y-85753135D01*
X114146966Y-85684116D01*
X114103556Y-85628524D01*
X114098297Y-85623339D01*
X114039312Y-85579702D01*
X113969642Y-85552227D01*
X113897802Y-85541317D01*
X113871933Y-85540590D01*
X113800446Y-85550186D01*
X113736177Y-85574325D01*
X113670304Y-85613157D01*
X113612566Y-85658137D01*
X113573419Y-85694121D01*
G37*
G36*
X113311151Y-85166508D02*
G01*
X113243303Y-85185409D01*
X113221563Y-85203095D01*
X113187869Y-85263815D01*
X113184975Y-85292000D01*
X113203876Y-85358764D01*
X113221563Y-85380562D01*
X113281968Y-85413941D01*
X113310125Y-85416808D01*
X113377205Y-85397553D01*
X113399030Y-85379536D01*
X113432408Y-85318931D01*
X113435275Y-85291658D01*
X113414887Y-85223569D01*
X113399030Y-85204121D01*
X113338839Y-85169483D01*
X113311151Y-85166508D01*
G37*
G36*
X113228401Y-86652579D02*
G01*
X113391849Y-86652579D01*
X113391849Y-85579229D01*
X113228401Y-85579229D01*
X113228401Y-86652579D01*
G37*
G36*
X112510019Y-85541657D02*
G01*
X112590938Y-85552933D01*
X112667506Y-85575485D01*
X112739722Y-85609313D01*
X112807587Y-85654417D01*
X112860816Y-85700618D01*
X112890374Y-85731270D01*
X112940656Y-85796073D01*
X112979156Y-85865540D01*
X113005875Y-85939672D01*
X113020814Y-86018468D01*
X113024263Y-86087694D01*
X113023900Y-86114528D01*
X113015373Y-86192370D01*
X112995690Y-86266221D01*
X112964851Y-86336081D01*
X112922857Y-86401950D01*
X112869706Y-86463828D01*
X112839678Y-86492365D01*
X112775637Y-86541020D01*
X112706281Y-86578446D01*
X112631613Y-86604645D01*
X112551631Y-86619615D01*
X112480921Y-86623514D01*
X112466419Y-86623337D01*
X112394832Y-86617167D01*
X112324781Y-86602180D01*
X112256266Y-86578378D01*
X112242840Y-86572531D01*
X112179394Y-86538451D01*
X112122092Y-86496289D01*
X112070935Y-86446047D01*
X112070935Y-86455963D01*
X112071283Y-86485867D01*
X112075622Y-86558353D01*
X112086429Y-86627280D01*
X112110600Y-86698399D01*
X112137236Y-86740149D01*
X112186804Y-86788074D01*
X112246350Y-86824233D01*
X112252402Y-86827136D01*
X112322277Y-86852988D01*
X112391059Y-86866812D01*
X112464849Y-86871420D01*
X112544277Y-86866420D01*
X112616291Y-86851418D01*
X112680893Y-86826415D01*
X112748629Y-86783211D01*
X112805690Y-86725605D01*
X112845087Y-86666598D01*
X113018450Y-86666598D01*
X112999876Y-86709951D01*
X112956172Y-86788266D01*
X112903727Y-86855393D01*
X112842541Y-86911332D01*
X112772614Y-86956084D01*
X112693947Y-86989647D01*
X112606538Y-87012023D01*
X112535246Y-87021463D01*
X112459036Y-87024609D01*
X112443602Y-87024464D01*
X112368877Y-87019368D01*
X112298225Y-87006993D01*
X112231646Y-86987338D01*
X112169797Y-86960671D01*
X112108473Y-86923546D01*
X112054180Y-86878259D01*
X112011691Y-86830408D01*
X111973438Y-86770906D01*
X111944075Y-86704212D01*
X111937536Y-86684010D01*
X111921779Y-86611792D01*
X111913526Y-86543579D01*
X111908774Y-86464830D01*
X111907487Y-86388943D01*
X111907487Y-86090429D01*
X112065122Y-86090429D01*
X112065230Y-86100821D01*
X112072089Y-86170294D01*
X112092990Y-86242678D01*
X112127825Y-86307583D01*
X112176594Y-86365007D01*
X112190736Y-86378009D01*
X112252328Y-86421628D01*
X112321956Y-86451825D01*
X112389472Y-86467239D01*
X112463140Y-86472376D01*
X112484779Y-86471950D01*
X112556669Y-86463748D01*
X112622569Y-86445107D01*
X112690551Y-86411019D01*
X112750711Y-86363297D01*
X112799780Y-86305574D01*
X112834829Y-86241823D01*
X112855858Y-86172046D01*
X112862868Y-86096242D01*
X112862753Y-86086428D01*
X112853617Y-86010629D01*
X112829863Y-85939661D01*
X112791491Y-85873522D01*
X112745924Y-85819613D01*
X112715727Y-85791643D01*
X112658664Y-85751670D01*
X112596235Y-85723118D01*
X112528438Y-85705986D01*
X112455275Y-85700276D01*
X112445109Y-85700384D01*
X112376693Y-85707179D01*
X112304394Y-85727887D01*
X112238378Y-85762402D01*
X112178646Y-85810722D01*
X112171661Y-85817662D01*
X112123768Y-85877363D01*
X112090066Y-85944500D01*
X112070554Y-86019075D01*
X112065122Y-86090429D01*
X111907487Y-86090429D01*
X111907487Y-85567603D01*
X112070935Y-85567603D01*
X112070935Y-85725237D01*
X112125346Y-85671945D01*
X112182579Y-85627684D01*
X112242634Y-85592457D01*
X112318425Y-85562107D01*
X112398278Y-85544764D01*
X112467927Y-85540248D01*
X112510019Y-85541657D01*
G37*
G36*
X110720956Y-86652579D02*
G01*
X110882693Y-86652579D01*
X110882693Y-86140695D01*
X110883495Y-86068485D01*
X110886375Y-85999264D01*
X110893754Y-85927255D01*
X110899448Y-85899285D01*
X110923274Y-85833624D01*
X110948688Y-85791232D01*
X110998981Y-85742755D01*
X111031437Y-85725237D01*
X111098556Y-85706965D01*
X111153510Y-85703353D01*
X111224633Y-85712244D01*
X111290069Y-85736727D01*
X111294389Y-85738915D01*
X111354541Y-85778095D01*
X111406127Y-85829596D01*
X111412358Y-85837394D01*
X111451833Y-85898182D01*
X111477935Y-85962576D01*
X111480404Y-85971434D01*
X111491656Y-86044476D01*
X111496272Y-86115343D01*
X111498418Y-86191902D01*
X111498869Y-86254903D01*
X111498869Y-86652579D01*
X111662658Y-86652579D01*
X111662658Y-85579229D01*
X111498869Y-85579229D01*
X111498869Y-85740967D01*
X111447531Y-85686492D01*
X111393322Y-85641250D01*
X111324480Y-85599147D01*
X111251502Y-85570340D01*
X111174389Y-85554828D01*
X111120683Y-85551874D01*
X111050158Y-85557751D01*
X110983907Y-85575382D01*
X110921931Y-85604768D01*
X110910048Y-85612055D01*
X110855492Y-85653896D01*
X110806201Y-85710180D01*
X110771139Y-85770674D01*
X110768143Y-85777212D01*
X110745333Y-85845433D01*
X110731324Y-85921152D01*
X110723905Y-85999046D01*
X110721140Y-86074460D01*
X110720956Y-86101371D01*
X110720956Y-86652579D01*
G37*
G36*
X109967662Y-86641637D02*
G01*
X109807976Y-86641637D01*
X109807976Y-86476480D01*
X109786824Y-86500785D01*
X109731746Y-86554689D01*
X109673529Y-86598793D01*
X109612174Y-86633095D01*
X109547679Y-86657597D01*
X109480046Y-86672298D01*
X109409274Y-86677198D01*
X109338593Y-86673116D01*
X109271236Y-86660869D01*
X109194792Y-86635396D01*
X109123133Y-86598166D01*
X109067072Y-86558160D01*
X109014333Y-86509990D01*
X108967246Y-86456002D01*
X108928140Y-86398759D01*
X108891748Y-86325770D01*
X108866847Y-86248092D01*
X108854876Y-86179779D01*
X108850886Y-86108210D01*
X108850942Y-86107184D01*
X109014333Y-86107184D01*
X109016166Y-86148153D01*
X109028192Y-86216660D01*
X109051443Y-86281109D01*
X109085918Y-86341500D01*
X109131618Y-86397833D01*
X109146434Y-86412823D01*
X109201402Y-86457670D01*
X109270154Y-86494417D01*
X109345231Y-86515693D01*
X109416113Y-86521616D01*
X109447077Y-86520543D01*
X109515823Y-86509695D01*
X109588378Y-86482991D01*
X109646605Y-86447109D01*
X109699923Y-86399543D01*
X109727091Y-86368181D01*
X109765919Y-86309234D01*
X109793653Y-86245117D01*
X109810294Y-86175830D01*
X109815840Y-86101371D01*
X109814040Y-86058202D01*
X109802224Y-85987180D01*
X109779380Y-85921917D01*
X109745507Y-85862414D01*
X109700607Y-85808671D01*
X109678507Y-85787894D01*
X109623109Y-85747362D01*
X109553225Y-85714664D01*
X109486326Y-85697974D01*
X109414061Y-85692411D01*
X109382442Y-85693502D01*
X109312568Y-85704533D01*
X109239403Y-85731685D01*
X109181240Y-85768171D01*
X109128541Y-85816535D01*
X109101774Y-85848229D01*
X109063518Y-85906881D01*
X109036193Y-85969591D01*
X109019798Y-86036359D01*
X109014333Y-86107184D01*
X108850942Y-86107184D01*
X108854809Y-86036576D01*
X108866580Y-85968282D01*
X108891064Y-85890736D01*
X108926847Y-85817999D01*
X108965299Y-85761058D01*
X109011598Y-85707457D01*
X109052849Y-85668427D01*
X109119075Y-85619641D01*
X109190518Y-85582563D01*
X109267178Y-85557194D01*
X109335046Y-85544997D01*
X109406538Y-85540932D01*
X109435555Y-85541654D01*
X109505806Y-85549784D01*
X109572785Y-85566946D01*
X109636492Y-85593141D01*
X109696925Y-85628368D01*
X109754087Y-85672628D01*
X109807976Y-85725921D01*
X109807976Y-85164456D01*
X109967662Y-85164456D01*
X109967662Y-86641637D01*
G37*
G36*
X107725219Y-85580255D02*
G01*
X108361570Y-87024609D01*
X108530830Y-87024609D01*
X108323956Y-86554784D01*
X108759246Y-85580255D01*
X108589986Y-85580255D01*
X108237445Y-86361246D01*
X107896531Y-85580255D01*
X107725219Y-85580255D01*
G37*
G36*
X105326510Y-86651211D02*
G01*
X105347732Y-86721287D01*
X105370431Y-86786584D01*
X105398762Y-86851347D01*
X105405498Y-86863556D01*
X105450988Y-86917530D01*
X105474228Y-86924763D01*
X105542458Y-86910988D01*
X105560739Y-86902195D01*
X105614882Y-86857588D01*
X105637676Y-86828336D01*
X105673530Y-86765250D01*
X105700159Y-86700399D01*
X105701960Y-86695321D01*
X105721467Y-86628643D01*
X105736222Y-86558059D01*
X105746071Y-86493577D01*
X105754833Y-86422490D01*
X105759064Y-86377659D01*
X105763089Y-86307415D01*
X105764877Y-86236780D01*
X105765207Y-86167701D01*
X105765111Y-86096222D01*
X105764877Y-86051106D01*
X105763735Y-85980802D01*
X105761851Y-85910961D01*
X105759155Y-85834899D01*
X105757697Y-85799096D01*
X106411828Y-85799096D01*
X106408066Y-85868767D01*
X106404989Y-85932111D01*
X106402419Y-86001166D01*
X106401912Y-86045635D01*
X106402795Y-86114322D01*
X106403963Y-86149243D01*
X106406476Y-86220782D01*
X106407725Y-86254903D01*
X106411725Y-86325693D01*
X106417882Y-86398956D01*
X106426738Y-86472989D01*
X106428583Y-86485712D01*
X106441293Y-86558609D01*
X106457370Y-86626506D01*
X106469958Y-86668992D01*
X106493495Y-86734138D01*
X106523639Y-86799625D01*
X106535610Y-86821839D01*
X106573421Y-86882585D01*
X106614626Y-86937938D01*
X106632037Y-86958957D01*
X106691075Y-86919069D01*
X106710000Y-86908350D01*
X106773704Y-86879298D01*
X106789672Y-86874156D01*
X106741582Y-86820046D01*
X106696863Y-86766824D01*
X106668625Y-86730883D01*
X106629631Y-86672524D01*
X106597478Y-86608122D01*
X106595792Y-86604023D01*
X106574093Y-86538096D01*
X106559806Y-86469243D01*
X106557494Y-86453570D01*
X106549095Y-86383589D01*
X106542978Y-86315135D01*
X106538157Y-86245645D01*
X106537662Y-86237464D01*
X106535487Y-86168202D01*
X106534926Y-86126675D01*
X106534415Y-86057252D01*
X106534752Y-85988661D01*
X106534926Y-85973486D01*
X106536375Y-85901847D01*
X106539526Y-85829946D01*
X106540739Y-85809355D01*
X106545528Y-85737036D01*
X106551681Y-85667792D01*
X106481630Y-85667792D01*
X106411425Y-85667792D01*
X106342931Y-85667792D01*
X106327027Y-85667792D01*
X106256008Y-85667792D01*
X106187207Y-85667792D01*
X106113362Y-85667792D01*
X106084591Y-85667792D01*
X106015359Y-85667792D01*
X105963545Y-85667792D01*
X105893425Y-85667792D01*
X105831556Y-85667792D01*
X105762595Y-85667792D01*
X105703670Y-85667792D01*
X105635072Y-85667792D01*
X105594249Y-85667792D01*
X105604394Y-85741195D01*
X105611868Y-85809257D01*
X105617774Y-85879212D01*
X105619895Y-85910911D01*
X105623615Y-85982113D01*
X105625930Y-86052234D01*
X105626837Y-86121272D01*
X105626734Y-86159159D01*
X105625324Y-86233264D01*
X105622379Y-86304698D01*
X105617898Y-86373460D01*
X105616817Y-86386891D01*
X105609897Y-86456480D01*
X105599635Y-86529032D01*
X105592198Y-86568461D01*
X105574908Y-86642983D01*
X105549391Y-86709089D01*
X105516629Y-86732935D01*
X105478527Y-86675293D01*
X105463981Y-86603988D01*
X105456448Y-86540764D01*
X105408843Y-86591983D01*
X105391479Y-86607785D01*
X105333763Y-86647111D01*
X105326510Y-86651211D01*
G37*
G36*
X107069378Y-85930401D02*
G01*
X107063179Y-85856795D01*
X107060141Y-85785446D01*
X107059804Y-85753277D01*
X107061102Y-85683646D01*
X107064996Y-85613113D01*
X107067669Y-85580255D01*
X106933628Y-85574442D01*
X106927746Y-85643260D01*
X106922880Y-85715803D01*
X106920976Y-85750541D01*
X106917317Y-85823844D01*
X106914512Y-85896474D01*
X106913796Y-85920827D01*
X107069378Y-85930401D01*
G37*
G36*
X106845066Y-86184121D02*
G01*
X106906006Y-86215666D01*
X106939783Y-86233360D01*
X107000879Y-86267622D01*
X107006461Y-86270974D01*
X107060488Y-86305168D01*
X107114856Y-86341755D01*
X107133335Y-86275290D01*
X107141528Y-86252167D01*
X107168676Y-86187360D01*
X107177773Y-86168392D01*
X107106975Y-86146969D01*
X107040722Y-86123687D01*
X107001674Y-86108552D01*
X106936791Y-86081095D01*
X106871710Y-86050157D01*
X106838911Y-86032983D01*
X106837458Y-85964168D01*
X106836859Y-85891420D01*
X106837116Y-85814740D01*
X106838041Y-85744419D01*
X106838227Y-85734128D01*
X106839669Y-85659726D01*
X106841602Y-85581331D01*
X106843650Y-85510959D01*
X106846058Y-85437653D01*
X106848827Y-85361413D01*
X106778381Y-85370512D01*
X106760265Y-85372355D01*
X106688431Y-85377671D01*
X106635457Y-85380220D01*
X106562424Y-85382324D01*
X106489303Y-85383189D01*
X106449099Y-85383297D01*
X106374894Y-85383297D01*
X106299259Y-85383297D01*
X106224989Y-85383297D01*
X106175205Y-85383297D01*
X106193523Y-85315373D01*
X106202903Y-85286870D01*
X106227860Y-85221746D01*
X106242226Y-85190101D01*
X106063049Y-85164456D01*
X106041658Y-85229465D01*
X106024073Y-85297545D01*
X106010295Y-85368698D01*
X106007997Y-85383297D01*
X105938709Y-85383297D01*
X105868384Y-85383297D01*
X105799126Y-85383297D01*
X105787445Y-85383297D01*
X105716387Y-85382790D01*
X105644915Y-85380941D01*
X105627759Y-85380220D01*
X105558961Y-85376217D01*
X105514577Y-85372355D01*
X105446562Y-85363673D01*
X105432854Y-85361413D01*
X105432854Y-85536487D01*
X105503479Y-85527704D01*
X105526545Y-85525545D01*
X105596738Y-85521241D01*
X105664347Y-85519390D01*
X105738062Y-85518057D01*
X105809693Y-85517017D01*
X105867117Y-85516312D01*
X105937893Y-85515486D01*
X106007253Y-85514978D01*
X106082683Y-85514684D01*
X106153663Y-85514602D01*
X106699399Y-85514602D01*
X106698005Y-85590373D01*
X106696899Y-85663042D01*
X106696081Y-85732609D01*
X106695492Y-85809851D01*
X106695296Y-85882872D01*
X106695591Y-85952143D01*
X106696648Y-86027664D01*
X106698476Y-86099295D01*
X106701451Y-86175230D01*
X106705289Y-86246511D01*
X106710885Y-86321016D01*
X106717884Y-86390580D01*
X106720258Y-86410485D01*
X106730249Y-86481040D01*
X106742826Y-86548362D01*
X106756503Y-86606759D01*
X106775593Y-86674367D01*
X106797472Y-86740244D01*
X106813607Y-86783200D01*
X106840663Y-86847987D01*
X106871566Y-86914120D01*
X106894305Y-86958957D01*
X106932602Y-86926473D01*
X106980816Y-86895014D01*
X107031081Y-86869369D01*
X107075533Y-86852614D01*
X107030078Y-86796930D01*
X106989881Y-86740795D01*
X106984919Y-86733277D01*
X106950608Y-86673175D01*
X106923194Y-86610437D01*
X106917899Y-86596159D01*
X106897088Y-86529923D01*
X106880883Y-86462171D01*
X106872763Y-86419718D01*
X106861468Y-86346985D01*
X106852813Y-86273361D01*
X106846336Y-86200990D01*
X106845066Y-86184121D01*
G37*
G36*
X105990216Y-86320897D02*
G01*
X105951833Y-86381933D01*
X105919434Y-86435789D01*
X105883851Y-86495254D01*
X105864040Y-86528113D01*
X105828457Y-86589405D01*
X105817878Y-86608810D01*
X105785052Y-86669141D01*
X105773426Y-86690534D01*
X105917383Y-86757554D01*
X105941917Y-86690721D01*
X105968449Y-86626317D01*
X105979616Y-86600946D01*
X106010533Y-86535674D01*
X106044384Y-86472660D01*
X106060997Y-86444337D01*
X106100375Y-86506648D01*
X106141031Y-86566771D01*
X106166657Y-86602997D01*
X106208645Y-86660714D01*
X106252330Y-86718673D01*
X106293517Y-86771574D01*
X106325317Y-86751057D01*
X106367376Y-86730199D01*
X106411828Y-86712418D01*
X106447048Y-86702502D01*
X106393240Y-86652894D01*
X106342649Y-86600915D01*
X106300355Y-86553758D01*
X106256655Y-86499890D01*
X106216130Y-86444560D01*
X106174023Y-86382220D01*
X106135882Y-86321923D01*
X106175983Y-86262777D01*
X106204954Y-86220367D01*
X106244983Y-86162748D01*
X106255219Y-86148559D01*
X106297340Y-86093064D01*
X106298646Y-86091455D01*
X106343125Y-86038261D01*
X106346517Y-86034351D01*
X106234361Y-85963228D01*
X106192540Y-86019501D01*
X106151953Y-86075726D01*
X106110670Y-86134711D01*
X106072092Y-86193695D01*
X106067152Y-86201560D01*
X106035680Y-86137543D01*
X106011758Y-86081539D01*
X105987224Y-86014006D01*
X105965905Y-85947301D01*
X105960809Y-85930401D01*
X105897508Y-85959938D01*
X105887976Y-85963912D01*
X105820956Y-85985454D01*
X105797362Y-86002893D01*
X105811039Y-86022725D01*
X105827794Y-86035377D01*
X105858227Y-86076410D01*
X105894515Y-86138023D01*
X105909518Y-86165656D01*
X105942917Y-86229059D01*
X105975263Y-86291682D01*
X105990216Y-86320897D01*
G37*
G36*
X104083217Y-86127359D02*
G01*
X104153036Y-86128513D01*
X104173147Y-86129411D01*
X104242855Y-86134648D01*
X104244954Y-86134882D01*
X104309923Y-86142062D01*
X104376943Y-86149243D01*
X104376943Y-85952286D01*
X104309923Y-85961860D01*
X104244954Y-85966647D01*
X104175536Y-85970902D01*
X104173147Y-85971092D01*
X104102006Y-85974062D01*
X104083217Y-85974170D01*
X104083217Y-85492718D01*
X104153642Y-85493602D01*
X104184773Y-85494770D01*
X104255309Y-85499333D01*
X104264787Y-85500241D01*
X104333470Y-85507187D01*
X104335568Y-85507422D01*
X104405312Y-85514134D01*
X104410453Y-85514602D01*
X104410453Y-85317645D01*
X104341845Y-85325786D01*
X104317787Y-85328587D01*
X104249591Y-85334189D01*
X104229225Y-85335084D01*
X104159774Y-85337026D01*
X104117752Y-85338161D01*
X104046116Y-85339187D01*
X103976581Y-85339517D01*
X103959092Y-85339529D01*
X103886106Y-85339529D01*
X103815216Y-85339529D01*
X103798722Y-85339529D01*
X103727612Y-85338444D01*
X103684515Y-85336452D01*
X103616321Y-85331145D01*
X103591849Y-85328587D01*
X103523439Y-85320637D01*
X103498499Y-85317645D01*
X103498499Y-85514602D01*
X103567357Y-85505755D01*
X103588087Y-85503660D01*
X103657040Y-85497774D01*
X103673914Y-85496480D01*
X103744450Y-85493016D01*
X103775129Y-85492718D01*
X103846655Y-85492718D01*
X103913956Y-85492718D01*
X103913956Y-85974170D01*
X103844252Y-85973784D01*
X103791884Y-85972802D01*
X103723276Y-85970521D01*
X103699218Y-85969725D01*
X103629954Y-85964376D01*
X103620572Y-85963228D01*
X103551869Y-85953803D01*
X103541584Y-85952286D01*
X103541584Y-86149243D01*
X103611110Y-86139295D01*
X103620572Y-86138301D01*
X103688938Y-86131980D01*
X103699218Y-86131120D01*
X103769918Y-86127539D01*
X103791884Y-86127359D01*
X103863611Y-86127359D01*
X103913956Y-86127359D01*
X103913956Y-86718231D01*
X103841940Y-86718039D01*
X103769712Y-86717328D01*
X103742644Y-86716863D01*
X103673791Y-86715143D01*
X103620572Y-86713786D01*
X103550135Y-86709981D01*
X103520041Y-86707289D01*
X103449502Y-86700060D01*
X103413698Y-86696347D01*
X103413698Y-86893304D01*
X103483590Y-86885983D01*
X103525854Y-86882362D01*
X103597276Y-86877191D01*
X103632198Y-86874840D01*
X103702715Y-86872075D01*
X103766238Y-86871420D01*
X103835521Y-86871420D01*
X103904724Y-86871420D01*
X103961144Y-86871420D01*
X104029766Y-86871420D01*
X104101445Y-86871420D01*
X104152288Y-86871420D01*
X104222472Y-86872275D01*
X104283251Y-86874840D01*
X104353467Y-86879776D01*
X104387543Y-86882362D01*
X104456419Y-86888772D01*
X104496964Y-86893304D01*
X104496964Y-86696347D01*
X104426251Y-86703782D01*
X104401563Y-86705921D01*
X104331533Y-86710019D01*
X104315052Y-86710709D01*
X104246206Y-86713558D01*
X104216573Y-86715154D01*
X104147619Y-86717642D01*
X104083217Y-86718231D01*
X104083217Y-86127359D01*
G37*
G36*
X104802316Y-85688650D02*
G01*
X104854994Y-85736559D01*
X104909504Y-85783944D01*
X104925415Y-85797387D01*
X104981168Y-85843117D01*
X105036529Y-85886361D01*
X105052274Y-85898259D01*
X105083087Y-85836243D01*
X105120562Y-85776778D01*
X105135024Y-85757380D01*
X105074677Y-85718423D01*
X105017505Y-85678747D01*
X104956052Y-85632521D01*
X104898745Y-85585355D01*
X104885066Y-85573416D01*
X104933771Y-85519347D01*
X104983459Y-85470663D01*
X105040533Y-85422331D01*
X105085785Y-85389452D01*
X104983545Y-85273877D01*
X104929262Y-85320039D01*
X104877201Y-85367568D01*
X104827363Y-85418004D01*
X104780432Y-85472886D01*
X104733149Y-85418159D01*
X104688625Y-85362458D01*
X104646860Y-85305783D01*
X104624849Y-85273877D01*
X104568852Y-85315565D01*
X104547229Y-85329955D01*
X104489014Y-85366948D01*
X104469267Y-85379536D01*
X104454563Y-85397317D01*
X104477131Y-85408943D01*
X104500041Y-85416808D01*
X104536287Y-85442111D01*
X104588310Y-85487739D01*
X104597494Y-85496138D01*
X104649469Y-85544699D01*
X104693921Y-85587094D01*
X104658694Y-85647411D01*
X104628024Y-85711034D01*
X104601913Y-85777962D01*
X104580360Y-85848197D01*
X104563365Y-85921737D01*
X104550928Y-85998584D01*
X104547229Y-86030248D01*
X104540748Y-86111956D01*
X104537973Y-86197438D01*
X104538421Y-86268540D01*
X104541242Y-86342057D01*
X104546436Y-86417989D01*
X104554001Y-86496336D01*
X104563939Y-86577098D01*
X104569797Y-86618385D01*
X104585441Y-86687713D01*
X104608436Y-86746612D01*
X104647418Y-86805541D01*
X104682979Y-86840304D01*
X104740961Y-86879797D01*
X104803342Y-86909034D01*
X104871671Y-86932558D01*
X104938991Y-86950638D01*
X104975680Y-86958957D01*
X104993295Y-86889890D01*
X105021565Y-86825944D01*
X105057572Y-86763424D01*
X105062191Y-86756187D01*
X104986665Y-86753985D01*
X104914062Y-86744203D01*
X104843103Y-86721741D01*
X104822149Y-86710709D01*
X104770986Y-86664835D01*
X104738280Y-86604367D01*
X104721618Y-86541790D01*
X104710566Y-86470497D01*
X104701857Y-86397669D01*
X104695973Y-86330129D01*
X104692425Y-86255218D01*
X104692594Y-86180469D01*
X104695973Y-86112655D01*
X104739415Y-86167152D01*
X104785111Y-86221649D01*
X104791374Y-86228915D01*
X104838723Y-86281889D01*
X104886523Y-86332459D01*
X104892930Y-86339020D01*
X104944221Y-86389370D01*
X104995512Y-86436473D01*
X105048102Y-86480643D01*
X105091939Y-86512725D01*
X105117552Y-86447401D01*
X105124424Y-86432711D01*
X105158910Y-86370225D01*
X105170586Y-86352355D01*
X105108182Y-86314144D01*
X105047145Y-86269948D01*
X104987477Y-86219768D01*
X104936389Y-86170952D01*
X104929176Y-86163605D01*
X104880038Y-86110450D01*
X104833452Y-86054809D01*
X104789418Y-85996680D01*
X104747937Y-85936065D01*
X104725380Y-85900311D01*
X104743913Y-85827482D01*
X104767454Y-85760730D01*
X104799136Y-85694322D01*
X104802316Y-85688650D01*
G37*
G36*
X102040506Y-86283807D02*
G01*
X102065847Y-86348426D01*
X102095406Y-86412219D01*
X102127320Y-86473744D01*
X102146731Y-86508932D01*
X102183101Y-86571890D01*
X102221311Y-86634362D01*
X102261360Y-86696347D01*
X102570474Y-86696347D01*
X102604832Y-86696296D01*
X102682453Y-86695779D01*
X102756506Y-86694706D01*
X102826993Y-86693077D01*
X102903182Y-86690534D01*
X102957542Y-86688094D01*
X103026806Y-86684429D01*
X103100335Y-86679743D01*
X103169211Y-86674463D01*
X103169211Y-86871420D01*
X103111773Y-86867509D01*
X103039596Y-86863433D01*
X102961856Y-86859880D01*
X102890794Y-86857251D01*
X102815645Y-86855007D01*
X102802711Y-86854671D01*
X102722249Y-86852875D01*
X102651450Y-86851673D01*
X102577245Y-86850738D01*
X102499634Y-86850070D01*
X102418617Y-86849670D01*
X102334193Y-86849536D01*
X102317014Y-86849541D01*
X102233118Y-86849728D01*
X102152562Y-86850183D01*
X102075345Y-86850904D01*
X102001467Y-86851892D01*
X101930929Y-86853148D01*
X101850690Y-86855007D01*
X101799656Y-86856460D01*
X101726630Y-86858961D01*
X101646782Y-86862364D01*
X101572693Y-86866291D01*
X101495073Y-86871420D01*
X101495073Y-86674463D01*
X101546219Y-86678621D01*
X101618086Y-86683439D01*
X101687735Y-86687221D01*
X101762812Y-86690534D01*
X101802108Y-86691896D01*
X101872805Y-86693844D01*
X101945957Y-86695234D01*
X102021563Y-86696069D01*
X102099623Y-86696347D01*
X102086057Y-86676643D01*
X102044700Y-86617917D01*
X102002170Y-86560255D01*
X101971764Y-86520841D01*
X101927285Y-86466905D01*
X101921290Y-86460073D01*
X101873258Y-86410143D01*
X101835645Y-86380394D01*
X101820258Y-86362956D01*
X101839748Y-86353039D01*
X101877362Y-86344491D01*
X101932414Y-86323974D01*
X101990544Y-86298329D01*
X102036706Y-86272683D01*
X102040506Y-86283807D01*
G37*
G36*
X102810858Y-86387917D02*
G01*
X102802343Y-86399071D01*
X102760128Y-86458627D01*
X102721270Y-86519906D01*
X102705057Y-86547423D01*
X102673063Y-86608445D01*
X102645359Y-86671385D01*
X102485673Y-86590688D01*
X102497736Y-86568518D01*
X102534799Y-86505911D01*
X102573551Y-86447073D01*
X102582873Y-86433512D01*
X102625340Y-86374439D01*
X102668953Y-86318845D01*
X102810858Y-86387917D01*
G37*
G36*
X102898394Y-85708311D02*
G01*
X102893607Y-85779606D01*
X102892646Y-85798706D01*
X102890289Y-85867494D01*
X102889504Y-85939292D01*
X102889604Y-85966612D01*
X102890802Y-86036316D01*
X102893607Y-86109236D01*
X102893846Y-86114328D01*
X102898394Y-86186856D01*
X102905233Y-86256270D01*
X102864906Y-86253449D01*
X102795129Y-86248748D01*
X102739019Y-86245201D01*
X102669979Y-86241909D01*
X102665713Y-86241718D01*
X102594109Y-86239218D01*
X102521235Y-86237806D01*
X102484980Y-86237406D01*
X102412615Y-86236924D01*
X102340006Y-86236780D01*
X102291285Y-86236860D01*
X102222071Y-86237281D01*
X102147185Y-86238227D01*
X102078615Y-86239665D01*
X102007983Y-86241909D01*
X101991468Y-86242519D01*
X101919929Y-86245564D01*
X101845771Y-86249517D01*
X101770676Y-86254561D01*
X101771889Y-86244869D01*
X101779282Y-86172861D01*
X101783670Y-86102055D01*
X101784458Y-86078337D01*
X101785954Y-86008549D01*
X101786406Y-85939292D01*
X101786373Y-85923653D01*
X101785344Y-85852500D01*
X101783366Y-85799096D01*
X101959769Y-85799096D01*
X101959769Y-86105475D01*
X102726057Y-86105475D01*
X102726057Y-85799096D01*
X101959769Y-85799096D01*
X101783366Y-85799096D01*
X101782644Y-85779606D01*
X101778334Y-85716718D01*
X101770676Y-85646249D01*
X101790484Y-85648073D01*
X101860154Y-85653629D01*
X101935434Y-85658384D01*
X102007983Y-85661979D01*
X102042268Y-85663341D01*
X102117024Y-85665521D01*
X102189203Y-85666832D01*
X102267698Y-85667587D01*
X102340006Y-85667792D01*
X102383039Y-85667742D01*
X102452395Y-85667430D01*
X102521235Y-85666766D01*
X102526266Y-85666700D01*
X102598770Y-85665312D01*
X102669979Y-85663004D01*
X102723295Y-85660391D01*
X102795129Y-85656166D01*
X102833903Y-85653143D01*
X102905233Y-85646249D01*
X102898394Y-85708311D01*
G37*
G36*
X103100139Y-85488615D02*
G01*
X103091257Y-85488145D01*
X103022425Y-85484619D01*
X102949685Y-85481092D01*
X102913992Y-85479395D01*
X102844058Y-85476765D01*
X102775296Y-85474937D01*
X102714742Y-85473755D01*
X102644507Y-85472686D01*
X102570474Y-85471860D01*
X102542526Y-85471620D01*
X102469710Y-85471159D01*
X102400578Y-85470915D01*
X102328039Y-85470834D01*
X102248090Y-85470959D01*
X102171948Y-85471335D01*
X102099613Y-85471961D01*
X102031085Y-85472838D01*
X101953876Y-85474220D01*
X101882149Y-85475963D01*
X101859284Y-85476574D01*
X101781993Y-85478899D01*
X101708956Y-85481520D01*
X101630695Y-85484875D01*
X101557990Y-85488615D01*
X101557990Y-85317645D01*
X101584603Y-85319887D01*
X101659392Y-85325219D01*
X101729390Y-85329113D01*
X101803642Y-85332288D01*
X101882149Y-85334742D01*
X101953876Y-85336369D01*
X102031085Y-85337659D01*
X102099613Y-85338477D01*
X102171948Y-85339062D01*
X102248090Y-85339412D01*
X102328039Y-85339529D01*
X102352597Y-85339520D01*
X102424001Y-85339385D01*
X102499341Y-85339044D01*
X102570474Y-85338503D01*
X102631275Y-85337653D01*
X102701987Y-85336393D01*
X102774612Y-85334742D01*
X102803475Y-85333936D01*
X102875627Y-85331292D01*
X102948660Y-85327561D01*
X102958708Y-85326921D01*
X103031602Y-85322208D01*
X103100139Y-85317645D01*
X103100139Y-85488615D01*
G37*
G36*
X100929504Y-86336626D02*
G01*
X100764005Y-86336626D01*
X100764005Y-85974170D01*
X100559183Y-85974170D01*
X100494924Y-85976998D01*
X100429246Y-85998106D01*
X100416496Y-86019417D01*
X100403600Y-86088378D01*
X100395736Y-86194721D01*
X100388107Y-86266263D01*
X100374193Y-86336626D01*
X100185101Y-86336626D01*
X100210746Y-86291490D01*
X100234340Y-86238147D01*
X100240153Y-86185147D01*
X100240153Y-86086668D01*
X100243426Y-86017637D01*
X100259986Y-85951260D01*
X100271355Y-85932859D01*
X100324954Y-85888685D01*
X100319127Y-85884770D01*
X100267236Y-85832713D01*
X100237729Y-85764172D01*
X100231961Y-85711560D01*
X100395736Y-85711560D01*
X100398258Y-85739706D01*
X100436085Y-85796703D01*
X100492080Y-85815646D01*
X100563286Y-85820981D01*
X100764005Y-85820981D01*
X100764005Y-85602139D01*
X100555422Y-85602139D01*
X100501690Y-85605008D01*
X100432323Y-85626417D01*
X100413029Y-85645163D01*
X100395736Y-85711560D01*
X100231961Y-85711560D01*
X100230237Y-85695831D01*
X100236241Y-85627787D01*
X100259889Y-85560417D01*
X100306147Y-85506738D01*
X100343923Y-85484221D01*
X100413727Y-85461647D01*
X100482986Y-85451715D01*
X100553370Y-85448950D01*
X100929504Y-85448950D01*
X100929504Y-86336626D01*
G37*
G36*
X100625346Y-85142968D02*
G01*
X100698652Y-85148919D01*
X100770371Y-85162010D01*
X100840503Y-85182242D01*
X100909049Y-85209615D01*
X100976008Y-85244128D01*
X100997733Y-85257070D01*
X101059463Y-85299373D01*
X101116023Y-85346893D01*
X101167414Y-85399630D01*
X101213636Y-85457585D01*
X101254689Y-85520757D01*
X101267070Y-85542784D01*
X101299419Y-85610068D01*
X101324580Y-85679154D01*
X101342552Y-85750044D01*
X101353335Y-85822737D01*
X101356929Y-85897233D01*
X101356534Y-85922224D01*
X101350603Y-85996011D01*
X101337556Y-86068019D01*
X101317392Y-86138248D01*
X101290112Y-86206697D01*
X101255715Y-86273367D01*
X101242732Y-86294968D01*
X101200321Y-86356373D01*
X101152716Y-86412681D01*
X101099918Y-86463892D01*
X101041927Y-86510006D01*
X100978743Y-86551023D01*
X100956718Y-86563403D01*
X100889454Y-86595753D01*
X100820412Y-86620913D01*
X100749590Y-86638885D01*
X100676989Y-86649668D01*
X100602609Y-86653263D01*
X100577574Y-86652867D01*
X100503639Y-86646937D01*
X100431459Y-86633890D01*
X100361034Y-86613726D01*
X100292364Y-86586445D01*
X100225450Y-86552048D01*
X100203688Y-86539069D01*
X100141931Y-86496718D01*
X100085463Y-86449246D01*
X100034284Y-86396653D01*
X99988394Y-86338938D01*
X99947794Y-86276103D01*
X99935497Y-86254201D01*
X99903364Y-86187262D01*
X99878371Y-86118472D01*
X99860519Y-86047831D01*
X99849808Y-85975339D01*
X99846238Y-85900995D01*
X99846281Y-85898259D01*
X99974124Y-85898259D01*
X99974852Y-85930941D01*
X99983041Y-86009888D01*
X100000330Y-86084894D01*
X100026719Y-86155960D01*
X100062207Y-86223086D01*
X100106794Y-86286271D01*
X100160481Y-86345517D01*
X100183991Y-86367669D01*
X100245021Y-86416798D01*
X100309273Y-86456994D01*
X100376748Y-86488258D01*
X100447445Y-86510589D01*
X100521364Y-86523988D01*
X100598506Y-86528454D01*
X100630488Y-86527724D01*
X100707919Y-86519504D01*
X100781743Y-86502152D01*
X100851961Y-86475667D01*
X100918573Y-86440048D01*
X100981578Y-86395297D01*
X101040976Y-86341413D01*
X101063253Y-86317771D01*
X101112658Y-86256376D01*
X101153079Y-86191708D01*
X101184518Y-86123767D01*
X101206975Y-86052554D01*
X101220449Y-85978069D01*
X101224940Y-85900311D01*
X101224222Y-85867637D01*
X101216137Y-85788780D01*
X101199070Y-85713964D01*
X101173021Y-85643189D01*
X101137989Y-85576453D01*
X101093974Y-85513759D01*
X101040976Y-85455105D01*
X101017650Y-85433159D01*
X100956808Y-85384490D01*
X100892361Y-85344669D01*
X100824307Y-85313697D01*
X100752646Y-85291575D01*
X100677379Y-85278301D01*
X100598506Y-85273877D01*
X100566081Y-85274605D01*
X100487775Y-85282794D01*
X100413410Y-85300083D01*
X100342985Y-85326472D01*
X100276500Y-85361960D01*
X100213956Y-85406547D01*
X100155352Y-85460234D01*
X100133406Y-85483744D01*
X100084737Y-85544774D01*
X100044916Y-85609026D01*
X100013944Y-85676501D01*
X99991822Y-85747198D01*
X99978548Y-85821117D01*
X99974124Y-85898259D01*
X99846281Y-85898259D01*
X99846631Y-85875960D01*
X99852521Y-85802024D01*
X99865480Y-85729844D01*
X99885508Y-85659419D01*
X99912604Y-85590750D01*
X99946769Y-85523835D01*
X99959623Y-85502070D01*
X100001650Y-85440252D01*
X100048870Y-85383651D01*
X100101283Y-85332268D01*
X100158889Y-85286102D01*
X100221688Y-85245154D01*
X100243564Y-85232732D01*
X100310635Y-85200274D01*
X100379870Y-85175029D01*
X100451269Y-85156997D01*
X100524831Y-85146178D01*
X100600558Y-85142572D01*
X100625346Y-85142968D01*
G37*
D13*
X98472331Y-30495863D02*
X98472331Y-30019673D01*
X98472331Y-30019673D02*
X97472331Y-30019673D01*
X98472331Y-30972054D02*
X98424712Y-30876816D01*
X98424712Y-30876816D02*
X98377092Y-30829197D01*
X98377092Y-30829197D02*
X98281854Y-30781578D01*
X98281854Y-30781578D02*
X97996140Y-30781578D01*
X97996140Y-30781578D02*
X97900902Y-30829197D01*
X97900902Y-30829197D02*
X97853283Y-30876816D01*
X97853283Y-30876816D02*
X97805664Y-30972054D01*
X97805664Y-30972054D02*
X97805664Y-31114911D01*
X97805664Y-31114911D02*
X97853283Y-31210149D01*
X97853283Y-31210149D02*
X97900902Y-31257768D01*
X97900902Y-31257768D02*
X97996140Y-31305387D01*
X97996140Y-31305387D02*
X98281854Y-31305387D01*
X98281854Y-31305387D02*
X98377092Y-31257768D01*
X98377092Y-31257768D02*
X98424712Y-31210149D01*
X98424712Y-31210149D02*
X98472331Y-31114911D01*
X98472331Y-31114911D02*
X98472331Y-30972054D01*
X97805664Y-31638721D02*
X98472331Y-31829197D01*
X98472331Y-31829197D02*
X97996140Y-32019673D01*
X97996140Y-32019673D02*
X98472331Y-32210149D01*
X98472331Y-32210149D02*
X97805664Y-32400625D01*
X98091378Y-32781578D02*
X98091378Y-33543483D01*
X98424712Y-33972054D02*
X98472331Y-34114911D01*
X98472331Y-34114911D02*
X98472331Y-34353006D01*
X98472331Y-34353006D02*
X98424712Y-34448244D01*
X98424712Y-34448244D02*
X98377092Y-34495863D01*
X98377092Y-34495863D02*
X98281854Y-34543482D01*
X98281854Y-34543482D02*
X98186616Y-34543482D01*
X98186616Y-34543482D02*
X98091378Y-34495863D01*
X98091378Y-34495863D02*
X98043759Y-34448244D01*
X98043759Y-34448244D02*
X97996140Y-34353006D01*
X97996140Y-34353006D02*
X97948521Y-34162530D01*
X97948521Y-34162530D02*
X97900902Y-34067292D01*
X97900902Y-34067292D02*
X97853283Y-34019673D01*
X97853283Y-34019673D02*
X97758045Y-33972054D01*
X97758045Y-33972054D02*
X97662807Y-33972054D01*
X97662807Y-33972054D02*
X97567569Y-34019673D01*
X97567569Y-34019673D02*
X97519950Y-34067292D01*
X97519950Y-34067292D02*
X97472331Y-34162530D01*
X97472331Y-34162530D02*
X97472331Y-34400625D01*
X97472331Y-34400625D02*
X97519950Y-34543482D01*
X98472331Y-34972054D02*
X97805664Y-34972054D01*
X97472331Y-34972054D02*
X97519950Y-34924435D01*
X97519950Y-34924435D02*
X97567569Y-34972054D01*
X97567569Y-34972054D02*
X97519950Y-35019673D01*
X97519950Y-35019673D02*
X97472331Y-34972054D01*
X97472331Y-34972054D02*
X97567569Y-34972054D01*
X98472331Y-35876815D02*
X97472331Y-35876815D01*
X98424712Y-35876815D02*
X98472331Y-35781577D01*
X98472331Y-35781577D02*
X98472331Y-35591101D01*
X98472331Y-35591101D02*
X98424712Y-35495863D01*
X98424712Y-35495863D02*
X98377092Y-35448244D01*
X98377092Y-35448244D02*
X98281854Y-35400625D01*
X98281854Y-35400625D02*
X97996140Y-35400625D01*
X97996140Y-35400625D02*
X97900902Y-35448244D01*
X97900902Y-35448244D02*
X97853283Y-35495863D01*
X97853283Y-35495863D02*
X97805664Y-35591101D01*
X97805664Y-35591101D02*
X97805664Y-35781577D01*
X97805664Y-35781577D02*
X97853283Y-35876815D01*
X98424712Y-36733958D02*
X98472331Y-36638720D01*
X98472331Y-36638720D02*
X98472331Y-36448244D01*
X98472331Y-36448244D02*
X98424712Y-36353006D01*
X98424712Y-36353006D02*
X98329473Y-36305387D01*
X98329473Y-36305387D02*
X97948521Y-36305387D01*
X97948521Y-36305387D02*
X97853283Y-36353006D01*
X97853283Y-36353006D02*
X97805664Y-36448244D01*
X97805664Y-36448244D02*
X97805664Y-36638720D01*
X97805664Y-36638720D02*
X97853283Y-36733958D01*
X97853283Y-36733958D02*
X97948521Y-36781577D01*
X97948521Y-36781577D02*
X98043759Y-36781577D01*
X98043759Y-36781577D02*
X98138997Y-36305387D01*
X98424712Y-37924435D02*
X98472331Y-38067292D01*
X98472331Y-38067292D02*
X98472331Y-38305387D01*
X98472331Y-38305387D02*
X98424712Y-38400625D01*
X98424712Y-38400625D02*
X98377092Y-38448244D01*
X98377092Y-38448244D02*
X98281854Y-38495863D01*
X98281854Y-38495863D02*
X98186616Y-38495863D01*
X98186616Y-38495863D02*
X98091378Y-38448244D01*
X98091378Y-38448244D02*
X98043759Y-38400625D01*
X98043759Y-38400625D02*
X97996140Y-38305387D01*
X97996140Y-38305387D02*
X97948521Y-38114911D01*
X97948521Y-38114911D02*
X97900902Y-38019673D01*
X97900902Y-38019673D02*
X97853283Y-37972054D01*
X97853283Y-37972054D02*
X97758045Y-37924435D01*
X97758045Y-37924435D02*
X97662807Y-37924435D01*
X97662807Y-37924435D02*
X97567569Y-37972054D01*
X97567569Y-37972054D02*
X97519950Y-38019673D01*
X97519950Y-38019673D02*
X97472331Y-38114911D01*
X97472331Y-38114911D02*
X97472331Y-38353006D01*
X97472331Y-38353006D02*
X97519950Y-38495863D01*
X97805664Y-38829197D02*
X98472331Y-39019673D01*
X98472331Y-39019673D02*
X97996140Y-39210149D01*
X97996140Y-39210149D02*
X98472331Y-39400625D01*
X98472331Y-39400625D02*
X97805664Y-39591101D01*
X98472331Y-39972054D02*
X97805664Y-39972054D01*
X97472331Y-39972054D02*
X97519950Y-39924435D01*
X97519950Y-39924435D02*
X97567569Y-39972054D01*
X97567569Y-39972054D02*
X97519950Y-40019673D01*
X97519950Y-40019673D02*
X97472331Y-39972054D01*
X97472331Y-39972054D02*
X97567569Y-39972054D01*
X97805664Y-40305387D02*
X97805664Y-40686339D01*
X97472331Y-40448244D02*
X98329473Y-40448244D01*
X98329473Y-40448244D02*
X98424712Y-40495863D01*
X98424712Y-40495863D02*
X98472331Y-40591101D01*
X98472331Y-40591101D02*
X98472331Y-40686339D01*
X98424712Y-41448244D02*
X98472331Y-41353006D01*
X98472331Y-41353006D02*
X98472331Y-41162530D01*
X98472331Y-41162530D02*
X98424712Y-41067292D01*
X98424712Y-41067292D02*
X98377092Y-41019673D01*
X98377092Y-41019673D02*
X98281854Y-40972054D01*
X98281854Y-40972054D02*
X97996140Y-40972054D01*
X97996140Y-40972054D02*
X97900902Y-41019673D01*
X97900902Y-41019673D02*
X97853283Y-41067292D01*
X97853283Y-41067292D02*
X97805664Y-41162530D01*
X97805664Y-41162530D02*
X97805664Y-41353006D01*
X97805664Y-41353006D02*
X97853283Y-41448244D01*
X98472331Y-41876816D02*
X97472331Y-41876816D01*
X98472331Y-42305387D02*
X97948521Y-42305387D01*
X97948521Y-42305387D02*
X97853283Y-42257768D01*
X97853283Y-42257768D02*
X97805664Y-42162530D01*
X97805664Y-42162530D02*
X97805664Y-42019673D01*
X97805664Y-42019673D02*
X97853283Y-41924435D01*
X97853283Y-41924435D02*
X97900902Y-41876816D01*
X98377092Y-44114911D02*
X98424712Y-44067292D01*
X98424712Y-44067292D02*
X98472331Y-43924435D01*
X98472331Y-43924435D02*
X98472331Y-43829197D01*
X98472331Y-43829197D02*
X98424712Y-43686340D01*
X98424712Y-43686340D02*
X98329473Y-43591102D01*
X98329473Y-43591102D02*
X98234235Y-43543483D01*
X98234235Y-43543483D02*
X98043759Y-43495864D01*
X98043759Y-43495864D02*
X97900902Y-43495864D01*
X97900902Y-43495864D02*
X97710426Y-43543483D01*
X97710426Y-43543483D02*
X97615188Y-43591102D01*
X97615188Y-43591102D02*
X97519950Y-43686340D01*
X97519950Y-43686340D02*
X97472331Y-43829197D01*
X97472331Y-43829197D02*
X97472331Y-43924435D01*
X97472331Y-43924435D02*
X97519950Y-44067292D01*
X97519950Y-44067292D02*
X97567569Y-44114911D01*
X98472331Y-44686340D02*
X98424712Y-44591102D01*
X98424712Y-44591102D02*
X98377092Y-44543483D01*
X98377092Y-44543483D02*
X98281854Y-44495864D01*
X98281854Y-44495864D02*
X97996140Y-44495864D01*
X97996140Y-44495864D02*
X97900902Y-44543483D01*
X97900902Y-44543483D02*
X97853283Y-44591102D01*
X97853283Y-44591102D02*
X97805664Y-44686340D01*
X97805664Y-44686340D02*
X97805664Y-44829197D01*
X97805664Y-44829197D02*
X97853283Y-44924435D01*
X97853283Y-44924435D02*
X97900902Y-44972054D01*
X97900902Y-44972054D02*
X97996140Y-45019673D01*
X97996140Y-45019673D02*
X98281854Y-45019673D01*
X98281854Y-45019673D02*
X98377092Y-44972054D01*
X98377092Y-44972054D02*
X98424712Y-44924435D01*
X98424712Y-44924435D02*
X98472331Y-44829197D01*
X98472331Y-44829197D02*
X98472331Y-44686340D01*
X97805664Y-45448245D02*
X98472331Y-45448245D01*
X97900902Y-45448245D02*
X97853283Y-45495864D01*
X97853283Y-45495864D02*
X97805664Y-45591102D01*
X97805664Y-45591102D02*
X97805664Y-45733959D01*
X97805664Y-45733959D02*
X97853283Y-45829197D01*
X97853283Y-45829197D02*
X97948521Y-45876816D01*
X97948521Y-45876816D02*
X98472331Y-45876816D01*
X97805664Y-46210150D02*
X97805664Y-46591102D01*
X97472331Y-46353007D02*
X98329473Y-46353007D01*
X98329473Y-46353007D02*
X98424712Y-46400626D01*
X98424712Y-46400626D02*
X98472331Y-46495864D01*
X98472331Y-46495864D02*
X98472331Y-46591102D01*
X98472331Y-46924436D02*
X97805664Y-46924436D01*
X97996140Y-46924436D02*
X97900902Y-46972055D01*
X97900902Y-46972055D02*
X97853283Y-47019674D01*
X97853283Y-47019674D02*
X97805664Y-47114912D01*
X97805664Y-47114912D02*
X97805664Y-47210150D01*
X98472331Y-47686341D02*
X98424712Y-47591103D01*
X98424712Y-47591103D02*
X98377092Y-47543484D01*
X98377092Y-47543484D02*
X98281854Y-47495865D01*
X98281854Y-47495865D02*
X97996140Y-47495865D01*
X97996140Y-47495865D02*
X97900902Y-47543484D01*
X97900902Y-47543484D02*
X97853283Y-47591103D01*
X97853283Y-47591103D02*
X97805664Y-47686341D01*
X97805664Y-47686341D02*
X97805664Y-47829198D01*
X97805664Y-47829198D02*
X97853283Y-47924436D01*
X97853283Y-47924436D02*
X97900902Y-47972055D01*
X97900902Y-47972055D02*
X97996140Y-48019674D01*
X97996140Y-48019674D02*
X98281854Y-48019674D01*
X98281854Y-48019674D02*
X98377092Y-47972055D01*
X98377092Y-47972055D02*
X98424712Y-47924436D01*
X98424712Y-47924436D02*
X98472331Y-47829198D01*
X98472331Y-47829198D02*
X98472331Y-47686341D01*
X98472331Y-48591103D02*
X98424712Y-48495865D01*
X98424712Y-48495865D02*
X98329473Y-48448246D01*
X98329473Y-48448246D02*
X97472331Y-48448246D01*
X98377092Y-48972056D02*
X98424712Y-49019675D01*
X98424712Y-49019675D02*
X98472331Y-48972056D01*
X98472331Y-48972056D02*
X98424712Y-48924437D01*
X98424712Y-48924437D02*
X98377092Y-48972056D01*
X98377092Y-48972056D02*
X98472331Y-48972056D01*
X97853283Y-48972056D02*
X97900902Y-49019675D01*
X97900902Y-49019675D02*
X97948521Y-48972056D01*
X97948521Y-48972056D02*
X97900902Y-48924437D01*
X97900902Y-48924437D02*
X97853283Y-48972056D01*
X97853283Y-48972056D02*
X97948521Y-48972056D01*
X98472331Y-50210151D02*
X97472331Y-50210151D01*
X97472331Y-50210151D02*
X97472331Y-50591103D01*
X97472331Y-50591103D02*
X97519950Y-50686341D01*
X97519950Y-50686341D02*
X97567569Y-50733960D01*
X97567569Y-50733960D02*
X97662807Y-50781579D01*
X97662807Y-50781579D02*
X97805664Y-50781579D01*
X97805664Y-50781579D02*
X97900902Y-50733960D01*
X97900902Y-50733960D02*
X97948521Y-50686341D01*
X97948521Y-50686341D02*
X97996140Y-50591103D01*
X97996140Y-50591103D02*
X97996140Y-50210151D01*
X98472331Y-51733960D02*
X98472331Y-51162532D01*
X98472331Y-51448246D02*
X97472331Y-51448246D01*
X97472331Y-51448246D02*
X97615188Y-51353008D01*
X97615188Y-51353008D02*
X97710426Y-51257770D01*
X97710426Y-51257770D02*
X97758045Y-51162532D01*
X98424712Y-52210151D02*
X98472331Y-52210151D01*
X98472331Y-52210151D02*
X98567569Y-52162532D01*
X98567569Y-52162532D02*
X98615188Y-52114913D01*
X98472331Y-53400627D02*
X97472331Y-53400627D01*
X97472331Y-53400627D02*
X97472331Y-53781579D01*
X97472331Y-53781579D02*
X97519950Y-53876817D01*
X97519950Y-53876817D02*
X97567569Y-53924436D01*
X97567569Y-53924436D02*
X97662807Y-53972055D01*
X97662807Y-53972055D02*
X97805664Y-53972055D01*
X97805664Y-53972055D02*
X97900902Y-53924436D01*
X97900902Y-53924436D02*
X97948521Y-53876817D01*
X97948521Y-53876817D02*
X97996140Y-53781579D01*
X97996140Y-53781579D02*
X97996140Y-53400627D01*
X97567569Y-54353008D02*
X97519950Y-54400627D01*
X97519950Y-54400627D02*
X97472331Y-54495865D01*
X97472331Y-54495865D02*
X97472331Y-54733960D01*
X97472331Y-54733960D02*
X97519950Y-54829198D01*
X97519950Y-54829198D02*
X97567569Y-54876817D01*
X97567569Y-54876817D02*
X97662807Y-54924436D01*
X97662807Y-54924436D02*
X97758045Y-54924436D01*
X97758045Y-54924436D02*
X97900902Y-54876817D01*
X97900902Y-54876817D02*
X98472331Y-54305389D01*
X98472331Y-54305389D02*
X98472331Y-54924436D01*
X100082275Y-30543482D02*
X100082275Y-29972054D01*
X100082275Y-30257768D02*
X99082275Y-30257768D01*
X99082275Y-30257768D02*
X99225132Y-30162530D01*
X99225132Y-30162530D02*
X99320370Y-30067292D01*
X99320370Y-30067292D02*
X99367989Y-29972054D01*
X99987036Y-30972054D02*
X100034656Y-31019673D01*
X100034656Y-31019673D02*
X100082275Y-30972054D01*
X100082275Y-30972054D02*
X100034656Y-30924435D01*
X100034656Y-30924435D02*
X99987036Y-30972054D01*
X99987036Y-30972054D02*
X100082275Y-30972054D01*
X100082275Y-31448244D02*
X99082275Y-31448244D01*
X99082275Y-31448244D02*
X99082275Y-31829196D01*
X99082275Y-31829196D02*
X99129894Y-31924434D01*
X99129894Y-31924434D02*
X99177513Y-31972053D01*
X99177513Y-31972053D02*
X99272751Y-32019672D01*
X99272751Y-32019672D02*
X99415608Y-32019672D01*
X99415608Y-32019672D02*
X99510846Y-31972053D01*
X99510846Y-31972053D02*
X99558465Y-31924434D01*
X99558465Y-31924434D02*
X99606084Y-31829196D01*
X99606084Y-31829196D02*
X99606084Y-31448244D01*
X100082275Y-32448244D02*
X99082275Y-32448244D01*
X100082275Y-32876815D02*
X99558465Y-32876815D01*
X99558465Y-32876815D02*
X99463227Y-32829196D01*
X99463227Y-32829196D02*
X99415608Y-32733958D01*
X99415608Y-32733958D02*
X99415608Y-32591101D01*
X99415608Y-32591101D02*
X99463227Y-32495863D01*
X99463227Y-32495863D02*
X99510846Y-32448244D01*
X99415608Y-33257768D02*
X100082275Y-33495863D01*
X99415608Y-33733958D02*
X100082275Y-33495863D01*
X100082275Y-33495863D02*
X100320370Y-33400625D01*
X100320370Y-33400625D02*
X100367989Y-33353006D01*
X100367989Y-33353006D02*
X100415608Y-33257768D01*
X100034656Y-34067292D02*
X100082275Y-34162530D01*
X100082275Y-34162530D02*
X100082275Y-34353006D01*
X100082275Y-34353006D02*
X100034656Y-34448244D01*
X100034656Y-34448244D02*
X99939417Y-34495863D01*
X99939417Y-34495863D02*
X99891798Y-34495863D01*
X99891798Y-34495863D02*
X99796560Y-34448244D01*
X99796560Y-34448244D02*
X99748941Y-34353006D01*
X99748941Y-34353006D02*
X99748941Y-34210149D01*
X99748941Y-34210149D02*
X99701322Y-34114911D01*
X99701322Y-34114911D02*
X99606084Y-34067292D01*
X99606084Y-34067292D02*
X99558465Y-34067292D01*
X99558465Y-34067292D02*
X99463227Y-34114911D01*
X99463227Y-34114911D02*
X99415608Y-34210149D01*
X99415608Y-34210149D02*
X99415608Y-34353006D01*
X99415608Y-34353006D02*
X99463227Y-34448244D01*
X100082275Y-34924435D02*
X99415608Y-34924435D01*
X99082275Y-34924435D02*
X99129894Y-34876816D01*
X99129894Y-34876816D02*
X99177513Y-34924435D01*
X99177513Y-34924435D02*
X99129894Y-34972054D01*
X99129894Y-34972054D02*
X99082275Y-34924435D01*
X99082275Y-34924435D02*
X99177513Y-34924435D01*
X100034656Y-35829196D02*
X100082275Y-35733958D01*
X100082275Y-35733958D02*
X100082275Y-35543482D01*
X100082275Y-35543482D02*
X100034656Y-35448244D01*
X100034656Y-35448244D02*
X99987036Y-35400625D01*
X99987036Y-35400625D02*
X99891798Y-35353006D01*
X99891798Y-35353006D02*
X99606084Y-35353006D01*
X99606084Y-35353006D02*
X99510846Y-35400625D01*
X99510846Y-35400625D02*
X99463227Y-35448244D01*
X99463227Y-35448244D02*
X99415608Y-35543482D01*
X99415608Y-35543482D02*
X99415608Y-35733958D01*
X99415608Y-35733958D02*
X99463227Y-35829196D01*
X100082275Y-36686339D02*
X99558465Y-36686339D01*
X99558465Y-36686339D02*
X99463227Y-36638720D01*
X99463227Y-36638720D02*
X99415608Y-36543482D01*
X99415608Y-36543482D02*
X99415608Y-36353006D01*
X99415608Y-36353006D02*
X99463227Y-36257768D01*
X100034656Y-36686339D02*
X100082275Y-36591101D01*
X100082275Y-36591101D02*
X100082275Y-36353006D01*
X100082275Y-36353006D02*
X100034656Y-36257768D01*
X100034656Y-36257768D02*
X99939417Y-36210149D01*
X99939417Y-36210149D02*
X99844179Y-36210149D01*
X99844179Y-36210149D02*
X99748941Y-36257768D01*
X99748941Y-36257768D02*
X99701322Y-36353006D01*
X99701322Y-36353006D02*
X99701322Y-36591101D01*
X99701322Y-36591101D02*
X99653703Y-36686339D01*
X100082275Y-37305387D02*
X100034656Y-37210149D01*
X100034656Y-37210149D02*
X99939417Y-37162530D01*
X99939417Y-37162530D02*
X99082275Y-37162530D01*
X100034656Y-38400626D02*
X100082275Y-38543483D01*
X100082275Y-38543483D02*
X100082275Y-38781578D01*
X100082275Y-38781578D02*
X100034656Y-38876816D01*
X100034656Y-38876816D02*
X99987036Y-38924435D01*
X99987036Y-38924435D02*
X99891798Y-38972054D01*
X99891798Y-38972054D02*
X99796560Y-38972054D01*
X99796560Y-38972054D02*
X99701322Y-38924435D01*
X99701322Y-38924435D02*
X99653703Y-38876816D01*
X99653703Y-38876816D02*
X99606084Y-38781578D01*
X99606084Y-38781578D02*
X99558465Y-38591102D01*
X99558465Y-38591102D02*
X99510846Y-38495864D01*
X99510846Y-38495864D02*
X99463227Y-38448245D01*
X99463227Y-38448245D02*
X99367989Y-38400626D01*
X99367989Y-38400626D02*
X99272751Y-38400626D01*
X99272751Y-38400626D02*
X99177513Y-38448245D01*
X99177513Y-38448245D02*
X99129894Y-38495864D01*
X99129894Y-38495864D02*
X99082275Y-38591102D01*
X99082275Y-38591102D02*
X99082275Y-38829197D01*
X99082275Y-38829197D02*
X99129894Y-38972054D01*
X99415608Y-39305388D02*
X100082275Y-39495864D01*
X100082275Y-39495864D02*
X99606084Y-39686340D01*
X99606084Y-39686340D02*
X100082275Y-39876816D01*
X100082275Y-39876816D02*
X99415608Y-40067292D01*
X100082275Y-40448245D02*
X99415608Y-40448245D01*
X99082275Y-40448245D02*
X99129894Y-40400626D01*
X99129894Y-40400626D02*
X99177513Y-40448245D01*
X99177513Y-40448245D02*
X99129894Y-40495864D01*
X99129894Y-40495864D02*
X99082275Y-40448245D01*
X99082275Y-40448245D02*
X99177513Y-40448245D01*
X99415608Y-40781578D02*
X99415608Y-41162530D01*
X99082275Y-40924435D02*
X99939417Y-40924435D01*
X99939417Y-40924435D02*
X100034656Y-40972054D01*
X100034656Y-40972054D02*
X100082275Y-41067292D01*
X100082275Y-41067292D02*
X100082275Y-41162530D01*
X100034656Y-41924435D02*
X100082275Y-41829197D01*
X100082275Y-41829197D02*
X100082275Y-41638721D01*
X100082275Y-41638721D02*
X100034656Y-41543483D01*
X100034656Y-41543483D02*
X99987036Y-41495864D01*
X99987036Y-41495864D02*
X99891798Y-41448245D01*
X99891798Y-41448245D02*
X99606084Y-41448245D01*
X99606084Y-41448245D02*
X99510846Y-41495864D01*
X99510846Y-41495864D02*
X99463227Y-41543483D01*
X99463227Y-41543483D02*
X99415608Y-41638721D01*
X99415608Y-41638721D02*
X99415608Y-41829197D01*
X99415608Y-41829197D02*
X99463227Y-41924435D01*
X100082275Y-42353007D02*
X99082275Y-42353007D01*
X100082275Y-42781578D02*
X99558465Y-42781578D01*
X99558465Y-42781578D02*
X99463227Y-42733959D01*
X99463227Y-42733959D02*
X99415608Y-42638721D01*
X99415608Y-42638721D02*
X99415608Y-42495864D01*
X99415608Y-42495864D02*
X99463227Y-42400626D01*
X99463227Y-42400626D02*
X99510846Y-42353007D01*
X99987036Y-43257769D02*
X100034656Y-43305388D01*
X100034656Y-43305388D02*
X100082275Y-43257769D01*
X100082275Y-43257769D02*
X100034656Y-43210150D01*
X100034656Y-43210150D02*
X99987036Y-43257769D01*
X99987036Y-43257769D02*
X100082275Y-43257769D01*
X99463227Y-43257769D02*
X99510846Y-43305388D01*
X99510846Y-43305388D02*
X99558465Y-43257769D01*
X99558465Y-43257769D02*
X99510846Y-43210150D01*
X99510846Y-43210150D02*
X99463227Y-43257769D01*
X99463227Y-43257769D02*
X99558465Y-43257769D01*
X100082275Y-44495864D02*
X99082275Y-44495864D01*
X99082275Y-44495864D02*
X99082275Y-44876816D01*
X99082275Y-44876816D02*
X99129894Y-44972054D01*
X99129894Y-44972054D02*
X99177513Y-45019673D01*
X99177513Y-45019673D02*
X99272751Y-45067292D01*
X99272751Y-45067292D02*
X99415608Y-45067292D01*
X99415608Y-45067292D02*
X99510846Y-45019673D01*
X99510846Y-45019673D02*
X99558465Y-44972054D01*
X99558465Y-44972054D02*
X99606084Y-44876816D01*
X99606084Y-44876816D02*
X99606084Y-44495864D01*
X100082275Y-45638721D02*
X100034656Y-45543483D01*
X100034656Y-45543483D02*
X99939417Y-45495864D01*
X99939417Y-45495864D02*
X99082275Y-45495864D01*
X100082275Y-46448245D02*
X99558465Y-46448245D01*
X99558465Y-46448245D02*
X99463227Y-46400626D01*
X99463227Y-46400626D02*
X99415608Y-46305388D01*
X99415608Y-46305388D02*
X99415608Y-46114912D01*
X99415608Y-46114912D02*
X99463227Y-46019674D01*
X100034656Y-46448245D02*
X100082275Y-46353007D01*
X100082275Y-46353007D02*
X100082275Y-46114912D01*
X100082275Y-46114912D02*
X100034656Y-46019674D01*
X100034656Y-46019674D02*
X99939417Y-45972055D01*
X99939417Y-45972055D02*
X99844179Y-45972055D01*
X99844179Y-45972055D02*
X99748941Y-46019674D01*
X99748941Y-46019674D02*
X99701322Y-46114912D01*
X99701322Y-46114912D02*
X99701322Y-46353007D01*
X99701322Y-46353007D02*
X99653703Y-46448245D01*
X100034656Y-47353007D02*
X100082275Y-47257769D01*
X100082275Y-47257769D02*
X100082275Y-47067293D01*
X100082275Y-47067293D02*
X100034656Y-46972055D01*
X100034656Y-46972055D02*
X99987036Y-46924436D01*
X99987036Y-46924436D02*
X99891798Y-46876817D01*
X99891798Y-46876817D02*
X99606084Y-46876817D01*
X99606084Y-46876817D02*
X99510846Y-46924436D01*
X99510846Y-46924436D02*
X99463227Y-46972055D01*
X99463227Y-46972055D02*
X99415608Y-47067293D01*
X99415608Y-47067293D02*
X99415608Y-47257769D01*
X99415608Y-47257769D02*
X99463227Y-47353007D01*
X100034656Y-48162531D02*
X100082275Y-48067293D01*
X100082275Y-48067293D02*
X100082275Y-47876817D01*
X100082275Y-47876817D02*
X100034656Y-47781579D01*
X100034656Y-47781579D02*
X99939417Y-47733960D01*
X99939417Y-47733960D02*
X99558465Y-47733960D01*
X99558465Y-47733960D02*
X99463227Y-47781579D01*
X99463227Y-47781579D02*
X99415608Y-47876817D01*
X99415608Y-47876817D02*
X99415608Y-48067293D01*
X99415608Y-48067293D02*
X99463227Y-48162531D01*
X99463227Y-48162531D02*
X99558465Y-48210150D01*
X99558465Y-48210150D02*
X99653703Y-48210150D01*
X99653703Y-48210150D02*
X99748941Y-47733960D01*
X100082275Y-49829198D02*
X99558465Y-49829198D01*
X99558465Y-49829198D02*
X99463227Y-49781579D01*
X99463227Y-49781579D02*
X99415608Y-49686341D01*
X99415608Y-49686341D02*
X99415608Y-49495865D01*
X99415608Y-49495865D02*
X99463227Y-49400627D01*
X100034656Y-49829198D02*
X100082275Y-49733960D01*
X100082275Y-49733960D02*
X100082275Y-49495865D01*
X100082275Y-49495865D02*
X100034656Y-49400627D01*
X100034656Y-49400627D02*
X99939417Y-49353008D01*
X99939417Y-49353008D02*
X99844179Y-49353008D01*
X99844179Y-49353008D02*
X99748941Y-49400627D01*
X99748941Y-49400627D02*
X99701322Y-49495865D01*
X99701322Y-49495865D02*
X99701322Y-49733960D01*
X99701322Y-49733960D02*
X99653703Y-49829198D01*
X99415608Y-51067294D02*
X100272751Y-51067294D01*
X100272751Y-51067294D02*
X100367989Y-51019675D01*
X100367989Y-51019675D02*
X100415608Y-50924437D01*
X100415608Y-50924437D02*
X100415608Y-50876818D01*
X99082275Y-51067294D02*
X99129894Y-51019675D01*
X99129894Y-51019675D02*
X99177513Y-51067294D01*
X99177513Y-51067294D02*
X99129894Y-51114913D01*
X99129894Y-51114913D02*
X99082275Y-51067294D01*
X99082275Y-51067294D02*
X99177513Y-51067294D01*
X99415608Y-51972055D02*
X100082275Y-51972055D01*
X99415608Y-51543484D02*
X99939417Y-51543484D01*
X99939417Y-51543484D02*
X100034656Y-51591103D01*
X100034656Y-51591103D02*
X100082275Y-51686341D01*
X100082275Y-51686341D02*
X100082275Y-51829198D01*
X100082275Y-51829198D02*
X100034656Y-51924436D01*
X100034656Y-51924436D02*
X99987036Y-51972055D01*
X100082275Y-52448246D02*
X99415608Y-52448246D01*
X99510846Y-52448246D02*
X99463227Y-52495865D01*
X99463227Y-52495865D02*
X99415608Y-52591103D01*
X99415608Y-52591103D02*
X99415608Y-52733960D01*
X99415608Y-52733960D02*
X99463227Y-52829198D01*
X99463227Y-52829198D02*
X99558465Y-52876817D01*
X99558465Y-52876817D02*
X100082275Y-52876817D01*
X99558465Y-52876817D02*
X99463227Y-52924436D01*
X99463227Y-52924436D02*
X99415608Y-53019674D01*
X99415608Y-53019674D02*
X99415608Y-53162531D01*
X99415608Y-53162531D02*
X99463227Y-53257770D01*
X99463227Y-53257770D02*
X99558465Y-53305389D01*
X99558465Y-53305389D02*
X100082275Y-53305389D01*
X99415608Y-53781579D02*
X100415608Y-53781579D01*
X99463227Y-53781579D02*
X99415608Y-53876817D01*
X99415608Y-53876817D02*
X99415608Y-54067293D01*
X99415608Y-54067293D02*
X99463227Y-54162531D01*
X99463227Y-54162531D02*
X99510846Y-54210150D01*
X99510846Y-54210150D02*
X99606084Y-54257769D01*
X99606084Y-54257769D02*
X99891798Y-54257769D01*
X99891798Y-54257769D02*
X99987036Y-54210150D01*
X99987036Y-54210150D02*
X100034656Y-54162531D01*
X100034656Y-54162531D02*
X100082275Y-54067293D01*
X100082275Y-54067293D02*
X100082275Y-53876817D01*
X100082275Y-53876817D02*
X100034656Y-53781579D01*
X100034656Y-55067293D02*
X100082275Y-54972055D01*
X100082275Y-54972055D02*
X100082275Y-54781579D01*
X100082275Y-54781579D02*
X100034656Y-54686341D01*
X100034656Y-54686341D02*
X99939417Y-54638722D01*
X99939417Y-54638722D02*
X99558465Y-54638722D01*
X99558465Y-54638722D02*
X99463227Y-54686341D01*
X99463227Y-54686341D02*
X99415608Y-54781579D01*
X99415608Y-54781579D02*
X99415608Y-54972055D01*
X99415608Y-54972055D02*
X99463227Y-55067293D01*
X99463227Y-55067293D02*
X99558465Y-55114912D01*
X99558465Y-55114912D02*
X99653703Y-55114912D01*
X99653703Y-55114912D02*
X99748941Y-54638722D01*
X100082275Y-55543484D02*
X99415608Y-55543484D01*
X99606084Y-55543484D02*
X99510846Y-55591103D01*
X99510846Y-55591103D02*
X99463227Y-55638722D01*
X99463227Y-55638722D02*
X99415608Y-55733960D01*
X99415608Y-55733960D02*
X99415608Y-55829198D01*
X100082275Y-57067294D02*
X100034656Y-56972056D01*
X100034656Y-56972056D02*
X99987036Y-56924437D01*
X99987036Y-56924437D02*
X99891798Y-56876818D01*
X99891798Y-56876818D02*
X99606084Y-56876818D01*
X99606084Y-56876818D02*
X99510846Y-56924437D01*
X99510846Y-56924437D02*
X99463227Y-56972056D01*
X99463227Y-56972056D02*
X99415608Y-57067294D01*
X99415608Y-57067294D02*
X99415608Y-57210151D01*
X99415608Y-57210151D02*
X99463227Y-57305389D01*
X99463227Y-57305389D02*
X99510846Y-57353008D01*
X99510846Y-57353008D02*
X99606084Y-57400627D01*
X99606084Y-57400627D02*
X99891798Y-57400627D01*
X99891798Y-57400627D02*
X99987036Y-57353008D01*
X99987036Y-57353008D02*
X100034656Y-57305389D01*
X100034656Y-57305389D02*
X100082275Y-57210151D01*
X100082275Y-57210151D02*
X100082275Y-57067294D01*
X99415608Y-57829199D02*
X100082275Y-57829199D01*
X99510846Y-57829199D02*
X99463227Y-57876818D01*
X99463227Y-57876818D02*
X99415608Y-57972056D01*
X99415608Y-57972056D02*
X99415608Y-58114913D01*
X99415608Y-58114913D02*
X99463227Y-58210151D01*
X99463227Y-58210151D02*
X99558465Y-58257770D01*
X99558465Y-58257770D02*
X100082275Y-58257770D01*
X99606084Y-59686342D02*
X100082275Y-59686342D01*
X99082275Y-59353009D02*
X99606084Y-59686342D01*
X99606084Y-59686342D02*
X99082275Y-60019675D01*
X100082275Y-61543485D02*
X99558465Y-61543485D01*
X99558465Y-61543485D02*
X99463227Y-61495866D01*
X99463227Y-61495866D02*
X99415608Y-61400628D01*
X99415608Y-61400628D02*
X99415608Y-61210152D01*
X99415608Y-61210152D02*
X99463227Y-61114914D01*
X100034656Y-61543485D02*
X100082275Y-61448247D01*
X100082275Y-61448247D02*
X100082275Y-61210152D01*
X100082275Y-61210152D02*
X100034656Y-61114914D01*
X100034656Y-61114914D02*
X99939417Y-61067295D01*
X99939417Y-61067295D02*
X99844179Y-61067295D01*
X99844179Y-61067295D02*
X99748941Y-61114914D01*
X99748941Y-61114914D02*
X99701322Y-61210152D01*
X99701322Y-61210152D02*
X99701322Y-61448247D01*
X99701322Y-61448247D02*
X99653703Y-61543485D01*
X99415608Y-62019676D02*
X100082275Y-62019676D01*
X99510846Y-62019676D02*
X99463227Y-62067295D01*
X99463227Y-62067295D02*
X99415608Y-62162533D01*
X99415608Y-62162533D02*
X99415608Y-62305390D01*
X99415608Y-62305390D02*
X99463227Y-62400628D01*
X99463227Y-62400628D02*
X99558465Y-62448247D01*
X99558465Y-62448247D02*
X100082275Y-62448247D01*
X100082275Y-63353009D02*
X99082275Y-63353009D01*
X100034656Y-63353009D02*
X100082275Y-63257771D01*
X100082275Y-63257771D02*
X100082275Y-63067295D01*
X100082275Y-63067295D02*
X100034656Y-62972057D01*
X100034656Y-62972057D02*
X99987036Y-62924438D01*
X99987036Y-62924438D02*
X99891798Y-62876819D01*
X99891798Y-62876819D02*
X99606084Y-62876819D01*
X99606084Y-62876819D02*
X99510846Y-62924438D01*
X99510846Y-62924438D02*
X99463227Y-62972057D01*
X99463227Y-62972057D02*
X99415608Y-63067295D01*
X99415608Y-63067295D02*
X99415608Y-63257771D01*
X99415608Y-63257771D02*
X99463227Y-63353009D01*
X99987036Y-65162533D02*
X100034656Y-65114914D01*
X100034656Y-65114914D02*
X100082275Y-64972057D01*
X100082275Y-64972057D02*
X100082275Y-64876819D01*
X100082275Y-64876819D02*
X100034656Y-64733962D01*
X100034656Y-64733962D02*
X99939417Y-64638724D01*
X99939417Y-64638724D02*
X99844179Y-64591105D01*
X99844179Y-64591105D02*
X99653703Y-64543486D01*
X99653703Y-64543486D02*
X99510846Y-64543486D01*
X99510846Y-64543486D02*
X99320370Y-64591105D01*
X99320370Y-64591105D02*
X99225132Y-64638724D01*
X99225132Y-64638724D02*
X99129894Y-64733962D01*
X99129894Y-64733962D02*
X99082275Y-64876819D01*
X99082275Y-64876819D02*
X99082275Y-64972057D01*
X99082275Y-64972057D02*
X99129894Y-65114914D01*
X99129894Y-65114914D02*
X99177513Y-65162533D01*
X100787457Y-29972054D02*
X100739838Y-30019673D01*
X100739838Y-30019673D02*
X100692219Y-30114911D01*
X100692219Y-30114911D02*
X100692219Y-30353006D01*
X100692219Y-30353006D02*
X100739838Y-30448244D01*
X100739838Y-30448244D02*
X100787457Y-30495863D01*
X100787457Y-30495863D02*
X100882695Y-30543482D01*
X100882695Y-30543482D02*
X100977933Y-30543482D01*
X100977933Y-30543482D02*
X101120790Y-30495863D01*
X101120790Y-30495863D02*
X101692219Y-29924435D01*
X101692219Y-29924435D02*
X101692219Y-30543482D01*
X101596980Y-30972054D02*
X101644600Y-31019673D01*
X101644600Y-31019673D02*
X101692219Y-30972054D01*
X101692219Y-30972054D02*
X101644600Y-30924435D01*
X101644600Y-30924435D02*
X101596980Y-30972054D01*
X101596980Y-30972054D02*
X101692219Y-30972054D01*
X101168409Y-31448244D02*
X101168409Y-31781577D01*
X101692219Y-31924434D02*
X101692219Y-31448244D01*
X101692219Y-31448244D02*
X100692219Y-31448244D01*
X100692219Y-31448244D02*
X100692219Y-31924434D01*
X101692219Y-32257768D02*
X101025552Y-32781577D01*
X101025552Y-32257768D02*
X101692219Y-32781577D01*
X101025552Y-33019673D02*
X101025552Y-33400625D01*
X100692219Y-33162530D02*
X101549361Y-33162530D01*
X101549361Y-33162530D02*
X101644600Y-33210149D01*
X101644600Y-33210149D02*
X101692219Y-33305387D01*
X101692219Y-33305387D02*
X101692219Y-33400625D01*
X101644600Y-34114911D02*
X101692219Y-34019673D01*
X101692219Y-34019673D02*
X101692219Y-33829197D01*
X101692219Y-33829197D02*
X101644600Y-33733959D01*
X101644600Y-33733959D02*
X101549361Y-33686340D01*
X101549361Y-33686340D02*
X101168409Y-33686340D01*
X101168409Y-33686340D02*
X101073171Y-33733959D01*
X101073171Y-33733959D02*
X101025552Y-33829197D01*
X101025552Y-33829197D02*
X101025552Y-34019673D01*
X101025552Y-34019673D02*
X101073171Y-34114911D01*
X101073171Y-34114911D02*
X101168409Y-34162530D01*
X101168409Y-34162530D02*
X101263647Y-34162530D01*
X101263647Y-34162530D02*
X101358885Y-33686340D01*
X101692219Y-34591102D02*
X101025552Y-34591102D01*
X101216028Y-34591102D02*
X101120790Y-34638721D01*
X101120790Y-34638721D02*
X101073171Y-34686340D01*
X101073171Y-34686340D02*
X101025552Y-34781578D01*
X101025552Y-34781578D02*
X101025552Y-34876816D01*
X101025552Y-35210150D02*
X101692219Y-35210150D01*
X101120790Y-35210150D02*
X101073171Y-35257769D01*
X101073171Y-35257769D02*
X101025552Y-35353007D01*
X101025552Y-35353007D02*
X101025552Y-35495864D01*
X101025552Y-35495864D02*
X101073171Y-35591102D01*
X101073171Y-35591102D02*
X101168409Y-35638721D01*
X101168409Y-35638721D02*
X101692219Y-35638721D01*
X101692219Y-36543483D02*
X101168409Y-36543483D01*
X101168409Y-36543483D02*
X101073171Y-36495864D01*
X101073171Y-36495864D02*
X101025552Y-36400626D01*
X101025552Y-36400626D02*
X101025552Y-36210150D01*
X101025552Y-36210150D02*
X101073171Y-36114912D01*
X101644600Y-36543483D02*
X101692219Y-36448245D01*
X101692219Y-36448245D02*
X101692219Y-36210150D01*
X101692219Y-36210150D02*
X101644600Y-36114912D01*
X101644600Y-36114912D02*
X101549361Y-36067293D01*
X101549361Y-36067293D02*
X101454123Y-36067293D01*
X101454123Y-36067293D02*
X101358885Y-36114912D01*
X101358885Y-36114912D02*
X101311266Y-36210150D01*
X101311266Y-36210150D02*
X101311266Y-36448245D01*
X101311266Y-36448245D02*
X101263647Y-36543483D01*
X101692219Y-37162531D02*
X101644600Y-37067293D01*
X101644600Y-37067293D02*
X101549361Y-37019674D01*
X101549361Y-37019674D02*
X100692219Y-37019674D01*
X101644600Y-38257770D02*
X101692219Y-38400627D01*
X101692219Y-38400627D02*
X101692219Y-38638722D01*
X101692219Y-38638722D02*
X101644600Y-38733960D01*
X101644600Y-38733960D02*
X101596980Y-38781579D01*
X101596980Y-38781579D02*
X101501742Y-38829198D01*
X101501742Y-38829198D02*
X101406504Y-38829198D01*
X101406504Y-38829198D02*
X101311266Y-38781579D01*
X101311266Y-38781579D02*
X101263647Y-38733960D01*
X101263647Y-38733960D02*
X101216028Y-38638722D01*
X101216028Y-38638722D02*
X101168409Y-38448246D01*
X101168409Y-38448246D02*
X101120790Y-38353008D01*
X101120790Y-38353008D02*
X101073171Y-38305389D01*
X101073171Y-38305389D02*
X100977933Y-38257770D01*
X100977933Y-38257770D02*
X100882695Y-38257770D01*
X100882695Y-38257770D02*
X100787457Y-38305389D01*
X100787457Y-38305389D02*
X100739838Y-38353008D01*
X100739838Y-38353008D02*
X100692219Y-38448246D01*
X100692219Y-38448246D02*
X100692219Y-38686341D01*
X100692219Y-38686341D02*
X100739838Y-38829198D01*
X101692219Y-39257770D02*
X101025552Y-39257770D01*
X100692219Y-39257770D02*
X100739838Y-39210151D01*
X100739838Y-39210151D02*
X100787457Y-39257770D01*
X100787457Y-39257770D02*
X100739838Y-39305389D01*
X100739838Y-39305389D02*
X100692219Y-39257770D01*
X100692219Y-39257770D02*
X100787457Y-39257770D01*
X101025552Y-40162531D02*
X101835076Y-40162531D01*
X101835076Y-40162531D02*
X101930314Y-40114912D01*
X101930314Y-40114912D02*
X101977933Y-40067293D01*
X101977933Y-40067293D02*
X102025552Y-39972055D01*
X102025552Y-39972055D02*
X102025552Y-39829198D01*
X102025552Y-39829198D02*
X101977933Y-39733960D01*
X101644600Y-40162531D02*
X101692219Y-40067293D01*
X101692219Y-40067293D02*
X101692219Y-39876817D01*
X101692219Y-39876817D02*
X101644600Y-39781579D01*
X101644600Y-39781579D02*
X101596980Y-39733960D01*
X101596980Y-39733960D02*
X101501742Y-39686341D01*
X101501742Y-39686341D02*
X101216028Y-39686341D01*
X101216028Y-39686341D02*
X101120790Y-39733960D01*
X101120790Y-39733960D02*
X101073171Y-39781579D01*
X101073171Y-39781579D02*
X101025552Y-39876817D01*
X101025552Y-39876817D02*
X101025552Y-40067293D01*
X101025552Y-40067293D02*
X101073171Y-40162531D01*
X101025552Y-40638722D02*
X101692219Y-40638722D01*
X101120790Y-40638722D02*
X101073171Y-40686341D01*
X101073171Y-40686341D02*
X101025552Y-40781579D01*
X101025552Y-40781579D02*
X101025552Y-40924436D01*
X101025552Y-40924436D02*
X101073171Y-41019674D01*
X101073171Y-41019674D02*
X101168409Y-41067293D01*
X101168409Y-41067293D02*
X101692219Y-41067293D01*
X101692219Y-41972055D02*
X101168409Y-41972055D01*
X101168409Y-41972055D02*
X101073171Y-41924436D01*
X101073171Y-41924436D02*
X101025552Y-41829198D01*
X101025552Y-41829198D02*
X101025552Y-41638722D01*
X101025552Y-41638722D02*
X101073171Y-41543484D01*
X101644600Y-41972055D02*
X101692219Y-41876817D01*
X101692219Y-41876817D02*
X101692219Y-41638722D01*
X101692219Y-41638722D02*
X101644600Y-41543484D01*
X101644600Y-41543484D02*
X101549361Y-41495865D01*
X101549361Y-41495865D02*
X101454123Y-41495865D01*
X101454123Y-41495865D02*
X101358885Y-41543484D01*
X101358885Y-41543484D02*
X101311266Y-41638722D01*
X101311266Y-41638722D02*
X101311266Y-41876817D01*
X101311266Y-41876817D02*
X101263647Y-41972055D01*
X101692219Y-42591103D02*
X101644600Y-42495865D01*
X101644600Y-42495865D02*
X101549361Y-42448246D01*
X101549361Y-42448246D02*
X100692219Y-42448246D01*
X101596980Y-42972056D02*
X101644600Y-43019675D01*
X101644600Y-43019675D02*
X101692219Y-42972056D01*
X101692219Y-42972056D02*
X101644600Y-42924437D01*
X101644600Y-42924437D02*
X101596980Y-42972056D01*
X101596980Y-42972056D02*
X101692219Y-42972056D01*
X101073171Y-42972056D02*
X101120790Y-43019675D01*
X101120790Y-43019675D02*
X101168409Y-42972056D01*
X101168409Y-42972056D02*
X101120790Y-42924437D01*
X101120790Y-42924437D02*
X101073171Y-42972056D01*
X101073171Y-42972056D02*
X101168409Y-42972056D01*
X101692219Y-44781579D02*
X101216028Y-44448246D01*
X101692219Y-44210151D02*
X100692219Y-44210151D01*
X100692219Y-44210151D02*
X100692219Y-44591103D01*
X100692219Y-44591103D02*
X100739838Y-44686341D01*
X100739838Y-44686341D02*
X100787457Y-44733960D01*
X100787457Y-44733960D02*
X100882695Y-44781579D01*
X100882695Y-44781579D02*
X101025552Y-44781579D01*
X101025552Y-44781579D02*
X101120790Y-44733960D01*
X101120790Y-44733960D02*
X101168409Y-44686341D01*
X101168409Y-44686341D02*
X101216028Y-44591103D01*
X101216028Y-44591103D02*
X101216028Y-44210151D01*
X101644600Y-45591103D02*
X101692219Y-45495865D01*
X101692219Y-45495865D02*
X101692219Y-45305389D01*
X101692219Y-45305389D02*
X101644600Y-45210151D01*
X101644600Y-45210151D02*
X101549361Y-45162532D01*
X101549361Y-45162532D02*
X101168409Y-45162532D01*
X101168409Y-45162532D02*
X101073171Y-45210151D01*
X101073171Y-45210151D02*
X101025552Y-45305389D01*
X101025552Y-45305389D02*
X101025552Y-45495865D01*
X101025552Y-45495865D02*
X101073171Y-45591103D01*
X101073171Y-45591103D02*
X101168409Y-45638722D01*
X101168409Y-45638722D02*
X101263647Y-45638722D01*
X101263647Y-45638722D02*
X101358885Y-45162532D01*
X101692219Y-46067294D02*
X101025552Y-46067294D01*
X101120790Y-46067294D02*
X101073171Y-46114913D01*
X101073171Y-46114913D02*
X101025552Y-46210151D01*
X101025552Y-46210151D02*
X101025552Y-46353008D01*
X101025552Y-46353008D02*
X101073171Y-46448246D01*
X101073171Y-46448246D02*
X101168409Y-46495865D01*
X101168409Y-46495865D02*
X101692219Y-46495865D01*
X101168409Y-46495865D02*
X101073171Y-46543484D01*
X101073171Y-46543484D02*
X101025552Y-46638722D01*
X101025552Y-46638722D02*
X101025552Y-46781579D01*
X101025552Y-46781579D02*
X101073171Y-46876818D01*
X101073171Y-46876818D02*
X101168409Y-46924437D01*
X101168409Y-46924437D02*
X101692219Y-46924437D01*
X101692219Y-47543484D02*
X101644600Y-47448246D01*
X101644600Y-47448246D02*
X101596980Y-47400627D01*
X101596980Y-47400627D02*
X101501742Y-47353008D01*
X101501742Y-47353008D02*
X101216028Y-47353008D01*
X101216028Y-47353008D02*
X101120790Y-47400627D01*
X101120790Y-47400627D02*
X101073171Y-47448246D01*
X101073171Y-47448246D02*
X101025552Y-47543484D01*
X101025552Y-47543484D02*
X101025552Y-47686341D01*
X101025552Y-47686341D02*
X101073171Y-47781579D01*
X101073171Y-47781579D02*
X101120790Y-47829198D01*
X101120790Y-47829198D02*
X101216028Y-47876817D01*
X101216028Y-47876817D02*
X101501742Y-47876817D01*
X101501742Y-47876817D02*
X101596980Y-47829198D01*
X101596980Y-47829198D02*
X101644600Y-47781579D01*
X101644600Y-47781579D02*
X101692219Y-47686341D01*
X101692219Y-47686341D02*
X101692219Y-47543484D01*
X101025552Y-48210151D02*
X101692219Y-48448246D01*
X101692219Y-48448246D02*
X101025552Y-48686341D01*
X101644600Y-49448246D02*
X101692219Y-49353008D01*
X101692219Y-49353008D02*
X101692219Y-49162532D01*
X101692219Y-49162532D02*
X101644600Y-49067294D01*
X101644600Y-49067294D02*
X101549361Y-49019675D01*
X101549361Y-49019675D02*
X101168409Y-49019675D01*
X101168409Y-49019675D02*
X101073171Y-49067294D01*
X101073171Y-49067294D02*
X101025552Y-49162532D01*
X101025552Y-49162532D02*
X101025552Y-49353008D01*
X101025552Y-49353008D02*
X101073171Y-49448246D01*
X101073171Y-49448246D02*
X101168409Y-49495865D01*
X101168409Y-49495865D02*
X101263647Y-49495865D01*
X101263647Y-49495865D02*
X101358885Y-49019675D01*
X101025552Y-50543485D02*
X101025552Y-50924437D01*
X100692219Y-50686342D02*
X101549361Y-50686342D01*
X101549361Y-50686342D02*
X101644600Y-50733961D01*
X101644600Y-50733961D02*
X101692219Y-50829199D01*
X101692219Y-50829199D02*
X101692219Y-50924437D01*
X101692219Y-51257771D02*
X100692219Y-51257771D01*
X101692219Y-51686342D02*
X101168409Y-51686342D01*
X101168409Y-51686342D02*
X101073171Y-51638723D01*
X101073171Y-51638723D02*
X101025552Y-51543485D01*
X101025552Y-51543485D02*
X101025552Y-51400628D01*
X101025552Y-51400628D02*
X101073171Y-51305390D01*
X101073171Y-51305390D02*
X101120790Y-51257771D01*
X101644600Y-52543485D02*
X101692219Y-52448247D01*
X101692219Y-52448247D02*
X101692219Y-52257771D01*
X101692219Y-52257771D02*
X101644600Y-52162533D01*
X101644600Y-52162533D02*
X101549361Y-52114914D01*
X101549361Y-52114914D02*
X101168409Y-52114914D01*
X101168409Y-52114914D02*
X101073171Y-52162533D01*
X101073171Y-52162533D02*
X101025552Y-52257771D01*
X101025552Y-52257771D02*
X101025552Y-52448247D01*
X101025552Y-52448247D02*
X101073171Y-52543485D01*
X101073171Y-52543485D02*
X101168409Y-52591104D01*
X101168409Y-52591104D02*
X101263647Y-52591104D01*
X101263647Y-52591104D02*
X101358885Y-52114914D01*
X101025552Y-53781581D02*
X101882695Y-53781581D01*
X101882695Y-53781581D02*
X101977933Y-53733962D01*
X101977933Y-53733962D02*
X102025552Y-53638724D01*
X102025552Y-53638724D02*
X102025552Y-53591105D01*
X100692219Y-53781581D02*
X100739838Y-53733962D01*
X100739838Y-53733962D02*
X100787457Y-53781581D01*
X100787457Y-53781581D02*
X100739838Y-53829200D01*
X100739838Y-53829200D02*
X100692219Y-53781581D01*
X100692219Y-53781581D02*
X100787457Y-53781581D01*
X101025552Y-54686342D02*
X101692219Y-54686342D01*
X101025552Y-54257771D02*
X101549361Y-54257771D01*
X101549361Y-54257771D02*
X101644600Y-54305390D01*
X101644600Y-54305390D02*
X101692219Y-54400628D01*
X101692219Y-54400628D02*
X101692219Y-54543485D01*
X101692219Y-54543485D02*
X101644600Y-54638723D01*
X101644600Y-54638723D02*
X101596980Y-54686342D01*
X101692219Y-55162533D02*
X101025552Y-55162533D01*
X101120790Y-55162533D02*
X101073171Y-55210152D01*
X101073171Y-55210152D02*
X101025552Y-55305390D01*
X101025552Y-55305390D02*
X101025552Y-55448247D01*
X101025552Y-55448247D02*
X101073171Y-55543485D01*
X101073171Y-55543485D02*
X101168409Y-55591104D01*
X101168409Y-55591104D02*
X101692219Y-55591104D01*
X101168409Y-55591104D02*
X101073171Y-55638723D01*
X101073171Y-55638723D02*
X101025552Y-55733961D01*
X101025552Y-55733961D02*
X101025552Y-55876818D01*
X101025552Y-55876818D02*
X101073171Y-55972057D01*
X101073171Y-55972057D02*
X101168409Y-56019676D01*
X101168409Y-56019676D02*
X101692219Y-56019676D01*
X101025552Y-56495866D02*
X102025552Y-56495866D01*
X101073171Y-56495866D02*
X101025552Y-56591104D01*
X101025552Y-56591104D02*
X101025552Y-56781580D01*
X101025552Y-56781580D02*
X101073171Y-56876818D01*
X101073171Y-56876818D02*
X101120790Y-56924437D01*
X101120790Y-56924437D02*
X101216028Y-56972056D01*
X101216028Y-56972056D02*
X101501742Y-56972056D01*
X101501742Y-56972056D02*
X101596980Y-56924437D01*
X101596980Y-56924437D02*
X101644600Y-56876818D01*
X101644600Y-56876818D02*
X101692219Y-56781580D01*
X101692219Y-56781580D02*
X101692219Y-56591104D01*
X101692219Y-56591104D02*
X101644600Y-56495866D01*
X101644600Y-57781580D02*
X101692219Y-57686342D01*
X101692219Y-57686342D02*
X101692219Y-57495866D01*
X101692219Y-57495866D02*
X101644600Y-57400628D01*
X101644600Y-57400628D02*
X101549361Y-57353009D01*
X101549361Y-57353009D02*
X101168409Y-57353009D01*
X101168409Y-57353009D02*
X101073171Y-57400628D01*
X101073171Y-57400628D02*
X101025552Y-57495866D01*
X101025552Y-57495866D02*
X101025552Y-57686342D01*
X101025552Y-57686342D02*
X101073171Y-57781580D01*
X101073171Y-57781580D02*
X101168409Y-57829199D01*
X101168409Y-57829199D02*
X101263647Y-57829199D01*
X101263647Y-57829199D02*
X101358885Y-57353009D01*
X101692219Y-58257771D02*
X101025552Y-58257771D01*
X101216028Y-58257771D02*
X101120790Y-58305390D01*
X101120790Y-58305390D02*
X101073171Y-58353009D01*
X101073171Y-58353009D02*
X101025552Y-58448247D01*
X101025552Y-58448247D02*
X101025552Y-58543485D01*
X117621993Y-42880664D02*
X116860088Y-42880664D01*
X117669612Y-43499712D02*
X117145802Y-43499712D01*
X117860088Y-42690188D02*
X117860088Y-43547331D01*
X117621993Y-42547331D02*
X117621993Y-43356854D01*
X117241041Y-43261616D02*
X117669612Y-43356854D01*
X117002945Y-42452092D02*
X117621993Y-42547331D01*
X117764850Y-42452092D02*
X117907707Y-42737807D01*
X117907707Y-42737807D02*
X118098183Y-42928283D01*
X117241041Y-42547331D02*
X117241041Y-42785426D01*
X117241041Y-42785426D02*
X117098183Y-43356854D01*
X117098183Y-43356854D02*
X116955326Y-43499712D01*
X116955326Y-43499712D02*
X116860088Y-43499712D01*
X116860088Y-43499712D02*
X116812469Y-43309235D01*
X115574374Y-43547331D02*
X115383898Y-43547331D01*
X116383898Y-42642569D02*
X116383898Y-43547331D01*
X116193422Y-42499712D02*
X116193422Y-43261616D01*
X116193422Y-42499712D02*
X115812470Y-42499712D01*
X115812470Y-42499712D02*
X115812470Y-43261616D01*
X115574374Y-42547331D02*
X115574374Y-43261616D01*
X115383898Y-42404473D02*
X115383898Y-43547331D01*
X115955327Y-43356854D02*
X115764851Y-43499712D01*
X116050565Y-43356854D02*
X116241041Y-43547331D01*
X116336279Y-42404473D02*
X116574374Y-42928283D01*
X116002946Y-42642569D02*
X116002946Y-43118759D01*
X116002946Y-43118759D02*
X116050565Y-43356854D01*
X115098184Y-42499712D02*
X113955327Y-42499712D01*
X115145803Y-42975902D02*
X113907708Y-42975902D01*
X114241042Y-42499712D02*
X114241042Y-43547331D01*
X114860089Y-43309235D02*
X115098184Y-43547331D01*
X114764851Y-42499712D02*
X114764851Y-43023521D01*
X114764851Y-43023521D02*
X114860089Y-43356854D01*
X113574375Y-42737807D02*
X112526756Y-42737807D01*
X113621994Y-43023521D02*
X112431518Y-43023521D01*
X113431518Y-42452092D02*
X113288661Y-42594950D01*
X112621994Y-42452092D02*
X112812471Y-42642569D01*
X113050566Y-42928283D02*
X112955328Y-43261616D01*
X112955328Y-43261616D02*
X112764852Y-43404473D01*
X112764852Y-43404473D02*
X112431518Y-43547331D01*
X113050566Y-42737807D02*
X113050566Y-43166378D01*
X113050566Y-43166378D02*
X113241042Y-43404473D01*
X113241042Y-43404473D02*
X113669613Y-43547331D01*
X112193423Y-42690188D02*
X111812471Y-42690188D01*
X111669614Y-43166378D02*
X111002947Y-43166378D01*
X111764852Y-43547331D02*
X110955328Y-43547331D01*
X112145804Y-43547331D02*
X112002947Y-43547331D01*
X111955328Y-42404473D02*
X111955328Y-43547331D01*
X111717233Y-42594950D02*
X111717233Y-42737807D01*
X111383900Y-42404473D02*
X111383900Y-42594950D01*
X111383900Y-43166378D02*
X111383900Y-43499712D01*
X111717233Y-42594950D02*
X110955328Y-42594950D01*
X110955328Y-42594950D02*
X110955328Y-42737807D01*
X111574376Y-42928283D02*
X111717233Y-42975902D01*
X111241042Y-42594950D02*
X111241042Y-42928283D01*
X111241042Y-42928283D02*
X111002947Y-42928283D01*
X111002947Y-42928283D02*
X110955328Y-42833045D01*
X111479138Y-42594950D02*
X111526757Y-42880664D01*
X111812471Y-42975902D02*
X112193423Y-43071140D01*
X110621995Y-42642569D02*
X110002948Y-42642569D01*
X110717233Y-42833045D02*
X109907710Y-42833045D01*
X110193424Y-43452092D02*
X110002948Y-43452092D01*
X109717233Y-43547331D02*
X109479138Y-43547331D01*
X110621995Y-43071140D02*
X110621995Y-43452092D01*
X110336281Y-42404473D02*
X110336281Y-43547331D01*
X110621995Y-43071140D02*
X110002948Y-43071140D01*
X110002948Y-43071140D02*
X110002948Y-43452092D01*
X109717233Y-42547331D02*
X109717233Y-43213997D01*
X109479138Y-42404473D02*
X109479138Y-43547331D01*
X110526757Y-42452092D02*
X110669614Y-42785426D01*
X108812472Y-43213997D02*
X108764853Y-43261616D01*
X108764853Y-43261616D02*
X108812472Y-43309235D01*
X108812472Y-43309235D02*
X108860091Y-43261616D01*
X108860091Y-43261616D02*
X108812472Y-43213997D01*
X108812472Y-43213997D02*
X108812472Y-43309235D01*
X108812472Y-42690188D02*
X108764853Y-42737807D01*
X108764853Y-42737807D02*
X108812472Y-42785426D01*
X108812472Y-42785426D02*
X108860091Y-42737807D01*
X108860091Y-42737807D02*
X108812472Y-42690188D01*
X108812472Y-42690188D02*
X108812472Y-42785426D01*
X108050567Y-43547331D02*
X108050567Y-42547331D01*
X108050567Y-42547331D02*
X107669615Y-42547331D01*
X107669615Y-42547331D02*
X107574377Y-42594950D01*
X107574377Y-42594950D02*
X107526758Y-42642569D01*
X107526758Y-42642569D02*
X107479139Y-42737807D01*
X107479139Y-42737807D02*
X107479139Y-42880664D01*
X107479139Y-42880664D02*
X107526758Y-42975902D01*
X107526758Y-42975902D02*
X107574377Y-43023521D01*
X107574377Y-43023521D02*
X107669615Y-43071140D01*
X107669615Y-43071140D02*
X108050567Y-43071140D01*
X106526758Y-43547331D02*
X107098186Y-43547331D01*
X106812472Y-43547331D02*
X106812472Y-42547331D01*
X106812472Y-42547331D02*
X106907710Y-42690188D01*
X106907710Y-42690188D02*
X107002948Y-42785426D01*
X107002948Y-42785426D02*
X107098186Y-42833045D01*
X106098186Y-43261616D02*
X105907710Y-43499712D01*
X105050567Y-43547331D02*
X105050567Y-42547331D01*
X105050567Y-42547331D02*
X104669615Y-42547331D01*
X104669615Y-42547331D02*
X104574377Y-42594950D01*
X104574377Y-42594950D02*
X104526758Y-42642569D01*
X104526758Y-42642569D02*
X104479139Y-42737807D01*
X104479139Y-42737807D02*
X104479139Y-42880664D01*
X104479139Y-42880664D02*
X104526758Y-42975902D01*
X104526758Y-42975902D02*
X104574377Y-43023521D01*
X104574377Y-43023521D02*
X104669615Y-43071140D01*
X104669615Y-43071140D02*
X105050567Y-43071140D01*
X104098186Y-42642569D02*
X104050567Y-42594950D01*
X104050567Y-42594950D02*
X103955329Y-42547331D01*
X103955329Y-42547331D02*
X103717234Y-42547331D01*
X103717234Y-42547331D02*
X103621996Y-42594950D01*
X103621996Y-42594950D02*
X103574377Y-42642569D01*
X103574377Y-42642569D02*
X103526758Y-42737807D01*
X103526758Y-42737807D02*
X103526758Y-42833045D01*
X103526758Y-42833045D02*
X103574377Y-42975902D01*
X103574377Y-42975902D02*
X104145805Y-43547331D01*
X104145805Y-43547331D02*
X103526758Y-43547331D01*
X117431517Y-45157275D02*
X118002945Y-45157275D01*
X117717231Y-45157275D02*
X117717231Y-44157275D01*
X117717231Y-44157275D02*
X117812469Y-44300132D01*
X117812469Y-44300132D02*
X117907707Y-44395370D01*
X117907707Y-44395370D02*
X118002945Y-44442989D01*
X117002945Y-45062036D02*
X116955326Y-45109656D01*
X116955326Y-45109656D02*
X117002945Y-45157275D01*
X117002945Y-45157275D02*
X117050564Y-45109656D01*
X117050564Y-45109656D02*
X117002945Y-45062036D01*
X117002945Y-45062036D02*
X117002945Y-45157275D01*
X116574374Y-44347751D02*
X116193422Y-44347751D01*
X116383898Y-44014417D02*
X116383898Y-45157275D01*
X115955327Y-44014417D02*
X116145803Y-44490608D01*
X116193422Y-44633465D02*
X116669612Y-44728703D01*
X116574374Y-44109656D02*
X116669612Y-44538227D01*
X116050565Y-44252513D02*
X115383898Y-44252513D01*
X115383898Y-44252513D02*
X115431517Y-44633465D01*
X115431517Y-44633465D02*
X115526755Y-45157275D01*
X115526755Y-45157275D02*
X115669612Y-45157275D01*
X115812470Y-44252513D02*
X115955327Y-44633465D01*
X115955327Y-44633465D02*
X116145803Y-44823941D01*
X115574374Y-44252513D02*
X115860089Y-44919179D01*
X115860089Y-44919179D02*
X116050565Y-45157275D01*
X115193422Y-44157275D02*
X114812470Y-44157275D01*
X114669613Y-44347751D02*
X114002946Y-44347751D01*
X115193422Y-44538227D02*
X114812470Y-44538227D01*
X114669613Y-44633465D02*
X114002946Y-44633465D01*
X114669613Y-44871560D02*
X114050565Y-44871560D01*
X114812470Y-45157275D02*
X113955327Y-45157275D01*
X115002946Y-44157275D02*
X115002946Y-44966798D01*
X114669613Y-44109656D02*
X114669613Y-44633465D01*
X114336280Y-44109656D02*
X114336280Y-45157275D01*
X114669613Y-44109656D02*
X114002946Y-44109656D01*
X114002946Y-44109656D02*
X114002946Y-44633465D01*
X114812470Y-44966798D02*
X115193422Y-45014417D01*
X113669613Y-44109656D02*
X112526756Y-44109656D01*
X113717232Y-44585846D02*
X112479137Y-44585846D01*
X112812471Y-44109656D02*
X112812471Y-45157275D01*
X113431518Y-44919179D02*
X113669613Y-45157275D01*
X113336280Y-44109656D02*
X113336280Y-44633465D01*
X113336280Y-44633465D02*
X113431518Y-44966798D01*
X112145804Y-44347751D02*
X111098185Y-44347751D01*
X112193423Y-44633465D02*
X111002947Y-44633465D01*
X112002947Y-44062036D02*
X111860090Y-44204894D01*
X111193423Y-44062036D02*
X111383900Y-44252513D01*
X111621995Y-44538227D02*
X111526757Y-44871560D01*
X111526757Y-44871560D02*
X111336281Y-45014417D01*
X111336281Y-45014417D02*
X111002947Y-45157275D01*
X111621995Y-44347751D02*
X111621995Y-44776322D01*
X111621995Y-44776322D02*
X111812471Y-45014417D01*
X111812471Y-45014417D02*
X112241042Y-45157275D01*
X110336281Y-44823941D02*
X110288662Y-44871560D01*
X110288662Y-44871560D02*
X110336281Y-44919179D01*
X110336281Y-44919179D02*
X110383900Y-44871560D01*
X110383900Y-44871560D02*
X110336281Y-44823941D01*
X110336281Y-44823941D02*
X110336281Y-44919179D01*
X110336281Y-44300132D02*
X110288662Y-44347751D01*
X110288662Y-44347751D02*
X110336281Y-44395370D01*
X110336281Y-44395370D02*
X110383900Y-44347751D01*
X110383900Y-44347751D02*
X110336281Y-44300132D01*
X110336281Y-44300132D02*
X110336281Y-44395370D01*
X109145805Y-44109656D02*
X108479138Y-44109656D01*
X109621995Y-44252513D02*
X109241043Y-44252513D01*
X109717233Y-44585846D02*
X109193424Y-44585846D01*
X109098186Y-44681084D02*
X108574376Y-44681084D01*
X109193424Y-45157275D02*
X108479138Y-45157275D01*
X109098186Y-44300132D02*
X109098186Y-44633465D01*
X109098186Y-44300132D02*
X108574376Y-44300132D01*
X108574376Y-44300132D02*
X108574376Y-44633465D01*
X108669614Y-44776322D02*
X108717233Y-45062036D01*
X109050567Y-44776322D02*
X109002948Y-45062036D01*
X109574376Y-44062036D02*
X109669614Y-44442989D01*
X109431519Y-44252513D02*
X109431519Y-44585846D01*
X109431519Y-44585846D02*
X109479138Y-44871560D01*
X109479138Y-44871560D02*
X109717233Y-45157275D01*
X109479138Y-44776322D02*
X109193424Y-44919179D01*
X107764853Y-44157275D02*
X107050567Y-44157275D01*
X108241043Y-44300132D02*
X107860091Y-44300132D01*
X107812472Y-44490608D02*
X107002948Y-44490608D01*
X107812472Y-44681084D02*
X107002948Y-44681084D01*
X108193424Y-45157275D02*
X108002948Y-45157275D01*
X108002948Y-44014417D02*
X108002948Y-45157275D01*
X107383901Y-44014417D02*
X107383901Y-44204894D01*
X107193424Y-44204894D02*
X107241043Y-44442989D01*
X107574377Y-44252513D02*
X107526758Y-44490608D01*
X107526758Y-44490608D02*
X107669615Y-44919179D01*
X107669615Y-44919179D02*
X107050567Y-45157275D01*
X107860091Y-44633465D02*
X108241043Y-44728703D01*
X107193424Y-44681084D02*
X107288662Y-44919179D01*
X107288662Y-44919179D02*
X107383901Y-45014417D01*
X107383901Y-45014417D02*
X107812472Y-45157275D01*
X105669615Y-44681084D02*
X105669615Y-45157275D01*
X106002948Y-44157275D02*
X105669615Y-44681084D01*
X105669615Y-44681084D02*
X105336282Y-44157275D01*
X105002948Y-44776322D02*
X104241044Y-44776322D01*
X103193425Y-45062036D02*
X103241044Y-45109656D01*
X103241044Y-45109656D02*
X103383901Y-45157275D01*
X103383901Y-45157275D02*
X103479139Y-45157275D01*
X103479139Y-45157275D02*
X103621996Y-45109656D01*
X103621996Y-45109656D02*
X103717234Y-45014417D01*
X103717234Y-45014417D02*
X103764853Y-44919179D01*
X103764853Y-44919179D02*
X103812472Y-44728703D01*
X103812472Y-44728703D02*
X103812472Y-44585846D01*
X103812472Y-44585846D02*
X103764853Y-44395370D01*
X103764853Y-44395370D02*
X103717234Y-44300132D01*
X103717234Y-44300132D02*
X103621996Y-44204894D01*
X103621996Y-44204894D02*
X103479139Y-44157275D01*
X103479139Y-44157275D02*
X103383901Y-44157275D01*
X103383901Y-44157275D02*
X103241044Y-44204894D01*
X103241044Y-44204894D02*
X103193425Y-44252513D01*
X118002945Y-45862457D02*
X117955326Y-45814838D01*
X117955326Y-45814838D02*
X117860088Y-45767219D01*
X117860088Y-45767219D02*
X117621993Y-45767219D01*
X117621993Y-45767219D02*
X117526755Y-45814838D01*
X117526755Y-45814838D02*
X117479136Y-45862457D01*
X117479136Y-45862457D02*
X117431517Y-45957695D01*
X117431517Y-45957695D02*
X117431517Y-46052933D01*
X117431517Y-46052933D02*
X117479136Y-46195790D01*
X117479136Y-46195790D02*
X118050564Y-46767219D01*
X118050564Y-46767219D02*
X117431517Y-46767219D01*
X117002945Y-46671980D02*
X116955326Y-46719600D01*
X116955326Y-46719600D02*
X117002945Y-46767219D01*
X117002945Y-46767219D02*
X117050564Y-46719600D01*
X117050564Y-46719600D02*
X117002945Y-46671980D01*
X117002945Y-46671980D02*
X117002945Y-46767219D01*
X115764851Y-45624361D02*
X115764851Y-46767219D01*
X115955327Y-46005314D02*
X115621993Y-46338647D01*
X115621993Y-46338647D02*
X115431517Y-46433885D01*
X116336279Y-45671980D02*
X116526755Y-46005314D01*
X116526755Y-46005314D02*
X116669612Y-46195790D01*
X116526755Y-46100552D02*
X116241041Y-46338647D01*
X116383898Y-45862457D02*
X116050565Y-45862457D01*
X116050565Y-45862457D02*
X116193422Y-46338647D01*
X116193422Y-46338647D02*
X116336279Y-46529123D01*
X116336279Y-46529123D02*
X116574374Y-46767219D01*
X115145803Y-45814838D02*
X114526756Y-45814838D01*
X115193422Y-46148171D02*
X114479137Y-46148171D01*
X115098184Y-46671980D02*
X114621994Y-46671980D01*
X115098184Y-46338647D02*
X115098184Y-46767219D01*
X114860089Y-45624361D02*
X114860089Y-45814838D01*
X115098184Y-46338647D02*
X114621994Y-46338647D01*
X114621994Y-46338647D02*
X114574375Y-46767219D01*
X114383899Y-45719600D02*
X114383899Y-46767219D01*
X115050565Y-45910076D02*
X115002946Y-46052933D01*
X114621994Y-45862457D02*
X114717232Y-46100552D01*
X114383899Y-45719600D02*
X113955327Y-45719600D01*
X113955327Y-45719600D02*
X114193422Y-46100552D01*
X114193422Y-46100552D02*
X114002946Y-46243409D01*
X114002946Y-46243409D02*
X113955327Y-46386266D01*
X113955327Y-46386266D02*
X113955327Y-46576742D01*
X113955327Y-46576742D02*
X114193422Y-46576742D01*
X113241042Y-45719600D02*
X112621994Y-45719600D01*
X113336280Y-45862457D02*
X112479137Y-45862457D01*
X113241042Y-46052933D02*
X112574375Y-46052933D01*
X113241042Y-46243409D02*
X112574375Y-46243409D01*
X113241042Y-46719600D02*
X112574375Y-46719600D01*
X113479137Y-45862457D02*
X113479137Y-46767219D01*
X113241042Y-46433885D02*
X113241042Y-46767219D01*
X113241042Y-46433885D02*
X112574375Y-46433885D01*
X112574375Y-46433885D02*
X112574375Y-46767219D01*
X113383899Y-45671980D02*
X113479137Y-45910076D01*
X113479137Y-45910076D02*
X113717232Y-46148171D01*
X112050566Y-46005314D02*
X111193423Y-46005314D01*
X112241042Y-46195790D02*
X111002947Y-46195790D01*
X111621995Y-46767219D02*
X111336281Y-46767219D01*
X112050566Y-45671980D02*
X112050566Y-46005314D01*
X112050566Y-45671980D02*
X111193423Y-45671980D01*
X111193423Y-45671980D02*
X111193423Y-46005314D01*
X111907709Y-46195790D02*
X112002947Y-46481504D01*
X111955328Y-46386266D02*
X111193423Y-46386266D01*
X111193423Y-46386266D02*
X111288661Y-46767219D01*
X110336281Y-46433885D02*
X110288662Y-46481504D01*
X110288662Y-46481504D02*
X110336281Y-46529123D01*
X110336281Y-46529123D02*
X110383900Y-46481504D01*
X110383900Y-46481504D02*
X110336281Y-46433885D01*
X110336281Y-46433885D02*
X110336281Y-46529123D01*
X110336281Y-45910076D02*
X110288662Y-45957695D01*
X110288662Y-45957695D02*
X110336281Y-46005314D01*
X110336281Y-46005314D02*
X110383900Y-45957695D01*
X110383900Y-45957695D02*
X110336281Y-45910076D01*
X110336281Y-45910076D02*
X110336281Y-46005314D01*
X109717233Y-46005314D02*
X109241043Y-46005314D01*
X109383900Y-45719600D02*
X109383900Y-46767219D01*
X109431519Y-46148171D02*
X109241043Y-46338647D01*
X109050567Y-45862457D02*
X108764852Y-46005314D01*
X108860091Y-45624361D02*
X109098186Y-45910076D01*
X109431519Y-46005314D02*
X109669614Y-46481504D01*
X108907710Y-46291028D02*
X109193424Y-46433885D01*
X109241043Y-45671980D02*
X109717233Y-45719600D01*
X109002948Y-45767219D02*
X108526757Y-45767219D01*
X108526757Y-45767219D02*
X108764852Y-46052933D01*
X108764852Y-46052933D02*
X109145805Y-46195790D01*
X108907710Y-46291028D02*
X108431519Y-46291028D01*
X108431519Y-46291028D02*
X108717233Y-46576742D01*
X108717233Y-46576742D02*
X108955329Y-46719600D01*
X108955329Y-46719600D02*
X109193424Y-46767219D01*
X109002948Y-46386266D02*
X108717233Y-46529123D01*
X107717234Y-46005314D02*
X107193424Y-46005314D01*
X107812472Y-46291028D02*
X107050567Y-46291028D01*
X107621996Y-46767219D02*
X107479139Y-46767219D01*
X108241043Y-45671980D02*
X108241043Y-46767219D01*
X107431520Y-46005314D02*
X107431520Y-46767219D01*
X108050567Y-46052933D02*
X107955329Y-46433885D01*
X107241043Y-46433885D02*
X107050567Y-46576742D01*
X107431520Y-45671980D02*
X107145805Y-45957695D01*
X107145805Y-45957695D02*
X107002948Y-46005314D01*
X107431520Y-45671980D02*
X107812472Y-45957695D01*
X108241043Y-45719600D02*
X107907710Y-45719600D01*
X107907710Y-45719600D02*
X108050567Y-46005314D01*
X107717234Y-46386266D02*
X107812472Y-46624361D01*
X107955329Y-46433885D02*
X108098186Y-46433885D01*
X106193425Y-45719600D02*
X105526758Y-45719600D01*
X106669615Y-45862457D02*
X106288663Y-45862457D01*
X106764853Y-46195790D02*
X106241044Y-46195790D01*
X106145806Y-46291028D02*
X105621996Y-46291028D01*
X106241044Y-46767219D02*
X105526758Y-46767219D01*
X106145806Y-45910076D02*
X106145806Y-46243409D01*
X106145806Y-45910076D02*
X105621996Y-45910076D01*
X105621996Y-45910076D02*
X105621996Y-46243409D01*
X105717234Y-46386266D02*
X105764853Y-46671980D01*
X106098187Y-46386266D02*
X106050568Y-46671980D01*
X106621996Y-45671980D02*
X106717234Y-46052933D01*
X106479139Y-45862457D02*
X106479139Y-46195790D01*
X106479139Y-46195790D02*
X106526758Y-46481504D01*
X106526758Y-46481504D02*
X106764853Y-46767219D01*
X106526758Y-46386266D02*
X106241044Y-46529123D01*
X104812473Y-45767219D02*
X104098187Y-45767219D01*
X105288663Y-45910076D02*
X104907711Y-45910076D01*
X104860092Y-46100552D02*
X104050568Y-46100552D01*
X104860092Y-46291028D02*
X104050568Y-46291028D01*
X105241044Y-46767219D02*
X105050568Y-46767219D01*
X105050568Y-45624361D02*
X105050568Y-46767219D01*
X104431521Y-45624361D02*
X104431521Y-45814838D01*
X104241044Y-45814838D02*
X104288663Y-46052933D01*
X104621997Y-45862457D02*
X104574378Y-46100552D01*
X104574378Y-46100552D02*
X104717235Y-46529123D01*
X104717235Y-46529123D02*
X104098187Y-46767219D01*
X104907711Y-46243409D02*
X105288663Y-46338647D01*
X104241044Y-46291028D02*
X104336282Y-46529123D01*
X104336282Y-46529123D02*
X104431521Y-46624361D01*
X104431521Y-46624361D02*
X104860092Y-46767219D01*
X103241045Y-45862457D02*
X102574378Y-45862457D01*
X103241045Y-46052933D02*
X102574378Y-46052933D01*
X103193426Y-46386266D02*
X102621997Y-46386266D01*
X103526759Y-46481504D02*
X103383902Y-46481504D01*
X103193426Y-46576742D02*
X102621997Y-46576742D01*
X103193426Y-46719600D02*
X102621997Y-46719600D01*
X103812473Y-45910076D02*
X103812473Y-46481504D01*
X103621997Y-45624361D02*
X103621997Y-46767219D01*
X103812473Y-45910076D02*
X103383902Y-45910076D01*
X103383902Y-45910076D02*
X103383902Y-46481504D01*
X103241045Y-45671980D02*
X103241045Y-46052933D01*
X103193426Y-46195790D02*
X103193426Y-46767219D01*
X103193426Y-46195790D02*
X102621997Y-46195790D01*
X102621997Y-46195790D02*
X102621997Y-46767219D01*
X103241045Y-45671980D02*
X102574378Y-45671980D01*
X102574378Y-45671980D02*
X102574378Y-46052933D01*
X118023183Y-52038227D02*
X116927945Y-52038227D01*
X118023183Y-52323941D02*
X116927945Y-52323941D01*
X117451755Y-52657275D02*
X116832707Y-52657275D01*
X118023183Y-51704894D02*
X118023183Y-52419179D01*
X117451755Y-51514417D02*
X117451755Y-52657275D01*
X118023183Y-51704894D02*
X116927945Y-51704894D01*
X116927945Y-51704894D02*
X116927945Y-52323941D01*
X116785088Y-52419179D02*
X116832707Y-52657275D01*
X116118422Y-51562036D02*
X115308898Y-51562036D01*
X115975565Y-51990608D02*
X115404136Y-51990608D01*
X115975565Y-52181084D02*
X115404136Y-52181084D01*
X115880327Y-52657275D02*
X115689851Y-52657275D01*
X115975565Y-51800132D02*
X115975565Y-52181084D01*
X115689851Y-51609656D02*
X115737470Y-51800132D01*
X115689851Y-52181084D02*
X115689851Y-52657275D01*
X115975565Y-51800132D02*
X115404136Y-51800132D01*
X115404136Y-51800132D02*
X115404136Y-52181084D01*
X115499374Y-52323941D02*
X115356517Y-52466798D01*
X115927946Y-52323941D02*
X116023184Y-52514417D01*
X116451755Y-51562036D02*
X116261279Y-51657275D01*
X116546993Y-51895370D02*
X116308898Y-51990608D01*
X116308898Y-52228703D02*
X116499374Y-52657275D01*
X116118422Y-51562036D02*
X116118422Y-52133465D01*
X116118422Y-52133465D02*
X116213660Y-52514417D01*
X114832708Y-52133465D02*
X114023184Y-52133465D01*
X114689851Y-52657275D02*
X114118422Y-52657275D01*
X114832708Y-51800132D02*
X114832708Y-52133465D01*
X114689851Y-52323941D02*
X114689851Y-52657275D01*
X114832708Y-51800132D02*
X114023184Y-51800132D01*
X114023184Y-51800132D02*
X114023184Y-52133465D01*
X114499375Y-52228703D02*
X114308899Y-52419179D01*
X114023184Y-52371560D02*
X113880327Y-52514417D01*
X114689851Y-51562036D02*
X114642232Y-51752513D01*
X114118422Y-52514417D02*
X114118422Y-52657275D01*
X114213661Y-51657275D02*
X114356518Y-51800132D01*
X114927946Y-52371560D02*
X115023184Y-52609656D01*
X114166042Y-51514417D02*
X114213661Y-51704894D01*
X113546994Y-51609656D02*
X112404137Y-51609656D01*
X113594613Y-52085846D02*
X112356518Y-52085846D01*
X112689852Y-51609656D02*
X112689852Y-52657275D01*
X113308899Y-52419179D02*
X113546994Y-52657275D01*
X113213661Y-51609656D02*
X113213661Y-52133465D01*
X113213661Y-52133465D02*
X113308899Y-52466798D01*
X112023185Y-51847751D02*
X110975566Y-51847751D01*
X112070804Y-52133465D02*
X110880328Y-52133465D01*
X111880328Y-51562036D02*
X111737471Y-51704894D01*
X111070804Y-51562036D02*
X111261281Y-51752513D01*
X111499376Y-52038227D02*
X111404138Y-52371560D01*
X111404138Y-52371560D02*
X111213662Y-52514417D01*
X111213662Y-52514417D02*
X110880328Y-52657275D01*
X111499376Y-51847751D02*
X111499376Y-52276322D01*
X111499376Y-52276322D02*
X111689852Y-52514417D01*
X111689852Y-52514417D02*
X112118423Y-52657275D01*
X110499376Y-52562036D02*
X110451757Y-52609656D01*
X110451757Y-52609656D02*
X110499376Y-52657275D01*
X110499376Y-52657275D02*
X110546995Y-52609656D01*
X110546995Y-52609656D02*
X110499376Y-52562036D01*
X110499376Y-52562036D02*
X110499376Y-52657275D01*
X110499376Y-52038227D02*
X110451757Y-52085846D01*
X110451757Y-52085846D02*
X110499376Y-52133465D01*
X110499376Y-52133465D02*
X110546995Y-52085846D01*
X110546995Y-52085846D02*
X110499376Y-52038227D01*
X110499376Y-52038227D02*
X110499376Y-52133465D01*
X110070805Y-52609656D02*
X109927948Y-52657275D01*
X109927948Y-52657275D02*
X109689853Y-52657275D01*
X109689853Y-52657275D02*
X109594615Y-52609656D01*
X109594615Y-52609656D02*
X109546996Y-52562036D01*
X109546996Y-52562036D02*
X109499377Y-52466798D01*
X109499377Y-52466798D02*
X109499377Y-52371560D01*
X109499377Y-52371560D02*
X109546996Y-52276322D01*
X109546996Y-52276322D02*
X109594615Y-52228703D01*
X109594615Y-52228703D02*
X109689853Y-52181084D01*
X109689853Y-52181084D02*
X109880329Y-52133465D01*
X109880329Y-52133465D02*
X109975567Y-52085846D01*
X109975567Y-52085846D02*
X110023186Y-52038227D01*
X110023186Y-52038227D02*
X110070805Y-51942989D01*
X110070805Y-51942989D02*
X110070805Y-51847751D01*
X110070805Y-51847751D02*
X110023186Y-51752513D01*
X110023186Y-51752513D02*
X109975567Y-51704894D01*
X109975567Y-51704894D02*
X109880329Y-51657275D01*
X109880329Y-51657275D02*
X109642234Y-51657275D01*
X109642234Y-51657275D02*
X109499377Y-51704894D01*
X108546996Y-52657275D02*
X109118424Y-52657275D01*
X108832710Y-52657275D02*
X108832710Y-51657275D01*
X108832710Y-51657275D02*
X108927948Y-51800132D01*
X108927948Y-51800132D02*
X109023186Y-51895370D01*
X109023186Y-51895370D02*
X109118424Y-51942989D01*
X108118424Y-52371560D02*
X107927948Y-52609656D01*
X106785091Y-51657275D02*
X106785091Y-52371560D01*
X106785091Y-52371560D02*
X106832710Y-52514417D01*
X106832710Y-52514417D02*
X106927948Y-52609656D01*
X106927948Y-52609656D02*
X107070805Y-52657275D01*
X107070805Y-52657275D02*
X107166043Y-52657275D01*
X105880329Y-51657275D02*
X106070805Y-51657275D01*
X106070805Y-51657275D02*
X106166043Y-51704894D01*
X106166043Y-51704894D02*
X106213662Y-51752513D01*
X106213662Y-51752513D02*
X106308900Y-51895370D01*
X106308900Y-51895370D02*
X106356519Y-52085846D01*
X106356519Y-52085846D02*
X106356519Y-52466798D01*
X106356519Y-52466798D02*
X106308900Y-52562036D01*
X106308900Y-52562036D02*
X106261281Y-52609656D01*
X106261281Y-52609656D02*
X106166043Y-52657275D01*
X106166043Y-52657275D02*
X105975567Y-52657275D01*
X105975567Y-52657275D02*
X105880329Y-52609656D01*
X105880329Y-52609656D02*
X105832710Y-52562036D01*
X105832710Y-52562036D02*
X105785091Y-52466798D01*
X105785091Y-52466798D02*
X105785091Y-52228703D01*
X105785091Y-52228703D02*
X105832710Y-52133465D01*
X105832710Y-52133465D02*
X105880329Y-52085846D01*
X105880329Y-52085846D02*
X105975567Y-52038227D01*
X105975567Y-52038227D02*
X106166043Y-52038227D01*
X106166043Y-52038227D02*
X106261281Y-52085846D01*
X106261281Y-52085846D02*
X106308900Y-52133465D01*
X106308900Y-52133465D02*
X106356519Y-52228703D01*
X117975564Y-53410076D02*
X116832707Y-53410076D01*
X118023183Y-53791028D02*
X116785088Y-53791028D01*
X117118422Y-53410076D02*
X117118422Y-54267219D01*
X117689850Y-53171980D02*
X117642231Y-53362457D01*
X117737469Y-54029123D02*
X117927945Y-54267219D01*
X117118422Y-53171980D02*
X117166041Y-53314838D01*
X117689850Y-53410076D02*
X117689850Y-53791028D01*
X117689850Y-53791028D02*
X117737469Y-54076742D01*
X115975565Y-53410076D02*
X115356517Y-53410076D01*
X116451755Y-53457695D02*
X116118422Y-53457695D01*
X116451755Y-53743409D02*
X116118422Y-53743409D01*
X116023184Y-53743409D02*
X115308898Y-53743409D01*
X116451755Y-53171980D02*
X116451755Y-54029123D01*
X116546993Y-53171980D02*
X116118422Y-53171980D01*
X116118422Y-53171980D02*
X116118422Y-54267219D01*
X115594612Y-53981504D02*
X115356517Y-54267219D01*
X115927946Y-53171980D02*
X115785089Y-53314838D01*
X115785089Y-53981504D02*
X116023184Y-54267219D01*
X115451755Y-53219600D02*
X115689851Y-53410076D01*
X115689851Y-53410076D02*
X115689851Y-53791028D01*
X115689851Y-53791028D02*
X115546993Y-54124361D01*
X115689851Y-53743409D02*
X115880327Y-54124361D01*
X115689851Y-53600552D02*
X115785089Y-54029123D01*
X116023184Y-53981504D02*
X116546993Y-54076742D01*
X114499375Y-53410076D02*
X113880327Y-53410076D01*
X114975565Y-53457695D02*
X114642232Y-53457695D01*
X114975565Y-53743409D02*
X114642232Y-53743409D01*
X114546994Y-53743409D02*
X113832708Y-53743409D01*
X114975565Y-53171980D02*
X114975565Y-54029123D01*
X115070803Y-53171980D02*
X114642232Y-53171980D01*
X114642232Y-53171980D02*
X114642232Y-54267219D01*
X114118422Y-53981504D02*
X113880327Y-54267219D01*
X114451756Y-53171980D02*
X114308899Y-53314838D01*
X114308899Y-53981504D02*
X114546994Y-54267219D01*
X113975565Y-53219600D02*
X114213661Y-53410076D01*
X114213661Y-53410076D02*
X114213661Y-53791028D01*
X114213661Y-53791028D02*
X114070803Y-54124361D01*
X114213661Y-53743409D02*
X114404137Y-54124361D01*
X114213661Y-53600552D02*
X114308899Y-54029123D01*
X114546994Y-53981504D02*
X115070803Y-54076742D01*
X113546994Y-53267219D02*
X113023185Y-53267219D01*
X113594613Y-53552933D02*
X113023185Y-53552933D01*
X112689852Y-54267219D02*
X112451756Y-54267219D01*
X112737471Y-53838647D02*
X112927947Y-54219600D01*
X113404137Y-53552933D02*
X113546994Y-54076742D01*
X112927947Y-53457695D02*
X112356518Y-53457695D01*
X112356518Y-53457695D02*
X112356518Y-53886266D01*
X112356518Y-53886266D02*
X112451756Y-54267219D01*
X112689852Y-53171980D02*
X112689852Y-53552933D01*
X112689852Y-53552933D02*
X112785090Y-54029123D01*
X113166042Y-53743409D02*
X113023185Y-54029123D01*
X113023185Y-54029123D02*
X113594613Y-54076742D01*
X112118423Y-53648171D02*
X111023185Y-53648171D01*
X112118423Y-53933885D02*
X111023185Y-53933885D01*
X111546995Y-54267219D02*
X110927947Y-54267219D01*
X112118423Y-53314838D02*
X112118423Y-54029123D01*
X111546995Y-53124361D02*
X111546995Y-54267219D01*
X112118423Y-53314838D02*
X111023185Y-53314838D01*
X111023185Y-53314838D02*
X111023185Y-53933885D01*
X110880328Y-54029123D02*
X110927947Y-54267219D01*
X110594614Y-53505314D02*
X110166043Y-53505314D01*
X110356519Y-53791028D02*
X110166043Y-53791028D01*
X109975567Y-54219600D02*
X109499376Y-54219600D01*
X110594614Y-53171980D02*
X110594614Y-53505314D01*
X110546995Y-53743409D02*
X110546995Y-54171980D01*
X110356519Y-53505314D02*
X110356519Y-54124361D01*
X110594614Y-53171980D02*
X110166043Y-53171980D01*
X110166043Y-53171980D02*
X110166043Y-53505314D01*
X109975567Y-53791028D02*
X109975567Y-54267219D01*
X109975567Y-53838647D02*
X109451757Y-53838647D01*
X109451757Y-53838647D02*
X109499376Y-54267219D01*
X109975567Y-53362457D02*
X110118424Y-53505314D01*
X109927948Y-53314838D02*
X109880329Y-53505314D01*
X109880329Y-53505314D02*
X109594614Y-53791028D01*
X109594614Y-53791028D02*
X109404138Y-53838647D01*
X109880329Y-53124361D02*
X110023186Y-53457695D01*
X109927948Y-53267219D02*
X109546995Y-53267219D01*
X109546995Y-53267219D02*
X109642233Y-53505314D01*
X109642233Y-53505314D02*
X109927948Y-53743409D01*
X109927948Y-53743409D02*
X110166043Y-53838647D01*
X110166043Y-54076742D02*
X110642233Y-54171980D01*
M02*
