%TF.GenerationSoftware,KiCad,Pcbnew,8.0.1*%
%TF.CreationDate,2024-06-02T10:18:44+08:00*%
%TF.ProjectId,CrazyPowerboard,4372617a-7950-46f7-9765-72626f617264,rev?*%
%TF.SameCoordinates,Original*%
%TF.FileFunction,Copper,L2,Bot*%
%TF.FilePolarity,Positive*%
%FSLAX46Y46*%
G04 Gerber Fmt 4.6, Leading zero omitted, Abs format (unit mm)*
G04 Created by KiCad (PCBNEW 8.0.1) date 2024-06-02 10:18:44*
%MOMM*%
%LPD*%
G01*
G04 APERTURE LIST*
G04 Aperture macros list*
%AMRoundRect*
0 Rectangle with rounded corners*
0 $1 Rounding radius*
0 $2 $3 $4 $5 $6 $7 $8 $9 X,Y pos of 4 corners*
0 Add a 4 corners polygon primitive as box body*
4,1,4,$2,$3,$4,$5,$6,$7,$8,$9,$2,$3,0*
0 Add four circle primitives for the rounded corners*
1,1,$1+$1,$2,$3*
1,1,$1+$1,$4,$5*
1,1,$1+$1,$6,$7*
1,1,$1+$1,$8,$9*
0 Add four rect primitives between the rounded corners*
20,1,$1+$1,$2,$3,$4,$5,0*
20,1,$1+$1,$4,$5,$6,$7,0*
20,1,$1+$1,$6,$7,$8,$9,0*
20,1,$1+$1,$8,$9,$2,$3,0*%
G04 Aperture macros list end*
%TA.AperFunction,ComponentPad*%
%ADD10R,0.900000X2.000000*%
%TD*%
%TA.AperFunction,ComponentPad*%
%ADD11RoundRect,1.025000X1.025000X1.025000X-1.025000X1.025000X-1.025000X-1.025000X1.025000X-1.025000X0*%
%TD*%
%TA.AperFunction,ComponentPad*%
%ADD12C,4.100000*%
%TD*%
%TA.AperFunction,ComponentPad*%
%ADD13R,1.700000X1.700000*%
%TD*%
%TA.AperFunction,ComponentPad*%
%ADD14O,1.700000X1.700000*%
%TD*%
%TA.AperFunction,ComponentPad*%
%ADD15C,0.800000*%
%TD*%
%TA.AperFunction,ComponentPad*%
%ADD16C,6.400000*%
%TD*%
%TA.AperFunction,ViaPad*%
%ADD17C,0.550000*%
%TD*%
%TA.AperFunction,ViaPad*%
%ADD18C,0.800000*%
%TD*%
%TA.AperFunction,Conductor*%
%ADD19C,0.250000*%
%TD*%
%TA.AperFunction,Conductor*%
%ADD20C,0.300000*%
%TD*%
%TA.AperFunction,Conductor*%
%ADD21C,1.500000*%
%TD*%
G04 APERTURE END LIST*
D10*
%TO.P,J1,*%
%TO.N,*%
X116825000Y-77500000D03*
X103325000Y-77500000D03*
D11*
%TO.P,J1,1,Pin_1*%
%TO.N,GND*%
X113675000Y-71500000D03*
D12*
%TO.P,J1,2,Pin_2*%
%TO.N,+12V*%
X106475000Y-71500000D03*
%TD*%
D13*
%TO.P,J3,1,Pin_1*%
%TO.N,+5V*%
X106103200Y-32917400D03*
D14*
%TO.P,J3,2,Pin_2*%
%TO.N,GND*%
X108643200Y-32917400D03*
%TO.P,J3,3,Pin_3*%
%TO.N,+5V*%
X106103200Y-35457400D03*
%TO.P,J3,4,Pin_4*%
%TO.N,GND*%
X108643200Y-35457400D03*
%TO.P,J3,5,Pin_5*%
%TO.N,+5V*%
X106103200Y-37997400D03*
%TO.P,J3,6,Pin_6*%
%TO.N,GND*%
X108643200Y-37997400D03*
%TO.P,J3,7,Pin_7*%
%TO.N,+5V*%
X106103200Y-40537400D03*
%TO.P,J3,8,Pin_8*%
%TO.N,GND*%
X108643200Y-40537400D03*
%TD*%
D13*
%TO.P,J9,1,Pin_1*%
%TO.N,Net-(J9-Pin_1)*%
X91350000Y-50440000D03*
D14*
%TO.P,J9,2,Pin_2*%
%TO.N,Net-(J9-Pin_2)*%
X88810000Y-50440000D03*
%TO.P,J9,3,Pin_3*%
%TO.N,Net-(J9-Pin_3)*%
X91350000Y-47900000D03*
%TO.P,J9,4,Pin_4*%
%TO.N,Net-(J9-Pin_4)*%
X88810000Y-47900000D03*
%TD*%
D15*
%TO.P,H1,1,1*%
%TO.N,GND*%
X84200000Y-32952944D03*
X84902944Y-31255888D03*
X84902944Y-34650000D03*
X86600000Y-30552944D03*
D16*
X86600000Y-32952944D03*
D15*
X86600000Y-35352944D03*
X88297056Y-31255888D03*
X88297056Y-34650000D03*
X89000000Y-32952944D03*
%TD*%
%TO.P,H2,1,1*%
%TO.N,GND*%
X112227944Y-64347056D03*
X112930888Y-62650000D03*
X112930888Y-66044112D03*
X114627944Y-61947056D03*
D16*
X114627944Y-64347056D03*
D15*
X114627944Y-66747056D03*
X116325000Y-62650000D03*
X116325000Y-66044112D03*
X117027944Y-64347056D03*
%TD*%
D13*
%TO.P,J13,1,Pin_1*%
%TO.N,/POW_12V*%
X84075000Y-54315000D03*
D14*
%TO.P,J13,2,Pin_2*%
X86615000Y-54315000D03*
%TO.P,J13,3,Pin_3*%
%TO.N,Net-(J13-Pin_3)*%
X84075000Y-56855000D03*
%TO.P,J13,4,Pin_4*%
X86615000Y-56855000D03*
%TD*%
D13*
%TO.P,J5,1,Pin_1*%
%TO.N,GND*%
X104075000Y-54385000D03*
D14*
%TO.P,J5,2,Pin_2*%
%TO.N,/POW_12V*%
X104075000Y-56925000D03*
%TD*%
D13*
%TO.P,J7,1,Pin_1*%
%TO.N,/POW_12V*%
X88600000Y-67275000D03*
D14*
%TO.P,J7,2,Pin_2*%
%TO.N,GND*%
X86060000Y-67275000D03*
%TO.P,J7,3,Pin_3*%
%TO.N,/POW_12V*%
X88600000Y-64735000D03*
%TO.P,J7,4,Pin_4*%
%TO.N,GND*%
X86060000Y-64735000D03*
%TD*%
D10*
%TO.P,J4,*%
%TO.N,*%
X97325000Y-78400000D03*
X83825000Y-78400000D03*
D11*
%TO.P,J4,1,Pin_1*%
%TO.N,GND*%
X86975000Y-72400000D03*
D12*
%TO.P,J4,2,Pin_2*%
%TO.N,/POW_12V*%
X94175000Y-72400000D03*
%TD*%
D13*
%TO.P,J2,1,Pin_1*%
%TO.N,Net-(J2-Pin_1)*%
X114325000Y-32820000D03*
D14*
%TO.P,J2,2,Pin_2*%
%TO.N,Net-(J2-Pin_2)*%
X116865000Y-32820000D03*
%TO.P,J2,3,Pin_3*%
%TO.N,Net-(J2-Pin_1)*%
X114325000Y-35360000D03*
%TO.P,J2,4,Pin_4*%
%TO.N,Net-(J2-Pin_2)*%
X116865000Y-35360000D03*
%TO.P,J2,5,Pin_5*%
%TO.N,/ESC_Vbb*%
X114325000Y-37900000D03*
%TO.P,J2,6,Pin_6*%
X116865000Y-37900000D03*
%TO.P,J2,7,Pin_7*%
%TO.N,GND*%
X114325000Y-40440000D03*
%TO.P,J2,8,Pin_8*%
X116865000Y-40440000D03*
%TD*%
D13*
%TO.P,J6,1,Pin_1*%
%TO.N,GND*%
X107825000Y-54360000D03*
D14*
%TO.P,J6,2,Pin_2*%
%TO.N,Net-(J6-Pin_2)*%
X107825000Y-56900000D03*
%TD*%
D13*
%TO.P,J12,1,Pin_1*%
%TO.N,/POW_12V*%
X90285000Y-54315000D03*
D14*
%TO.P,J12,2,Pin_2*%
X92825000Y-54315000D03*
%TO.P,J12,3,Pin_3*%
%TO.N,Net-(J12-Pin_3)*%
X90285000Y-56855000D03*
%TO.P,J12,4,Pin_4*%
X92825000Y-56855000D03*
%TD*%
D17*
%TO.N,GND*%
X112350000Y-37610000D03*
X102075000Y-44606750D03*
X102075000Y-47000000D03*
X87525000Y-51900000D03*
D18*
X107575000Y-77900000D03*
X88825000Y-76650000D03*
D17*
X98553200Y-41597400D03*
X93575000Y-51850000D03*
D18*
X109575000Y-77900000D03*
D17*
X88500000Y-46075000D03*
X99053200Y-41197400D03*
X94753200Y-46547400D03*
X86675000Y-49150000D03*
D18*
X111825000Y-83550000D03*
X90825000Y-78650000D03*
D17*
X86825000Y-50900000D03*
D18*
X90825000Y-76650000D03*
D17*
X112335000Y-35580000D03*
D18*
X111575000Y-75900000D03*
X83075000Y-46900000D03*
D17*
X98053200Y-42097400D03*
D18*
X83075000Y-42150000D03*
D17*
X112350000Y-31610000D03*
X89725000Y-51900000D03*
D18*
X113575000Y-77900000D03*
D17*
X84325000Y-49650000D03*
D18*
X86925000Y-83000000D03*
X107825000Y-83550000D03*
X86825000Y-76650000D03*
D17*
X102075000Y-45400000D03*
D18*
X113575000Y-75900000D03*
X92825000Y-76650000D03*
D17*
X102075000Y-47800000D03*
D18*
X113825000Y-83550000D03*
X88925000Y-83000000D03*
X111575000Y-77900000D03*
D17*
X83375000Y-49650000D03*
X91025000Y-38400000D03*
D18*
X82775000Y-63600000D03*
D17*
X112350000Y-36610000D03*
X86625000Y-60500000D03*
X112350000Y-34610000D03*
X91025000Y-39450000D03*
X90025000Y-60650000D03*
X90825000Y-44850000D03*
D18*
X90925000Y-83000000D03*
X86825000Y-78650000D03*
X107575000Y-75900000D03*
D17*
X87075000Y-42250000D03*
X112350000Y-33610000D03*
X87575000Y-49150000D03*
X112350000Y-32610000D03*
D18*
X109825000Y-83550000D03*
D17*
X102075000Y-46200000D03*
X88725000Y-56000000D03*
X86625000Y-59500000D03*
X86625000Y-61600000D03*
D18*
X83025000Y-37800000D03*
D17*
X98053200Y-41197400D03*
X99053200Y-42097400D03*
X95453200Y-46547400D03*
X93525000Y-49300000D03*
D18*
X109575000Y-75900000D03*
X83075000Y-45150000D03*
X92825000Y-78650000D03*
X92925000Y-83000000D03*
X88825000Y-78650000D03*
%TO.N,/POW_12V*%
X97825000Y-62640000D03*
X101075000Y-57650000D03*
D17*
X85550002Y-44575000D03*
D18*
X97825000Y-67640000D03*
X100325000Y-55400000D03*
X99575000Y-67640000D03*
D17*
X85550002Y-40275000D03*
D18*
X94825000Y-53150000D03*
X91725000Y-64750000D03*
X101075000Y-67640000D03*
X97825000Y-64390000D03*
X98500000Y-59500000D03*
X97825000Y-60890000D03*
X99675000Y-53400000D03*
X101075000Y-59640000D03*
X97825000Y-66140000D03*
X100575000Y-72150000D03*
X91725000Y-67500000D03*
%TO.N,+12V*%
X104575000Y-66640000D03*
X108075000Y-64890000D03*
X104575000Y-60850000D03*
X108075000Y-62390000D03*
X104575000Y-62390000D03*
X104575000Y-64890000D03*
X108050000Y-66650000D03*
X108050000Y-60850000D03*
D17*
%TO.N,+5V*%
X93841000Y-35705200D03*
X104233200Y-39067400D03*
X100889000Y-43008200D03*
%TO.N,Net-(J9-Pin_3)*%
X87925000Y-44625000D03*
%TO.N,Net-(J9-Pin_1)*%
X87925000Y-40300000D03*
%TD*%
D19*
%TO.N,/POW_12V*%
X85575000Y-44599998D02*
X85575000Y-52625000D01*
X85550002Y-44575000D02*
X85575000Y-44599998D01*
X85550002Y-40275000D02*
X85600000Y-40324998D01*
X84075000Y-54315000D02*
X84025000Y-54265000D01*
X84075000Y-54315000D02*
X84325000Y-54065000D01*
X86615000Y-53665000D02*
X86615000Y-54315000D01*
X85575000Y-52625000D02*
X86615000Y-53665000D01*
X85600000Y-44525002D02*
X85550002Y-44575000D01*
X85600000Y-40324998D02*
X85600000Y-44525002D01*
D20*
%TO.N,+5V*%
X93853200Y-34247400D02*
X96087600Y-32013000D01*
X102542400Y-43008200D02*
X100889000Y-43008200D01*
X104245400Y-39055200D02*
X104233200Y-39067400D01*
X103694200Y-32013000D02*
X104245400Y-32564200D01*
X104233200Y-39067400D02*
X104233200Y-41317400D01*
X93853200Y-35632000D02*
X93853200Y-34247400D01*
X104233200Y-41317400D02*
X102542400Y-43008200D01*
X96087600Y-32013000D02*
X103694200Y-32013000D01*
X104245400Y-32564200D02*
X104245400Y-39055200D01*
D21*
%TO.N,Net-(J12-Pin_3)*%
X90285000Y-56855000D02*
X92825000Y-56855000D01*
%TO.N,Net-(J13-Pin_3)*%
X84075000Y-56855000D02*
X86615000Y-56855000D01*
D19*
%TO.N,Net-(J9-Pin_3)*%
X91350000Y-47900000D02*
X91350000Y-47425000D01*
X88550000Y-44625000D02*
X87925000Y-44625000D01*
X91350000Y-47425000D02*
X88550000Y-44625000D01*
%TO.N,Net-(J9-Pin_1)*%
X87925000Y-40325000D02*
X87925000Y-40300000D01*
X92900000Y-48890000D02*
X92900000Y-45300000D01*
X91350000Y-50440000D02*
X92900000Y-48890000D01*
X92900000Y-45300000D02*
X87925000Y-40325000D01*
%TD*%
%TA.AperFunction,Conductor*%
%TO.N,GND*%
G36*
X117745505Y-29403310D02*
G01*
X117922727Y-29420307D01*
X117946615Y-29424999D01*
X118111214Y-29474528D01*
X118133725Y-29483797D01*
X118285477Y-29564537D01*
X118305743Y-29578028D01*
X118438789Y-29686863D01*
X118456030Y-29704055D01*
X118565244Y-29836789D01*
X118578794Y-29857018D01*
X118634803Y-29961565D01*
X118649500Y-30020122D01*
X118649500Y-30746000D01*
X118629815Y-30813039D01*
X118577011Y-30858794D01*
X118525500Y-30870000D01*
X112350000Y-30870000D01*
X112350000Y-38610000D01*
X113100000Y-39360000D01*
X118525500Y-39360000D01*
X118592539Y-39379685D01*
X118638294Y-39432489D01*
X118649500Y-39484000D01*
X118649500Y-87396974D01*
X118634863Y-87455417D01*
X118587134Y-87544731D01*
X118573630Y-87564946D01*
X118464768Y-87697615D01*
X118447579Y-87714806D01*
X118314918Y-87823691D01*
X118294707Y-87837197D01*
X118143351Y-87918108D01*
X118120890Y-87927413D01*
X117956658Y-87977236D01*
X117932815Y-87981979D01*
X117755925Y-87999403D01*
X117743770Y-88000000D01*
X83006093Y-88000000D01*
X82993939Y-87999403D01*
X82817065Y-87981982D01*
X82793224Y-87977240D01*
X82629001Y-87927424D01*
X82606543Y-87918121D01*
X82455201Y-87837227D01*
X82434989Y-87823722D01*
X82302333Y-87714854D01*
X82285145Y-87697666D01*
X82176277Y-87565010D01*
X82162772Y-87544798D01*
X82114997Y-87455417D01*
X82081877Y-87393453D01*
X82072575Y-87370998D01*
X82022757Y-87206769D01*
X82018018Y-87182941D01*
X82000597Y-87006061D01*
X82000000Y-86993907D01*
X82000000Y-79444856D01*
X83074500Y-79444856D01*
X83074502Y-79444882D01*
X83077413Y-79469987D01*
X83077415Y-79469991D01*
X83122793Y-79572764D01*
X83122794Y-79572765D01*
X83202235Y-79652206D01*
X83305009Y-79697585D01*
X83330135Y-79700500D01*
X84319864Y-79700499D01*
X84319879Y-79700497D01*
X84319882Y-79700497D01*
X84344987Y-79697586D01*
X84344988Y-79697585D01*
X84344991Y-79697585D01*
X84447765Y-79652206D01*
X84527206Y-79572765D01*
X84572585Y-79469991D01*
X84575500Y-79444865D01*
X84575500Y-79444856D01*
X96574500Y-79444856D01*
X96574502Y-79444882D01*
X96577413Y-79469987D01*
X96577415Y-79469991D01*
X96622793Y-79572764D01*
X96622794Y-79572765D01*
X96702235Y-79652206D01*
X96805009Y-79697585D01*
X96830135Y-79700500D01*
X97819864Y-79700499D01*
X97819879Y-79700497D01*
X97819882Y-79700497D01*
X97844987Y-79697586D01*
X97844988Y-79697585D01*
X97844991Y-79697585D01*
X97947765Y-79652206D01*
X98027206Y-79572765D01*
X98072585Y-79469991D01*
X98075500Y-79444865D01*
X98075500Y-78544856D01*
X102574500Y-78544856D01*
X102574502Y-78544882D01*
X102577413Y-78569987D01*
X102577415Y-78569991D01*
X102622793Y-78672764D01*
X102622794Y-78672765D01*
X102702235Y-78752206D01*
X102805009Y-78797585D01*
X102830135Y-78800500D01*
X103819864Y-78800499D01*
X103819879Y-78800497D01*
X103819882Y-78800497D01*
X103844987Y-78797586D01*
X103844988Y-78797585D01*
X103844991Y-78797585D01*
X103947765Y-78752206D01*
X104027206Y-78672765D01*
X104072585Y-78569991D01*
X104075500Y-78544865D01*
X104075500Y-78544856D01*
X116074500Y-78544856D01*
X116074502Y-78544882D01*
X116077413Y-78569987D01*
X116077415Y-78569991D01*
X116122793Y-78672764D01*
X116122794Y-78672765D01*
X116202235Y-78752206D01*
X116305009Y-78797585D01*
X116330135Y-78800500D01*
X117319864Y-78800499D01*
X117319879Y-78800497D01*
X117319882Y-78800497D01*
X117344987Y-78797586D01*
X117344988Y-78797585D01*
X117344991Y-78797585D01*
X117447765Y-78752206D01*
X117527206Y-78672765D01*
X117572585Y-78569991D01*
X117575500Y-78544865D01*
X117575499Y-76455136D01*
X117575497Y-76455117D01*
X117572586Y-76430012D01*
X117572585Y-76430010D01*
X117572585Y-76430009D01*
X117527206Y-76327235D01*
X117447765Y-76247794D01*
X117447763Y-76247793D01*
X117344992Y-76202415D01*
X117319865Y-76199500D01*
X116330143Y-76199500D01*
X116330117Y-76199502D01*
X116305012Y-76202413D01*
X116305008Y-76202415D01*
X116202235Y-76247793D01*
X116122794Y-76327234D01*
X116077415Y-76430006D01*
X116077415Y-76430008D01*
X116074500Y-76455131D01*
X116074500Y-78544856D01*
X104075500Y-78544856D01*
X104075499Y-76455136D01*
X104075497Y-76455117D01*
X104072586Y-76430012D01*
X104072585Y-76430010D01*
X104072585Y-76430009D01*
X104027206Y-76327235D01*
X103947765Y-76247794D01*
X103947763Y-76247793D01*
X103844992Y-76202415D01*
X103819865Y-76199500D01*
X102830143Y-76199500D01*
X102830117Y-76199502D01*
X102805012Y-76202413D01*
X102805008Y-76202415D01*
X102702235Y-76247793D01*
X102622794Y-76327234D01*
X102577415Y-76430006D01*
X102577415Y-76430008D01*
X102574500Y-76455131D01*
X102574500Y-78544856D01*
X98075500Y-78544856D01*
X98075499Y-77355136D01*
X98075497Y-77355117D01*
X98072586Y-77330012D01*
X98072585Y-77330010D01*
X98072585Y-77330009D01*
X98027206Y-77227235D01*
X97947765Y-77147794D01*
X97947763Y-77147793D01*
X97844992Y-77102415D01*
X97819865Y-77099500D01*
X96830143Y-77099500D01*
X96830117Y-77099502D01*
X96805012Y-77102413D01*
X96805008Y-77102415D01*
X96702235Y-77147793D01*
X96622794Y-77227234D01*
X96577415Y-77330006D01*
X96577415Y-77330008D01*
X96574500Y-77355131D01*
X96574500Y-79444856D01*
X84575500Y-79444856D01*
X84575499Y-77355136D01*
X84575497Y-77355117D01*
X84572586Y-77330012D01*
X84572585Y-77330010D01*
X84572585Y-77330009D01*
X84527206Y-77227235D01*
X84447765Y-77147794D01*
X84447763Y-77147793D01*
X84344992Y-77102415D01*
X84319865Y-77099500D01*
X83330143Y-77099500D01*
X83330117Y-77099502D01*
X83305012Y-77102413D01*
X83305008Y-77102415D01*
X83202235Y-77147793D01*
X83122794Y-77227234D01*
X83077415Y-77330006D01*
X83077415Y-77330008D01*
X83074500Y-77355131D01*
X83074500Y-79444856D01*
X82000000Y-79444856D01*
X82000000Y-64735000D01*
X87444571Y-64735000D01*
X87464244Y-64947310D01*
X87522596Y-65152392D01*
X87522596Y-65152394D01*
X87617632Y-65343253D01*
X87617634Y-65343255D01*
X87746128Y-65513407D01*
X87903698Y-65657052D01*
X88084981Y-65769298D01*
X88283802Y-65846321D01*
X88456544Y-65878612D01*
X88518823Y-65910279D01*
X88554096Y-65970591D01*
X88551162Y-66040400D01*
X88510953Y-66097540D01*
X88446235Y-66123871D01*
X88433757Y-66124500D01*
X87705143Y-66124500D01*
X87705117Y-66124502D01*
X87680012Y-66127413D01*
X87680008Y-66127415D01*
X87577235Y-66172793D01*
X87497794Y-66252234D01*
X87452415Y-66355006D01*
X87452415Y-66355008D01*
X87449500Y-66380131D01*
X87449500Y-68169856D01*
X87449502Y-68169882D01*
X87452413Y-68194987D01*
X87452415Y-68194991D01*
X87497793Y-68297764D01*
X87497794Y-68297765D01*
X87577235Y-68377206D01*
X87680009Y-68422585D01*
X87705135Y-68425500D01*
X89494864Y-68425499D01*
X89494879Y-68425497D01*
X89494882Y-68425497D01*
X89519987Y-68422586D01*
X89519988Y-68422585D01*
X89519991Y-68422585D01*
X89622765Y-68377206D01*
X89702206Y-68297765D01*
X89747585Y-68194991D01*
X89750500Y-68169865D01*
X89750499Y-66380136D01*
X89750497Y-66380117D01*
X89747586Y-66355012D01*
X89747585Y-66355010D01*
X89747585Y-66355009D01*
X89702206Y-66252235D01*
X89622765Y-66172794D01*
X89622763Y-66172793D01*
X89519992Y-66127415D01*
X89494868Y-66124500D01*
X88766243Y-66124500D01*
X88699204Y-66104815D01*
X88653449Y-66052011D01*
X88643505Y-65982853D01*
X88672530Y-65919297D01*
X88731308Y-65881523D01*
X88743441Y-65878614D01*
X88916198Y-65846321D01*
X89115019Y-65769298D01*
X89296302Y-65657052D01*
X89453872Y-65513407D01*
X89582366Y-65343255D01*
X89677405Y-65152389D01*
X89735756Y-64947310D01*
X89755429Y-64735000D01*
X89735756Y-64522690D01*
X89677405Y-64317611D01*
X89677403Y-64317606D01*
X89677403Y-64317605D01*
X89582367Y-64126746D01*
X89453872Y-63956593D01*
X89296302Y-63812948D01*
X89115019Y-63700702D01*
X89115017Y-63700701D01*
X89015608Y-63662190D01*
X88916198Y-63623679D01*
X88706610Y-63584500D01*
X88493390Y-63584500D01*
X88283802Y-63623679D01*
X88283799Y-63623679D01*
X88283799Y-63623680D01*
X88084982Y-63700701D01*
X88084980Y-63700702D01*
X87903699Y-63812947D01*
X87746127Y-63956593D01*
X87617632Y-64126746D01*
X87522596Y-64317605D01*
X87522596Y-64317607D01*
X87464244Y-64522689D01*
X87444571Y-64734999D01*
X87444571Y-64735000D01*
X82000000Y-64735000D01*
X82000000Y-55098896D01*
X82919500Y-55098896D01*
X82923855Y-55141424D01*
X82924500Y-55154054D01*
X82924500Y-55209868D01*
X82927414Y-55234988D01*
X82927415Y-55234991D01*
X82972793Y-55337764D01*
X82972794Y-55337765D01*
X83052235Y-55417206D01*
X83063263Y-55422075D01*
X83096245Y-55443445D01*
X83109581Y-55455478D01*
X83109587Y-55455483D01*
X83109589Y-55455484D01*
X83373360Y-55632589D01*
X83375505Y-55634012D01*
X83375941Y-55634302D01*
X83377956Y-55635625D01*
X83378027Y-55635672D01*
X83378029Y-55635673D01*
X83444160Y-55666270D01*
X83496738Y-55712285D01*
X83516090Y-55779421D01*
X83496075Y-55846362D01*
X83457371Y-55884234D01*
X83378701Y-55932945D01*
X83221127Y-56076593D01*
X83092632Y-56246746D01*
X82997596Y-56437605D01*
X82997596Y-56437607D01*
X82939244Y-56642689D01*
X82919571Y-56854999D01*
X82919571Y-56855000D01*
X82939244Y-57067310D01*
X82997596Y-57272392D01*
X82997596Y-57272394D01*
X83092632Y-57463253D01*
X83145496Y-57533255D01*
X83221128Y-57633407D01*
X83378698Y-57777052D01*
X83559981Y-57889298D01*
X83758802Y-57966321D01*
X83968390Y-58005500D01*
X84056005Y-58005500D01*
X84075779Y-58007087D01*
X84094499Y-58010111D01*
X84094502Y-58010110D01*
X84094503Y-58010111D01*
X84504178Y-58000016D01*
X84506298Y-57999933D01*
X84512849Y-57999680D01*
X84513528Y-57999644D01*
X84522607Y-57999026D01*
X84821072Y-57974269D01*
X84821143Y-57974262D01*
X84821150Y-57974262D01*
X84825577Y-57973862D01*
X84825593Y-57973860D01*
X84825642Y-57973856D01*
X84826009Y-57973820D01*
X84831008Y-57973288D01*
X85082177Y-57944469D01*
X85085946Y-57944096D01*
X85334740Y-57923460D01*
X85355236Y-57923460D01*
X85604036Y-57944097D01*
X85607893Y-57944478D01*
X85858990Y-57973288D01*
X85863989Y-57973820D01*
X85864356Y-57973856D01*
X85864392Y-57973859D01*
X85864420Y-57973862D01*
X85868847Y-57974262D01*
X85868865Y-57974263D01*
X85868926Y-57974269D01*
X86167391Y-57999026D01*
X86176470Y-57999644D01*
X86177149Y-57999680D01*
X86183142Y-57999912D01*
X86185819Y-58000016D01*
X86575594Y-58009620D01*
X86595500Y-58010111D01*
X86598567Y-58010171D01*
X86598841Y-58010175D01*
X86609996Y-58010135D01*
X86619509Y-58008139D01*
X86644961Y-58005500D01*
X86721608Y-58005500D01*
X86721610Y-58005500D01*
X86931198Y-57966321D01*
X87130019Y-57889298D01*
X87311302Y-57777052D01*
X87468872Y-57633407D01*
X87597366Y-57463255D01*
X87657548Y-57342392D01*
X87692403Y-57272394D01*
X87692403Y-57272393D01*
X87692405Y-57272389D01*
X87750756Y-57067310D01*
X87770429Y-56855000D01*
X87750756Y-56642690D01*
X87692405Y-56437611D01*
X87692403Y-56437606D01*
X87692403Y-56437605D01*
X87597367Y-56246746D01*
X87468872Y-56076593D01*
X87388088Y-56002948D01*
X87311302Y-55932948D01*
X87311300Y-55932947D01*
X87311296Y-55932943D01*
X87306726Y-55929492D01*
X87308052Y-55927735D01*
X87267862Y-55882898D01*
X87256759Y-55813916D01*
X87284713Y-55749882D01*
X87342849Y-55711126D01*
X87379776Y-55705500D01*
X89520224Y-55705500D01*
X89587263Y-55725185D01*
X89633018Y-55777989D01*
X89642962Y-55847147D01*
X89613937Y-55910703D01*
X89592728Y-55928770D01*
X89593274Y-55929492D01*
X89588703Y-55932943D01*
X89431127Y-56076593D01*
X89302632Y-56246746D01*
X89207596Y-56437605D01*
X89207596Y-56437607D01*
X89149244Y-56642689D01*
X89129571Y-56854999D01*
X89129571Y-56855000D01*
X89149244Y-57067310D01*
X89207596Y-57272392D01*
X89207596Y-57272394D01*
X89302632Y-57463253D01*
X89355496Y-57533255D01*
X89431128Y-57633407D01*
X89588698Y-57777052D01*
X89769981Y-57889298D01*
X89968802Y-57966321D01*
X90178390Y-58005500D01*
X90266005Y-58005500D01*
X90285779Y-58007087D01*
X90304499Y-58010111D01*
X90304502Y-58010110D01*
X90304503Y-58010111D01*
X90714178Y-58000016D01*
X90716298Y-57999933D01*
X90722849Y-57999680D01*
X90723528Y-57999644D01*
X90732607Y-57999026D01*
X91031072Y-57974269D01*
X91031143Y-57974262D01*
X91031150Y-57974262D01*
X91035577Y-57973862D01*
X91035593Y-57973860D01*
X91035642Y-57973856D01*
X91036009Y-57973820D01*
X91041008Y-57973288D01*
X91292177Y-57944469D01*
X91295946Y-57944096D01*
X91544740Y-57923460D01*
X91565236Y-57923460D01*
X91814036Y-57944097D01*
X91817893Y-57944478D01*
X92068990Y-57973288D01*
X92073989Y-57973820D01*
X92074356Y-57973856D01*
X92074392Y-57973859D01*
X92074420Y-57973862D01*
X92078847Y-57974262D01*
X92078865Y-57974263D01*
X92078926Y-57974269D01*
X92377391Y-57999026D01*
X92386470Y-57999644D01*
X92387149Y-57999680D01*
X92393142Y-57999912D01*
X92395819Y-58000016D01*
X92785594Y-58009620D01*
X92805500Y-58010111D01*
X92808567Y-58010171D01*
X92808841Y-58010175D01*
X92819996Y-58010135D01*
X92829509Y-58008139D01*
X92854961Y-58005500D01*
X92931608Y-58005500D01*
X92931610Y-58005500D01*
X93141198Y-57966321D01*
X93296521Y-57906148D01*
X93366143Y-57900286D01*
X93427883Y-57932996D01*
X93462138Y-57993892D01*
X93458033Y-58063641D01*
X93416870Y-58120098D01*
X93408368Y-58126081D01*
X90716749Y-59856407D01*
X90716748Y-59856408D01*
X90665902Y-59897392D01*
X90628643Y-59934658D01*
X90602445Y-59964511D01*
X90551560Y-60064587D01*
X90531877Y-60131618D01*
X90519500Y-60217699D01*
X90519500Y-74598638D01*
X90521250Y-74631281D01*
X90521254Y-74631334D01*
X90524081Y-74657625D01*
X90524920Y-74664660D01*
X90524920Y-74664662D01*
X90559700Y-74771401D01*
X90559704Y-74771411D01*
X90593189Y-74832733D01*
X90645289Y-74902329D01*
X90645307Y-74902350D01*
X91072646Y-75329688D01*
X91072660Y-75329702D01*
X91085904Y-75341598D01*
X91096993Y-75351559D01*
X91117674Y-75368224D01*
X91123172Y-75372551D01*
X91123175Y-75372553D01*
X91223251Y-75423439D01*
X91290290Y-75443124D01*
X91376362Y-75455500D01*
X91376365Y-75455500D01*
X98276528Y-75455500D01*
X98303078Y-75454343D01*
X98303084Y-75454342D01*
X98303094Y-75454342D01*
X98324588Y-75452465D01*
X98325070Y-75452422D01*
X98325524Y-75452382D01*
X98325524Y-75452381D01*
X98325534Y-75452381D01*
X98433586Y-75421892D01*
X98496199Y-75390885D01*
X98567839Y-75341598D01*
X100726879Y-73348638D01*
X102269500Y-73348638D01*
X102271250Y-73381281D01*
X102271254Y-73381334D01*
X102274081Y-73407625D01*
X102274920Y-73414660D01*
X102274920Y-73414662D01*
X102309700Y-73521401D01*
X102309704Y-73521411D01*
X102343189Y-73582733D01*
X102395289Y-73652329D01*
X102395307Y-73652350D01*
X103322646Y-74579688D01*
X103322660Y-74579702D01*
X103343741Y-74598638D01*
X103346993Y-74601559D01*
X103367674Y-74618224D01*
X103373172Y-74622551D01*
X103373175Y-74622553D01*
X103473251Y-74673439D01*
X103540290Y-74693124D01*
X103626362Y-74705500D01*
X103626365Y-74705500D01*
X109023639Y-74705500D01*
X109025559Y-74705397D01*
X109056297Y-74703749D01*
X109082655Y-74700915D01*
X109089660Y-74700080D01*
X109196407Y-74665297D01*
X109257730Y-74631812D01*
X109258440Y-74631281D01*
X109327329Y-74579710D01*
X109327340Y-74579702D01*
X110254702Y-73652340D01*
X110276558Y-73628008D01*
X110293192Y-73607366D01*
X110297553Y-73601825D01*
X110348439Y-73501749D01*
X110368124Y-73434710D01*
X110380500Y-73348638D01*
X110380500Y-60701362D01*
X110378749Y-60668703D01*
X110375915Y-60642345D01*
X110375080Y-60635340D01*
X110346703Y-60548252D01*
X110340299Y-60528598D01*
X110340295Y-60528588D01*
X110306810Y-60467266D01*
X110254710Y-60397670D01*
X110254704Y-60397663D01*
X110254702Y-60397660D01*
X110254698Y-60397656D01*
X110254692Y-60397649D01*
X109827353Y-59970311D01*
X109827349Y-59970307D01*
X109827340Y-59970298D01*
X109803008Y-59948442D01*
X109785901Y-59934657D01*
X109782325Y-59931775D01*
X109776827Y-59927448D01*
X109776825Y-59927447D01*
X109676747Y-59876560D01*
X109609716Y-59856877D01*
X109609710Y-59856876D01*
X109523638Y-59844500D01*
X103126362Y-59844500D01*
X103126361Y-59844500D01*
X103093718Y-59846250D01*
X103093709Y-59846250D01*
X103093703Y-59846251D01*
X103093698Y-59846251D01*
X103093665Y-59846254D01*
X103067374Y-59849081D01*
X103060339Y-59849920D01*
X103060337Y-59849920D01*
X102953598Y-59884700D01*
X102953588Y-59884704D01*
X102892266Y-59918189D01*
X102822670Y-59970289D01*
X102822649Y-59970307D01*
X102395311Y-60397646D01*
X102395295Y-60397663D01*
X102373440Y-60421993D01*
X102356775Y-60442674D01*
X102352448Y-60448172D01*
X102352447Y-60448174D01*
X102301560Y-60548252D01*
X102281877Y-60615283D01*
X102281876Y-60615290D01*
X102274202Y-60668665D01*
X102269500Y-60701364D01*
X102269500Y-73348638D01*
X100726879Y-73348638D01*
X101742322Y-72411306D01*
X101769110Y-72383224D01*
X101789318Y-72359147D01*
X101797553Y-72348895D01*
X101848439Y-72248819D01*
X101868124Y-72181780D01*
X101880500Y-72095708D01*
X101880500Y-56925000D01*
X102919571Y-56925000D01*
X102939244Y-57137310D01*
X102997596Y-57342392D01*
X102997596Y-57342394D01*
X103092632Y-57533253D01*
X103221127Y-57703406D01*
X103221128Y-57703407D01*
X103378698Y-57847052D01*
X103559981Y-57959298D01*
X103758802Y-58036321D01*
X103968390Y-58075500D01*
X103968392Y-58075500D01*
X104181608Y-58075500D01*
X104181610Y-58075500D01*
X104391198Y-58036321D01*
X104590019Y-57959298D01*
X104771302Y-57847052D01*
X104928872Y-57703407D01*
X105057366Y-57533255D01*
X105092222Y-57463255D01*
X105152403Y-57342394D01*
X105152403Y-57342393D01*
X105152405Y-57342389D01*
X105210756Y-57137310D01*
X105230429Y-56925000D01*
X105228112Y-56900000D01*
X106669571Y-56900000D01*
X106689244Y-57112310D01*
X106747596Y-57317392D01*
X106747596Y-57317394D01*
X106842632Y-57508253D01*
X106971127Y-57678406D01*
X106971128Y-57678407D01*
X107128698Y-57822052D01*
X107309981Y-57934298D01*
X107508802Y-58011321D01*
X107718390Y-58050500D01*
X107718392Y-58050500D01*
X107931608Y-58050500D01*
X107931610Y-58050500D01*
X108141198Y-58011321D01*
X108340019Y-57934298D01*
X108521302Y-57822052D01*
X108678872Y-57678407D01*
X108807366Y-57508255D01*
X108845707Y-57431255D01*
X108902403Y-57317394D01*
X108902403Y-57317393D01*
X108902405Y-57317389D01*
X108960756Y-57112310D01*
X108980429Y-56900000D01*
X108960756Y-56687690D01*
X108902405Y-56482611D01*
X108902403Y-56482606D01*
X108902403Y-56482605D01*
X108807367Y-56291746D01*
X108678872Y-56121593D01*
X108645229Y-56090923D01*
X108521302Y-55977948D01*
X108340019Y-55865702D01*
X108340017Y-55865701D01*
X108206343Y-55813916D01*
X108141198Y-55788679D01*
X107931610Y-55749500D01*
X107718390Y-55749500D01*
X107508802Y-55788679D01*
X107508799Y-55788679D01*
X107508799Y-55788680D01*
X107309982Y-55865701D01*
X107309980Y-55865702D01*
X107128699Y-55977947D01*
X106971127Y-56121593D01*
X106842632Y-56291746D01*
X106747596Y-56482605D01*
X106747596Y-56482607D01*
X106689244Y-56687689D01*
X106669571Y-56899999D01*
X106669571Y-56900000D01*
X105228112Y-56900000D01*
X105210756Y-56712690D01*
X105152405Y-56507611D01*
X105152403Y-56507606D01*
X105152403Y-56507605D01*
X105057367Y-56316746D01*
X104928872Y-56146593D01*
X104901448Y-56121593D01*
X104771302Y-56002948D01*
X104590019Y-55890702D01*
X104590017Y-55890701D01*
X104475563Y-55846362D01*
X104391198Y-55813679D01*
X104181610Y-55774500D01*
X103968390Y-55774500D01*
X103758802Y-55813679D01*
X103758799Y-55813679D01*
X103758799Y-55813680D01*
X103559982Y-55890701D01*
X103559980Y-55890702D01*
X103378699Y-56002947D01*
X103221127Y-56146593D01*
X103092632Y-56316746D01*
X102997596Y-56507605D01*
X102997596Y-56507607D01*
X102939244Y-56712689D01*
X102919571Y-56924999D01*
X102919571Y-56925000D01*
X101880500Y-56925000D01*
X101880500Y-56167366D01*
X101877547Y-56124993D01*
X101872776Y-56090928D01*
X101863975Y-56049374D01*
X101850710Y-56002948D01*
X101540792Y-54918236D01*
X100894440Y-52656004D01*
X100887320Y-52634217D01*
X100880887Y-52616775D01*
X100880885Y-52616773D01*
X100880884Y-52616769D01*
X100825144Y-52522433D01*
X100825142Y-52522429D01*
X100779387Y-52469625D01*
X100779381Y-52469619D01*
X100779375Y-52469612D01*
X100734659Y-52427451D01*
X100734656Y-52427449D01*
X100734654Y-52427447D01*
X100634578Y-52376561D01*
X100634577Y-52376560D01*
X100634576Y-52376560D01*
X100567545Y-52356877D01*
X100567539Y-52356876D01*
X100481467Y-52344500D01*
X100481464Y-52344500D01*
X86124500Y-52344500D01*
X86057461Y-52324815D01*
X86011706Y-52272011D01*
X86000500Y-52220500D01*
X86000500Y-45152962D01*
X86003153Y-45127449D01*
X86005679Y-45115435D01*
X86007497Y-45034248D01*
X86008281Y-45022849D01*
X86011508Y-44994861D01*
X86015021Y-44976590D01*
X86018613Y-44963365D01*
X86022969Y-44950265D01*
X86042326Y-44901354D01*
X86043364Y-44898819D01*
X86075746Y-44822177D01*
X86080928Y-44809911D01*
X86084013Y-44802328D01*
X86084879Y-44797778D01*
X86086104Y-44791345D01*
X86093354Y-44767083D01*
X86110689Y-44725236D01*
X86123885Y-44625000D01*
X87344534Y-44625000D01*
X87364312Y-44775234D01*
X87364313Y-44775236D01*
X87416038Y-44900112D01*
X87422302Y-44915233D01*
X87514549Y-45035451D01*
X87634767Y-45127698D01*
X87774764Y-45185687D01*
X87849882Y-45195576D01*
X87924999Y-45205466D01*
X87925000Y-45205466D01*
X87925001Y-45205466D01*
X87975078Y-45198873D01*
X88075236Y-45185687D01*
X88215233Y-45127698D01*
X88262334Y-45091556D01*
X88327503Y-45066361D01*
X88395948Y-45080399D01*
X88425502Y-45102250D01*
X90093338Y-46770086D01*
X90110307Y-46791252D01*
X90112484Y-46794677D01*
X90247666Y-46969360D01*
X90269199Y-47012505D01*
X90285849Y-47073318D01*
X90289678Y-47117967D01*
X90277597Y-47243229D01*
X90275925Y-47254813D01*
X90228757Y-47499323D01*
X90226080Y-47515523D01*
X90225915Y-47516713D01*
X90224120Y-47532949D01*
X90202511Y-47791424D01*
X90177310Y-47856590D01*
X90123952Y-47895541D01*
X90169501Y-47921668D01*
X90201692Y-47983681D01*
X90203470Y-47996048D01*
X90214244Y-48112310D01*
X90272596Y-48317392D01*
X90272596Y-48317394D01*
X90367632Y-48508253D01*
X90496127Y-48678406D01*
X90496128Y-48678407D01*
X90653698Y-48822052D01*
X90834981Y-48934298D01*
X91033802Y-49011321D01*
X91033803Y-49011321D01*
X91038511Y-49013145D01*
X91093912Y-49055718D01*
X91117503Y-49121485D01*
X91101792Y-49189565D01*
X91051768Y-49238344D01*
X91039974Y-49243821D01*
X90948625Y-49280549D01*
X90902368Y-49289500D01*
X90455143Y-49289500D01*
X90455117Y-49289502D01*
X90430012Y-49292413D01*
X90430008Y-49292415D01*
X90327235Y-49337793D01*
X90247794Y-49417234D01*
X90202415Y-49520006D01*
X90202415Y-49520008D01*
X90199500Y-49545131D01*
X90199500Y-50283951D01*
X90179815Y-50350990D01*
X90127011Y-50396745D01*
X90057853Y-50406689D01*
X89994297Y-50377664D01*
X89956523Y-50318886D01*
X89952029Y-50295391D01*
X89945756Y-50227689D01*
X89931273Y-50176789D01*
X89887405Y-50022611D01*
X89887403Y-50022606D01*
X89887403Y-50022605D01*
X89792367Y-49831746D01*
X89663872Y-49661593D01*
X89506302Y-49517948D01*
X89325019Y-49405702D01*
X89325017Y-49405701D01*
X89225608Y-49367190D01*
X89126198Y-49328679D01*
X88929385Y-49291888D01*
X88867106Y-49260221D01*
X88831833Y-49199908D01*
X88834767Y-49130100D01*
X88874976Y-49072960D01*
X88929384Y-49048111D01*
X89126198Y-49011321D01*
X89325019Y-48934298D01*
X89506302Y-48822052D01*
X89663872Y-48678407D01*
X89792366Y-48508255D01*
X89887405Y-48317389D01*
X89945756Y-48112310D01*
X89956529Y-47996047D01*
X89982313Y-47931112D01*
X90035389Y-47893091D01*
X89990214Y-47867715D01*
X89957468Y-47805994D01*
X89955471Y-47792534D01*
X89955368Y-47791424D01*
X89945756Y-47687690D01*
X89887405Y-47482611D01*
X89887403Y-47482606D01*
X89887403Y-47482605D01*
X89792367Y-47291746D01*
X89663872Y-47121593D01*
X89610917Y-47073318D01*
X89506302Y-46977948D01*
X89325019Y-46865702D01*
X89325017Y-46865701D01*
X89141691Y-46794681D01*
X89126198Y-46788679D01*
X88916610Y-46749500D01*
X88703390Y-46749500D01*
X88493802Y-46788679D01*
X88493799Y-46788679D01*
X88493799Y-46788680D01*
X88294982Y-46865701D01*
X88294980Y-46865702D01*
X88113699Y-46977947D01*
X87956127Y-47121593D01*
X87827632Y-47291746D01*
X87732596Y-47482605D01*
X87732596Y-47482607D01*
X87674244Y-47687689D01*
X87654571Y-47899999D01*
X87654571Y-47900000D01*
X87674244Y-48112310D01*
X87732596Y-48317392D01*
X87732596Y-48317394D01*
X87827632Y-48508253D01*
X87956127Y-48678406D01*
X87956128Y-48678407D01*
X88113698Y-48822052D01*
X88294981Y-48934298D01*
X88493802Y-49011321D01*
X88690613Y-49048111D01*
X88752893Y-49079779D01*
X88788166Y-49140092D01*
X88785232Y-49209900D01*
X88745023Y-49267040D01*
X88690613Y-49291888D01*
X88493802Y-49328679D01*
X88493799Y-49328679D01*
X88493799Y-49328680D01*
X88294982Y-49405701D01*
X88294980Y-49405702D01*
X88113699Y-49517947D01*
X87956127Y-49661593D01*
X87827632Y-49831746D01*
X87732596Y-50022605D01*
X87732596Y-50022607D01*
X87674244Y-50227689D01*
X87654571Y-50439999D01*
X87654571Y-50440000D01*
X87674244Y-50652310D01*
X87732596Y-50857392D01*
X87732596Y-50857394D01*
X87827632Y-51048253D01*
X87827634Y-51048255D01*
X87956128Y-51218407D01*
X88113698Y-51362052D01*
X88294981Y-51474298D01*
X88493802Y-51551321D01*
X88703390Y-51590500D01*
X88703392Y-51590500D01*
X88916608Y-51590500D01*
X88916610Y-51590500D01*
X89126198Y-51551321D01*
X89325019Y-51474298D01*
X89506302Y-51362052D01*
X89663872Y-51218407D01*
X89792366Y-51048255D01*
X89792367Y-51048253D01*
X89887403Y-50857394D01*
X89887403Y-50857393D01*
X89887405Y-50857389D01*
X89945756Y-50652310D01*
X89952029Y-50584605D01*
X89977814Y-50519669D01*
X90034614Y-50478981D01*
X90104395Y-50475461D01*
X90165002Y-50510225D01*
X90197193Y-50572238D01*
X90199500Y-50596047D01*
X90199500Y-51334856D01*
X90199502Y-51334882D01*
X90202413Y-51359987D01*
X90202415Y-51359991D01*
X90247793Y-51462764D01*
X90247794Y-51462765D01*
X90327235Y-51542206D01*
X90430009Y-51587585D01*
X90455135Y-51590500D01*
X92244864Y-51590499D01*
X92244879Y-51590497D01*
X92244882Y-51590497D01*
X92269987Y-51587586D01*
X92269988Y-51587585D01*
X92269991Y-51587585D01*
X92372765Y-51542206D01*
X92452206Y-51462765D01*
X92497585Y-51359991D01*
X92500500Y-51334865D01*
X92500499Y-50887626D01*
X92509450Y-50841370D01*
X92656568Y-50475461D01*
X93144894Y-49260907D01*
X93172261Y-49219486D01*
X93202183Y-49189565D01*
X93240485Y-49151263D01*
X93296503Y-49054237D01*
X93325500Y-48946018D01*
X93325500Y-48833982D01*
X93325500Y-45243982D01*
X93325138Y-45242632D01*
X93296503Y-45135763D01*
X93261710Y-45075500D01*
X93240485Y-45038737D01*
X93161263Y-44959515D01*
X88535794Y-40334046D01*
X88502309Y-40272723D01*
X88500536Y-40262551D01*
X88497395Y-40238699D01*
X88485687Y-40149764D01*
X88427698Y-40009767D01*
X88335451Y-39889549D01*
X88215233Y-39797302D01*
X88215229Y-39797300D01*
X88075236Y-39739313D01*
X88075234Y-39739312D01*
X87925001Y-39719534D01*
X87924999Y-39719534D01*
X87774765Y-39739312D01*
X87774763Y-39739313D01*
X87634770Y-39797300D01*
X87634767Y-39797301D01*
X87634767Y-39797302D01*
X87514549Y-39889549D01*
X87441486Y-39984767D01*
X87422300Y-40009770D01*
X87364313Y-40149763D01*
X87364312Y-40149765D01*
X87344534Y-40299999D01*
X87344534Y-40300000D01*
X87364312Y-40450234D01*
X87364313Y-40450236D01*
X87396671Y-40528356D01*
X87422302Y-40590233D01*
X87514549Y-40710451D01*
X87634767Y-40802698D01*
X87774764Y-40860687D01*
X87829968Y-40867954D01*
X87893864Y-40896220D01*
X87901464Y-40903212D01*
X92438181Y-45439929D01*
X92471666Y-45501252D01*
X92474500Y-45527610D01*
X92474500Y-47109996D01*
X92454815Y-47177035D01*
X92402011Y-47222790D01*
X92332853Y-47232734D01*
X92269297Y-47203709D01*
X92251546Y-47184723D01*
X92203872Y-47121593D01*
X92150917Y-47073318D01*
X92046302Y-46977948D01*
X91995912Y-46946748D01*
X91865020Y-46865702D01*
X91865012Y-46865698D01*
X91820048Y-46848280D01*
X91810416Y-46844548D01*
X91788752Y-46833609D01*
X91782286Y-46829504D01*
X91777862Y-46826695D01*
X91478833Y-46706959D01*
X91477476Y-46706406D01*
X91276810Y-46623291D01*
X91265047Y-46617677D01*
X91131549Y-46545103D01*
X91115312Y-46534554D01*
X90970633Y-46423560D01*
X90960849Y-46415214D01*
X90742867Y-46208772D01*
X90740786Y-46206821D01*
X90740782Y-46206817D01*
X90732798Y-46201768D01*
X90711397Y-46184649D01*
X88811265Y-44284517D01*
X88811263Y-44284515D01*
X88746579Y-44247169D01*
X88714239Y-44228498D01*
X88714238Y-44228497D01*
X88714237Y-44228497D01*
X88606018Y-44199500D01*
X88606017Y-44199500D01*
X88357932Y-44199500D01*
X88290893Y-44179815D01*
X88282446Y-44173876D01*
X88215233Y-44122302D01*
X88215230Y-44122300D01*
X88075236Y-44064313D01*
X88075234Y-44064312D01*
X87925001Y-44044534D01*
X87924999Y-44044534D01*
X87774765Y-44064312D01*
X87774763Y-44064313D01*
X87634770Y-44122300D01*
X87634767Y-44122301D01*
X87634767Y-44122302D01*
X87514549Y-44214549D01*
X87424986Y-44331270D01*
X87422300Y-44334770D01*
X87364313Y-44474763D01*
X87364312Y-44474765D01*
X87344534Y-44624999D01*
X87344534Y-44625000D01*
X86123885Y-44625000D01*
X86130468Y-44575001D01*
X86130468Y-44574999D01*
X86129268Y-44565889D01*
X86129029Y-44544763D01*
X86128547Y-44544756D01*
X86128637Y-44539019D01*
X86124739Y-44488335D01*
X86119282Y-44417371D01*
X86115930Y-44390006D01*
X86115580Y-44387930D01*
X86109803Y-44361088D01*
X86085412Y-44268253D01*
X86081381Y-44254273D01*
X86081050Y-44253220D01*
X86076451Y-44239702D01*
X86054011Y-44178475D01*
X86050518Y-44167348D01*
X86040729Y-44130089D01*
X86037026Y-44108096D01*
X86033660Y-44064312D01*
X86030432Y-44022328D01*
X86029475Y-44018643D01*
X86025500Y-43987497D01*
X86025500Y-40862406D01*
X86029718Y-40830338D01*
X86030432Y-40827672D01*
X86037026Y-40741906D01*
X86040731Y-40719903D01*
X86043215Y-40710450D01*
X86050522Y-40682637D01*
X86054011Y-40671519D01*
X86076451Y-40610295D01*
X86081050Y-40596777D01*
X86081381Y-40595724D01*
X86085412Y-40581745D01*
X86105094Y-40506834D01*
X86109800Y-40488924D01*
X86115578Y-40462079D01*
X86115580Y-40462068D01*
X86115930Y-40459992D01*
X86119282Y-40432627D01*
X86128637Y-40310975D01*
X86129294Y-40299704D01*
X86129328Y-40298850D01*
X86129419Y-40289875D01*
X86130468Y-40275045D01*
X86130468Y-40274999D01*
X86110689Y-40124765D01*
X86110689Y-40124764D01*
X86052700Y-39984767D01*
X85960453Y-39864549D01*
X85840235Y-39772302D01*
X85840231Y-39772300D01*
X85700238Y-39714313D01*
X85700236Y-39714312D01*
X85550003Y-39694534D01*
X85550001Y-39694534D01*
X85399767Y-39714312D01*
X85399765Y-39714313D01*
X85259772Y-39772300D01*
X85259769Y-39772301D01*
X85259769Y-39772302D01*
X85139551Y-39864549D01*
X85089985Y-39929145D01*
X85047302Y-39984770D01*
X84989315Y-40124763D01*
X84989314Y-40124765D01*
X84969536Y-40274999D01*
X84969536Y-40275000D01*
X84989314Y-40425234D01*
X84989316Y-40425239D01*
X85017650Y-40493644D01*
X85022262Y-40506834D01*
X85028451Y-40528362D01*
X85028452Y-40528364D01*
X85075675Y-40622557D01*
X85084648Y-40639156D01*
X85084655Y-40639168D01*
X85085378Y-40640412D01*
X85095287Y-40656318D01*
X85131362Y-40710451D01*
X85140576Y-40724277D01*
X85142305Y-40726946D01*
X85147605Y-40735359D01*
X85166221Y-40790693D01*
X85169720Y-40830869D01*
X85169720Y-40830872D01*
X85169721Y-40830873D01*
X85170285Y-40832982D01*
X85174500Y-40865035D01*
X85174500Y-43985019D01*
X85170613Y-44013458D01*
X85170743Y-44013482D01*
X85170201Y-44016470D01*
X85169953Y-44018289D01*
X85169721Y-44019120D01*
X85169720Y-44019124D01*
X85166221Y-44059303D01*
X85147608Y-44114634D01*
X85142294Y-44123070D01*
X85140562Y-44125743D01*
X85095286Y-44193682D01*
X85085393Y-44209559D01*
X85084662Y-44210816D01*
X85075687Y-44227417D01*
X85028439Y-44321662D01*
X85023831Y-44331270D01*
X85023499Y-44331994D01*
X85016715Y-44347978D01*
X85016714Y-44347979D01*
X85015347Y-44355162D01*
X85008099Y-44379413D01*
X84989315Y-44424764D01*
X84969536Y-44574999D01*
X84969536Y-44575000D01*
X84989314Y-44725234D01*
X84989315Y-44725236D01*
X85014323Y-44785610D01*
X85019661Y-44801441D01*
X85025128Y-44822168D01*
X85025131Y-44822177D01*
X85069944Y-44916712D01*
X85075051Y-44926985D01*
X85075392Y-44927640D01*
X85075439Y-44927729D01*
X85080889Y-44937735D01*
X85117404Y-45001904D01*
X85120562Y-45007823D01*
X85127772Y-45022267D01*
X85140563Y-45069583D01*
X85143552Y-45115435D01*
X85144433Y-45128953D01*
X85144434Y-45128955D01*
X85145792Y-45134383D01*
X85149500Y-45164481D01*
X85149500Y-52220500D01*
X85129815Y-52287539D01*
X85077011Y-52333294D01*
X85025500Y-52344500D01*
X83656699Y-52344500D01*
X83655693Y-52344505D01*
X83653214Y-52344520D01*
X83650421Y-52344551D01*
X83650407Y-52344552D01*
X83561163Y-52358941D01*
X83561151Y-52358944D01*
X83494579Y-52380149D01*
X83438175Y-52404608D01*
X83351927Y-52476485D01*
X83351923Y-52476489D01*
X83307380Y-52530324D01*
X83262049Y-52604523D01*
X82954351Y-53321022D01*
X82942316Y-53359350D01*
X82937448Y-53372282D01*
X82927415Y-53395006D01*
X82924500Y-53420131D01*
X82924500Y-53435071D01*
X82923863Y-53447624D01*
X82919500Y-53490501D01*
X82919500Y-55098896D01*
X82000000Y-55098896D01*
X82000000Y-35705200D01*
X93260534Y-35705200D01*
X93280312Y-35855434D01*
X93280313Y-35855436D01*
X93338302Y-35995433D01*
X93430549Y-36115651D01*
X93550767Y-36207898D01*
X93690764Y-36265887D01*
X93765882Y-36275776D01*
X93840999Y-36285666D01*
X93841000Y-36285666D01*
X93841001Y-36285666D01*
X93891078Y-36279073D01*
X93991236Y-36265887D01*
X94131233Y-36207898D01*
X94251451Y-36115651D01*
X94343698Y-35995433D01*
X94401687Y-35855436D01*
X94421466Y-35705200D01*
X94401687Y-35554964D01*
X94383335Y-35510659D01*
X94376459Y-35488287D01*
X94374317Y-35477916D01*
X94373407Y-35473506D01*
X94370947Y-35467496D01*
X94364069Y-35450691D01*
X94339068Y-35389602D01*
X94336909Y-35383930D01*
X94322540Y-35343199D01*
X94318272Y-35328119D01*
X94315423Y-35314913D01*
X94313004Y-35298296D01*
X94310134Y-35260951D01*
X94309778Y-35252869D01*
X94308810Y-35165796D01*
X94308704Y-35160446D01*
X94306512Y-35150335D01*
X94303700Y-35124076D01*
X94303700Y-34485365D01*
X94323385Y-34418326D01*
X94340019Y-34397684D01*
X96237885Y-32499819D01*
X96299208Y-32466334D01*
X96325566Y-32463500D01*
X103456235Y-32463500D01*
X103523274Y-32483185D01*
X103543916Y-32499819D01*
X103758581Y-32714484D01*
X103792066Y-32775807D01*
X103794900Y-32802165D01*
X103794900Y-38484109D01*
X103791984Y-38510842D01*
X103789694Y-38521212D01*
X103789692Y-38521227D01*
X103787183Y-38598385D01*
X103785873Y-38612773D01*
X103782778Y-38633378D01*
X103778159Y-38653048D01*
X103773615Y-38667126D01*
X103769316Y-38678503D01*
X103744710Y-38735062D01*
X103744701Y-38735085D01*
X103744484Y-38735588D01*
X103703580Y-38829737D01*
X103699296Y-38840116D01*
X103697311Y-38850542D01*
X103690064Y-38874789D01*
X103672513Y-38917163D01*
X103672512Y-38917165D01*
X103652734Y-39067399D01*
X103652734Y-39067400D01*
X103672512Y-39217634D01*
X103672514Y-39217639D01*
X103692016Y-39264721D01*
X103698627Y-39285843D01*
X103700558Y-39294730D01*
X103702151Y-39302060D01*
X103739876Y-39391606D01*
X103741059Y-39394515D01*
X103760211Y-39443400D01*
X103764572Y-39456700D01*
X103768280Y-39470613D01*
X103768281Y-39470616D01*
X103771693Y-39488761D01*
X103775010Y-39518423D01*
X103775750Y-39529551D01*
X103777525Y-39612530D01*
X103777628Y-39616262D01*
X103779750Y-39625813D01*
X103782700Y-39652701D01*
X103782700Y-41079435D01*
X103763015Y-41146474D01*
X103746381Y-41167116D01*
X102392116Y-42521381D01*
X102330793Y-42554866D01*
X102304435Y-42557700D01*
X101471655Y-42557700D01*
X101446269Y-42555073D01*
X101438673Y-42553484D01*
X101434087Y-42552525D01*
X101351151Y-42550750D01*
X101340025Y-42550010D01*
X101310362Y-42546693D01*
X101292219Y-42543281D01*
X101278309Y-42539575D01*
X101265003Y-42535212D01*
X101216074Y-42516042D01*
X101213168Y-42514861D01*
X101123635Y-42477142D01*
X101123628Y-42477139D01*
X101116300Y-42474163D01*
X101116296Y-42474162D01*
X101116293Y-42474161D01*
X101116291Y-42474160D01*
X101105257Y-42472060D01*
X101080996Y-42464810D01*
X101039236Y-42447513D01*
X101039234Y-42447512D01*
X100889001Y-42427734D01*
X100888999Y-42427734D01*
X100738765Y-42447512D01*
X100738763Y-42447513D01*
X100598770Y-42505500D01*
X100598767Y-42505501D01*
X100598767Y-42505502D01*
X100539954Y-42550631D01*
X100478549Y-42597749D01*
X100386300Y-42717970D01*
X100328313Y-42857963D01*
X100328312Y-42857965D01*
X100308534Y-43008199D01*
X100308534Y-43008200D01*
X100328312Y-43158434D01*
X100328313Y-43158436D01*
X100386302Y-43298433D01*
X100478549Y-43418651D01*
X100598767Y-43510898D01*
X100738764Y-43568887D01*
X100813882Y-43578776D01*
X100888999Y-43588666D01*
X100889000Y-43588666D01*
X100889001Y-43588666D01*
X100906478Y-43586364D01*
X101039236Y-43568887D01*
X101086336Y-43549376D01*
X101107460Y-43542765D01*
X101123658Y-43539247D01*
X101213169Y-43501535D01*
X101216063Y-43500360D01*
X101245640Y-43488771D01*
X101265001Y-43481185D01*
X101278286Y-43476828D01*
X101292226Y-43473113D01*
X101310348Y-43469706D01*
X101340055Y-43466385D01*
X101351140Y-43465648D01*
X101434086Y-43463874D01*
X101437865Y-43463770D01*
X101441495Y-43462963D01*
X101447410Y-43461650D01*
X101474297Y-43458700D01*
X102601708Y-43458700D01*
X102601709Y-43458700D01*
X102692073Y-43434486D01*
X102716287Y-43427999D01*
X102819014Y-43368689D01*
X104593689Y-41594014D01*
X104652998Y-41491287D01*
X104652999Y-41491286D01*
X104683700Y-41376709D01*
X104683700Y-40537400D01*
X104947771Y-40537400D01*
X104967444Y-40749710D01*
X105009130Y-40896220D01*
X105025796Y-40954792D01*
X105025796Y-40954794D01*
X105120832Y-41145653D01*
X105249327Y-41315806D01*
X105249328Y-41315807D01*
X105406898Y-41459452D01*
X105588181Y-41571698D01*
X105787002Y-41648721D01*
X105996590Y-41687900D01*
X105996592Y-41687900D01*
X106209808Y-41687900D01*
X106209810Y-41687900D01*
X106419398Y-41648721D01*
X106618219Y-41571698D01*
X106799502Y-41459452D01*
X106957072Y-41315807D01*
X107085566Y-41145655D01*
X107180605Y-40954789D01*
X107238956Y-40749710D01*
X107258629Y-40537400D01*
X107238956Y-40325090D01*
X107180605Y-40120011D01*
X107180603Y-40120006D01*
X107180603Y-40120005D01*
X107085567Y-39929146D01*
X106957072Y-39758993D01*
X106913788Y-39719534D01*
X106799502Y-39615348D01*
X106618219Y-39503102D01*
X106618217Y-39503101D01*
X106480957Y-39449927D01*
X106419398Y-39426079D01*
X106222585Y-39389288D01*
X106160306Y-39357621D01*
X106125033Y-39297308D01*
X106127967Y-39227500D01*
X106168176Y-39170360D01*
X106222584Y-39145511D01*
X106419398Y-39108721D01*
X106618219Y-39031698D01*
X106799502Y-38919452D01*
X106957072Y-38775807D01*
X107085566Y-38605655D01*
X107089186Y-38598385D01*
X107180603Y-38414794D01*
X107180603Y-38414793D01*
X107180605Y-38414789D01*
X107238956Y-38209710D01*
X107258629Y-37997400D01*
X107238956Y-37785090D01*
X107180605Y-37580011D01*
X107180603Y-37580006D01*
X107180603Y-37580005D01*
X107085567Y-37389146D01*
X106957072Y-37218993D01*
X106799502Y-37075348D01*
X106618219Y-36963102D01*
X106618217Y-36963101D01*
X106518808Y-36924590D01*
X106419398Y-36886079D01*
X106222585Y-36849288D01*
X106160306Y-36817621D01*
X106125033Y-36757308D01*
X106127967Y-36687500D01*
X106168176Y-36630360D01*
X106222584Y-36605511D01*
X106419398Y-36568721D01*
X106618219Y-36491698D01*
X106799502Y-36379452D01*
X106957072Y-36235807D01*
X107085566Y-36065655D01*
X107180605Y-35874789D01*
X107238956Y-35669710D01*
X107258629Y-35457400D01*
X107238956Y-35245090D01*
X107180605Y-35040011D01*
X107180603Y-35040006D01*
X107180603Y-35040005D01*
X107085567Y-34849146D01*
X106957072Y-34678993D01*
X106799502Y-34535348D01*
X106618219Y-34423102D01*
X106618217Y-34423101D01*
X106518808Y-34384590D01*
X106419398Y-34346079D01*
X106246656Y-34313787D01*
X106184376Y-34282119D01*
X106149103Y-34221807D01*
X106152037Y-34151999D01*
X106192246Y-34094859D01*
X106256964Y-34068528D01*
X106269433Y-34067899D01*
X106998064Y-34067899D01*
X106998079Y-34067897D01*
X106998082Y-34067897D01*
X107023187Y-34064986D01*
X107023188Y-34064985D01*
X107023191Y-34064985D01*
X107125965Y-34019606D01*
X107205406Y-33940165D01*
X107250785Y-33837391D01*
X107253700Y-33812265D01*
X107253699Y-32022536D01*
X107253697Y-32022517D01*
X107250786Y-31997412D01*
X107250785Y-31997410D01*
X107250785Y-31997409D01*
X107205406Y-31894635D01*
X107125965Y-31815194D01*
X107125963Y-31815193D01*
X107023192Y-31769815D01*
X106998065Y-31766900D01*
X105208343Y-31766900D01*
X105208317Y-31766902D01*
X105183212Y-31769813D01*
X105183208Y-31769815D01*
X105080435Y-31815193D01*
X105000994Y-31894634D01*
X104955615Y-31997406D01*
X104955615Y-31997408D01*
X104952700Y-32022531D01*
X104952700Y-33812256D01*
X104952702Y-33812282D01*
X104955613Y-33837387D01*
X104955615Y-33837391D01*
X105000993Y-33940164D01*
X105000994Y-33940165D01*
X105080435Y-34019606D01*
X105183209Y-34064985D01*
X105208335Y-34067900D01*
X105936958Y-34067899D01*
X106003995Y-34087583D01*
X106049750Y-34140387D01*
X106059694Y-34209546D01*
X106030669Y-34273102D01*
X105971891Y-34310876D01*
X105959742Y-34313788D01*
X105903316Y-34324335D01*
X105787002Y-34346079D01*
X105787000Y-34346079D01*
X105786998Y-34346080D01*
X105588182Y-34423101D01*
X105588180Y-34423102D01*
X105406899Y-34535347D01*
X105249327Y-34678993D01*
X105120832Y-34849146D01*
X105025796Y-35040005D01*
X105025796Y-35040007D01*
X104967444Y-35245089D01*
X104947771Y-35457399D01*
X104947771Y-35457400D01*
X104967444Y-35669710D01*
X105025796Y-35874792D01*
X105025796Y-35874794D01*
X105120832Y-36065653D01*
X105249327Y-36235806D01*
X105249328Y-36235807D01*
X105406898Y-36379452D01*
X105588181Y-36491698D01*
X105787002Y-36568721D01*
X105983813Y-36605511D01*
X106046093Y-36637179D01*
X106081366Y-36697492D01*
X106078432Y-36767300D01*
X106038223Y-36824440D01*
X105983813Y-36849288D01*
X105787002Y-36886079D01*
X105786999Y-36886079D01*
X105786999Y-36886080D01*
X105588182Y-36963101D01*
X105588180Y-36963102D01*
X105406899Y-37075347D01*
X105249327Y-37218993D01*
X105120832Y-37389146D01*
X105025796Y-37580005D01*
X105025796Y-37580007D01*
X104967444Y-37785089D01*
X104947771Y-37997399D01*
X104947771Y-37997400D01*
X104967444Y-38209710D01*
X105025796Y-38414792D01*
X105025796Y-38414794D01*
X105120832Y-38605653D01*
X105249327Y-38775806D01*
X105249328Y-38775807D01*
X105406898Y-38919452D01*
X105588181Y-39031698D01*
X105787002Y-39108721D01*
X105983813Y-39145511D01*
X106046093Y-39177179D01*
X106081366Y-39237492D01*
X106078432Y-39307300D01*
X106038223Y-39364440D01*
X105983813Y-39389288D01*
X105787002Y-39426079D01*
X105786999Y-39426079D01*
X105786999Y-39426080D01*
X105588182Y-39503101D01*
X105588180Y-39503102D01*
X105406899Y-39615347D01*
X105249327Y-39758993D01*
X105120832Y-39929146D01*
X105025796Y-40120005D01*
X105025796Y-40120007D01*
X104967444Y-40325089D01*
X104951826Y-40493644D01*
X104947771Y-40537400D01*
X104683700Y-40537400D01*
X104683700Y-39650051D01*
X104686326Y-39624667D01*
X104688083Y-39616265D01*
X104688875Y-39612480D01*
X104690647Y-39529550D01*
X104691384Y-39518459D01*
X104694706Y-39488748D01*
X104698113Y-39470628D01*
X104701829Y-39456680D01*
X104706186Y-39443400D01*
X104725361Y-39394457D01*
X104726520Y-39391606D01*
X104764259Y-39302031D01*
X104767223Y-39294733D01*
X104769325Y-39283691D01*
X104776579Y-39259418D01*
X104793887Y-39217636D01*
X104813666Y-39067400D01*
X104793887Y-38917164D01*
X104775535Y-38872859D01*
X104768659Y-38850487D01*
X104766517Y-38840116D01*
X104765607Y-38835706D01*
X104763147Y-38829696D01*
X104756269Y-38812891D01*
X104731268Y-38751802D01*
X104729109Y-38746130D01*
X104714740Y-38705399D01*
X104710472Y-38690319D01*
X104707623Y-38677113D01*
X104705204Y-38660496D01*
X104702334Y-38623151D01*
X104701978Y-38615069D01*
X104701010Y-38527996D01*
X104700904Y-38522646D01*
X104698712Y-38512535D01*
X104695900Y-38486276D01*
X104695900Y-32504893D01*
X104695900Y-32504891D01*
X104665199Y-32390314D01*
X104655485Y-32373489D01*
X104605890Y-32287587D01*
X103970814Y-31652511D01*
X103919450Y-31622856D01*
X103868088Y-31593201D01*
X103855980Y-31589957D01*
X103843873Y-31586713D01*
X103843870Y-31586712D01*
X103805678Y-31576478D01*
X103753509Y-31562500D01*
X96028291Y-31562500D01*
X95937925Y-31586713D01*
X95937924Y-31586712D01*
X95913715Y-31593200D01*
X95913706Y-31593204D01*
X95810992Y-31652505D01*
X95810984Y-31652511D01*
X93492713Y-33970783D01*
X93492709Y-33970789D01*
X93433401Y-34073512D01*
X93433400Y-34073517D01*
X93402700Y-34188091D01*
X93402700Y-35121909D01*
X93399784Y-35148642D01*
X93397494Y-35159012D01*
X93397492Y-35159027D01*
X93394983Y-35236185D01*
X93393673Y-35250573D01*
X93390578Y-35271178D01*
X93385959Y-35290848D01*
X93381415Y-35304926D01*
X93377116Y-35316303D01*
X93352510Y-35372862D01*
X93352501Y-35372885D01*
X93352284Y-35373388D01*
X93311380Y-35467537D01*
X93307096Y-35477916D01*
X93305111Y-35488342D01*
X93297864Y-35512589D01*
X93280313Y-35554963D01*
X93280312Y-35554965D01*
X93260534Y-35705199D01*
X93260534Y-35705200D01*
X82000000Y-35705200D01*
X82000000Y-30503363D01*
X82000595Y-30491230D01*
X82017955Y-30314658D01*
X82022681Y-30290856D01*
X82072326Y-30126897D01*
X82081597Y-30104472D01*
X82126591Y-30020122D01*
X82162228Y-29953313D01*
X82175681Y-29933134D01*
X82284215Y-29800563D01*
X82301340Y-29783392D01*
X82433606Y-29674505D01*
X82453749Y-29660995D01*
X82604693Y-29579950D01*
X82627085Y-29570622D01*
X82790917Y-29520528D01*
X82814704Y-29515739D01*
X82991228Y-29497898D01*
X83003350Y-29497269D01*
X117733353Y-29402745D01*
X117745505Y-29403310D01*
G37*
%TD.AperFunction*%
%TD*%
%TA.AperFunction,Conductor*%
%TO.N,+12V*%
G36*
X109590677Y-60169685D02*
G01*
X109611319Y-60186319D01*
X110038681Y-60613681D01*
X110072166Y-60675004D01*
X110075000Y-60701362D01*
X110075000Y-73348638D01*
X110055315Y-73415677D01*
X110038681Y-73436319D01*
X109111319Y-74363681D01*
X109049996Y-74397166D01*
X109023638Y-74400000D01*
X103626362Y-74400000D01*
X103559323Y-74380315D01*
X103538681Y-74363681D01*
X102611319Y-73436319D01*
X102577834Y-73374996D01*
X102575000Y-73348638D01*
X102575000Y-60701362D01*
X102594685Y-60634323D01*
X102611319Y-60613681D01*
X103038681Y-60186319D01*
X103100004Y-60152834D01*
X103126362Y-60150000D01*
X109523638Y-60150000D01*
X109590677Y-60169685D01*
G37*
%TD.AperFunction*%
%TD*%
%TA.AperFunction,Conductor*%
%TO.N,/POW_12V*%
G36*
X100548506Y-52669685D02*
G01*
X100594261Y-52722489D01*
X100600694Y-52739931D01*
X101489286Y-55850000D01*
X101570229Y-56133301D01*
X101575000Y-56167366D01*
X101575000Y-72095708D01*
X101555315Y-72162747D01*
X101535107Y-72186824D01*
X98360624Y-75117116D01*
X98298011Y-75148123D01*
X98276517Y-75150000D01*
X91376362Y-75150000D01*
X91309323Y-75130315D01*
X91288681Y-75113681D01*
X90861319Y-74686319D01*
X90827834Y-74624996D01*
X90825000Y-74598638D01*
X90825000Y-60217697D01*
X90844685Y-60150658D01*
X90881943Y-60113393D01*
X94325000Y-57900000D01*
X94325000Y-55850000D01*
X94325000Y-52650000D01*
X100481467Y-52650000D01*
X100548506Y-52669685D01*
G37*
%TD.AperFunction*%
%TD*%
%TA.AperFunction,Conductor*%
%TO.N,/POW_12V*%
G36*
X94325000Y-55850000D02*
G01*
X94311432Y-55837789D01*
X93825001Y-55400000D01*
X93825000Y-55400000D01*
X83612766Y-55400000D01*
X83545727Y-55380315D01*
X83543644Y-55378947D01*
X83279878Y-55201846D01*
X83235193Y-55148134D01*
X83225000Y-55098899D01*
X83225000Y-53490499D01*
X83235062Y-53441569D01*
X83542761Y-52725070D01*
X83587302Y-52671238D01*
X83653876Y-52650032D01*
X83656699Y-52650000D01*
X94325000Y-52650000D01*
X94325000Y-55850000D01*
G37*
%TD.AperFunction*%
%TD*%
%TA.AperFunction,Conductor*%
%TO.N,/POW_12V*%
G36*
X85793234Y-44675707D02*
G01*
X85799544Y-44682060D01*
X85799514Y-44691015D01*
X85799498Y-44691054D01*
X85760032Y-44784465D01*
X85730079Y-44860149D01*
X85711727Y-44927728D01*
X85711725Y-44927734D01*
X85702522Y-45007549D01*
X85702520Y-45007568D01*
X85700256Y-45108590D01*
X85696645Y-45116784D01*
X85688559Y-45120028D01*
X85460962Y-45120028D01*
X85452689Y-45116601D01*
X85449287Y-45109089D01*
X85449254Y-45108590D01*
X85442536Y-45005484D01*
X85442536Y-45005480D01*
X85421449Y-44926566D01*
X85421448Y-44926563D01*
X85388686Y-44860938D01*
X85388684Y-44860933D01*
X85346409Y-44786642D01*
X85346006Y-44785868D01*
X85345341Y-44784465D01*
X85301184Y-44691313D01*
X85300738Y-44682371D01*
X85306745Y-44675731D01*
X85307222Y-44675518D01*
X85545489Y-44575886D01*
X85554443Y-44575857D01*
X85793234Y-44675707D01*
G37*
%TD.AperFunction*%
%TD*%
%TA.AperFunction,Conductor*%
%TO.N,/POW_12V*%
G36*
X85812413Y-40274954D02*
G01*
X85820673Y-40278411D01*
X85824070Y-40286697D01*
X85824036Y-40287551D01*
X85814681Y-40409203D01*
X85814331Y-40411279D01*
X85789940Y-40504113D01*
X85789609Y-40505166D01*
X85760199Y-40585410D01*
X85735400Y-40679796D01*
X85725831Y-40804252D01*
X85721780Y-40812238D01*
X85714165Y-40815055D01*
X85485725Y-40815055D01*
X85477452Y-40811628D01*
X85474069Y-40804370D01*
X85474059Y-40804252D01*
X85465015Y-40700400D01*
X85457794Y-40679799D01*
X85453858Y-40668568D01*
X85437882Y-40622987D01*
X85437881Y-40622985D01*
X85437881Y-40622984D01*
X85414209Y-40585410D01*
X85397835Y-40559419D01*
X85361680Y-40505166D01*
X85349509Y-40486902D01*
X85348786Y-40485658D01*
X85311497Y-40411279D01*
X85301550Y-40391439D01*
X85300906Y-40382509D01*
X85306766Y-40375738D01*
X85307477Y-40375411D01*
X85547818Y-40274913D01*
X85552367Y-40274008D01*
X85812413Y-40274954D01*
G37*
%TD.AperFunction*%
%TD*%
%TA.AperFunction,Conductor*%
%TO.N,/POW_12V*%
G36*
X85722438Y-44038372D02*
G01*
X85725831Y-44045748D01*
X85735400Y-44170202D01*
X85760199Y-44264587D01*
X85789609Y-44344831D01*
X85789940Y-44345884D01*
X85814331Y-44438719D01*
X85814681Y-44440795D01*
X85824036Y-44562448D01*
X85821253Y-44570959D01*
X85813267Y-44575011D01*
X85812413Y-44575045D01*
X85552371Y-44575991D01*
X85547814Y-44575085D01*
X85307496Y-44474596D01*
X85301186Y-44468243D01*
X85301216Y-44459288D01*
X85301541Y-44458579D01*
X85348787Y-44364338D01*
X85349509Y-44363096D01*
X85397835Y-44290580D01*
X85437882Y-44227012D01*
X85465015Y-44149599D01*
X85474069Y-44045628D01*
X85478201Y-44037685D01*
X85485725Y-44034945D01*
X85714165Y-44034945D01*
X85722438Y-44038372D01*
G37*
%TD.AperFunction*%
%TD*%
%TA.AperFunction,Conductor*%
%TO.N,+5V*%
G36*
X101005019Y-42758674D02*
G01*
X101005048Y-42758687D01*
X101099570Y-42798508D01*
X101099579Y-42798511D01*
X101099592Y-42798517D01*
X101176171Y-42828520D01*
X101244549Y-42846739D01*
X101325300Y-42855767D01*
X101422175Y-42857839D01*
X101427550Y-42857955D01*
X101435748Y-42861558D01*
X101439000Y-42869652D01*
X101439000Y-43146747D01*
X101435573Y-43155020D01*
X101427550Y-43158444D01*
X101325310Y-43160631D01*
X101325301Y-43160631D01*
X101325300Y-43160632D01*
X101304290Y-43162980D01*
X101244546Y-43169660D01*
X101176170Y-43187878D01*
X101099570Y-43217890D01*
X101005048Y-43257712D01*
X100996094Y-43257766D01*
X100989724Y-43251472D01*
X100989712Y-43251444D01*
X100889886Y-43012712D01*
X100889857Y-43003759D01*
X100889856Y-43003759D01*
X100989713Y-42764953D01*
X100996065Y-42758645D01*
X101005019Y-42758674D01*
G37*
%TD.AperFunction*%
%TD*%
%TA.AperFunction,Conductor*%
%TO.N,+5V*%
G36*
X104476444Y-39168112D02*
G01*
X104482754Y-39174465D01*
X104482724Y-39183420D01*
X104482712Y-39183448D01*
X104442890Y-39277970D01*
X104412878Y-39354570D01*
X104394660Y-39422946D01*
X104385631Y-39503710D01*
X104383445Y-39605950D01*
X104379842Y-39614148D01*
X104371748Y-39617400D01*
X104094652Y-39617400D01*
X104086379Y-39613973D01*
X104082955Y-39605950D01*
X104080767Y-39503710D01*
X104080767Y-39503700D01*
X104071739Y-39422949D01*
X104053520Y-39354571D01*
X104023517Y-39277992D01*
X103983686Y-39183447D01*
X103983633Y-39174494D01*
X103989926Y-39168124D01*
X104228687Y-39068286D01*
X104237641Y-39068257D01*
X104476444Y-39168112D01*
G37*
%TD.AperFunction*%
%TD*%
%TA.AperFunction,Conductor*%
%TO.N,+5V*%
G36*
X93999903Y-35161054D02*
G01*
X94003329Y-35169197D01*
X94004454Y-35270321D01*
X94004454Y-35270333D01*
X94004455Y-35270335D01*
X94010641Y-35350808D01*
X94010642Y-35350812D01*
X94010641Y-35350812D01*
X94025385Y-35419158D01*
X94052316Y-35495500D01*
X94052328Y-35495532D01*
X94090668Y-35589216D01*
X94090630Y-35598170D01*
X94084354Y-35604441D01*
X93845514Y-35704312D01*
X93836559Y-35704342D01*
X93836486Y-35704312D01*
X93597876Y-35604538D01*
X93591566Y-35598185D01*
X93591596Y-35589230D01*
X93591614Y-35589186D01*
X93632315Y-35495506D01*
X93632627Y-35494788D01*
X93632629Y-35494783D01*
X93665664Y-35418849D01*
X93687477Y-35351272D01*
X93699509Y-35271160D01*
X93702832Y-35168947D01*
X93706526Y-35160789D01*
X93714526Y-35157627D01*
X93991630Y-35157627D01*
X93999903Y-35161054D01*
G37*
%TD.AperFunction*%
%TD*%
%TA.AperFunction,Conductor*%
%TO.N,+5V*%
G36*
X104392103Y-38523254D02*
G01*
X104395529Y-38531397D01*
X104396654Y-38632521D01*
X104396654Y-38632533D01*
X104396655Y-38632535D01*
X104402841Y-38713008D01*
X104402842Y-38713012D01*
X104402841Y-38713012D01*
X104417585Y-38781358D01*
X104444516Y-38857700D01*
X104444528Y-38857732D01*
X104482868Y-38951416D01*
X104482830Y-38960370D01*
X104476554Y-38966641D01*
X104237714Y-39066512D01*
X104228759Y-39066542D01*
X104228686Y-39066512D01*
X103990076Y-38966738D01*
X103983766Y-38960385D01*
X103983796Y-38951430D01*
X103983814Y-38951386D01*
X104024515Y-38857706D01*
X104024827Y-38856988D01*
X104024829Y-38856983D01*
X104057864Y-38781049D01*
X104079677Y-38713472D01*
X104091709Y-38633360D01*
X104095032Y-38531147D01*
X104098726Y-38522989D01*
X104106726Y-38519827D01*
X104383830Y-38519827D01*
X104392103Y-38523254D01*
G37*
%TD.AperFunction*%
%TD*%
%TA.AperFunction,Conductor*%
%TO.N,Net-(J12-Pin_3)*%
G36*
X90296967Y-56005294D02*
G01*
X90706688Y-56015391D01*
X90707340Y-56015426D01*
X90999026Y-56039620D01*
X91005818Y-56040184D01*
X91006187Y-56040220D01*
X91263988Y-56069800D01*
X91562976Y-56094600D01*
X91973589Y-56104718D01*
X91981774Y-56108347D01*
X91985000Y-56116414D01*
X91985000Y-57593585D01*
X91981573Y-57601858D01*
X91973588Y-57605281D01*
X91563001Y-57615399D01*
X91562984Y-57615399D01*
X91562976Y-57615400D01*
X91562970Y-57615400D01*
X91562959Y-57615401D01*
X91263996Y-57640199D01*
X91006185Y-57669779D01*
X91005818Y-57669815D01*
X90707353Y-57694572D01*
X90706674Y-57694608D01*
X90296973Y-57704704D01*
X90288618Y-57701482D01*
X90284989Y-57693296D01*
X90284985Y-57693089D01*
X90284000Y-56855000D01*
X90284985Y-56016974D01*
X90288422Y-56008708D01*
X90296699Y-56005291D01*
X90296967Y-56005294D01*
G37*
%TD.AperFunction*%
%TD*%
%TA.AperFunction,Conductor*%
%TO.N,Net-(J12-Pin_3)*%
G36*
X92821381Y-56008517D02*
G01*
X92825010Y-56016703D01*
X92825014Y-56016977D01*
X92826000Y-56855000D01*
X92826000Y-56855028D01*
X92825014Y-57693022D01*
X92821577Y-57701291D01*
X92813300Y-57704708D01*
X92813026Y-57704704D01*
X92403324Y-57694608D01*
X92402645Y-57694572D01*
X92104180Y-57669815D01*
X92103813Y-57669779D01*
X91846002Y-57640199D01*
X91547039Y-57615401D01*
X91547029Y-57615400D01*
X91547023Y-57615400D01*
X91547012Y-57615399D01*
X91546997Y-57615399D01*
X91136412Y-57605281D01*
X91128226Y-57601652D01*
X91125000Y-57593585D01*
X91125000Y-56116414D01*
X91128427Y-56108141D01*
X91136410Y-56104718D01*
X91547023Y-56094600D01*
X91846011Y-56069800D01*
X92103817Y-56040219D01*
X92104175Y-56040184D01*
X92402660Y-56015426D01*
X92403309Y-56015391D01*
X92813026Y-56005295D01*
X92821381Y-56008517D01*
G37*
%TD.AperFunction*%
%TD*%
%TA.AperFunction,Conductor*%
%TO.N,Net-(J13-Pin_3)*%
G36*
X84086967Y-56005294D02*
G01*
X84496688Y-56015391D01*
X84497340Y-56015426D01*
X84789026Y-56039620D01*
X84795818Y-56040184D01*
X84796187Y-56040220D01*
X85053988Y-56069800D01*
X85352976Y-56094600D01*
X85763589Y-56104718D01*
X85771774Y-56108347D01*
X85775000Y-56116414D01*
X85775000Y-57593585D01*
X85771573Y-57601858D01*
X85763588Y-57605281D01*
X85353001Y-57615399D01*
X85352984Y-57615399D01*
X85352976Y-57615400D01*
X85352970Y-57615400D01*
X85352959Y-57615401D01*
X85053996Y-57640199D01*
X84796185Y-57669779D01*
X84795818Y-57669815D01*
X84497353Y-57694572D01*
X84496674Y-57694608D01*
X84086973Y-57704704D01*
X84078618Y-57701482D01*
X84074989Y-57693296D01*
X84074985Y-57693089D01*
X84074000Y-56855000D01*
X84074985Y-56016974D01*
X84078422Y-56008708D01*
X84086699Y-56005291D01*
X84086967Y-56005294D01*
G37*
%TD.AperFunction*%
%TD*%
%TA.AperFunction,Conductor*%
%TO.N,Net-(J13-Pin_3)*%
G36*
X86611381Y-56008517D02*
G01*
X86615010Y-56016703D01*
X86615014Y-56016977D01*
X86616000Y-56855000D01*
X86616000Y-56855028D01*
X86615014Y-57693022D01*
X86611577Y-57701291D01*
X86603300Y-57704708D01*
X86603026Y-57704704D01*
X86193324Y-57694608D01*
X86192645Y-57694572D01*
X85894180Y-57669815D01*
X85893813Y-57669779D01*
X85636002Y-57640199D01*
X85337039Y-57615401D01*
X85337029Y-57615400D01*
X85337023Y-57615400D01*
X85337012Y-57615399D01*
X85336997Y-57615399D01*
X84926412Y-57605281D01*
X84918226Y-57601652D01*
X84915000Y-57593585D01*
X84915000Y-56116414D01*
X84918427Y-56108141D01*
X84926410Y-56104718D01*
X85337023Y-56094600D01*
X85636011Y-56069800D01*
X85893817Y-56040219D01*
X85894175Y-56040184D01*
X86192660Y-56015426D01*
X86193309Y-56015391D01*
X86603026Y-56005295D01*
X86611381Y-56008517D01*
G37*
%TD.AperFunction*%
%TD*%
%TA.AperFunction,Conductor*%
%TO.N,Net-(J9-Pin_3)*%
G36*
X90532830Y-46430616D02*
G01*
X90766982Y-46652371D01*
X90956062Y-46797428D01*
X90956068Y-46797432D01*
X91139003Y-46896881D01*
X91362937Y-46989633D01*
X91362973Y-46989647D01*
X91363001Y-46989659D01*
X91664301Y-47110305D01*
X91670708Y-47116562D01*
X91670814Y-47125516D01*
X91670766Y-47125633D01*
X91353696Y-47893466D01*
X91347371Y-47899805D01*
X91342872Y-47900700D01*
X90512707Y-47900010D01*
X90504437Y-47896576D01*
X90501017Y-47888300D01*
X90501057Y-47887355D01*
X90528557Y-47558416D01*
X90528724Y-47557204D01*
X90579739Y-47292753D01*
X90601343Y-47068754D01*
X90541375Y-46849720D01*
X90354091Y-46607711D01*
X90351739Y-46599071D01*
X90355071Y-46592279D01*
X90516513Y-46430837D01*
X90524785Y-46427411D01*
X90532830Y-46430616D01*
G37*
%TD.AperFunction*%
%TD*%
%TA.AperFunction,Conductor*%
%TO.N,Net-(J9-Pin_1)*%
G36*
X92714434Y-48903547D02*
G01*
X92718117Y-48906036D01*
X92883963Y-49071882D01*
X92887390Y-49080155D01*
X92886545Y-49084520D01*
X92204405Y-50781124D01*
X92198140Y-50787521D01*
X92189185Y-50787614D01*
X92189083Y-50787573D01*
X92173469Y-50781124D01*
X91353783Y-50442561D01*
X91347446Y-50436236D01*
X91002426Y-49600914D01*
X91002435Y-49591961D01*
X91008771Y-49585636D01*
X92705481Y-48903454D01*
X92714434Y-48903547D01*
G37*
%TD.AperFunction*%
%TD*%
M02*
