%TF.GenerationSoftware,KiCad,Pcbnew,8.0.1*%
%TF.CreationDate,2024-06-02T10:18:44+08:00*%
%TF.ProjectId,CrazyPowerboard,4372617a-7950-46f7-9765-72626f617264,rev?*%
%TF.SameCoordinates,Original*%
%TF.FileFunction,Paste,Top*%
%TF.FilePolarity,Positive*%
%FSLAX46Y46*%
G04 Gerber Fmt 4.6, Leading zero omitted, Abs format (unit mm)*
G04 Created by KiCad (PCBNEW 8.0.1) date 2024-06-02 10:18:44*
%MOMM*%
%LPD*%
G01*
G04 APERTURE LIST*
G04 Aperture macros list*
%AMRoundRect*
0 Rectangle with rounded corners*
0 $1 Rounding radius*
0 $2 $3 $4 $5 $6 $7 $8 $9 X,Y pos of 4 corners*
0 Add a 4 corners polygon primitive as box body*
4,1,4,$2,$3,$4,$5,$6,$7,$8,$9,$2,$3,0*
0 Add four circle primitives for the rounded corners*
1,1,$1+$1,$2,$3*
1,1,$1+$1,$4,$5*
1,1,$1+$1,$6,$7*
1,1,$1+$1,$8,$9*
0 Add four rect primitives between the rounded corners*
20,1,$1+$1,$2,$3,$4,$5,0*
20,1,$1+$1,$4,$5,$6,$7,0*
20,1,$1+$1,$6,$7,$8,$9,0*
20,1,$1+$1,$8,$9,$2,$3,0*%
G04 Aperture macros list end*
%ADD10RoundRect,0.200000X-0.275000X0.200000X-0.275000X-0.200000X0.275000X-0.200000X0.275000X0.200000X0*%
%ADD11R,2.000000X2.500000*%
%ADD12RoundRect,0.150000X0.150000X-0.587500X0.150000X0.587500X-0.150000X0.587500X-0.150000X-0.587500X0*%
%ADD13RoundRect,0.225000X-0.225000X-0.250000X0.225000X-0.250000X0.225000X0.250000X-0.225000X0.250000X0*%
%ADD14RoundRect,0.250000X0.325000X1.100000X-0.325000X1.100000X-0.325000X-1.100000X0.325000X-1.100000X0*%
%ADD15RoundRect,0.218750X0.256250X-0.218750X0.256250X0.218750X-0.256250X0.218750X-0.256250X-0.218750X0*%
%ADD16R,1.000000X1.600000*%
%ADD17RoundRect,0.200000X-0.200000X-0.275000X0.200000X-0.275000X0.200000X0.275000X-0.200000X0.275000X0*%
%ADD18RoundRect,0.250000X-0.475000X0.250000X-0.475000X-0.250000X0.475000X-0.250000X0.475000X0.250000X0*%
%ADD19RoundRect,0.200000X0.200000X0.275000X-0.200000X0.275000X-0.200000X-0.275000X0.200000X-0.275000X0*%
%ADD20RoundRect,0.170000X-0.170000X0.170000X-0.170000X-0.170000X0.170000X-0.170000X0.170000X0.170000X0*%
%ADD21RoundRect,0.062500X-0.062500X0.350000X-0.062500X-0.350000X0.062500X-0.350000X0.062500X0.350000X0*%
%ADD22RoundRect,0.062500X-0.350000X0.062500X-0.350000X-0.062500X0.350000X-0.062500X0.350000X0.062500X0*%
%ADD23RoundRect,0.200000X-0.900000X-0.200000X0.900000X-0.200000X0.900000X0.200000X-0.900000X0.200000X0*%
%ADD24RoundRect,0.250000X-1.275000X-1.125000X1.275000X-1.125000X1.275000X1.125000X-1.275000X1.125000X0*%
%ADD25RoundRect,0.225000X-0.250000X0.225000X-0.250000X-0.225000X0.250000X-0.225000X0.250000X0.225000X0*%
%ADD26R,1.600000X1.000000*%
G04 APERTURE END LIST*
D10*
%TO.C,R4*%
X85325000Y-50075000D03*
X85325000Y-51725000D03*
%TD*%
D11*
%TO.C,L1*%
X97817200Y-35718400D03*
X102817200Y-35718400D03*
%TD*%
D12*
%TO.C,Q1*%
X83525000Y-61712500D03*
X85425000Y-61712500D03*
X84475000Y-59837500D03*
%TD*%
D13*
%TO.C,C7*%
X95237200Y-45370400D03*
X96787200Y-45370400D03*
%TD*%
D14*
%TO.C,C1*%
X102160800Y-45446600D03*
X99210800Y-45446600D03*
%TD*%
D15*
%TO.C,D1*%
X100512500Y-79937500D03*
X100512500Y-78362500D03*
%TD*%
D16*
%TO.C,S2*%
X84575000Y-40050000D03*
X87075000Y-40050000D03*
X89575000Y-40050000D03*
X84575000Y-37650000D03*
X87075000Y-37650000D03*
X89575000Y-37650000D03*
%TD*%
D17*
%TO.C,R3*%
X93841000Y-37039200D03*
X95491000Y-37039200D03*
%TD*%
D18*
%TO.C,C3*%
X101955800Y-39391200D03*
X101955800Y-41291200D03*
%TD*%
D19*
%TO.C,R2*%
X95491000Y-40442800D03*
X93841000Y-40442800D03*
%TD*%
D20*
%TO.C,U2*%
X98957500Y-41230000D03*
X98117500Y-41230000D03*
X98957500Y-42070000D03*
X98117500Y-42070000D03*
D21*
X99287500Y-40187500D03*
X98787500Y-40187500D03*
X98287500Y-40187500D03*
X97787500Y-40187500D03*
D22*
X97075000Y-40900000D03*
X97075000Y-41400000D03*
X97075000Y-41900000D03*
X97075000Y-42400000D03*
D21*
X97787500Y-43112500D03*
X98287500Y-43112500D03*
X98787500Y-43112500D03*
X99287500Y-43112500D03*
D22*
X100000000Y-42400000D03*
X100000000Y-41900000D03*
X100000000Y-41400000D03*
X100000000Y-40900000D03*
%TD*%
D23*
%TO.C,U1*%
X100075000Y-61470000D03*
X100075000Y-62610000D03*
D24*
X104700000Y-62225000D03*
X104700000Y-65275000D03*
X108050000Y-62225000D03*
X108050000Y-65275000D03*
D23*
X100075000Y-64890000D03*
X100075000Y-66030000D03*
%TD*%
D17*
%TO.C,R1*%
X93866400Y-38741000D03*
X95516400Y-38741000D03*
%TD*%
D25*
%TO.C,C5*%
X95453400Y-42233200D03*
X95453400Y-43783200D03*
%TD*%
%TO.C,C2*%
X83825000Y-50125000D03*
X83825000Y-51675000D03*
%TD*%
D10*
%TO.C,R5*%
X85325000Y-46825000D03*
X85325000Y-48475000D03*
%TD*%
D26*
%TO.C,S1*%
X110875000Y-52410000D03*
X110875000Y-54910000D03*
X110875000Y-57410000D03*
X113275000Y-52410000D03*
X113275000Y-54910000D03*
X113275000Y-57410000D03*
%TD*%
D16*
%TO.C,S3*%
X84575000Y-44650000D03*
X87075000Y-44650000D03*
X89575000Y-44650000D03*
X84575000Y-42250000D03*
X87075000Y-42250000D03*
X89575000Y-42250000D03*
%TD*%
D25*
%TO.C,C4*%
X83825000Y-46875000D03*
X83825000Y-48425000D03*
%TD*%
D10*
%TO.C,R10*%
X100512500Y-74825000D03*
X100512500Y-76475000D03*
%TD*%
D12*
%TO.C,Q2*%
X87825000Y-61650000D03*
X89725000Y-61650000D03*
X88775000Y-59775000D03*
%TD*%
M02*
